%
M48
M72
T01C0.0315
T02C0.0320
T03C0.0354
T04C0.0394
T05C0.0472
T06C0.0787
%
T01
X8600Y37755
X43500Y37555
X44500Y40555
X43500Y42555
X31000Y40755
X30000Y42755
X20900Y40755
X19900Y42755
X9600Y40755
X30000Y37755
X19900Y37755
X8600Y42755
T02
X39600Y39033
X39600Y37677
X39600Y42577
X34500Y40277
X27300Y40277
X23400Y40277
X16600Y40277
X13000Y40277
X13000Y36733
X13000Y34105
X16600Y36733
X18000Y34105
X18000Y31105
X18793Y24105
X19500Y24812
X20207Y24105
X22793Y26105
X23500Y26812
X24207Y26105
X28293Y21155
X29000Y21862
X29707Y21155
X28193Y26105
X28900Y26812
X29607Y26105
X33093Y26105
X33800Y26812
X34507Y26105
X33900Y23877
X33000Y31105
X33000Y34105
X34500Y36733
X27300Y36733
X28000Y34105
X28000Y31105
X23000Y31105
X23000Y34105
X23400Y36733
X13000Y31105
X18793Y17105
X19500Y17812
X20207Y17105
X24207Y21155
X23500Y21862
X23500Y16312
X22793Y15605
X24207Y15605
X23000Y11605
X23000Y8605
X18000Y8605
X18000Y11605
X13000Y11605
X8000Y14133
X8000Y10877
X8000Y7333
X13000Y8605
X8000Y17677
X22793Y21155
X29000Y16312
X28293Y15605
X29707Y15605
X33900Y18047
X33900Y20333
X38000Y11605
X38000Y8605
X49500Y14105
X48750Y14855
X48000Y14105
X48750Y17605
X53000Y27405
X48950Y26705
X48200Y27455
X47450Y26705
X42600Y29105
X42600Y32105
X39600Y34133
X47000Y32733
X47000Y36277
X52000Y36277
X52000Y32733
X53000Y24405
X48750Y20605
X33900Y14503
X33000Y11605
X33000Y8605
X28000Y8605
X28000Y11605
T03
X38000Y25408
X38576Y29105
X35624Y29105
X13897Y26805
X12303Y26805
X12303Y19605
X13897Y19605
X7697Y19605
X18503Y19605
X38000Y20802
X38000Y18578
X43000Y17051
X43000Y20629
X43000Y23581
X43000Y14099
X38000Y13972
X62000Y30176
X62000Y39034
X62000Y15784
X62000Y6926
X30676Y6105
X27724Y6105
X18503Y26805
X7697Y26805
T04
X43000Y12055
X43000Y5755
X48000Y5755
X53000Y5460
X57000Y9074
X53000Y12350
X48000Y12055
X53000Y15710
X57000Y29874
X57000Y38536
X53000Y22600
X57000Y17736
T05
X16300Y23305
X12300Y23305
X12300Y16105
X16300Y16105
T06
X57457Y19480
X57457Y21043
X57457Y22605
X57457Y24168
X57457Y25730
M30
