G75*
%MOIN*%
%OFA0B0*%
%FSLAX25Y25*%
%IPPOS*%
%LPD*%
%AMOC8*
5,1,8,0,0,1.08239X$1,22.5*
%
%ADD10C,0.09400*%
%ADD11C,0.12611*%
%ADD12R,0.33300X0.08300*%
%ADD13C,0.06000*%
%ADD14C,0.07400*%
D10*
X0130000Y0086050D03*
X0130000Y0116050D03*
X0180000Y0116050D03*
X0180000Y0086050D03*
X0230000Y0086050D03*
X0230000Y0116050D03*
X0280000Y0116050D03*
X0280000Y0086050D03*
X0330000Y0086050D03*
X0330000Y0116050D03*
X0380000Y0116050D03*
X0380000Y0139719D03*
X0430000Y0120546D03*
X0480000Y0120546D03*
X0530000Y0123499D03*
X0530000Y0157101D03*
X0570000Y0177357D03*
X0530000Y0225999D03*
X0530000Y0244050D03*
X0530000Y0274050D03*
X0570000Y0298743D03*
X0570000Y0385357D03*
X0445000Y0405550D03*
X0435000Y0425550D03*
X0435000Y0375550D03*
X0426000Y0321050D03*
X0426000Y0291050D03*
X0380000Y0254081D03*
X0380000Y0208019D03*
X0380000Y0185781D03*
X0487500Y0176050D03*
X0487500Y0206050D03*
X0330000Y0311050D03*
X0330000Y0341050D03*
X0300000Y0377550D03*
X0310000Y0407550D03*
X0300000Y0427550D03*
X0209000Y0407550D03*
X0199000Y0427550D03*
X0199000Y0377550D03*
X0180000Y0341050D03*
X0180000Y0311050D03*
X0130000Y0311050D03*
X0130000Y0341050D03*
X0086000Y0377550D03*
X0096000Y0407550D03*
X0086000Y0427550D03*
X0230000Y0341050D03*
X0230000Y0311050D03*
X0280000Y0311050D03*
X0280000Y0341050D03*
X0185031Y0268050D03*
X0138969Y0268050D03*
X0123031Y0268050D03*
X0076969Y0268050D03*
X0123000Y0233050D03*
X0163000Y0233050D03*
X0185031Y0196050D03*
X0138969Y0196050D03*
X0123031Y0196050D03*
X0076969Y0196050D03*
X0123000Y0161050D03*
X0163000Y0161050D03*
X0380000Y0086050D03*
X0430000Y0057554D03*
X0480000Y0057554D03*
X0530000Y0054601D03*
X0570000Y0090743D03*
D11*
X0574567Y0194800D03*
X0574567Y0210425D03*
X0574567Y0226050D03*
X0574567Y0241675D03*
X0574567Y0257300D03*
D12*
X0024000Y0062250D03*
X0024000Y0077850D03*
X0024000Y0093450D03*
X0024000Y0109050D03*
X0024000Y0124650D03*
X0024000Y0140250D03*
X0024000Y0155850D03*
X0024000Y0171450D03*
X0024000Y0187050D03*
X0024000Y0202650D03*
X0024000Y0218250D03*
X0024000Y0233850D03*
X0024000Y0249450D03*
X0024000Y0265050D03*
X0024000Y0280650D03*
X0024000Y0296250D03*
X0024000Y0311850D03*
X0024000Y0327450D03*
X0024000Y0343050D03*
X0024000Y0358650D03*
X0024000Y0374250D03*
X0024000Y0389850D03*
D13*
X0227929Y0261050D03*
X0235000Y0268121D03*
X0242071Y0261050D03*
X0281929Y0261050D03*
X0289000Y0268121D03*
X0296071Y0261050D03*
X0330929Y0261050D03*
X0338000Y0268121D03*
X0345071Y0261050D03*
X0290000Y0218621D03*
X0297071Y0211550D03*
X0282929Y0211550D03*
X0242071Y0211550D03*
X0235000Y0218621D03*
X0227929Y0211550D03*
X0202071Y0241050D03*
X0195000Y0248121D03*
X0187929Y0241050D03*
X0195000Y0178121D03*
X0202071Y0171050D03*
X0187929Y0171050D03*
X0227929Y0156050D03*
X0235000Y0163121D03*
X0242071Y0156050D03*
X0282929Y0156050D03*
X0290000Y0163121D03*
X0297071Y0156050D03*
D14*
X0339000Y0145033D03*
X0339000Y0180467D03*
X0339000Y0203333D03*
X0339000Y0238767D03*
X0470000Y0327333D03*
X0470000Y0362767D03*
X0520000Y0362767D03*
X0520000Y0327333D03*
X0482000Y0274550D03*
X0474500Y0267050D03*
X0489500Y0267050D03*
X0396000Y0341333D03*
X0396000Y0376767D03*
X0396000Y0390333D03*
X0396000Y0425767D03*
X0345000Y0402767D03*
X0345000Y0367333D03*
X0273000Y0367333D03*
X0234000Y0367333D03*
X0234000Y0402767D03*
X0273000Y0402767D03*
X0166000Y0402767D03*
X0130000Y0402767D03*
X0130000Y0367333D03*
X0166000Y0367333D03*
X0080000Y0176767D03*
X0080000Y0141333D03*
X0080000Y0108767D03*
X0080000Y0073333D03*
X0480000Y0141050D03*
X0487500Y0148550D03*
X0495000Y0141050D03*
M02*
