G75*
%MOIN*%
%OFA0B0*%
%FSLAX25Y25*%
%IPPOS*%
%LPD*%
%AMOC8*
5,1,8,0,0,1.08239X$1,22.5*
%
%ADD10C,0.08600*%
%ADD11C,0.11811*%
%ADD12C,0.05200*%
%ADD13C,0.06600*%
%ADD14R,0.32500X0.07500*%
%ADD15C,0.03200*%
%ADD16C,0.04000*%
%ADD17C,0.05000*%
%ADD18C,0.06150*%
D10*
X0125000Y0086050D03*
X0155000Y0086050D03*
X0175000Y0086050D03*
X0175000Y0116050D03*
X0225000Y0116050D03*
X0225000Y0086050D03*
X0275000Y0086050D03*
X0275000Y0116050D03*
X0325000Y0116050D03*
X0335236Y0139719D03*
X0364764Y0139719D03*
X0392000Y0139719D03*
X0375000Y0116050D03*
X0375000Y0086050D03*
X0325000Y0086050D03*
X0430000Y0057554D03*
X0480000Y0057554D03*
X0538709Y0106050D03*
X0480000Y0120546D03*
X0430000Y0120546D03*
X0430000Y0140986D03*
X0430000Y0170514D03*
X0392000Y0185781D03*
X0392000Y0208019D03*
X0430000Y0206286D03*
X0430000Y0235814D03*
X0392000Y0254081D03*
X0378236Y0286050D03*
X0407764Y0286050D03*
X0427000Y0286050D03*
X0427000Y0316050D03*
X0510710Y0368050D03*
X0549500Y0327050D03*
X0574500Y0291550D03*
X0530000Y0274050D03*
X0530000Y0244050D03*
X0487500Y0206050D03*
X0487500Y0176050D03*
X0538709Y0156050D03*
X0627291Y0156050D03*
X0627291Y0106050D03*
X0624500Y0291550D03*
X0599500Y0327050D03*
X0599290Y0368050D03*
X0599290Y0424050D03*
X0510710Y0424050D03*
X0445000Y0407550D03*
X0435000Y0427550D03*
X0435000Y0377550D03*
X0330000Y0341050D03*
X0330000Y0311050D03*
X0280000Y0311050D03*
X0280000Y0341050D03*
X0230000Y0341050D03*
X0230000Y0311050D03*
X0180000Y0311050D03*
X0180000Y0341050D03*
X0199000Y0377550D03*
X0209000Y0407550D03*
X0199000Y0427550D03*
X0300000Y0427550D03*
X0310000Y0407550D03*
X0300000Y0377550D03*
X0185031Y0268050D03*
X0138969Y0268050D03*
X0123031Y0268050D03*
X0076969Y0268050D03*
X0123000Y0233050D03*
X0163000Y0233050D03*
X0185031Y0196050D03*
X0163000Y0171050D03*
X0138969Y0196050D03*
X0123031Y0196050D03*
X0123000Y0171050D03*
X0076969Y0196050D03*
X0130000Y0311050D03*
X0130000Y0341050D03*
X0086000Y0377550D03*
X0096000Y0407550D03*
X0086000Y0427550D03*
D11*
X0574567Y0257300D03*
X0574567Y0241675D03*
X0574567Y0226050D03*
X0574567Y0210425D03*
X0574567Y0194800D03*
D12*
X0350071Y0261050D03*
X0343000Y0268121D03*
X0335929Y0261050D03*
X0302071Y0261050D03*
X0295000Y0268121D03*
X0287929Y0261050D03*
X0242071Y0261050D03*
X0235000Y0268121D03*
X0227929Y0261050D03*
X0202071Y0241050D03*
X0195000Y0248121D03*
X0187929Y0241050D03*
X0222929Y0211550D03*
X0230000Y0218621D03*
X0237071Y0211550D03*
X0287929Y0211550D03*
X0295000Y0218621D03*
X0302071Y0211550D03*
X0295000Y0163121D03*
X0302071Y0156050D03*
X0287929Y0156050D03*
X0242071Y0156050D03*
X0235000Y0163121D03*
X0227929Y0156050D03*
X0202071Y0171050D03*
X0195000Y0178121D03*
X0187929Y0171050D03*
D13*
X0142717Y0136050D03*
X0107283Y0136050D03*
X0106283Y0111050D03*
X0141717Y0111050D03*
X0264000Y0156083D03*
X0264000Y0191517D03*
X0258000Y0211333D03*
X0258000Y0246767D03*
X0252717Y0282050D03*
X0271283Y0282050D03*
X0306717Y0282050D03*
X0320283Y0282050D03*
X0355717Y0282050D03*
X0345000Y0238767D03*
X0345000Y0203333D03*
X0334983Y0168050D03*
X0370417Y0168050D03*
X0480000Y0141050D03*
X0487500Y0148550D03*
X0495000Y0141050D03*
X0489500Y0267050D03*
X0482000Y0274550D03*
X0474500Y0267050D03*
X0489000Y0301333D03*
X0489000Y0336767D03*
X0463000Y0341333D03*
X0463000Y0376767D03*
X0396000Y0376767D03*
X0369000Y0376833D03*
X0372217Y0353050D03*
X0396000Y0341333D03*
X0336783Y0353050D03*
X0273000Y0367333D03*
X0234000Y0367333D03*
X0234000Y0402767D03*
X0273000Y0402767D03*
X0369000Y0412267D03*
X0217283Y0282050D03*
X0166000Y0367333D03*
X0130000Y0367333D03*
X0130000Y0402767D03*
X0166000Y0402767D03*
X0070000Y0413017D03*
X0070000Y0377583D03*
D14*
X0024000Y0062250D03*
X0024000Y0077850D03*
X0024000Y0093450D03*
X0024000Y0109050D03*
X0024000Y0124650D03*
X0024000Y0140250D03*
X0024000Y0155850D03*
X0024000Y0171450D03*
X0024000Y0187050D03*
X0024000Y0202650D03*
X0024000Y0218250D03*
X0024000Y0233850D03*
X0024000Y0249450D03*
X0024000Y0265050D03*
X0024000Y0280650D03*
X0024000Y0296250D03*
X0024000Y0311850D03*
X0024000Y0327450D03*
X0024000Y0343050D03*
X0024000Y0358650D03*
X0024000Y0374250D03*
X0024000Y0389850D03*
D15*
X0070000Y0377583D02*
X0085967Y0377583D01*
X0086000Y0377550D01*
X0116000Y0353050D02*
X0130000Y0367050D01*
X0130000Y0367333D01*
X0166000Y0367333D01*
X0188783Y0367333D01*
X0199000Y0377550D01*
X0209000Y0389050D02*
X0209000Y0407550D01*
X0199000Y0427550D01*
X0166000Y0402767D02*
X0166000Y0389050D01*
X0130000Y0389050D02*
X0130000Y0402767D01*
X0096000Y0407550D02*
X0090533Y0413017D01*
X0086000Y0413017D01*
X0086000Y0427550D01*
X0086000Y0413017D02*
X0070000Y0413017D01*
X0116000Y0353050D02*
X0116000Y0303050D01*
X0134000Y0285050D01*
X0192000Y0285050D01*
X0209000Y0268050D01*
X0209000Y0261050D01*
X0209000Y0250050D01*
X0230000Y0229050D01*
X0230000Y0218621D01*
X0237071Y0211550D02*
X0257783Y0211550D01*
X0258000Y0211333D01*
X0264000Y0202050D02*
X0269000Y0207050D01*
X0269000Y0246767D01*
X0275717Y0246767D01*
X0276000Y0247050D01*
X0276000Y0246767D01*
X0308000Y0246767D01*
X0320283Y0259050D01*
X0320283Y0282050D01*
X0306717Y0282050D02*
X0306717Y0265695D01*
X0302071Y0261050D01*
X0295000Y0268121D02*
X0295000Y0297550D01*
X0269500Y0297550D01*
X0242000Y0325050D01*
X0222000Y0325050D01*
X0215000Y0332050D01*
X0215000Y0348333D01*
X0234000Y0367333D01*
X0273000Y0367333D01*
X0289783Y0367333D01*
X0300000Y0377550D01*
X0310000Y0389050D02*
X0310000Y0407550D01*
X0300000Y0427550D01*
X0273000Y0402767D02*
X0273000Y0389050D01*
X0234000Y0389050D02*
X0234000Y0402767D01*
X0230000Y0341050D02*
X0280000Y0341050D01*
X0280000Y0311050D02*
X0330000Y0311050D01*
X0333500Y0297550D02*
X0343000Y0288050D01*
X0343000Y0268121D01*
X0343000Y0268121D01*
X0335929Y0261050D01*
X0350071Y0261050D02*
X0355717Y0266695D01*
X0355717Y0271695D01*
X0355717Y0275050D01*
X0355717Y0282050D01*
X0333500Y0297550D02*
X0295000Y0297550D01*
X0271283Y0282050D02*
X0271283Y0267767D01*
X0276000Y0263050D01*
X0276000Y0247050D01*
X0269000Y0246767D02*
X0258000Y0246767D01*
X0242071Y0261050D02*
X0252717Y0271695D01*
X0252717Y0282050D01*
X0235000Y0268121D02*
X0227929Y0261050D01*
X0209000Y0261050D01*
X0195000Y0258081D02*
X0185031Y0268050D01*
X0195000Y0258081D02*
X0195000Y0248121D01*
X0202071Y0241050D02*
X0202071Y0232408D01*
X0222929Y0211550D01*
X0217000Y0202050D02*
X0264000Y0202050D01*
X0264000Y0191517D01*
X0249000Y0167050D02*
X0229969Y0186081D01*
X0195000Y0186081D01*
X0195000Y0178121D01*
X0195000Y0186081D02*
X0185031Y0196050D01*
X0198000Y0221050D02*
X0112000Y0221050D01*
X0103000Y0230050D01*
X0103000Y0277050D01*
X0052600Y0327450D01*
X0024000Y0327450D01*
X0123031Y0268050D02*
X0123031Y0233081D01*
X0123000Y0233050D01*
X0163000Y0233050D02*
X0179929Y0233050D01*
X0187929Y0241050D01*
X0198000Y0221050D02*
X0217000Y0202050D01*
X0202071Y0171050D02*
X0217071Y0156050D01*
X0227929Y0156050D01*
X0242071Y0156050D02*
X0242105Y0156083D01*
X0264000Y0156083D01*
X0267000Y0167050D02*
X0249000Y0167050D01*
X0267000Y0167050D02*
X0278000Y0156050D01*
X0287929Y0156050D01*
X0295000Y0163121D02*
X0296071Y0163121D01*
X0301000Y0168050D01*
X0316000Y0168050D01*
X0334983Y0168050D01*
X0343000Y0186050D02*
X0353000Y0176050D01*
X0353000Y0134050D01*
X0346000Y0127050D01*
X0169000Y0127050D01*
X0153000Y0111050D01*
X0141717Y0111050D01*
X0155000Y0126050D02*
X0125000Y0126050D01*
X0125000Y0147050D01*
X0149000Y0171050D01*
X0163000Y0171050D01*
X0187929Y0171050D01*
X0202000Y0145050D02*
X0202017Y0145033D01*
X0209009Y0144967D01*
X0160917Y0144967D01*
X0152000Y0136050D01*
X0142717Y0136050D01*
X0155000Y0126050D02*
X0164500Y0135550D01*
X0317000Y0135550D01*
X0321169Y0139719D01*
X0335236Y0139719D01*
X0316000Y0149050D02*
X0311000Y0144050D01*
X0308000Y0144050D01*
X0307983Y0144033D01*
X0209009Y0144967D01*
X0225000Y0116050D02*
X0175000Y0116050D01*
X0175000Y0086050D02*
X0155000Y0086050D01*
X0125000Y0086050D02*
X0125000Y0126050D01*
X0107283Y0136050D02*
X0098283Y0136050D01*
X0071283Y0109050D01*
X0024000Y0109050D01*
X0024000Y0062250D02*
X0050200Y0062250D01*
X0099000Y0111050D01*
X0106283Y0111050D01*
X0123000Y0171050D02*
X0123031Y0171081D01*
X0123031Y0196050D01*
X0138969Y0196050D01*
X0077969Y0210050D02*
X0076969Y0209050D01*
X0076969Y0233850D02*
X0076969Y0236050D01*
X0123031Y0268050D02*
X0138969Y0268050D01*
X0180000Y0311050D02*
X0230000Y0311050D01*
X0180000Y0341050D02*
X0130000Y0341050D01*
X0295429Y0224050D02*
X0312000Y0224050D01*
X0320000Y0216050D01*
X0320000Y0204050D01*
X0320000Y0198050D01*
X0332000Y0186050D01*
X0343000Y0186050D01*
X0345000Y0203333D02*
X0320717Y0203333D01*
X0320000Y0204050D01*
X0295000Y0218621D02*
X0295429Y0224050D01*
X0345000Y0238767D02*
X0399567Y0238767D01*
X0413000Y0252200D01*
X0508150Y0252200D01*
X0514000Y0258050D01*
X0540000Y0258050D01*
X0556375Y0241675D01*
X0574567Y0241675D01*
X0581625Y0241675D01*
X0586000Y0246050D01*
X0586000Y0322050D01*
X0540000Y0368050D01*
X0510710Y0368050D01*
X0489000Y0336767D02*
X0463000Y0362767D01*
X0463000Y0376767D01*
X0463000Y0413050D01*
X0448500Y0427550D01*
X0435000Y0427550D01*
X0417500Y0427550D01*
X0402217Y0412267D01*
X0369000Y0412267D01*
X0369000Y0376833D02*
X0369067Y0376767D01*
X0396000Y0376767D01*
X0402717Y0376767D01*
X0433500Y0407550D01*
X0445000Y0407550D01*
X0435000Y0377550D02*
X0435000Y0341333D01*
X0396000Y0341333D01*
X0383933Y0341333D01*
X0372217Y0353050D01*
X0383000Y0327050D02*
X0549500Y0327050D01*
X0597000Y0295050D02*
X0597000Y0211050D01*
X0596375Y0210425D01*
X0574567Y0210425D01*
X0597000Y0211050D02*
X0597000Y0169050D01*
X0572000Y0144050D01*
X0531000Y0144050D01*
X0523000Y0152050D01*
X0523000Y0168050D01*
X0500000Y0191050D01*
X0428000Y0191050D01*
X0405000Y0168050D01*
X0370417Y0168050D01*
X0392000Y0185781D02*
X0392000Y0208019D01*
X0392000Y0254081D02*
X0392000Y0279050D01*
X0399000Y0286050D01*
X0407764Y0286050D01*
X0427000Y0286050D01*
X0484000Y0286050D01*
X0482000Y0284050D01*
X0482000Y0274550D01*
X0484000Y0286050D02*
X0518000Y0286050D01*
X0530000Y0274050D01*
X0574500Y0291550D02*
X0574567Y0291483D01*
X0597000Y0295050D02*
X0612000Y0310050D01*
X0612000Y0377050D01*
X0593000Y0396050D01*
X0555000Y0396050D01*
X0527000Y0424050D01*
X0510710Y0424050D01*
X0599290Y0424050D02*
X0612000Y0424050D01*
X0622500Y0413550D01*
X0624000Y0412050D01*
X0624500Y0411550D01*
X0624500Y0291550D01*
X0599500Y0327050D02*
X0599500Y0367840D01*
X0599290Y0368050D01*
X0463000Y0341333D02*
X0435000Y0341333D01*
X0487500Y0176050D02*
X0487500Y0156050D01*
X0408331Y0156050D01*
X0392000Y0139719D01*
X0375000Y0139719D01*
X0375000Y0116050D01*
X0375000Y0139719D02*
X0364764Y0139719D01*
X0325000Y0116050D02*
X0275000Y0116050D01*
X0275000Y0086050D02*
X0225000Y0086050D01*
X0316000Y0149050D02*
X0316000Y0168050D01*
X0430000Y0140986D02*
X0430064Y0141050D01*
X0480000Y0141050D01*
X0480000Y0120546D01*
X0487500Y0148550D02*
X0487500Y0156050D01*
X0375000Y0086050D02*
X0325000Y0086050D01*
X0430000Y0057554D02*
X0480000Y0057554D01*
D16*
X0548000Y0226050D02*
X0530000Y0244050D01*
X0548000Y0226050D02*
X0574567Y0226050D01*
X0076969Y0234050D02*
X0076769Y0233850D01*
X0076969Y0234050D02*
X0076969Y0236050D01*
D17*
X0076969Y0268050D01*
X0076969Y0234050D02*
X0076969Y0209050D01*
X0076969Y0196050D01*
X0077969Y0210050D02*
X0193000Y0210050D01*
X0208000Y0194050D01*
X0236000Y0194050D01*
X0254000Y0177050D01*
X0267000Y0177050D01*
X0278000Y0188050D01*
X0278000Y0222050D01*
X0290000Y0234050D01*
X0326000Y0234050D01*
X0337000Y0223050D01*
X0498000Y0223050D01*
X0538709Y0182341D01*
X0538709Y0156050D01*
X0574567Y0257300D02*
X0574567Y0291483D01*
X0574500Y0291550D02*
X0574500Y0314550D01*
X0562000Y0327050D01*
X0549500Y0327050D01*
X0362783Y0327050D01*
X0336783Y0353050D01*
X0326000Y0363833D01*
X0326000Y0382050D01*
X0319000Y0389050D01*
X0310000Y0389050D01*
X0273000Y0389050D01*
X0234000Y0389050D01*
X0209000Y0389050D01*
X0166000Y0389050D01*
X0130000Y0389050D01*
X0119000Y0389050D01*
X0073000Y0343050D01*
X0065000Y0343050D01*
X0050000Y0343050D01*
X0024000Y0343050D01*
X0024000Y0233850D02*
X0076969Y0233850D01*
D18*
X0065000Y0343050D03*
X0050000Y0343050D03*
M02*
