%
M48
M72
T01C0.0315
T02C0.0320
T03C0.0354
T04C0.0394
T05C0.0472
T06C0.0787
%
T01
X8600Y37755
X9600Y40755
X8600Y42755
X19900Y42755
X20900Y40755
X19900Y37755
X30000Y37755
X30000Y42755
X31000Y40755
X43500Y37755
X44500Y40755
X43500Y42755
T02
X7000Y37758
X33678Y35305
X33000Y34105
X42700Y31605
X42700Y28605
X35572Y28205
X34300Y26812
X33593Y26105
X35007Y26105
X34500Y23877
X30207Y21155
X29500Y21862
X28793Y21155
X28793Y26105
X29500Y26812
X30207Y26105
X30672Y28205
X21728Y28205
X25800Y24677
X24207Y26105
X23500Y26812
X22793Y26105
X20207Y24105
X19500Y24812
X18793Y24105
X13000Y31105
X13000Y34105
X10728Y13605
X10628Y11105
X12500Y8605
X14172Y11105
X15500Y8605
X17500Y8605
X17500Y11605
X14272Y13605
X18793Y17105
X19500Y17812
X20207Y17105
X22793Y15605
X23500Y16312
X24207Y15605
X26400Y15608
X28793Y15605
X29500Y16312
X30207Y15605
X33498Y16805
X37042Y16805
X48900Y30133
X48200Y27455
X32500Y11605
X32500Y8605
X27500Y8605
X27500Y11605
X22500Y11605
X22500Y8605
X26400Y19152
X25800Y21133
X23707Y21155
X23000Y21862
X22293Y21155
X18000Y31105
X18000Y34105
X16600Y36733
X13000Y36733
X7000Y41302
X13000Y40277
X16600Y40277
X23400Y40277
X23400Y36733
X23000Y34105
X23000Y31105
X25272Y28205
X27128Y28205
X28000Y31105
X32028Y28205
X33000Y31105
X28000Y34105
X27300Y36733
X27300Y40277
X36900Y41227
X36900Y37683
X39600Y37677
X37222Y35305
X39600Y34133
X46300Y37677
X48900Y33677
X46300Y34133
X54950Y32705
X57450Y29155
X53000Y27405
X48950Y26705
X47450Y26705
X37500Y11605
X37500Y8605
X49500Y14105
X48750Y14855
X48000Y14105
X48750Y17605
X48750Y20605
X53000Y24405
X34500Y20333
T03
X40776Y28605
X37824Y28605
X12303Y19605
X13897Y19605
X39200Y18578
X39200Y20802
X39200Y25408
X43000Y23581
X43000Y20629
X43000Y17051
X39200Y13972
X36476Y13972
X33524Y13972
X18503Y19605
X12303Y26805
X13897Y26805
X18503Y26805
X51071Y42405
X51071Y36805
X43000Y14099
X62450Y29155
X59950Y32705
X59929Y36805
X59929Y42405
X7697Y19605
X7697Y26805
T04
X43000Y12055
X43000Y5755
X48000Y5755
X53871Y10605
X62729Y15605
X62729Y10605
X53871Y15605
X48000Y12055
T05
X16300Y23305
X12300Y17105
X16300Y17105
X12300Y23305
T06
X57457Y19480
X57457Y21043
X57457Y22605
X57457Y24168
X57457Y25730
M30
