G75*
%MOIN*%
%OFA0B0*%
%FSLAX25Y25*%
%IPPOS*%
%LPD*%
%AMOC8*
5,1,8,0,0,1.08239X$1,22.5*
%
%ADD10C,0.00000*%
%ADD11C,0.00600*%
%ADD12R,0.03000X0.22000*%
%ADD13C,0.00800*%
%ADD14C,0.00500*%
D10*
X0001000Y0001000D02*
X0001000Y0251000D01*
X0526000Y0251000D01*
X0526000Y0001000D01*
X0001000Y0001000D01*
X0049775Y0069750D02*
X0049777Y0069933D01*
X0049784Y0070117D01*
X0049795Y0070300D01*
X0049811Y0070483D01*
X0049831Y0070665D01*
X0049856Y0070847D01*
X0049885Y0071028D01*
X0049919Y0071208D01*
X0049957Y0071388D01*
X0049999Y0071566D01*
X0050046Y0071744D01*
X0050097Y0071920D01*
X0050152Y0072095D01*
X0050212Y0072268D01*
X0050276Y0072440D01*
X0050344Y0072611D01*
X0050416Y0072779D01*
X0050493Y0072946D01*
X0050573Y0073111D01*
X0050658Y0073274D01*
X0050746Y0073434D01*
X0050838Y0073593D01*
X0050935Y0073749D01*
X0051035Y0073903D01*
X0051139Y0074054D01*
X0051246Y0074203D01*
X0051357Y0074349D01*
X0051472Y0074492D01*
X0051590Y0074632D01*
X0051711Y0074770D01*
X0051836Y0074904D01*
X0051964Y0075036D01*
X0052096Y0075164D01*
X0052230Y0075289D01*
X0052368Y0075410D01*
X0052508Y0075528D01*
X0052651Y0075643D01*
X0052797Y0075754D01*
X0052946Y0075861D01*
X0053097Y0075965D01*
X0053251Y0076065D01*
X0053407Y0076162D01*
X0053566Y0076254D01*
X0053726Y0076342D01*
X0053889Y0076427D01*
X0054054Y0076507D01*
X0054221Y0076584D01*
X0054389Y0076656D01*
X0054560Y0076724D01*
X0054732Y0076788D01*
X0054905Y0076848D01*
X0055080Y0076903D01*
X0055256Y0076954D01*
X0055434Y0077001D01*
X0055612Y0077043D01*
X0055792Y0077081D01*
X0055972Y0077115D01*
X0056153Y0077144D01*
X0056335Y0077169D01*
X0056517Y0077189D01*
X0056700Y0077205D01*
X0056883Y0077216D01*
X0057067Y0077223D01*
X0057250Y0077225D01*
X0057433Y0077223D01*
X0057617Y0077216D01*
X0057800Y0077205D01*
X0057983Y0077189D01*
X0058165Y0077169D01*
X0058347Y0077144D01*
X0058528Y0077115D01*
X0058708Y0077081D01*
X0058888Y0077043D01*
X0059066Y0077001D01*
X0059244Y0076954D01*
X0059420Y0076903D01*
X0059595Y0076848D01*
X0059768Y0076788D01*
X0059940Y0076724D01*
X0060111Y0076656D01*
X0060279Y0076584D01*
X0060446Y0076507D01*
X0060611Y0076427D01*
X0060774Y0076342D01*
X0060934Y0076254D01*
X0061093Y0076162D01*
X0061249Y0076065D01*
X0061403Y0075965D01*
X0061554Y0075861D01*
X0061703Y0075754D01*
X0061849Y0075643D01*
X0061992Y0075528D01*
X0062132Y0075410D01*
X0062270Y0075289D01*
X0062404Y0075164D01*
X0062536Y0075036D01*
X0062664Y0074904D01*
X0062789Y0074770D01*
X0062910Y0074632D01*
X0063028Y0074492D01*
X0063143Y0074349D01*
X0063254Y0074203D01*
X0063361Y0074054D01*
X0063465Y0073903D01*
X0063565Y0073749D01*
X0063662Y0073593D01*
X0063754Y0073434D01*
X0063842Y0073274D01*
X0063927Y0073111D01*
X0064007Y0072946D01*
X0064084Y0072779D01*
X0064156Y0072611D01*
X0064224Y0072440D01*
X0064288Y0072268D01*
X0064348Y0072095D01*
X0064403Y0071920D01*
X0064454Y0071744D01*
X0064501Y0071566D01*
X0064543Y0071388D01*
X0064581Y0071208D01*
X0064615Y0071028D01*
X0064644Y0070847D01*
X0064669Y0070665D01*
X0064689Y0070483D01*
X0064705Y0070300D01*
X0064716Y0070117D01*
X0064723Y0069933D01*
X0064725Y0069750D01*
X0064723Y0069567D01*
X0064716Y0069383D01*
X0064705Y0069200D01*
X0064689Y0069017D01*
X0064669Y0068835D01*
X0064644Y0068653D01*
X0064615Y0068472D01*
X0064581Y0068292D01*
X0064543Y0068112D01*
X0064501Y0067934D01*
X0064454Y0067756D01*
X0064403Y0067580D01*
X0064348Y0067405D01*
X0064288Y0067232D01*
X0064224Y0067060D01*
X0064156Y0066889D01*
X0064084Y0066721D01*
X0064007Y0066554D01*
X0063927Y0066389D01*
X0063842Y0066226D01*
X0063754Y0066066D01*
X0063662Y0065907D01*
X0063565Y0065751D01*
X0063465Y0065597D01*
X0063361Y0065446D01*
X0063254Y0065297D01*
X0063143Y0065151D01*
X0063028Y0065008D01*
X0062910Y0064868D01*
X0062789Y0064730D01*
X0062664Y0064596D01*
X0062536Y0064464D01*
X0062404Y0064336D01*
X0062270Y0064211D01*
X0062132Y0064090D01*
X0061992Y0063972D01*
X0061849Y0063857D01*
X0061703Y0063746D01*
X0061554Y0063639D01*
X0061403Y0063535D01*
X0061249Y0063435D01*
X0061093Y0063338D01*
X0060934Y0063246D01*
X0060774Y0063158D01*
X0060611Y0063073D01*
X0060446Y0062993D01*
X0060279Y0062916D01*
X0060111Y0062844D01*
X0059940Y0062776D01*
X0059768Y0062712D01*
X0059595Y0062652D01*
X0059420Y0062597D01*
X0059244Y0062546D01*
X0059066Y0062499D01*
X0058888Y0062457D01*
X0058708Y0062419D01*
X0058528Y0062385D01*
X0058347Y0062356D01*
X0058165Y0062331D01*
X0057983Y0062311D01*
X0057800Y0062295D01*
X0057617Y0062284D01*
X0057433Y0062277D01*
X0057250Y0062275D01*
X0057067Y0062277D01*
X0056883Y0062284D01*
X0056700Y0062295D01*
X0056517Y0062311D01*
X0056335Y0062331D01*
X0056153Y0062356D01*
X0055972Y0062385D01*
X0055792Y0062419D01*
X0055612Y0062457D01*
X0055434Y0062499D01*
X0055256Y0062546D01*
X0055080Y0062597D01*
X0054905Y0062652D01*
X0054732Y0062712D01*
X0054560Y0062776D01*
X0054389Y0062844D01*
X0054221Y0062916D01*
X0054054Y0062993D01*
X0053889Y0063073D01*
X0053726Y0063158D01*
X0053566Y0063246D01*
X0053407Y0063338D01*
X0053251Y0063435D01*
X0053097Y0063535D01*
X0052946Y0063639D01*
X0052797Y0063746D01*
X0052651Y0063857D01*
X0052508Y0063972D01*
X0052368Y0064090D01*
X0052230Y0064211D01*
X0052096Y0064336D01*
X0051964Y0064464D01*
X0051836Y0064596D01*
X0051711Y0064730D01*
X0051590Y0064868D01*
X0051472Y0065008D01*
X0051357Y0065151D01*
X0051246Y0065297D01*
X0051139Y0065446D01*
X0051035Y0065597D01*
X0050935Y0065751D01*
X0050838Y0065907D01*
X0050746Y0066066D01*
X0050658Y0066226D01*
X0050573Y0066389D01*
X0050493Y0066554D01*
X0050416Y0066721D01*
X0050344Y0066889D01*
X0050276Y0067060D01*
X0050212Y0067232D01*
X0050152Y0067405D01*
X0050097Y0067580D01*
X0050046Y0067756D01*
X0049999Y0067934D01*
X0049957Y0068112D01*
X0049919Y0068292D01*
X0049885Y0068472D01*
X0049856Y0068653D01*
X0049831Y0068835D01*
X0049811Y0069017D01*
X0049795Y0069200D01*
X0049784Y0069383D01*
X0049777Y0069567D01*
X0049775Y0069750D01*
X0049775Y0182250D02*
X0049777Y0182433D01*
X0049784Y0182617D01*
X0049795Y0182800D01*
X0049811Y0182983D01*
X0049831Y0183165D01*
X0049856Y0183347D01*
X0049885Y0183528D01*
X0049919Y0183708D01*
X0049957Y0183888D01*
X0049999Y0184066D01*
X0050046Y0184244D01*
X0050097Y0184420D01*
X0050152Y0184595D01*
X0050212Y0184768D01*
X0050276Y0184940D01*
X0050344Y0185111D01*
X0050416Y0185279D01*
X0050493Y0185446D01*
X0050573Y0185611D01*
X0050658Y0185774D01*
X0050746Y0185934D01*
X0050838Y0186093D01*
X0050935Y0186249D01*
X0051035Y0186403D01*
X0051139Y0186554D01*
X0051246Y0186703D01*
X0051357Y0186849D01*
X0051472Y0186992D01*
X0051590Y0187132D01*
X0051711Y0187270D01*
X0051836Y0187404D01*
X0051964Y0187536D01*
X0052096Y0187664D01*
X0052230Y0187789D01*
X0052368Y0187910D01*
X0052508Y0188028D01*
X0052651Y0188143D01*
X0052797Y0188254D01*
X0052946Y0188361D01*
X0053097Y0188465D01*
X0053251Y0188565D01*
X0053407Y0188662D01*
X0053566Y0188754D01*
X0053726Y0188842D01*
X0053889Y0188927D01*
X0054054Y0189007D01*
X0054221Y0189084D01*
X0054389Y0189156D01*
X0054560Y0189224D01*
X0054732Y0189288D01*
X0054905Y0189348D01*
X0055080Y0189403D01*
X0055256Y0189454D01*
X0055434Y0189501D01*
X0055612Y0189543D01*
X0055792Y0189581D01*
X0055972Y0189615D01*
X0056153Y0189644D01*
X0056335Y0189669D01*
X0056517Y0189689D01*
X0056700Y0189705D01*
X0056883Y0189716D01*
X0057067Y0189723D01*
X0057250Y0189725D01*
X0057433Y0189723D01*
X0057617Y0189716D01*
X0057800Y0189705D01*
X0057983Y0189689D01*
X0058165Y0189669D01*
X0058347Y0189644D01*
X0058528Y0189615D01*
X0058708Y0189581D01*
X0058888Y0189543D01*
X0059066Y0189501D01*
X0059244Y0189454D01*
X0059420Y0189403D01*
X0059595Y0189348D01*
X0059768Y0189288D01*
X0059940Y0189224D01*
X0060111Y0189156D01*
X0060279Y0189084D01*
X0060446Y0189007D01*
X0060611Y0188927D01*
X0060774Y0188842D01*
X0060934Y0188754D01*
X0061093Y0188662D01*
X0061249Y0188565D01*
X0061403Y0188465D01*
X0061554Y0188361D01*
X0061703Y0188254D01*
X0061849Y0188143D01*
X0061992Y0188028D01*
X0062132Y0187910D01*
X0062270Y0187789D01*
X0062404Y0187664D01*
X0062536Y0187536D01*
X0062664Y0187404D01*
X0062789Y0187270D01*
X0062910Y0187132D01*
X0063028Y0186992D01*
X0063143Y0186849D01*
X0063254Y0186703D01*
X0063361Y0186554D01*
X0063465Y0186403D01*
X0063565Y0186249D01*
X0063662Y0186093D01*
X0063754Y0185934D01*
X0063842Y0185774D01*
X0063927Y0185611D01*
X0064007Y0185446D01*
X0064084Y0185279D01*
X0064156Y0185111D01*
X0064224Y0184940D01*
X0064288Y0184768D01*
X0064348Y0184595D01*
X0064403Y0184420D01*
X0064454Y0184244D01*
X0064501Y0184066D01*
X0064543Y0183888D01*
X0064581Y0183708D01*
X0064615Y0183528D01*
X0064644Y0183347D01*
X0064669Y0183165D01*
X0064689Y0182983D01*
X0064705Y0182800D01*
X0064716Y0182617D01*
X0064723Y0182433D01*
X0064725Y0182250D01*
X0064723Y0182067D01*
X0064716Y0181883D01*
X0064705Y0181700D01*
X0064689Y0181517D01*
X0064669Y0181335D01*
X0064644Y0181153D01*
X0064615Y0180972D01*
X0064581Y0180792D01*
X0064543Y0180612D01*
X0064501Y0180434D01*
X0064454Y0180256D01*
X0064403Y0180080D01*
X0064348Y0179905D01*
X0064288Y0179732D01*
X0064224Y0179560D01*
X0064156Y0179389D01*
X0064084Y0179221D01*
X0064007Y0179054D01*
X0063927Y0178889D01*
X0063842Y0178726D01*
X0063754Y0178566D01*
X0063662Y0178407D01*
X0063565Y0178251D01*
X0063465Y0178097D01*
X0063361Y0177946D01*
X0063254Y0177797D01*
X0063143Y0177651D01*
X0063028Y0177508D01*
X0062910Y0177368D01*
X0062789Y0177230D01*
X0062664Y0177096D01*
X0062536Y0176964D01*
X0062404Y0176836D01*
X0062270Y0176711D01*
X0062132Y0176590D01*
X0061992Y0176472D01*
X0061849Y0176357D01*
X0061703Y0176246D01*
X0061554Y0176139D01*
X0061403Y0176035D01*
X0061249Y0175935D01*
X0061093Y0175838D01*
X0060934Y0175746D01*
X0060774Y0175658D01*
X0060611Y0175573D01*
X0060446Y0175493D01*
X0060279Y0175416D01*
X0060111Y0175344D01*
X0059940Y0175276D01*
X0059768Y0175212D01*
X0059595Y0175152D01*
X0059420Y0175097D01*
X0059244Y0175046D01*
X0059066Y0174999D01*
X0058888Y0174957D01*
X0058708Y0174919D01*
X0058528Y0174885D01*
X0058347Y0174856D01*
X0058165Y0174831D01*
X0057983Y0174811D01*
X0057800Y0174795D01*
X0057617Y0174784D01*
X0057433Y0174777D01*
X0057250Y0174775D01*
X0057067Y0174777D01*
X0056883Y0174784D01*
X0056700Y0174795D01*
X0056517Y0174811D01*
X0056335Y0174831D01*
X0056153Y0174856D01*
X0055972Y0174885D01*
X0055792Y0174919D01*
X0055612Y0174957D01*
X0055434Y0174999D01*
X0055256Y0175046D01*
X0055080Y0175097D01*
X0054905Y0175152D01*
X0054732Y0175212D01*
X0054560Y0175276D01*
X0054389Y0175344D01*
X0054221Y0175416D01*
X0054054Y0175493D01*
X0053889Y0175573D01*
X0053726Y0175658D01*
X0053566Y0175746D01*
X0053407Y0175838D01*
X0053251Y0175935D01*
X0053097Y0176035D01*
X0052946Y0176139D01*
X0052797Y0176246D01*
X0052651Y0176357D01*
X0052508Y0176472D01*
X0052368Y0176590D01*
X0052230Y0176711D01*
X0052096Y0176836D01*
X0051964Y0176964D01*
X0051836Y0177096D01*
X0051711Y0177230D01*
X0051590Y0177368D01*
X0051472Y0177508D01*
X0051357Y0177651D01*
X0051246Y0177797D01*
X0051139Y0177946D01*
X0051035Y0178097D01*
X0050935Y0178251D01*
X0050838Y0178407D01*
X0050746Y0178566D01*
X0050658Y0178726D01*
X0050573Y0178889D01*
X0050493Y0179054D01*
X0050416Y0179221D01*
X0050344Y0179389D01*
X0050276Y0179560D01*
X0050212Y0179732D01*
X0050152Y0179905D01*
X0050097Y0180080D01*
X0050046Y0180256D01*
X0049999Y0180434D01*
X0049957Y0180612D01*
X0049919Y0180792D01*
X0049885Y0180972D01*
X0049856Y0181153D01*
X0049831Y0181335D01*
X0049811Y0181517D01*
X0049795Y0181700D01*
X0049784Y0181883D01*
X0049777Y0182067D01*
X0049775Y0182250D01*
X0462275Y0182250D02*
X0462277Y0182433D01*
X0462284Y0182617D01*
X0462295Y0182800D01*
X0462311Y0182983D01*
X0462331Y0183165D01*
X0462356Y0183347D01*
X0462385Y0183528D01*
X0462419Y0183708D01*
X0462457Y0183888D01*
X0462499Y0184066D01*
X0462546Y0184244D01*
X0462597Y0184420D01*
X0462652Y0184595D01*
X0462712Y0184768D01*
X0462776Y0184940D01*
X0462844Y0185111D01*
X0462916Y0185279D01*
X0462993Y0185446D01*
X0463073Y0185611D01*
X0463158Y0185774D01*
X0463246Y0185934D01*
X0463338Y0186093D01*
X0463435Y0186249D01*
X0463535Y0186403D01*
X0463639Y0186554D01*
X0463746Y0186703D01*
X0463857Y0186849D01*
X0463972Y0186992D01*
X0464090Y0187132D01*
X0464211Y0187270D01*
X0464336Y0187404D01*
X0464464Y0187536D01*
X0464596Y0187664D01*
X0464730Y0187789D01*
X0464868Y0187910D01*
X0465008Y0188028D01*
X0465151Y0188143D01*
X0465297Y0188254D01*
X0465446Y0188361D01*
X0465597Y0188465D01*
X0465751Y0188565D01*
X0465907Y0188662D01*
X0466066Y0188754D01*
X0466226Y0188842D01*
X0466389Y0188927D01*
X0466554Y0189007D01*
X0466721Y0189084D01*
X0466889Y0189156D01*
X0467060Y0189224D01*
X0467232Y0189288D01*
X0467405Y0189348D01*
X0467580Y0189403D01*
X0467756Y0189454D01*
X0467934Y0189501D01*
X0468112Y0189543D01*
X0468292Y0189581D01*
X0468472Y0189615D01*
X0468653Y0189644D01*
X0468835Y0189669D01*
X0469017Y0189689D01*
X0469200Y0189705D01*
X0469383Y0189716D01*
X0469567Y0189723D01*
X0469750Y0189725D01*
X0469933Y0189723D01*
X0470117Y0189716D01*
X0470300Y0189705D01*
X0470483Y0189689D01*
X0470665Y0189669D01*
X0470847Y0189644D01*
X0471028Y0189615D01*
X0471208Y0189581D01*
X0471388Y0189543D01*
X0471566Y0189501D01*
X0471744Y0189454D01*
X0471920Y0189403D01*
X0472095Y0189348D01*
X0472268Y0189288D01*
X0472440Y0189224D01*
X0472611Y0189156D01*
X0472779Y0189084D01*
X0472946Y0189007D01*
X0473111Y0188927D01*
X0473274Y0188842D01*
X0473434Y0188754D01*
X0473593Y0188662D01*
X0473749Y0188565D01*
X0473903Y0188465D01*
X0474054Y0188361D01*
X0474203Y0188254D01*
X0474349Y0188143D01*
X0474492Y0188028D01*
X0474632Y0187910D01*
X0474770Y0187789D01*
X0474904Y0187664D01*
X0475036Y0187536D01*
X0475164Y0187404D01*
X0475289Y0187270D01*
X0475410Y0187132D01*
X0475528Y0186992D01*
X0475643Y0186849D01*
X0475754Y0186703D01*
X0475861Y0186554D01*
X0475965Y0186403D01*
X0476065Y0186249D01*
X0476162Y0186093D01*
X0476254Y0185934D01*
X0476342Y0185774D01*
X0476427Y0185611D01*
X0476507Y0185446D01*
X0476584Y0185279D01*
X0476656Y0185111D01*
X0476724Y0184940D01*
X0476788Y0184768D01*
X0476848Y0184595D01*
X0476903Y0184420D01*
X0476954Y0184244D01*
X0477001Y0184066D01*
X0477043Y0183888D01*
X0477081Y0183708D01*
X0477115Y0183528D01*
X0477144Y0183347D01*
X0477169Y0183165D01*
X0477189Y0182983D01*
X0477205Y0182800D01*
X0477216Y0182617D01*
X0477223Y0182433D01*
X0477225Y0182250D01*
X0477223Y0182067D01*
X0477216Y0181883D01*
X0477205Y0181700D01*
X0477189Y0181517D01*
X0477169Y0181335D01*
X0477144Y0181153D01*
X0477115Y0180972D01*
X0477081Y0180792D01*
X0477043Y0180612D01*
X0477001Y0180434D01*
X0476954Y0180256D01*
X0476903Y0180080D01*
X0476848Y0179905D01*
X0476788Y0179732D01*
X0476724Y0179560D01*
X0476656Y0179389D01*
X0476584Y0179221D01*
X0476507Y0179054D01*
X0476427Y0178889D01*
X0476342Y0178726D01*
X0476254Y0178566D01*
X0476162Y0178407D01*
X0476065Y0178251D01*
X0475965Y0178097D01*
X0475861Y0177946D01*
X0475754Y0177797D01*
X0475643Y0177651D01*
X0475528Y0177508D01*
X0475410Y0177368D01*
X0475289Y0177230D01*
X0475164Y0177096D01*
X0475036Y0176964D01*
X0474904Y0176836D01*
X0474770Y0176711D01*
X0474632Y0176590D01*
X0474492Y0176472D01*
X0474349Y0176357D01*
X0474203Y0176246D01*
X0474054Y0176139D01*
X0473903Y0176035D01*
X0473749Y0175935D01*
X0473593Y0175838D01*
X0473434Y0175746D01*
X0473274Y0175658D01*
X0473111Y0175573D01*
X0472946Y0175493D01*
X0472779Y0175416D01*
X0472611Y0175344D01*
X0472440Y0175276D01*
X0472268Y0175212D01*
X0472095Y0175152D01*
X0471920Y0175097D01*
X0471744Y0175046D01*
X0471566Y0174999D01*
X0471388Y0174957D01*
X0471208Y0174919D01*
X0471028Y0174885D01*
X0470847Y0174856D01*
X0470665Y0174831D01*
X0470483Y0174811D01*
X0470300Y0174795D01*
X0470117Y0174784D01*
X0469933Y0174777D01*
X0469750Y0174775D01*
X0469567Y0174777D01*
X0469383Y0174784D01*
X0469200Y0174795D01*
X0469017Y0174811D01*
X0468835Y0174831D01*
X0468653Y0174856D01*
X0468472Y0174885D01*
X0468292Y0174919D01*
X0468112Y0174957D01*
X0467934Y0174999D01*
X0467756Y0175046D01*
X0467580Y0175097D01*
X0467405Y0175152D01*
X0467232Y0175212D01*
X0467060Y0175276D01*
X0466889Y0175344D01*
X0466721Y0175416D01*
X0466554Y0175493D01*
X0466389Y0175573D01*
X0466226Y0175658D01*
X0466066Y0175746D01*
X0465907Y0175838D01*
X0465751Y0175935D01*
X0465597Y0176035D01*
X0465446Y0176139D01*
X0465297Y0176246D01*
X0465151Y0176357D01*
X0465008Y0176472D01*
X0464868Y0176590D01*
X0464730Y0176711D01*
X0464596Y0176836D01*
X0464464Y0176964D01*
X0464336Y0177096D01*
X0464211Y0177230D01*
X0464090Y0177368D01*
X0463972Y0177508D01*
X0463857Y0177651D01*
X0463746Y0177797D01*
X0463639Y0177946D01*
X0463535Y0178097D01*
X0463435Y0178251D01*
X0463338Y0178407D01*
X0463246Y0178566D01*
X0463158Y0178726D01*
X0463073Y0178889D01*
X0462993Y0179054D01*
X0462916Y0179221D01*
X0462844Y0179389D01*
X0462776Y0179560D01*
X0462712Y0179732D01*
X0462652Y0179905D01*
X0462597Y0180080D01*
X0462546Y0180256D01*
X0462499Y0180434D01*
X0462457Y0180612D01*
X0462419Y0180792D01*
X0462385Y0180972D01*
X0462356Y0181153D01*
X0462331Y0181335D01*
X0462311Y0181517D01*
X0462295Y0181700D01*
X0462284Y0181883D01*
X0462277Y0182067D01*
X0462275Y0182250D01*
X0462275Y0069750D02*
X0462277Y0069933D01*
X0462284Y0070117D01*
X0462295Y0070300D01*
X0462311Y0070483D01*
X0462331Y0070665D01*
X0462356Y0070847D01*
X0462385Y0071028D01*
X0462419Y0071208D01*
X0462457Y0071388D01*
X0462499Y0071566D01*
X0462546Y0071744D01*
X0462597Y0071920D01*
X0462652Y0072095D01*
X0462712Y0072268D01*
X0462776Y0072440D01*
X0462844Y0072611D01*
X0462916Y0072779D01*
X0462993Y0072946D01*
X0463073Y0073111D01*
X0463158Y0073274D01*
X0463246Y0073434D01*
X0463338Y0073593D01*
X0463435Y0073749D01*
X0463535Y0073903D01*
X0463639Y0074054D01*
X0463746Y0074203D01*
X0463857Y0074349D01*
X0463972Y0074492D01*
X0464090Y0074632D01*
X0464211Y0074770D01*
X0464336Y0074904D01*
X0464464Y0075036D01*
X0464596Y0075164D01*
X0464730Y0075289D01*
X0464868Y0075410D01*
X0465008Y0075528D01*
X0465151Y0075643D01*
X0465297Y0075754D01*
X0465446Y0075861D01*
X0465597Y0075965D01*
X0465751Y0076065D01*
X0465907Y0076162D01*
X0466066Y0076254D01*
X0466226Y0076342D01*
X0466389Y0076427D01*
X0466554Y0076507D01*
X0466721Y0076584D01*
X0466889Y0076656D01*
X0467060Y0076724D01*
X0467232Y0076788D01*
X0467405Y0076848D01*
X0467580Y0076903D01*
X0467756Y0076954D01*
X0467934Y0077001D01*
X0468112Y0077043D01*
X0468292Y0077081D01*
X0468472Y0077115D01*
X0468653Y0077144D01*
X0468835Y0077169D01*
X0469017Y0077189D01*
X0469200Y0077205D01*
X0469383Y0077216D01*
X0469567Y0077223D01*
X0469750Y0077225D01*
X0469933Y0077223D01*
X0470117Y0077216D01*
X0470300Y0077205D01*
X0470483Y0077189D01*
X0470665Y0077169D01*
X0470847Y0077144D01*
X0471028Y0077115D01*
X0471208Y0077081D01*
X0471388Y0077043D01*
X0471566Y0077001D01*
X0471744Y0076954D01*
X0471920Y0076903D01*
X0472095Y0076848D01*
X0472268Y0076788D01*
X0472440Y0076724D01*
X0472611Y0076656D01*
X0472779Y0076584D01*
X0472946Y0076507D01*
X0473111Y0076427D01*
X0473274Y0076342D01*
X0473434Y0076254D01*
X0473593Y0076162D01*
X0473749Y0076065D01*
X0473903Y0075965D01*
X0474054Y0075861D01*
X0474203Y0075754D01*
X0474349Y0075643D01*
X0474492Y0075528D01*
X0474632Y0075410D01*
X0474770Y0075289D01*
X0474904Y0075164D01*
X0475036Y0075036D01*
X0475164Y0074904D01*
X0475289Y0074770D01*
X0475410Y0074632D01*
X0475528Y0074492D01*
X0475643Y0074349D01*
X0475754Y0074203D01*
X0475861Y0074054D01*
X0475965Y0073903D01*
X0476065Y0073749D01*
X0476162Y0073593D01*
X0476254Y0073434D01*
X0476342Y0073274D01*
X0476427Y0073111D01*
X0476507Y0072946D01*
X0476584Y0072779D01*
X0476656Y0072611D01*
X0476724Y0072440D01*
X0476788Y0072268D01*
X0476848Y0072095D01*
X0476903Y0071920D01*
X0476954Y0071744D01*
X0477001Y0071566D01*
X0477043Y0071388D01*
X0477081Y0071208D01*
X0477115Y0071028D01*
X0477144Y0070847D01*
X0477169Y0070665D01*
X0477189Y0070483D01*
X0477205Y0070300D01*
X0477216Y0070117D01*
X0477223Y0069933D01*
X0477225Y0069750D01*
X0477223Y0069567D01*
X0477216Y0069383D01*
X0477205Y0069200D01*
X0477189Y0069017D01*
X0477169Y0068835D01*
X0477144Y0068653D01*
X0477115Y0068472D01*
X0477081Y0068292D01*
X0477043Y0068112D01*
X0477001Y0067934D01*
X0476954Y0067756D01*
X0476903Y0067580D01*
X0476848Y0067405D01*
X0476788Y0067232D01*
X0476724Y0067060D01*
X0476656Y0066889D01*
X0476584Y0066721D01*
X0476507Y0066554D01*
X0476427Y0066389D01*
X0476342Y0066226D01*
X0476254Y0066066D01*
X0476162Y0065907D01*
X0476065Y0065751D01*
X0475965Y0065597D01*
X0475861Y0065446D01*
X0475754Y0065297D01*
X0475643Y0065151D01*
X0475528Y0065008D01*
X0475410Y0064868D01*
X0475289Y0064730D01*
X0475164Y0064596D01*
X0475036Y0064464D01*
X0474904Y0064336D01*
X0474770Y0064211D01*
X0474632Y0064090D01*
X0474492Y0063972D01*
X0474349Y0063857D01*
X0474203Y0063746D01*
X0474054Y0063639D01*
X0473903Y0063535D01*
X0473749Y0063435D01*
X0473593Y0063338D01*
X0473434Y0063246D01*
X0473274Y0063158D01*
X0473111Y0063073D01*
X0472946Y0062993D01*
X0472779Y0062916D01*
X0472611Y0062844D01*
X0472440Y0062776D01*
X0472268Y0062712D01*
X0472095Y0062652D01*
X0471920Y0062597D01*
X0471744Y0062546D01*
X0471566Y0062499D01*
X0471388Y0062457D01*
X0471208Y0062419D01*
X0471028Y0062385D01*
X0470847Y0062356D01*
X0470665Y0062331D01*
X0470483Y0062311D01*
X0470300Y0062295D01*
X0470117Y0062284D01*
X0469933Y0062277D01*
X0469750Y0062275D01*
X0469567Y0062277D01*
X0469383Y0062284D01*
X0469200Y0062295D01*
X0469017Y0062311D01*
X0468835Y0062331D01*
X0468653Y0062356D01*
X0468472Y0062385D01*
X0468292Y0062419D01*
X0468112Y0062457D01*
X0467934Y0062499D01*
X0467756Y0062546D01*
X0467580Y0062597D01*
X0467405Y0062652D01*
X0467232Y0062712D01*
X0467060Y0062776D01*
X0466889Y0062844D01*
X0466721Y0062916D01*
X0466554Y0062993D01*
X0466389Y0063073D01*
X0466226Y0063158D01*
X0466066Y0063246D01*
X0465907Y0063338D01*
X0465751Y0063435D01*
X0465597Y0063535D01*
X0465446Y0063639D01*
X0465297Y0063746D01*
X0465151Y0063857D01*
X0465008Y0063972D01*
X0464868Y0064090D01*
X0464730Y0064211D01*
X0464596Y0064336D01*
X0464464Y0064464D01*
X0464336Y0064596D01*
X0464211Y0064730D01*
X0464090Y0064868D01*
X0463972Y0065008D01*
X0463857Y0065151D01*
X0463746Y0065297D01*
X0463639Y0065446D01*
X0463535Y0065597D01*
X0463435Y0065751D01*
X0463338Y0065907D01*
X0463246Y0066066D01*
X0463158Y0066226D01*
X0463073Y0066389D01*
X0462993Y0066554D01*
X0462916Y0066721D01*
X0462844Y0066889D01*
X0462776Y0067060D01*
X0462712Y0067232D01*
X0462652Y0067405D01*
X0462597Y0067580D01*
X0462546Y0067756D01*
X0462499Y0067934D01*
X0462457Y0068112D01*
X0462419Y0068292D01*
X0462385Y0068472D01*
X0462356Y0068653D01*
X0462331Y0068835D01*
X0462311Y0069017D01*
X0462295Y0069200D01*
X0462284Y0069383D01*
X0462277Y0069567D01*
X0462275Y0069750D01*
D11*
X0386000Y0047000D02*
X0346000Y0047000D01*
X0346000Y0025000D01*
X0386000Y0025000D01*
X0386000Y0047000D01*
X0256000Y0047000D02*
X0256000Y0025000D01*
X0216000Y0025000D01*
X0216000Y0047000D01*
X0256000Y0047000D01*
X0236000Y0155000D02*
X0196000Y0155000D01*
X0196000Y0177000D01*
X0236000Y0177000D01*
X0236000Y0155000D01*
X0216000Y0226000D02*
X0211000Y0226000D01*
X0201000Y0226000D02*
X0176000Y0226000D01*
D12*
X0231000Y0166000D03*
X0251000Y0036000D03*
X0381000Y0036000D03*
D13*
X0371801Y0051400D02*
X0369532Y0051400D01*
X0368398Y0052534D01*
X0365937Y0052534D02*
X0365937Y0057072D01*
X0364803Y0058206D01*
X0361400Y0058206D01*
X0361400Y0051400D01*
X0364803Y0051400D01*
X0365937Y0052534D01*
X0370667Y0054803D02*
X0371801Y0054803D01*
X0372935Y0053669D01*
X0372935Y0052534D01*
X0371801Y0051400D01*
X0371801Y0054803D02*
X0372935Y0055937D01*
X0372935Y0057072D01*
X0371801Y0058206D01*
X0369532Y0058206D01*
X0368398Y0057072D01*
X0352935Y0111400D02*
X0348398Y0111400D01*
X0352935Y0115937D01*
X0352935Y0117072D01*
X0351801Y0118206D01*
X0349532Y0118206D01*
X0348398Y0117072D01*
X0345937Y0117072D02*
X0344803Y0118206D01*
X0342534Y0118206D01*
X0341400Y0117072D01*
X0341400Y0112534D01*
X0342534Y0111400D01*
X0344803Y0111400D01*
X0345937Y0112534D01*
X0242935Y0057072D02*
X0241801Y0058206D01*
X0239532Y0058206D01*
X0238398Y0057072D01*
X0235937Y0057072D02*
X0234803Y0058206D01*
X0231400Y0058206D01*
X0231400Y0051400D01*
X0234803Y0051400D01*
X0235937Y0052534D01*
X0235937Y0057072D01*
X0238398Y0051400D02*
X0242935Y0055937D01*
X0242935Y0057072D01*
X0242935Y0051400D02*
X0238398Y0051400D01*
X0461400Y0112534D02*
X0462534Y0111400D01*
X0464803Y0111400D01*
X0465937Y0112534D01*
X0468398Y0112534D02*
X0469532Y0111400D01*
X0471801Y0111400D01*
X0472935Y0112534D01*
X0472935Y0113669D01*
X0471801Y0114803D01*
X0470667Y0114803D01*
X0471801Y0114803D02*
X0472935Y0115937D01*
X0472935Y0117072D01*
X0471801Y0118206D01*
X0469532Y0118206D01*
X0468398Y0117072D01*
X0465937Y0117072D02*
X0464803Y0118206D01*
X0462534Y0118206D01*
X0461400Y0117072D01*
X0461400Y0112534D01*
X0222935Y0181400D02*
X0218398Y0181400D01*
X0220667Y0181400D02*
X0220667Y0188206D01*
X0218398Y0185937D01*
X0215937Y0187072D02*
X0215937Y0182534D01*
X0214803Y0181400D01*
X0211400Y0181400D01*
X0211400Y0188206D01*
X0214803Y0188206D01*
X0215937Y0187072D01*
X0206000Y0226000D02*
X0206000Y0231000D01*
X0202935Y0231400D02*
X0198398Y0231400D01*
X0200667Y0231400D02*
X0200667Y0238206D01*
X0198398Y0235937D01*
X0195937Y0237072D02*
X0194803Y0238206D01*
X0192534Y0238206D01*
X0191400Y0237072D01*
X0191400Y0232534D01*
X0192534Y0231400D01*
X0194803Y0231400D01*
X0195937Y0232534D01*
X0203500Y0228500D02*
X0208500Y0228500D01*
X0226400Y0232534D02*
X0227534Y0231400D01*
X0229803Y0231400D01*
X0230937Y0232534D01*
X0230937Y0234803D01*
X0228669Y0234803D01*
X0230937Y0237072D02*
X0229803Y0238206D01*
X0227534Y0238206D01*
X0226400Y0237072D01*
X0226400Y0232534D01*
X0233398Y0231400D02*
X0233398Y0238206D01*
X0237935Y0231400D01*
X0237935Y0238206D01*
X0240396Y0238206D02*
X0243799Y0238206D01*
X0244933Y0237072D01*
X0244933Y0232534D01*
X0243799Y0231400D01*
X0240396Y0231400D01*
X0240396Y0238206D01*
X0261400Y0235937D02*
X0261400Y0231400D01*
X0265937Y0231400D02*
X0265937Y0235937D01*
X0263669Y0238206D01*
X0261400Y0235937D01*
X0261400Y0234803D02*
X0265937Y0234803D01*
X0268398Y0237072D02*
X0268398Y0232534D01*
X0269532Y0231400D01*
X0271801Y0231400D01*
X0272935Y0232534D01*
X0272935Y0237072D02*
X0271801Y0238206D01*
X0269532Y0238206D01*
X0268398Y0237072D01*
X0297400Y0237072D02*
X0297400Y0232534D01*
X0298534Y0231400D01*
X0300803Y0231400D01*
X0301937Y0232534D01*
X0301937Y0234803D01*
X0299669Y0234803D01*
X0301937Y0237072D02*
X0300803Y0238206D01*
X0298534Y0238206D01*
X0297400Y0237072D01*
X0304398Y0238206D02*
X0308935Y0231400D01*
X0308935Y0238206D01*
X0311396Y0238206D02*
X0314799Y0238206D01*
X0315933Y0237072D01*
X0315933Y0232534D01*
X0314799Y0231400D01*
X0311396Y0231400D01*
X0311396Y0238206D01*
X0304398Y0238206D02*
X0304398Y0231400D01*
X0327400Y0232534D02*
X0328534Y0231400D01*
X0330803Y0231400D01*
X0331937Y0232534D01*
X0331937Y0234803D01*
X0329669Y0234803D01*
X0331937Y0237072D02*
X0330803Y0238206D01*
X0328534Y0238206D01*
X0327400Y0237072D01*
X0327400Y0232534D01*
X0334398Y0231400D02*
X0334398Y0238206D01*
X0338935Y0231400D01*
X0338935Y0238206D01*
X0341396Y0238206D02*
X0344799Y0238206D01*
X0345933Y0237072D01*
X0345933Y0232534D01*
X0344799Y0231400D01*
X0341396Y0231400D01*
X0341396Y0238206D01*
X0361400Y0235937D02*
X0361400Y0231400D01*
X0365937Y0231400D02*
X0365937Y0235937D01*
X0363669Y0238206D01*
X0361400Y0235937D01*
X0361400Y0234803D02*
X0365937Y0234803D01*
X0368398Y0237072D02*
X0368398Y0232534D01*
X0369532Y0231400D01*
X0371801Y0231400D01*
X0372935Y0232534D01*
X0372935Y0237072D02*
X0371801Y0238206D01*
X0369532Y0238206D01*
X0368398Y0237072D01*
X0394400Y0234803D02*
X0398937Y0234803D01*
X0396669Y0237072D02*
X0396669Y0232534D01*
X0401398Y0231400D02*
X0405935Y0235937D01*
X0405935Y0237072D01*
X0404801Y0238206D01*
X0402532Y0238206D01*
X0401398Y0237072D01*
X0408396Y0238206D02*
X0408396Y0234803D01*
X0410665Y0235937D01*
X0411799Y0235937D01*
X0412933Y0234803D01*
X0412933Y0232534D01*
X0411799Y0231400D01*
X0409530Y0231400D01*
X0408396Y0232534D01*
X0405935Y0231400D02*
X0401398Y0231400D01*
X0415394Y0232534D02*
X0419931Y0237072D01*
X0419931Y0232534D01*
X0418797Y0231400D01*
X0416528Y0231400D01*
X0415394Y0232534D01*
X0415394Y0237072D01*
X0416528Y0238206D01*
X0418797Y0238206D01*
X0419931Y0237072D01*
X0422392Y0238206D02*
X0422392Y0233669D01*
X0424660Y0231400D01*
X0426929Y0233669D01*
X0426929Y0238206D01*
X0412933Y0238206D02*
X0408396Y0238206D01*
X0451400Y0235937D02*
X0451400Y0231400D01*
X0455937Y0231400D02*
X0455937Y0235937D01*
X0453669Y0238206D01*
X0451400Y0235937D01*
X0451400Y0234803D02*
X0455937Y0234803D01*
X0458398Y0237072D02*
X0458398Y0232534D01*
X0459532Y0231400D01*
X0461801Y0231400D01*
X0462935Y0232534D01*
X0462935Y0237072D02*
X0461801Y0238206D01*
X0459532Y0238206D01*
X0458398Y0237072D01*
X0478400Y0237072D02*
X0478400Y0232534D01*
X0479534Y0231400D01*
X0481803Y0231400D01*
X0482937Y0232534D01*
X0482937Y0234803D01*
X0480669Y0234803D01*
X0482937Y0237072D02*
X0481803Y0238206D01*
X0479534Y0238206D01*
X0478400Y0237072D01*
X0485398Y0238206D02*
X0489935Y0231400D01*
X0489935Y0238206D01*
X0492396Y0238206D02*
X0495799Y0238206D01*
X0496933Y0237072D01*
X0496933Y0232534D01*
X0495799Y0231400D01*
X0492396Y0231400D01*
X0492396Y0238206D01*
X0485398Y0238206D02*
X0485398Y0231400D01*
X0175929Y0233669D02*
X0175929Y0238206D01*
X0171392Y0238206D02*
X0171392Y0233669D01*
X0173660Y0231400D01*
X0175929Y0233669D01*
X0168931Y0232534D02*
X0167797Y0231400D01*
X0165528Y0231400D01*
X0164394Y0232534D01*
X0168931Y0237072D01*
X0168931Y0232534D01*
X0164394Y0232534D02*
X0164394Y0237072D01*
X0165528Y0238206D01*
X0167797Y0238206D01*
X0168931Y0237072D01*
X0161933Y0238206D02*
X0157396Y0238206D01*
X0157396Y0234803D01*
X0159665Y0235937D01*
X0160799Y0235937D01*
X0161933Y0234803D01*
X0161933Y0232534D01*
X0160799Y0231400D01*
X0158530Y0231400D01*
X0157396Y0232534D01*
X0154935Y0231400D02*
X0150398Y0231400D01*
X0152667Y0231400D02*
X0152667Y0238206D01*
X0150398Y0235937D01*
X0147937Y0234803D02*
X0143400Y0234803D01*
X0128935Y0235937D02*
X0128935Y0237072D01*
X0127801Y0238206D01*
X0125532Y0238206D01*
X0124398Y0237072D01*
X0121937Y0237072D02*
X0121937Y0235937D01*
X0120803Y0234803D01*
X0117400Y0234803D01*
X0117400Y0238206D02*
X0120803Y0238206D01*
X0121937Y0237072D01*
X0120803Y0234803D02*
X0121937Y0233669D01*
X0121937Y0232534D01*
X0120803Y0231400D01*
X0117400Y0231400D01*
X0117400Y0238206D01*
X0124398Y0231400D02*
X0128935Y0235937D01*
X0128935Y0231400D02*
X0124398Y0231400D01*
X0097935Y0231400D02*
X0093398Y0231400D01*
X0095667Y0231400D02*
X0095667Y0238206D01*
X0093398Y0235937D01*
X0090937Y0235937D02*
X0089803Y0234803D01*
X0086400Y0234803D01*
X0086400Y0238206D02*
X0089803Y0238206D01*
X0090937Y0237072D01*
X0090937Y0235937D01*
X0089803Y0234803D02*
X0090937Y0233669D01*
X0090937Y0232534D01*
X0089803Y0231400D01*
X0086400Y0231400D01*
X0086400Y0238206D01*
X0058935Y0237072D02*
X0058935Y0235937D01*
X0054398Y0231400D01*
X0058935Y0231400D01*
X0051937Y0231400D02*
X0051937Y0235937D01*
X0049669Y0238206D01*
X0047400Y0235937D01*
X0047400Y0231400D01*
X0047400Y0234803D02*
X0051937Y0234803D01*
X0054398Y0237072D02*
X0055532Y0238206D01*
X0057801Y0238206D01*
X0058935Y0237072D01*
X0026935Y0231400D02*
X0022398Y0231400D01*
X0024667Y0231400D02*
X0024667Y0238206D01*
X0022398Y0235937D01*
X0019937Y0235937D02*
X0017669Y0238206D01*
X0015400Y0235937D01*
X0015400Y0231400D01*
X0019937Y0231400D02*
X0019937Y0235937D01*
X0019937Y0234803D02*
X0015400Y0234803D01*
D14*
X0176000Y0226000D02*
X0176000Y0206000D01*
X0216000Y0206000D01*
X0216000Y0226000D01*
X0281000Y0166000D02*
X0281000Y0071000D01*
X0331000Y0071000D01*
X0331000Y0166000D01*
X0281000Y0166000D01*
X0401000Y0166000D02*
X0401000Y0071000D01*
X0451000Y0071000D01*
X0451000Y0166000D01*
X0401000Y0166000D01*
X0401000Y0071000D02*
X0401113Y0070932D01*
X0401224Y0070862D01*
X0401332Y0070787D01*
X0401438Y0070710D01*
X0401542Y0070629D01*
X0401643Y0070546D01*
X0401742Y0070459D01*
X0401838Y0070369D01*
X0401931Y0070277D01*
X0402022Y0070181D01*
X0402109Y0070083D01*
X0402194Y0069983D01*
X0402275Y0069879D01*
X0402353Y0069774D01*
X0402428Y0069666D01*
X0402500Y0069556D01*
X0402568Y0069443D01*
X0402633Y0069329D01*
X0402695Y0069213D01*
X0402752Y0069095D01*
X0402807Y0068975D01*
X0402857Y0068854D01*
X0402904Y0068731D01*
X0402947Y0068607D01*
X0402986Y0068481D01*
X0403022Y0068355D01*
X0403053Y0068227D01*
X0403081Y0068099D01*
X0403105Y0067970D01*
X0403125Y0067840D01*
X0403141Y0067709D01*
X0403153Y0067578D01*
X0403161Y0067447D01*
X0403165Y0067316D01*
X0403165Y0067184D01*
X0403161Y0067053D01*
X0403153Y0066922D01*
X0403141Y0066791D01*
X0403125Y0066660D01*
X0403105Y0066530D01*
X0403081Y0066401D01*
X0403053Y0066273D01*
X0403022Y0066145D01*
X0402986Y0066019D01*
X0402947Y0065893D01*
X0402904Y0065769D01*
X0402857Y0065646D01*
X0402807Y0065525D01*
X0402752Y0065405D01*
X0402695Y0065287D01*
X0402633Y0065171D01*
X0402568Y0065057D01*
X0402500Y0064944D01*
X0402428Y0064834D01*
X0402353Y0064726D01*
X0402275Y0064621D01*
X0402194Y0064517D01*
X0402109Y0064417D01*
X0402022Y0064319D01*
X0401931Y0064223D01*
X0401838Y0064131D01*
X0401742Y0064041D01*
X0401643Y0063954D01*
X0401542Y0063871D01*
X0401438Y0063790D01*
X0401332Y0063713D01*
X0401224Y0063638D01*
X0401113Y0063568D01*
X0401000Y0063500D01*
X0451000Y0063500D01*
X0451000Y0056000D01*
X0401000Y0056000D01*
X0401000Y0063500D01*
X0451000Y0063500D02*
X0450887Y0063568D01*
X0450776Y0063638D01*
X0450668Y0063713D01*
X0450562Y0063790D01*
X0450458Y0063871D01*
X0450357Y0063954D01*
X0450258Y0064041D01*
X0450162Y0064131D01*
X0450069Y0064223D01*
X0449978Y0064319D01*
X0449891Y0064417D01*
X0449806Y0064517D01*
X0449725Y0064621D01*
X0449647Y0064726D01*
X0449572Y0064834D01*
X0449500Y0064944D01*
X0449432Y0065057D01*
X0449367Y0065171D01*
X0449305Y0065287D01*
X0449248Y0065405D01*
X0449193Y0065525D01*
X0449143Y0065646D01*
X0449096Y0065769D01*
X0449053Y0065893D01*
X0449014Y0066019D01*
X0448978Y0066145D01*
X0448947Y0066273D01*
X0448919Y0066401D01*
X0448895Y0066530D01*
X0448875Y0066660D01*
X0448859Y0066791D01*
X0448847Y0066922D01*
X0448839Y0067053D01*
X0448835Y0067184D01*
X0448835Y0067316D01*
X0448839Y0067447D01*
X0448847Y0067578D01*
X0448859Y0067709D01*
X0448875Y0067840D01*
X0448895Y0067970D01*
X0448919Y0068099D01*
X0448947Y0068227D01*
X0448978Y0068355D01*
X0449014Y0068481D01*
X0449053Y0068607D01*
X0449096Y0068731D01*
X0449143Y0068854D01*
X0449193Y0068975D01*
X0449248Y0069095D01*
X0449305Y0069213D01*
X0449367Y0069329D01*
X0449432Y0069443D01*
X0449500Y0069556D01*
X0449572Y0069666D01*
X0449647Y0069774D01*
X0449725Y0069879D01*
X0449806Y0069983D01*
X0449891Y0070083D01*
X0449978Y0070181D01*
X0450069Y0070277D01*
X0450162Y0070369D01*
X0450258Y0070459D01*
X0450357Y0070546D01*
X0450458Y0070629D01*
X0450562Y0070710D01*
X0450668Y0070787D01*
X0450776Y0070862D01*
X0450887Y0070932D01*
X0451000Y0071000D01*
X0331000Y0071000D02*
X0330887Y0070932D01*
X0330776Y0070862D01*
X0330668Y0070787D01*
X0330562Y0070710D01*
X0330458Y0070629D01*
X0330357Y0070546D01*
X0330258Y0070459D01*
X0330162Y0070369D01*
X0330069Y0070277D01*
X0329978Y0070181D01*
X0329891Y0070083D01*
X0329806Y0069983D01*
X0329725Y0069879D01*
X0329647Y0069774D01*
X0329572Y0069666D01*
X0329500Y0069556D01*
X0329432Y0069443D01*
X0329367Y0069329D01*
X0329305Y0069213D01*
X0329248Y0069095D01*
X0329193Y0068975D01*
X0329143Y0068854D01*
X0329096Y0068731D01*
X0329053Y0068607D01*
X0329014Y0068481D01*
X0328978Y0068355D01*
X0328947Y0068227D01*
X0328919Y0068099D01*
X0328895Y0067970D01*
X0328875Y0067840D01*
X0328859Y0067709D01*
X0328847Y0067578D01*
X0328839Y0067447D01*
X0328835Y0067316D01*
X0328835Y0067184D01*
X0328839Y0067053D01*
X0328847Y0066922D01*
X0328859Y0066791D01*
X0328875Y0066660D01*
X0328895Y0066530D01*
X0328919Y0066401D01*
X0328947Y0066273D01*
X0328978Y0066145D01*
X0329014Y0066019D01*
X0329053Y0065893D01*
X0329096Y0065769D01*
X0329143Y0065646D01*
X0329193Y0065525D01*
X0329248Y0065405D01*
X0329305Y0065287D01*
X0329367Y0065171D01*
X0329432Y0065057D01*
X0329500Y0064944D01*
X0329572Y0064834D01*
X0329647Y0064726D01*
X0329725Y0064621D01*
X0329806Y0064517D01*
X0329891Y0064417D01*
X0329978Y0064319D01*
X0330069Y0064223D01*
X0330162Y0064131D01*
X0330258Y0064041D01*
X0330357Y0063954D01*
X0330458Y0063871D01*
X0330562Y0063790D01*
X0330668Y0063713D01*
X0330776Y0063638D01*
X0330887Y0063568D01*
X0331000Y0063500D01*
X0281000Y0063500D01*
X0281000Y0056000D01*
X0331000Y0056000D01*
X0331000Y0063500D01*
X0281000Y0063500D02*
X0281113Y0063568D01*
X0281224Y0063638D01*
X0281332Y0063713D01*
X0281438Y0063790D01*
X0281542Y0063871D01*
X0281643Y0063954D01*
X0281742Y0064041D01*
X0281838Y0064131D01*
X0281931Y0064223D01*
X0282022Y0064319D01*
X0282109Y0064417D01*
X0282194Y0064517D01*
X0282275Y0064621D01*
X0282353Y0064726D01*
X0282428Y0064834D01*
X0282500Y0064944D01*
X0282568Y0065057D01*
X0282633Y0065171D01*
X0282695Y0065287D01*
X0282752Y0065405D01*
X0282807Y0065525D01*
X0282857Y0065646D01*
X0282904Y0065769D01*
X0282947Y0065893D01*
X0282986Y0066019D01*
X0283022Y0066145D01*
X0283053Y0066273D01*
X0283081Y0066401D01*
X0283105Y0066530D01*
X0283125Y0066660D01*
X0283141Y0066791D01*
X0283153Y0066922D01*
X0283161Y0067053D01*
X0283165Y0067184D01*
X0283165Y0067316D01*
X0283161Y0067447D01*
X0283153Y0067578D01*
X0283141Y0067709D01*
X0283125Y0067840D01*
X0283105Y0067970D01*
X0283081Y0068099D01*
X0283053Y0068227D01*
X0283022Y0068355D01*
X0282986Y0068481D01*
X0282947Y0068607D01*
X0282904Y0068731D01*
X0282857Y0068854D01*
X0282807Y0068975D01*
X0282752Y0069095D01*
X0282695Y0069213D01*
X0282633Y0069329D01*
X0282568Y0069443D01*
X0282500Y0069556D01*
X0282428Y0069666D01*
X0282353Y0069774D01*
X0282275Y0069879D01*
X0282194Y0069983D01*
X0282109Y0070083D01*
X0282022Y0070181D01*
X0281931Y0070277D01*
X0281838Y0070369D01*
X0281742Y0070459D01*
X0281643Y0070546D01*
X0281542Y0070629D01*
X0281438Y0070710D01*
X0281332Y0070787D01*
X0281224Y0070862D01*
X0281113Y0070932D01*
X0281000Y0071000D01*
M02*
