G75*
%MOIN*%
%OFA0B0*%
%FSLAX25Y25*%
%IPPOS*%
%LPD*%
%AMOC8*
5,1,8,0,0,1.08239X$1,22.5*
%
%ADD10C,0.10000*%
%ADD11C,0.08600*%
%ADD12C,0.11811*%
%ADD13R,0.32500X0.07500*%
%ADD14C,0.05000*%
%ADD15C,0.06150*%
%ADD16C,0.04000*%
%ADD17C,0.03200*%
D10*
X0505000Y0315207D03*
X0505000Y0334893D03*
X0515000Y0370582D03*
X0515000Y0390268D03*
D11*
X0540000Y0390425D03*
X0540000Y0350425D03*
X0475000Y0381050D03*
X0445000Y0381050D03*
X0410000Y0381050D03*
X0355000Y0411050D03*
X0345000Y0431050D03*
X0305000Y0421050D03*
X0260000Y0431050D03*
X0260000Y0391050D03*
X0305000Y0381050D03*
X0345000Y0381050D03*
X0330000Y0341050D03*
X0360000Y0341050D03*
X0360000Y0306050D03*
X0330000Y0306050D03*
X0280000Y0306050D03*
X0250000Y0306050D03*
X0250000Y0341050D03*
X0280000Y0341050D03*
X0200000Y0341050D03*
X0170000Y0341050D03*
X0165000Y0371050D03*
X0120000Y0341050D03*
X0120000Y0306050D03*
X0170000Y0306050D03*
X0200000Y0306050D03*
X0330000Y0261050D03*
X0410000Y0306050D03*
X0410000Y0341050D03*
X0410000Y0421050D03*
X0445000Y0421050D03*
X0475000Y0421050D03*
X0460000Y0261050D03*
X0450000Y0231050D03*
X0490000Y0231050D03*
X0460000Y0201050D03*
X0330000Y0201050D03*
X0165000Y0411050D03*
D12*
X0574567Y0397300D03*
X0574567Y0381675D03*
X0574567Y0366050D03*
X0574567Y0350425D03*
X0574567Y0334800D03*
X0574567Y0298863D03*
X0574567Y0283238D03*
X0574567Y0246675D03*
X0574567Y0231050D03*
X0574567Y0215425D03*
X0574567Y0176675D03*
X0574567Y0161050D03*
X0574567Y0145425D03*
D13*
X0024000Y0062250D03*
X0024000Y0077850D03*
X0024000Y0093450D03*
X0024000Y0109050D03*
X0024000Y0124650D03*
X0024000Y0140250D03*
X0024000Y0155850D03*
X0024000Y0171450D03*
X0024000Y0187050D03*
X0024000Y0202650D03*
X0024000Y0218250D03*
X0024000Y0233850D03*
X0024000Y0249450D03*
X0024000Y0265050D03*
X0024000Y0280650D03*
X0024000Y0296250D03*
X0024000Y0311850D03*
X0024000Y0327450D03*
X0024000Y0343050D03*
X0024000Y0358650D03*
X0024000Y0374250D03*
X0024000Y0389850D03*
D14*
X0024000Y0343050D02*
X0077000Y0343050D01*
X0105000Y0371050D01*
X0165000Y0371050D01*
X0265000Y0371050D01*
X0295000Y0401050D01*
X0315000Y0401050D01*
X0335000Y0381050D01*
X0345000Y0381050D01*
X0385000Y0381050D01*
X0385000Y0321050D01*
X0385000Y0296050D01*
X0420000Y0261050D01*
X0460000Y0261050D01*
X0470000Y0251050D01*
X0470000Y0211050D01*
X0460000Y0201050D01*
X0560000Y0201050D02*
X0560000Y0226050D01*
X0565000Y0231050D01*
X0574567Y0231050D01*
X0590000Y0231050D01*
X0595000Y0236050D01*
X0595000Y0306050D01*
X0590000Y0311050D01*
X0520000Y0311050D01*
X0515843Y0315207D01*
X0505000Y0315207D01*
X0460843Y0315207D01*
X0455000Y0321050D01*
X0385000Y0321050D01*
X0330000Y0281050D02*
X0305000Y0306050D01*
X0305000Y0381050D01*
X0385000Y0381050D02*
X0410000Y0381050D01*
X0425000Y0381050D01*
X0437500Y0393550D01*
X0492657Y0393550D01*
X0497500Y0388707D01*
X0497500Y0376050D01*
X0502968Y0370582D01*
X0515000Y0370582D01*
X0330000Y0281050D02*
X0330000Y0261050D01*
X0330000Y0231050D01*
X0330000Y0201050D01*
X0560000Y0201050D02*
X0565000Y0196050D01*
X0585000Y0196050D01*
X0595000Y0186050D01*
X0595000Y0171050D01*
X0585000Y0161050D01*
X0574567Y0161050D01*
D15*
X0077000Y0343050D03*
X0060000Y0343050D03*
D16*
X0119700Y0338950D02*
X0119700Y0306350D01*
X0120000Y0306050D01*
X0170000Y0306050D02*
X0200000Y0306050D01*
X0200000Y0341050D02*
X0170000Y0341050D01*
X0250000Y0341050D02*
X0280000Y0341050D01*
X0280000Y0306050D02*
X0250000Y0306050D01*
X0330000Y0306050D02*
X0360000Y0306050D01*
X0360000Y0341050D02*
X0330000Y0341050D01*
X0260000Y0391050D02*
X0240000Y0411050D01*
X0165000Y0411050D01*
X0260000Y0431050D02*
X0305000Y0431050D01*
X0305000Y0421050D01*
X0305000Y0431050D02*
X0345000Y0431050D01*
X0355000Y0411050D02*
X0387500Y0411050D01*
X0392500Y0406050D01*
X0500000Y0406050D01*
X0515782Y0390268D01*
X0515000Y0390268D01*
X0515157Y0390425D01*
X0540000Y0390425D01*
X0540000Y0376050D01*
X0550000Y0366050D01*
X0574567Y0366050D01*
X0574567Y0350425D02*
X0540000Y0350425D01*
X0574567Y0334800D02*
X0505093Y0334800D01*
X0505000Y0334893D01*
X0486157Y0334893D01*
X0460000Y0361050D01*
X0460000Y0381050D01*
X0475000Y0381050D01*
X0460000Y0381050D02*
X0445000Y0381050D01*
X0445000Y0421050D02*
X0410000Y0421050D01*
X0475000Y0421050D02*
X0580000Y0421050D01*
X0610000Y0391050D01*
X0610000Y0226050D01*
X0599375Y0215425D01*
X0574567Y0215425D01*
X0550000Y0231050D02*
X0490000Y0231050D01*
X0450000Y0231050D02*
X0330000Y0231050D01*
X0410000Y0306050D02*
X0435000Y0306050D01*
X0457812Y0283238D01*
X0574567Y0283238D01*
X0574567Y0246675D02*
X0560625Y0246675D01*
X0550000Y0236050D01*
X0550000Y0231050D01*
X0550000Y0186050D01*
X0559375Y0176675D01*
X0574567Y0176675D01*
D17*
X0119700Y0338950D02*
X0120000Y0340425D01*
X0120000Y0341050D01*
M02*
