G75*
%MOIN*%
%OFA0B0*%
%FSLAX25Y25*%
%IPPOS*%
%LPD*%
%AMOC8*
5,1,8,0,0,1.08239X$1,22.5*
%
%ADD10C,0.10800*%
%ADD11C,0.09400*%
%ADD12C,0.12611*%
%ADD13R,0.33300X0.08300*%
D10*
X0505000Y0315207D03*
X0505000Y0334893D03*
X0515000Y0370582D03*
X0515000Y0390268D03*
D11*
X0540000Y0390425D03*
X0540000Y0350425D03*
X0475000Y0381050D03*
X0445000Y0381050D03*
X0410000Y0381050D03*
X0355000Y0411050D03*
X0345000Y0431050D03*
X0305000Y0421050D03*
X0260000Y0431050D03*
X0260000Y0391050D03*
X0305000Y0381050D03*
X0345000Y0381050D03*
X0330000Y0341050D03*
X0360000Y0341050D03*
X0360000Y0306050D03*
X0330000Y0306050D03*
X0280000Y0306050D03*
X0250000Y0306050D03*
X0250000Y0341050D03*
X0280000Y0341050D03*
X0200000Y0341050D03*
X0170000Y0341050D03*
X0165000Y0371050D03*
X0120000Y0341050D03*
X0120000Y0306050D03*
X0170000Y0306050D03*
X0200000Y0306050D03*
X0330000Y0261050D03*
X0410000Y0306050D03*
X0410000Y0341050D03*
X0410000Y0421050D03*
X0445000Y0421050D03*
X0475000Y0421050D03*
X0460000Y0261050D03*
X0450000Y0231050D03*
X0490000Y0231050D03*
X0460000Y0201050D03*
X0330000Y0201050D03*
X0165000Y0411050D03*
D12*
X0574567Y0397300D03*
X0574567Y0381675D03*
X0574567Y0366050D03*
X0574567Y0350425D03*
X0574567Y0334800D03*
X0574567Y0298863D03*
X0574567Y0283238D03*
X0574567Y0246675D03*
X0574567Y0231050D03*
X0574567Y0215425D03*
X0574567Y0176675D03*
X0574567Y0161050D03*
X0574567Y0145425D03*
D13*
X0024000Y0062250D03*
X0024000Y0077850D03*
X0024000Y0093450D03*
X0024000Y0109050D03*
X0024000Y0124650D03*
X0024000Y0140250D03*
X0024000Y0155850D03*
X0024000Y0171450D03*
X0024000Y0187050D03*
X0024000Y0202650D03*
X0024000Y0218250D03*
X0024000Y0233850D03*
X0024000Y0249450D03*
X0024000Y0265050D03*
X0024000Y0280650D03*
X0024000Y0296250D03*
X0024000Y0311850D03*
X0024000Y0327450D03*
X0024000Y0343050D03*
X0024000Y0358650D03*
X0024000Y0374250D03*
X0024000Y0389850D03*
M02*
