G75*
%MOIN*%
%OFA0B0*%
%FSLAX25Y25*%
%IPPOS*%
%LPD*%
%AMOC8*
5,1,8,0,0,1.08239X$1,22.5*
%
%ADD10C,0.00100*%
%ADD11C,0.00600*%
%ADD12C,0.00900*%
%ADD13C,0.00800*%
%ADD14C,0.00700*%
%ADD15C,0.00500*%
%ADD16R,0.10000X0.02000*%
%ADD17R,0.03000X0.07000*%
%ADD18R,0.02000X0.10000*%
%ADD19R,0.07000X0.03000*%
%ADD20R,0.02000X0.02400*%
%ADD21C,0.00400*%
D10*
X0040000Y0016050D02*
X0055000Y0001050D01*
X0655000Y0001050D01*
X0655000Y0451050D01*
X0055000Y0451050D01*
X0040000Y0436050D01*
X0040000Y0405050D01*
X0015000Y0405050D01*
X0005000Y0395050D01*
X0005000Y0057050D01*
X0015000Y0047050D01*
X0040000Y0047050D01*
X0040000Y0016050D01*
D11*
X0129000Y0300050D02*
X0131500Y0300050D01*
X0132000Y0300550D01*
X0158000Y0300550D01*
X0158500Y0300050D01*
X0161000Y0300050D01*
X0161060Y0300052D01*
X0161121Y0300057D01*
X0161180Y0300066D01*
X0161239Y0300079D01*
X0161298Y0300095D01*
X0161355Y0300115D01*
X0161410Y0300138D01*
X0161465Y0300165D01*
X0161517Y0300194D01*
X0161568Y0300227D01*
X0161617Y0300263D01*
X0161663Y0300301D01*
X0161707Y0300343D01*
X0161749Y0300387D01*
X0161787Y0300433D01*
X0161823Y0300482D01*
X0161856Y0300533D01*
X0161885Y0300585D01*
X0161912Y0300640D01*
X0161935Y0300695D01*
X0161955Y0300752D01*
X0161971Y0300811D01*
X0161984Y0300870D01*
X0161993Y0300929D01*
X0161998Y0300990D01*
X0162000Y0301050D01*
X0162000Y0311050D01*
X0161998Y0311110D01*
X0161993Y0311171D01*
X0161984Y0311230D01*
X0161971Y0311289D01*
X0161955Y0311348D01*
X0161935Y0311405D01*
X0161912Y0311460D01*
X0161885Y0311515D01*
X0161856Y0311567D01*
X0161823Y0311618D01*
X0161787Y0311667D01*
X0161749Y0311713D01*
X0161707Y0311757D01*
X0161663Y0311799D01*
X0161617Y0311837D01*
X0161568Y0311873D01*
X0161517Y0311906D01*
X0161465Y0311935D01*
X0161410Y0311962D01*
X0161355Y0311985D01*
X0161298Y0312005D01*
X0161239Y0312021D01*
X0161180Y0312034D01*
X0161121Y0312043D01*
X0161060Y0312048D01*
X0161000Y0312050D01*
X0158500Y0312050D01*
X0158000Y0311550D01*
X0132000Y0311550D01*
X0131500Y0312050D01*
X0129000Y0312050D01*
X0128940Y0312048D01*
X0128879Y0312043D01*
X0128820Y0312034D01*
X0128761Y0312021D01*
X0128702Y0312005D01*
X0128645Y0311985D01*
X0128590Y0311962D01*
X0128535Y0311935D01*
X0128483Y0311906D01*
X0128432Y0311873D01*
X0128383Y0311837D01*
X0128337Y0311799D01*
X0128293Y0311757D01*
X0128251Y0311713D01*
X0128213Y0311667D01*
X0128177Y0311618D01*
X0128144Y0311567D01*
X0128115Y0311515D01*
X0128088Y0311460D01*
X0128065Y0311405D01*
X0128045Y0311348D01*
X0128029Y0311289D01*
X0128016Y0311230D01*
X0128007Y0311171D01*
X0128002Y0311110D01*
X0128000Y0311050D01*
X0128000Y0301050D01*
X0128002Y0300990D01*
X0128007Y0300929D01*
X0128016Y0300870D01*
X0128029Y0300811D01*
X0128045Y0300752D01*
X0128065Y0300695D01*
X0128088Y0300640D01*
X0128115Y0300585D01*
X0128144Y0300533D01*
X0128177Y0300482D01*
X0128213Y0300433D01*
X0128251Y0300387D01*
X0128293Y0300343D01*
X0128337Y0300301D01*
X0128383Y0300263D01*
X0128432Y0300227D01*
X0128483Y0300194D01*
X0128535Y0300165D01*
X0128590Y0300138D01*
X0128645Y0300115D01*
X0128702Y0300095D01*
X0128761Y0300079D01*
X0128820Y0300066D01*
X0128879Y0300057D01*
X0128940Y0300052D01*
X0129000Y0300050D01*
X0129000Y0335050D02*
X0131500Y0335050D01*
X0132000Y0335550D01*
X0158000Y0335550D01*
X0158500Y0335050D01*
X0161000Y0335050D01*
X0161060Y0335052D01*
X0161121Y0335057D01*
X0161180Y0335066D01*
X0161239Y0335079D01*
X0161298Y0335095D01*
X0161355Y0335115D01*
X0161410Y0335138D01*
X0161465Y0335165D01*
X0161517Y0335194D01*
X0161568Y0335227D01*
X0161617Y0335263D01*
X0161663Y0335301D01*
X0161707Y0335343D01*
X0161749Y0335387D01*
X0161787Y0335433D01*
X0161823Y0335482D01*
X0161856Y0335533D01*
X0161885Y0335585D01*
X0161912Y0335640D01*
X0161935Y0335695D01*
X0161955Y0335752D01*
X0161971Y0335811D01*
X0161984Y0335870D01*
X0161993Y0335929D01*
X0161998Y0335990D01*
X0162000Y0336050D01*
X0162000Y0346050D01*
X0161998Y0346110D01*
X0161993Y0346171D01*
X0161984Y0346230D01*
X0161971Y0346289D01*
X0161955Y0346348D01*
X0161935Y0346405D01*
X0161912Y0346460D01*
X0161885Y0346515D01*
X0161856Y0346567D01*
X0161823Y0346618D01*
X0161787Y0346667D01*
X0161749Y0346713D01*
X0161707Y0346757D01*
X0161663Y0346799D01*
X0161617Y0346837D01*
X0161568Y0346873D01*
X0161517Y0346906D01*
X0161465Y0346935D01*
X0161410Y0346962D01*
X0161355Y0346985D01*
X0161298Y0347005D01*
X0161239Y0347021D01*
X0161180Y0347034D01*
X0161121Y0347043D01*
X0161060Y0347048D01*
X0161000Y0347050D01*
X0158500Y0347050D01*
X0158000Y0346550D01*
X0132000Y0346550D01*
X0131500Y0347050D01*
X0129000Y0347050D01*
X0128940Y0347048D01*
X0128879Y0347043D01*
X0128820Y0347034D01*
X0128761Y0347021D01*
X0128702Y0347005D01*
X0128645Y0346985D01*
X0128590Y0346962D01*
X0128535Y0346935D01*
X0128483Y0346906D01*
X0128432Y0346873D01*
X0128383Y0346837D01*
X0128337Y0346799D01*
X0128293Y0346757D01*
X0128251Y0346713D01*
X0128213Y0346667D01*
X0128177Y0346618D01*
X0128144Y0346567D01*
X0128115Y0346515D01*
X0128088Y0346460D01*
X0128065Y0346405D01*
X0128045Y0346348D01*
X0128029Y0346289D01*
X0128016Y0346230D01*
X0128007Y0346171D01*
X0128002Y0346110D01*
X0128000Y0346050D01*
X0128000Y0336050D01*
X0128002Y0335990D01*
X0128007Y0335929D01*
X0128016Y0335870D01*
X0128029Y0335811D01*
X0128045Y0335752D01*
X0128065Y0335695D01*
X0128088Y0335640D01*
X0128115Y0335585D01*
X0128144Y0335533D01*
X0128177Y0335482D01*
X0128213Y0335433D01*
X0128251Y0335387D01*
X0128293Y0335343D01*
X0128337Y0335301D01*
X0128383Y0335263D01*
X0128432Y0335227D01*
X0128483Y0335194D01*
X0128535Y0335165D01*
X0128590Y0335138D01*
X0128645Y0335115D01*
X0128702Y0335095D01*
X0128761Y0335079D01*
X0128820Y0335066D01*
X0128879Y0335057D01*
X0128940Y0335052D01*
X0129000Y0335050D01*
X0160000Y0383050D02*
X0170000Y0383050D01*
X0170000Y0399050D01*
X0160000Y0399050D01*
X0160000Y0383050D01*
X0165000Y0388550D02*
X0165000Y0391050D01*
X0167500Y0391050D01*
X0165000Y0391050D02*
X0162500Y0391050D01*
X0165000Y0391050D02*
X0162500Y0395050D01*
X0167500Y0395050D01*
X0165000Y0391050D01*
X0165000Y0397050D01*
X0209000Y0347050D02*
X0211500Y0347050D01*
X0212000Y0346550D01*
X0238000Y0346550D01*
X0238500Y0347050D01*
X0241000Y0347050D01*
X0241060Y0347048D01*
X0241121Y0347043D01*
X0241180Y0347034D01*
X0241239Y0347021D01*
X0241298Y0347005D01*
X0241355Y0346985D01*
X0241410Y0346962D01*
X0241465Y0346935D01*
X0241517Y0346906D01*
X0241568Y0346873D01*
X0241617Y0346837D01*
X0241663Y0346799D01*
X0241707Y0346757D01*
X0241749Y0346713D01*
X0241787Y0346667D01*
X0241823Y0346618D01*
X0241856Y0346567D01*
X0241885Y0346515D01*
X0241912Y0346460D01*
X0241935Y0346405D01*
X0241955Y0346348D01*
X0241971Y0346289D01*
X0241984Y0346230D01*
X0241993Y0346171D01*
X0241998Y0346110D01*
X0242000Y0346050D01*
X0242000Y0336050D01*
X0241998Y0335990D01*
X0241993Y0335929D01*
X0241984Y0335870D01*
X0241971Y0335811D01*
X0241955Y0335752D01*
X0241935Y0335695D01*
X0241912Y0335640D01*
X0241885Y0335585D01*
X0241856Y0335533D01*
X0241823Y0335482D01*
X0241787Y0335433D01*
X0241749Y0335387D01*
X0241707Y0335343D01*
X0241663Y0335301D01*
X0241617Y0335263D01*
X0241568Y0335227D01*
X0241517Y0335194D01*
X0241465Y0335165D01*
X0241410Y0335138D01*
X0241355Y0335115D01*
X0241298Y0335095D01*
X0241239Y0335079D01*
X0241180Y0335066D01*
X0241121Y0335057D01*
X0241060Y0335052D01*
X0241000Y0335050D01*
X0238500Y0335050D01*
X0238000Y0335550D01*
X0212000Y0335550D01*
X0211500Y0335050D01*
X0209000Y0335050D01*
X0208940Y0335052D01*
X0208879Y0335057D01*
X0208820Y0335066D01*
X0208761Y0335079D01*
X0208702Y0335095D01*
X0208645Y0335115D01*
X0208590Y0335138D01*
X0208535Y0335165D01*
X0208483Y0335194D01*
X0208432Y0335227D01*
X0208383Y0335263D01*
X0208337Y0335301D01*
X0208293Y0335343D01*
X0208251Y0335387D01*
X0208213Y0335433D01*
X0208177Y0335482D01*
X0208144Y0335533D01*
X0208115Y0335585D01*
X0208088Y0335640D01*
X0208065Y0335695D01*
X0208045Y0335752D01*
X0208029Y0335811D01*
X0208016Y0335870D01*
X0208007Y0335929D01*
X0208002Y0335990D01*
X0208000Y0336050D01*
X0208000Y0346050D01*
X0208002Y0346110D01*
X0208007Y0346171D01*
X0208016Y0346230D01*
X0208029Y0346289D01*
X0208045Y0346348D01*
X0208065Y0346405D01*
X0208088Y0346460D01*
X0208115Y0346515D01*
X0208144Y0346567D01*
X0208177Y0346618D01*
X0208213Y0346667D01*
X0208251Y0346713D01*
X0208293Y0346757D01*
X0208337Y0346799D01*
X0208383Y0346837D01*
X0208432Y0346873D01*
X0208483Y0346906D01*
X0208535Y0346935D01*
X0208590Y0346962D01*
X0208645Y0346985D01*
X0208702Y0347005D01*
X0208761Y0347021D01*
X0208820Y0347034D01*
X0208879Y0347043D01*
X0208940Y0347048D01*
X0209000Y0347050D01*
X0209000Y0312050D02*
X0211500Y0312050D01*
X0212000Y0311550D01*
X0238000Y0311550D01*
X0238500Y0312050D01*
X0241000Y0312050D01*
X0241060Y0312048D01*
X0241121Y0312043D01*
X0241180Y0312034D01*
X0241239Y0312021D01*
X0241298Y0312005D01*
X0241355Y0311985D01*
X0241410Y0311962D01*
X0241465Y0311935D01*
X0241517Y0311906D01*
X0241568Y0311873D01*
X0241617Y0311837D01*
X0241663Y0311799D01*
X0241707Y0311757D01*
X0241749Y0311713D01*
X0241787Y0311667D01*
X0241823Y0311618D01*
X0241856Y0311567D01*
X0241885Y0311515D01*
X0241912Y0311460D01*
X0241935Y0311405D01*
X0241955Y0311348D01*
X0241971Y0311289D01*
X0241984Y0311230D01*
X0241993Y0311171D01*
X0241998Y0311110D01*
X0242000Y0311050D01*
X0242000Y0301050D01*
X0241998Y0300990D01*
X0241993Y0300929D01*
X0241984Y0300870D01*
X0241971Y0300811D01*
X0241955Y0300752D01*
X0241935Y0300695D01*
X0241912Y0300640D01*
X0241885Y0300585D01*
X0241856Y0300533D01*
X0241823Y0300482D01*
X0241787Y0300433D01*
X0241749Y0300387D01*
X0241707Y0300343D01*
X0241663Y0300301D01*
X0241617Y0300263D01*
X0241568Y0300227D01*
X0241517Y0300194D01*
X0241465Y0300165D01*
X0241410Y0300138D01*
X0241355Y0300115D01*
X0241298Y0300095D01*
X0241239Y0300079D01*
X0241180Y0300066D01*
X0241121Y0300057D01*
X0241060Y0300052D01*
X0241000Y0300050D01*
X0238500Y0300050D01*
X0238000Y0300550D01*
X0212000Y0300550D01*
X0211500Y0300050D01*
X0209000Y0300050D01*
X0208940Y0300052D01*
X0208879Y0300057D01*
X0208820Y0300066D01*
X0208761Y0300079D01*
X0208702Y0300095D01*
X0208645Y0300115D01*
X0208590Y0300138D01*
X0208535Y0300165D01*
X0208483Y0300194D01*
X0208432Y0300227D01*
X0208383Y0300263D01*
X0208337Y0300301D01*
X0208293Y0300343D01*
X0208251Y0300387D01*
X0208213Y0300433D01*
X0208177Y0300482D01*
X0208144Y0300533D01*
X0208115Y0300585D01*
X0208088Y0300640D01*
X0208065Y0300695D01*
X0208045Y0300752D01*
X0208029Y0300811D01*
X0208016Y0300870D01*
X0208007Y0300929D01*
X0208002Y0300990D01*
X0208000Y0301050D01*
X0208000Y0311050D01*
X0208002Y0311110D01*
X0208007Y0311171D01*
X0208016Y0311230D01*
X0208029Y0311289D01*
X0208045Y0311348D01*
X0208065Y0311405D01*
X0208088Y0311460D01*
X0208115Y0311515D01*
X0208144Y0311567D01*
X0208177Y0311618D01*
X0208213Y0311667D01*
X0208251Y0311713D01*
X0208293Y0311757D01*
X0208337Y0311799D01*
X0208383Y0311837D01*
X0208432Y0311873D01*
X0208483Y0311906D01*
X0208535Y0311935D01*
X0208590Y0311962D01*
X0208645Y0311985D01*
X0208702Y0312005D01*
X0208761Y0312021D01*
X0208820Y0312034D01*
X0208879Y0312043D01*
X0208940Y0312048D01*
X0209000Y0312050D01*
X0288000Y0311050D02*
X0288000Y0301050D01*
X0288002Y0300990D01*
X0288007Y0300929D01*
X0288016Y0300870D01*
X0288029Y0300811D01*
X0288045Y0300752D01*
X0288065Y0300695D01*
X0288088Y0300640D01*
X0288115Y0300585D01*
X0288144Y0300533D01*
X0288177Y0300482D01*
X0288213Y0300433D01*
X0288251Y0300387D01*
X0288293Y0300343D01*
X0288337Y0300301D01*
X0288383Y0300263D01*
X0288432Y0300227D01*
X0288483Y0300194D01*
X0288535Y0300165D01*
X0288590Y0300138D01*
X0288645Y0300115D01*
X0288702Y0300095D01*
X0288761Y0300079D01*
X0288820Y0300066D01*
X0288879Y0300057D01*
X0288940Y0300052D01*
X0289000Y0300050D01*
X0291500Y0300050D01*
X0292000Y0300550D01*
X0318000Y0300550D01*
X0318500Y0300050D01*
X0321000Y0300050D01*
X0321060Y0300052D01*
X0321121Y0300057D01*
X0321180Y0300066D01*
X0321239Y0300079D01*
X0321298Y0300095D01*
X0321355Y0300115D01*
X0321410Y0300138D01*
X0321465Y0300165D01*
X0321517Y0300194D01*
X0321568Y0300227D01*
X0321617Y0300263D01*
X0321663Y0300301D01*
X0321707Y0300343D01*
X0321749Y0300387D01*
X0321787Y0300433D01*
X0321823Y0300482D01*
X0321856Y0300533D01*
X0321885Y0300585D01*
X0321912Y0300640D01*
X0321935Y0300695D01*
X0321955Y0300752D01*
X0321971Y0300811D01*
X0321984Y0300870D01*
X0321993Y0300929D01*
X0321998Y0300990D01*
X0322000Y0301050D01*
X0322000Y0311050D01*
X0321998Y0311110D01*
X0321993Y0311171D01*
X0321984Y0311230D01*
X0321971Y0311289D01*
X0321955Y0311348D01*
X0321935Y0311405D01*
X0321912Y0311460D01*
X0321885Y0311515D01*
X0321856Y0311567D01*
X0321823Y0311618D01*
X0321787Y0311667D01*
X0321749Y0311713D01*
X0321707Y0311757D01*
X0321663Y0311799D01*
X0321617Y0311837D01*
X0321568Y0311873D01*
X0321517Y0311906D01*
X0321465Y0311935D01*
X0321410Y0311962D01*
X0321355Y0311985D01*
X0321298Y0312005D01*
X0321239Y0312021D01*
X0321180Y0312034D01*
X0321121Y0312043D01*
X0321060Y0312048D01*
X0321000Y0312050D01*
X0318500Y0312050D01*
X0318000Y0311550D01*
X0292000Y0311550D01*
X0291500Y0312050D01*
X0289000Y0312050D01*
X0288940Y0312048D01*
X0288879Y0312043D01*
X0288820Y0312034D01*
X0288761Y0312021D01*
X0288702Y0312005D01*
X0288645Y0311985D01*
X0288590Y0311962D01*
X0288535Y0311935D01*
X0288483Y0311906D01*
X0288432Y0311873D01*
X0288383Y0311837D01*
X0288337Y0311799D01*
X0288293Y0311757D01*
X0288251Y0311713D01*
X0288213Y0311667D01*
X0288177Y0311618D01*
X0288144Y0311567D01*
X0288115Y0311515D01*
X0288088Y0311460D01*
X0288065Y0311405D01*
X0288045Y0311348D01*
X0288029Y0311289D01*
X0288016Y0311230D01*
X0288007Y0311171D01*
X0288002Y0311110D01*
X0288000Y0311050D01*
X0289000Y0335050D02*
X0291500Y0335050D01*
X0292000Y0335550D01*
X0318000Y0335550D01*
X0318500Y0335050D01*
X0321000Y0335050D01*
X0321060Y0335052D01*
X0321121Y0335057D01*
X0321180Y0335066D01*
X0321239Y0335079D01*
X0321298Y0335095D01*
X0321355Y0335115D01*
X0321410Y0335138D01*
X0321465Y0335165D01*
X0321517Y0335194D01*
X0321568Y0335227D01*
X0321617Y0335263D01*
X0321663Y0335301D01*
X0321707Y0335343D01*
X0321749Y0335387D01*
X0321787Y0335433D01*
X0321823Y0335482D01*
X0321856Y0335533D01*
X0321885Y0335585D01*
X0321912Y0335640D01*
X0321935Y0335695D01*
X0321955Y0335752D01*
X0321971Y0335811D01*
X0321984Y0335870D01*
X0321993Y0335929D01*
X0321998Y0335990D01*
X0322000Y0336050D01*
X0322000Y0346050D01*
X0321998Y0346110D01*
X0321993Y0346171D01*
X0321984Y0346230D01*
X0321971Y0346289D01*
X0321955Y0346348D01*
X0321935Y0346405D01*
X0321912Y0346460D01*
X0321885Y0346515D01*
X0321856Y0346567D01*
X0321823Y0346618D01*
X0321787Y0346667D01*
X0321749Y0346713D01*
X0321707Y0346757D01*
X0321663Y0346799D01*
X0321617Y0346837D01*
X0321568Y0346873D01*
X0321517Y0346906D01*
X0321465Y0346935D01*
X0321410Y0346962D01*
X0321355Y0346985D01*
X0321298Y0347005D01*
X0321239Y0347021D01*
X0321180Y0347034D01*
X0321121Y0347043D01*
X0321060Y0347048D01*
X0321000Y0347050D01*
X0318500Y0347050D01*
X0318000Y0346550D01*
X0292000Y0346550D01*
X0291500Y0347050D01*
X0289000Y0347050D01*
X0288940Y0347048D01*
X0288879Y0347043D01*
X0288820Y0347034D01*
X0288761Y0347021D01*
X0288702Y0347005D01*
X0288645Y0346985D01*
X0288590Y0346962D01*
X0288535Y0346935D01*
X0288483Y0346906D01*
X0288432Y0346873D01*
X0288383Y0346837D01*
X0288337Y0346799D01*
X0288293Y0346757D01*
X0288251Y0346713D01*
X0288213Y0346667D01*
X0288177Y0346618D01*
X0288144Y0346567D01*
X0288115Y0346515D01*
X0288088Y0346460D01*
X0288065Y0346405D01*
X0288045Y0346348D01*
X0288029Y0346289D01*
X0288016Y0346230D01*
X0288007Y0346171D01*
X0288002Y0346110D01*
X0288000Y0346050D01*
X0288000Y0336050D01*
X0288002Y0335990D01*
X0288007Y0335929D01*
X0288016Y0335870D01*
X0288029Y0335811D01*
X0288045Y0335752D01*
X0288065Y0335695D01*
X0288088Y0335640D01*
X0288115Y0335585D01*
X0288144Y0335533D01*
X0288177Y0335482D01*
X0288213Y0335433D01*
X0288251Y0335387D01*
X0288293Y0335343D01*
X0288337Y0335301D01*
X0288383Y0335263D01*
X0288432Y0335227D01*
X0288483Y0335194D01*
X0288535Y0335165D01*
X0288590Y0335138D01*
X0288645Y0335115D01*
X0288702Y0335095D01*
X0288761Y0335079D01*
X0288820Y0335066D01*
X0288879Y0335057D01*
X0288940Y0335052D01*
X0289000Y0335050D01*
X0341500Y0369050D02*
X0358500Y0369050D01*
X0358500Y0406350D01*
X0358500Y0415850D02*
X0358500Y0444050D01*
X0355000Y0444050D01*
X0345000Y0444050D01*
X0341500Y0444050D01*
X0341500Y0435750D01*
X0345000Y0444050D02*
X0345000Y0450050D01*
X0348420Y0450050D01*
X0348420Y0448050D01*
X0351580Y0448050D01*
X0351580Y0450050D01*
X0355000Y0450050D01*
X0355000Y0444050D01*
X0341500Y0426350D02*
X0341500Y0385750D01*
X0341500Y0376350D02*
X0341500Y0369050D01*
X0368000Y0346050D02*
X0368000Y0336050D01*
X0368002Y0335990D01*
X0368007Y0335929D01*
X0368016Y0335870D01*
X0368029Y0335811D01*
X0368045Y0335752D01*
X0368065Y0335695D01*
X0368088Y0335640D01*
X0368115Y0335585D01*
X0368144Y0335533D01*
X0368177Y0335482D01*
X0368213Y0335433D01*
X0368251Y0335387D01*
X0368293Y0335343D01*
X0368337Y0335301D01*
X0368383Y0335263D01*
X0368432Y0335227D01*
X0368483Y0335194D01*
X0368535Y0335165D01*
X0368590Y0335138D01*
X0368645Y0335115D01*
X0368702Y0335095D01*
X0368761Y0335079D01*
X0368820Y0335066D01*
X0368879Y0335057D01*
X0368940Y0335052D01*
X0369000Y0335050D01*
X0371500Y0335050D01*
X0372000Y0335550D01*
X0398000Y0335550D01*
X0398500Y0335050D01*
X0401000Y0335050D01*
X0401060Y0335052D01*
X0401121Y0335057D01*
X0401180Y0335066D01*
X0401239Y0335079D01*
X0401298Y0335095D01*
X0401355Y0335115D01*
X0401410Y0335138D01*
X0401465Y0335165D01*
X0401517Y0335194D01*
X0401568Y0335227D01*
X0401617Y0335263D01*
X0401663Y0335301D01*
X0401707Y0335343D01*
X0401749Y0335387D01*
X0401787Y0335433D01*
X0401823Y0335482D01*
X0401856Y0335533D01*
X0401885Y0335585D01*
X0401912Y0335640D01*
X0401935Y0335695D01*
X0401955Y0335752D01*
X0401971Y0335811D01*
X0401984Y0335870D01*
X0401993Y0335929D01*
X0401998Y0335990D01*
X0402000Y0336050D01*
X0402000Y0346050D01*
X0401998Y0346110D01*
X0401993Y0346171D01*
X0401984Y0346230D01*
X0401971Y0346289D01*
X0401955Y0346348D01*
X0401935Y0346405D01*
X0401912Y0346460D01*
X0401885Y0346515D01*
X0401856Y0346567D01*
X0401823Y0346618D01*
X0401787Y0346667D01*
X0401749Y0346713D01*
X0401707Y0346757D01*
X0401663Y0346799D01*
X0401617Y0346837D01*
X0401568Y0346873D01*
X0401517Y0346906D01*
X0401465Y0346935D01*
X0401410Y0346962D01*
X0401355Y0346985D01*
X0401298Y0347005D01*
X0401239Y0347021D01*
X0401180Y0347034D01*
X0401121Y0347043D01*
X0401060Y0347048D01*
X0401000Y0347050D01*
X0398500Y0347050D01*
X0398000Y0346550D01*
X0372000Y0346550D01*
X0371500Y0347050D01*
X0369000Y0347050D01*
X0368940Y0347048D01*
X0368879Y0347043D01*
X0368820Y0347034D01*
X0368761Y0347021D01*
X0368702Y0347005D01*
X0368645Y0346985D01*
X0368590Y0346962D01*
X0368535Y0346935D01*
X0368483Y0346906D01*
X0368432Y0346873D01*
X0368383Y0346837D01*
X0368337Y0346799D01*
X0368293Y0346757D01*
X0368251Y0346713D01*
X0368213Y0346667D01*
X0368177Y0346618D01*
X0368144Y0346567D01*
X0368115Y0346515D01*
X0368088Y0346460D01*
X0368065Y0346405D01*
X0368045Y0346348D01*
X0368029Y0346289D01*
X0368016Y0346230D01*
X0368007Y0346171D01*
X0368002Y0346110D01*
X0368000Y0346050D01*
X0369000Y0312050D02*
X0371500Y0312050D01*
X0372000Y0311550D01*
X0398000Y0311550D01*
X0398500Y0312050D01*
X0401000Y0312050D01*
X0401060Y0312048D01*
X0401121Y0312043D01*
X0401180Y0312034D01*
X0401239Y0312021D01*
X0401298Y0312005D01*
X0401355Y0311985D01*
X0401410Y0311962D01*
X0401465Y0311935D01*
X0401517Y0311906D01*
X0401568Y0311873D01*
X0401617Y0311837D01*
X0401663Y0311799D01*
X0401707Y0311757D01*
X0401749Y0311713D01*
X0401787Y0311667D01*
X0401823Y0311618D01*
X0401856Y0311567D01*
X0401885Y0311515D01*
X0401912Y0311460D01*
X0401935Y0311405D01*
X0401955Y0311348D01*
X0401971Y0311289D01*
X0401984Y0311230D01*
X0401993Y0311171D01*
X0401998Y0311110D01*
X0402000Y0311050D01*
X0402000Y0301050D01*
X0401998Y0300990D01*
X0401993Y0300929D01*
X0401984Y0300870D01*
X0401971Y0300811D01*
X0401955Y0300752D01*
X0401935Y0300695D01*
X0401912Y0300640D01*
X0401885Y0300585D01*
X0401856Y0300533D01*
X0401823Y0300482D01*
X0401787Y0300433D01*
X0401749Y0300387D01*
X0401707Y0300343D01*
X0401663Y0300301D01*
X0401617Y0300263D01*
X0401568Y0300227D01*
X0401517Y0300194D01*
X0401465Y0300165D01*
X0401410Y0300138D01*
X0401355Y0300115D01*
X0401298Y0300095D01*
X0401239Y0300079D01*
X0401180Y0300066D01*
X0401121Y0300057D01*
X0401060Y0300052D01*
X0401000Y0300050D01*
X0398500Y0300050D01*
X0398000Y0300550D01*
X0372000Y0300550D01*
X0371500Y0300050D01*
X0369000Y0300050D01*
X0368940Y0300052D01*
X0368879Y0300057D01*
X0368820Y0300066D01*
X0368761Y0300079D01*
X0368702Y0300095D01*
X0368645Y0300115D01*
X0368590Y0300138D01*
X0368535Y0300165D01*
X0368483Y0300194D01*
X0368432Y0300227D01*
X0368383Y0300263D01*
X0368337Y0300301D01*
X0368293Y0300343D01*
X0368251Y0300387D01*
X0368213Y0300433D01*
X0368177Y0300482D01*
X0368144Y0300533D01*
X0368115Y0300585D01*
X0368088Y0300640D01*
X0368065Y0300695D01*
X0368045Y0300752D01*
X0368029Y0300811D01*
X0368016Y0300870D01*
X0368007Y0300929D01*
X0368002Y0300990D01*
X0368000Y0301050D01*
X0368000Y0311050D01*
X0368002Y0311110D01*
X0368007Y0311171D01*
X0368016Y0311230D01*
X0368029Y0311289D01*
X0368045Y0311348D01*
X0368065Y0311405D01*
X0368088Y0311460D01*
X0368115Y0311515D01*
X0368144Y0311567D01*
X0368177Y0311618D01*
X0368213Y0311667D01*
X0368251Y0311713D01*
X0368293Y0311757D01*
X0368337Y0311799D01*
X0368383Y0311837D01*
X0368432Y0311873D01*
X0368483Y0311906D01*
X0368535Y0311935D01*
X0368590Y0311962D01*
X0368645Y0311985D01*
X0368702Y0312005D01*
X0368761Y0312021D01*
X0368820Y0312034D01*
X0368879Y0312043D01*
X0368940Y0312048D01*
X0369000Y0312050D01*
X0308500Y0388550D02*
X0301500Y0388550D01*
X0301440Y0388552D01*
X0301379Y0388557D01*
X0301320Y0388566D01*
X0301261Y0388579D01*
X0301202Y0388595D01*
X0301145Y0388615D01*
X0301090Y0388638D01*
X0301035Y0388665D01*
X0300983Y0388694D01*
X0300932Y0388727D01*
X0300883Y0388763D01*
X0300837Y0388801D01*
X0300793Y0388843D01*
X0300751Y0388887D01*
X0300713Y0388933D01*
X0300677Y0388982D01*
X0300644Y0389033D01*
X0300615Y0389085D01*
X0300588Y0389140D01*
X0300565Y0389195D01*
X0300545Y0389252D01*
X0300529Y0389311D01*
X0300516Y0389370D01*
X0300507Y0389429D01*
X0300502Y0389490D01*
X0300500Y0389550D01*
X0300500Y0391050D01*
X0301000Y0391550D01*
X0301000Y0410550D01*
X0300500Y0411050D01*
X0300500Y0412550D01*
X0300502Y0412610D01*
X0300507Y0412671D01*
X0300516Y0412730D01*
X0300529Y0412789D01*
X0300545Y0412848D01*
X0300565Y0412905D01*
X0300588Y0412960D01*
X0300615Y0413015D01*
X0300644Y0413067D01*
X0300677Y0413118D01*
X0300713Y0413167D01*
X0300751Y0413213D01*
X0300793Y0413257D01*
X0300837Y0413299D01*
X0300883Y0413337D01*
X0300932Y0413373D01*
X0300983Y0413406D01*
X0301035Y0413435D01*
X0301090Y0413462D01*
X0301145Y0413485D01*
X0301202Y0413505D01*
X0301261Y0413521D01*
X0301320Y0413534D01*
X0301379Y0413543D01*
X0301440Y0413548D01*
X0301500Y0413550D01*
X0308500Y0413550D01*
X0308560Y0413548D01*
X0308621Y0413543D01*
X0308680Y0413534D01*
X0308739Y0413521D01*
X0308798Y0413505D01*
X0308855Y0413485D01*
X0308910Y0413462D01*
X0308965Y0413435D01*
X0309017Y0413406D01*
X0309068Y0413373D01*
X0309117Y0413337D01*
X0309163Y0413299D01*
X0309207Y0413257D01*
X0309249Y0413213D01*
X0309287Y0413167D01*
X0309323Y0413118D01*
X0309356Y0413067D01*
X0309385Y0413015D01*
X0309412Y0412960D01*
X0309435Y0412905D01*
X0309455Y0412848D01*
X0309471Y0412789D01*
X0309484Y0412730D01*
X0309493Y0412671D01*
X0309498Y0412610D01*
X0309500Y0412550D01*
X0309500Y0411050D01*
X0309000Y0410550D01*
X0309000Y0391550D01*
X0309500Y0391050D01*
X0309500Y0389550D01*
X0309498Y0389490D01*
X0309493Y0389429D01*
X0309484Y0389370D01*
X0309471Y0389311D01*
X0309455Y0389252D01*
X0309435Y0389195D01*
X0309412Y0389140D01*
X0309385Y0389085D01*
X0309356Y0389033D01*
X0309323Y0388982D01*
X0309287Y0388933D01*
X0309249Y0388887D01*
X0309207Y0388843D01*
X0309163Y0388801D01*
X0309117Y0388763D01*
X0309068Y0388727D01*
X0309017Y0388694D01*
X0308965Y0388665D01*
X0308910Y0388638D01*
X0308855Y0388615D01*
X0308798Y0388595D01*
X0308739Y0388579D01*
X0308680Y0388566D01*
X0308621Y0388557D01*
X0308560Y0388552D01*
X0308500Y0388550D01*
X0265000Y0403050D02*
X0265000Y0419050D01*
X0255000Y0419050D01*
X0255000Y0403050D01*
X0265000Y0403050D01*
X0260000Y0408550D02*
X0260000Y0411050D01*
X0262500Y0411050D01*
X0260000Y0411050D02*
X0257500Y0415050D01*
X0262500Y0415050D01*
X0260000Y0411050D01*
X0257500Y0411050D01*
X0260000Y0411050D02*
X0260000Y0417050D01*
X0405000Y0409050D02*
X0405000Y0393050D01*
X0415000Y0393050D01*
X0415000Y0409050D01*
X0405000Y0409050D01*
X0410000Y0403550D02*
X0410000Y0401050D01*
X0407500Y0401050D01*
X0410000Y0401050D02*
X0412500Y0401050D01*
X0410000Y0401050D02*
X0412500Y0397050D01*
X0407500Y0397050D01*
X0410000Y0401050D01*
X0410000Y0395050D01*
X0440000Y0393050D02*
X0450000Y0393050D01*
X0450000Y0409050D01*
X0440000Y0409050D01*
X0440000Y0393050D01*
X0445000Y0398550D02*
X0445000Y0401050D01*
X0447500Y0401050D01*
X0445000Y0401050D02*
X0442500Y0405050D01*
X0447500Y0405050D01*
X0445000Y0401050D01*
X0442500Y0401050D01*
X0445000Y0401050D02*
X0445000Y0407050D01*
X0470500Y0411050D02*
X0470500Y0412550D01*
X0470502Y0412610D01*
X0470507Y0412671D01*
X0470516Y0412730D01*
X0470529Y0412789D01*
X0470545Y0412848D01*
X0470565Y0412905D01*
X0470588Y0412960D01*
X0470615Y0413015D01*
X0470644Y0413067D01*
X0470677Y0413118D01*
X0470713Y0413167D01*
X0470751Y0413213D01*
X0470793Y0413257D01*
X0470837Y0413299D01*
X0470883Y0413337D01*
X0470932Y0413373D01*
X0470983Y0413406D01*
X0471035Y0413435D01*
X0471090Y0413462D01*
X0471145Y0413485D01*
X0471202Y0413505D01*
X0471261Y0413521D01*
X0471320Y0413534D01*
X0471379Y0413543D01*
X0471440Y0413548D01*
X0471500Y0413550D01*
X0478500Y0413550D01*
X0478560Y0413548D01*
X0478621Y0413543D01*
X0478680Y0413534D01*
X0478739Y0413521D01*
X0478798Y0413505D01*
X0478855Y0413485D01*
X0478910Y0413462D01*
X0478965Y0413435D01*
X0479017Y0413406D01*
X0479068Y0413373D01*
X0479117Y0413337D01*
X0479163Y0413299D01*
X0479207Y0413257D01*
X0479249Y0413213D01*
X0479287Y0413167D01*
X0479323Y0413118D01*
X0479356Y0413067D01*
X0479385Y0413015D01*
X0479412Y0412960D01*
X0479435Y0412905D01*
X0479455Y0412848D01*
X0479471Y0412789D01*
X0479484Y0412730D01*
X0479493Y0412671D01*
X0479498Y0412610D01*
X0479500Y0412550D01*
X0479500Y0411050D01*
X0479000Y0410550D01*
X0479000Y0391550D01*
X0479500Y0391050D01*
X0479500Y0389550D01*
X0479498Y0389490D01*
X0479493Y0389429D01*
X0479484Y0389370D01*
X0479471Y0389311D01*
X0479455Y0389252D01*
X0479435Y0389195D01*
X0479412Y0389140D01*
X0479385Y0389085D01*
X0479356Y0389033D01*
X0479323Y0388982D01*
X0479287Y0388933D01*
X0479249Y0388887D01*
X0479207Y0388843D01*
X0479163Y0388801D01*
X0479117Y0388763D01*
X0479068Y0388727D01*
X0479017Y0388694D01*
X0478965Y0388665D01*
X0478910Y0388638D01*
X0478855Y0388615D01*
X0478798Y0388595D01*
X0478739Y0388579D01*
X0478680Y0388566D01*
X0478621Y0388557D01*
X0478560Y0388552D01*
X0478500Y0388550D01*
X0471500Y0388550D01*
X0471440Y0388552D01*
X0471379Y0388557D01*
X0471320Y0388566D01*
X0471261Y0388579D01*
X0471202Y0388595D01*
X0471145Y0388615D01*
X0471090Y0388638D01*
X0471035Y0388665D01*
X0470983Y0388694D01*
X0470932Y0388727D01*
X0470883Y0388763D01*
X0470837Y0388801D01*
X0470793Y0388843D01*
X0470751Y0388887D01*
X0470713Y0388933D01*
X0470677Y0388982D01*
X0470644Y0389033D01*
X0470615Y0389085D01*
X0470588Y0389140D01*
X0470565Y0389195D01*
X0470545Y0389252D01*
X0470529Y0389311D01*
X0470516Y0389370D01*
X0470507Y0389429D01*
X0470502Y0389490D01*
X0470500Y0389550D01*
X0470500Y0391050D01*
X0471000Y0391550D01*
X0471000Y0410550D01*
X0470500Y0411050D01*
X0507000Y0390425D02*
X0507000Y0370425D01*
X0507002Y0370230D01*
X0507009Y0370035D01*
X0507021Y0369841D01*
X0507038Y0369647D01*
X0507059Y0369453D01*
X0507085Y0369260D01*
X0507116Y0369068D01*
X0507151Y0368876D01*
X0507191Y0368686D01*
X0507236Y0368496D01*
X0507285Y0368307D01*
X0507339Y0368120D01*
X0507398Y0367934D01*
X0507460Y0367750D01*
X0507528Y0367567D01*
X0507600Y0367386D01*
X0507676Y0367207D01*
X0507756Y0367029D01*
X0507841Y0366854D01*
X0507930Y0366681D01*
X0508024Y0366510D01*
X0508121Y0366341D01*
X0508223Y0366175D01*
X0508328Y0366011D01*
X0508437Y0365850D01*
X0508551Y0365691D01*
X0508668Y0365536D01*
X0508789Y0365383D01*
X0508914Y0365233D01*
X0509042Y0365086D01*
X0509174Y0364943D01*
X0509309Y0364803D01*
X0509447Y0364666D01*
X0509589Y0364532D01*
X0509734Y0364402D01*
X0509883Y0364276D01*
X0510034Y0364153D01*
X0510188Y0364034D01*
X0510345Y0363919D01*
X0510505Y0363807D01*
X0510667Y0363700D01*
X0510832Y0363596D01*
X0511000Y0363497D01*
X0511170Y0363401D01*
X0511342Y0363310D01*
X0511516Y0363223D01*
X0511693Y0363141D01*
X0511871Y0363062D01*
X0512051Y0362988D01*
X0512233Y0362919D01*
X0512417Y0362853D01*
X0512602Y0362793D01*
X0512789Y0362737D01*
X0512977Y0362685D01*
X0513166Y0362638D01*
X0513356Y0362596D01*
X0513547Y0362558D01*
X0513739Y0362525D01*
X0513932Y0362497D01*
X0514125Y0362473D01*
X0514319Y0362454D01*
X0514513Y0362440D01*
X0514708Y0362430D01*
X0514903Y0362426D01*
X0515097Y0362426D01*
X0515292Y0362430D01*
X0515487Y0362440D01*
X0515681Y0362454D01*
X0515875Y0362473D01*
X0516068Y0362497D01*
X0516261Y0362525D01*
X0516453Y0362558D01*
X0516644Y0362596D01*
X0516834Y0362638D01*
X0517023Y0362685D01*
X0517211Y0362737D01*
X0517398Y0362793D01*
X0517583Y0362853D01*
X0517767Y0362919D01*
X0517949Y0362988D01*
X0518129Y0363062D01*
X0518307Y0363141D01*
X0518484Y0363223D01*
X0518658Y0363310D01*
X0518830Y0363401D01*
X0519000Y0363497D01*
X0519168Y0363596D01*
X0519333Y0363700D01*
X0519495Y0363807D01*
X0519655Y0363919D01*
X0519812Y0364034D01*
X0519966Y0364153D01*
X0520117Y0364276D01*
X0520266Y0364402D01*
X0520411Y0364532D01*
X0520553Y0364666D01*
X0520691Y0364803D01*
X0520826Y0364943D01*
X0520958Y0365086D01*
X0521086Y0365233D01*
X0521211Y0365383D01*
X0521332Y0365536D01*
X0521449Y0365691D01*
X0521563Y0365850D01*
X0521672Y0366011D01*
X0521777Y0366175D01*
X0521879Y0366341D01*
X0521976Y0366510D01*
X0522070Y0366681D01*
X0522159Y0366854D01*
X0522244Y0367029D01*
X0522324Y0367207D01*
X0522400Y0367386D01*
X0522472Y0367567D01*
X0522540Y0367750D01*
X0522602Y0367934D01*
X0522661Y0368120D01*
X0522715Y0368307D01*
X0522764Y0368496D01*
X0522809Y0368686D01*
X0522849Y0368876D01*
X0522884Y0369068D01*
X0522915Y0369260D01*
X0522941Y0369453D01*
X0522962Y0369647D01*
X0522979Y0369841D01*
X0522991Y0370035D01*
X0522998Y0370230D01*
X0523000Y0370425D01*
X0523000Y0390425D01*
X0522998Y0390620D01*
X0522991Y0390815D01*
X0522979Y0391009D01*
X0522962Y0391203D01*
X0522941Y0391397D01*
X0522915Y0391590D01*
X0522884Y0391782D01*
X0522849Y0391974D01*
X0522809Y0392164D01*
X0522764Y0392354D01*
X0522715Y0392543D01*
X0522661Y0392730D01*
X0522602Y0392916D01*
X0522540Y0393100D01*
X0522472Y0393283D01*
X0522400Y0393464D01*
X0522324Y0393643D01*
X0522244Y0393821D01*
X0522159Y0393996D01*
X0522070Y0394169D01*
X0521976Y0394340D01*
X0521879Y0394509D01*
X0521777Y0394675D01*
X0521672Y0394839D01*
X0521563Y0395000D01*
X0521449Y0395159D01*
X0521332Y0395314D01*
X0521211Y0395467D01*
X0521086Y0395617D01*
X0520958Y0395764D01*
X0520826Y0395907D01*
X0520691Y0396047D01*
X0520553Y0396184D01*
X0520411Y0396318D01*
X0520266Y0396448D01*
X0520117Y0396574D01*
X0519966Y0396697D01*
X0519812Y0396816D01*
X0519655Y0396931D01*
X0519495Y0397043D01*
X0519333Y0397150D01*
X0519168Y0397254D01*
X0519000Y0397353D01*
X0518830Y0397449D01*
X0518658Y0397540D01*
X0518484Y0397627D01*
X0518307Y0397709D01*
X0518129Y0397788D01*
X0517949Y0397862D01*
X0517767Y0397931D01*
X0517583Y0397997D01*
X0517398Y0398057D01*
X0517211Y0398113D01*
X0517023Y0398165D01*
X0516834Y0398212D01*
X0516644Y0398254D01*
X0516453Y0398292D01*
X0516261Y0398325D01*
X0516068Y0398353D01*
X0515875Y0398377D01*
X0515681Y0398396D01*
X0515487Y0398410D01*
X0515292Y0398420D01*
X0515097Y0398424D01*
X0514903Y0398424D01*
X0514708Y0398420D01*
X0514513Y0398410D01*
X0514319Y0398396D01*
X0514125Y0398377D01*
X0513932Y0398353D01*
X0513739Y0398325D01*
X0513547Y0398292D01*
X0513356Y0398254D01*
X0513166Y0398212D01*
X0512977Y0398165D01*
X0512789Y0398113D01*
X0512602Y0398057D01*
X0512417Y0397997D01*
X0512233Y0397931D01*
X0512051Y0397862D01*
X0511871Y0397788D01*
X0511693Y0397709D01*
X0511516Y0397627D01*
X0511342Y0397540D01*
X0511170Y0397449D01*
X0511000Y0397353D01*
X0510832Y0397254D01*
X0510667Y0397150D01*
X0510505Y0397043D01*
X0510345Y0396931D01*
X0510188Y0396816D01*
X0510034Y0396697D01*
X0509883Y0396574D01*
X0509734Y0396448D01*
X0509589Y0396318D01*
X0509447Y0396184D01*
X0509309Y0396047D01*
X0509174Y0395907D01*
X0509042Y0395764D01*
X0508914Y0395617D01*
X0508789Y0395467D01*
X0508668Y0395314D01*
X0508551Y0395159D01*
X0508437Y0395000D01*
X0508328Y0394839D01*
X0508223Y0394675D01*
X0508121Y0394509D01*
X0508024Y0394340D01*
X0507930Y0394169D01*
X0507841Y0393996D01*
X0507756Y0393821D01*
X0507676Y0393643D01*
X0507600Y0393464D01*
X0507528Y0393283D01*
X0507460Y0393100D01*
X0507398Y0392916D01*
X0507339Y0392730D01*
X0507285Y0392543D01*
X0507236Y0392354D01*
X0507191Y0392164D01*
X0507151Y0391974D01*
X0507116Y0391782D01*
X0507085Y0391590D01*
X0507059Y0391397D01*
X0507038Y0391203D01*
X0507021Y0391009D01*
X0507009Y0390815D01*
X0507002Y0390620D01*
X0507000Y0390425D01*
X0535000Y0378425D02*
X0535000Y0362425D01*
X0545000Y0362425D01*
X0545000Y0378425D01*
X0535000Y0378425D01*
X0537500Y0374425D02*
X0540000Y0370425D01*
X0542500Y0370425D01*
X0540000Y0370425D02*
X0537500Y0370425D01*
X0540000Y0370425D02*
X0542500Y0374425D01*
X0537500Y0374425D01*
X0540000Y0376425D02*
X0540000Y0370425D01*
X0540000Y0367925D01*
X0513000Y0335050D02*
X0513000Y0315050D01*
X0512998Y0314855D01*
X0512991Y0314660D01*
X0512979Y0314466D01*
X0512962Y0314272D01*
X0512941Y0314078D01*
X0512915Y0313885D01*
X0512884Y0313693D01*
X0512849Y0313501D01*
X0512809Y0313311D01*
X0512764Y0313121D01*
X0512715Y0312932D01*
X0512661Y0312745D01*
X0512602Y0312559D01*
X0512540Y0312375D01*
X0512472Y0312192D01*
X0512400Y0312011D01*
X0512324Y0311832D01*
X0512244Y0311654D01*
X0512159Y0311479D01*
X0512070Y0311306D01*
X0511976Y0311135D01*
X0511879Y0310966D01*
X0511777Y0310800D01*
X0511672Y0310636D01*
X0511563Y0310475D01*
X0511449Y0310316D01*
X0511332Y0310161D01*
X0511211Y0310008D01*
X0511086Y0309858D01*
X0510958Y0309711D01*
X0510826Y0309568D01*
X0510691Y0309428D01*
X0510553Y0309291D01*
X0510411Y0309157D01*
X0510266Y0309027D01*
X0510117Y0308901D01*
X0509966Y0308778D01*
X0509812Y0308659D01*
X0509655Y0308544D01*
X0509495Y0308432D01*
X0509333Y0308325D01*
X0509168Y0308221D01*
X0509000Y0308122D01*
X0508830Y0308026D01*
X0508658Y0307935D01*
X0508484Y0307848D01*
X0508307Y0307766D01*
X0508129Y0307687D01*
X0507949Y0307613D01*
X0507767Y0307544D01*
X0507583Y0307478D01*
X0507398Y0307418D01*
X0507211Y0307362D01*
X0507023Y0307310D01*
X0506834Y0307263D01*
X0506644Y0307221D01*
X0506453Y0307183D01*
X0506261Y0307150D01*
X0506068Y0307122D01*
X0505875Y0307098D01*
X0505681Y0307079D01*
X0505487Y0307065D01*
X0505292Y0307055D01*
X0505097Y0307051D01*
X0504903Y0307051D01*
X0504708Y0307055D01*
X0504513Y0307065D01*
X0504319Y0307079D01*
X0504125Y0307098D01*
X0503932Y0307122D01*
X0503739Y0307150D01*
X0503547Y0307183D01*
X0503356Y0307221D01*
X0503166Y0307263D01*
X0502977Y0307310D01*
X0502789Y0307362D01*
X0502602Y0307418D01*
X0502417Y0307478D01*
X0502233Y0307544D01*
X0502051Y0307613D01*
X0501871Y0307687D01*
X0501693Y0307766D01*
X0501516Y0307848D01*
X0501342Y0307935D01*
X0501170Y0308026D01*
X0501000Y0308122D01*
X0500832Y0308221D01*
X0500667Y0308325D01*
X0500505Y0308432D01*
X0500345Y0308544D01*
X0500188Y0308659D01*
X0500034Y0308778D01*
X0499883Y0308901D01*
X0499734Y0309027D01*
X0499589Y0309157D01*
X0499447Y0309291D01*
X0499309Y0309428D01*
X0499174Y0309568D01*
X0499042Y0309711D01*
X0498914Y0309858D01*
X0498789Y0310008D01*
X0498668Y0310161D01*
X0498551Y0310316D01*
X0498437Y0310475D01*
X0498328Y0310636D01*
X0498223Y0310800D01*
X0498121Y0310966D01*
X0498024Y0311135D01*
X0497930Y0311306D01*
X0497841Y0311479D01*
X0497756Y0311654D01*
X0497676Y0311832D01*
X0497600Y0312011D01*
X0497528Y0312192D01*
X0497460Y0312375D01*
X0497398Y0312559D01*
X0497339Y0312745D01*
X0497285Y0312932D01*
X0497236Y0313121D01*
X0497191Y0313311D01*
X0497151Y0313501D01*
X0497116Y0313693D01*
X0497085Y0313885D01*
X0497059Y0314078D01*
X0497038Y0314272D01*
X0497021Y0314466D01*
X0497009Y0314660D01*
X0497002Y0314855D01*
X0497000Y0315050D01*
X0497000Y0335050D01*
X0497002Y0335245D01*
X0497009Y0335440D01*
X0497021Y0335634D01*
X0497038Y0335828D01*
X0497059Y0336022D01*
X0497085Y0336215D01*
X0497116Y0336407D01*
X0497151Y0336599D01*
X0497191Y0336789D01*
X0497236Y0336979D01*
X0497285Y0337168D01*
X0497339Y0337355D01*
X0497398Y0337541D01*
X0497460Y0337725D01*
X0497528Y0337908D01*
X0497600Y0338089D01*
X0497676Y0338268D01*
X0497756Y0338446D01*
X0497841Y0338621D01*
X0497930Y0338794D01*
X0498024Y0338965D01*
X0498121Y0339134D01*
X0498223Y0339300D01*
X0498328Y0339464D01*
X0498437Y0339625D01*
X0498551Y0339784D01*
X0498668Y0339939D01*
X0498789Y0340092D01*
X0498914Y0340242D01*
X0499042Y0340389D01*
X0499174Y0340532D01*
X0499309Y0340672D01*
X0499447Y0340809D01*
X0499589Y0340943D01*
X0499734Y0341073D01*
X0499883Y0341199D01*
X0500034Y0341322D01*
X0500188Y0341441D01*
X0500345Y0341556D01*
X0500505Y0341668D01*
X0500667Y0341775D01*
X0500832Y0341879D01*
X0501000Y0341978D01*
X0501170Y0342074D01*
X0501342Y0342165D01*
X0501516Y0342252D01*
X0501693Y0342334D01*
X0501871Y0342413D01*
X0502051Y0342487D01*
X0502233Y0342556D01*
X0502417Y0342622D01*
X0502602Y0342682D01*
X0502789Y0342738D01*
X0502977Y0342790D01*
X0503166Y0342837D01*
X0503356Y0342879D01*
X0503547Y0342917D01*
X0503739Y0342950D01*
X0503932Y0342978D01*
X0504125Y0343002D01*
X0504319Y0343021D01*
X0504513Y0343035D01*
X0504708Y0343045D01*
X0504903Y0343049D01*
X0505097Y0343049D01*
X0505292Y0343045D01*
X0505487Y0343035D01*
X0505681Y0343021D01*
X0505875Y0343002D01*
X0506068Y0342978D01*
X0506261Y0342950D01*
X0506453Y0342917D01*
X0506644Y0342879D01*
X0506834Y0342837D01*
X0507023Y0342790D01*
X0507211Y0342738D01*
X0507398Y0342682D01*
X0507583Y0342622D01*
X0507767Y0342556D01*
X0507949Y0342487D01*
X0508129Y0342413D01*
X0508307Y0342334D01*
X0508484Y0342252D01*
X0508658Y0342165D01*
X0508830Y0342074D01*
X0509000Y0341978D01*
X0509168Y0341879D01*
X0509333Y0341775D01*
X0509495Y0341668D01*
X0509655Y0341556D01*
X0509812Y0341441D01*
X0509966Y0341322D01*
X0510117Y0341199D01*
X0510266Y0341073D01*
X0510411Y0340943D01*
X0510553Y0340809D01*
X0510691Y0340672D01*
X0510826Y0340532D01*
X0510958Y0340389D01*
X0511086Y0340242D01*
X0511211Y0340092D01*
X0511332Y0339939D01*
X0511449Y0339784D01*
X0511563Y0339625D01*
X0511672Y0339464D01*
X0511777Y0339300D01*
X0511879Y0339134D01*
X0511976Y0338965D01*
X0512070Y0338794D01*
X0512159Y0338621D01*
X0512244Y0338446D01*
X0512324Y0338268D01*
X0512400Y0338089D01*
X0512472Y0337908D01*
X0512540Y0337725D01*
X0512602Y0337541D01*
X0512661Y0337355D01*
X0512715Y0337168D01*
X0512764Y0336979D01*
X0512809Y0336789D01*
X0512849Y0336599D01*
X0512884Y0336407D01*
X0512915Y0336215D01*
X0512941Y0336022D01*
X0512962Y0335828D01*
X0512979Y0335634D01*
X0512991Y0335440D01*
X0512998Y0335245D01*
X0513000Y0335050D01*
X0478000Y0236050D02*
X0462000Y0236050D01*
X0462000Y0226050D01*
X0478000Y0226050D01*
X0478000Y0236050D01*
X0472500Y0231050D02*
X0470000Y0231050D01*
X0470000Y0233550D01*
X0470000Y0231050D02*
X0470000Y0228550D01*
X0470000Y0231050D02*
X0466000Y0228550D01*
X0466000Y0233550D01*
X0470000Y0231050D01*
X0464000Y0231050D01*
X0564540Y0068500D02*
X0553280Y0062000D01*
X0549380Y0064250D01*
X0549285Y0064302D01*
X0549189Y0064351D01*
X0549090Y0064397D01*
X0548990Y0064439D01*
X0548889Y0064477D01*
X0548786Y0064512D01*
X0548683Y0064543D01*
X0548578Y0064570D01*
X0548472Y0064593D01*
X0548365Y0064612D01*
X0548258Y0064628D01*
X0548150Y0064640D01*
X0548042Y0064648D01*
X0547934Y0064652D01*
X0547826Y0064652D01*
X0547718Y0064648D01*
X0547610Y0064640D01*
X0547502Y0064628D01*
X0547395Y0064612D01*
X0547288Y0064593D01*
X0547182Y0064570D01*
X0547077Y0064543D01*
X0546974Y0064512D01*
X0546871Y0064477D01*
X0546770Y0064439D01*
X0546670Y0064397D01*
X0546571Y0064351D01*
X0546475Y0064302D01*
X0546380Y0064250D01*
X0529060Y0054250D01*
X0528960Y0054190D01*
X0528862Y0054126D01*
X0528766Y0054060D01*
X0528672Y0053990D01*
X0528580Y0053917D01*
X0528492Y0053841D01*
X0528405Y0053762D01*
X0528322Y0053680D01*
X0528241Y0053595D01*
X0528163Y0053508D01*
X0528088Y0053419D01*
X0528016Y0053326D01*
X0527947Y0053232D01*
X0527882Y0053135D01*
X0527819Y0053036D01*
X0527760Y0052935D01*
X0527705Y0052832D01*
X0527652Y0052728D01*
X0527604Y0052621D01*
X0527559Y0052513D01*
X0527517Y0052404D01*
X0527480Y0052293D01*
X0527446Y0052181D01*
X0527415Y0052068D01*
X0527389Y0051955D01*
X0527366Y0051840D01*
X0527348Y0051724D01*
X0527333Y0051608D01*
X0527322Y0051492D01*
X0527314Y0051375D01*
X0527311Y0051258D01*
X0527312Y0051142D01*
X0527316Y0051025D01*
X0527325Y0050908D01*
X0527337Y0050792D01*
X0527354Y0050676D01*
X0527374Y0050561D01*
X0527398Y0050446D01*
X0527425Y0050333D01*
X0527457Y0050220D01*
X0527492Y0050109D01*
X0527531Y0049998D01*
X0527574Y0049889D01*
X0527620Y0049782D01*
X0527670Y0049676D01*
X0527723Y0049572D01*
X0527780Y0049470D01*
X0527840Y0049370D01*
X0527904Y0049272D01*
X0527970Y0049176D01*
X0528040Y0049082D01*
X0528113Y0048990D01*
X0528189Y0048902D01*
X0528268Y0048815D01*
X0528350Y0048732D01*
X0528435Y0048651D01*
X0528522Y0048573D01*
X0528611Y0048498D01*
X0528704Y0048426D01*
X0528798Y0048357D01*
X0528895Y0048292D01*
X0528994Y0048229D01*
X0529095Y0048170D01*
X0529198Y0048115D01*
X0529302Y0048062D01*
X0529409Y0048014D01*
X0529517Y0047969D01*
X0529626Y0047927D01*
X0529737Y0047890D01*
X0529849Y0047856D01*
X0529962Y0047825D01*
X0530075Y0047799D01*
X0530190Y0047776D01*
X0530306Y0047758D01*
X0530422Y0047743D01*
X0530538Y0047732D01*
X0530655Y0047724D01*
X0530772Y0047721D01*
X0530889Y0047722D01*
X0531005Y0047726D01*
X0531122Y0047735D01*
X0531238Y0047747D01*
X0531354Y0047764D01*
X0531469Y0047784D01*
X0531584Y0047808D01*
X0531697Y0047835D01*
X0531810Y0047867D01*
X0531921Y0047902D01*
X0532032Y0047941D01*
X0532141Y0047984D01*
X0532248Y0048030D01*
X0532354Y0048080D01*
X0532458Y0048133D01*
X0532560Y0048190D01*
X0540360Y0052690D01*
X0558030Y0049630D01*
X0563340Y0046570D01*
X0560680Y0041720D01*
X0546540Y0043760D01*
X0546790Y0038490D02*
X0558030Y0036870D01*
X0555380Y0032020D01*
X0552340Y0032460D01*
X0550270Y0032360D02*
X0545300Y0026090D01*
X0545248Y0026004D01*
X0545193Y0025919D01*
X0545134Y0025837D01*
X0545073Y0025757D01*
X0545008Y0025680D01*
X0544940Y0025605D01*
X0544870Y0025533D01*
X0544797Y0025463D01*
X0544721Y0025397D01*
X0544643Y0025333D01*
X0544563Y0025272D01*
X0544480Y0025215D01*
X0544395Y0025161D01*
X0544308Y0025110D01*
X0544219Y0025062D01*
X0544128Y0025018D01*
X0544036Y0024977D01*
X0543942Y0024940D01*
X0543847Y0024907D01*
X0543751Y0024877D01*
X0543653Y0024851D01*
X0543555Y0024829D01*
X0543456Y0024811D01*
X0543356Y0024796D01*
X0543256Y0024785D01*
X0543155Y0024778D01*
X0543055Y0024775D01*
X0542954Y0024776D01*
X0542853Y0024781D01*
X0542753Y0024789D01*
X0542652Y0024802D01*
X0542553Y0024818D01*
X0542454Y0024838D01*
X0542356Y0024862D01*
X0542259Y0024889D01*
X0542163Y0024920D01*
X0542069Y0024955D01*
X0541976Y0024994D01*
X0541884Y0025036D01*
X0541794Y0025082D01*
X0541706Y0025130D01*
X0541620Y0025183D01*
X0541536Y0025238D01*
X0541454Y0025297D01*
X0541374Y0025359D01*
X0541297Y0025424D01*
X0541222Y0025492D01*
X0541150Y0025562D01*
X0541081Y0025636D01*
X0541015Y0025712D01*
X0540952Y0025790D01*
X0540891Y0025871D01*
X0540834Y0025954D01*
X0540780Y0026039D01*
X0540730Y0026126D01*
X0540682Y0026216D01*
X0540639Y0026306D01*
X0540598Y0026399D01*
X0540562Y0026493D01*
X0540529Y0026588D01*
X0540499Y0026684D01*
X0540474Y0026782D01*
X0540452Y0026880D01*
X0539800Y0026090D02*
X0546940Y0035100D01*
X0547474Y0036418D02*
X0547571Y0036446D01*
X0547669Y0036471D01*
X0547768Y0036492D01*
X0547867Y0036508D01*
X0547968Y0036521D01*
X0548068Y0036531D01*
X0548169Y0036536D01*
X0548270Y0036537D01*
X0548371Y0036534D01*
X0548472Y0036527D01*
X0548572Y0036517D01*
X0548672Y0036502D01*
X0548771Y0036484D01*
X0548869Y0036461D01*
X0548967Y0036435D01*
X0549063Y0036405D01*
X0549159Y0036372D01*
X0549252Y0036334D01*
X0549344Y0036293D01*
X0549435Y0036248D01*
X0549524Y0036200D01*
X0549610Y0036149D01*
X0549695Y0036094D01*
X0549778Y0036035D01*
X0549858Y0035974D01*
X0549935Y0035909D01*
X0550010Y0035842D01*
X0550083Y0035772D01*
X0550152Y0035698D01*
X0550219Y0035623D01*
X0550283Y0035544D01*
X0550343Y0035463D01*
X0550400Y0035380D01*
X0550454Y0035295D01*
X0550505Y0035208D01*
X0550552Y0035118D01*
X0550596Y0035027D01*
X0550636Y0034935D01*
X0550672Y0034840D01*
X0550705Y0034745D01*
X0550733Y0034648D01*
X0550758Y0034550D01*
X0550780Y0034452D01*
X0550797Y0034352D01*
X0550810Y0034252D01*
X0550820Y0034152D01*
X0550825Y0034051D01*
X0550827Y0033950D01*
X0550825Y0033849D01*
X0550818Y0033748D01*
X0550808Y0033648D01*
X0550794Y0033548D01*
X0550776Y0033449D01*
X0550754Y0033350D01*
X0550728Y0033252D01*
X0550698Y0033156D01*
X0550665Y0033061D01*
X0550628Y0032967D01*
X0550587Y0032874D01*
X0550543Y0032784D01*
X0550495Y0032695D01*
X0550444Y0032608D01*
X0550389Y0032523D01*
X0550331Y0032440D01*
X0550270Y0032360D01*
X0550571Y0032824D02*
X0550664Y0032841D01*
X0550758Y0032854D01*
X0550853Y0032863D01*
X0550947Y0032868D01*
X0551042Y0032869D01*
X0551137Y0032866D01*
X0551231Y0032859D01*
X0551325Y0032848D01*
X0551419Y0032833D01*
X0551512Y0032815D01*
X0551604Y0032792D01*
X0551695Y0032765D01*
X0551784Y0032735D01*
X0551873Y0032701D01*
X0551960Y0032663D01*
X0552045Y0032622D01*
X0552128Y0032577D01*
X0552210Y0032528D01*
X0552289Y0032477D01*
X0552366Y0032422D01*
X0552441Y0032363D01*
X0552513Y0032302D01*
X0552583Y0032237D01*
X0552649Y0032170D01*
X0552713Y0032100D01*
X0552774Y0032028D01*
X0552832Y0031952D01*
X0552886Y0031875D01*
X0552938Y0031795D01*
X0552985Y0031713D01*
X0553030Y0031630D01*
X0553070Y0031544D01*
X0553107Y0031457D01*
X0553141Y0031368D01*
X0553170Y0031278D01*
X0553196Y0031187D01*
X0553218Y0031095D01*
X0553236Y0031002D01*
X0553250Y0030908D01*
X0553261Y0030814D01*
X0553267Y0030720D01*
X0553269Y0030625D01*
X0553267Y0030530D01*
X0553261Y0030436D01*
X0553252Y0030341D01*
X0553238Y0030248D01*
X0553220Y0030154D01*
X0553199Y0030062D01*
X0553173Y0029971D01*
X0553144Y0029881D01*
X0553111Y0029792D01*
X0553074Y0029705D01*
X0553034Y0029619D01*
X0552990Y0029535D01*
X0552943Y0029453D01*
X0552892Y0029373D01*
X0552837Y0029295D01*
X0552780Y0029220D01*
X0550300Y0026090D01*
X0551260Y0027300D02*
X0552730Y0027170D01*
X0555380Y0032020D01*
X0558030Y0036870D02*
X0560680Y0041720D01*
X0563340Y0046570D02*
X0545660Y0049630D01*
X0529750Y0040440D01*
X0529750Y0029210D01*
X0525810Y0031490D01*
X0525780Y0031420D02*
X0525880Y0031760D01*
X0525910Y0032120D01*
X0525910Y0039470D01*
X0525850Y0039880D01*
X0525680Y0040280D01*
X0525420Y0040660D01*
X0525070Y0041020D01*
X0524630Y0041350D01*
X0524120Y0041640D01*
X0523540Y0041880D01*
X0522900Y0042070D01*
X0522230Y0042210D01*
X0521520Y0042290D01*
X0520810Y0042310D01*
X0520100Y0042270D01*
X0519400Y0042170D01*
X0518740Y0042020D01*
X0518120Y0041820D01*
X0517550Y0041560D01*
X0517060Y0041260D01*
X0516640Y0040930D01*
X0516310Y0040560D01*
X0516080Y0040170D01*
X0518440Y0039650D02*
X0518410Y0039350D01*
X0518500Y0039050D01*
X0518680Y0038770D01*
X0518970Y0038510D01*
X0519340Y0038300D01*
X0519770Y0038140D01*
X0520260Y0038030D01*
X0520780Y0037980D01*
X0521300Y0038000D01*
X0521810Y0038070D01*
X0522270Y0038210D01*
X0522680Y0038400D01*
X0523010Y0038640D01*
X0523240Y0038900D01*
X0523380Y0039200D01*
X0523410Y0039500D01*
X0523320Y0039790D01*
X0523140Y0040080D01*
X0522850Y0040330D01*
X0522480Y0040540D01*
X0522040Y0040710D01*
X0521560Y0040820D01*
X0521040Y0040860D01*
X0520520Y0040850D01*
X0520010Y0040770D01*
X0519550Y0040630D01*
X0519140Y0040440D01*
X0518810Y0040210D01*
X0518580Y0039940D01*
X0518440Y0039650D01*
X0519140Y0042120D02*
X0519140Y0046570D01*
X0529750Y0040440D01*
X0525910Y0039470D02*
X0525880Y0039080D01*
X0525760Y0038710D01*
X0525550Y0038350D01*
X0525260Y0038000D01*
X0524900Y0037680D01*
X0524470Y0037390D01*
X0523970Y0037140D01*
X0523420Y0036930D01*
X0522830Y0036760D01*
X0522200Y0036630D01*
X0522680Y0036360D02*
X0515610Y0032280D01*
X0515610Y0021050D01*
X0522680Y0025130D01*
X0522680Y0029370D01*
X0523240Y0029520D01*
X0523760Y0029700D01*
X0524240Y0029920D01*
X0524670Y0030170D01*
X0525050Y0030450D01*
X0525360Y0030750D01*
X0525600Y0031080D01*
X0525780Y0031420D01*
X0524670Y0032620D02*
X0525050Y0032900D01*
X0525360Y0033200D01*
X0525600Y0033530D01*
X0525780Y0033870D01*
X0525880Y0034210D01*
X0525910Y0034570D01*
X0525050Y0035350D02*
X0525360Y0035650D01*
X0525600Y0035980D01*
X0525780Y0036310D01*
X0525880Y0036660D01*
X0525910Y0037020D01*
X0525050Y0035350D02*
X0524670Y0035070D01*
X0524240Y0034820D01*
X0523760Y0034600D01*
X0523240Y0034420D01*
X0522680Y0034270D01*
X0522680Y0036360D01*
X0512070Y0042480D01*
X0505000Y0038400D01*
X0515610Y0032280D01*
X0522680Y0031820D02*
X0522680Y0029370D01*
X0522680Y0031820D02*
X0523240Y0031970D01*
X0523760Y0032150D01*
X0524240Y0032370D01*
X0524670Y0032620D01*
X0522680Y0031820D02*
X0522680Y0034270D01*
X0529800Y0029200D02*
X0537410Y0038800D01*
X0537474Y0038877D01*
X0537540Y0038951D01*
X0537609Y0039023D01*
X0537681Y0039092D01*
X0537756Y0039158D01*
X0537833Y0039222D01*
X0537913Y0039282D01*
X0537995Y0039339D01*
X0538079Y0039393D01*
X0538165Y0039443D01*
X0538253Y0039490D01*
X0538342Y0039534D01*
X0538434Y0039574D01*
X0538527Y0039611D01*
X0538621Y0039644D01*
X0538716Y0039673D01*
X0538813Y0039699D01*
X0538910Y0039721D01*
X0539008Y0039739D01*
X0539107Y0039753D01*
X0539206Y0039764D01*
X0539306Y0039770D01*
X0539405Y0039773D01*
X0539505Y0039772D01*
X0539605Y0039767D01*
X0539704Y0039758D01*
X0539803Y0039745D01*
X0539902Y0039728D01*
X0539999Y0039708D01*
X0540096Y0039684D01*
X0540192Y0039656D01*
X0540287Y0039624D01*
X0540380Y0039589D01*
X0540472Y0039550D01*
X0540562Y0039508D01*
X0540651Y0039462D01*
X0540738Y0039413D01*
X0540822Y0039360D01*
X0540905Y0039305D01*
X0540986Y0039246D01*
X0541064Y0039184D01*
X0541139Y0039119D01*
X0541213Y0039051D01*
X0541283Y0038980D01*
X0541351Y0038907D01*
X0541415Y0038831D01*
X0541477Y0038752D01*
X0541536Y0038671D01*
X0541591Y0038589D01*
X0541643Y0038503D01*
X0541692Y0038416D01*
X0541738Y0038328D01*
X0541780Y0038237D01*
X0541818Y0038145D01*
X0541853Y0038052D01*
X0541884Y0037957D01*
X0541912Y0037861D01*
X0541935Y0037764D01*
X0541955Y0037666D01*
X0541972Y0037568D01*
X0541984Y0037469D01*
X0541992Y0037369D01*
X0541997Y0037270D01*
X0541998Y0037170D01*
X0541995Y0037070D01*
X0541988Y0036970D01*
X0541977Y0036871D01*
X0541962Y0036773D01*
X0541944Y0036675D01*
X0541921Y0036577D01*
X0541895Y0036481D01*
X0541866Y0036386D01*
X0541832Y0036292D01*
X0541795Y0036199D01*
X0541755Y0036108D01*
X0541711Y0036018D01*
X0541663Y0035931D01*
X0541612Y0035845D01*
X0541558Y0035761D01*
X0541501Y0035679D01*
X0541440Y0035600D01*
X0534300Y0026590D01*
X0534901Y0027340D02*
X0534905Y0027238D01*
X0534913Y0027137D01*
X0534925Y0027036D01*
X0534941Y0026935D01*
X0534961Y0026836D01*
X0534985Y0026737D01*
X0535013Y0026639D01*
X0535044Y0026542D01*
X0535079Y0026447D01*
X0535118Y0026353D01*
X0535160Y0026260D01*
X0535206Y0026169D01*
X0535256Y0026080D01*
X0535309Y0025994D01*
X0535365Y0025909D01*
X0535424Y0025826D01*
X0535487Y0025746D01*
X0535552Y0025668D01*
X0535621Y0025593D01*
X0535692Y0025521D01*
X0535766Y0025451D01*
X0535843Y0025384D01*
X0535923Y0025321D01*
X0536004Y0025260D01*
X0536088Y0025203D01*
X0536175Y0025149D01*
X0536263Y0025098D01*
X0536353Y0025051D01*
X0536445Y0025008D01*
X0536538Y0024968D01*
X0536633Y0024931D01*
X0536730Y0024898D01*
X0536827Y0024869D01*
X0536926Y0024844D01*
X0537025Y0024823D01*
X0537125Y0024806D01*
X0537226Y0024792D01*
X0537327Y0024782D01*
X0537429Y0024777D01*
X0537531Y0024775D01*
X0537632Y0024777D01*
X0537734Y0024783D01*
X0537835Y0024793D01*
X0537936Y0024807D01*
X0538036Y0024825D01*
X0538135Y0024847D01*
X0538234Y0024872D01*
X0538331Y0024902D01*
X0538427Y0024935D01*
X0538522Y0024972D01*
X0538615Y0025012D01*
X0538707Y0025056D01*
X0538797Y0025104D01*
X0538885Y0025155D01*
X0538971Y0025209D01*
X0539055Y0025267D01*
X0539136Y0025328D01*
X0539215Y0025392D01*
X0539292Y0025459D01*
X0539366Y0025529D01*
X0539437Y0025601D01*
X0539505Y0025677D01*
X0539570Y0025755D01*
X0539633Y0025835D01*
X0539692Y0025918D01*
X0539747Y0026003D01*
X0539800Y0026090D01*
X0546102Y0027100D02*
X0546109Y0027007D01*
X0546119Y0026915D01*
X0546133Y0026822D01*
X0546152Y0026731D01*
X0546174Y0026640D01*
X0546199Y0026551D01*
X0546229Y0026462D01*
X0546262Y0026375D01*
X0546298Y0026289D01*
X0546338Y0026205D01*
X0546382Y0026123D01*
X0546429Y0026042D01*
X0546479Y0025964D01*
X0546532Y0025887D01*
X0546589Y0025813D01*
X0546648Y0025742D01*
X0546711Y0025672D01*
X0546776Y0025606D01*
X0546844Y0025542D01*
X0546914Y0025481D01*
X0546987Y0025423D01*
X0547063Y0025368D01*
X0547140Y0025317D01*
X0547220Y0025268D01*
X0547301Y0025223D01*
X0547385Y0025181D01*
X0547470Y0025143D01*
X0547556Y0025109D01*
X0547644Y0025078D01*
X0547733Y0025050D01*
X0547823Y0025026D01*
X0547914Y0025007D01*
X0548006Y0024990D01*
X0548099Y0024978D01*
X0548191Y0024970D01*
X0548285Y0024965D01*
X0548378Y0024964D01*
X0548471Y0024967D01*
X0548564Y0024974D01*
X0548656Y0024985D01*
X0548748Y0025000D01*
X0548840Y0025018D01*
X0548930Y0025040D01*
X0549020Y0025066D01*
X0549108Y0025096D01*
X0549195Y0025129D01*
X0549281Y0025166D01*
X0549365Y0025206D01*
X0549447Y0025250D01*
X0549528Y0025297D01*
X0549606Y0025347D01*
X0549682Y0025401D01*
X0549756Y0025457D01*
X0549828Y0025517D01*
X0549897Y0025580D01*
X0549963Y0025645D01*
X0550027Y0025713D01*
X0550088Y0025784D01*
X0550145Y0025857D01*
X0550200Y0025933D01*
X0550252Y0026010D01*
X0550300Y0026090D01*
X0546940Y0035100D02*
X0547001Y0035179D01*
X0547058Y0035261D01*
X0547112Y0035345D01*
X0547163Y0035431D01*
X0547211Y0035518D01*
X0547255Y0035608D01*
X0547295Y0035699D01*
X0547332Y0035792D01*
X0547366Y0035886D01*
X0547395Y0035981D01*
X0547421Y0036077D01*
X0547444Y0036175D01*
X0547462Y0036273D01*
X0547477Y0036371D01*
X0547488Y0036470D01*
X0547495Y0036570D01*
X0547498Y0036670D01*
X0547497Y0036770D01*
X0547492Y0036869D01*
X0547484Y0036969D01*
X0547472Y0037068D01*
X0547455Y0037166D01*
X0547435Y0037264D01*
X0547412Y0037361D01*
X0547384Y0037457D01*
X0547353Y0037552D01*
X0547318Y0037645D01*
X0547280Y0037737D01*
X0547238Y0037828D01*
X0547192Y0037916D01*
X0547143Y0038003D01*
X0547091Y0038089D01*
X0547036Y0038171D01*
X0546977Y0038252D01*
X0546915Y0038331D01*
X0546851Y0038407D01*
X0546783Y0038480D01*
X0546713Y0038551D01*
X0546639Y0038619D01*
X0546564Y0038684D01*
X0546486Y0038746D01*
X0546405Y0038805D01*
X0546322Y0038860D01*
X0546238Y0038913D01*
X0546151Y0038962D01*
X0546062Y0039008D01*
X0545972Y0039050D01*
X0545880Y0039089D01*
X0545787Y0039124D01*
X0545692Y0039156D01*
X0545596Y0039184D01*
X0545499Y0039208D01*
X0545402Y0039228D01*
X0545303Y0039245D01*
X0545204Y0039258D01*
X0545105Y0039267D01*
X0545005Y0039272D01*
X0544905Y0039273D01*
X0544806Y0039270D01*
X0544706Y0039264D01*
X0544607Y0039253D01*
X0544508Y0039239D01*
X0544410Y0039221D01*
X0544313Y0039199D01*
X0544216Y0039173D01*
X0544121Y0039144D01*
X0544027Y0039111D01*
X0543934Y0039074D01*
X0543842Y0039034D01*
X0543753Y0038990D01*
X0543665Y0038943D01*
X0543579Y0038893D01*
X0543495Y0038839D01*
X0543413Y0038782D01*
X0543333Y0038722D01*
X0543256Y0038658D01*
X0543181Y0038592D01*
X0543109Y0038523D01*
X0543040Y0038451D01*
X0542974Y0038377D01*
X0542910Y0038300D01*
X0542010Y0037160D01*
X0545660Y0049630D02*
X0540360Y0052690D01*
X0540410Y0060820D02*
X0538590Y0061870D01*
X0520030Y0051160D01*
X0520030Y0047080D01*
X0519140Y0046570D02*
X0523560Y0049120D01*
X0520030Y0051160D01*
X0505000Y0038400D02*
X0505000Y0027170D01*
X0515610Y0021050D01*
X0525850Y0031460D02*
X0525783Y0031338D01*
X0525718Y0031215D01*
X0525658Y0031089D01*
X0525600Y0030962D01*
X0525547Y0030834D01*
X0525497Y0030704D01*
X0525451Y0030572D01*
X0525409Y0030440D01*
X0525370Y0030306D01*
X0525336Y0030171D01*
X0525305Y0030035D01*
X0525278Y0029899D01*
X0525255Y0029761D01*
X0525236Y0029623D01*
X0525221Y0029485D01*
X0525210Y0029346D01*
X0525202Y0029207D01*
X0525199Y0029068D01*
X0525200Y0028928D01*
X0525205Y0028789D01*
X0525213Y0028650D01*
X0525226Y0028512D01*
X0525243Y0028373D01*
X0525263Y0028236D01*
X0525288Y0028099D01*
X0525316Y0027962D01*
X0525349Y0027827D01*
X0525385Y0027692D01*
X0525425Y0027559D01*
X0525468Y0027427D01*
X0525516Y0027296D01*
X0525567Y0027166D01*
X0525622Y0027038D01*
X0525681Y0026912D01*
X0525743Y0026787D01*
X0525808Y0026665D01*
X0525878Y0026544D01*
X0525950Y0026425D01*
X0526026Y0026308D01*
X0526105Y0026194D01*
X0526188Y0026081D01*
X0526273Y0025972D01*
X0526362Y0025864D01*
X0526454Y0025760D01*
X0526549Y0025657D01*
X0526646Y0025558D01*
X0526747Y0025462D01*
X0526850Y0025368D01*
X0526955Y0025277D01*
X0527064Y0025190D01*
X0527175Y0025105D01*
X0527288Y0025024D01*
X0527403Y0024946D01*
X0527521Y0024872D01*
X0527640Y0024800D01*
X0527762Y0024733D01*
X0527885Y0024668D01*
X0528011Y0024608D01*
X0528138Y0024550D01*
X0528266Y0024497D01*
X0528396Y0024447D01*
X0528528Y0024401D01*
X0528660Y0024359D01*
X0528794Y0024320D01*
X0528929Y0024286D01*
X0529065Y0024255D01*
X0529201Y0024228D01*
X0529339Y0024205D01*
X0529477Y0024186D01*
X0529615Y0024171D01*
X0529754Y0024160D01*
X0529893Y0024152D01*
X0530032Y0024149D01*
X0530172Y0024150D01*
X0530311Y0024155D01*
X0530450Y0024163D01*
X0530588Y0024176D01*
X0530727Y0024193D01*
X0530864Y0024213D01*
X0531001Y0024238D01*
X0531138Y0024266D01*
X0531273Y0024299D01*
X0531408Y0024335D01*
X0531541Y0024375D01*
X0531673Y0024418D01*
X0531804Y0024466D01*
X0531934Y0024517D01*
X0532062Y0024572D01*
X0532188Y0024631D01*
X0532313Y0024693D01*
X0532435Y0024758D01*
X0532556Y0024828D01*
X0532675Y0024900D01*
X0532792Y0024976D01*
X0532906Y0025055D01*
X0533019Y0025138D01*
X0533128Y0025223D01*
X0533236Y0025312D01*
X0533340Y0025404D01*
X0533443Y0025499D01*
X0533542Y0025596D01*
X0533638Y0025697D01*
X0533732Y0025800D01*
X0533823Y0025905D01*
X0533910Y0026014D01*
X0533995Y0026125D01*
X0534076Y0026238D01*
X0534154Y0026353D01*
X0534228Y0026471D01*
X0534300Y0026590D01*
X0558150Y0049570D02*
X0571140Y0057070D01*
X0571278Y0057152D01*
X0571414Y0057238D01*
X0571548Y0057326D01*
X0571680Y0057418D01*
X0571810Y0057513D01*
X0571937Y0057612D01*
X0572061Y0057713D01*
X0572184Y0057817D01*
X0572303Y0057924D01*
X0572420Y0058035D01*
X0572535Y0058148D01*
X0572646Y0058263D01*
X0572755Y0058382D01*
X0572861Y0058503D01*
X0572964Y0058626D01*
X0573063Y0058752D01*
X0573160Y0058881D01*
X0573253Y0059011D01*
X0573344Y0059144D01*
X0573431Y0059279D01*
X0573514Y0059416D01*
X0573595Y0059556D01*
X0573672Y0059697D01*
X0573745Y0059840D01*
X0573815Y0059984D01*
X0573882Y0060131D01*
X0573944Y0060279D01*
X0574004Y0060428D01*
X0574059Y0060579D01*
X0574111Y0060731D01*
X0574159Y0060884D01*
X0574204Y0061039D01*
X0574244Y0061194D01*
X0574281Y0061351D01*
X0574314Y0061508D01*
X0574343Y0061666D01*
X0574369Y0061825D01*
X0574390Y0061984D01*
X0574408Y0062144D01*
X0574421Y0062304D01*
X0574431Y0062464D01*
X0574437Y0062625D01*
X0574439Y0062785D01*
X0574437Y0062946D01*
X0574431Y0063107D01*
X0574421Y0063267D01*
X0574408Y0063427D01*
X0574390Y0063587D01*
X0574369Y0063746D01*
X0574343Y0063905D01*
X0574314Y0064063D01*
X0574281Y0064220D01*
X0574244Y0064377D01*
X0574204Y0064532D01*
X0574159Y0064687D01*
X0574111Y0064840D01*
X0574059Y0064992D01*
X0574003Y0065143D01*
X0573944Y0065292D01*
X0573881Y0065440D01*
X0573815Y0065586D01*
X0573745Y0065731D01*
X0573671Y0065874D01*
X0573594Y0066015D01*
X0573514Y0066154D01*
X0573430Y0066291D01*
X0573343Y0066426D01*
X0573253Y0066559D01*
X0573160Y0066690D01*
X0573063Y0066818D01*
X0572963Y0066944D01*
X0572860Y0067068D01*
X0572754Y0067189D01*
X0572646Y0067307D01*
X0572534Y0067423D01*
X0572420Y0067536D01*
X0572303Y0067646D01*
X0572183Y0067753D01*
X0572061Y0067858D01*
X0571936Y0067959D01*
X0571809Y0068057D01*
X0571679Y0068152D01*
X0571548Y0068244D01*
X0571414Y0068333D01*
X0571277Y0068418D01*
X0571139Y0068500D01*
X0570999Y0068579D01*
X0570857Y0068654D01*
X0570713Y0068726D01*
X0570568Y0068794D01*
X0570421Y0068859D01*
X0570272Y0068920D01*
X0570122Y0068977D01*
X0569970Y0069031D01*
X0569818Y0069081D01*
X0569664Y0069127D01*
X0569509Y0069170D01*
X0569353Y0069208D01*
X0569196Y0069243D01*
X0569038Y0069274D01*
X0568880Y0069302D01*
X0568721Y0069325D01*
X0568561Y0069344D01*
X0568401Y0069360D01*
X0568241Y0069372D01*
X0568081Y0069380D01*
X0567920Y0069384D01*
X0567759Y0069384D01*
X0567599Y0069380D01*
X0567438Y0069372D01*
X0567278Y0069360D01*
X0567118Y0069344D01*
X0566958Y0069325D01*
X0566799Y0069301D01*
X0566641Y0069274D01*
X0566483Y0069243D01*
X0566326Y0069208D01*
X0566171Y0069169D01*
X0566016Y0069127D01*
X0565862Y0069080D01*
X0565709Y0069030D01*
X0565557Y0068977D01*
X0565407Y0068919D01*
X0565259Y0068858D01*
X0565112Y0068794D01*
X0564966Y0068725D01*
X0564822Y0068654D01*
X0564680Y0068578D01*
X0564540Y0068500D01*
D12*
X0391831Y0036638D02*
X0387977Y0036638D01*
X0386693Y0035353D01*
X0387977Y0034069D01*
X0390546Y0034069D01*
X0391831Y0032784D01*
X0390546Y0031500D01*
X0386693Y0031500D01*
X0383912Y0031500D02*
X0383912Y0036638D01*
X0378774Y0036638D02*
X0378774Y0032784D01*
X0380059Y0031500D01*
X0383912Y0031500D01*
X0375993Y0031500D02*
X0372140Y0031500D01*
X0370856Y0032784D01*
X0370856Y0035353D01*
X0372140Y0036638D01*
X0375993Y0036638D01*
X0368074Y0035353D02*
X0366790Y0036638D01*
X0364221Y0036638D01*
X0362937Y0035353D01*
X0362937Y0032784D01*
X0364221Y0031500D01*
X0366790Y0031500D01*
X0368074Y0032784D01*
X0368074Y0035353D01*
X0360226Y0035353D02*
X0357658Y0035353D01*
X0358942Y0037922D02*
X0358942Y0031500D01*
X0358942Y0037922D02*
X0360226Y0039207D01*
X0346958Y0039207D02*
X0346958Y0031500D01*
X0343105Y0031500D01*
X0341820Y0032784D01*
X0341820Y0035353D01*
X0343105Y0036638D01*
X0346958Y0036638D01*
X0339039Y0035353D02*
X0339039Y0031500D01*
X0339039Y0035353D02*
X0337755Y0036638D01*
X0333901Y0036638D01*
X0333901Y0031500D01*
X0331120Y0031500D02*
X0327267Y0031500D01*
X0325983Y0032784D01*
X0327267Y0034069D01*
X0331120Y0034069D01*
X0331120Y0035353D02*
X0331120Y0031500D01*
X0331120Y0035353D02*
X0329836Y0036638D01*
X0327267Y0036638D01*
X0315283Y0036638D02*
X0311429Y0036638D01*
X0310145Y0035353D01*
X0311429Y0034069D01*
X0313998Y0034069D01*
X0315283Y0032784D01*
X0313998Y0031500D01*
X0310145Y0031500D01*
X0307364Y0031500D02*
X0307364Y0035353D01*
X0306080Y0036638D01*
X0303511Y0036638D01*
X0303511Y0034069D02*
X0307364Y0034069D01*
X0307364Y0031500D02*
X0303511Y0031500D01*
X0302226Y0032784D01*
X0303511Y0034069D01*
X0299516Y0031500D02*
X0296947Y0031500D01*
X0298232Y0031500D02*
X0298232Y0036638D01*
X0296947Y0036638D01*
X0298232Y0039207D02*
X0298232Y0040491D01*
X0294166Y0035353D02*
X0292882Y0036638D01*
X0289028Y0036638D01*
X0289028Y0039207D02*
X0289028Y0031500D01*
X0292882Y0031500D01*
X0294166Y0032784D01*
X0294166Y0035353D01*
X0278329Y0039207D02*
X0273191Y0031500D01*
X0262491Y0032784D02*
X0261207Y0031500D01*
X0258638Y0031500D01*
X0257353Y0032784D01*
X0257353Y0035353D02*
X0259922Y0036638D01*
X0261207Y0036638D01*
X0262491Y0035353D01*
X0262491Y0032784D01*
X0257353Y0035353D02*
X0257353Y0039207D01*
X0262491Y0039207D01*
X0254572Y0037922D02*
X0249435Y0032784D01*
X0250719Y0031500D01*
X0253288Y0031500D01*
X0254572Y0032784D01*
X0254572Y0037922D01*
X0253288Y0039207D01*
X0250719Y0039207D01*
X0249435Y0037922D01*
X0249435Y0032784D01*
X0246653Y0037922D02*
X0241516Y0032784D01*
X0241516Y0031500D01*
X0238735Y0031500D02*
X0233597Y0031500D01*
X0236166Y0031500D02*
X0236166Y0039207D01*
X0233597Y0036638D01*
X0241516Y0039207D02*
X0246653Y0039207D01*
X0246653Y0037922D01*
X0222897Y0035353D02*
X0222897Y0034069D01*
X0217759Y0034069D01*
X0217759Y0035353D02*
X0219044Y0036638D01*
X0221613Y0036638D01*
X0222897Y0035353D01*
X0221613Y0031500D02*
X0219044Y0031500D01*
X0217759Y0032784D01*
X0217759Y0035353D01*
X0214978Y0035353D02*
X0213694Y0036638D01*
X0209841Y0036638D01*
X0209841Y0028931D01*
X0209841Y0031500D02*
X0213694Y0031500D01*
X0214978Y0032784D01*
X0214978Y0035353D01*
X0207060Y0036638D02*
X0207060Y0030216D01*
X0205775Y0028931D01*
X0204491Y0028931D01*
X0203206Y0031500D02*
X0207060Y0031500D01*
X0203206Y0031500D02*
X0201922Y0032784D01*
X0201922Y0036638D01*
X0199212Y0036638D02*
X0196643Y0036638D01*
X0197927Y0037922D02*
X0197927Y0032784D01*
X0199212Y0031500D01*
X0185943Y0031500D02*
X0185943Y0039207D01*
X0185943Y0036638D02*
X0182090Y0036638D01*
X0180805Y0035353D01*
X0180805Y0032784D01*
X0182090Y0031500D01*
X0185943Y0031500D01*
X0178060Y0036638D02*
X0176775Y0036638D01*
X0174206Y0034069D01*
X0174206Y0031500D02*
X0174206Y0036638D01*
X0171425Y0035353D02*
X0171425Y0031500D01*
X0167572Y0031500D01*
X0166288Y0032784D01*
X0167572Y0034069D01*
X0171425Y0034069D01*
X0171425Y0035353D02*
X0170141Y0036638D01*
X0167572Y0036638D01*
X0163506Y0035353D02*
X0162222Y0036638D01*
X0159653Y0036638D01*
X0158369Y0035353D01*
X0158369Y0032784D01*
X0159653Y0031500D01*
X0162222Y0031500D01*
X0163506Y0032784D01*
X0163506Y0035353D01*
X0155588Y0035353D02*
X0154303Y0036638D01*
X0150450Y0036638D01*
X0150450Y0039207D02*
X0150450Y0031500D01*
X0154303Y0031500D01*
X0155588Y0032784D01*
X0155588Y0035353D01*
D13*
X0372900Y0227584D02*
X0374034Y0226450D01*
X0376303Y0226450D01*
X0377437Y0227584D01*
X0379898Y0229853D02*
X0384435Y0229853D01*
X0383301Y0226450D02*
X0383301Y0233256D01*
X0379898Y0229853D01*
X0377437Y0232122D02*
X0376303Y0233256D01*
X0374034Y0233256D01*
X0372900Y0232122D01*
X0372900Y0227584D01*
X0374034Y0286450D02*
X0372900Y0287584D01*
X0372900Y0292122D01*
X0374034Y0293256D01*
X0376303Y0293256D01*
X0377437Y0292122D01*
X0379898Y0292122D02*
X0381032Y0293256D01*
X0383301Y0293256D01*
X0384435Y0292122D01*
X0384435Y0290987D01*
X0383301Y0289853D01*
X0384435Y0288719D01*
X0384435Y0287584D01*
X0383301Y0286450D01*
X0381032Y0286450D01*
X0379898Y0287584D01*
X0377437Y0287584D02*
X0376303Y0286450D01*
X0374034Y0286450D01*
X0382167Y0289853D02*
X0383301Y0289853D01*
X0384030Y0316450D02*
X0382896Y0317584D01*
X0387433Y0322122D01*
X0387433Y0317584D01*
X0386299Y0316450D01*
X0384030Y0316450D01*
X0382896Y0317584D02*
X0382896Y0322122D01*
X0384030Y0323256D01*
X0386299Y0323256D01*
X0387433Y0322122D01*
X0380435Y0316450D02*
X0375898Y0316450D01*
X0378167Y0316450D02*
X0378167Y0323256D01*
X0375898Y0320987D01*
X0373437Y0319853D02*
X0373437Y0322122D01*
X0372303Y0323256D01*
X0368900Y0323256D01*
X0368900Y0316450D01*
X0368900Y0318719D02*
X0372303Y0318719D01*
X0373437Y0319853D01*
X0371169Y0318719D02*
X0373437Y0316450D01*
X0371400Y0351450D02*
X0371400Y0358256D01*
X0374803Y0358256D01*
X0375937Y0357122D01*
X0375937Y0354853D01*
X0374803Y0353719D01*
X0371400Y0353719D01*
X0373669Y0353719D02*
X0375937Y0351450D01*
X0378398Y0352584D02*
X0379532Y0351450D01*
X0381801Y0351450D01*
X0382935Y0352584D01*
X0382935Y0353719D01*
X0381801Y0354853D01*
X0378398Y0354853D01*
X0378398Y0352584D01*
X0378398Y0354853D02*
X0380667Y0357122D01*
X0382935Y0358256D01*
X0419400Y0397950D02*
X0422803Y0397950D01*
X0423937Y0399084D01*
X0423937Y0403622D01*
X0422803Y0404756D01*
X0419400Y0404756D01*
X0419400Y0397950D01*
X0426398Y0397950D02*
X0430935Y0402487D01*
X0430935Y0403622D01*
X0429801Y0404756D01*
X0427532Y0404756D01*
X0426398Y0403622D01*
X0426398Y0397950D02*
X0430935Y0397950D01*
X0454400Y0397950D02*
X0457803Y0397950D01*
X0458937Y0399084D01*
X0458937Y0403622D01*
X0457803Y0404756D01*
X0454400Y0404756D01*
X0454400Y0397950D01*
X0461398Y0399084D02*
X0462532Y0397950D01*
X0464801Y0397950D01*
X0465935Y0399084D01*
X0465935Y0400219D01*
X0464801Y0401353D01*
X0463667Y0401353D01*
X0464801Y0401353D02*
X0465935Y0402487D01*
X0465935Y0403622D01*
X0464801Y0404756D01*
X0462532Y0404756D01*
X0461398Y0403622D01*
X0483400Y0407450D02*
X0483400Y0414256D01*
X0486803Y0414256D01*
X0487937Y0413122D01*
X0487937Y0410853D01*
X0486803Y0409719D01*
X0483400Y0409719D01*
X0485669Y0409719D02*
X0487937Y0407450D01*
X0490398Y0407450D02*
X0494935Y0411987D01*
X0494935Y0413122D01*
X0493801Y0414256D01*
X0491532Y0414256D01*
X0490398Y0413122D01*
X0490398Y0407450D02*
X0494935Y0407450D01*
X0508402Y0408497D02*
X0508402Y0403959D01*
X0509536Y0402825D01*
X0511805Y0402825D01*
X0512939Y0403959D01*
X0515400Y0402825D02*
X0519937Y0402825D01*
X0517669Y0402825D02*
X0517669Y0409631D01*
X0515400Y0407362D01*
X0512939Y0408497D02*
X0511805Y0409631D01*
X0509536Y0409631D01*
X0508402Y0408497D01*
X0547900Y0387631D02*
X0547900Y0380825D01*
X0551303Y0380825D01*
X0552437Y0381959D01*
X0552437Y0386497D01*
X0551303Y0387631D01*
X0547900Y0387631D01*
X0554898Y0387631D02*
X0554898Y0384228D01*
X0557167Y0385362D01*
X0558301Y0385362D01*
X0559435Y0384228D01*
X0559435Y0381959D01*
X0558301Y0380825D01*
X0556032Y0380825D01*
X0554898Y0381959D01*
X0554898Y0387631D02*
X0559435Y0387631D01*
X0605400Y0410084D02*
X0606534Y0408950D01*
X0607669Y0408950D01*
X0608803Y0410084D01*
X0608803Y0415756D01*
X0607669Y0415756D02*
X0609937Y0415756D01*
X0612398Y0413487D02*
X0614667Y0415756D01*
X0614667Y0408950D01*
X0616935Y0408950D02*
X0612398Y0408950D01*
X0528437Y0339122D02*
X0527303Y0340256D01*
X0525034Y0340256D01*
X0523900Y0339122D01*
X0521439Y0339122D02*
X0520305Y0340256D01*
X0518036Y0340256D01*
X0516902Y0339122D01*
X0516902Y0334584D01*
X0518036Y0333450D01*
X0520305Y0333450D01*
X0521439Y0334584D01*
X0523900Y0333450D02*
X0528437Y0337987D01*
X0528437Y0339122D01*
X0528437Y0333450D02*
X0523900Y0333450D01*
X0605400Y0310584D02*
X0606534Y0309450D01*
X0607669Y0309450D01*
X0608803Y0310584D01*
X0608803Y0316256D01*
X0607669Y0316256D02*
X0609937Y0316256D01*
X0612398Y0315122D02*
X0613532Y0316256D01*
X0615801Y0316256D01*
X0616935Y0315122D01*
X0616935Y0313987D01*
X0612398Y0309450D01*
X0616935Y0309450D01*
X0615801Y0263256D02*
X0616935Y0262122D01*
X0616935Y0260987D01*
X0615801Y0259853D01*
X0616935Y0258719D01*
X0616935Y0257584D01*
X0615801Y0256450D01*
X0613532Y0256450D01*
X0612398Y0257584D01*
X0614667Y0259853D02*
X0615801Y0259853D01*
X0615801Y0263256D02*
X0613532Y0263256D01*
X0612398Y0262122D01*
X0609937Y0263256D02*
X0607669Y0263256D01*
X0608803Y0263256D02*
X0608803Y0257584D01*
X0607669Y0256450D01*
X0606534Y0256450D01*
X0605400Y0257584D01*
X0607669Y0193256D02*
X0609937Y0193256D01*
X0608803Y0193256D02*
X0608803Y0187584D01*
X0607669Y0186450D01*
X0606534Y0186450D01*
X0605400Y0187584D01*
X0612398Y0189853D02*
X0615801Y0193256D01*
X0615801Y0186450D01*
X0616935Y0189853D02*
X0612398Y0189853D01*
X0476935Y0242584D02*
X0476935Y0243719D01*
X0475801Y0244853D01*
X0472398Y0244853D01*
X0472398Y0242584D01*
X0473532Y0241450D01*
X0475801Y0241450D01*
X0476935Y0242584D01*
X0472398Y0244853D02*
X0474667Y0247122D01*
X0476935Y0248256D01*
X0469937Y0247122D02*
X0469937Y0242584D01*
X0468803Y0241450D01*
X0465400Y0241450D01*
X0465400Y0248256D01*
X0468803Y0248256D01*
X0469937Y0247122D01*
X0300435Y0317584D02*
X0299301Y0316450D01*
X0297032Y0316450D01*
X0295898Y0317584D01*
X0297032Y0319853D02*
X0300435Y0319853D01*
X0300435Y0317584D02*
X0300435Y0322122D01*
X0299301Y0323256D01*
X0297032Y0323256D01*
X0295898Y0322122D01*
X0295898Y0320987D01*
X0297032Y0319853D01*
X0293437Y0319853D02*
X0293437Y0322122D01*
X0292303Y0323256D01*
X0288900Y0323256D01*
X0288900Y0316450D01*
X0288900Y0318719D02*
X0292303Y0318719D01*
X0293437Y0319853D01*
X0291169Y0318719D02*
X0293437Y0316450D01*
X0293437Y0351450D02*
X0291169Y0353719D01*
X0292303Y0353719D02*
X0288900Y0353719D01*
X0288900Y0351450D02*
X0288900Y0358256D01*
X0292303Y0358256D01*
X0293437Y0357122D01*
X0293437Y0354853D01*
X0292303Y0353719D01*
X0295898Y0354853D02*
X0295898Y0358256D01*
X0300435Y0358256D01*
X0299301Y0355987D02*
X0300435Y0354853D01*
X0300435Y0352584D01*
X0299301Y0351450D01*
X0297032Y0351450D01*
X0295898Y0352584D01*
X0295898Y0354853D02*
X0298167Y0355987D01*
X0299301Y0355987D01*
X0313400Y0407450D02*
X0313400Y0414256D01*
X0316803Y0414256D01*
X0317937Y0413122D01*
X0317937Y0410853D01*
X0316803Y0409719D01*
X0313400Y0409719D01*
X0315669Y0409719D02*
X0317937Y0407450D01*
X0320398Y0407450D02*
X0324935Y0407450D01*
X0322667Y0407450D02*
X0322667Y0414256D01*
X0320398Y0411987D01*
X0281935Y0411450D02*
X0277398Y0411450D01*
X0279667Y0411450D02*
X0279667Y0418256D01*
X0277398Y0415987D01*
X0274937Y0417122D02*
X0274937Y0412584D01*
X0273803Y0411450D01*
X0270400Y0411450D01*
X0270400Y0418256D01*
X0273803Y0418256D01*
X0274937Y0417122D01*
X0221801Y0358256D02*
X0218398Y0354853D01*
X0222935Y0354853D01*
X0221801Y0351450D02*
X0221801Y0358256D01*
X0215937Y0357122D02*
X0215937Y0354853D01*
X0214803Y0353719D01*
X0211400Y0353719D01*
X0213669Y0353719D02*
X0215937Y0351450D01*
X0211400Y0351450D02*
X0211400Y0358256D01*
X0214803Y0358256D01*
X0215937Y0357122D01*
X0214803Y0323256D02*
X0215937Y0322122D01*
X0215937Y0319853D01*
X0214803Y0318719D01*
X0211400Y0318719D01*
X0213669Y0318719D02*
X0215937Y0316450D01*
X0218398Y0317584D02*
X0218398Y0318719D01*
X0219532Y0319853D01*
X0221801Y0319853D01*
X0222935Y0318719D01*
X0222935Y0317584D01*
X0221801Y0316450D01*
X0219532Y0316450D01*
X0218398Y0317584D01*
X0219532Y0319853D02*
X0218398Y0320987D01*
X0218398Y0322122D01*
X0219532Y0323256D01*
X0221801Y0323256D01*
X0222935Y0322122D01*
X0222935Y0320987D01*
X0221801Y0319853D01*
X0214803Y0323256D02*
X0211400Y0323256D01*
X0211400Y0316450D01*
X0142935Y0322122D02*
X0138398Y0317584D01*
X0138398Y0316450D01*
X0135937Y0316450D02*
X0133669Y0318719D01*
X0134803Y0318719D02*
X0131400Y0318719D01*
X0131400Y0316450D02*
X0131400Y0323256D01*
X0134803Y0323256D01*
X0135937Y0322122D01*
X0135937Y0319853D01*
X0134803Y0318719D01*
X0138398Y0323256D02*
X0142935Y0323256D01*
X0142935Y0322122D01*
X0141801Y0351450D02*
X0139532Y0351450D01*
X0138398Y0352584D01*
X0135937Y0351450D02*
X0133669Y0353719D01*
X0134803Y0353719D02*
X0131400Y0353719D01*
X0131400Y0351450D02*
X0131400Y0358256D01*
X0134803Y0358256D01*
X0135937Y0357122D01*
X0135937Y0354853D01*
X0134803Y0353719D01*
X0138398Y0357122D02*
X0139532Y0358256D01*
X0141801Y0358256D01*
X0142935Y0357122D01*
X0142935Y0355987D01*
X0141801Y0354853D01*
X0142935Y0353719D01*
X0142935Y0352584D01*
X0141801Y0351450D01*
X0141801Y0354853D02*
X0140667Y0354853D01*
X0175400Y0401450D02*
X0178803Y0401450D01*
X0179937Y0402584D01*
X0179937Y0407122D01*
X0178803Y0408256D01*
X0175400Y0408256D01*
X0175400Y0401450D01*
X0182398Y0404853D02*
X0186935Y0404853D01*
X0185801Y0401450D02*
X0185801Y0408256D01*
X0182398Y0404853D01*
X0365400Y0434450D02*
X0365400Y0441256D01*
X0368803Y0441256D01*
X0369937Y0440122D01*
X0369937Y0437853D01*
X0368803Y0436719D01*
X0365400Y0436719D01*
X0372398Y0438987D02*
X0374667Y0441256D01*
X0374667Y0434450D01*
X0376935Y0434450D02*
X0372398Y0434450D01*
D14*
X0371427Y0422805D02*
X0373396Y0420837D01*
X0375364Y0422805D01*
X0375364Y0416900D01*
X0371427Y0416900D02*
X0371427Y0422805D01*
X0367318Y0422805D02*
X0367318Y0416900D01*
X0365350Y0416900D02*
X0369287Y0416900D01*
X0365350Y0420837D02*
X0367318Y0422805D01*
X0329441Y0400305D02*
X0325504Y0396368D01*
X0326489Y0397353D02*
X0329441Y0394400D01*
X0325504Y0394400D02*
X0325504Y0400305D01*
X0323364Y0399321D02*
X0323364Y0398337D01*
X0322380Y0397353D01*
X0320411Y0397353D01*
X0319427Y0398337D01*
X0319427Y0399321D01*
X0320411Y0400305D01*
X0322380Y0400305D01*
X0323364Y0399321D01*
X0322380Y0397353D02*
X0323364Y0396368D01*
X0323364Y0395384D01*
X0322380Y0394400D01*
X0320411Y0394400D01*
X0319427Y0395384D01*
X0319427Y0396368D01*
X0320411Y0397353D01*
X0317287Y0394400D02*
X0313350Y0394400D01*
X0315318Y0394400D02*
X0315318Y0400305D01*
X0313350Y0398337D01*
X0270187Y0376321D02*
X0270187Y0375337D01*
X0269203Y0374353D01*
X0270187Y0373368D01*
X0270187Y0372384D01*
X0269203Y0371400D01*
X0267235Y0371400D01*
X0266251Y0372384D01*
X0264110Y0371400D02*
X0260173Y0371400D01*
X0262142Y0371400D02*
X0262142Y0377305D01*
X0260173Y0375337D01*
X0258033Y0371400D02*
X0254096Y0371400D01*
X0256065Y0371400D02*
X0256065Y0377305D01*
X0254096Y0375337D01*
X0252013Y0372384D02*
X0251029Y0372384D01*
X0251029Y0371400D01*
X0252013Y0371400D01*
X0252013Y0372384D01*
X0252013Y0371400D02*
X0250045Y0369432D01*
X0247904Y0372384D02*
X0247904Y0373368D01*
X0246920Y0374353D01*
X0243968Y0374353D01*
X0243968Y0372384D01*
X0244952Y0371400D01*
X0246920Y0371400D01*
X0247904Y0372384D01*
X0245936Y0376321D02*
X0243968Y0374353D01*
X0241827Y0374353D02*
X0240843Y0375337D01*
X0239859Y0375337D01*
X0237890Y0374353D01*
X0237890Y0377305D01*
X0241827Y0377305D01*
X0241827Y0374353D02*
X0241827Y0372384D01*
X0240843Y0371400D01*
X0238874Y0371400D01*
X0237890Y0372384D01*
X0235750Y0372384D02*
X0234766Y0371400D01*
X0232797Y0371400D01*
X0231813Y0372384D01*
X0231813Y0376321D01*
X0232797Y0377305D01*
X0234766Y0377305D01*
X0235750Y0376321D01*
X0229673Y0374353D02*
X0225736Y0374353D01*
X0223595Y0374353D02*
X0223595Y0372384D01*
X0222611Y0371400D01*
X0220643Y0371400D01*
X0219659Y0372384D01*
X0219659Y0374353D02*
X0221627Y0375337D01*
X0222611Y0375337D01*
X0223595Y0374353D01*
X0223595Y0377305D02*
X0219659Y0377305D01*
X0219659Y0374353D01*
X0217518Y0375337D02*
X0216534Y0374353D01*
X0214566Y0374353D01*
X0213582Y0375337D01*
X0213582Y0376321D01*
X0214566Y0377305D01*
X0216534Y0377305D01*
X0217518Y0376321D01*
X0217518Y0375337D01*
X0216534Y0374353D02*
X0217518Y0373368D01*
X0217518Y0372384D01*
X0216534Y0371400D01*
X0214566Y0371400D01*
X0213582Y0372384D01*
X0213582Y0373368D01*
X0214566Y0374353D01*
X0211441Y0373368D02*
X0211441Y0377305D01*
X0207504Y0377305D02*
X0207504Y0373368D01*
X0209473Y0371400D01*
X0211441Y0373368D01*
X0205364Y0371400D02*
X0201427Y0371400D01*
X0201427Y0372384D01*
X0205364Y0376321D01*
X0205364Y0377305D01*
X0201427Y0377305D01*
X0199287Y0376321D02*
X0199287Y0375337D01*
X0198303Y0374353D01*
X0195350Y0374353D01*
X0195350Y0377305D02*
X0195350Y0371400D01*
X0198303Y0371400D01*
X0199287Y0372384D01*
X0199287Y0373368D01*
X0198303Y0374353D01*
X0199287Y0376321D02*
X0198303Y0377305D01*
X0195350Y0377305D01*
X0171980Y0356121D02*
X0171980Y0355137D01*
X0170995Y0354153D01*
X0171980Y0353168D01*
X0171980Y0352184D01*
X0170995Y0351200D01*
X0169027Y0351200D01*
X0168043Y0352184D01*
X0165902Y0352184D02*
X0164918Y0351200D01*
X0162950Y0351200D01*
X0161966Y0352184D01*
X0159911Y0352184D02*
X0159911Y0351200D01*
X0158927Y0351200D01*
X0158927Y0352184D01*
X0159911Y0352184D01*
X0156787Y0352184D02*
X0156787Y0356121D01*
X0152850Y0352184D01*
X0153834Y0351200D01*
X0155803Y0351200D01*
X0156787Y0352184D01*
X0156787Y0356121D02*
X0155803Y0357105D01*
X0153834Y0357105D01*
X0152850Y0356121D01*
X0152850Y0352184D01*
X0161966Y0356121D02*
X0162950Y0357105D01*
X0164918Y0357105D01*
X0165902Y0356121D01*
X0165902Y0355137D01*
X0164918Y0354153D01*
X0165902Y0353168D01*
X0165902Y0352184D01*
X0164918Y0354153D02*
X0163934Y0354153D01*
X0168043Y0356121D02*
X0169027Y0357105D01*
X0170995Y0357105D01*
X0171980Y0356121D01*
X0170995Y0354153D02*
X0170011Y0354153D01*
X0168495Y0322105D02*
X0169480Y0321121D01*
X0169480Y0320137D01*
X0168495Y0319153D01*
X0169480Y0318168D01*
X0169480Y0317184D01*
X0168495Y0316200D01*
X0166527Y0316200D01*
X0165543Y0317184D01*
X0163402Y0317184D02*
X0162418Y0316200D01*
X0160450Y0316200D01*
X0159466Y0317184D01*
X0157411Y0317184D02*
X0157411Y0316200D01*
X0156427Y0316200D01*
X0156427Y0317184D01*
X0157411Y0317184D01*
X0154287Y0317184D02*
X0153303Y0316200D01*
X0151334Y0316200D01*
X0150350Y0317184D01*
X0154287Y0321121D01*
X0154287Y0317184D01*
X0154287Y0321121D02*
X0153303Y0322105D01*
X0151334Y0322105D01*
X0150350Y0321121D01*
X0150350Y0317184D01*
X0159466Y0321121D02*
X0160450Y0322105D01*
X0162418Y0322105D01*
X0163402Y0321121D01*
X0163402Y0320137D01*
X0162418Y0319153D01*
X0163402Y0318168D01*
X0163402Y0317184D01*
X0162418Y0319153D02*
X0161434Y0319153D01*
X0165543Y0321121D02*
X0166527Y0322105D01*
X0168495Y0322105D01*
X0168495Y0319153D02*
X0167511Y0319153D01*
X0232850Y0317184D02*
X0232850Y0321121D01*
X0233834Y0322105D01*
X0235803Y0322105D01*
X0236787Y0321121D01*
X0232850Y0317184D01*
X0233834Y0316200D01*
X0235803Y0316200D01*
X0236787Y0317184D01*
X0236787Y0321121D01*
X0238927Y0317184D02*
X0239911Y0317184D01*
X0239911Y0316200D01*
X0238927Y0316200D01*
X0238927Y0317184D01*
X0241966Y0317184D02*
X0242950Y0316200D01*
X0244918Y0316200D01*
X0245902Y0317184D01*
X0245902Y0318168D01*
X0244918Y0319153D01*
X0243934Y0319153D01*
X0244918Y0319153D02*
X0245902Y0320137D01*
X0245902Y0321121D01*
X0244918Y0322105D01*
X0242950Y0322105D01*
X0241966Y0321121D01*
X0248043Y0321121D02*
X0249027Y0322105D01*
X0250995Y0322105D01*
X0251980Y0321121D01*
X0251980Y0320137D01*
X0250995Y0319153D01*
X0251980Y0318168D01*
X0251980Y0317184D01*
X0250995Y0316200D01*
X0249027Y0316200D01*
X0248043Y0317184D01*
X0250011Y0319153D02*
X0250995Y0319153D01*
X0250995Y0351200D02*
X0249027Y0351200D01*
X0248043Y0352184D01*
X0245902Y0352184D02*
X0244918Y0351200D01*
X0242950Y0351200D01*
X0241966Y0352184D01*
X0239911Y0352184D02*
X0239911Y0351200D01*
X0238927Y0351200D01*
X0238927Y0352184D01*
X0239911Y0352184D01*
X0236787Y0352184D02*
X0235803Y0351200D01*
X0233834Y0351200D01*
X0232850Y0352184D01*
X0236787Y0356121D01*
X0236787Y0352184D01*
X0236787Y0356121D02*
X0235803Y0357105D01*
X0233834Y0357105D01*
X0232850Y0356121D01*
X0232850Y0352184D01*
X0241966Y0356121D02*
X0242950Y0357105D01*
X0244918Y0357105D01*
X0245902Y0356121D01*
X0245902Y0355137D01*
X0244918Y0354153D01*
X0245902Y0353168D01*
X0245902Y0352184D01*
X0244918Y0354153D02*
X0243934Y0354153D01*
X0248043Y0356121D02*
X0249027Y0357105D01*
X0250995Y0357105D01*
X0251980Y0356121D01*
X0251980Y0355137D01*
X0250995Y0354153D01*
X0251980Y0353168D01*
X0251980Y0352184D01*
X0250995Y0351200D01*
X0250995Y0354153D02*
X0250011Y0354153D01*
X0268219Y0374353D02*
X0269203Y0374353D01*
X0270187Y0376321D02*
X0269203Y0377305D01*
X0267235Y0377305D01*
X0266251Y0376321D01*
X0247904Y0377305D02*
X0245936Y0376321D01*
X0310350Y0356121D02*
X0310350Y0352184D01*
X0314287Y0356121D01*
X0314287Y0352184D01*
X0313303Y0351200D01*
X0311334Y0351200D01*
X0310350Y0352184D01*
X0310350Y0356121D02*
X0311334Y0357105D01*
X0313303Y0357105D01*
X0314287Y0356121D01*
X0316427Y0352184D02*
X0317411Y0352184D01*
X0317411Y0351200D01*
X0316427Y0351200D01*
X0316427Y0352184D01*
X0319466Y0352184D02*
X0320450Y0351200D01*
X0322418Y0351200D01*
X0323402Y0352184D01*
X0323402Y0353168D01*
X0322418Y0354153D01*
X0321434Y0354153D01*
X0322418Y0354153D02*
X0323402Y0355137D01*
X0323402Y0356121D01*
X0322418Y0357105D01*
X0320450Y0357105D01*
X0319466Y0356121D01*
X0325543Y0356121D02*
X0326527Y0357105D01*
X0328495Y0357105D01*
X0329480Y0356121D01*
X0329480Y0355137D01*
X0328495Y0354153D01*
X0329480Y0353168D01*
X0329480Y0352184D01*
X0328495Y0351200D01*
X0326527Y0351200D01*
X0325543Y0352184D01*
X0327511Y0354153D02*
X0328495Y0354153D01*
X0329027Y0322105D02*
X0330995Y0322105D01*
X0331980Y0321121D01*
X0331980Y0320137D01*
X0330995Y0319153D01*
X0331980Y0318168D01*
X0331980Y0317184D01*
X0330995Y0316200D01*
X0329027Y0316200D01*
X0328043Y0317184D01*
X0325902Y0317184D02*
X0324918Y0316200D01*
X0322950Y0316200D01*
X0321966Y0317184D01*
X0319911Y0317184D02*
X0319911Y0316200D01*
X0318927Y0316200D01*
X0318927Y0317184D01*
X0319911Y0317184D01*
X0316787Y0317184D02*
X0315803Y0316200D01*
X0313834Y0316200D01*
X0312850Y0317184D01*
X0316787Y0321121D01*
X0316787Y0317184D01*
X0316787Y0321121D02*
X0315803Y0322105D01*
X0313834Y0322105D01*
X0312850Y0321121D01*
X0312850Y0317184D01*
X0321966Y0321121D02*
X0322950Y0322105D01*
X0324918Y0322105D01*
X0325902Y0321121D01*
X0325902Y0320137D01*
X0324918Y0319153D01*
X0325902Y0318168D01*
X0325902Y0317184D01*
X0324918Y0319153D02*
X0323934Y0319153D01*
X0328043Y0321121D02*
X0329027Y0322105D01*
X0330011Y0319153D02*
X0330995Y0319153D01*
X0392850Y0317184D02*
X0392850Y0321121D01*
X0393834Y0322105D01*
X0395803Y0322105D01*
X0396787Y0321121D01*
X0392850Y0317184D01*
X0393834Y0316200D01*
X0395803Y0316200D01*
X0396787Y0317184D01*
X0396787Y0321121D01*
X0398927Y0317184D02*
X0399911Y0317184D01*
X0399911Y0316200D01*
X0398927Y0316200D01*
X0398927Y0317184D01*
X0401966Y0317184D02*
X0402950Y0316200D01*
X0404918Y0316200D01*
X0405902Y0317184D01*
X0405902Y0318168D01*
X0404918Y0319153D01*
X0403934Y0319153D01*
X0404918Y0319153D02*
X0405902Y0320137D01*
X0405902Y0321121D01*
X0404918Y0322105D01*
X0402950Y0322105D01*
X0401966Y0321121D01*
X0408043Y0321121D02*
X0409027Y0322105D01*
X0410995Y0322105D01*
X0411980Y0321121D01*
X0411980Y0320137D01*
X0410995Y0319153D01*
X0411980Y0318168D01*
X0411980Y0317184D01*
X0410995Y0316200D01*
X0409027Y0316200D01*
X0408043Y0317184D01*
X0410011Y0319153D02*
X0410995Y0319153D01*
X0417159Y0292305D02*
X0421095Y0292305D01*
X0419127Y0289353D02*
X0417159Y0289353D01*
X0415018Y0290337D02*
X0415018Y0286400D01*
X0412066Y0286400D01*
X0411082Y0287384D01*
X0411082Y0290337D01*
X0417159Y0292305D02*
X0417159Y0286400D01*
X0402864Y0286400D02*
X0398927Y0286400D01*
X0402864Y0290337D01*
X0402864Y0291321D01*
X0401880Y0292305D01*
X0399911Y0292305D01*
X0398927Y0291321D01*
X0396787Y0291321D02*
X0395803Y0292305D01*
X0393834Y0292305D01*
X0392850Y0291321D01*
X0396787Y0291321D02*
X0396787Y0290337D01*
X0392850Y0286400D01*
X0396787Y0286400D01*
X0395803Y0232305D02*
X0393834Y0232305D01*
X0392850Y0231321D01*
X0395803Y0232305D02*
X0396787Y0231321D01*
X0396787Y0230337D01*
X0392850Y0226400D01*
X0396787Y0226400D01*
X0398927Y0226400D02*
X0402864Y0230337D01*
X0402864Y0231321D01*
X0401880Y0232305D01*
X0399911Y0232305D01*
X0398927Y0231321D01*
X0398927Y0226400D02*
X0402864Y0226400D01*
X0411082Y0227384D02*
X0412066Y0226400D01*
X0415018Y0226400D01*
X0415018Y0230337D01*
X0417159Y0229353D02*
X0419127Y0229353D01*
X0417159Y0232305D02*
X0417159Y0226400D01*
X0417159Y0232305D02*
X0421095Y0232305D01*
X0411082Y0230337D02*
X0411082Y0227384D01*
X0455350Y0220337D02*
X0457318Y0222305D01*
X0457318Y0216400D01*
X0455350Y0216400D02*
X0459287Y0216400D01*
X0461427Y0216400D02*
X0461427Y0222305D01*
X0465364Y0216400D01*
X0465364Y0222305D01*
X0467504Y0219353D02*
X0471441Y0219353D01*
X0473582Y0221321D02*
X0474566Y0222305D01*
X0476534Y0222305D01*
X0477518Y0221321D01*
X0473582Y0217384D01*
X0474566Y0216400D01*
X0476534Y0216400D01*
X0477518Y0217384D01*
X0477518Y0221321D01*
X0479659Y0221321D02*
X0480643Y0222305D01*
X0482611Y0222305D01*
X0483595Y0221321D01*
X0479659Y0217384D01*
X0480643Y0216400D01*
X0482611Y0216400D01*
X0483595Y0217384D01*
X0483595Y0221321D01*
X0485736Y0222305D02*
X0485736Y0219353D01*
X0487704Y0220337D01*
X0488688Y0220337D01*
X0489673Y0219353D01*
X0489673Y0217384D01*
X0488688Y0216400D01*
X0486720Y0216400D01*
X0485736Y0217384D01*
X0485736Y0222305D02*
X0489673Y0222305D01*
X0479659Y0221321D02*
X0479659Y0217384D01*
X0473582Y0217384D02*
X0473582Y0221321D01*
X0470457Y0222305D02*
X0470457Y0216400D01*
X0467504Y0219353D02*
X0470457Y0222305D01*
X0517122Y0320400D02*
X0516138Y0321384D01*
X0520074Y0325321D01*
X0520074Y0321384D01*
X0519090Y0320400D01*
X0517122Y0320400D01*
X0516138Y0321384D02*
X0516138Y0325321D01*
X0517122Y0326305D01*
X0519090Y0326305D01*
X0520074Y0325321D01*
X0522215Y0321384D02*
X0523199Y0321384D01*
X0523199Y0320400D01*
X0522215Y0320400D01*
X0522215Y0321384D01*
X0525254Y0321384D02*
X0526238Y0320400D01*
X0528206Y0320400D01*
X0529190Y0321384D01*
X0529190Y0325321D01*
X0525254Y0321384D01*
X0525254Y0325321D01*
X0526238Y0326305D01*
X0528206Y0326305D01*
X0529190Y0325321D01*
X0531331Y0324337D02*
X0533299Y0326305D01*
X0533299Y0320400D01*
X0531331Y0320400D02*
X0535267Y0320400D01*
X0537408Y0321384D02*
X0538392Y0320400D01*
X0540360Y0320400D01*
X0541345Y0321384D01*
X0541345Y0326305D01*
X0543485Y0326305D02*
X0547422Y0326305D01*
X0545453Y0323353D02*
X0543485Y0323353D01*
X0543485Y0326305D02*
X0543485Y0320400D01*
X0537408Y0321384D02*
X0537408Y0326305D01*
X0526188Y0350775D02*
X0524220Y0350775D01*
X0523236Y0351759D01*
X0523236Y0353728D02*
X0525204Y0354712D01*
X0526188Y0354712D01*
X0527173Y0353728D01*
X0527173Y0351759D01*
X0526188Y0350775D01*
X0523236Y0353728D02*
X0523236Y0356680D01*
X0527173Y0356680D01*
X0521095Y0355696D02*
X0521095Y0351759D01*
X0520111Y0350775D01*
X0518143Y0350775D01*
X0517159Y0351759D01*
X0521095Y0355696D01*
X0520111Y0356680D01*
X0518143Y0356680D01*
X0517159Y0355696D01*
X0517159Y0351759D01*
X0515018Y0351759D02*
X0514034Y0350775D01*
X0512066Y0350775D01*
X0511082Y0351759D01*
X0515018Y0355696D01*
X0515018Y0351759D01*
X0511082Y0351759D02*
X0511082Y0355696D01*
X0512066Y0356680D01*
X0514034Y0356680D01*
X0515018Y0355696D01*
X0508941Y0353728D02*
X0505004Y0353728D01*
X0507957Y0356680D01*
X0507957Y0350775D01*
X0502864Y0350775D02*
X0502864Y0356680D01*
X0498927Y0356680D02*
X0502864Y0350775D01*
X0498927Y0350775D02*
X0498927Y0356680D01*
X0494818Y0356680D02*
X0494818Y0350775D01*
X0492850Y0350775D02*
X0496787Y0350775D01*
X0492850Y0354712D02*
X0494818Y0356680D01*
X0447173Y0369353D02*
X0443236Y0369353D01*
X0446188Y0372305D01*
X0446188Y0366400D01*
X0441095Y0367384D02*
X0441095Y0368368D01*
X0440111Y0369353D01*
X0437159Y0369353D01*
X0437159Y0367384D01*
X0438143Y0366400D01*
X0440111Y0366400D01*
X0441095Y0367384D01*
X0439127Y0371321D02*
X0437159Y0369353D01*
X0439127Y0371321D02*
X0441095Y0372305D01*
X0435018Y0372305D02*
X0435018Y0371321D01*
X0431082Y0367384D01*
X0431082Y0366400D01*
X0427957Y0366400D02*
X0427957Y0372305D01*
X0425004Y0369353D01*
X0428941Y0369353D01*
X0431082Y0372305D02*
X0435018Y0372305D01*
X0422864Y0372305D02*
X0422864Y0366400D01*
X0418927Y0372305D01*
X0418927Y0366400D01*
X0416787Y0366400D02*
X0412850Y0366400D01*
X0414818Y0366400D02*
X0414818Y0372305D01*
X0412850Y0370337D01*
X0410995Y0357105D02*
X0411980Y0356121D01*
X0411980Y0355137D01*
X0410995Y0354153D01*
X0411980Y0353168D01*
X0411980Y0352184D01*
X0410995Y0351200D01*
X0409027Y0351200D01*
X0408043Y0352184D01*
X0405902Y0352184D02*
X0405902Y0353168D01*
X0404918Y0354153D01*
X0403934Y0354153D01*
X0404918Y0354153D02*
X0405902Y0355137D01*
X0405902Y0356121D01*
X0404918Y0357105D01*
X0402950Y0357105D01*
X0401966Y0356121D01*
X0401966Y0352184D02*
X0402950Y0351200D01*
X0404918Y0351200D01*
X0405902Y0352184D01*
X0408043Y0356121D02*
X0409027Y0357105D01*
X0410995Y0357105D01*
X0410995Y0354153D02*
X0410011Y0354153D01*
X0399911Y0352184D02*
X0399911Y0351200D01*
X0398927Y0351200D01*
X0398927Y0352184D01*
X0399911Y0352184D01*
X0396787Y0352184D02*
X0395803Y0351200D01*
X0393834Y0351200D01*
X0392850Y0352184D01*
X0396787Y0356121D01*
X0396787Y0352184D01*
X0396787Y0356121D02*
X0395803Y0357105D01*
X0393834Y0357105D01*
X0392850Y0356121D01*
X0392850Y0352184D01*
X0483350Y0394400D02*
X0487287Y0398337D01*
X0487287Y0399321D01*
X0486303Y0400305D01*
X0484334Y0400305D01*
X0483350Y0399321D01*
X0483350Y0394400D02*
X0487287Y0394400D01*
X0489427Y0394400D02*
X0493364Y0398337D01*
X0493364Y0399321D01*
X0492380Y0400305D01*
X0490411Y0400305D01*
X0489427Y0399321D01*
X0489427Y0394400D02*
X0493364Y0394400D01*
X0495504Y0395384D02*
X0499441Y0399321D01*
X0499441Y0395384D01*
X0498457Y0394400D01*
X0496489Y0394400D01*
X0495504Y0395384D01*
X0495504Y0399321D01*
X0496489Y0400305D01*
X0498457Y0400305D01*
X0499441Y0399321D01*
X0501582Y0400305D02*
X0501582Y0394400D01*
X0501582Y0396368D02*
X0505518Y0400305D01*
X0502566Y0397353D02*
X0505518Y0394400D01*
X0526138Y0404259D02*
X0530074Y0408196D01*
X0530074Y0404259D01*
X0529090Y0403275D01*
X0527122Y0403275D01*
X0526138Y0404259D01*
X0526138Y0408196D01*
X0527122Y0409180D01*
X0529090Y0409180D01*
X0530074Y0408196D01*
X0532215Y0404259D02*
X0533199Y0404259D01*
X0533199Y0403275D01*
X0532215Y0403275D01*
X0532215Y0404259D01*
X0535254Y0404259D02*
X0539190Y0408196D01*
X0539190Y0404259D01*
X0538206Y0403275D01*
X0536238Y0403275D01*
X0535254Y0404259D01*
X0535254Y0408196D01*
X0536238Y0409180D01*
X0538206Y0409180D01*
X0539190Y0408196D01*
X0541331Y0407212D02*
X0543299Y0409180D01*
X0543299Y0403275D01*
X0541331Y0403275D02*
X0545267Y0403275D01*
X0547408Y0404259D02*
X0548392Y0403275D01*
X0550360Y0403275D01*
X0551345Y0404259D01*
X0551345Y0409180D01*
X0553485Y0409180D02*
X0557422Y0409180D01*
X0555453Y0406228D02*
X0553485Y0406228D01*
X0553485Y0409180D02*
X0553485Y0403275D01*
X0547408Y0404259D02*
X0547408Y0409180D01*
D15*
X0564724Y0405144D02*
X0653307Y0405144D01*
X0653307Y0326956D01*
X0564724Y0326956D01*
X0564724Y0405144D01*
X0564724Y0306522D02*
X0653307Y0306522D01*
X0653307Y0275578D01*
X0564724Y0275578D01*
X0564724Y0306522D01*
X0564724Y0254318D02*
X0653307Y0254318D01*
X0653307Y0207782D01*
X0564724Y0207782D01*
X0564724Y0254318D01*
X0564724Y0184318D02*
X0653307Y0184318D01*
X0653307Y0137782D01*
X0564724Y0137782D01*
X0564724Y0184318D01*
X0445000Y0181050D02*
X0437500Y0181050D01*
X0437500Y0221050D01*
X0445000Y0221050D01*
X0445000Y0181050D01*
X0437500Y0181050D02*
X0437498Y0181148D01*
X0437492Y0181246D01*
X0437483Y0181344D01*
X0437469Y0181441D01*
X0437452Y0181538D01*
X0437431Y0181634D01*
X0437406Y0181729D01*
X0437378Y0181823D01*
X0437345Y0181915D01*
X0437310Y0182007D01*
X0437270Y0182097D01*
X0437228Y0182185D01*
X0437181Y0182272D01*
X0437132Y0182356D01*
X0437079Y0182439D01*
X0437023Y0182519D01*
X0436963Y0182598D01*
X0436901Y0182674D01*
X0436836Y0182747D01*
X0436768Y0182818D01*
X0436697Y0182886D01*
X0436624Y0182951D01*
X0436548Y0183013D01*
X0436469Y0183073D01*
X0436389Y0183129D01*
X0436306Y0183182D01*
X0436222Y0183231D01*
X0436135Y0183278D01*
X0436047Y0183320D01*
X0435957Y0183360D01*
X0435865Y0183395D01*
X0435773Y0183428D01*
X0435679Y0183456D01*
X0435584Y0183481D01*
X0435488Y0183502D01*
X0435391Y0183519D01*
X0435294Y0183533D01*
X0435196Y0183542D01*
X0435098Y0183548D01*
X0435000Y0183550D01*
X0434902Y0183548D01*
X0434804Y0183542D01*
X0434706Y0183533D01*
X0434609Y0183519D01*
X0434512Y0183502D01*
X0434416Y0183481D01*
X0434321Y0183456D01*
X0434227Y0183428D01*
X0434135Y0183395D01*
X0434043Y0183360D01*
X0433953Y0183320D01*
X0433865Y0183278D01*
X0433778Y0183231D01*
X0433694Y0183182D01*
X0433611Y0183129D01*
X0433531Y0183073D01*
X0433452Y0183013D01*
X0433376Y0182951D01*
X0433303Y0182886D01*
X0433232Y0182818D01*
X0433164Y0182747D01*
X0433099Y0182674D01*
X0433037Y0182598D01*
X0432977Y0182519D01*
X0432921Y0182439D01*
X0432868Y0182356D01*
X0432819Y0182272D01*
X0432772Y0182185D01*
X0432730Y0182097D01*
X0432690Y0182007D01*
X0432655Y0181915D01*
X0432622Y0181823D01*
X0432594Y0181729D01*
X0432569Y0181634D01*
X0432548Y0181538D01*
X0432531Y0181441D01*
X0432517Y0181344D01*
X0432508Y0181246D01*
X0432502Y0181148D01*
X0432500Y0181050D01*
X0432500Y0221050D01*
X0345000Y0221050D01*
X0345000Y0181050D01*
X0432500Y0181050D01*
X0432500Y0221050D02*
X0432502Y0220952D01*
X0432508Y0220854D01*
X0432517Y0220756D01*
X0432531Y0220659D01*
X0432548Y0220562D01*
X0432569Y0220466D01*
X0432594Y0220371D01*
X0432622Y0220277D01*
X0432655Y0220185D01*
X0432690Y0220093D01*
X0432730Y0220003D01*
X0432772Y0219915D01*
X0432819Y0219828D01*
X0432868Y0219744D01*
X0432921Y0219661D01*
X0432977Y0219581D01*
X0433037Y0219502D01*
X0433099Y0219426D01*
X0433164Y0219353D01*
X0433232Y0219282D01*
X0433303Y0219214D01*
X0433376Y0219149D01*
X0433452Y0219087D01*
X0433531Y0219027D01*
X0433611Y0218971D01*
X0433694Y0218918D01*
X0433778Y0218869D01*
X0433865Y0218822D01*
X0433953Y0218780D01*
X0434043Y0218740D01*
X0434135Y0218705D01*
X0434227Y0218672D01*
X0434321Y0218644D01*
X0434416Y0218619D01*
X0434512Y0218598D01*
X0434609Y0218581D01*
X0434706Y0218567D01*
X0434804Y0218558D01*
X0434902Y0218552D01*
X0435000Y0218550D01*
X0435098Y0218552D01*
X0435196Y0218558D01*
X0435294Y0218567D01*
X0435391Y0218581D01*
X0435488Y0218598D01*
X0435584Y0218619D01*
X0435679Y0218644D01*
X0435773Y0218672D01*
X0435865Y0218705D01*
X0435957Y0218740D01*
X0436047Y0218780D01*
X0436135Y0218822D01*
X0436222Y0218869D01*
X0436306Y0218918D01*
X0436389Y0218971D01*
X0436469Y0219027D01*
X0436548Y0219087D01*
X0436624Y0219149D01*
X0436697Y0219214D01*
X0436768Y0219282D01*
X0436836Y0219353D01*
X0436901Y0219426D01*
X0436963Y0219502D01*
X0437023Y0219581D01*
X0437079Y0219661D01*
X0437132Y0219744D01*
X0437181Y0219828D01*
X0437228Y0219915D01*
X0437270Y0220003D01*
X0437310Y0220093D01*
X0437345Y0220185D01*
X0437378Y0220277D01*
X0437406Y0220371D01*
X0437431Y0220466D01*
X0437452Y0220562D01*
X0437469Y0220659D01*
X0437483Y0220756D01*
X0437492Y0220854D01*
X0437498Y0220952D01*
X0437500Y0221050D01*
X0437500Y0241050D02*
X0437500Y0281050D01*
X0445000Y0281050D01*
X0445000Y0241050D01*
X0437500Y0241050D01*
X0437498Y0241148D01*
X0437492Y0241246D01*
X0437483Y0241344D01*
X0437469Y0241441D01*
X0437452Y0241538D01*
X0437431Y0241634D01*
X0437406Y0241729D01*
X0437378Y0241823D01*
X0437345Y0241915D01*
X0437310Y0242007D01*
X0437270Y0242097D01*
X0437228Y0242185D01*
X0437181Y0242272D01*
X0437132Y0242356D01*
X0437079Y0242439D01*
X0437023Y0242519D01*
X0436963Y0242598D01*
X0436901Y0242674D01*
X0436836Y0242747D01*
X0436768Y0242818D01*
X0436697Y0242886D01*
X0436624Y0242951D01*
X0436548Y0243013D01*
X0436469Y0243073D01*
X0436389Y0243129D01*
X0436306Y0243182D01*
X0436222Y0243231D01*
X0436135Y0243278D01*
X0436047Y0243320D01*
X0435957Y0243360D01*
X0435865Y0243395D01*
X0435773Y0243428D01*
X0435679Y0243456D01*
X0435584Y0243481D01*
X0435488Y0243502D01*
X0435391Y0243519D01*
X0435294Y0243533D01*
X0435196Y0243542D01*
X0435098Y0243548D01*
X0435000Y0243550D01*
X0434902Y0243548D01*
X0434804Y0243542D01*
X0434706Y0243533D01*
X0434609Y0243519D01*
X0434512Y0243502D01*
X0434416Y0243481D01*
X0434321Y0243456D01*
X0434227Y0243428D01*
X0434135Y0243395D01*
X0434043Y0243360D01*
X0433953Y0243320D01*
X0433865Y0243278D01*
X0433778Y0243231D01*
X0433694Y0243182D01*
X0433611Y0243129D01*
X0433531Y0243073D01*
X0433452Y0243013D01*
X0433376Y0242951D01*
X0433303Y0242886D01*
X0433232Y0242818D01*
X0433164Y0242747D01*
X0433099Y0242674D01*
X0433037Y0242598D01*
X0432977Y0242519D01*
X0432921Y0242439D01*
X0432868Y0242356D01*
X0432819Y0242272D01*
X0432772Y0242185D01*
X0432730Y0242097D01*
X0432690Y0242007D01*
X0432655Y0241915D01*
X0432622Y0241823D01*
X0432594Y0241729D01*
X0432569Y0241634D01*
X0432548Y0241538D01*
X0432531Y0241441D01*
X0432517Y0241344D01*
X0432508Y0241246D01*
X0432502Y0241148D01*
X0432500Y0241050D01*
X0432500Y0281050D01*
X0345000Y0281050D01*
X0345000Y0241050D01*
X0432500Y0241050D01*
X0432500Y0281050D02*
X0432502Y0280952D01*
X0432508Y0280854D01*
X0432517Y0280756D01*
X0432531Y0280659D01*
X0432548Y0280562D01*
X0432569Y0280466D01*
X0432594Y0280371D01*
X0432622Y0280277D01*
X0432655Y0280185D01*
X0432690Y0280093D01*
X0432730Y0280003D01*
X0432772Y0279915D01*
X0432819Y0279828D01*
X0432868Y0279744D01*
X0432921Y0279661D01*
X0432977Y0279581D01*
X0433037Y0279502D01*
X0433099Y0279426D01*
X0433164Y0279353D01*
X0433232Y0279282D01*
X0433303Y0279214D01*
X0433376Y0279149D01*
X0433452Y0279087D01*
X0433531Y0279027D01*
X0433611Y0278971D01*
X0433694Y0278918D01*
X0433778Y0278869D01*
X0433865Y0278822D01*
X0433953Y0278780D01*
X0434043Y0278740D01*
X0434135Y0278705D01*
X0434227Y0278672D01*
X0434321Y0278644D01*
X0434416Y0278619D01*
X0434512Y0278598D01*
X0434609Y0278581D01*
X0434706Y0278567D01*
X0434804Y0278558D01*
X0434902Y0278552D01*
X0435000Y0278550D01*
X0435098Y0278552D01*
X0435196Y0278558D01*
X0435294Y0278567D01*
X0435391Y0278581D01*
X0435488Y0278598D01*
X0435584Y0278619D01*
X0435679Y0278644D01*
X0435773Y0278672D01*
X0435865Y0278705D01*
X0435957Y0278740D01*
X0436047Y0278780D01*
X0436135Y0278822D01*
X0436222Y0278869D01*
X0436306Y0278918D01*
X0436389Y0278971D01*
X0436469Y0279027D01*
X0436548Y0279087D01*
X0436624Y0279149D01*
X0436697Y0279214D01*
X0436768Y0279282D01*
X0436836Y0279353D01*
X0436901Y0279426D01*
X0436963Y0279502D01*
X0437023Y0279581D01*
X0437079Y0279661D01*
X0437132Y0279744D01*
X0437181Y0279828D01*
X0437228Y0279915D01*
X0437270Y0280003D01*
X0437310Y0280093D01*
X0437345Y0280185D01*
X0437378Y0280277D01*
X0437406Y0280371D01*
X0437431Y0280466D01*
X0437452Y0280562D01*
X0437469Y0280659D01*
X0437483Y0280756D01*
X0437492Y0280854D01*
X0437498Y0280952D01*
X0437500Y0281050D01*
X0037000Y0405050D02*
X0037000Y0406050D01*
X0037000Y0405050D02*
X0015000Y0405050D01*
X0005000Y0395050D01*
X0005000Y0057050D01*
X0015000Y0047050D01*
X0037000Y0047050D01*
X0037000Y0046050D01*
D16*
X0165000Y0385550D03*
X0260000Y0405550D03*
X0410000Y0406550D03*
X0445000Y0395550D03*
X0540000Y0364925D03*
D17*
X0540000Y0358925D03*
X0540000Y0381925D03*
X0445000Y0389550D03*
X0445000Y0412550D03*
X0410000Y0412550D03*
X0410000Y0389550D03*
X0260000Y0399550D03*
X0260000Y0422550D03*
X0165000Y0402550D03*
X0165000Y0379550D03*
D18*
X0475500Y0231050D03*
D19*
X0481500Y0231050D03*
X0458500Y0231050D03*
D20*
X0403000Y0306050D03*
X0367000Y0306050D03*
X0323000Y0306050D03*
X0287000Y0306050D03*
X0243000Y0306050D03*
X0207000Y0306050D03*
X0163000Y0306050D03*
X0127000Y0306050D03*
X0127000Y0341050D03*
X0163000Y0341050D03*
X0207000Y0341050D03*
X0243000Y0341050D03*
X0287000Y0341050D03*
X0323000Y0341050D03*
X0367000Y0341050D03*
X0403000Y0341050D03*
D21*
X0039800Y0396646D02*
X0039800Y0399715D01*
X0039800Y0398181D02*
X0035196Y0398181D01*
X0036731Y0396646D01*
X0036731Y0054715D02*
X0035963Y0054715D01*
X0035196Y0053948D01*
X0035196Y0052413D01*
X0035963Y0051646D01*
X0035963Y0050111D02*
X0035196Y0049344D01*
X0035196Y0047809D01*
X0035963Y0047042D01*
X0035963Y0050111D02*
X0036731Y0050111D01*
X0039800Y0047042D01*
X0039800Y0050111D01*
X0039800Y0051646D02*
X0036731Y0054715D01*
X0039800Y0054715D02*
X0039800Y0051646D01*
M02*
