G75*
%MOIN*%
%OFA0B0*%
%FSLAX25Y25*%
%IPPOS*%
%LPD*%
%AMOC8*
5,1,8,0,0,1.08239X$1,22.5*
%
%ADD10C,0.10000*%
%ADD11C,0.08600*%
%ADD12C,0.11811*%
%ADD13C,0.03937*%
%ADD14R,0.32500X0.07500*%
%ADD15C,0.05000*%
%ADD16C,0.06150*%
%ADD17C,0.03200*%
%ADD18C,0.04000*%
D10*
X0505000Y0315207D03*
X0505000Y0334893D03*
X0515000Y0370582D03*
X0515000Y0390268D03*
D11*
X0540000Y0390425D03*
X0540000Y0350425D03*
X0475000Y0381050D03*
X0445000Y0381050D03*
X0410000Y0381050D03*
X0355000Y0411050D03*
X0345000Y0431050D03*
X0305000Y0421050D03*
X0260000Y0431050D03*
X0260000Y0391050D03*
X0305000Y0381050D03*
X0345000Y0381050D03*
X0330000Y0341050D03*
X0360000Y0341050D03*
X0360000Y0306050D03*
X0330000Y0306050D03*
X0280000Y0306050D03*
X0250000Y0306050D03*
X0250000Y0341050D03*
X0280000Y0341050D03*
X0200000Y0341050D03*
X0170000Y0341050D03*
X0165000Y0371050D03*
X0120000Y0341050D03*
X0120000Y0306050D03*
X0170000Y0306050D03*
X0200000Y0306050D03*
X0330000Y0261050D03*
X0410000Y0306050D03*
X0410000Y0341050D03*
X0410000Y0421050D03*
X0445000Y0421050D03*
X0475000Y0421050D03*
X0460000Y0261050D03*
X0450000Y0231050D03*
X0490000Y0231050D03*
X0460000Y0201050D03*
X0330000Y0201050D03*
X0165000Y0411050D03*
D12*
X0574567Y0397300D03*
X0574567Y0381675D03*
X0574567Y0366050D03*
X0574567Y0350425D03*
X0574567Y0334800D03*
X0574567Y0298863D03*
X0574567Y0283238D03*
X0574567Y0246675D03*
X0574567Y0231050D03*
X0574567Y0215425D03*
X0574567Y0176675D03*
X0574567Y0161050D03*
X0574567Y0145425D03*
D13*
X0605000Y0026050D03*
X0150000Y0426050D03*
D14*
X0024000Y0062250D03*
X0024000Y0077850D03*
X0024000Y0093450D03*
X0024000Y0109050D03*
X0024000Y0124650D03*
X0024000Y0140250D03*
X0024000Y0155850D03*
X0024000Y0171450D03*
X0024000Y0187050D03*
X0024000Y0202650D03*
X0024000Y0218250D03*
X0024000Y0233850D03*
X0024000Y0249450D03*
X0024000Y0265050D03*
X0024000Y0280650D03*
X0024000Y0296250D03*
X0024000Y0311850D03*
X0024000Y0327450D03*
X0024000Y0343050D03*
X0024000Y0358650D03*
X0024000Y0374250D03*
X0024000Y0389850D03*
D15*
X0024000Y0343050D02*
X0060000Y0343050D01*
X0077000Y0343050D01*
D16*
X0077000Y0343050D03*
X0060000Y0343050D03*
D17*
X0060000Y0343550D01*
D18*
X0410000Y0341050D02*
X0480000Y0341050D01*
X0492500Y0353550D01*
X0492500Y0396050D01*
X0510000Y0413550D01*
X0580000Y0413550D01*
X0590000Y0403550D01*
X0590000Y0386050D01*
X0585625Y0381675D01*
X0574567Y0381675D01*
X0563000Y0389050D02*
X0570000Y0396050D01*
X0573317Y0396050D01*
X0574567Y0397300D01*
X0563000Y0389050D02*
X0563000Y0310429D01*
X0574567Y0298863D01*
X0540000Y0350425D02*
X0540000Y0156050D01*
X0550625Y0145425D01*
X0574567Y0145425D01*
M02*
