%
M48
M72
T01C0.0276
T02C0.0315
T03C0.0320
T04C0.0354
T05C0.0433
T06C0.0787
%
T01
X51500Y39027
X50500Y33489
X50500Y31521
X51500Y37058
T02
X6000Y34305
X7700Y34305
X34500Y43105
X35500Y41105
X34500Y38105
X46000Y26105
X46000Y20105
X33000Y26105
X33000Y20105
T03
X12000Y34105
X17000Y30605
X20000Y34105
X28000Y34105
X25000Y30605
X33000Y30605
X36000Y34105
X41000Y30605
T04
X12000Y30605
X20000Y30605
X17000Y34105
X30500Y42105
X30500Y38105
X25000Y34105
X28000Y30605
X36000Y30605
X33000Y34105
X41000Y34105
X47500Y42105
X47500Y38105
T05
X16500Y37105
X16500Y41105
X26000Y43105
X26000Y39105
X45000Y23105
X49000Y23105
X54000Y39043
X44500Y42105
X41000Y42105
X41000Y38105
X44500Y38105
X54000Y35043
T06
X57457Y23105
X57457Y24668
X57457Y21543
X57457Y17668
X57457Y16105
X57457Y14543
X57457Y28324
X57457Y29886
X57457Y38168
X57457Y39730
X57457Y36605
X57457Y35043
X57457Y33480
M30
