G75*
%MOIN*%
%OFA0B0*%
%FSLAX25Y25*%
%IPPOS*%
%LPD*%
%AMOC8*
5,1,8,0,0,1.08239X$1,22.5*
%
%ADD10C,0.10800*%
%ADD11C,0.07400*%
%ADD12C,0.06000*%
%ADD13C,0.09400*%
%ADD14R,0.33300X0.08300*%
%ADD15C,0.06950*%
%ADD16C,0.06800*%
D10*
X0270000Y0136207D03*
X0270000Y0155893D03*
X0480000Y0140893D03*
X0480000Y0121207D03*
X0570000Y0110893D03*
X0570000Y0091207D03*
X0580000Y0326207D03*
X0580000Y0345893D03*
X0530000Y0345893D03*
X0530000Y0326207D03*
X0151000Y0370207D03*
X0151000Y0389893D03*
D11*
X0212283Y0361050D03*
X0247717Y0361050D03*
X0230000Y0385933D03*
X0280000Y0385933D03*
X0280000Y0421367D03*
X0230000Y0421367D03*
X0330000Y0421367D03*
X0380000Y0421367D03*
X0380000Y0385933D03*
X0330000Y0385933D03*
X0280000Y0323550D03*
X0272500Y0316050D03*
X0280000Y0308550D03*
X0280000Y0276567D03*
X0230000Y0276567D03*
X0230000Y0241133D03*
X0235000Y0213767D03*
X0280000Y0241133D03*
X0305000Y0198767D03*
X0305000Y0163333D03*
X0355000Y0178767D03*
X0385000Y0198333D03*
X0420000Y0168767D03*
X0430000Y0198550D03*
X0460000Y0198550D03*
X0470000Y0213333D03*
X0470000Y0248767D03*
X0455000Y0263333D03*
X0455000Y0298767D03*
X0520000Y0275750D03*
X0527500Y0268250D03*
X0520000Y0260750D03*
X0590000Y0253550D03*
X0615000Y0268333D03*
X0590000Y0283550D03*
X0615000Y0303767D03*
X0580000Y0385933D03*
X0580000Y0421367D03*
X0530000Y0421367D03*
X0480000Y0421367D03*
X0480000Y0385933D03*
X0530000Y0385933D03*
X0430000Y0385933D03*
X0430000Y0421367D03*
X0217717Y0321050D03*
X0182283Y0321050D03*
X0105000Y0243767D03*
X0105000Y0208333D03*
X0165000Y0208767D03*
X0165000Y0173333D03*
X0165000Y0143550D03*
X0172500Y0136050D03*
X0165000Y0128550D03*
X0187000Y0091767D03*
X0187000Y0056333D03*
X0087000Y0056333D03*
X0087000Y0091767D03*
X0235000Y0178333D03*
X0355000Y0143333D03*
X0420000Y0133333D03*
X0390000Y0091767D03*
X0390000Y0056333D03*
X0330000Y0056333D03*
X0330000Y0091767D03*
X0460000Y0066050D03*
X0500000Y0051050D03*
X0530000Y0070833D03*
X0500000Y0081050D03*
X0530000Y0106267D03*
X0565000Y0138333D03*
X0590000Y0138333D03*
X0615000Y0138333D03*
X0615000Y0118767D03*
X0615000Y0083333D03*
X0545000Y0161050D03*
X0565000Y0173767D03*
X0590000Y0173767D03*
X0615000Y0173767D03*
X0545000Y0191050D03*
X0385000Y0233767D03*
X0460000Y0036050D03*
D12*
X0437071Y0040550D03*
X0430000Y0033479D03*
X0430000Y0047621D03*
X0380000Y0113979D03*
X0387071Y0121050D03*
X0380000Y0128121D03*
X0325000Y0128121D03*
X0317929Y0121050D03*
X0325000Y0113979D03*
X0212071Y0106050D03*
X0205000Y0113121D03*
X0205000Y0098979D03*
X0205000Y0148979D03*
X0212071Y0156050D03*
X0205000Y0163121D03*
X0112071Y0106050D03*
X0105000Y0113121D03*
X0105000Y0098979D03*
X0355000Y0248979D03*
X0362071Y0256050D03*
X0355000Y0263121D03*
X0410000Y0263121D03*
X0417071Y0256050D03*
X0410000Y0248979D03*
X0520000Y0163121D03*
X0527071Y0156050D03*
X0520000Y0148979D03*
X0575000Y0208979D03*
X0582071Y0216050D03*
X0575000Y0223121D03*
X0480000Y0345179D03*
X0487071Y0352250D03*
X0480000Y0359321D03*
X0437071Y0352250D03*
X0430000Y0345179D03*
X0430000Y0359321D03*
X0387071Y0352250D03*
X0380000Y0359321D03*
X0380000Y0345179D03*
X0337071Y0352250D03*
X0330000Y0345179D03*
X0330000Y0359321D03*
X0287071Y0352250D03*
X0280000Y0345179D03*
X0280000Y0359321D03*
X0237071Y0336050D03*
X0230000Y0343121D03*
X0230000Y0328979D03*
X0230000Y0303121D03*
X0237071Y0296050D03*
X0230000Y0288979D03*
D13*
X0175000Y0380850D03*
X0185000Y0410850D03*
X0175000Y0430850D03*
D14*
X0024000Y0062250D03*
X0024000Y0077850D03*
X0024000Y0093450D03*
X0024000Y0109050D03*
X0024000Y0124650D03*
X0024000Y0140250D03*
X0024000Y0155850D03*
X0024000Y0171450D03*
X0024000Y0187050D03*
X0024000Y0202650D03*
X0024000Y0218250D03*
X0024000Y0233850D03*
X0024000Y0249450D03*
X0024000Y0265050D03*
X0024000Y0280650D03*
X0024000Y0296250D03*
X0024000Y0311850D03*
X0024000Y0327450D03*
X0024000Y0343050D03*
X0024000Y0358650D03*
X0024000Y0374250D03*
X0024000Y0389850D03*
D15*
X0060000Y0358650D03*
X0080000Y0358650D03*
X0080000Y0343050D03*
X0060000Y0343050D03*
D16*
X0147600Y0351350D03*
X0169300Y0280050D03*
M02*
