G75*
%MOIN*%
%OFA0B0*%
%FSLAX25Y25*%
%IPPOS*%
%LPD*%
%AMOC8*
5,1,8,0,0,1.08239X$1,22.5*
%
%ADD10C,0.10000*%
%ADD11C,0.08600*%
%ADD12C,0.06600*%
%ADD13C,0.05200*%
%ADD14R,0.32500X0.07500*%
%ADD15C,0.05000*%
%ADD16C,0.03200*%
%ADD17C,0.04000*%
%ADD18C,0.06150*%
%ADD19C,0.06000*%
D10*
X0270000Y0136207D03*
X0270000Y0155893D03*
X0480000Y0140893D03*
X0480000Y0121207D03*
X0570000Y0110893D03*
X0570000Y0091207D03*
X0580000Y0326207D03*
X0580000Y0345893D03*
X0530000Y0345893D03*
X0530000Y0326207D03*
X0151000Y0370207D03*
X0151000Y0389893D03*
X0115000Y0389841D03*
X0115000Y0301259D03*
D11*
X0165000Y0313686D03*
X0165000Y0343214D03*
X0175000Y0380850D03*
X0185000Y0410850D03*
X0175000Y0430850D03*
X0300000Y0285814D03*
X0300000Y0256286D03*
X0195000Y0255814D03*
X0195000Y0226286D03*
X0142600Y0202914D03*
X0142600Y0173386D03*
D12*
X0165000Y0173333D03*
X0165000Y0143550D03*
X0172500Y0136050D03*
X0165000Y0128550D03*
X0187000Y0091767D03*
X0187000Y0056333D03*
X0087000Y0056333D03*
X0087000Y0091767D03*
X0235000Y0178333D03*
X0235000Y0213767D03*
X0230000Y0241133D03*
X0280000Y0241133D03*
X0280000Y0276567D03*
X0280000Y0308550D03*
X0272500Y0316050D03*
X0280000Y0323550D03*
X0247717Y0361050D03*
X0212283Y0361050D03*
X0230000Y0385933D03*
X0280000Y0385933D03*
X0280000Y0421367D03*
X0230000Y0421367D03*
X0330000Y0421367D03*
X0380000Y0421367D03*
X0380000Y0385933D03*
X0330000Y0385933D03*
X0430000Y0385933D03*
X0430000Y0421367D03*
X0480000Y0421367D03*
X0530000Y0421367D03*
X0530000Y0385933D03*
X0480000Y0385933D03*
X0580000Y0385933D03*
X0580000Y0421367D03*
X0615000Y0303767D03*
X0590000Y0283550D03*
X0615000Y0268333D03*
X0590000Y0253550D03*
X0527500Y0268250D03*
X0520000Y0275750D03*
X0520000Y0260750D03*
X0470000Y0248767D03*
X0455000Y0263333D03*
X0455000Y0298767D03*
X0385000Y0233767D03*
X0385000Y0198333D03*
X0355000Y0178767D03*
X0355000Y0143333D03*
X0305000Y0163333D03*
X0305000Y0198767D03*
X0230000Y0276567D03*
X0217717Y0321050D03*
X0182283Y0321050D03*
X0105000Y0243767D03*
X0105000Y0208333D03*
X0165000Y0208767D03*
X0330000Y0091767D03*
X0330000Y0056333D03*
X0390000Y0056333D03*
X0390000Y0091767D03*
X0420000Y0133333D03*
X0420000Y0168767D03*
X0430000Y0198550D03*
X0460000Y0198550D03*
X0470000Y0213333D03*
X0545000Y0191050D03*
X0565000Y0173767D03*
X0545000Y0161050D03*
X0565000Y0138333D03*
X0590000Y0138333D03*
X0615000Y0138333D03*
X0615000Y0118767D03*
X0615000Y0083333D03*
X0530000Y0070833D03*
X0500000Y0081050D03*
X0500000Y0051050D03*
X0460000Y0036050D03*
X0460000Y0066050D03*
X0530000Y0106267D03*
X0590000Y0173767D03*
X0615000Y0173767D03*
D13*
X0575000Y0208979D03*
X0582071Y0216050D03*
X0575000Y0223121D03*
X0520000Y0163121D03*
X0527071Y0156050D03*
X0520000Y0148979D03*
X0387071Y0121050D03*
X0380000Y0128121D03*
X0380000Y0113979D03*
X0325000Y0113979D03*
X0317929Y0121050D03*
X0325000Y0128121D03*
X0212071Y0106050D03*
X0205000Y0113121D03*
X0205000Y0098979D03*
X0205000Y0148979D03*
X0212071Y0156050D03*
X0205000Y0163121D03*
X0112071Y0106050D03*
X0105000Y0113121D03*
X0105000Y0098979D03*
X0355000Y0248979D03*
X0362071Y0256050D03*
X0355000Y0263121D03*
X0410000Y0263121D03*
X0417071Y0256050D03*
X0410000Y0248979D03*
X0430000Y0345179D03*
X0437071Y0352250D03*
X0430000Y0359321D03*
X0387071Y0352250D03*
X0380000Y0359321D03*
X0380000Y0345179D03*
X0337071Y0352250D03*
X0330000Y0345179D03*
X0330000Y0359321D03*
X0287071Y0352250D03*
X0280000Y0345179D03*
X0280000Y0359321D03*
X0237071Y0336050D03*
X0230000Y0343121D03*
X0230000Y0328979D03*
X0230000Y0303121D03*
X0237071Y0296050D03*
X0230000Y0288979D03*
X0480000Y0345179D03*
X0487071Y0352250D03*
X0480000Y0359321D03*
X0430000Y0047621D03*
X0437071Y0040550D03*
X0430000Y0033479D03*
D14*
X0024000Y0062250D03*
X0024000Y0077850D03*
X0024000Y0093450D03*
X0024000Y0109050D03*
X0024000Y0124650D03*
X0024000Y0140250D03*
X0024000Y0155850D03*
X0024000Y0171450D03*
X0024000Y0187050D03*
X0024000Y0202650D03*
X0024000Y0218250D03*
X0024000Y0233850D03*
X0024000Y0249450D03*
X0024000Y0265050D03*
X0024000Y0280650D03*
X0024000Y0296250D03*
X0024000Y0311850D03*
X0024000Y0327450D03*
X0024000Y0343050D03*
X0024000Y0358650D03*
X0024000Y0374250D03*
X0024000Y0389850D03*
D15*
X0074000Y0389850D01*
X0094600Y0410450D01*
X0095200Y0411050D02*
X0169000Y0411050D01*
X0179317Y0421367D01*
X0230000Y0421367D01*
X0263000Y0421367D01*
X0263000Y0259050D01*
X0225000Y0221050D01*
X0212717Y0208767D01*
X0165000Y0208767D01*
X0227717Y0221050D02*
X0235000Y0213767D01*
X0182283Y0321050D02*
X0175883Y0327450D01*
X0024000Y0327450D01*
X0024000Y0343050D02*
X0060000Y0343050D01*
X0080000Y0343050D01*
X0129000Y0343050D01*
X0131000Y0341050D01*
X0162836Y0341050D01*
X0165000Y0343214D01*
X0147600Y0351350D02*
X0140300Y0358650D01*
X0080000Y0358650D01*
X0024000Y0358650D01*
X0263000Y0421367D02*
X0280000Y0421367D01*
X0380000Y0421367D01*
X0430000Y0421367D02*
X0330000Y0421367D01*
X0430000Y0421367D02*
X0480000Y0421367D01*
X0530000Y0421367D01*
X0580000Y0421367D01*
X0589683Y0421367D01*
X0615000Y0396050D01*
X0615000Y0303767D01*
X0615000Y0286050D01*
X0605000Y0276050D01*
X0605000Y0231050D01*
X0615000Y0221050D01*
X0615000Y0173767D01*
D16*
X0590000Y0173767D02*
X0582717Y0173767D01*
X0575000Y0166050D01*
X0575000Y0131050D01*
X0565000Y0121050D01*
X0480157Y0121050D01*
X0480000Y0121207D01*
X0507071Y0148979D02*
X0500000Y0156050D01*
X0500000Y0176050D01*
X0527071Y0156050D02*
X0540000Y0156050D01*
X0545000Y0161050D01*
X0565000Y0156050D02*
X0565000Y0138333D01*
X0590000Y0138333D02*
X0599283Y0138333D01*
X0608000Y0147050D01*
X0622000Y0147050D01*
X0628000Y0141050D01*
X0628000Y0116050D01*
X0615000Y0103050D01*
X0615000Y0083333D01*
X0596717Y0083333D01*
X0589000Y0091050D01*
X0570157Y0091050D01*
X0570000Y0091207D01*
X0550374Y0091207D01*
X0530000Y0070833D01*
X0508000Y0066050D02*
X0552843Y0110893D01*
X0570000Y0110893D01*
X0577874Y0118767D01*
X0615000Y0118767D01*
X0615000Y0138333D01*
X0590000Y0173767D02*
X0590000Y0216050D01*
X0582071Y0216050D01*
X0590000Y0216050D02*
X0590000Y0253550D01*
X0590000Y0283550D02*
X0575000Y0283550D01*
X0575000Y0223121D01*
X0520000Y0231050D02*
X0520000Y0260750D01*
X0520000Y0231050D02*
X0485000Y0198550D01*
X0460000Y0198550D01*
X0430000Y0198550D02*
X0430000Y0218550D01*
X0437500Y0226050D01*
X0437500Y0271050D01*
X0380000Y0328550D01*
X0380000Y0345179D01*
X0380000Y0359321D02*
X0380000Y0385933D01*
X0330000Y0385933D02*
X0330000Y0359321D01*
X0330000Y0345179D02*
X0330000Y0321050D01*
X0341000Y0310050D01*
X0341000Y0276050D01*
X0420000Y0276050D01*
X0425000Y0271050D01*
X0425000Y0263979D01*
X0417071Y0256050D01*
X0455000Y0263333D02*
X0455433Y0263333D01*
X0470000Y0248767D01*
X0455000Y0298767D02*
X0455000Y0311050D01*
X0480000Y0336050D01*
X0480000Y0345179D01*
X0480000Y0359321D02*
X0480000Y0385933D01*
X0530000Y0385933D02*
X0530000Y0371050D01*
X0550000Y0351050D01*
X0550000Y0326207D01*
X0530000Y0326207D01*
X0550000Y0326207D02*
X0580000Y0326207D01*
X0580000Y0301050D01*
X0575000Y0296050D01*
X0575000Y0283550D01*
X0580000Y0345893D02*
X0580000Y0385933D01*
X0430000Y0385933D02*
X0430000Y0359321D01*
X0380000Y0421367D02*
X0330000Y0421367D01*
X0280000Y0385933D02*
X0280000Y0359321D01*
X0280000Y0345179D02*
X0280000Y0323550D01*
X0307500Y0323550D01*
X0325000Y0306050D01*
X0325000Y0128121D01*
X0341000Y0118050D02*
X0319000Y0096050D01*
X0270000Y0096050D01*
X0266000Y0100050D01*
X0266000Y0106050D01*
X0212071Y0106050D01*
X0205000Y0098979D02*
X0197788Y0091767D01*
X0187000Y0091767D01*
X0162000Y0106050D02*
X0181000Y0125050D01*
X0256000Y0125050D01*
X0266000Y0115050D01*
X0266000Y0106050D01*
X0292229Y0113821D02*
X0295000Y0111050D01*
X0322071Y0111050D01*
X0325000Y0113979D01*
X0341000Y0118050D02*
X0341000Y0263121D01*
X0355000Y0263121D01*
X0362071Y0256050D01*
X0341000Y0263121D02*
X0341000Y0276050D01*
X0300000Y0285814D02*
X0280236Y0285814D01*
X0280000Y0286050D01*
X0280000Y0276567D01*
X0280000Y0286050D02*
X0280000Y0308550D01*
X0240000Y0311050D02*
X0240000Y0298979D01*
X0237071Y0296050D01*
X0230000Y0288979D02*
X0230000Y0276567D01*
X0195000Y0291050D02*
X0125000Y0221050D01*
X0125000Y0176050D01*
X0073000Y0124050D01*
X0073000Y0083250D01*
X0052000Y0062250D01*
X0024000Y0062250D01*
X0087000Y0091767D02*
X0097788Y0091767D01*
X0105000Y0098979D01*
X0112071Y0106050D02*
X0162000Y0106050D01*
X0165000Y0143550D02*
X0165000Y0173333D01*
X0142600Y0173386D01*
X0212071Y0156050D02*
X0225000Y0156050D01*
X0245000Y0136050D01*
X0269843Y0136050D01*
X0270000Y0136207D01*
X0292229Y0113979D01*
X0292229Y0113821D01*
X0387071Y0121050D02*
X0407717Y0121050D01*
X0420000Y0133333D01*
X0507071Y0148979D02*
X0520000Y0148979D01*
X0508000Y0066050D02*
X0460000Y0066050D01*
X0440000Y0066050D01*
X0430000Y0056050D01*
X0430000Y0047621D01*
X0437071Y0040550D02*
X0450500Y0040550D01*
X0455000Y0036050D01*
X0460000Y0036050D01*
X0490000Y0036050D01*
X0500000Y0046050D01*
X0500000Y0051050D01*
X0227717Y0221050D02*
X0225000Y0221050D01*
X0195000Y0255425D02*
X0195000Y0255814D01*
X0195000Y0256675D01*
X0169300Y0280050D02*
X0092500Y0280050D01*
X0077500Y0265050D01*
X0024000Y0265050D01*
X0024000Y0296250D02*
X0074200Y0296250D01*
X0079209Y0301259D01*
X0115000Y0301259D01*
X0185000Y0341050D02*
X0195000Y0331050D01*
X0195000Y0291050D01*
X0217717Y0321050D02*
X0230000Y0321050D01*
X0240000Y0311050D01*
X0230000Y0343121D02*
X0230000Y0385933D01*
X0212283Y0361050D02*
X0211875Y0361050D01*
X0185000Y0341050D02*
X0185000Y0390050D01*
X0151157Y0390050D01*
X0151000Y0389893D01*
X0115051Y0389893D01*
X0115000Y0389841D01*
X0094600Y0410450D02*
X0095200Y0411050D01*
X0151000Y0370207D02*
X0164357Y0370207D01*
X0175000Y0380850D01*
X0185000Y0390050D02*
X0185000Y0410850D01*
D17*
X0211875Y0361050D02*
X0211875Y0347925D01*
X0205000Y0341050D01*
X0205000Y0283550D01*
X0195000Y0273550D01*
X0195000Y0256675D01*
X0195000Y0255425D02*
X0142600Y0202914D01*
X0270000Y0202300D02*
X0270000Y0155893D01*
X0270000Y0202300D02*
X0300000Y0232300D01*
X0300000Y0256286D01*
X0385000Y0233767D02*
X0394788Y0233767D01*
X0410000Y0248979D01*
X0411717Y0198333D02*
X0385000Y0198333D01*
X0411717Y0198333D02*
X0434000Y0176050D01*
X0500000Y0176050D01*
X0545000Y0176050D01*
X0565000Y0156050D01*
X0434000Y0176050D02*
X0434000Y0098550D01*
X0410000Y0074550D01*
X0410000Y0051050D01*
X0402642Y0043692D01*
X0390000Y0056333D01*
X0330000Y0056333D01*
X0187000Y0056333D01*
X0087000Y0056333D01*
X0402642Y0043692D02*
X0412855Y0033479D01*
X0430000Y0033479D01*
D18*
X0080000Y0343050D03*
X0060000Y0343050D03*
X0060000Y0358650D03*
X0080000Y0358650D03*
D19*
X0147600Y0351350D03*
X0169300Y0280050D03*
M02*
