%
M48
M72
T01C0.0276
T02C0.0300
T03C0.0315
T04C0.0320
T05C0.0354
T06C0.0394
%
T01
X15100Y37021
X15100Y38989
X48000Y14089
X48000Y12121
X27000Y15589
X27000Y13621
X53000Y34589
X58000Y34589
X58000Y32621
X53000Y32621
X57000Y11089
X57000Y9121
T02
X16930Y28005
X14760Y35135
T03
X17500Y38085
X18500Y41085
X17500Y43085
T04
X23000Y24113
X28000Y24113
X18228Y32105
X23000Y42137
X23000Y38593
X21228Y36105
X23000Y34312
X23707Y33605
X23000Y32898
X27250Y31605
X28000Y30855
X28000Y32355
X24772Y36105
X28000Y35932
X28707Y35225
X28000Y34518
X23000Y30312
X23707Y29605
X23000Y28898
X23000Y27657
X28000Y27657
X33707Y35225
X33000Y34518
X33000Y35932
X38000Y34518
X38707Y35225
X43000Y34518
X43707Y35225
X43000Y35932
X43000Y38593
X43000Y42137
X38000Y42137
X33000Y42137
X28000Y42137
X28000Y38593
X33000Y38593
X38000Y38593
X38000Y35932
X45500Y29877
X45500Y26333
X47000Y24877
X47000Y21333
X46000Y19855
X52000Y14898
X52707Y15605
X52000Y16312
X54500Y19105
X54500Y16105
X53000Y10627
X50000Y8105
X53000Y7083
X50000Y5105
X46000Y3605
X43707Y4055
X43000Y3348
X43000Y4762
X46000Y6605
X39000Y9177
X38000Y11398
X32500Y11398
X31793Y12105
X35500Y14333
X32500Y12812
X33000Y9177
X33000Y5633
X39000Y5633
X38707Y12105
X38000Y12812
X42000Y13333
X42000Y16877
X35500Y17877
X30500Y16333
X21207Y15605
X20500Y16312
X23500Y17833
X16500Y20877
X10500Y20833
X10500Y24377
X16500Y17333
X16500Y14355
X17250Y13605
X16500Y12855
X20500Y11312
X21207Y10605
X20500Y9898
X18700Y9177
X18700Y5633
X11207Y10605
X10500Y11312
X10500Y9898
X8700Y9177
X8700Y5633
X20500Y14898
X23500Y21377
X30500Y19877
X35500Y24898
X36207Y25605
X35500Y26312
X38500Y23377
X41000Y24898
X41707Y25605
X41000Y26312
X61500Y30377
X59000Y28355
X52750Y26825
X52000Y27575
X52000Y26075
X48000Y34518
X48707Y35225
X48000Y35932
X48000Y38593
X48000Y42137
X53000Y42137
X53000Y38593
X58000Y38593
X58000Y42137
X61500Y26833
X59000Y25355
X57500Y22312
X58207Y21605
X57500Y20898
X56500Y17377
X56500Y13833
X59000Y13833
X61500Y13833
X61500Y11877
X61500Y8333
X61500Y17377
X59000Y17377
X43000Y19855
X38500Y19833
X21772Y32105
T05
X19500Y25581
X16500Y31369
X16500Y34321
X30000Y28581
X19500Y22629
X14260Y20291
X14260Y17339
X30000Y25629
T06
X11500Y38984
X11500Y30126
M30
