G75*
%MOIN*%
%OFA0B0*%
%FSLAX25Y25*%
%IPPOS*%
%LPD*%
%AMOC8*
5,1,8,0,0,1.08239X$1,22.5*
%
%ADD10C,0.10800*%
%ADD11R,0.33300X0.08300*%
%ADD12C,0.09400*%
%ADD13C,0.06000*%
%ADD14C,0.00500*%
%ADD15C,0.04762*%
D10*
X0335157Y0280050D03*
X0354843Y0280050D03*
X0425157Y0275850D03*
X0444843Y0275850D03*
X0505000Y0303207D03*
X0505000Y0322893D03*
X0505000Y0369207D03*
X0505000Y0388893D03*
X0444843Y0406550D03*
X0425157Y0406550D03*
X0359843Y0401050D03*
X0340157Y0401050D03*
X0269843Y0302550D03*
X0250157Y0302550D03*
X0179843Y0302550D03*
X0160157Y0302550D03*
X0505000Y0243893D03*
X0505000Y0224207D03*
X0505000Y0183893D03*
X0505000Y0164207D03*
D11*
X0024000Y0062250D03*
X0024000Y0077850D03*
X0024000Y0093450D03*
X0024000Y0109050D03*
X0024000Y0124650D03*
X0024000Y0140250D03*
X0024000Y0155850D03*
X0024000Y0171450D03*
X0024000Y0187050D03*
X0024000Y0202650D03*
X0024000Y0218250D03*
X0024000Y0233850D03*
X0024000Y0249450D03*
X0024000Y0265050D03*
X0024000Y0280650D03*
X0024000Y0296250D03*
X0024000Y0311850D03*
X0024000Y0327450D03*
X0024000Y0343050D03*
X0024000Y0358650D03*
X0024000Y0374250D03*
X0024000Y0389850D03*
D12*
X0540000Y0396050D03*
X0580000Y0396050D03*
X0580000Y0366050D03*
X0540000Y0366050D03*
X0540000Y0326050D03*
X0580000Y0326050D03*
X0580000Y0296050D03*
X0540000Y0296050D03*
X0540000Y0251050D03*
X0580000Y0251050D03*
X0580000Y0221050D03*
X0540000Y0221050D03*
X0540000Y0181050D03*
X0580000Y0181050D03*
X0580000Y0151050D03*
X0540000Y0151050D03*
D13*
X0452600Y0191050D02*
X0447400Y0191050D01*
X0447400Y0201050D02*
X0452600Y0201050D01*
X0452600Y0211050D02*
X0447400Y0211050D01*
X0447400Y0221050D02*
X0452600Y0221050D01*
X0452600Y0231050D02*
X0447400Y0231050D01*
X0447400Y0241050D02*
X0452600Y0241050D01*
X0452600Y0251050D02*
X0447400Y0251050D01*
X0447400Y0261050D02*
X0452600Y0261050D01*
X0422600Y0261050D02*
X0417400Y0261050D01*
X0417400Y0251050D02*
X0422600Y0251050D01*
X0422600Y0241050D02*
X0417400Y0241050D01*
X0417400Y0231050D02*
X0422600Y0231050D01*
X0422600Y0221050D02*
X0417400Y0221050D01*
X0417400Y0211050D02*
X0422600Y0211050D01*
X0422600Y0201050D02*
X0417400Y0201050D01*
X0417400Y0191050D02*
X0422600Y0191050D01*
X0362600Y0205050D02*
X0357400Y0205050D01*
X0357400Y0215050D02*
X0362600Y0215050D01*
X0362600Y0225050D02*
X0357400Y0225050D01*
X0357400Y0235050D02*
X0362600Y0235050D01*
X0362600Y0245050D02*
X0357400Y0245050D01*
X0357400Y0255050D02*
X0362600Y0255050D01*
X0362600Y0265050D02*
X0357400Y0265050D01*
X0332600Y0265050D02*
X0327400Y0265050D01*
X0327400Y0255050D02*
X0332600Y0255050D01*
X0332600Y0245050D02*
X0327400Y0245050D01*
X0327400Y0235050D02*
X0332600Y0235050D01*
X0332600Y0225050D02*
X0327400Y0225050D01*
X0327400Y0215050D02*
X0332600Y0215050D01*
X0332600Y0205050D02*
X0327400Y0205050D01*
X0277600Y0206650D02*
X0272400Y0206650D01*
X0272400Y0196650D02*
X0277600Y0196650D01*
X0277600Y0216650D02*
X0272400Y0216650D01*
X0272400Y0226650D02*
X0277600Y0226650D01*
X0277600Y0236650D02*
X0272400Y0236650D01*
X0272400Y0246650D02*
X0277600Y0246650D01*
X0277600Y0256650D02*
X0272400Y0256650D01*
X0272400Y0266650D02*
X0277600Y0266650D01*
X0277600Y0276650D02*
X0272400Y0276650D01*
X0272400Y0286650D02*
X0277600Y0286650D01*
X0247600Y0286650D02*
X0242400Y0286650D01*
X0242400Y0276650D02*
X0247600Y0276650D01*
X0247600Y0266650D02*
X0242400Y0266650D01*
X0242400Y0256650D02*
X0247600Y0256650D01*
X0247600Y0246650D02*
X0242400Y0246650D01*
X0242400Y0236650D02*
X0247600Y0236650D01*
X0247600Y0226650D02*
X0242400Y0226650D01*
X0242400Y0216650D02*
X0247600Y0216650D01*
X0247600Y0206650D02*
X0242400Y0206650D01*
X0242400Y0196650D02*
X0247600Y0196650D01*
X0187600Y0196650D02*
X0182400Y0196650D01*
X0182400Y0206650D02*
X0187600Y0206650D01*
X0187600Y0216650D02*
X0182400Y0216650D01*
X0182400Y0226650D02*
X0187600Y0226650D01*
X0187600Y0236650D02*
X0182400Y0236650D01*
X0182400Y0246650D02*
X0187600Y0246650D01*
X0187600Y0256650D02*
X0182400Y0256650D01*
X0182400Y0266650D02*
X0187600Y0266650D01*
X0187600Y0276650D02*
X0182400Y0276650D01*
X0182400Y0286650D02*
X0187600Y0286650D01*
X0157600Y0286650D02*
X0152400Y0286650D01*
X0152400Y0276650D02*
X0157600Y0276650D01*
X0157600Y0266650D02*
X0152400Y0266650D01*
X0152400Y0256650D02*
X0157600Y0256650D01*
X0157600Y0246650D02*
X0152400Y0246650D01*
X0152400Y0236650D02*
X0157600Y0236650D01*
X0157600Y0226650D02*
X0152400Y0226650D01*
X0152400Y0216650D02*
X0157600Y0216650D01*
X0157600Y0206650D02*
X0152400Y0206650D01*
X0152400Y0196650D02*
X0157600Y0196650D01*
X0332400Y0326050D02*
X0337600Y0326050D01*
X0337600Y0336050D02*
X0332400Y0336050D01*
X0332400Y0346050D02*
X0337600Y0346050D01*
X0337600Y0356050D02*
X0332400Y0356050D01*
X0332400Y0366050D02*
X0337600Y0366050D01*
X0337600Y0376050D02*
X0332400Y0376050D01*
X0332400Y0386050D02*
X0337600Y0386050D01*
X0362400Y0386050D02*
X0367600Y0386050D01*
X0367600Y0376050D02*
X0362400Y0376050D01*
X0362400Y0366050D02*
X0367600Y0366050D01*
X0367600Y0356050D02*
X0362400Y0356050D01*
X0362400Y0346050D02*
X0367600Y0346050D01*
X0367600Y0336050D02*
X0362400Y0336050D01*
X0362400Y0326050D02*
X0367600Y0326050D01*
X0417400Y0321050D02*
X0422600Y0321050D01*
X0422600Y0331050D02*
X0417400Y0331050D01*
X0417400Y0341050D02*
X0422600Y0341050D01*
X0422600Y0351050D02*
X0417400Y0351050D01*
X0417400Y0361050D02*
X0422600Y0361050D01*
X0422600Y0371050D02*
X0417400Y0371050D01*
X0417400Y0381050D02*
X0422600Y0381050D01*
X0422600Y0391050D02*
X0417400Y0391050D01*
X0447400Y0391050D02*
X0452600Y0391050D01*
X0452600Y0381050D02*
X0447400Y0381050D01*
X0447400Y0371050D02*
X0452600Y0371050D01*
X0452600Y0361050D02*
X0447400Y0361050D01*
X0447400Y0351050D02*
X0452600Y0351050D01*
X0452600Y0341050D02*
X0447400Y0341050D01*
X0447400Y0331050D02*
X0452600Y0331050D01*
X0452600Y0321050D02*
X0447400Y0321050D01*
D14*
X0153700Y0424703D02*
X0153877Y0425366D01*
X0153937Y0426050D01*
X0153877Y0426734D01*
X0153700Y0427397D01*
X0153410Y0428019D01*
X0153016Y0428581D01*
X0152531Y0429066D01*
X0151969Y0429460D01*
X0151347Y0429750D01*
X0150684Y0429927D01*
X0150000Y0429987D01*
X0149316Y0429927D01*
X0148653Y0429750D01*
X0148031Y0429460D01*
X0147469Y0429066D01*
X0146984Y0428581D01*
X0146590Y0428019D01*
X0146300Y0427397D01*
X0146123Y0426734D01*
X0146063Y0426050D01*
X0146123Y0425366D01*
X0146300Y0424703D01*
X0146590Y0424081D01*
X0146984Y0423519D01*
X0147469Y0423034D01*
X0148031Y0422640D01*
X0148653Y0422350D01*
X0149316Y0422173D01*
X0150000Y0422113D01*
X0150684Y0422173D01*
X0151347Y0422350D01*
X0151969Y0422640D01*
X0152531Y0423034D01*
X0153016Y0423519D01*
X0153410Y0424081D01*
X0153700Y0424703D01*
X0153721Y0424785D02*
X0146279Y0424785D01*
X0146145Y0425283D02*
X0153855Y0425283D01*
X0153914Y0425782D02*
X0146086Y0425782D01*
X0146083Y0426280D02*
X0153917Y0426280D01*
X0153865Y0426779D02*
X0146135Y0426779D01*
X0146268Y0427277D02*
X0153732Y0427277D01*
X0153523Y0427776D02*
X0146477Y0427776D01*
X0146770Y0428274D02*
X0153231Y0428274D01*
X0152824Y0428773D02*
X0147176Y0428773D01*
X0147763Y0429271D02*
X0152237Y0429271D01*
X0151271Y0429770D02*
X0148729Y0429770D01*
X0146495Y0424286D02*
X0153505Y0424286D01*
X0153204Y0423788D02*
X0146796Y0423788D01*
X0147214Y0423289D02*
X0152786Y0423289D01*
X0152183Y0422791D02*
X0147817Y0422791D01*
X0148871Y0422292D02*
X0151129Y0422292D01*
X0601984Y0028581D02*
X0601590Y0028019D01*
X0601300Y0027397D01*
X0601123Y0026734D01*
X0601063Y0026050D01*
X0601123Y0025366D01*
X0601300Y0024703D01*
X0601590Y0024081D01*
X0601984Y0023519D01*
X0602469Y0023034D01*
X0603031Y0022640D01*
X0603653Y0022350D01*
X0604316Y0022173D01*
X0605000Y0022113D01*
X0605684Y0022173D01*
X0606347Y0022350D01*
X0606969Y0022640D01*
X0607531Y0023034D01*
X0608016Y0023519D01*
X0608410Y0024081D01*
X0608700Y0024703D01*
X0608877Y0025366D01*
X0608937Y0026050D01*
X0608877Y0026734D01*
X0608700Y0027397D01*
X0608410Y0028019D01*
X0608016Y0028581D01*
X0607531Y0029066D01*
X0606969Y0029460D01*
X0606347Y0029750D01*
X0605684Y0029927D01*
X0605000Y0029987D01*
X0604316Y0029927D01*
X0603653Y0029750D01*
X0603031Y0029460D01*
X0602469Y0029066D01*
X0601984Y0028581D01*
X0601905Y0028468D02*
X0608095Y0028468D01*
X0608432Y0027970D02*
X0601568Y0027970D01*
X0601335Y0027471D02*
X0608665Y0027471D01*
X0608813Y0026973D02*
X0601187Y0026973D01*
X0601100Y0026474D02*
X0608900Y0026474D01*
X0608930Y0025976D02*
X0601070Y0025976D01*
X0601113Y0025477D02*
X0608887Y0025477D01*
X0608773Y0024979D02*
X0601227Y0024979D01*
X0601405Y0024480D02*
X0608595Y0024480D01*
X0608340Y0023982D02*
X0601660Y0023982D01*
X0602020Y0023483D02*
X0607980Y0023483D01*
X0607460Y0022984D02*
X0602540Y0022984D01*
X0603363Y0022486D02*
X0606637Y0022486D01*
X0607630Y0028967D02*
X0602370Y0028967D01*
X0603044Y0029465D02*
X0606957Y0029465D01*
X0605267Y0029964D02*
X0604733Y0029964D01*
D15*
X0122500Y0131050D03*
X0112500Y0140250D03*
X0102500Y0140250D03*
X0087500Y0173550D03*
X0102500Y0196050D03*
X0112500Y0196050D03*
X0122500Y0196050D03*
X0055000Y0093450D03*
X0050000Y0343050D03*
X0060000Y0343050D03*
X0070000Y0343050D03*
X0070000Y0374250D03*
X0060000Y0374250D03*
X0050000Y0374250D03*
M02*
