G75*
%MOIN*%
%OFA0B0*%
%FSLAX25Y25*%
%IPPOS*%
%LPD*%
%AMOC8*
5,1,8,0,0,1.08239X$1,22.5*
%
%ADD10C,0.10000*%
%ADD11R,0.32500X0.07500*%
%ADD12C,0.08600*%
%ADD13C,0.05200*%
%ADD14C,0.01600*%
%ADD15C,0.03962*%
%ADD16C,0.05000*%
%ADD17C,0.01000*%
D10*
X0335157Y0280050D03*
X0354843Y0280050D03*
X0425157Y0275850D03*
X0444843Y0275850D03*
X0505000Y0303207D03*
X0505000Y0322893D03*
X0505000Y0369207D03*
X0505000Y0388893D03*
X0444843Y0406550D03*
X0425157Y0406550D03*
X0359843Y0401050D03*
X0340157Y0401050D03*
X0269843Y0303050D03*
X0250157Y0303050D03*
X0179843Y0302550D03*
X0160157Y0302550D03*
X0505000Y0243893D03*
X0505000Y0224207D03*
X0505000Y0183893D03*
X0505000Y0164207D03*
D11*
X0024000Y0062250D03*
X0024000Y0077850D03*
X0024000Y0093450D03*
X0024000Y0109050D03*
X0024000Y0124650D03*
X0024000Y0140250D03*
X0024000Y0155850D03*
X0024000Y0171450D03*
X0024000Y0187050D03*
X0024000Y0202650D03*
X0024000Y0218250D03*
X0024000Y0233850D03*
X0024000Y0249450D03*
X0024000Y0265050D03*
X0024000Y0280650D03*
X0024000Y0296250D03*
X0024000Y0311850D03*
X0024000Y0327450D03*
X0024000Y0343050D03*
X0024000Y0358650D03*
X0024000Y0374250D03*
X0024000Y0389850D03*
D12*
X0540000Y0396050D03*
X0580000Y0396050D03*
X0580000Y0366050D03*
X0540000Y0366050D03*
X0540000Y0326050D03*
X0580000Y0326050D03*
X0580000Y0296050D03*
X0540000Y0296050D03*
X0540000Y0251050D03*
X0580000Y0251050D03*
X0580000Y0221050D03*
X0540000Y0221050D03*
X0540000Y0181050D03*
X0580000Y0181050D03*
X0580000Y0151050D03*
X0540000Y0151050D03*
D13*
X0452600Y0191050D02*
X0447400Y0191050D01*
X0447400Y0201050D02*
X0452600Y0201050D01*
X0452600Y0211050D02*
X0447400Y0211050D01*
X0447400Y0221050D02*
X0452600Y0221050D01*
X0452600Y0231050D02*
X0447400Y0231050D01*
X0447400Y0241050D02*
X0452600Y0241050D01*
X0452600Y0251050D02*
X0447400Y0251050D01*
X0447400Y0261050D02*
X0452600Y0261050D01*
X0422600Y0261050D02*
X0417400Y0261050D01*
X0417400Y0251050D02*
X0422600Y0251050D01*
X0422600Y0241050D02*
X0417400Y0241050D01*
X0417400Y0231050D02*
X0422600Y0231050D01*
X0422600Y0221050D02*
X0417400Y0221050D01*
X0417400Y0211050D02*
X0422600Y0211050D01*
X0422600Y0201050D02*
X0417400Y0201050D01*
X0417400Y0191050D02*
X0422600Y0191050D01*
X0362600Y0205050D02*
X0357400Y0205050D01*
X0357400Y0215050D02*
X0362600Y0215050D01*
X0362600Y0225050D02*
X0357400Y0225050D01*
X0357400Y0235050D02*
X0362600Y0235050D01*
X0362600Y0245050D02*
X0357400Y0245050D01*
X0357400Y0255050D02*
X0362600Y0255050D01*
X0362600Y0265050D02*
X0357400Y0265050D01*
X0332600Y0265050D02*
X0327400Y0265050D01*
X0327400Y0255050D02*
X0332600Y0255050D01*
X0332600Y0245050D02*
X0327400Y0245050D01*
X0327400Y0235050D02*
X0332600Y0235050D01*
X0332600Y0225050D02*
X0327400Y0225050D01*
X0327400Y0215050D02*
X0332600Y0215050D01*
X0332600Y0205050D02*
X0327400Y0205050D01*
X0277600Y0206650D02*
X0272400Y0206650D01*
X0272400Y0196650D02*
X0277600Y0196650D01*
X0277600Y0216650D02*
X0272400Y0216650D01*
X0272400Y0226650D02*
X0277600Y0226650D01*
X0277600Y0236650D02*
X0272400Y0236650D01*
X0272400Y0246650D02*
X0277600Y0246650D01*
X0277600Y0256650D02*
X0272400Y0256650D01*
X0272400Y0266650D02*
X0277600Y0266650D01*
X0277600Y0276650D02*
X0272400Y0276650D01*
X0272400Y0286650D02*
X0277600Y0286650D01*
X0247600Y0286650D02*
X0242400Y0286650D01*
X0242400Y0276650D02*
X0247600Y0276650D01*
X0247600Y0266650D02*
X0242400Y0266650D01*
X0242400Y0256650D02*
X0247600Y0256650D01*
X0247600Y0246650D02*
X0242400Y0246650D01*
X0242400Y0236650D02*
X0247600Y0236650D01*
X0247600Y0226650D02*
X0242400Y0226650D01*
X0242400Y0216650D02*
X0247600Y0216650D01*
X0247600Y0206650D02*
X0242400Y0206650D01*
X0242400Y0196650D02*
X0247600Y0196650D01*
X0187600Y0196650D02*
X0182400Y0196650D01*
X0182400Y0206650D02*
X0187600Y0206650D01*
X0187600Y0216650D02*
X0182400Y0216650D01*
X0182400Y0226650D02*
X0187600Y0226650D01*
X0187600Y0236650D02*
X0182400Y0236650D01*
X0182400Y0246650D02*
X0187600Y0246650D01*
X0187600Y0256650D02*
X0182400Y0256650D01*
X0182400Y0266650D02*
X0187600Y0266650D01*
X0187600Y0276650D02*
X0182400Y0276650D01*
X0182400Y0286650D02*
X0187600Y0286650D01*
X0157600Y0286650D02*
X0152400Y0286650D01*
X0152400Y0276650D02*
X0157600Y0276650D01*
X0157600Y0266650D02*
X0152400Y0266650D01*
X0152400Y0256650D02*
X0157600Y0256650D01*
X0157600Y0246650D02*
X0152400Y0246650D01*
X0152400Y0236650D02*
X0157600Y0236650D01*
X0157600Y0226650D02*
X0152400Y0226650D01*
X0152400Y0216650D02*
X0157600Y0216650D01*
X0157600Y0206650D02*
X0152400Y0206650D01*
X0152400Y0196650D02*
X0157600Y0196650D01*
X0332400Y0326050D02*
X0337600Y0326050D01*
X0337600Y0336050D02*
X0332400Y0336050D01*
X0332400Y0346050D02*
X0337600Y0346050D01*
X0337600Y0356050D02*
X0332400Y0356050D01*
X0332400Y0366050D02*
X0337600Y0366050D01*
X0337600Y0376050D02*
X0332400Y0376050D01*
X0332400Y0386050D02*
X0337600Y0386050D01*
X0362400Y0386050D02*
X0367600Y0386050D01*
X0367600Y0376050D02*
X0362400Y0376050D01*
X0362400Y0366050D02*
X0367600Y0366050D01*
X0367600Y0356050D02*
X0362400Y0356050D01*
X0362400Y0346050D02*
X0367600Y0346050D01*
X0367600Y0336050D02*
X0362400Y0336050D01*
X0362400Y0326050D02*
X0367600Y0326050D01*
X0417400Y0321050D02*
X0422600Y0321050D01*
X0422600Y0331050D02*
X0417400Y0331050D01*
X0417400Y0341050D02*
X0422600Y0341050D01*
X0422600Y0351050D02*
X0417400Y0351050D01*
X0417400Y0361050D02*
X0422600Y0361050D01*
X0422600Y0371050D02*
X0417400Y0371050D01*
X0417400Y0381050D02*
X0422600Y0381050D01*
X0422600Y0391050D02*
X0417400Y0391050D01*
X0447400Y0391050D02*
X0452600Y0391050D01*
X0452600Y0381050D02*
X0447400Y0381050D01*
X0447400Y0371050D02*
X0452600Y0371050D01*
X0452600Y0361050D02*
X0447400Y0361050D01*
X0447400Y0351050D02*
X0452600Y0351050D01*
X0452600Y0341050D02*
X0447400Y0341050D01*
X0447400Y0331050D02*
X0452600Y0331050D01*
X0452600Y0321050D02*
X0447400Y0321050D01*
D14*
X0432500Y0326050D02*
X0505000Y0326050D01*
X0505000Y0322893D01*
X0505000Y0326050D02*
X0540000Y0326050D01*
X0540000Y0296050D01*
X0505000Y0303207D02*
X0425343Y0303207D01*
X0410000Y0318550D01*
X0410000Y0338550D01*
X0412500Y0341050D01*
X0420000Y0341050D01*
X0420000Y0331050D02*
X0427500Y0331050D01*
X0432500Y0326050D01*
X0435000Y0346050D02*
X0440000Y0351050D01*
X0450000Y0351050D01*
X0435000Y0346050D02*
X0365000Y0346050D01*
X0365000Y0356050D02*
X0375000Y0356050D01*
X0410000Y0391050D01*
X0420000Y0391050D01*
X0450000Y0381050D02*
X0472500Y0381050D01*
X0487500Y0396050D01*
X0505000Y0396050D01*
X0505000Y0388893D01*
X0505000Y0396050D02*
X0540000Y0396050D01*
X0540000Y0366050D01*
X0505000Y0369207D02*
X0484343Y0369207D01*
X0482500Y0371050D01*
X0450000Y0371050D01*
X0390000Y0326050D02*
X0365000Y0326050D01*
X0348500Y0312050D02*
X0409500Y0251050D01*
X0420000Y0251050D01*
X0435000Y0231050D02*
X0435000Y0281050D01*
X0390000Y0326050D01*
X0348500Y0312050D02*
X0348500Y0346050D01*
X0335000Y0346050D01*
X0348500Y0346050D02*
X0348500Y0367050D01*
X0357500Y0376050D01*
X0364700Y0376050D01*
X0365000Y0376350D01*
X0335000Y0376050D02*
X0290000Y0376050D01*
X0225000Y0311050D01*
X0225000Y0270050D01*
X0201600Y0246650D01*
X0185000Y0246650D01*
X0185000Y0256650D02*
X0175600Y0256650D01*
X0175000Y0256050D01*
X0170000Y0251650D01*
X0137500Y0251650D01*
X0122500Y0236050D01*
X0122500Y0196050D01*
X0129700Y0192750D02*
X0129700Y0206350D01*
X0145000Y0221650D01*
X0165600Y0221650D01*
X0170600Y0226650D01*
X0185000Y0226650D01*
X0185000Y0236650D02*
X0213100Y0236650D01*
X0218100Y0241650D01*
X0301900Y0241650D01*
X0310000Y0250050D01*
X0373500Y0250050D01*
X0407500Y0216050D01*
X0435000Y0216050D01*
X0440000Y0211050D01*
X0450000Y0211050D01*
X0460000Y0221050D02*
X0455000Y0226050D01*
X0440000Y0226050D01*
X0435000Y0231050D01*
X0450000Y0241050D02*
X0470000Y0241050D01*
X0486843Y0224207D01*
X0505000Y0224207D01*
X0505000Y0243893D02*
X0505000Y0251050D01*
X0450000Y0251050D01*
X0460000Y0221050D02*
X0460000Y0196050D01*
X0455000Y0191050D01*
X0450000Y0191050D01*
X0442500Y0181050D02*
X0492500Y0181050D01*
X0495343Y0183893D01*
X0505000Y0183893D01*
X0505000Y0164207D02*
X0538157Y0164207D01*
X0540000Y0166050D01*
X0540000Y0151050D01*
X0540000Y0166050D02*
X0540000Y0181050D01*
X0505000Y0164207D02*
X0451843Y0164207D01*
X0432500Y0183550D01*
X0432500Y0196050D01*
X0427500Y0201050D01*
X0420000Y0201050D01*
X0420000Y0211050D02*
X0430000Y0211050D01*
X0437500Y0201050D01*
X0437500Y0186050D01*
X0442500Y0181050D01*
X0360000Y0205050D02*
X0352000Y0205050D01*
X0297500Y0150550D01*
X0074000Y0150550D01*
X0053500Y0171050D01*
X0025000Y0171050D01*
X0024000Y0171450D01*
X0024000Y0187050D02*
X0046000Y0187050D01*
X0077500Y0155550D01*
X0295000Y0155550D01*
X0342500Y0203050D01*
X0342500Y0228550D01*
X0349000Y0235050D01*
X0360000Y0235050D01*
X0330000Y0245050D02*
X0319000Y0245050D01*
X0295000Y0221050D01*
X0295000Y0175550D01*
X0285000Y0165550D01*
X0082000Y0165550D01*
X0057500Y0190050D01*
X0057500Y0205550D01*
X0044800Y0218250D01*
X0024000Y0218250D01*
X0024000Y0202650D02*
X0042500Y0202650D01*
X0052500Y0192650D01*
X0052500Y0188550D01*
X0080400Y0160650D01*
X0084500Y0160650D01*
X0089500Y0160550D01*
X0287000Y0160550D01*
X0302500Y0176050D01*
X0302500Y0201050D01*
X0314000Y0215050D01*
X0330000Y0215050D01*
X0348500Y0255050D02*
X0343500Y0260050D01*
X0307500Y0260050D01*
X0304100Y0256650D01*
X0275000Y0256650D01*
X0348500Y0255050D02*
X0360000Y0255050D01*
X0275000Y0196650D02*
X0263100Y0196650D01*
X0240000Y0173550D01*
X0087500Y0173550D01*
X0093000Y0178050D02*
X0064500Y0206550D01*
X0064500Y0236550D01*
X0051600Y0249450D01*
X0024000Y0249450D01*
X0024000Y0265050D02*
X0066500Y0265050D01*
X0075500Y0256050D01*
X0075500Y0205050D01*
X0097500Y0183050D01*
X0127000Y0183050D01*
X0135000Y0191050D01*
X0135000Y0201650D01*
X0145000Y0211650D01*
X0165600Y0211650D01*
X0170600Y0216650D01*
X0185000Y0216650D01*
X0185000Y0206650D02*
X0170600Y0206650D01*
X0165600Y0201650D01*
X0145600Y0201650D01*
X0140000Y0196050D01*
X0140000Y0188550D01*
X0129500Y0178050D01*
X0093000Y0178050D01*
X0099500Y0188050D02*
X0083000Y0204550D01*
X0083000Y0266465D01*
X0070400Y0280650D01*
X0024000Y0280650D01*
X0102500Y0235350D02*
X0138200Y0271650D01*
X0170000Y0271650D01*
X0175448Y0276553D01*
X0176000Y0277050D01*
X0175000Y0266650D02*
X0170000Y0261650D01*
X0137500Y0261650D01*
X0112500Y0236050D01*
X0112500Y0196050D01*
X0102500Y0196050D02*
X0102500Y0235350D01*
X0129700Y0192750D02*
X0125000Y0188050D01*
X0099500Y0188050D01*
X0102500Y0140250D02*
X0025000Y0140250D01*
X0025000Y0124650D02*
X0055000Y0124650D01*
X0061400Y0131050D01*
X0122500Y0131050D01*
X0125800Y0140250D02*
X0132500Y0133550D01*
X0132500Y0125750D01*
X0125800Y0119050D01*
X0110000Y0119050D01*
X0095000Y0108550D01*
X0024000Y0109050D01*
X0024000Y0093450D02*
X0055000Y0093450D01*
X0112500Y0140250D02*
X0125800Y0140250D01*
X0175000Y0266650D02*
X0185000Y0266650D01*
X0505000Y0251050D02*
X0540000Y0251050D01*
X0540000Y0221050D01*
D15*
X0122500Y0196050D03*
X0112500Y0196050D03*
X0102500Y0196050D03*
X0087500Y0173550D03*
X0102500Y0140250D03*
X0112500Y0140250D03*
X0122500Y0131050D03*
X0055000Y0093450D03*
X0050000Y0343050D03*
X0060000Y0343050D03*
X0070000Y0343050D03*
X0070000Y0374250D03*
X0060000Y0374250D03*
X0050000Y0374250D03*
D16*
X0070000Y0374250D02*
X0024000Y0374250D01*
X0024000Y0343050D02*
X0070000Y0343050D01*
D17*
X0175000Y0277050D02*
X0175448Y0276553D01*
X0175000Y0277050D02*
X0185000Y0277050D01*
X0185000Y0276650D01*
X0025000Y0140250D02*
X0024000Y0140250D01*
X0024000Y0124650D02*
X0025000Y0124650D01*
M02*
