G75*
%MOIN*%
%OFA0B0*%
%FSLAX25Y25*%
%IPPOS*%
%LPD*%
%AMOC8*
5,1,8,0,0,1.08239X$1,22.5*
%
%ADD10C,0.10000*%
%ADD11R,0.32500X0.07500*%
%ADD12C,0.08600*%
%ADD13C,0.05200*%
%ADD14C,0.01600*%
%ADD15C,0.03962*%
%ADD16C,0.01000*%
D10*
X0335157Y0280050D03*
X0354843Y0280050D03*
X0425157Y0275850D03*
X0444843Y0275850D03*
X0505000Y0303207D03*
X0505000Y0322893D03*
X0505000Y0369207D03*
X0505000Y0388893D03*
X0444843Y0406550D03*
X0425157Y0406550D03*
X0359843Y0401050D03*
X0340157Y0401050D03*
X0269843Y0303050D03*
X0250157Y0303050D03*
X0179843Y0302550D03*
X0160157Y0302550D03*
X0505000Y0243893D03*
X0505000Y0224207D03*
X0505000Y0183893D03*
X0505000Y0164207D03*
D11*
X0024000Y0062250D03*
X0024000Y0077850D03*
X0024000Y0093450D03*
X0024000Y0109050D03*
X0024000Y0124650D03*
X0024000Y0140250D03*
X0024000Y0155850D03*
X0024000Y0171450D03*
X0024000Y0187050D03*
X0024000Y0202650D03*
X0024000Y0218250D03*
X0024000Y0233850D03*
X0024000Y0249450D03*
X0024000Y0265050D03*
X0024000Y0280650D03*
X0024000Y0296250D03*
X0024000Y0311850D03*
X0024000Y0327450D03*
X0024000Y0343050D03*
X0024000Y0358650D03*
X0024000Y0374250D03*
X0024000Y0389850D03*
D12*
X0540000Y0396050D03*
X0580000Y0396050D03*
X0580000Y0366050D03*
X0540000Y0366050D03*
X0540000Y0326050D03*
X0580000Y0326050D03*
X0580000Y0296050D03*
X0540000Y0296050D03*
X0540000Y0251050D03*
X0580000Y0251050D03*
X0580000Y0221050D03*
X0540000Y0221050D03*
X0540000Y0181050D03*
X0580000Y0181050D03*
X0580000Y0151050D03*
X0540000Y0151050D03*
D13*
X0452600Y0191050D02*
X0447400Y0191050D01*
X0447400Y0201050D02*
X0452600Y0201050D01*
X0452600Y0211050D02*
X0447400Y0211050D01*
X0447400Y0221050D02*
X0452600Y0221050D01*
X0452600Y0231050D02*
X0447400Y0231050D01*
X0447400Y0241050D02*
X0452600Y0241050D01*
X0452600Y0251050D02*
X0447400Y0251050D01*
X0447400Y0261050D02*
X0452600Y0261050D01*
X0422600Y0261050D02*
X0417400Y0261050D01*
X0417400Y0251050D02*
X0422600Y0251050D01*
X0422600Y0241050D02*
X0417400Y0241050D01*
X0417400Y0231050D02*
X0422600Y0231050D01*
X0422600Y0221050D02*
X0417400Y0221050D01*
X0417400Y0211050D02*
X0422600Y0211050D01*
X0422600Y0201050D02*
X0417400Y0201050D01*
X0417400Y0191050D02*
X0422600Y0191050D01*
X0362600Y0205050D02*
X0357400Y0205050D01*
X0357400Y0215050D02*
X0362600Y0215050D01*
X0362600Y0225050D02*
X0357400Y0225050D01*
X0357400Y0235050D02*
X0362600Y0235050D01*
X0362600Y0245050D02*
X0357400Y0245050D01*
X0357400Y0255050D02*
X0362600Y0255050D01*
X0362600Y0265050D02*
X0357400Y0265050D01*
X0332600Y0265050D02*
X0327400Y0265050D01*
X0327400Y0255050D02*
X0332600Y0255050D01*
X0332600Y0245050D02*
X0327400Y0245050D01*
X0327400Y0235050D02*
X0332600Y0235050D01*
X0332600Y0225050D02*
X0327400Y0225050D01*
X0327400Y0215050D02*
X0332600Y0215050D01*
X0332600Y0205050D02*
X0327400Y0205050D01*
X0277600Y0206650D02*
X0272400Y0206650D01*
X0272400Y0196650D02*
X0277600Y0196650D01*
X0277600Y0216650D02*
X0272400Y0216650D01*
X0272400Y0226650D02*
X0277600Y0226650D01*
X0277600Y0236650D02*
X0272400Y0236650D01*
X0272400Y0246650D02*
X0277600Y0246650D01*
X0277600Y0256650D02*
X0272400Y0256650D01*
X0272400Y0266650D02*
X0277600Y0266650D01*
X0277600Y0276650D02*
X0272400Y0276650D01*
X0272400Y0286650D02*
X0277600Y0286650D01*
X0247600Y0286650D02*
X0242400Y0286650D01*
X0242400Y0276650D02*
X0247600Y0276650D01*
X0247600Y0266650D02*
X0242400Y0266650D01*
X0242400Y0256650D02*
X0247600Y0256650D01*
X0247600Y0246650D02*
X0242400Y0246650D01*
X0242400Y0236650D02*
X0247600Y0236650D01*
X0247600Y0226650D02*
X0242400Y0226650D01*
X0242400Y0216650D02*
X0247600Y0216650D01*
X0247600Y0206650D02*
X0242400Y0206650D01*
X0242400Y0196650D02*
X0247600Y0196650D01*
X0187600Y0196650D02*
X0182400Y0196650D01*
X0182400Y0206650D02*
X0187600Y0206650D01*
X0187600Y0216650D02*
X0182400Y0216650D01*
X0182400Y0226650D02*
X0187600Y0226650D01*
X0187600Y0236650D02*
X0182400Y0236650D01*
X0182400Y0246650D02*
X0187600Y0246650D01*
X0187600Y0256650D02*
X0182400Y0256650D01*
X0182400Y0266650D02*
X0187600Y0266650D01*
X0187600Y0276650D02*
X0182400Y0276650D01*
X0182400Y0286650D02*
X0187600Y0286650D01*
X0157600Y0286650D02*
X0152400Y0286650D01*
X0152400Y0276650D02*
X0157600Y0276650D01*
X0157600Y0266650D02*
X0152400Y0266650D01*
X0152400Y0256650D02*
X0157600Y0256650D01*
X0157600Y0246650D02*
X0152400Y0246650D01*
X0152400Y0236650D02*
X0157600Y0236650D01*
X0157600Y0226650D02*
X0152400Y0226650D01*
X0152400Y0216650D02*
X0157600Y0216650D01*
X0157600Y0206650D02*
X0152400Y0206650D01*
X0152400Y0196650D02*
X0157600Y0196650D01*
X0332400Y0326050D02*
X0337600Y0326050D01*
X0337600Y0336050D02*
X0332400Y0336050D01*
X0332400Y0346050D02*
X0337600Y0346050D01*
X0337600Y0356050D02*
X0332400Y0356050D01*
X0332400Y0366050D02*
X0337600Y0366050D01*
X0337600Y0376050D02*
X0332400Y0376050D01*
X0332400Y0386050D02*
X0337600Y0386050D01*
X0362400Y0386050D02*
X0367600Y0386050D01*
X0367600Y0376050D02*
X0362400Y0376050D01*
X0362400Y0366050D02*
X0367600Y0366050D01*
X0367600Y0356050D02*
X0362400Y0356050D01*
X0362400Y0346050D02*
X0367600Y0346050D01*
X0367600Y0336050D02*
X0362400Y0336050D01*
X0362400Y0326050D02*
X0367600Y0326050D01*
X0417400Y0321050D02*
X0422600Y0321050D01*
X0422600Y0331050D02*
X0417400Y0331050D01*
X0417400Y0341050D02*
X0422600Y0341050D01*
X0422600Y0351050D02*
X0417400Y0351050D01*
X0417400Y0361050D02*
X0422600Y0361050D01*
X0422600Y0371050D02*
X0417400Y0371050D01*
X0417400Y0381050D02*
X0422600Y0381050D01*
X0422600Y0391050D02*
X0417400Y0391050D01*
X0447400Y0391050D02*
X0452600Y0391050D01*
X0452600Y0381050D02*
X0447400Y0381050D01*
X0447400Y0371050D02*
X0452600Y0371050D01*
X0452600Y0361050D02*
X0447400Y0361050D01*
X0447400Y0351050D02*
X0452600Y0351050D01*
X0452600Y0341050D02*
X0447400Y0341050D01*
X0447400Y0331050D02*
X0452600Y0331050D01*
X0452600Y0321050D02*
X0447400Y0321050D01*
D14*
X0450000Y0321050D02*
X0440000Y0321050D01*
X0432500Y0313550D01*
X0365000Y0313550D01*
X0342500Y0336050D01*
X0335000Y0336050D01*
X0335000Y0346050D02*
X0287500Y0346050D01*
X0260000Y0318550D01*
X0260000Y0286550D01*
X0260500Y0286550D01*
X0260000Y0286550D02*
X0260000Y0193550D01*
X0182500Y0116050D01*
X0055000Y0116050D01*
X0046400Y0124650D01*
X0024000Y0124650D01*
X0024000Y0140250D02*
X0053300Y0140250D01*
X0070000Y0123550D01*
X0135000Y0123550D01*
X0185000Y0173550D01*
X0185000Y0196650D01*
X0197500Y0201650D02*
X0202500Y0206650D01*
X0245000Y0206650D01*
X0245000Y0216650D02*
X0202500Y0216650D01*
X0197500Y0211650D01*
X0172500Y0211650D01*
X0167500Y0216650D01*
X0155000Y0216650D01*
X0076200Y0216650D01*
X0062200Y0202650D01*
X0024000Y0202650D01*
X0024000Y0187050D02*
X0062200Y0187050D01*
X0081800Y0206650D01*
X0155000Y0206650D01*
X0167500Y0206650D01*
X0172500Y0201650D01*
X0197500Y0201650D01*
X0197500Y0221650D02*
X0172500Y0221650D01*
X0167500Y0226650D01*
X0155000Y0226650D01*
X0070000Y0226650D01*
X0061600Y0218250D01*
X0030000Y0218250D01*
X0029200Y0219050D01*
X0025000Y0219050D01*
X0025000Y0218250D02*
X0030000Y0218250D01*
X0024000Y0233850D02*
X0062200Y0233850D01*
X0065000Y0236650D01*
X0155000Y0236650D01*
X0167500Y0236650D01*
X0172500Y0231650D01*
X0197500Y0231650D01*
X0202500Y0236650D01*
X0203000Y0236700D02*
X0245000Y0236650D01*
X0245000Y0226650D02*
X0202500Y0226650D01*
X0197500Y0221650D01*
X0197500Y0241650D02*
X0172500Y0241650D01*
X0167500Y0246650D01*
X0155000Y0246650D01*
X0065000Y0246650D01*
X0062200Y0249450D01*
X0024000Y0249450D01*
X0024000Y0265050D02*
X0062200Y0265050D01*
X0070600Y0256650D01*
X0070500Y0256650D01*
X0070600Y0256650D02*
X0155000Y0256650D01*
X0167500Y0256650D01*
X0172500Y0251650D01*
X0197500Y0251650D01*
X0202500Y0256650D01*
X0245000Y0256650D01*
X0245000Y0246650D02*
X0202500Y0246650D01*
X0197500Y0241650D01*
X0197500Y0261650D02*
X0172500Y0261650D01*
X0167500Y0266650D01*
X0155000Y0266650D01*
X0076200Y0266650D01*
X0062200Y0280650D01*
X0024000Y0280650D01*
X0024000Y0296250D02*
X0062200Y0296250D01*
X0081800Y0276650D01*
X0155000Y0276650D01*
X0167500Y0276650D01*
X0172500Y0271650D01*
X0197500Y0271650D01*
X0202500Y0276650D01*
X0245000Y0276650D01*
X0245000Y0266650D02*
X0202500Y0266650D01*
X0197500Y0261650D01*
X0275000Y0266650D02*
X0286900Y0266650D01*
X0290000Y0263550D01*
X0290000Y0251050D01*
X0316000Y0225050D01*
X0330000Y0225050D01*
X0340000Y0220050D02*
X0345000Y0225050D01*
X0360000Y0225050D01*
X0360000Y0215150D02*
X0360000Y0215050D01*
X0360000Y0215150D02*
X0368600Y0215150D01*
X0372500Y0219050D01*
X0372500Y0236050D01*
X0427500Y0236050D01*
X0432500Y0231050D01*
X0450000Y0231050D01*
X0450000Y0221050D02*
X0440000Y0221050D01*
X0435000Y0216050D01*
X0405000Y0216050D01*
X0282400Y0093450D01*
X0055000Y0093450D01*
X0122500Y0131050D02*
X0122500Y0196050D01*
X0112500Y0196050D02*
X0112500Y0140250D01*
X0102500Y0140250D02*
X0102500Y0196050D01*
X0087500Y0173550D02*
X0080200Y0173550D01*
X0062500Y0155850D01*
X0024000Y0155850D01*
X0275000Y0246650D02*
X0284400Y0246650D01*
X0311000Y0220050D01*
X0340000Y0220050D01*
X0340500Y0235050D02*
X0330000Y0235050D01*
X0340500Y0235050D02*
X0350400Y0244950D01*
X0350500Y0245050D01*
X0360000Y0245050D01*
X0360100Y0244950D01*
X0368600Y0244950D01*
X0372500Y0241050D01*
X0372500Y0236050D01*
X0350400Y0244950D02*
X0350400Y0255650D01*
X0341000Y0265050D01*
X0330000Y0265050D01*
X0330000Y0255050D02*
X0316000Y0255050D01*
X0294400Y0276650D01*
X0275000Y0276650D01*
X0365000Y0336050D02*
X0380000Y0336050D01*
X0405000Y0361050D01*
X0420000Y0361050D01*
X0365000Y0366050D02*
X0352500Y0366050D01*
X0342500Y0376050D01*
X0335000Y0376050D01*
X0335000Y0386050D01*
X0335000Y0366050D02*
X0335000Y0356050D01*
D15*
X0122500Y0196050D03*
X0112500Y0196050D03*
X0102500Y0196050D03*
X0087500Y0173550D03*
X0102500Y0140250D03*
X0112500Y0140250D03*
X0122500Y0131050D03*
X0055000Y0093450D03*
X0050000Y0343050D03*
X0060000Y0343050D03*
X0070000Y0343050D03*
X0070000Y0374250D03*
X0060000Y0374250D03*
X0050000Y0374250D03*
D16*
X0202500Y0236650D02*
X0203000Y0236700D01*
X0025000Y0219050D02*
X0024000Y0218250D01*
M02*
