G75*
%MOIN*%
%OFA0B0*%
%FSLAX25Y25*%
%IPPOS*%
%LPD*%
%AMOC8*
5,1,8,0,0,1.08239X$1,22.5*
%
%ADD10C,0.04756*%
%ADD11C,0.05543*%
%ADD12C,0.05200*%
%ADD13C,0.03962*%
%ADD14C,0.04750*%
%ADD15C,0.01600*%
D10*
X0335157Y0280050D03*
X0354843Y0280050D03*
X0425157Y0275850D03*
X0444843Y0275850D03*
X0505000Y0303207D03*
X0505000Y0322893D03*
X0505000Y0369207D03*
X0505000Y0388893D03*
X0444843Y0406550D03*
X0425157Y0406550D03*
X0359843Y0401050D03*
X0340157Y0401050D03*
X0269843Y0302550D03*
X0250157Y0302550D03*
X0179843Y0302550D03*
X0160157Y0302550D03*
X0505000Y0243893D03*
X0505000Y0224207D03*
X0505000Y0183893D03*
X0505000Y0164207D03*
D11*
X0540000Y0151050D03*
X0580000Y0151050D03*
X0580000Y0181050D03*
X0540000Y0181050D03*
X0540000Y0221050D03*
X0580000Y0221050D03*
X0580000Y0251050D03*
X0540000Y0251050D03*
X0540000Y0296050D03*
X0580000Y0296050D03*
X0580000Y0326050D03*
X0540000Y0326050D03*
X0540000Y0366050D03*
X0580000Y0366050D03*
X0580000Y0396050D03*
X0540000Y0396050D03*
D12*
X0450000Y0391050D03*
X0450000Y0381050D03*
X0450000Y0371050D03*
X0450000Y0361050D03*
X0450000Y0351050D03*
X0450000Y0341050D03*
X0450000Y0331050D03*
X0450000Y0321050D03*
X0420000Y0321050D03*
X0420000Y0331050D03*
X0420000Y0341050D03*
X0420000Y0351050D03*
X0420000Y0361050D03*
X0420000Y0371050D03*
X0420000Y0381050D03*
X0420000Y0391050D03*
X0365000Y0386050D03*
X0365000Y0376050D03*
X0365000Y0366050D03*
X0365000Y0356050D03*
X0365000Y0346050D03*
X0365000Y0336050D03*
X0365000Y0326050D03*
X0335000Y0326050D03*
X0335000Y0336050D03*
X0335000Y0346050D03*
X0335000Y0356050D03*
X0335000Y0366050D03*
X0335000Y0376050D03*
X0335000Y0386050D03*
X0275000Y0286650D03*
X0275000Y0276650D03*
X0275000Y0266650D03*
X0275000Y0256650D03*
X0275000Y0246650D03*
X0275000Y0236650D03*
X0275000Y0226650D03*
X0275000Y0216650D03*
X0275000Y0206650D03*
X0275000Y0196650D03*
X0245000Y0196650D03*
X0245000Y0206650D03*
X0245000Y0216650D03*
X0245000Y0226650D03*
X0245000Y0236650D03*
X0245000Y0246650D03*
X0245000Y0256650D03*
X0245000Y0266650D03*
X0245000Y0276650D03*
X0245000Y0286650D03*
X0185000Y0286650D03*
X0185000Y0276650D03*
X0185000Y0266650D03*
X0185000Y0256650D03*
X0185000Y0246650D03*
X0185000Y0236650D03*
X0185000Y0226650D03*
X0185000Y0216650D03*
X0185000Y0206650D03*
X0185000Y0196650D03*
X0155000Y0196650D03*
X0155000Y0206650D03*
X0155000Y0216650D03*
X0155000Y0226650D03*
X0155000Y0236650D03*
X0155000Y0246650D03*
X0155000Y0256650D03*
X0155000Y0266650D03*
X0155000Y0276650D03*
X0155000Y0286650D03*
X0330000Y0265050D03*
X0330000Y0255050D03*
X0330000Y0245050D03*
X0330000Y0235050D03*
X0330000Y0225050D03*
X0330000Y0215050D03*
X0330000Y0205050D03*
X0360000Y0205050D03*
X0360000Y0215050D03*
X0360000Y0225050D03*
X0360000Y0235050D03*
X0360000Y0245050D03*
X0360000Y0255050D03*
X0360000Y0265050D03*
X0420000Y0261050D03*
X0420000Y0251050D03*
X0420000Y0241050D03*
X0420000Y0231050D03*
X0420000Y0221050D03*
X0420000Y0211050D03*
X0420000Y0201050D03*
X0420000Y0191050D03*
X0450000Y0191050D03*
X0450000Y0201050D03*
X0450000Y0211050D03*
X0450000Y0221050D03*
X0450000Y0231050D03*
X0450000Y0241050D03*
X0450000Y0251050D03*
X0450000Y0261050D03*
D13*
X0122500Y0196050D03*
X0112500Y0196050D03*
X0102500Y0196050D03*
X0087500Y0173550D03*
X0102500Y0140250D03*
X0112500Y0140250D03*
X0122500Y0131050D03*
X0055000Y0093450D03*
D14*
X0050000Y0343050D03*
X0060000Y0343050D03*
X0070000Y0343050D03*
X0070000Y0374250D03*
X0060000Y0374250D03*
X0050000Y0374250D03*
D15*
X0045000Y0052050D02*
X0045000Y0018050D01*
X0057000Y0006050D01*
X0650000Y0006050D01*
X0650000Y0446050D01*
X0057000Y0446050D01*
X0045000Y0434050D01*
X0045000Y0400050D01*
X0017000Y0400050D01*
X0010000Y0393050D01*
X0010000Y0057050D01*
X0017000Y0052050D01*
X0045000Y0052050D01*
X0045000Y0050604D02*
X0650000Y0050604D01*
X0650000Y0052202D02*
X0016787Y0052202D01*
X0014549Y0053801D02*
X0650000Y0053801D01*
X0650000Y0055399D02*
X0012311Y0055399D01*
X0010073Y0056998D02*
X0650000Y0056998D01*
X0650000Y0058596D02*
X0010000Y0058596D01*
X0010000Y0060195D02*
X0650000Y0060195D01*
X0650000Y0061793D02*
X0010000Y0061793D01*
X0010000Y0063392D02*
X0650000Y0063392D01*
X0650000Y0064990D02*
X0010000Y0064990D01*
X0010000Y0066589D02*
X0650000Y0066589D01*
X0650000Y0068187D02*
X0010000Y0068187D01*
X0010000Y0069786D02*
X0650000Y0069786D01*
X0650000Y0071384D02*
X0010000Y0071384D01*
X0010000Y0072983D02*
X0650000Y0072983D01*
X0650000Y0074582D02*
X0010000Y0074582D01*
X0010000Y0076180D02*
X0650000Y0076180D01*
X0650000Y0077779D02*
X0010000Y0077779D01*
X0010000Y0079377D02*
X0650000Y0079377D01*
X0650000Y0080976D02*
X0010000Y0080976D01*
X0010000Y0082574D02*
X0650000Y0082574D01*
X0650000Y0084173D02*
X0010000Y0084173D01*
X0010000Y0085771D02*
X0650000Y0085771D01*
X0650000Y0087370D02*
X0010000Y0087370D01*
X0010000Y0088968D02*
X0650000Y0088968D01*
X0650000Y0090567D02*
X0058171Y0090567D01*
X0058629Y0091025D02*
X0059281Y0092598D01*
X0059281Y0094302D01*
X0058629Y0095875D01*
X0057425Y0097079D01*
X0055852Y0097731D01*
X0054148Y0097731D01*
X0052575Y0097079D01*
X0051371Y0095875D01*
X0050719Y0094302D01*
X0050719Y0092598D01*
X0051371Y0091025D01*
X0052575Y0089821D01*
X0054148Y0089169D01*
X0055852Y0089169D01*
X0057425Y0089821D01*
X0058629Y0091025D01*
X0059102Y0092165D02*
X0650000Y0092165D01*
X0650000Y0093764D02*
X0059281Y0093764D01*
X0058842Y0095362D02*
X0650000Y0095362D01*
X0650000Y0096961D02*
X0057544Y0096961D01*
X0052456Y0096961D02*
X0010000Y0096961D01*
X0010000Y0098559D02*
X0650000Y0098559D01*
X0650000Y0100158D02*
X0010000Y0100158D01*
X0010000Y0101756D02*
X0650000Y0101756D01*
X0650000Y0103355D02*
X0010000Y0103355D01*
X0010000Y0104953D02*
X0650000Y0104953D01*
X0650000Y0106552D02*
X0010000Y0106552D01*
X0010000Y0108150D02*
X0650000Y0108150D01*
X0650000Y0109749D02*
X0010000Y0109749D01*
X0010000Y0111347D02*
X0650000Y0111347D01*
X0650000Y0112946D02*
X0010000Y0112946D01*
X0010000Y0114544D02*
X0650000Y0114544D01*
X0650000Y0116143D02*
X0010000Y0116143D01*
X0010000Y0117741D02*
X0650000Y0117741D01*
X0650000Y0119340D02*
X0010000Y0119340D01*
X0010000Y0120938D02*
X0650000Y0120938D01*
X0650000Y0122537D02*
X0010000Y0122537D01*
X0010000Y0124135D02*
X0650000Y0124135D01*
X0650000Y0125734D02*
X0010000Y0125734D01*
X0010000Y0127332D02*
X0120288Y0127332D01*
X0120075Y0127421D02*
X0121648Y0126769D01*
X0123352Y0126769D01*
X0124925Y0127421D01*
X0126129Y0128625D01*
X0126781Y0130198D01*
X0126781Y0131902D01*
X0126129Y0133475D01*
X0124925Y0134679D01*
X0123352Y0135331D01*
X0121648Y0135331D01*
X0120075Y0134679D01*
X0118871Y0133475D01*
X0118219Y0131902D01*
X0118219Y0130198D01*
X0118871Y0128625D01*
X0120075Y0127421D01*
X0118744Y0128931D02*
X0010000Y0128931D01*
X0010000Y0130529D02*
X0118219Y0130529D01*
X0118313Y0132128D02*
X0010000Y0132128D01*
X0010000Y0133726D02*
X0119122Y0133726D01*
X0121634Y0135325D02*
X0010000Y0135325D01*
X0010000Y0136923D02*
X0099772Y0136923D01*
X0100075Y0136621D02*
X0101648Y0135969D01*
X0103352Y0135969D01*
X0104925Y0136621D01*
X0106129Y0137825D01*
X0106781Y0139398D01*
X0106781Y0141102D01*
X0106129Y0142675D01*
X0104925Y0143879D01*
X0103352Y0144531D01*
X0101648Y0144531D01*
X0100075Y0143879D01*
X0098871Y0142675D01*
X0098219Y0141102D01*
X0098219Y0139398D01*
X0098871Y0137825D01*
X0100075Y0136621D01*
X0098582Y0138522D02*
X0010000Y0138522D01*
X0010000Y0140120D02*
X0098219Y0140120D01*
X0098475Y0141719D02*
X0010000Y0141719D01*
X0010000Y0143318D02*
X0099513Y0143318D01*
X0105487Y0143318D02*
X0109513Y0143318D01*
X0110075Y0143879D02*
X0108871Y0142675D01*
X0108219Y0141102D01*
X0108219Y0139398D01*
X0108871Y0137825D01*
X0110075Y0136621D01*
X0111648Y0135969D01*
X0113352Y0135969D01*
X0114925Y0136621D01*
X0116129Y0137825D01*
X0116781Y0139398D01*
X0116781Y0141102D01*
X0116129Y0142675D01*
X0114925Y0143879D01*
X0113352Y0144531D01*
X0111648Y0144531D01*
X0110075Y0143879D01*
X0108475Y0141719D02*
X0106525Y0141719D01*
X0106781Y0140120D02*
X0108219Y0140120D01*
X0108582Y0138522D02*
X0106418Y0138522D01*
X0105228Y0136923D02*
X0109772Y0136923D01*
X0115228Y0136923D02*
X0650000Y0136923D01*
X0650000Y0135325D02*
X0123366Y0135325D01*
X0125878Y0133726D02*
X0650000Y0133726D01*
X0650000Y0132128D02*
X0126687Y0132128D01*
X0126781Y0130529D02*
X0650000Y0130529D01*
X0650000Y0128931D02*
X0126256Y0128931D01*
X0124712Y0127332D02*
X0650000Y0127332D01*
X0650000Y0138522D02*
X0116418Y0138522D01*
X0116781Y0140120D02*
X0650000Y0140120D01*
X0650000Y0141719D02*
X0116525Y0141719D01*
X0115487Y0143318D02*
X0650000Y0143318D01*
X0650000Y0144916D02*
X0010000Y0144916D01*
X0010000Y0146515D02*
X0537697Y0146515D01*
X0537127Y0146750D02*
X0538991Y0145978D01*
X0541009Y0145978D01*
X0542873Y0146750D01*
X0544300Y0148177D01*
X0545072Y0150041D01*
X0545072Y0152059D01*
X0544300Y0153923D01*
X0542873Y0155350D01*
X0541009Y0156122D01*
X0538991Y0156122D01*
X0537127Y0155350D01*
X0535700Y0153923D01*
X0534928Y0152059D01*
X0534928Y0150041D01*
X0535700Y0148177D01*
X0537127Y0146750D01*
X0535765Y0148113D02*
X0010000Y0148113D01*
X0010000Y0149712D02*
X0535065Y0149712D01*
X0534928Y0151310D02*
X0010000Y0151310D01*
X0010000Y0152909D02*
X0535280Y0152909D01*
X0536285Y0154507D02*
X0010000Y0154507D01*
X0010000Y0156106D02*
X0538952Y0156106D01*
X0541048Y0156106D02*
X0578952Y0156106D01*
X0578991Y0156122D02*
X0577127Y0155350D01*
X0575700Y0153923D01*
X0574928Y0152059D01*
X0574928Y0150041D01*
X0575700Y0148177D01*
X0577127Y0146750D01*
X0578991Y0145978D01*
X0581009Y0145978D01*
X0582873Y0146750D01*
X0584300Y0148177D01*
X0585072Y0150041D01*
X0585072Y0152059D01*
X0584300Y0153923D01*
X0582873Y0155350D01*
X0581009Y0156122D01*
X0578991Y0156122D01*
X0581048Y0156106D02*
X0650000Y0156106D01*
X0650000Y0157704D02*
X0010000Y0157704D01*
X0010000Y0159303D02*
X0650000Y0159303D01*
X0650000Y0160901D02*
X0508309Y0160901D01*
X0508966Y0161558D02*
X0509678Y0163277D01*
X0509678Y0165138D01*
X0508966Y0166857D01*
X0507650Y0168173D01*
X0505930Y0168885D01*
X0504069Y0168885D01*
X0502350Y0168173D01*
X0501034Y0166857D01*
X0500322Y0165138D01*
X0500322Y0163277D01*
X0501034Y0161558D01*
X0502350Y0160242D01*
X0504069Y0159530D01*
X0505930Y0159530D01*
X0507650Y0160242D01*
X0508966Y0161558D01*
X0509356Y0162500D02*
X0650000Y0162500D01*
X0650000Y0164098D02*
X0509678Y0164098D01*
X0509447Y0165697D02*
X0650000Y0165697D01*
X0650000Y0167295D02*
X0508528Y0167295D01*
X0501472Y0167295D02*
X0010000Y0167295D01*
X0010000Y0165697D02*
X0500553Y0165697D01*
X0500322Y0164098D02*
X0010000Y0164098D01*
X0010000Y0162500D02*
X0500644Y0162500D01*
X0501691Y0160901D02*
X0010000Y0160901D01*
X0010000Y0168894D02*
X0650000Y0168894D01*
X0650000Y0170492D02*
X0090497Y0170492D01*
X0089925Y0169921D02*
X0091129Y0171125D01*
X0091781Y0172698D01*
X0091781Y0174402D01*
X0091129Y0175975D01*
X0089925Y0177179D01*
X0088352Y0177831D01*
X0086648Y0177831D01*
X0085075Y0177179D01*
X0083871Y0175975D01*
X0083219Y0174402D01*
X0083219Y0172698D01*
X0083871Y0171125D01*
X0085075Y0169921D01*
X0086648Y0169269D01*
X0088352Y0169269D01*
X0089925Y0169921D01*
X0091529Y0172091D02*
X0650000Y0172091D01*
X0650000Y0173689D02*
X0091781Y0173689D01*
X0091414Y0175288D02*
X0650000Y0175288D01*
X0650000Y0176886D02*
X0583009Y0176886D01*
X0582873Y0176750D02*
X0584300Y0178177D01*
X0585072Y0180041D01*
X0585072Y0182059D01*
X0584300Y0183923D01*
X0582873Y0185350D01*
X0581009Y0186122D01*
X0578991Y0186122D01*
X0577127Y0185350D01*
X0575700Y0183923D01*
X0574928Y0182059D01*
X0574928Y0180041D01*
X0575700Y0178177D01*
X0577127Y0176750D01*
X0578991Y0175978D01*
X0581009Y0175978D01*
X0582873Y0176750D01*
X0584427Y0178485D02*
X0650000Y0178485D01*
X0650000Y0180083D02*
X0585072Y0180083D01*
X0585072Y0181682D02*
X0650000Y0181682D01*
X0650000Y0183280D02*
X0584566Y0183280D01*
X0583344Y0184879D02*
X0650000Y0184879D01*
X0650000Y0186477D02*
X0508993Y0186477D01*
X0508966Y0186542D02*
X0507650Y0187858D01*
X0505930Y0188570D01*
X0504069Y0188570D01*
X0502350Y0187858D01*
X0501034Y0186542D01*
X0500322Y0184823D01*
X0500322Y0182962D01*
X0501034Y0181243D01*
X0502350Y0179927D01*
X0504069Y0179215D01*
X0505930Y0179215D01*
X0507650Y0179927D01*
X0508966Y0181243D01*
X0509678Y0182962D01*
X0509678Y0184823D01*
X0508966Y0186542D01*
X0509655Y0184879D02*
X0536656Y0184879D01*
X0537127Y0185350D02*
X0535700Y0183923D01*
X0534928Y0182059D01*
X0534928Y0180041D01*
X0535700Y0178177D01*
X0537127Y0176750D01*
X0538991Y0175978D01*
X0541009Y0175978D01*
X0542873Y0176750D01*
X0544300Y0178177D01*
X0545072Y0180041D01*
X0545072Y0182059D01*
X0544300Y0183923D01*
X0542873Y0185350D01*
X0541009Y0186122D01*
X0538991Y0186122D01*
X0537127Y0185350D01*
X0535434Y0183280D02*
X0509678Y0183280D01*
X0509148Y0181682D02*
X0534928Y0181682D01*
X0534928Y0180083D02*
X0507806Y0180083D01*
X0502194Y0180083D02*
X0010000Y0180083D01*
X0010000Y0178485D02*
X0535573Y0178485D01*
X0536991Y0176886D02*
X0090218Y0176886D01*
X0084782Y0176886D02*
X0010000Y0176886D01*
X0010000Y0175288D02*
X0083586Y0175288D01*
X0083219Y0173689D02*
X0010000Y0173689D01*
X0010000Y0172091D02*
X0083471Y0172091D01*
X0084503Y0170492D02*
X0010000Y0170492D01*
X0010000Y0181682D02*
X0500852Y0181682D01*
X0500322Y0183280D02*
X0010000Y0183280D01*
X0010000Y0184879D02*
X0500345Y0184879D01*
X0501007Y0186477D02*
X0451765Y0186477D01*
X0450975Y0186150D02*
X0452776Y0186896D01*
X0454154Y0188274D01*
X0454900Y0190075D01*
X0454900Y0192025D01*
X0454154Y0193826D01*
X0452776Y0195204D01*
X0450975Y0195950D01*
X0449025Y0195950D01*
X0447224Y0195204D01*
X0445846Y0193826D01*
X0445100Y0192025D01*
X0445100Y0190075D01*
X0445846Y0188274D01*
X0447224Y0186896D01*
X0449025Y0186150D01*
X0450975Y0186150D01*
X0448235Y0186477D02*
X0010000Y0186477D01*
X0010000Y0188076D02*
X0416752Y0188076D01*
X0416644Y0188184D02*
X0417134Y0187694D01*
X0417694Y0187287D01*
X0418311Y0186972D01*
X0418970Y0186758D01*
X0419654Y0186650D01*
X0420000Y0186650D01*
X0420346Y0186650D01*
X0421030Y0186758D01*
X0421689Y0186972D01*
X0422306Y0187287D01*
X0422866Y0187694D01*
X0423356Y0188184D01*
X0423763Y0188744D01*
X0424078Y0189361D01*
X0424292Y0190020D01*
X0424400Y0190704D01*
X0424400Y0191050D01*
X0424400Y0191396D01*
X0424292Y0192080D01*
X0424078Y0192739D01*
X0423763Y0193356D01*
X0423356Y0193916D01*
X0422866Y0194406D01*
X0422306Y0194813D01*
X0421689Y0195128D01*
X0421030Y0195342D01*
X0420346Y0195450D01*
X0420000Y0195450D01*
X0420000Y0191050D01*
X0424400Y0191050D01*
X0420000Y0191050D01*
X0420000Y0191050D01*
X0420000Y0191050D01*
X0420000Y0186650D01*
X0420000Y0191050D01*
X0420000Y0191050D01*
X0420000Y0191050D01*
X0415600Y0191050D01*
X0415600Y0191396D01*
X0415708Y0192080D01*
X0415922Y0192739D01*
X0416237Y0193356D01*
X0416644Y0193916D01*
X0417134Y0194406D01*
X0417694Y0194813D01*
X0418311Y0195128D01*
X0418970Y0195342D01*
X0419654Y0195450D01*
X0420000Y0195450D01*
X0420000Y0191050D01*
X0415600Y0191050D01*
X0415600Y0190704D01*
X0415708Y0190020D01*
X0415922Y0189361D01*
X0416237Y0188744D01*
X0416644Y0188184D01*
X0415821Y0189674D02*
X0010000Y0189674D01*
X0010000Y0191273D02*
X0415600Y0191273D01*
X0415990Y0192871D02*
X0278151Y0192871D01*
X0277776Y0192496D02*
X0279154Y0193874D01*
X0279900Y0195675D01*
X0279900Y0197625D01*
X0279154Y0199426D01*
X0277776Y0200804D01*
X0275975Y0201550D01*
X0274025Y0201550D01*
X0272224Y0200804D01*
X0270846Y0199426D01*
X0270100Y0197625D01*
X0270100Y0195675D01*
X0270846Y0193874D01*
X0272224Y0192496D01*
X0274025Y0191750D01*
X0275975Y0191750D01*
X0277776Y0192496D01*
X0279401Y0194470D02*
X0417221Y0194470D01*
X0417224Y0196896D02*
X0419025Y0196150D01*
X0420975Y0196150D01*
X0422776Y0196896D01*
X0424154Y0198274D01*
X0424900Y0200075D01*
X0424900Y0202025D01*
X0424154Y0203826D01*
X0422776Y0205204D01*
X0420975Y0205950D01*
X0419025Y0205950D01*
X0417224Y0205204D01*
X0415846Y0203826D01*
X0415100Y0202025D01*
X0415100Y0200075D01*
X0415846Y0198274D01*
X0417224Y0196896D01*
X0416453Y0197667D02*
X0279883Y0197667D01*
X0279900Y0196068D02*
X0650000Y0196068D01*
X0650000Y0194470D02*
X0453510Y0194470D01*
X0454549Y0192871D02*
X0650000Y0192871D01*
X0650000Y0191273D02*
X0454900Y0191273D01*
X0454734Y0189674D02*
X0650000Y0189674D01*
X0650000Y0188076D02*
X0507125Y0188076D01*
X0502875Y0188076D02*
X0453955Y0188076D01*
X0446045Y0188076D02*
X0423248Y0188076D01*
X0424179Y0189674D02*
X0445266Y0189674D01*
X0445100Y0191273D02*
X0424400Y0191273D01*
X0424010Y0192871D02*
X0445451Y0192871D01*
X0446490Y0194470D02*
X0422779Y0194470D01*
X0420000Y0194470D02*
X0420000Y0194470D01*
X0420000Y0192871D02*
X0420000Y0192871D01*
X0420000Y0191273D02*
X0420000Y0191273D01*
X0420000Y0189674D02*
X0420000Y0189674D01*
X0420000Y0188076D02*
X0420000Y0188076D01*
X0423547Y0197667D02*
X0446453Y0197667D01*
X0445846Y0198274D02*
X0447224Y0196896D01*
X0449025Y0196150D01*
X0450975Y0196150D01*
X0452776Y0196896D01*
X0454154Y0198274D01*
X0454900Y0200075D01*
X0454900Y0202025D01*
X0454154Y0203826D01*
X0452776Y0205204D01*
X0450975Y0205950D01*
X0449025Y0205950D01*
X0447224Y0205204D01*
X0445846Y0203826D01*
X0445100Y0202025D01*
X0445100Y0200075D01*
X0445846Y0198274D01*
X0445435Y0199265D02*
X0424565Y0199265D01*
X0424900Y0200864D02*
X0445100Y0200864D01*
X0445281Y0202462D02*
X0424719Y0202462D01*
X0423919Y0204061D02*
X0446081Y0204061D01*
X0448324Y0205659D02*
X0421676Y0205659D01*
X0420975Y0206150D02*
X0422776Y0206896D01*
X0424154Y0208274D01*
X0424900Y0210075D01*
X0424900Y0212025D01*
X0424154Y0213826D01*
X0422776Y0215204D01*
X0420975Y0215950D01*
X0419025Y0215950D01*
X0417224Y0215204D01*
X0415846Y0213826D01*
X0415100Y0212025D01*
X0415100Y0210075D01*
X0415846Y0208274D01*
X0417224Y0206896D01*
X0419025Y0206150D01*
X0420975Y0206150D01*
X0423138Y0207258D02*
X0446862Y0207258D01*
X0447224Y0206896D02*
X0449025Y0206150D01*
X0450975Y0206150D01*
X0452776Y0206896D01*
X0454154Y0208274D01*
X0454900Y0210075D01*
X0454900Y0212025D01*
X0454154Y0213826D01*
X0452776Y0215204D01*
X0450975Y0215950D01*
X0449025Y0215950D01*
X0447224Y0215204D01*
X0445846Y0213826D01*
X0445100Y0212025D01*
X0445100Y0210075D01*
X0445846Y0208274D01*
X0447224Y0206896D01*
X0445605Y0208856D02*
X0424395Y0208856D01*
X0424900Y0210455D02*
X0445100Y0210455D01*
X0445112Y0212053D02*
X0424888Y0212053D01*
X0424226Y0213652D02*
X0445774Y0213652D01*
X0447337Y0215251D02*
X0422663Y0215251D01*
X0422662Y0216849D02*
X0447338Y0216849D01*
X0447224Y0216896D02*
X0449025Y0216150D01*
X0450975Y0216150D01*
X0452776Y0216896D01*
X0454154Y0218274D01*
X0454900Y0220075D01*
X0454900Y0222025D01*
X0454154Y0223826D01*
X0452776Y0225204D01*
X0450975Y0225950D01*
X0449025Y0225950D01*
X0447224Y0225204D01*
X0445846Y0223826D01*
X0445100Y0222025D01*
X0445100Y0220075D01*
X0445846Y0218274D01*
X0447224Y0216896D01*
X0445774Y0218448D02*
X0424226Y0218448D01*
X0424154Y0218274D02*
X0424900Y0220075D01*
X0424900Y0222025D01*
X0424154Y0223826D01*
X0422776Y0225204D01*
X0420975Y0225950D01*
X0419025Y0225950D01*
X0417224Y0225204D01*
X0415846Y0223826D01*
X0415100Y0222025D01*
X0415100Y0220075D01*
X0415846Y0218274D01*
X0417224Y0216896D01*
X0419025Y0216150D01*
X0420975Y0216150D01*
X0422776Y0216896D01*
X0424154Y0218274D01*
X0424888Y0220046D02*
X0445112Y0220046D01*
X0445100Y0221645D02*
X0424900Y0221645D01*
X0424395Y0223243D02*
X0445605Y0223243D01*
X0446862Y0224842D02*
X0423138Y0224842D01*
X0422776Y0226896D02*
X0424154Y0228274D01*
X0424900Y0230075D01*
X0424900Y0232025D01*
X0424154Y0233826D01*
X0422776Y0235204D01*
X0420975Y0235950D01*
X0419025Y0235950D01*
X0417224Y0235204D01*
X0415846Y0233826D01*
X0415100Y0232025D01*
X0415100Y0230075D01*
X0415846Y0228274D01*
X0417224Y0226896D01*
X0419025Y0226150D01*
X0420975Y0226150D01*
X0422776Y0226896D01*
X0421675Y0226440D02*
X0448325Y0226440D01*
X0449025Y0226150D02*
X0450975Y0226150D01*
X0452776Y0226896D01*
X0454154Y0228274D01*
X0454900Y0230075D01*
X0454900Y0232025D01*
X0454154Y0233826D01*
X0452776Y0235204D01*
X0450975Y0235950D01*
X0449025Y0235950D01*
X0447224Y0235204D01*
X0445846Y0233826D01*
X0445100Y0232025D01*
X0445100Y0230075D01*
X0445846Y0228274D01*
X0447224Y0226896D01*
X0449025Y0226150D01*
X0451675Y0226440D02*
X0500861Y0226440D01*
X0501034Y0226857D02*
X0500322Y0225138D01*
X0500322Y0223277D01*
X0501034Y0221558D01*
X0502350Y0220242D01*
X0504069Y0219530D01*
X0505930Y0219530D01*
X0507650Y0220242D01*
X0508966Y0221558D01*
X0509678Y0223277D01*
X0509678Y0225138D01*
X0508966Y0226857D01*
X0507650Y0228173D01*
X0505930Y0228885D01*
X0504069Y0228885D01*
X0502350Y0228173D01*
X0501034Y0226857D01*
X0502216Y0228039D02*
X0453918Y0228039D01*
X0454718Y0229637D02*
X0650000Y0229637D01*
X0650000Y0228039D02*
X0507784Y0228039D01*
X0509139Y0226440D02*
X0650000Y0226440D01*
X0650000Y0224842D02*
X0583381Y0224842D01*
X0582873Y0225350D02*
X0581009Y0226122D01*
X0578991Y0226122D01*
X0577127Y0225350D01*
X0575700Y0223923D01*
X0574928Y0222059D01*
X0574928Y0220041D01*
X0575700Y0218177D01*
X0577127Y0216750D01*
X0578991Y0215978D01*
X0581009Y0215978D01*
X0582873Y0216750D01*
X0584300Y0218177D01*
X0585072Y0220041D01*
X0585072Y0222059D01*
X0584300Y0223923D01*
X0582873Y0225350D01*
X0584581Y0223243D02*
X0650000Y0223243D01*
X0650000Y0221645D02*
X0585072Y0221645D01*
X0585072Y0220046D02*
X0650000Y0220046D01*
X0650000Y0218448D02*
X0584412Y0218448D01*
X0582971Y0216849D02*
X0650000Y0216849D01*
X0650000Y0215251D02*
X0452663Y0215251D01*
X0452662Y0216849D02*
X0537029Y0216849D01*
X0537127Y0216750D02*
X0538991Y0215978D01*
X0541009Y0215978D01*
X0542873Y0216750D01*
X0544300Y0218177D01*
X0545072Y0220041D01*
X0545072Y0222059D01*
X0544300Y0223923D01*
X0542873Y0225350D01*
X0541009Y0226122D01*
X0538991Y0226122D01*
X0537127Y0225350D01*
X0535700Y0223923D01*
X0534928Y0222059D01*
X0534928Y0220041D01*
X0535700Y0218177D01*
X0537127Y0216750D01*
X0535588Y0218448D02*
X0454226Y0218448D01*
X0454888Y0220046D02*
X0502822Y0220046D01*
X0500998Y0221645D02*
X0454900Y0221645D01*
X0454395Y0223243D02*
X0500336Y0223243D01*
X0500322Y0224842D02*
X0453138Y0224842D01*
X0454900Y0231236D02*
X0650000Y0231236D01*
X0650000Y0232834D02*
X0454565Y0232834D01*
X0453547Y0234433D02*
X0650000Y0234433D01*
X0650000Y0236031D02*
X0364897Y0236031D01*
X0364900Y0236025D02*
X0364154Y0237826D01*
X0362776Y0239204D01*
X0360975Y0239950D01*
X0359025Y0239950D01*
X0357224Y0239204D01*
X0355846Y0237826D01*
X0355100Y0236025D01*
X0355100Y0234075D01*
X0355846Y0232274D01*
X0357224Y0230896D01*
X0359025Y0230150D01*
X0360975Y0230150D01*
X0362776Y0230896D01*
X0364154Y0232274D01*
X0364900Y0234075D01*
X0364900Y0236025D01*
X0364900Y0234433D02*
X0416453Y0234433D01*
X0415435Y0232834D02*
X0364386Y0232834D01*
X0363115Y0231236D02*
X0415100Y0231236D01*
X0415282Y0229637D02*
X0361730Y0229637D01*
X0360975Y0229950D02*
X0359025Y0229950D01*
X0357224Y0229204D01*
X0355846Y0227826D01*
X0355100Y0226025D01*
X0355100Y0224075D01*
X0355846Y0222274D01*
X0357224Y0220896D01*
X0359025Y0220150D01*
X0360975Y0220150D01*
X0362776Y0220896D01*
X0364154Y0222274D01*
X0364900Y0224075D01*
X0364900Y0226025D01*
X0364154Y0227826D01*
X0362776Y0229204D01*
X0360975Y0229950D01*
X0358270Y0229637D02*
X0331730Y0229637D01*
X0330975Y0229950D02*
X0329025Y0229950D01*
X0327224Y0229204D01*
X0325846Y0227826D01*
X0325100Y0226025D01*
X0325100Y0224075D01*
X0325846Y0222274D01*
X0327224Y0220896D01*
X0329025Y0220150D01*
X0330975Y0220150D01*
X0332776Y0220896D01*
X0334154Y0222274D01*
X0334900Y0224075D01*
X0334900Y0226025D01*
X0334154Y0227826D01*
X0332776Y0229204D01*
X0330975Y0229950D01*
X0330975Y0230150D02*
X0332776Y0230896D01*
X0334154Y0232274D01*
X0334900Y0234075D01*
X0334900Y0236025D01*
X0334154Y0237826D01*
X0332776Y0239204D01*
X0330975Y0239950D01*
X0329025Y0239950D01*
X0327224Y0239204D01*
X0325846Y0237826D01*
X0325100Y0236025D01*
X0325100Y0234075D01*
X0325846Y0232274D01*
X0327224Y0230896D01*
X0329025Y0230150D01*
X0330975Y0230150D01*
X0333115Y0231236D02*
X0356885Y0231236D01*
X0355614Y0232834D02*
X0334386Y0232834D01*
X0334900Y0234433D02*
X0355100Y0234433D01*
X0355103Y0236031D02*
X0334897Y0236031D01*
X0334235Y0237630D02*
X0355765Y0237630D01*
X0357283Y0239228D02*
X0332717Y0239228D01*
X0332608Y0240827D02*
X0357392Y0240827D01*
X0357224Y0240896D02*
X0359025Y0240150D01*
X0360975Y0240150D01*
X0362776Y0240896D01*
X0364154Y0242274D01*
X0364900Y0244075D01*
X0364900Y0246025D01*
X0364154Y0247826D01*
X0362776Y0249204D01*
X0360975Y0249950D01*
X0359025Y0249950D01*
X0357224Y0249204D01*
X0355846Y0247826D01*
X0355100Y0246025D01*
X0355100Y0244075D01*
X0355846Y0242274D01*
X0357224Y0240896D01*
X0355783Y0242425D02*
X0334216Y0242425D01*
X0334154Y0242274D02*
X0334900Y0244075D01*
X0334900Y0246025D01*
X0334154Y0247826D01*
X0332776Y0249204D01*
X0330975Y0249950D01*
X0329025Y0249950D01*
X0327224Y0249204D01*
X0325846Y0247826D01*
X0325100Y0246025D01*
X0325100Y0244075D01*
X0325846Y0242274D01*
X0327224Y0240896D01*
X0329025Y0240150D01*
X0330975Y0240150D01*
X0332776Y0240896D01*
X0334154Y0242274D01*
X0334879Y0244024D02*
X0355121Y0244024D01*
X0355100Y0245622D02*
X0334900Y0245622D01*
X0334405Y0247221D02*
X0355595Y0247221D01*
X0356840Y0248819D02*
X0333160Y0248819D01*
X0332776Y0250896D02*
X0334154Y0252274D01*
X0334900Y0254075D01*
X0334900Y0256025D01*
X0334154Y0257826D01*
X0332776Y0259204D01*
X0330975Y0259950D01*
X0329025Y0259950D01*
X0327224Y0259204D01*
X0325846Y0257826D01*
X0325100Y0256025D01*
X0325100Y0254075D01*
X0325846Y0252274D01*
X0327224Y0250896D01*
X0329025Y0250150D01*
X0330975Y0250150D01*
X0332776Y0250896D01*
X0331621Y0250418D02*
X0358379Y0250418D01*
X0359025Y0250150D02*
X0360975Y0250150D01*
X0362776Y0250896D01*
X0364154Y0252274D01*
X0364900Y0254075D01*
X0364900Y0256025D01*
X0364154Y0257826D01*
X0362776Y0259204D01*
X0360975Y0259950D01*
X0359025Y0259950D01*
X0357224Y0259204D01*
X0355846Y0257826D01*
X0355100Y0256025D01*
X0355100Y0254075D01*
X0355846Y0252274D01*
X0357224Y0250896D01*
X0359025Y0250150D01*
X0361621Y0250418D02*
X0415100Y0250418D01*
X0415100Y0250075D02*
X0415846Y0248274D01*
X0417224Y0246896D01*
X0419025Y0246150D01*
X0420975Y0246150D01*
X0422776Y0246896D01*
X0424154Y0248274D01*
X0424900Y0250075D01*
X0424900Y0252025D01*
X0424154Y0253826D01*
X0422776Y0255204D01*
X0420975Y0255950D01*
X0419025Y0255950D01*
X0417224Y0255204D01*
X0415846Y0253826D01*
X0415100Y0252025D01*
X0415100Y0250075D01*
X0415620Y0248819D02*
X0363160Y0248819D01*
X0364405Y0247221D02*
X0416900Y0247221D01*
X0417224Y0245204D02*
X0415846Y0243826D01*
X0415100Y0242025D01*
X0415100Y0240075D01*
X0415846Y0238274D01*
X0417224Y0236896D01*
X0419025Y0236150D01*
X0420975Y0236150D01*
X0422776Y0236896D01*
X0424154Y0238274D01*
X0424900Y0240075D01*
X0424900Y0242025D01*
X0424154Y0243826D01*
X0422776Y0245204D01*
X0420975Y0245950D01*
X0419025Y0245950D01*
X0417224Y0245204D01*
X0418234Y0245622D02*
X0364900Y0245622D01*
X0364879Y0244024D02*
X0416044Y0244024D01*
X0415266Y0242425D02*
X0364216Y0242425D01*
X0362608Y0240827D02*
X0415100Y0240827D01*
X0415451Y0239228D02*
X0362717Y0239228D01*
X0364235Y0237630D02*
X0416491Y0237630D01*
X0423509Y0237630D02*
X0446491Y0237630D01*
X0445846Y0238274D02*
X0447224Y0236896D01*
X0449025Y0236150D01*
X0450975Y0236150D01*
X0452776Y0236896D01*
X0454154Y0238274D01*
X0454900Y0240075D01*
X0454900Y0242025D01*
X0454154Y0243826D01*
X0452776Y0245204D01*
X0450975Y0245950D01*
X0449025Y0245950D01*
X0447224Y0245204D01*
X0445846Y0243826D01*
X0445100Y0242025D01*
X0445100Y0240075D01*
X0445846Y0238274D01*
X0445451Y0239228D02*
X0424549Y0239228D01*
X0424900Y0240827D02*
X0445100Y0240827D01*
X0445266Y0242425D02*
X0424734Y0242425D01*
X0423956Y0244024D02*
X0446044Y0244024D01*
X0448234Y0245622D02*
X0421766Y0245622D01*
X0423100Y0247221D02*
X0446900Y0247221D01*
X0447224Y0246896D02*
X0449025Y0246150D01*
X0450975Y0246150D01*
X0452776Y0246896D01*
X0454154Y0248274D01*
X0454900Y0250075D01*
X0454900Y0252025D01*
X0454154Y0253826D01*
X0452776Y0255204D01*
X0450975Y0255950D01*
X0449025Y0255950D01*
X0447224Y0255204D01*
X0445846Y0253826D01*
X0445100Y0252025D01*
X0445100Y0250075D01*
X0445846Y0248274D01*
X0447224Y0246896D01*
X0445620Y0248819D02*
X0424380Y0248819D01*
X0424900Y0250418D02*
X0445100Y0250418D01*
X0445100Y0252016D02*
X0424900Y0252016D01*
X0424241Y0253615D02*
X0445759Y0253615D01*
X0447247Y0255213D02*
X0422753Y0255213D01*
X0421689Y0256972D02*
X0422306Y0257287D01*
X0422866Y0257694D01*
X0423356Y0258184D01*
X0423763Y0258744D01*
X0424078Y0259361D01*
X0424292Y0260020D01*
X0424400Y0260704D01*
X0424400Y0261050D01*
X0424400Y0261396D01*
X0424292Y0262080D01*
X0424078Y0262739D01*
X0423763Y0263356D01*
X0423356Y0263916D01*
X0422866Y0264406D01*
X0422306Y0264813D01*
X0421689Y0265128D01*
X0421030Y0265342D01*
X0420346Y0265450D01*
X0420000Y0265450D01*
X0420000Y0261050D01*
X0424400Y0261050D01*
X0420000Y0261050D01*
X0420000Y0261050D01*
X0420000Y0261050D01*
X0420000Y0256650D01*
X0420346Y0256650D01*
X0421030Y0256758D01*
X0421689Y0256972D01*
X0421195Y0256812D02*
X0447428Y0256812D01*
X0447224Y0256896D02*
X0449025Y0256150D01*
X0450975Y0256150D01*
X0452776Y0256896D01*
X0454154Y0258274D01*
X0454900Y0260075D01*
X0454900Y0262025D01*
X0454154Y0263826D01*
X0452776Y0265204D01*
X0450975Y0265950D01*
X0449025Y0265950D01*
X0447224Y0265204D01*
X0445846Y0263826D01*
X0445100Y0262025D01*
X0445100Y0260075D01*
X0445846Y0258274D01*
X0447224Y0256896D01*
X0445790Y0258410D02*
X0423521Y0258410D01*
X0424288Y0260009D02*
X0445128Y0260009D01*
X0445100Y0261607D02*
X0424367Y0261607D01*
X0423840Y0263206D02*
X0445589Y0263206D01*
X0446825Y0264804D02*
X0422318Y0264804D01*
X0420000Y0264804D02*
X0420000Y0264804D01*
X0420000Y0265450D02*
X0419654Y0265450D01*
X0418970Y0265342D01*
X0418311Y0265128D01*
X0417694Y0264813D01*
X0417134Y0264406D01*
X0416644Y0263916D01*
X0416237Y0263356D01*
X0415922Y0262739D01*
X0415708Y0262080D01*
X0415600Y0261396D01*
X0415600Y0261050D01*
X0420000Y0261050D01*
X0420000Y0261050D01*
X0420000Y0261050D01*
X0420000Y0265450D01*
X0420000Y0263206D02*
X0420000Y0263206D01*
X0420000Y0261607D02*
X0420000Y0261607D01*
X0420000Y0261050D02*
X0415600Y0261050D01*
X0415600Y0260704D01*
X0415708Y0260020D01*
X0415922Y0259361D01*
X0416237Y0258744D01*
X0416644Y0258184D01*
X0417134Y0257694D01*
X0417694Y0257287D01*
X0418311Y0256972D01*
X0418970Y0256758D01*
X0419654Y0256650D01*
X0420000Y0256650D01*
X0420000Y0261050D01*
X0420000Y0260009D02*
X0420000Y0260009D01*
X0420000Y0258410D02*
X0420000Y0258410D01*
X0420000Y0256812D02*
X0420000Y0256812D01*
X0418805Y0256812D02*
X0364574Y0256812D01*
X0364900Y0255213D02*
X0417247Y0255213D01*
X0415759Y0253615D02*
X0364709Y0253615D01*
X0363896Y0252016D02*
X0415100Y0252016D01*
X0416479Y0258410D02*
X0363569Y0258410D01*
X0362776Y0260896D02*
X0364154Y0262274D01*
X0364900Y0264075D01*
X0364900Y0266025D01*
X0364154Y0267826D01*
X0362776Y0269204D01*
X0360975Y0269950D01*
X0359025Y0269950D01*
X0357224Y0269204D01*
X0355846Y0267826D01*
X0355100Y0266025D01*
X0355100Y0264075D01*
X0355846Y0262274D01*
X0357224Y0260896D01*
X0359025Y0260150D01*
X0360975Y0260150D01*
X0362776Y0260896D01*
X0363487Y0261607D02*
X0415633Y0261607D01*
X0415712Y0260009D02*
X0278571Y0260009D01*
X0279154Y0259426D02*
X0277776Y0260804D01*
X0275975Y0261550D01*
X0274025Y0261550D01*
X0272224Y0260804D01*
X0270846Y0259426D01*
X0270100Y0257625D01*
X0270100Y0255675D01*
X0270846Y0253874D01*
X0272224Y0252496D01*
X0274025Y0251750D01*
X0275975Y0251750D01*
X0277776Y0252496D01*
X0279154Y0253874D01*
X0279900Y0255675D01*
X0279900Y0257625D01*
X0279154Y0259426D01*
X0279575Y0258410D02*
X0326431Y0258410D01*
X0325426Y0256812D02*
X0279900Y0256812D01*
X0279709Y0255213D02*
X0325100Y0255213D01*
X0325291Y0253615D02*
X0278894Y0253615D01*
X0276618Y0252016D02*
X0326104Y0252016D01*
X0328379Y0250418D02*
X0278162Y0250418D01*
X0277776Y0250804D02*
X0275975Y0251550D01*
X0274025Y0251550D01*
X0272224Y0250804D01*
X0270846Y0249426D01*
X0270100Y0247625D01*
X0270100Y0245675D01*
X0270846Y0243874D01*
X0272224Y0242496D01*
X0274025Y0241750D01*
X0275975Y0241750D01*
X0277776Y0242496D01*
X0279154Y0243874D01*
X0279900Y0245675D01*
X0279900Y0247625D01*
X0279154Y0249426D01*
X0277776Y0250804D01*
X0279405Y0248819D02*
X0326840Y0248819D01*
X0325595Y0247221D02*
X0279900Y0247221D01*
X0279878Y0245622D02*
X0325100Y0245622D01*
X0325121Y0244024D02*
X0279216Y0244024D01*
X0277605Y0242425D02*
X0325783Y0242425D01*
X0327392Y0240827D02*
X0277721Y0240827D01*
X0277776Y0240804D02*
X0275975Y0241550D01*
X0274025Y0241550D01*
X0272224Y0240804D01*
X0270846Y0239426D01*
X0270100Y0237625D01*
X0270100Y0235675D01*
X0270846Y0233874D01*
X0272224Y0232496D01*
X0274025Y0231750D01*
X0275975Y0231750D01*
X0277776Y0232496D01*
X0279154Y0233874D01*
X0279900Y0235675D01*
X0279900Y0237625D01*
X0279154Y0239426D01*
X0277776Y0240804D01*
X0279236Y0239228D02*
X0327283Y0239228D01*
X0325765Y0237630D02*
X0279898Y0237630D01*
X0279900Y0236031D02*
X0325103Y0236031D01*
X0325100Y0234433D02*
X0279385Y0234433D01*
X0278114Y0232834D02*
X0325614Y0232834D01*
X0326885Y0231236D02*
X0276734Y0231236D01*
X0275975Y0231550D02*
X0274025Y0231550D01*
X0272224Y0230804D01*
X0270846Y0229426D01*
X0270100Y0227625D01*
X0270100Y0225675D01*
X0270846Y0223874D01*
X0272224Y0222496D01*
X0274025Y0221750D01*
X0275975Y0221750D01*
X0277776Y0222496D01*
X0279154Y0223874D01*
X0279900Y0225675D01*
X0279900Y0227625D01*
X0279154Y0229426D01*
X0277776Y0230804D01*
X0275975Y0231550D01*
X0273266Y0231236D02*
X0246734Y0231236D01*
X0245975Y0231550D02*
X0244025Y0231550D01*
X0242224Y0230804D01*
X0240846Y0229426D01*
X0240100Y0227625D01*
X0240100Y0225675D01*
X0240846Y0223874D01*
X0242224Y0222496D01*
X0244025Y0221750D01*
X0245975Y0221750D01*
X0247776Y0222496D01*
X0249154Y0223874D01*
X0249900Y0225675D01*
X0249900Y0227625D01*
X0249154Y0229426D01*
X0247776Y0230804D01*
X0245975Y0231550D01*
X0245975Y0231750D02*
X0247776Y0232496D01*
X0249154Y0233874D01*
X0249900Y0235675D01*
X0249900Y0237625D01*
X0249154Y0239426D01*
X0247776Y0240804D01*
X0245975Y0241550D01*
X0244025Y0241550D01*
X0242224Y0240804D01*
X0240846Y0239426D01*
X0240100Y0237625D01*
X0240100Y0235675D01*
X0240846Y0233874D01*
X0242224Y0232496D01*
X0244025Y0231750D01*
X0245975Y0231750D01*
X0248114Y0232834D02*
X0271886Y0232834D01*
X0270615Y0234433D02*
X0249385Y0234433D01*
X0249900Y0236031D02*
X0270100Y0236031D01*
X0270102Y0237630D02*
X0249898Y0237630D01*
X0249236Y0239228D02*
X0270764Y0239228D01*
X0272279Y0240827D02*
X0247721Y0240827D01*
X0247605Y0242425D02*
X0272395Y0242425D01*
X0270784Y0244024D02*
X0249216Y0244024D01*
X0249154Y0243874D02*
X0249900Y0245675D01*
X0249900Y0247625D01*
X0249154Y0249426D01*
X0247776Y0250804D01*
X0245975Y0251550D01*
X0244025Y0251550D01*
X0242224Y0250804D01*
X0240846Y0249426D01*
X0240100Y0247625D01*
X0240100Y0245675D01*
X0240846Y0243874D01*
X0242224Y0242496D01*
X0244025Y0241750D01*
X0245975Y0241750D01*
X0247776Y0242496D01*
X0249154Y0243874D01*
X0249878Y0245622D02*
X0270122Y0245622D01*
X0270100Y0247221D02*
X0249900Y0247221D01*
X0249405Y0248819D02*
X0270595Y0248819D01*
X0271838Y0250418D02*
X0248162Y0250418D01*
X0247776Y0252496D02*
X0249154Y0253874D01*
X0249900Y0255675D01*
X0249900Y0257625D01*
X0249154Y0259426D01*
X0247776Y0260804D01*
X0245975Y0261550D01*
X0244025Y0261550D01*
X0242224Y0260804D01*
X0240846Y0259426D01*
X0240100Y0257625D01*
X0240100Y0255675D01*
X0240846Y0253874D01*
X0242224Y0252496D01*
X0244025Y0251750D01*
X0245975Y0251750D01*
X0247776Y0252496D01*
X0246618Y0252016D02*
X0273382Y0252016D01*
X0271106Y0253615D02*
X0248894Y0253615D01*
X0249709Y0255213D02*
X0270291Y0255213D01*
X0270100Y0256812D02*
X0249900Y0256812D01*
X0249575Y0258410D02*
X0270425Y0258410D01*
X0271429Y0260009D02*
X0248571Y0260009D01*
X0247776Y0262496D02*
X0245975Y0261750D01*
X0244025Y0261750D01*
X0242224Y0262496D01*
X0240846Y0263874D01*
X0240100Y0265675D01*
X0240100Y0267625D01*
X0240846Y0269426D01*
X0242224Y0270804D01*
X0244025Y0271550D01*
X0245975Y0271550D01*
X0247776Y0270804D01*
X0249154Y0269426D01*
X0249900Y0267625D01*
X0249900Y0265675D01*
X0249154Y0263874D01*
X0247776Y0262496D01*
X0248485Y0263206D02*
X0271514Y0263206D01*
X0270846Y0263874D02*
X0272224Y0262496D01*
X0274025Y0261750D01*
X0275975Y0261750D01*
X0277776Y0262496D01*
X0279154Y0263874D01*
X0279900Y0265675D01*
X0279900Y0267625D01*
X0279154Y0269426D01*
X0277776Y0270804D01*
X0275975Y0271550D01*
X0274025Y0271550D01*
X0272224Y0270804D01*
X0270846Y0269426D01*
X0270100Y0267625D01*
X0270100Y0265675D01*
X0270846Y0263874D01*
X0270461Y0264804D02*
X0249539Y0264804D01*
X0249900Y0266403D02*
X0270100Y0266403D01*
X0270256Y0268001D02*
X0249744Y0268001D01*
X0248980Y0269600D02*
X0271020Y0269600D01*
X0273177Y0271198D02*
X0246823Y0271198D01*
X0245975Y0271750D02*
X0247776Y0272496D01*
X0249154Y0273874D01*
X0249900Y0275675D01*
X0249900Y0277625D01*
X0249154Y0279426D01*
X0247776Y0280804D01*
X0245975Y0281550D01*
X0244025Y0281550D01*
X0242224Y0280804D01*
X0240846Y0279426D01*
X0240100Y0277625D01*
X0240100Y0275675D01*
X0240846Y0273874D01*
X0242224Y0272496D01*
X0244025Y0271750D01*
X0245975Y0271750D01*
X0248077Y0272797D02*
X0271923Y0272797D01*
X0272224Y0272496D02*
X0274025Y0271750D01*
X0275975Y0271750D01*
X0277776Y0272496D01*
X0279154Y0273874D01*
X0279900Y0275675D01*
X0279900Y0277625D01*
X0279154Y0279426D01*
X0277776Y0280804D01*
X0275975Y0281550D01*
X0274025Y0281550D01*
X0272224Y0280804D01*
X0270846Y0279426D01*
X0270100Y0277625D01*
X0270100Y0275675D01*
X0270846Y0273874D01*
X0272224Y0272496D01*
X0270630Y0274395D02*
X0249370Y0274395D01*
X0249900Y0275994D02*
X0270100Y0275994D01*
X0270100Y0277592D02*
X0249900Y0277592D01*
X0249251Y0279191D02*
X0270749Y0279191D01*
X0272210Y0280789D02*
X0247790Y0280789D01*
X0246689Y0282572D02*
X0247306Y0282887D01*
X0247866Y0283294D01*
X0248356Y0283784D01*
X0248763Y0284344D01*
X0249078Y0284961D01*
X0249292Y0285620D01*
X0249400Y0286304D01*
X0249400Y0286650D01*
X0249400Y0286996D01*
X0249292Y0287680D01*
X0249078Y0288339D01*
X0248763Y0288956D01*
X0248356Y0289516D01*
X0247866Y0290006D01*
X0247306Y0290413D01*
X0246689Y0290728D01*
X0246030Y0290942D01*
X0245346Y0291050D01*
X0245000Y0291050D01*
X0245000Y0286650D01*
X0249400Y0286650D01*
X0245000Y0286650D01*
X0245000Y0286650D01*
X0245000Y0286650D01*
X0245000Y0282250D01*
X0245346Y0282250D01*
X0246030Y0282358D01*
X0246689Y0282572D01*
X0246122Y0282388D02*
X0272485Y0282388D01*
X0272224Y0282496D02*
X0274025Y0281750D01*
X0275975Y0281750D01*
X0277776Y0282496D01*
X0279154Y0283874D01*
X0279900Y0285675D01*
X0279900Y0287625D01*
X0279154Y0289426D01*
X0277776Y0290804D01*
X0275975Y0291550D01*
X0274025Y0291550D01*
X0272224Y0290804D01*
X0270846Y0289426D01*
X0270100Y0287625D01*
X0270100Y0285675D01*
X0270846Y0283874D01*
X0272224Y0282496D01*
X0270800Y0283987D02*
X0248504Y0283987D01*
X0249280Y0285585D02*
X0270137Y0285585D01*
X0270100Y0287184D02*
X0249370Y0287184D01*
X0248852Y0288782D02*
X0270579Y0288782D01*
X0271801Y0290381D02*
X0247351Y0290381D01*
X0245000Y0290381D02*
X0245000Y0290381D01*
X0245000Y0291050D02*
X0244654Y0291050D01*
X0243970Y0290942D01*
X0243311Y0290728D01*
X0242694Y0290413D01*
X0242134Y0290006D01*
X0241644Y0289516D01*
X0241237Y0288956D01*
X0240922Y0288339D01*
X0240708Y0287680D01*
X0240600Y0286996D01*
X0240600Y0286650D01*
X0245000Y0286650D01*
X0245000Y0286650D01*
X0245000Y0286650D01*
X0245000Y0291050D01*
X0245000Y0288782D02*
X0245000Y0288782D01*
X0245000Y0287184D02*
X0245000Y0287184D01*
X0245000Y0286650D02*
X0240600Y0286650D01*
X0240600Y0286304D01*
X0240708Y0285620D01*
X0240922Y0284961D01*
X0241237Y0284344D01*
X0241644Y0283784D01*
X0242134Y0283294D01*
X0242694Y0282887D01*
X0243311Y0282572D01*
X0243970Y0282358D01*
X0244654Y0282250D01*
X0245000Y0282250D01*
X0245000Y0286650D01*
X0245000Y0285585D02*
X0245000Y0285585D01*
X0245000Y0283987D02*
X0245000Y0283987D01*
X0245000Y0282388D02*
X0245000Y0282388D01*
X0243878Y0282388D02*
X0187515Y0282388D01*
X0187776Y0282496D02*
X0189154Y0283874D01*
X0189900Y0285675D01*
X0189900Y0287625D01*
X0189154Y0289426D01*
X0187776Y0290804D01*
X0185975Y0291550D01*
X0184025Y0291550D01*
X0182224Y0290804D01*
X0180846Y0289426D01*
X0180100Y0287625D01*
X0180100Y0285675D01*
X0180846Y0283874D01*
X0182224Y0282496D01*
X0184025Y0281750D01*
X0185975Y0281750D01*
X0187776Y0282496D01*
X0187776Y0280804D02*
X0185975Y0281550D01*
X0184025Y0281550D01*
X0182224Y0280804D01*
X0180846Y0279426D01*
X0180100Y0277625D01*
X0180100Y0275675D01*
X0180846Y0273874D01*
X0182224Y0272496D01*
X0184025Y0271750D01*
X0185975Y0271750D01*
X0187776Y0272496D01*
X0189154Y0273874D01*
X0189900Y0275675D01*
X0189900Y0277625D01*
X0189154Y0279426D01*
X0187776Y0280804D01*
X0187790Y0280789D02*
X0242210Y0280789D01*
X0240749Y0279191D02*
X0189251Y0279191D01*
X0189900Y0277592D02*
X0240100Y0277592D01*
X0240100Y0275994D02*
X0189900Y0275994D01*
X0189370Y0274395D02*
X0240630Y0274395D01*
X0241923Y0272797D02*
X0188077Y0272797D01*
X0187776Y0270804D02*
X0185975Y0271550D01*
X0184025Y0271550D01*
X0182224Y0270804D01*
X0180846Y0269426D01*
X0180100Y0267625D01*
X0180100Y0265675D01*
X0180846Y0263874D01*
X0182224Y0262496D01*
X0184025Y0261750D01*
X0185975Y0261750D01*
X0187776Y0262496D01*
X0189154Y0263874D01*
X0189900Y0265675D01*
X0189900Y0267625D01*
X0189154Y0269426D01*
X0187776Y0270804D01*
X0186823Y0271198D02*
X0243177Y0271198D01*
X0241020Y0269600D02*
X0188980Y0269600D01*
X0189744Y0268001D02*
X0240256Y0268001D01*
X0240100Y0266403D02*
X0189900Y0266403D01*
X0189539Y0264804D02*
X0240461Y0264804D01*
X0241514Y0263206D02*
X0188485Y0263206D01*
X0187776Y0260804D02*
X0185975Y0261550D01*
X0184025Y0261550D01*
X0182224Y0260804D01*
X0180846Y0259426D01*
X0180100Y0257625D01*
X0180100Y0255675D01*
X0180846Y0253874D01*
X0182224Y0252496D01*
X0184025Y0251750D01*
X0185975Y0251750D01*
X0187776Y0252496D01*
X0189154Y0253874D01*
X0189900Y0255675D01*
X0189900Y0257625D01*
X0189154Y0259426D01*
X0187776Y0260804D01*
X0188571Y0260009D02*
X0241429Y0260009D01*
X0240425Y0258410D02*
X0189575Y0258410D01*
X0189900Y0256812D02*
X0240100Y0256812D01*
X0240291Y0255213D02*
X0189709Y0255213D01*
X0188894Y0253615D02*
X0241106Y0253615D01*
X0243382Y0252016D02*
X0186618Y0252016D01*
X0185975Y0251550D02*
X0184025Y0251550D01*
X0182224Y0250804D01*
X0180846Y0249426D01*
X0180100Y0247625D01*
X0180100Y0245675D01*
X0180846Y0243874D01*
X0182224Y0242496D01*
X0184025Y0241750D01*
X0185975Y0241750D01*
X0187776Y0242496D01*
X0189154Y0243874D01*
X0189900Y0245675D01*
X0189900Y0247625D01*
X0189154Y0249426D01*
X0187776Y0250804D01*
X0185975Y0251550D01*
X0188162Y0250418D02*
X0241838Y0250418D01*
X0240595Y0248819D02*
X0189405Y0248819D01*
X0189900Y0247221D02*
X0240100Y0247221D01*
X0240122Y0245622D02*
X0189878Y0245622D01*
X0189216Y0244024D02*
X0240784Y0244024D01*
X0242395Y0242425D02*
X0187605Y0242425D01*
X0187721Y0240827D02*
X0242279Y0240827D01*
X0240764Y0239228D02*
X0189236Y0239228D01*
X0189154Y0239426D02*
X0187776Y0240804D01*
X0185975Y0241550D01*
X0184025Y0241550D01*
X0182224Y0240804D01*
X0180846Y0239426D01*
X0180100Y0237625D01*
X0180100Y0235675D01*
X0180846Y0233874D01*
X0182224Y0232496D01*
X0184025Y0231750D01*
X0185975Y0231750D01*
X0187776Y0232496D01*
X0189154Y0233874D01*
X0189900Y0235675D01*
X0189900Y0237625D01*
X0189154Y0239426D01*
X0189898Y0237630D02*
X0240102Y0237630D01*
X0240100Y0236031D02*
X0189900Y0236031D01*
X0189385Y0234433D02*
X0240615Y0234433D01*
X0241886Y0232834D02*
X0188114Y0232834D01*
X0187776Y0230804D02*
X0185975Y0231550D01*
X0184025Y0231550D01*
X0182224Y0230804D01*
X0180846Y0229426D01*
X0180100Y0227625D01*
X0180100Y0225675D01*
X0180846Y0223874D01*
X0182224Y0222496D01*
X0184025Y0221750D01*
X0185975Y0221750D01*
X0187776Y0222496D01*
X0189154Y0223874D01*
X0189900Y0225675D01*
X0189900Y0227625D01*
X0189154Y0229426D01*
X0187776Y0230804D01*
X0186734Y0231236D02*
X0243266Y0231236D01*
X0241057Y0229637D02*
X0188943Y0229637D01*
X0189729Y0228039D02*
X0240271Y0228039D01*
X0240100Y0226440D02*
X0189900Y0226440D01*
X0189555Y0224842D02*
X0240445Y0224842D01*
X0241477Y0223243D02*
X0188523Y0223243D01*
X0187776Y0220804D02*
X0185975Y0221550D01*
X0184025Y0221550D01*
X0182224Y0220804D01*
X0180846Y0219426D01*
X0180100Y0217625D01*
X0180100Y0215675D01*
X0180846Y0213874D01*
X0182224Y0212496D01*
X0184025Y0211750D01*
X0185975Y0211750D01*
X0187776Y0212496D01*
X0189154Y0213874D01*
X0189900Y0215675D01*
X0189900Y0217625D01*
X0189154Y0219426D01*
X0187776Y0220804D01*
X0188534Y0220046D02*
X0241466Y0220046D01*
X0240846Y0219426D02*
X0240100Y0217625D01*
X0240100Y0215675D01*
X0240846Y0213874D01*
X0242224Y0212496D01*
X0244025Y0211750D01*
X0245975Y0211750D01*
X0247776Y0212496D01*
X0249154Y0213874D01*
X0249900Y0215675D01*
X0249900Y0217625D01*
X0249154Y0219426D01*
X0247776Y0220804D01*
X0245975Y0221550D01*
X0244025Y0221550D01*
X0242224Y0220804D01*
X0240846Y0219426D01*
X0240441Y0218448D02*
X0189559Y0218448D01*
X0189900Y0216849D02*
X0240100Y0216849D01*
X0240276Y0215251D02*
X0189724Y0215251D01*
X0188932Y0213652D02*
X0241068Y0213652D01*
X0243293Y0212053D02*
X0186707Y0212053D01*
X0185975Y0211550D02*
X0184025Y0211550D01*
X0182224Y0210804D01*
X0180846Y0209426D01*
X0180100Y0207625D01*
X0180100Y0205675D01*
X0180846Y0203874D01*
X0182224Y0202496D01*
X0184025Y0201750D01*
X0185975Y0201750D01*
X0187776Y0202496D01*
X0189154Y0203874D01*
X0189900Y0205675D01*
X0189900Y0207625D01*
X0189154Y0209426D01*
X0187776Y0210804D01*
X0185975Y0211550D01*
X0188125Y0210455D02*
X0241875Y0210455D01*
X0242224Y0210804D02*
X0240846Y0209426D01*
X0240100Y0207625D01*
X0240100Y0205675D01*
X0240846Y0203874D01*
X0242224Y0202496D01*
X0244025Y0201750D01*
X0245975Y0201750D01*
X0247776Y0202496D01*
X0249154Y0203874D01*
X0249900Y0205675D01*
X0249900Y0207625D01*
X0249154Y0209426D01*
X0247776Y0210804D01*
X0245975Y0211550D01*
X0244025Y0211550D01*
X0242224Y0210804D01*
X0240610Y0208856D02*
X0189390Y0208856D01*
X0189900Y0207258D02*
X0240100Y0207258D01*
X0240107Y0205659D02*
X0189893Y0205659D01*
X0189231Y0204061D02*
X0240769Y0204061D01*
X0242305Y0202462D02*
X0187695Y0202462D01*
X0187631Y0200864D02*
X0243730Y0200864D01*
X0243970Y0200942D02*
X0243311Y0200728D01*
X0242694Y0200413D01*
X0242134Y0200006D01*
X0241644Y0199516D01*
X0241237Y0198956D01*
X0240922Y0198339D01*
X0240708Y0197680D01*
X0240600Y0196996D01*
X0240600Y0196650D01*
X0245000Y0196650D01*
X0249400Y0196650D01*
X0249400Y0196996D01*
X0249292Y0197680D01*
X0249078Y0198339D01*
X0248763Y0198956D01*
X0248356Y0199516D01*
X0247866Y0200006D01*
X0247306Y0200413D01*
X0246689Y0200728D01*
X0246030Y0200942D01*
X0245346Y0201050D01*
X0245000Y0201050D01*
X0245000Y0196650D01*
X0245000Y0196650D01*
X0245000Y0196650D01*
X0249400Y0196650D01*
X0249400Y0196304D01*
X0249292Y0195620D01*
X0249078Y0194961D01*
X0248763Y0194344D01*
X0248356Y0193784D01*
X0247866Y0193294D01*
X0247306Y0192887D01*
X0246689Y0192572D01*
X0246030Y0192358D01*
X0245346Y0192250D01*
X0245000Y0192250D01*
X0245000Y0196650D01*
X0245000Y0196650D01*
X0245000Y0196650D01*
X0245000Y0201050D01*
X0244654Y0201050D01*
X0243970Y0200942D01*
X0245000Y0200864D02*
X0245000Y0200864D01*
X0246270Y0200864D02*
X0272369Y0200864D01*
X0272305Y0202462D02*
X0247695Y0202462D01*
X0249231Y0204061D02*
X0270769Y0204061D01*
X0270846Y0203874D02*
X0272224Y0202496D01*
X0274025Y0201750D01*
X0275975Y0201750D01*
X0277776Y0202496D01*
X0279154Y0203874D01*
X0279900Y0205675D01*
X0279900Y0207625D01*
X0279154Y0209426D01*
X0277776Y0210804D01*
X0275975Y0211550D01*
X0274025Y0211550D01*
X0272224Y0210804D01*
X0270846Y0209426D01*
X0270100Y0207625D01*
X0270100Y0205675D01*
X0270846Y0203874D01*
X0270107Y0205659D02*
X0249893Y0205659D01*
X0249900Y0207258D02*
X0270100Y0207258D01*
X0270610Y0208856D02*
X0249390Y0208856D01*
X0248125Y0210455D02*
X0271875Y0210455D01*
X0272224Y0212496D02*
X0274025Y0211750D01*
X0275975Y0211750D01*
X0277776Y0212496D01*
X0279154Y0213874D01*
X0279900Y0215675D01*
X0279900Y0217625D01*
X0279154Y0219426D01*
X0277776Y0220804D01*
X0275975Y0221550D01*
X0274025Y0221550D01*
X0272224Y0220804D01*
X0270846Y0219426D01*
X0270100Y0217625D01*
X0270100Y0215675D01*
X0270846Y0213874D01*
X0272224Y0212496D01*
X0273293Y0212053D02*
X0246707Y0212053D01*
X0248932Y0213652D02*
X0271068Y0213652D01*
X0270276Y0215251D02*
X0249724Y0215251D01*
X0249900Y0216849D02*
X0270100Y0216849D01*
X0270441Y0218448D02*
X0249559Y0218448D01*
X0248534Y0220046D02*
X0271466Y0220046D01*
X0271477Y0223243D02*
X0248523Y0223243D01*
X0249555Y0224842D02*
X0270445Y0224842D01*
X0270100Y0226440D02*
X0249900Y0226440D01*
X0249729Y0228039D02*
X0270271Y0228039D01*
X0271057Y0229637D02*
X0248943Y0229637D01*
X0278943Y0229637D02*
X0328270Y0229637D01*
X0326059Y0228039D02*
X0279729Y0228039D01*
X0279900Y0226440D02*
X0325272Y0226440D01*
X0325100Y0224842D02*
X0279555Y0224842D01*
X0278523Y0223243D02*
X0325445Y0223243D01*
X0326476Y0221645D02*
X0010000Y0221645D01*
X0010000Y0223243D02*
X0151477Y0223243D01*
X0150846Y0223874D02*
X0152224Y0222496D01*
X0154025Y0221750D01*
X0155975Y0221750D01*
X0157776Y0222496D01*
X0159154Y0223874D01*
X0159900Y0225675D01*
X0159900Y0227625D01*
X0159154Y0229426D01*
X0157776Y0230804D01*
X0155975Y0231550D01*
X0154025Y0231550D01*
X0152224Y0230804D01*
X0150846Y0229426D01*
X0150100Y0227625D01*
X0150100Y0225675D01*
X0150846Y0223874D01*
X0150445Y0224842D02*
X0010000Y0224842D01*
X0010000Y0226440D02*
X0150100Y0226440D01*
X0150271Y0228039D02*
X0010000Y0228039D01*
X0010000Y0229637D02*
X0151057Y0229637D01*
X0153266Y0231236D02*
X0010000Y0231236D01*
X0010000Y0232834D02*
X0151886Y0232834D01*
X0152224Y0232496D02*
X0154025Y0231750D01*
X0155975Y0231750D01*
X0157776Y0232496D01*
X0159154Y0233874D01*
X0159900Y0235675D01*
X0159900Y0237625D01*
X0159154Y0239426D01*
X0157776Y0240804D01*
X0155975Y0241550D01*
X0154025Y0241550D01*
X0152224Y0240804D01*
X0150846Y0239426D01*
X0150100Y0237625D01*
X0150100Y0235675D01*
X0150846Y0233874D01*
X0152224Y0232496D01*
X0150615Y0234433D02*
X0010000Y0234433D01*
X0010000Y0236031D02*
X0150100Y0236031D01*
X0150102Y0237630D02*
X0010000Y0237630D01*
X0010000Y0239228D02*
X0150764Y0239228D01*
X0152279Y0240827D02*
X0010000Y0240827D01*
X0010000Y0242425D02*
X0152395Y0242425D01*
X0152224Y0242496D02*
X0154025Y0241750D01*
X0155975Y0241750D01*
X0157776Y0242496D01*
X0159154Y0243874D01*
X0159900Y0245675D01*
X0159900Y0247625D01*
X0159154Y0249426D01*
X0157776Y0250804D01*
X0155975Y0251550D01*
X0154025Y0251550D01*
X0152224Y0250804D01*
X0150846Y0249426D01*
X0150100Y0247625D01*
X0150100Y0245675D01*
X0150846Y0243874D01*
X0152224Y0242496D01*
X0150784Y0244024D02*
X0010000Y0244024D01*
X0010000Y0245622D02*
X0150122Y0245622D01*
X0150100Y0247221D02*
X0010000Y0247221D01*
X0010000Y0248819D02*
X0150595Y0248819D01*
X0151838Y0250418D02*
X0010000Y0250418D01*
X0010000Y0252016D02*
X0153382Y0252016D01*
X0154025Y0251750D02*
X0155975Y0251750D01*
X0157776Y0252496D01*
X0159154Y0253874D01*
X0159900Y0255675D01*
X0159900Y0257625D01*
X0159154Y0259426D01*
X0157776Y0260804D01*
X0155975Y0261550D01*
X0154025Y0261550D01*
X0152224Y0260804D01*
X0150846Y0259426D01*
X0150100Y0257625D01*
X0150100Y0255675D01*
X0150846Y0253874D01*
X0152224Y0252496D01*
X0154025Y0251750D01*
X0156618Y0252016D02*
X0183382Y0252016D01*
X0181838Y0250418D02*
X0158162Y0250418D01*
X0159405Y0248819D02*
X0180595Y0248819D01*
X0180100Y0247221D02*
X0159900Y0247221D01*
X0159878Y0245622D02*
X0180122Y0245622D01*
X0180784Y0244024D02*
X0159216Y0244024D01*
X0157605Y0242425D02*
X0182395Y0242425D01*
X0182279Y0240827D02*
X0157721Y0240827D01*
X0159236Y0239228D02*
X0180764Y0239228D01*
X0180102Y0237630D02*
X0159898Y0237630D01*
X0159900Y0236031D02*
X0180100Y0236031D01*
X0180615Y0234433D02*
X0159385Y0234433D01*
X0158114Y0232834D02*
X0181886Y0232834D01*
X0183266Y0231236D02*
X0156734Y0231236D01*
X0158943Y0229637D02*
X0181057Y0229637D01*
X0180271Y0228039D02*
X0159729Y0228039D01*
X0159900Y0226440D02*
X0180100Y0226440D01*
X0180445Y0224842D02*
X0159555Y0224842D01*
X0158523Y0223243D02*
X0181477Y0223243D01*
X0181466Y0220046D02*
X0158534Y0220046D01*
X0159154Y0219426D02*
X0157776Y0220804D01*
X0155975Y0221550D01*
X0154025Y0221550D01*
X0152224Y0220804D01*
X0150846Y0219426D01*
X0150100Y0217625D01*
X0150100Y0215675D01*
X0150846Y0213874D01*
X0152224Y0212496D01*
X0154025Y0211750D01*
X0155975Y0211750D01*
X0157776Y0212496D01*
X0159154Y0213874D01*
X0159900Y0215675D01*
X0159900Y0217625D01*
X0159154Y0219426D01*
X0159559Y0218448D02*
X0180441Y0218448D01*
X0180100Y0216849D02*
X0159900Y0216849D01*
X0159724Y0215251D02*
X0180276Y0215251D01*
X0181068Y0213652D02*
X0158932Y0213652D01*
X0156707Y0212053D02*
X0183293Y0212053D01*
X0181875Y0210455D02*
X0158125Y0210455D01*
X0157776Y0210804D02*
X0155975Y0211550D01*
X0154025Y0211550D01*
X0152224Y0210804D01*
X0150846Y0209426D01*
X0150100Y0207625D01*
X0150100Y0205675D01*
X0150846Y0203874D01*
X0152224Y0202496D01*
X0154025Y0201750D01*
X0155975Y0201750D01*
X0157776Y0202496D01*
X0159154Y0203874D01*
X0159900Y0205675D01*
X0159900Y0207625D01*
X0159154Y0209426D01*
X0157776Y0210804D01*
X0159390Y0208856D02*
X0180610Y0208856D01*
X0180100Y0207258D02*
X0159900Y0207258D01*
X0159893Y0205659D02*
X0180107Y0205659D01*
X0180769Y0204061D02*
X0159231Y0204061D01*
X0157695Y0202462D02*
X0182305Y0202462D01*
X0182369Y0200864D02*
X0156270Y0200864D01*
X0156030Y0200942D02*
X0155346Y0201050D01*
X0155000Y0201050D01*
X0155000Y0196650D01*
X0159400Y0196650D01*
X0159400Y0196996D01*
X0159292Y0197680D01*
X0159078Y0198339D01*
X0158763Y0198956D01*
X0158356Y0199516D01*
X0157866Y0200006D01*
X0157306Y0200413D01*
X0156689Y0200728D01*
X0156030Y0200942D01*
X0155000Y0200864D02*
X0155000Y0200864D01*
X0155000Y0201050D02*
X0154654Y0201050D01*
X0153970Y0200942D01*
X0153311Y0200728D01*
X0152694Y0200413D01*
X0152134Y0200006D01*
X0151644Y0199516D01*
X0151237Y0198956D01*
X0150922Y0198339D01*
X0150708Y0197680D01*
X0150600Y0196996D01*
X0150600Y0196650D01*
X0155000Y0196650D01*
X0155000Y0196650D01*
X0155000Y0196650D01*
X0159400Y0196650D01*
X0159400Y0196304D01*
X0159292Y0195620D01*
X0159078Y0194961D01*
X0158763Y0194344D01*
X0158356Y0193784D01*
X0157866Y0193294D01*
X0157306Y0192887D01*
X0156689Y0192572D01*
X0156030Y0192358D01*
X0155346Y0192250D01*
X0155000Y0192250D01*
X0155000Y0196650D01*
X0155000Y0196650D01*
X0155000Y0196650D01*
X0155000Y0201050D01*
X0153730Y0200864D02*
X0010000Y0200864D01*
X0010000Y0202462D02*
X0152305Y0202462D01*
X0150769Y0204061D02*
X0010000Y0204061D01*
X0010000Y0205659D02*
X0150107Y0205659D01*
X0150100Y0207258D02*
X0010000Y0207258D01*
X0010000Y0208856D02*
X0150610Y0208856D01*
X0151875Y0210455D02*
X0010000Y0210455D01*
X0010000Y0212053D02*
X0153293Y0212053D01*
X0151068Y0213652D02*
X0010000Y0213652D01*
X0010000Y0215251D02*
X0150276Y0215251D01*
X0150100Y0216849D02*
X0010000Y0216849D01*
X0010000Y0218448D02*
X0150441Y0218448D01*
X0151466Y0220046D02*
X0010000Y0220046D01*
X0010000Y0199265D02*
X0099661Y0199265D01*
X0100075Y0199679D02*
X0098871Y0198475D01*
X0098219Y0196902D01*
X0098219Y0195198D01*
X0098871Y0193625D01*
X0100075Y0192421D01*
X0101648Y0191769D01*
X0103352Y0191769D01*
X0104925Y0192421D01*
X0106129Y0193625D01*
X0106781Y0195198D01*
X0106781Y0196902D01*
X0106129Y0198475D01*
X0104925Y0199679D01*
X0103352Y0200331D01*
X0101648Y0200331D01*
X0100075Y0199679D01*
X0098536Y0197667D02*
X0010000Y0197667D01*
X0010000Y0196068D02*
X0098219Y0196068D01*
X0098521Y0194470D02*
X0010000Y0194470D01*
X0010000Y0192871D02*
X0099624Y0192871D01*
X0105376Y0192871D02*
X0109624Y0192871D01*
X0110075Y0192421D02*
X0111648Y0191769D01*
X0113352Y0191769D01*
X0114925Y0192421D01*
X0116129Y0193625D01*
X0116781Y0195198D01*
X0116781Y0196902D01*
X0116129Y0198475D01*
X0114925Y0199679D01*
X0113352Y0200331D01*
X0111648Y0200331D01*
X0110075Y0199679D01*
X0108871Y0198475D01*
X0108219Y0196902D01*
X0108219Y0195198D01*
X0108871Y0193625D01*
X0110075Y0192421D01*
X0108521Y0194470D02*
X0106479Y0194470D01*
X0106781Y0196068D02*
X0108219Y0196068D01*
X0108536Y0197667D02*
X0106464Y0197667D01*
X0105339Y0199265D02*
X0109661Y0199265D01*
X0115339Y0199265D02*
X0119661Y0199265D01*
X0120075Y0199679D02*
X0118871Y0198475D01*
X0118219Y0196902D01*
X0118219Y0195198D01*
X0118871Y0193625D01*
X0120075Y0192421D01*
X0121648Y0191769D01*
X0123352Y0191769D01*
X0124925Y0192421D01*
X0126129Y0193625D01*
X0126781Y0195198D01*
X0126781Y0196902D01*
X0126129Y0198475D01*
X0124925Y0199679D01*
X0123352Y0200331D01*
X0121648Y0200331D01*
X0120075Y0199679D01*
X0118536Y0197667D02*
X0116464Y0197667D01*
X0116781Y0196068D02*
X0118219Y0196068D01*
X0118521Y0194470D02*
X0116479Y0194470D01*
X0115376Y0192871D02*
X0119624Y0192871D01*
X0125376Y0192871D02*
X0152724Y0192871D01*
X0152694Y0192887D02*
X0153311Y0192572D01*
X0153970Y0192358D01*
X0154654Y0192250D01*
X0155000Y0192250D01*
X0155000Y0196650D01*
X0150600Y0196650D01*
X0150600Y0196304D01*
X0150708Y0195620D01*
X0150922Y0194961D01*
X0151237Y0194344D01*
X0151644Y0193784D01*
X0152134Y0193294D01*
X0152694Y0192887D01*
X0151173Y0194470D02*
X0126479Y0194470D01*
X0126781Y0196068D02*
X0150637Y0196068D01*
X0150706Y0197667D02*
X0126464Y0197667D01*
X0125339Y0199265D02*
X0151462Y0199265D01*
X0155000Y0199265D02*
X0155000Y0199265D01*
X0155000Y0197667D02*
X0155000Y0197667D01*
X0155000Y0196068D02*
X0155000Y0196068D01*
X0155000Y0194470D02*
X0155000Y0194470D01*
X0155000Y0192871D02*
X0155000Y0192871D01*
X0157276Y0192871D02*
X0181849Y0192871D01*
X0182224Y0192496D02*
X0184025Y0191750D01*
X0185975Y0191750D01*
X0187776Y0192496D01*
X0189154Y0193874D01*
X0189900Y0195675D01*
X0189900Y0197625D01*
X0189154Y0199426D01*
X0187776Y0200804D01*
X0185975Y0201550D01*
X0184025Y0201550D01*
X0182224Y0200804D01*
X0180846Y0199426D01*
X0180100Y0197625D01*
X0180100Y0195675D01*
X0180846Y0193874D01*
X0182224Y0192496D01*
X0180599Y0194470D02*
X0158827Y0194470D01*
X0159363Y0196068D02*
X0180100Y0196068D01*
X0180117Y0197667D02*
X0159294Y0197667D01*
X0158538Y0199265D02*
X0180780Y0199265D01*
X0189220Y0199265D02*
X0241462Y0199265D01*
X0240706Y0197667D02*
X0189883Y0197667D01*
X0189900Y0196068D02*
X0240637Y0196068D01*
X0240600Y0196304D02*
X0240708Y0195620D01*
X0240922Y0194961D01*
X0241237Y0194344D01*
X0241644Y0193784D01*
X0242134Y0193294D01*
X0242694Y0192887D01*
X0243311Y0192572D01*
X0243970Y0192358D01*
X0244654Y0192250D01*
X0245000Y0192250D01*
X0245000Y0196650D01*
X0240600Y0196650D01*
X0240600Y0196304D01*
X0241173Y0194470D02*
X0189401Y0194470D01*
X0188151Y0192871D02*
X0242724Y0192871D01*
X0245000Y0192871D02*
X0245000Y0192871D01*
X0245000Y0194470D02*
X0245000Y0194470D01*
X0245000Y0196068D02*
X0245000Y0196068D01*
X0245000Y0197667D02*
X0245000Y0197667D01*
X0245000Y0199265D02*
X0245000Y0199265D01*
X0248538Y0199265D02*
X0270780Y0199265D01*
X0270117Y0197667D02*
X0249294Y0197667D01*
X0249363Y0196068D02*
X0270100Y0196068D01*
X0270599Y0194470D02*
X0248827Y0194470D01*
X0247276Y0192871D02*
X0271849Y0192871D01*
X0279220Y0199265D02*
X0415435Y0199265D01*
X0415100Y0200864D02*
X0362698Y0200864D01*
X0362776Y0200896D02*
X0364154Y0202274D01*
X0364900Y0204075D01*
X0364900Y0206025D01*
X0364154Y0207826D01*
X0362776Y0209204D01*
X0360975Y0209950D01*
X0359025Y0209950D01*
X0357224Y0209204D01*
X0355846Y0207826D01*
X0355100Y0206025D01*
X0355100Y0204075D01*
X0355846Y0202274D01*
X0357224Y0200896D01*
X0359025Y0200150D01*
X0360975Y0200150D01*
X0362776Y0200896D01*
X0364232Y0202462D02*
X0415281Y0202462D01*
X0416081Y0204061D02*
X0364894Y0204061D01*
X0364900Y0205659D02*
X0418324Y0205659D01*
X0416862Y0207258D02*
X0364389Y0207258D01*
X0363123Y0208856D02*
X0415605Y0208856D01*
X0415100Y0210455D02*
X0361711Y0210455D01*
X0360975Y0210150D02*
X0362776Y0210896D01*
X0364154Y0212274D01*
X0364900Y0214075D01*
X0364900Y0216025D01*
X0364154Y0217826D01*
X0362776Y0219204D01*
X0360975Y0219950D01*
X0359025Y0219950D01*
X0357224Y0219204D01*
X0355846Y0217826D01*
X0355100Y0216025D01*
X0355100Y0214075D01*
X0355846Y0212274D01*
X0357224Y0210896D01*
X0359025Y0210150D01*
X0360975Y0210150D01*
X0358289Y0210455D02*
X0331711Y0210455D01*
X0330975Y0210150D02*
X0332776Y0210896D01*
X0334154Y0212274D01*
X0334900Y0214075D01*
X0334900Y0216025D01*
X0334154Y0217826D01*
X0332776Y0219204D01*
X0330975Y0219950D01*
X0329025Y0219950D01*
X0327224Y0219204D01*
X0325846Y0217826D01*
X0325100Y0216025D01*
X0325100Y0214075D01*
X0325846Y0212274D01*
X0327224Y0210896D01*
X0329025Y0210150D01*
X0330975Y0210150D01*
X0331030Y0209342D02*
X0330346Y0209450D01*
X0330000Y0209450D01*
X0330000Y0205050D01*
X0334400Y0205050D01*
X0334400Y0205396D01*
X0334292Y0206080D01*
X0334078Y0206739D01*
X0333763Y0207356D01*
X0333356Y0207916D01*
X0332866Y0208406D01*
X0332306Y0208813D01*
X0331689Y0209128D01*
X0331030Y0209342D01*
X0330000Y0209450D02*
X0329654Y0209450D01*
X0328970Y0209342D01*
X0328311Y0209128D01*
X0327694Y0208813D01*
X0327134Y0208406D01*
X0326644Y0207916D01*
X0326237Y0207356D01*
X0325922Y0206739D01*
X0325708Y0206080D01*
X0325600Y0205396D01*
X0325600Y0205050D01*
X0330000Y0205050D01*
X0330000Y0205050D01*
X0330000Y0205050D01*
X0334400Y0205050D01*
X0334400Y0204704D01*
X0334292Y0204020D01*
X0334078Y0203361D01*
X0333763Y0202744D01*
X0333356Y0202184D01*
X0332866Y0201694D01*
X0332306Y0201287D01*
X0331689Y0200972D01*
X0331030Y0200758D01*
X0330346Y0200650D01*
X0330000Y0200650D01*
X0330000Y0205050D01*
X0330000Y0205050D01*
X0330000Y0205050D01*
X0330000Y0209450D01*
X0330000Y0208856D02*
X0330000Y0208856D01*
X0330000Y0207258D02*
X0330000Y0207258D01*
X0330000Y0205659D02*
X0330000Y0205659D01*
X0330000Y0205050D02*
X0325600Y0205050D01*
X0325600Y0204704D01*
X0325708Y0204020D01*
X0325922Y0203361D01*
X0326237Y0202744D01*
X0326644Y0202184D01*
X0327134Y0201694D01*
X0327694Y0201287D01*
X0328311Y0200972D01*
X0328970Y0200758D01*
X0329654Y0200650D01*
X0330000Y0200650D01*
X0330000Y0205050D01*
X0330000Y0204061D02*
X0330000Y0204061D01*
X0330000Y0202462D02*
X0330000Y0202462D01*
X0330000Y0200864D02*
X0330000Y0200864D01*
X0331355Y0200864D02*
X0357302Y0200864D01*
X0355768Y0202462D02*
X0333559Y0202462D01*
X0334298Y0204061D02*
X0355106Y0204061D01*
X0355100Y0205659D02*
X0334358Y0205659D01*
X0333813Y0207258D02*
X0355611Y0207258D01*
X0356877Y0208856D02*
X0332221Y0208856D01*
X0333933Y0212053D02*
X0356067Y0212053D01*
X0355275Y0213652D02*
X0334725Y0213652D01*
X0334900Y0215251D02*
X0355100Y0215251D01*
X0355441Y0216849D02*
X0334559Y0216849D01*
X0333532Y0218448D02*
X0356468Y0218448D01*
X0356476Y0221645D02*
X0333524Y0221645D01*
X0334555Y0223243D02*
X0355445Y0223243D01*
X0355100Y0224842D02*
X0334900Y0224842D01*
X0334728Y0226440D02*
X0355272Y0226440D01*
X0356059Y0228039D02*
X0333941Y0228039D01*
X0326468Y0218448D02*
X0279559Y0218448D01*
X0279900Y0216849D02*
X0325441Y0216849D01*
X0325100Y0215251D02*
X0279724Y0215251D01*
X0278932Y0213652D02*
X0325275Y0213652D01*
X0326067Y0212053D02*
X0276707Y0212053D01*
X0278125Y0210455D02*
X0328289Y0210455D01*
X0327779Y0208856D02*
X0279390Y0208856D01*
X0279900Y0207258D02*
X0326187Y0207258D01*
X0325642Y0205659D02*
X0279893Y0205659D01*
X0279231Y0204061D02*
X0325702Y0204061D01*
X0326441Y0202462D02*
X0277695Y0202462D01*
X0277631Y0200864D02*
X0328645Y0200864D01*
X0363933Y0212053D02*
X0415112Y0212053D01*
X0415774Y0213652D02*
X0364725Y0213652D01*
X0364900Y0215251D02*
X0417337Y0215251D01*
X0417338Y0216849D02*
X0364559Y0216849D01*
X0363532Y0218448D02*
X0415774Y0218448D01*
X0415112Y0220046D02*
X0278534Y0220046D01*
X0333896Y0252016D02*
X0356104Y0252016D01*
X0355291Y0253615D02*
X0334709Y0253615D01*
X0334900Y0255213D02*
X0355100Y0255213D01*
X0355426Y0256812D02*
X0334574Y0256812D01*
X0333569Y0258410D02*
X0356431Y0258410D01*
X0356513Y0261607D02*
X0333487Y0261607D01*
X0334154Y0262274D02*
X0332776Y0260896D01*
X0330975Y0260150D01*
X0329025Y0260150D01*
X0327224Y0260896D01*
X0325846Y0262274D01*
X0325100Y0264075D01*
X0325100Y0266025D01*
X0325846Y0267826D01*
X0327224Y0269204D01*
X0329025Y0269950D01*
X0330975Y0269950D01*
X0332776Y0269204D01*
X0334154Y0267826D01*
X0334900Y0266025D01*
X0334900Y0264075D01*
X0334154Y0262274D01*
X0334540Y0263206D02*
X0355460Y0263206D01*
X0355100Y0264804D02*
X0334900Y0264804D01*
X0334743Y0266403D02*
X0355257Y0266403D01*
X0356022Y0268001D02*
X0333978Y0268001D01*
X0331820Y0269600D02*
X0358180Y0269600D01*
X0361820Y0269600D02*
X0650000Y0269600D01*
X0650000Y0271198D02*
X0426152Y0271198D01*
X0426088Y0271172D02*
X0427807Y0271884D01*
X0429123Y0273200D01*
X0429835Y0274919D01*
X0429835Y0276780D01*
X0429123Y0278500D01*
X0427807Y0279816D01*
X0426088Y0280528D01*
X0424227Y0280528D01*
X0422508Y0279816D01*
X0421192Y0278500D01*
X0420480Y0276780D01*
X0420480Y0274919D01*
X0421192Y0273200D01*
X0422508Y0271884D01*
X0424227Y0271172D01*
X0426088Y0271172D01*
X0424163Y0271198D02*
X0276823Y0271198D01*
X0278077Y0272797D02*
X0421595Y0272797D01*
X0420697Y0274395D02*
X0279370Y0274395D01*
X0279900Y0275994D02*
X0332726Y0275994D01*
X0332508Y0276084D02*
X0334227Y0275372D01*
X0336088Y0275372D01*
X0337807Y0276084D01*
X0339123Y0277400D01*
X0339835Y0279119D01*
X0339835Y0280980D01*
X0339123Y0282700D01*
X0337807Y0284016D01*
X0336088Y0284728D01*
X0334227Y0284728D01*
X0332508Y0284016D01*
X0331192Y0282700D01*
X0330480Y0280980D01*
X0330480Y0279119D01*
X0331192Y0277400D01*
X0332508Y0276084D01*
X0331112Y0277592D02*
X0279900Y0277592D01*
X0279251Y0279191D02*
X0330480Y0279191D01*
X0330480Y0280789D02*
X0277790Y0280789D01*
X0277515Y0282388D02*
X0331063Y0282388D01*
X0332478Y0283987D02*
X0279200Y0283987D01*
X0279863Y0285585D02*
X0650000Y0285585D01*
X0650000Y0283987D02*
X0356247Y0283987D01*
X0356446Y0283922D02*
X0355821Y0284125D01*
X0355171Y0284228D01*
X0354843Y0284228D01*
X0354843Y0280050D01*
X0359020Y0280050D01*
X0354843Y0280050D01*
X0354843Y0280050D01*
X0354843Y0275872D01*
X0355171Y0275872D01*
X0355821Y0275975D01*
X0356446Y0276178D01*
X0357032Y0276477D01*
X0357564Y0276863D01*
X0358029Y0277328D01*
X0358416Y0277860D01*
X0358714Y0278446D01*
X0358918Y0279072D01*
X0359020Y0279721D01*
X0359020Y0280050D01*
X0359020Y0280379D01*
X0358918Y0281028D01*
X0358714Y0281654D01*
X0358416Y0282240D01*
X0358029Y0282772D01*
X0357564Y0283237D01*
X0357032Y0283623D01*
X0356446Y0283922D01*
X0354843Y0283987D02*
X0354842Y0283987D01*
X0354842Y0284228D02*
X0354514Y0284228D01*
X0353864Y0284125D01*
X0353239Y0283922D01*
X0352653Y0283623D01*
X0352121Y0283237D01*
X0351656Y0282772D01*
X0351269Y0282240D01*
X0350971Y0281654D01*
X0350767Y0281028D01*
X0350665Y0280379D01*
X0350665Y0280050D01*
X0350665Y0279721D01*
X0350767Y0279072D01*
X0350971Y0278446D01*
X0351269Y0277860D01*
X0351656Y0277328D01*
X0352121Y0276863D01*
X0352653Y0276477D01*
X0353239Y0276178D01*
X0353864Y0275975D01*
X0354514Y0275872D01*
X0354842Y0275872D01*
X0354842Y0280050D01*
X0350665Y0280050D01*
X0354842Y0280050D01*
X0354842Y0280050D01*
X0354843Y0280050D01*
X0354842Y0280050D01*
X0354842Y0284228D01*
X0353438Y0283987D02*
X0337837Y0283987D01*
X0339252Y0282388D02*
X0351377Y0282388D01*
X0350730Y0280789D02*
X0339835Y0280789D01*
X0339835Y0279191D02*
X0350749Y0279191D01*
X0351464Y0277592D02*
X0339203Y0277592D01*
X0337589Y0275994D02*
X0353806Y0275994D01*
X0354842Y0275994D02*
X0354843Y0275994D01*
X0355879Y0275994D02*
X0420480Y0275994D01*
X0420816Y0277592D02*
X0358221Y0277592D01*
X0358936Y0279191D02*
X0421883Y0279191D01*
X0428432Y0279191D02*
X0442333Y0279191D01*
X0442121Y0279037D02*
X0441656Y0278572D01*
X0441269Y0278040D01*
X0440971Y0277454D01*
X0440767Y0276828D01*
X0440665Y0276179D01*
X0440665Y0275850D01*
X0440665Y0275521D01*
X0440767Y0274872D01*
X0440971Y0274246D01*
X0441269Y0273660D01*
X0441656Y0273128D01*
X0442121Y0272663D01*
X0442653Y0272277D01*
X0443239Y0271978D01*
X0443864Y0271775D01*
X0444514Y0271672D01*
X0444842Y0271672D01*
X0444842Y0275850D01*
X0440665Y0275850D01*
X0444842Y0275850D01*
X0444842Y0275850D01*
X0444843Y0275850D01*
X0449020Y0275850D01*
X0444843Y0275850D01*
X0444843Y0275850D01*
X0444843Y0271672D01*
X0445171Y0271672D01*
X0445821Y0271775D01*
X0446446Y0271978D01*
X0447032Y0272277D01*
X0447564Y0272663D01*
X0448029Y0273128D01*
X0448416Y0273660D01*
X0448714Y0274246D01*
X0448918Y0274872D01*
X0449020Y0275521D01*
X0449020Y0275850D01*
X0449020Y0276179D01*
X0448918Y0276828D01*
X0448714Y0277454D01*
X0448416Y0278040D01*
X0448029Y0278572D01*
X0447564Y0279037D01*
X0447032Y0279423D01*
X0446446Y0279722D01*
X0445821Y0279925D01*
X0445171Y0280028D01*
X0444843Y0280028D01*
X0444843Y0275850D01*
X0444842Y0275850D01*
X0444842Y0280028D01*
X0444514Y0280028D01*
X0443864Y0279925D01*
X0443239Y0279722D01*
X0442653Y0279423D01*
X0442121Y0279037D01*
X0441041Y0277592D02*
X0429499Y0277592D01*
X0429835Y0275994D02*
X0440665Y0275994D01*
X0440922Y0274395D02*
X0429618Y0274395D01*
X0428720Y0272797D02*
X0441987Y0272797D01*
X0444842Y0272797D02*
X0444843Y0272797D01*
X0444842Y0274395D02*
X0444843Y0274395D01*
X0444842Y0275994D02*
X0444843Y0275994D01*
X0444842Y0277592D02*
X0444843Y0277592D01*
X0444842Y0279191D02*
X0444843Y0279191D01*
X0447352Y0279191D02*
X0650000Y0279191D01*
X0650000Y0280789D02*
X0358955Y0280789D01*
X0358308Y0282388D02*
X0650000Y0282388D01*
X0650000Y0287184D02*
X0279900Y0287184D01*
X0279421Y0288782D02*
X0650000Y0288782D01*
X0650000Y0290381D02*
X0278199Y0290381D01*
X0270821Y0298475D02*
X0270171Y0298372D01*
X0269843Y0298372D01*
X0269843Y0302550D01*
X0274020Y0302550D01*
X0274020Y0302879D01*
X0273918Y0303528D01*
X0273714Y0304154D01*
X0273416Y0304740D01*
X0273029Y0305272D01*
X0272564Y0305737D01*
X0272032Y0306123D01*
X0271446Y0306422D01*
X0270821Y0306625D01*
X0270171Y0306728D01*
X0269843Y0306728D01*
X0269843Y0302550D01*
X0269843Y0302550D01*
X0274020Y0302550D01*
X0274020Y0302221D01*
X0273918Y0301572D01*
X0273714Y0300946D01*
X0273416Y0300360D01*
X0273029Y0299828D01*
X0272564Y0299363D01*
X0272032Y0298977D01*
X0271446Y0298678D01*
X0270821Y0298475D01*
X0270178Y0298373D02*
X0535473Y0298373D01*
X0535700Y0298923D02*
X0534928Y0297059D01*
X0534928Y0295041D01*
X0535700Y0293177D01*
X0537127Y0291750D01*
X0538991Y0290978D01*
X0541009Y0290978D01*
X0542873Y0291750D01*
X0544300Y0293177D01*
X0545072Y0295041D01*
X0545072Y0297059D01*
X0544300Y0298923D01*
X0542873Y0300350D01*
X0541009Y0301122D01*
X0538991Y0301122D01*
X0537127Y0300350D01*
X0535700Y0298923D01*
X0536749Y0299972D02*
X0508380Y0299972D01*
X0508966Y0300558D02*
X0509678Y0302277D01*
X0509678Y0304138D01*
X0508966Y0305857D01*
X0507650Y0307173D01*
X0505930Y0307885D01*
X0504069Y0307885D01*
X0502350Y0307173D01*
X0501034Y0305857D01*
X0500322Y0304138D01*
X0500322Y0302277D01*
X0501034Y0300558D01*
X0502350Y0299242D01*
X0504069Y0298530D01*
X0505930Y0298530D01*
X0507650Y0299242D01*
X0508966Y0300558D01*
X0509385Y0301570D02*
X0650000Y0301570D01*
X0650000Y0299972D02*
X0583251Y0299972D01*
X0582873Y0300350D02*
X0581009Y0301122D01*
X0578991Y0301122D01*
X0577127Y0300350D01*
X0575700Y0298923D01*
X0574928Y0297059D01*
X0574928Y0295041D01*
X0575700Y0293177D01*
X0577127Y0291750D01*
X0578991Y0290978D01*
X0581009Y0290978D01*
X0582873Y0291750D01*
X0584300Y0293177D01*
X0585072Y0295041D01*
X0585072Y0297059D01*
X0584300Y0298923D01*
X0582873Y0300350D01*
X0584527Y0298373D02*
X0650000Y0298373D01*
X0650000Y0296775D02*
X0585072Y0296775D01*
X0585072Y0295176D02*
X0650000Y0295176D01*
X0650000Y0293578D02*
X0584465Y0293578D01*
X0583101Y0291979D02*
X0650000Y0291979D01*
X0650000Y0303169D02*
X0509678Y0303169D01*
X0509417Y0304767D02*
X0650000Y0304767D01*
X0650000Y0306366D02*
X0508457Y0306366D01*
X0501543Y0306366D02*
X0271557Y0306366D01*
X0269843Y0306366D02*
X0269842Y0306366D01*
X0269842Y0306728D02*
X0269514Y0306728D01*
X0268864Y0306625D01*
X0268239Y0306422D01*
X0267653Y0306123D01*
X0267121Y0305737D01*
X0266656Y0305272D01*
X0266269Y0304740D01*
X0265971Y0304154D01*
X0265767Y0303528D01*
X0265665Y0302879D01*
X0265665Y0302550D01*
X0265665Y0302221D01*
X0265767Y0301572D01*
X0265971Y0300946D01*
X0266269Y0300360D01*
X0266656Y0299828D01*
X0267121Y0299363D01*
X0267653Y0298977D01*
X0268239Y0298678D01*
X0268864Y0298475D01*
X0269514Y0298372D01*
X0269842Y0298372D01*
X0269842Y0302550D01*
X0265665Y0302550D01*
X0269842Y0302550D01*
X0269842Y0302550D01*
X0269843Y0302550D01*
X0269842Y0302550D01*
X0269842Y0306728D01*
X0268128Y0306366D02*
X0252957Y0306366D01*
X0252807Y0306516D02*
X0251088Y0307228D01*
X0249227Y0307228D01*
X0247508Y0306516D01*
X0246192Y0305200D01*
X0245480Y0303480D01*
X0245480Y0301619D01*
X0246192Y0299900D01*
X0247508Y0298584D01*
X0249227Y0297872D01*
X0251088Y0297872D01*
X0252807Y0298584D01*
X0254123Y0299900D01*
X0254835Y0301619D01*
X0254835Y0303480D01*
X0254123Y0305200D01*
X0252807Y0306516D01*
X0254302Y0304767D02*
X0266289Y0304767D01*
X0265710Y0303169D02*
X0254835Y0303169D01*
X0254815Y0301570D02*
X0265768Y0301570D01*
X0266552Y0299972D02*
X0254153Y0299972D01*
X0252298Y0298373D02*
X0269507Y0298373D01*
X0269842Y0298373D02*
X0269843Y0298373D01*
X0269842Y0299972D02*
X0269843Y0299972D01*
X0269842Y0301570D02*
X0269843Y0301570D01*
X0269842Y0303169D02*
X0269843Y0303169D01*
X0269842Y0304767D02*
X0269843Y0304767D01*
X0273396Y0304767D02*
X0500583Y0304767D01*
X0500322Y0303169D02*
X0273975Y0303169D01*
X0273917Y0301570D02*
X0500615Y0301570D01*
X0501620Y0299972D02*
X0273133Y0299972D01*
X0248017Y0298373D02*
X0180178Y0298373D01*
X0180171Y0298372D02*
X0180821Y0298475D01*
X0181446Y0298678D01*
X0182032Y0298977D01*
X0182564Y0299363D01*
X0183029Y0299828D01*
X0183416Y0300360D01*
X0183714Y0300946D01*
X0183918Y0301572D01*
X0184020Y0302221D01*
X0184020Y0302550D01*
X0179843Y0302550D01*
X0184020Y0302550D01*
X0184020Y0302879D01*
X0183918Y0303528D01*
X0183714Y0304154D01*
X0183416Y0304740D01*
X0183029Y0305272D01*
X0182564Y0305737D01*
X0182032Y0306123D01*
X0181446Y0306422D01*
X0180821Y0306625D01*
X0180171Y0306728D01*
X0179843Y0306728D01*
X0179843Y0302550D01*
X0179843Y0302550D01*
X0179843Y0298372D01*
X0180171Y0298372D01*
X0179843Y0298373D02*
X0179842Y0298373D01*
X0179842Y0298372D02*
X0179842Y0302550D01*
X0175665Y0302550D01*
X0175665Y0302221D01*
X0175767Y0301572D01*
X0175971Y0300946D01*
X0176269Y0300360D01*
X0176656Y0299828D01*
X0177121Y0299363D01*
X0177653Y0298977D01*
X0178239Y0298678D01*
X0178864Y0298475D01*
X0179514Y0298372D01*
X0179842Y0298372D01*
X0179507Y0298373D02*
X0162298Y0298373D01*
X0162807Y0298584D02*
X0161088Y0297872D01*
X0159227Y0297872D01*
X0157508Y0298584D01*
X0156192Y0299900D01*
X0155480Y0301619D01*
X0155480Y0303480D01*
X0156192Y0305200D01*
X0157508Y0306516D01*
X0159227Y0307228D01*
X0161088Y0307228D01*
X0162807Y0306516D01*
X0164123Y0305200D01*
X0164835Y0303480D01*
X0164835Y0301619D01*
X0164123Y0299900D01*
X0162807Y0298584D01*
X0164153Y0299972D02*
X0176552Y0299972D01*
X0175768Y0301570D02*
X0164815Y0301570D01*
X0164835Y0303169D02*
X0175710Y0303169D01*
X0175665Y0302879D02*
X0175767Y0303528D01*
X0175971Y0304154D01*
X0176269Y0304740D01*
X0176656Y0305272D01*
X0177121Y0305737D01*
X0177653Y0306123D01*
X0178239Y0306422D01*
X0178864Y0306625D01*
X0179514Y0306728D01*
X0179842Y0306728D01*
X0179842Y0302550D01*
X0179842Y0302550D01*
X0175665Y0302550D01*
X0175665Y0302879D01*
X0176289Y0304767D02*
X0164302Y0304767D01*
X0162957Y0306366D02*
X0178128Y0306366D01*
X0179842Y0306366D02*
X0179843Y0306366D01*
X0179842Y0304767D02*
X0179843Y0304767D01*
X0179842Y0303169D02*
X0179843Y0303169D01*
X0179843Y0302550D02*
X0179842Y0302550D01*
X0179843Y0302550D01*
X0179842Y0301570D02*
X0179843Y0301570D01*
X0179842Y0299972D02*
X0179843Y0299972D01*
X0183133Y0299972D02*
X0246162Y0299972D01*
X0245500Y0301570D02*
X0183917Y0301570D01*
X0183975Y0303169D02*
X0245480Y0303169D01*
X0246012Y0304767D02*
X0183396Y0304767D01*
X0181557Y0306366D02*
X0247358Y0306366D01*
X0242649Y0290381D02*
X0188199Y0290381D01*
X0189421Y0288782D02*
X0241148Y0288782D01*
X0240630Y0287184D02*
X0189900Y0287184D01*
X0189863Y0285585D02*
X0240720Y0285585D01*
X0241496Y0283987D02*
X0189200Y0283987D01*
X0182485Y0282388D02*
X0156122Y0282388D01*
X0156030Y0282358D02*
X0156689Y0282572D01*
X0157306Y0282887D01*
X0157866Y0283294D01*
X0158356Y0283784D01*
X0158763Y0284344D01*
X0159078Y0284961D01*
X0159292Y0285620D01*
X0159400Y0286304D01*
X0159400Y0286650D01*
X0159400Y0286996D01*
X0159292Y0287680D01*
X0159078Y0288339D01*
X0158763Y0288956D01*
X0158356Y0289516D01*
X0157866Y0290006D01*
X0157306Y0290413D01*
X0156689Y0290728D01*
X0156030Y0290942D01*
X0155346Y0291050D01*
X0155000Y0291050D01*
X0155000Y0286650D01*
X0159400Y0286650D01*
X0155000Y0286650D01*
X0155000Y0286650D01*
X0155000Y0286650D01*
X0155000Y0282250D01*
X0155346Y0282250D01*
X0156030Y0282358D01*
X0155975Y0281550D02*
X0154025Y0281550D01*
X0152224Y0280804D01*
X0150846Y0279426D01*
X0150100Y0277625D01*
X0150100Y0275675D01*
X0150846Y0273874D01*
X0152224Y0272496D01*
X0154025Y0271750D01*
X0155975Y0271750D01*
X0157776Y0272496D01*
X0159154Y0273874D01*
X0159900Y0275675D01*
X0159900Y0277625D01*
X0159154Y0279426D01*
X0157776Y0280804D01*
X0155975Y0281550D01*
X0155000Y0282250D02*
X0155000Y0286650D01*
X0155000Y0286650D01*
X0155000Y0286650D01*
X0150600Y0286650D01*
X0150600Y0286996D01*
X0150708Y0287680D01*
X0150922Y0288339D01*
X0151237Y0288956D01*
X0151644Y0289516D01*
X0152134Y0290006D01*
X0152694Y0290413D01*
X0153311Y0290728D01*
X0153970Y0290942D01*
X0154654Y0291050D01*
X0155000Y0291050D01*
X0155000Y0286650D01*
X0150600Y0286650D01*
X0150600Y0286304D01*
X0150708Y0285620D01*
X0150922Y0284961D01*
X0151237Y0284344D01*
X0151644Y0283784D01*
X0152134Y0283294D01*
X0152694Y0282887D01*
X0153311Y0282572D01*
X0153970Y0282358D01*
X0154654Y0282250D01*
X0155000Y0282250D01*
X0155000Y0282388D02*
X0155000Y0282388D01*
X0153878Y0282388D02*
X0010000Y0282388D01*
X0010000Y0283987D02*
X0151496Y0283987D01*
X0150720Y0285585D02*
X0010000Y0285585D01*
X0010000Y0287184D02*
X0150630Y0287184D01*
X0151148Y0288782D02*
X0010000Y0288782D01*
X0010000Y0290381D02*
X0152649Y0290381D01*
X0155000Y0290381D02*
X0155000Y0290381D01*
X0155000Y0288782D02*
X0155000Y0288782D01*
X0155000Y0287184D02*
X0155000Y0287184D01*
X0155000Y0285585D02*
X0155000Y0285585D01*
X0155000Y0283987D02*
X0155000Y0283987D01*
X0158504Y0283987D02*
X0180800Y0283987D01*
X0180137Y0285585D02*
X0159280Y0285585D01*
X0159370Y0287184D02*
X0180100Y0287184D01*
X0180579Y0288782D02*
X0158852Y0288782D01*
X0157351Y0290381D02*
X0181801Y0290381D01*
X0182210Y0280789D02*
X0157790Y0280789D01*
X0159251Y0279191D02*
X0180749Y0279191D01*
X0180100Y0277592D02*
X0159900Y0277592D01*
X0159900Y0275994D02*
X0180100Y0275994D01*
X0180630Y0274395D02*
X0159370Y0274395D01*
X0158077Y0272797D02*
X0181923Y0272797D01*
X0183177Y0271198D02*
X0156823Y0271198D01*
X0155975Y0271550D02*
X0154025Y0271550D01*
X0152224Y0270804D01*
X0150846Y0269426D01*
X0150100Y0267625D01*
X0150100Y0265675D01*
X0150846Y0263874D01*
X0152224Y0262496D01*
X0154025Y0261750D01*
X0155975Y0261750D01*
X0157776Y0262496D01*
X0159154Y0263874D01*
X0159900Y0265675D01*
X0159900Y0267625D01*
X0159154Y0269426D01*
X0157776Y0270804D01*
X0155975Y0271550D01*
X0153177Y0271198D02*
X0010000Y0271198D01*
X0010000Y0269600D02*
X0151020Y0269600D01*
X0150256Y0268001D02*
X0010000Y0268001D01*
X0010000Y0266403D02*
X0150100Y0266403D01*
X0150461Y0264804D02*
X0010000Y0264804D01*
X0010000Y0263206D02*
X0151514Y0263206D01*
X0151429Y0260009D02*
X0010000Y0260009D01*
X0010000Y0261607D02*
X0326513Y0261607D01*
X0325460Y0263206D02*
X0278485Y0263206D01*
X0279539Y0264804D02*
X0325100Y0264804D01*
X0325257Y0266403D02*
X0279900Y0266403D01*
X0279744Y0268001D02*
X0326022Y0268001D01*
X0328180Y0269600D02*
X0278980Y0269600D01*
X0332134Y0322694D02*
X0332694Y0322287D01*
X0333311Y0321972D01*
X0333970Y0321758D01*
X0334654Y0321650D01*
X0335000Y0321650D01*
X0335346Y0321650D01*
X0336030Y0321758D01*
X0336689Y0321972D01*
X0337306Y0322287D01*
X0337866Y0322694D01*
X0338356Y0323184D01*
X0338763Y0323744D01*
X0339078Y0324361D01*
X0339292Y0325020D01*
X0339400Y0325704D01*
X0339400Y0326050D01*
X0339400Y0326396D01*
X0339292Y0327080D01*
X0339078Y0327739D01*
X0338763Y0328356D01*
X0338356Y0328916D01*
X0337866Y0329406D01*
X0337306Y0329813D01*
X0336689Y0330128D01*
X0336030Y0330342D01*
X0335346Y0330450D01*
X0335000Y0330450D01*
X0335000Y0326050D01*
X0339400Y0326050D01*
X0335000Y0326050D01*
X0335000Y0326050D01*
X0335000Y0326050D01*
X0335000Y0321650D01*
X0335000Y0326050D01*
X0335000Y0326050D01*
X0335000Y0326050D01*
X0330600Y0326050D01*
X0330600Y0326396D01*
X0330708Y0327080D01*
X0330922Y0327739D01*
X0331237Y0328356D01*
X0331644Y0328916D01*
X0332134Y0329406D01*
X0332694Y0329813D01*
X0333311Y0330128D01*
X0333970Y0330342D01*
X0334654Y0330450D01*
X0335000Y0330450D01*
X0335000Y0326050D01*
X0330600Y0326050D01*
X0330600Y0325704D01*
X0330708Y0325020D01*
X0330922Y0324361D01*
X0331237Y0323744D01*
X0331644Y0323184D01*
X0332134Y0322694D01*
X0332606Y0322351D02*
X0010000Y0322351D01*
X0010000Y0323949D02*
X0331132Y0323949D01*
X0330625Y0325548D02*
X0010000Y0325548D01*
X0010000Y0327146D02*
X0330730Y0327146D01*
X0331519Y0328745D02*
X0010000Y0328745D01*
X0010000Y0330343D02*
X0333980Y0330343D01*
X0334025Y0331150D02*
X0335975Y0331150D01*
X0337776Y0331896D01*
X0339154Y0333274D01*
X0339900Y0335075D01*
X0339900Y0337025D01*
X0339154Y0338826D01*
X0337776Y0340204D01*
X0335975Y0340950D01*
X0334025Y0340950D01*
X0332224Y0340204D01*
X0330846Y0338826D01*
X0330100Y0337025D01*
X0330100Y0335075D01*
X0330846Y0333274D01*
X0332224Y0331896D01*
X0334025Y0331150D01*
X0335000Y0330343D02*
X0335000Y0330343D01*
X0336020Y0330343D02*
X0362561Y0330343D01*
X0362224Y0330204D02*
X0360846Y0328826D01*
X0360100Y0327025D01*
X0360100Y0325075D01*
X0360846Y0323274D01*
X0362224Y0321896D01*
X0364025Y0321150D01*
X0365975Y0321150D01*
X0367776Y0321896D01*
X0369154Y0323274D01*
X0369900Y0325075D01*
X0369900Y0327025D01*
X0369154Y0328826D01*
X0367776Y0330204D01*
X0365975Y0330950D01*
X0364025Y0330950D01*
X0362224Y0330204D01*
X0362224Y0331896D02*
X0364025Y0331150D01*
X0365975Y0331150D01*
X0367776Y0331896D01*
X0369154Y0333274D01*
X0369900Y0335075D01*
X0369900Y0337025D01*
X0369154Y0338826D01*
X0367776Y0340204D01*
X0365975Y0340950D01*
X0364025Y0340950D01*
X0362224Y0340204D01*
X0360846Y0338826D01*
X0360100Y0337025D01*
X0360100Y0335075D01*
X0360846Y0333274D01*
X0362224Y0331896D01*
X0362179Y0331942D02*
X0337821Y0331942D01*
X0339264Y0333540D02*
X0360736Y0333540D01*
X0360100Y0335139D02*
X0339900Y0335139D01*
X0339900Y0336737D02*
X0360100Y0336737D01*
X0360643Y0338336D02*
X0339357Y0338336D01*
X0338045Y0339934D02*
X0361955Y0339934D01*
X0363101Y0341533D02*
X0336899Y0341533D01*
X0337776Y0341896D02*
X0339154Y0343274D01*
X0339900Y0345075D01*
X0339900Y0347025D01*
X0339154Y0348826D01*
X0337776Y0350204D01*
X0335975Y0350950D01*
X0334025Y0350950D01*
X0332224Y0350204D01*
X0330846Y0348826D01*
X0330100Y0347025D01*
X0330100Y0345075D01*
X0330846Y0343274D01*
X0332224Y0341896D01*
X0334025Y0341150D01*
X0335975Y0341150D01*
X0337776Y0341896D01*
X0339011Y0343131D02*
X0360989Y0343131D01*
X0360846Y0343274D02*
X0362224Y0341896D01*
X0364025Y0341150D01*
X0365975Y0341150D01*
X0367776Y0341896D01*
X0369154Y0343274D01*
X0369900Y0345075D01*
X0369900Y0347025D01*
X0369154Y0348826D01*
X0367776Y0350204D01*
X0365975Y0350950D01*
X0364025Y0350950D01*
X0362224Y0350204D01*
X0360846Y0348826D01*
X0360100Y0347025D01*
X0360100Y0345075D01*
X0360846Y0343274D01*
X0360243Y0344730D02*
X0339757Y0344730D01*
X0339900Y0346328D02*
X0360100Y0346328D01*
X0360474Y0347927D02*
X0339526Y0347927D01*
X0338454Y0349525D02*
X0361546Y0349525D01*
X0362224Y0351896D02*
X0364025Y0351150D01*
X0365975Y0351150D01*
X0367776Y0351896D01*
X0369154Y0353274D01*
X0369900Y0355075D01*
X0369900Y0357025D01*
X0369154Y0358826D01*
X0367776Y0360204D01*
X0365975Y0360950D01*
X0364025Y0360950D01*
X0362224Y0360204D01*
X0360846Y0358826D01*
X0360100Y0357025D01*
X0360100Y0355075D01*
X0360846Y0353274D01*
X0362224Y0351896D01*
X0361398Y0352722D02*
X0338602Y0352722D01*
X0339154Y0353274D02*
X0339900Y0355075D01*
X0339900Y0357025D01*
X0339154Y0358826D01*
X0337776Y0360204D01*
X0335975Y0360950D01*
X0334025Y0360950D01*
X0332224Y0360204D01*
X0330846Y0358826D01*
X0330100Y0357025D01*
X0330100Y0355075D01*
X0330846Y0353274D01*
X0332224Y0351896D01*
X0334025Y0351150D01*
X0335975Y0351150D01*
X0337776Y0351896D01*
X0339154Y0353274D01*
X0339588Y0354321D02*
X0360412Y0354321D01*
X0360100Y0355920D02*
X0339900Y0355920D01*
X0339696Y0357518D02*
X0360304Y0357518D01*
X0361137Y0359117D02*
X0338863Y0359117D01*
X0336542Y0360715D02*
X0363458Y0360715D01*
X0364025Y0361150D02*
X0365975Y0361150D01*
X0367776Y0361896D01*
X0369154Y0363274D01*
X0369900Y0365075D01*
X0369900Y0367025D01*
X0369154Y0368826D01*
X0367776Y0370204D01*
X0365975Y0370950D01*
X0364025Y0370950D01*
X0362224Y0370204D01*
X0360846Y0368826D01*
X0360100Y0367025D01*
X0360100Y0365075D01*
X0360846Y0363274D01*
X0362224Y0361896D01*
X0364025Y0361150D01*
X0361807Y0362314D02*
X0338193Y0362314D01*
X0337776Y0361896D02*
X0339154Y0363274D01*
X0339900Y0365075D01*
X0339900Y0367025D01*
X0339154Y0368826D01*
X0337776Y0370204D01*
X0335975Y0370950D01*
X0334025Y0370950D01*
X0332224Y0370204D01*
X0330846Y0368826D01*
X0330100Y0367025D01*
X0330100Y0365075D01*
X0330846Y0363274D01*
X0332224Y0361896D01*
X0334025Y0361150D01*
X0335975Y0361150D01*
X0337776Y0361896D01*
X0339418Y0363912D02*
X0360582Y0363912D01*
X0360100Y0365511D02*
X0339900Y0365511D01*
X0339865Y0367109D02*
X0360135Y0367109D01*
X0360797Y0368708D02*
X0339203Y0368708D01*
X0337529Y0370306D02*
X0362471Y0370306D01*
X0362224Y0371896D02*
X0364025Y0371150D01*
X0365975Y0371150D01*
X0367776Y0371896D01*
X0369154Y0373274D01*
X0369900Y0375075D01*
X0369900Y0377025D01*
X0369154Y0378826D01*
X0367776Y0380204D01*
X0365975Y0380950D01*
X0364025Y0380950D01*
X0362224Y0380204D01*
X0360846Y0378826D01*
X0360100Y0377025D01*
X0360100Y0375075D01*
X0360846Y0373274D01*
X0362224Y0371896D01*
X0362216Y0371905D02*
X0337784Y0371905D01*
X0337776Y0371896D02*
X0339154Y0373274D01*
X0339900Y0375075D01*
X0339900Y0377025D01*
X0339154Y0378826D01*
X0337776Y0380204D01*
X0335975Y0380950D01*
X0334025Y0380950D01*
X0332224Y0380204D01*
X0330846Y0378826D01*
X0330100Y0377025D01*
X0330100Y0375075D01*
X0330846Y0373274D01*
X0332224Y0371896D01*
X0334025Y0371150D01*
X0335975Y0371150D01*
X0337776Y0371896D01*
X0339249Y0373503D02*
X0360751Y0373503D01*
X0360100Y0375102D02*
X0339900Y0375102D01*
X0339900Y0376700D02*
X0360100Y0376700D01*
X0360628Y0378299D02*
X0339372Y0378299D01*
X0338082Y0379897D02*
X0361918Y0379897D01*
X0362224Y0381896D02*
X0364025Y0381150D01*
X0365975Y0381150D01*
X0367776Y0381896D01*
X0369154Y0383274D01*
X0369900Y0385075D01*
X0369900Y0387025D01*
X0369154Y0388826D01*
X0367776Y0390204D01*
X0365975Y0390950D01*
X0364025Y0390950D01*
X0362224Y0390204D01*
X0360846Y0388826D01*
X0360100Y0387025D01*
X0360100Y0385075D01*
X0360846Y0383274D01*
X0362224Y0381896D01*
X0363191Y0381496D02*
X0336809Y0381496D01*
X0335975Y0381150D02*
X0337776Y0381896D01*
X0339154Y0383274D01*
X0339900Y0385075D01*
X0339900Y0387025D01*
X0339154Y0388826D01*
X0337776Y0390204D01*
X0335975Y0390950D01*
X0334025Y0390950D01*
X0332224Y0390204D01*
X0330846Y0388826D01*
X0330100Y0387025D01*
X0330100Y0385075D01*
X0330846Y0383274D01*
X0332224Y0381896D01*
X0334025Y0381150D01*
X0335975Y0381150D01*
X0333191Y0381496D02*
X0010000Y0381496D01*
X0010000Y0383094D02*
X0331026Y0383094D01*
X0330258Y0384693D02*
X0010000Y0384693D01*
X0010000Y0386291D02*
X0330100Y0386291D01*
X0330458Y0387890D02*
X0010000Y0387890D01*
X0010000Y0389488D02*
X0331509Y0389488D01*
X0338491Y0389488D02*
X0361509Y0389488D01*
X0360458Y0387890D02*
X0339542Y0387890D01*
X0339900Y0386291D02*
X0360100Y0386291D01*
X0360258Y0384693D02*
X0339741Y0384693D01*
X0338974Y0383094D02*
X0361026Y0383094D01*
X0366809Y0381496D02*
X0415100Y0381496D01*
X0415100Y0382025D02*
X0415100Y0380075D01*
X0415846Y0378274D01*
X0417224Y0376896D01*
X0419025Y0376150D01*
X0420975Y0376150D01*
X0422776Y0376896D01*
X0424154Y0378274D01*
X0424900Y0380075D01*
X0424900Y0382025D01*
X0424154Y0383826D01*
X0422776Y0385204D01*
X0420975Y0385950D01*
X0419025Y0385950D01*
X0417224Y0385204D01*
X0415846Y0383826D01*
X0415100Y0382025D01*
X0415543Y0383094D02*
X0368974Y0383094D01*
X0369741Y0384693D02*
X0416713Y0384693D01*
X0417224Y0386896D02*
X0419025Y0386150D01*
X0420975Y0386150D01*
X0422776Y0386896D01*
X0424154Y0388274D01*
X0424900Y0390075D01*
X0424900Y0392025D01*
X0424154Y0393826D01*
X0422776Y0395204D01*
X0420975Y0395950D01*
X0419025Y0395950D01*
X0417224Y0395204D01*
X0415846Y0393826D01*
X0415100Y0392025D01*
X0415100Y0390075D01*
X0415846Y0388274D01*
X0417224Y0386896D01*
X0416231Y0387890D02*
X0369542Y0387890D01*
X0369900Y0386291D02*
X0418684Y0386291D01*
X0421316Y0386291D02*
X0448684Y0386291D01*
X0449025Y0386150D02*
X0450975Y0386150D01*
X0452776Y0386896D01*
X0454154Y0388274D01*
X0454900Y0390075D01*
X0454900Y0392025D01*
X0454154Y0393826D01*
X0452776Y0395204D01*
X0450975Y0395950D01*
X0449025Y0395950D01*
X0447224Y0395204D01*
X0445846Y0393826D01*
X0445100Y0392025D01*
X0445100Y0390075D01*
X0445846Y0388274D01*
X0447224Y0386896D01*
X0449025Y0386150D01*
X0449025Y0385950D02*
X0447224Y0385204D01*
X0445846Y0383826D01*
X0445100Y0382025D01*
X0445100Y0380075D01*
X0445846Y0378274D01*
X0447224Y0376896D01*
X0449025Y0376150D01*
X0450975Y0376150D01*
X0452776Y0376896D01*
X0454154Y0378274D01*
X0454900Y0380075D01*
X0454900Y0382025D01*
X0454154Y0383826D01*
X0452776Y0385204D01*
X0450975Y0385950D01*
X0449025Y0385950D01*
X0451316Y0386291D02*
X0501014Y0386291D01*
X0501034Y0386243D02*
X0502350Y0384927D01*
X0504069Y0384215D01*
X0505930Y0384215D01*
X0507650Y0384927D01*
X0508966Y0386243D01*
X0509678Y0387962D01*
X0509678Y0389823D01*
X0508966Y0391542D01*
X0507650Y0392858D01*
X0505930Y0393570D01*
X0504069Y0393570D01*
X0502350Y0392858D01*
X0501034Y0391542D01*
X0500322Y0389823D01*
X0500322Y0387962D01*
X0501034Y0386243D01*
X0500352Y0387890D02*
X0453769Y0387890D01*
X0454657Y0389488D02*
X0500322Y0389488D01*
X0500846Y0391087D02*
X0454900Y0391087D01*
X0454626Y0392685D02*
X0502177Y0392685D01*
X0507823Y0392685D02*
X0536192Y0392685D01*
X0535700Y0393177D02*
X0537127Y0391750D01*
X0538991Y0390978D01*
X0541009Y0390978D01*
X0542873Y0391750D01*
X0544300Y0393177D01*
X0545072Y0395041D01*
X0545072Y0397059D01*
X0544300Y0398923D01*
X0542873Y0400350D01*
X0541009Y0401122D01*
X0538991Y0401122D01*
X0537127Y0400350D01*
X0535700Y0398923D01*
X0534928Y0397059D01*
X0534928Y0395041D01*
X0535700Y0393177D01*
X0535242Y0394284D02*
X0453696Y0394284D01*
X0451138Y0395882D02*
X0534928Y0395882D01*
X0535103Y0397481D02*
X0362038Y0397481D01*
X0362032Y0397477D02*
X0362564Y0397863D01*
X0363029Y0398328D01*
X0363416Y0398860D01*
X0363714Y0399446D01*
X0363918Y0400072D01*
X0364020Y0400721D01*
X0364020Y0401050D01*
X0359843Y0401050D01*
X0364020Y0401050D01*
X0364020Y0401379D01*
X0363918Y0402028D01*
X0363714Y0402654D01*
X0363416Y0403240D01*
X0363029Y0403772D01*
X0362564Y0404237D01*
X0362032Y0404623D01*
X0361446Y0404922D01*
X0360821Y0405125D01*
X0360171Y0405228D01*
X0359843Y0405228D01*
X0359843Y0401050D01*
X0359843Y0401050D01*
X0359843Y0396872D01*
X0360171Y0396872D01*
X0360821Y0396975D01*
X0361446Y0397178D01*
X0362032Y0397477D01*
X0359843Y0397481D02*
X0359842Y0397481D01*
X0359842Y0396872D02*
X0359842Y0401050D01*
X0355665Y0401050D01*
X0355665Y0400721D01*
X0355767Y0400072D01*
X0355971Y0399446D01*
X0356269Y0398860D01*
X0356656Y0398328D01*
X0357121Y0397863D01*
X0357653Y0397477D01*
X0358239Y0397178D01*
X0358864Y0396975D01*
X0359514Y0396872D01*
X0359842Y0396872D01*
X0359842Y0399079D02*
X0359843Y0399079D01*
X0359842Y0400678D02*
X0359843Y0400678D01*
X0359842Y0401050D02*
X0359843Y0401050D01*
X0359842Y0401050D01*
X0359842Y0401050D01*
X0355665Y0401050D01*
X0355665Y0401379D01*
X0355767Y0402028D01*
X0355971Y0402654D01*
X0356269Y0403240D01*
X0356656Y0403772D01*
X0357121Y0404237D01*
X0357653Y0404623D01*
X0358239Y0404922D01*
X0358864Y0405125D01*
X0359514Y0405228D01*
X0359842Y0405228D01*
X0359842Y0401050D01*
X0359842Y0402276D02*
X0359843Y0402276D01*
X0359842Y0403875D02*
X0359843Y0403875D01*
X0362926Y0403875D02*
X0421217Y0403875D01*
X0421192Y0403900D02*
X0422508Y0402584D01*
X0424227Y0401872D01*
X0426088Y0401872D01*
X0427807Y0402584D01*
X0429123Y0403900D01*
X0429835Y0405619D01*
X0429835Y0407480D01*
X0429123Y0409200D01*
X0427807Y0410516D01*
X0426088Y0411228D01*
X0424227Y0411228D01*
X0422508Y0410516D01*
X0421192Y0409200D01*
X0420480Y0407480D01*
X0420480Y0405619D01*
X0421192Y0403900D01*
X0420540Y0405473D02*
X0341703Y0405473D01*
X0341088Y0405728D02*
X0342807Y0405016D01*
X0344123Y0403700D01*
X0344835Y0401980D01*
X0344835Y0400119D01*
X0344123Y0398400D01*
X0342807Y0397084D01*
X0341088Y0396372D01*
X0339227Y0396372D01*
X0337508Y0397084D01*
X0336192Y0398400D01*
X0335480Y0400119D01*
X0335480Y0401980D01*
X0336192Y0403700D01*
X0337508Y0405016D01*
X0339227Y0405728D01*
X0341088Y0405728D01*
X0338612Y0405473D02*
X0045000Y0405473D01*
X0045000Y0403875D02*
X0336367Y0403875D01*
X0335602Y0402276D02*
X0045000Y0402276D01*
X0045000Y0400678D02*
X0335480Y0400678D01*
X0335910Y0399079D02*
X0016029Y0399079D01*
X0014431Y0397481D02*
X0337111Y0397481D01*
X0343204Y0397481D02*
X0357647Y0397481D01*
X0356158Y0399079D02*
X0344405Y0399079D01*
X0344835Y0400678D02*
X0355671Y0400678D01*
X0355848Y0402276D02*
X0344713Y0402276D01*
X0343948Y0403875D02*
X0356759Y0403875D01*
X0363837Y0402276D02*
X0423251Y0402276D01*
X0427064Y0402276D02*
X0650000Y0402276D01*
X0650000Y0400678D02*
X0582080Y0400678D01*
X0582873Y0400350D02*
X0581009Y0401122D01*
X0578991Y0401122D01*
X0577127Y0400350D01*
X0575700Y0398923D01*
X0574928Y0397059D01*
X0574928Y0395041D01*
X0575700Y0393177D01*
X0577127Y0391750D01*
X0578991Y0390978D01*
X0581009Y0390978D01*
X0582873Y0391750D01*
X0584300Y0393177D01*
X0585072Y0395041D01*
X0585072Y0397059D01*
X0584300Y0398923D01*
X0582873Y0400350D01*
X0584143Y0399079D02*
X0650000Y0399079D01*
X0650000Y0397481D02*
X0584897Y0397481D01*
X0585072Y0395882D02*
X0650000Y0395882D01*
X0650000Y0394284D02*
X0584758Y0394284D01*
X0583808Y0392685D02*
X0650000Y0392685D01*
X0650000Y0391087D02*
X0581271Y0391087D01*
X0578729Y0391087D02*
X0541271Y0391087D01*
X0538729Y0391087D02*
X0509154Y0391087D01*
X0509678Y0389488D02*
X0650000Y0389488D01*
X0650000Y0387890D02*
X0509648Y0387890D01*
X0508986Y0386291D02*
X0650000Y0386291D01*
X0650000Y0384693D02*
X0507085Y0384693D01*
X0502915Y0384693D02*
X0453287Y0384693D01*
X0454457Y0383094D02*
X0650000Y0383094D01*
X0650000Y0381496D02*
X0454900Y0381496D01*
X0454826Y0379897D02*
X0650000Y0379897D01*
X0650000Y0378299D02*
X0454164Y0378299D01*
X0452303Y0376700D02*
X0650000Y0376700D01*
X0650000Y0375102D02*
X0452878Y0375102D01*
X0452776Y0375204D02*
X0450975Y0375950D01*
X0449025Y0375950D01*
X0447224Y0375204D01*
X0445846Y0373826D01*
X0445100Y0372025D01*
X0445100Y0370075D01*
X0445846Y0368274D01*
X0447224Y0366896D01*
X0449025Y0366150D01*
X0450975Y0366150D01*
X0452776Y0366896D01*
X0454154Y0368274D01*
X0454900Y0370075D01*
X0454900Y0372025D01*
X0454154Y0373826D01*
X0452776Y0375204D01*
X0454288Y0373503D02*
X0503147Y0373503D01*
X0502350Y0373173D02*
X0501034Y0371857D01*
X0500322Y0370138D01*
X0500322Y0368277D01*
X0501034Y0366558D01*
X0502350Y0365242D01*
X0504069Y0364530D01*
X0505930Y0364530D01*
X0507650Y0365242D01*
X0508966Y0366558D01*
X0509678Y0368277D01*
X0509678Y0370138D01*
X0508966Y0371857D01*
X0507650Y0373173D01*
X0505930Y0373885D01*
X0504069Y0373885D01*
X0502350Y0373173D01*
X0501082Y0371905D02*
X0454900Y0371905D01*
X0454900Y0370306D02*
X0500392Y0370306D01*
X0500322Y0368708D02*
X0454333Y0368708D01*
X0452989Y0367109D02*
X0500806Y0367109D01*
X0502081Y0365511D02*
X0452035Y0365511D01*
X0452776Y0365204D02*
X0450975Y0365950D01*
X0449025Y0365950D01*
X0447224Y0365204D01*
X0445846Y0363826D01*
X0445100Y0362025D01*
X0445100Y0360075D01*
X0445846Y0358274D01*
X0447224Y0356896D01*
X0449025Y0356150D01*
X0450975Y0356150D01*
X0452776Y0356896D01*
X0454154Y0358274D01*
X0454900Y0360075D01*
X0454900Y0362025D01*
X0454154Y0363826D01*
X0452776Y0365204D01*
X0454068Y0363912D02*
X0535396Y0363912D01*
X0535700Y0363177D02*
X0537127Y0361750D01*
X0538991Y0360978D01*
X0541009Y0360978D01*
X0542873Y0361750D01*
X0544300Y0363177D01*
X0545072Y0365041D01*
X0545072Y0367059D01*
X0544300Y0368923D01*
X0542873Y0370350D01*
X0541009Y0371122D01*
X0538991Y0371122D01*
X0537127Y0370350D01*
X0535700Y0368923D01*
X0534928Y0367059D01*
X0534928Y0365041D01*
X0535700Y0363177D01*
X0536564Y0362314D02*
X0454780Y0362314D01*
X0454900Y0360715D02*
X0650000Y0360715D01*
X0650000Y0359117D02*
X0454503Y0359117D01*
X0453398Y0357518D02*
X0650000Y0357518D01*
X0650000Y0355920D02*
X0451048Y0355920D01*
X0450975Y0355950D02*
X0449025Y0355950D01*
X0447224Y0355204D01*
X0445846Y0353826D01*
X0445100Y0352025D01*
X0445100Y0350075D01*
X0445846Y0348274D01*
X0447224Y0346896D01*
X0449025Y0346150D01*
X0450975Y0346150D01*
X0452776Y0346896D01*
X0454154Y0348274D01*
X0454900Y0350075D01*
X0454900Y0352025D01*
X0454154Y0353826D01*
X0452776Y0355204D01*
X0450975Y0355950D01*
X0448952Y0355920D02*
X0421048Y0355920D01*
X0420975Y0355950D02*
X0419025Y0355950D01*
X0417224Y0355204D01*
X0415846Y0353826D01*
X0415100Y0352025D01*
X0415100Y0350075D01*
X0415846Y0348274D01*
X0417224Y0346896D01*
X0419025Y0346150D01*
X0420975Y0346150D01*
X0422776Y0346896D01*
X0424154Y0348274D01*
X0424900Y0350075D01*
X0424900Y0352025D01*
X0424154Y0353826D01*
X0422776Y0355204D01*
X0420975Y0355950D01*
X0420975Y0356150D02*
X0422776Y0356896D01*
X0424154Y0358274D01*
X0424900Y0360075D01*
X0424900Y0362025D01*
X0424154Y0363826D01*
X0422776Y0365204D01*
X0420975Y0365950D01*
X0419025Y0365950D01*
X0417224Y0365204D01*
X0415846Y0363826D01*
X0415100Y0362025D01*
X0415100Y0360075D01*
X0415846Y0358274D01*
X0417224Y0356896D01*
X0419025Y0356150D01*
X0420975Y0356150D01*
X0418952Y0355920D02*
X0369900Y0355920D01*
X0369696Y0357518D02*
X0416602Y0357518D01*
X0415497Y0359117D02*
X0368863Y0359117D01*
X0366542Y0360715D02*
X0415100Y0360715D01*
X0415220Y0362314D02*
X0368193Y0362314D01*
X0369418Y0363912D02*
X0415932Y0363912D01*
X0417965Y0365511D02*
X0369900Y0365511D01*
X0369865Y0367109D02*
X0417011Y0367109D01*
X0417224Y0366896D02*
X0419025Y0366150D01*
X0420975Y0366150D01*
X0422776Y0366896D01*
X0424154Y0368274D01*
X0424900Y0370075D01*
X0424900Y0372025D01*
X0424154Y0373826D01*
X0422776Y0375204D01*
X0420975Y0375950D01*
X0419025Y0375950D01*
X0417224Y0375204D01*
X0415846Y0373826D01*
X0415100Y0372025D01*
X0415100Y0370075D01*
X0415846Y0368274D01*
X0417224Y0366896D01*
X0415667Y0368708D02*
X0369203Y0368708D01*
X0367529Y0370306D02*
X0415100Y0370306D01*
X0415100Y0371905D02*
X0367784Y0371905D01*
X0369249Y0373503D02*
X0415712Y0373503D01*
X0417122Y0375102D02*
X0369900Y0375102D01*
X0369900Y0376700D02*
X0417697Y0376700D01*
X0415836Y0378299D02*
X0369372Y0378299D01*
X0368082Y0379897D02*
X0415174Y0379897D01*
X0422303Y0376700D02*
X0447697Y0376700D01*
X0447122Y0375102D02*
X0422878Y0375102D01*
X0424288Y0373503D02*
X0445712Y0373503D01*
X0445100Y0371905D02*
X0424900Y0371905D01*
X0424900Y0370306D02*
X0445100Y0370306D01*
X0445667Y0368708D02*
X0424333Y0368708D01*
X0422989Y0367109D02*
X0447011Y0367109D01*
X0447965Y0365511D02*
X0422035Y0365511D01*
X0424068Y0363912D02*
X0445932Y0363912D01*
X0445220Y0362314D02*
X0424780Y0362314D01*
X0424900Y0360715D02*
X0445100Y0360715D01*
X0445497Y0359117D02*
X0424503Y0359117D01*
X0423398Y0357518D02*
X0446602Y0357518D01*
X0446341Y0354321D02*
X0423659Y0354321D01*
X0424611Y0352722D02*
X0445389Y0352722D01*
X0445100Y0351124D02*
X0424900Y0351124D01*
X0424672Y0349525D02*
X0445328Y0349525D01*
X0446193Y0347927D02*
X0423807Y0347927D01*
X0421405Y0346328D02*
X0448595Y0346328D01*
X0449025Y0345950D02*
X0447224Y0345204D01*
X0445846Y0343826D01*
X0445100Y0342025D01*
X0445100Y0340075D01*
X0445846Y0338274D01*
X0447224Y0336896D01*
X0449025Y0336150D01*
X0450975Y0336150D01*
X0452776Y0336896D01*
X0454154Y0338274D01*
X0454900Y0340075D01*
X0454900Y0342025D01*
X0454154Y0343826D01*
X0452776Y0345204D01*
X0450975Y0345950D01*
X0449025Y0345950D01*
X0451405Y0346328D02*
X0650000Y0346328D01*
X0650000Y0344730D02*
X0453250Y0344730D01*
X0454442Y0343131D02*
X0650000Y0343131D01*
X0650000Y0341533D02*
X0454900Y0341533D01*
X0454842Y0339934D02*
X0650000Y0339934D01*
X0650000Y0338336D02*
X0454179Y0338336D01*
X0452393Y0336737D02*
X0650000Y0336737D01*
X0650000Y0335139D02*
X0452841Y0335139D01*
X0452776Y0335204D02*
X0450975Y0335950D01*
X0449025Y0335950D01*
X0447224Y0335204D01*
X0445846Y0333826D01*
X0445100Y0332025D01*
X0445100Y0330075D01*
X0445846Y0328274D01*
X0447224Y0326896D01*
X0449025Y0326150D01*
X0450975Y0326150D01*
X0452776Y0326896D01*
X0454154Y0328274D01*
X0454900Y0330075D01*
X0454900Y0332025D01*
X0454154Y0333826D01*
X0452776Y0335204D01*
X0454272Y0333540D02*
X0650000Y0333540D01*
X0650000Y0331942D02*
X0454900Y0331942D01*
X0454900Y0330343D02*
X0537121Y0330343D01*
X0537127Y0330350D02*
X0535700Y0328923D01*
X0534928Y0327059D01*
X0534928Y0325041D01*
X0535700Y0323177D01*
X0537127Y0321750D01*
X0538991Y0320978D01*
X0541009Y0320978D01*
X0542873Y0321750D01*
X0544300Y0323177D01*
X0545072Y0325041D01*
X0545072Y0327059D01*
X0544300Y0328923D01*
X0542873Y0330350D01*
X0541009Y0331122D01*
X0538991Y0331122D01*
X0537127Y0330350D01*
X0535627Y0328745D02*
X0454349Y0328745D01*
X0453026Y0327146D02*
X0503046Y0327146D01*
X0502350Y0326858D02*
X0501034Y0325542D01*
X0500322Y0323823D01*
X0500322Y0321962D01*
X0501034Y0320243D01*
X0502350Y0318927D01*
X0504069Y0318215D01*
X0505930Y0318215D01*
X0507650Y0318927D01*
X0508966Y0320243D01*
X0509678Y0321962D01*
X0509678Y0323823D01*
X0508966Y0325542D01*
X0507650Y0326858D01*
X0505930Y0327570D01*
X0504069Y0327570D01*
X0502350Y0326858D01*
X0501040Y0325548D02*
X0451946Y0325548D01*
X0452776Y0325204D02*
X0450975Y0325950D01*
X0449025Y0325950D01*
X0447224Y0325204D01*
X0445846Y0323826D01*
X0445100Y0322025D01*
X0445100Y0320075D01*
X0445846Y0318274D01*
X0447224Y0316896D01*
X0449025Y0316150D01*
X0450975Y0316150D01*
X0452776Y0316896D01*
X0454154Y0318274D01*
X0454900Y0320075D01*
X0454900Y0322025D01*
X0454154Y0323826D01*
X0452776Y0325204D01*
X0454030Y0323949D02*
X0500374Y0323949D01*
X0500322Y0322351D02*
X0454765Y0322351D01*
X0454900Y0320752D02*
X0500823Y0320752D01*
X0502123Y0319154D02*
X0454518Y0319154D01*
X0453435Y0317555D02*
X0650000Y0317555D01*
X0650000Y0315957D02*
X0010000Y0315957D01*
X0010000Y0317555D02*
X0417324Y0317555D01*
X0417134Y0317694D02*
X0417694Y0317287D01*
X0418311Y0316972D01*
X0418970Y0316758D01*
X0419654Y0316650D01*
X0420000Y0316650D01*
X0420346Y0316650D01*
X0421030Y0316758D01*
X0421689Y0316972D01*
X0422306Y0317287D01*
X0422866Y0317694D01*
X0423356Y0318184D01*
X0423763Y0318744D01*
X0424078Y0319361D01*
X0424292Y0320020D01*
X0424400Y0320704D01*
X0424400Y0321050D01*
X0424400Y0321396D01*
X0424292Y0322080D01*
X0424078Y0322739D01*
X0423763Y0323356D01*
X0423356Y0323916D01*
X0422866Y0324406D01*
X0422306Y0324813D01*
X0421689Y0325128D01*
X0421030Y0325342D01*
X0420346Y0325450D01*
X0420000Y0325450D01*
X0420000Y0321050D01*
X0424400Y0321050D01*
X0420000Y0321050D01*
X0420000Y0321050D01*
X0420000Y0321050D01*
X0420000Y0316650D01*
X0420000Y0321050D01*
X0420000Y0321050D01*
X0420000Y0321050D01*
X0415600Y0321050D01*
X0415600Y0321396D01*
X0415708Y0322080D01*
X0415922Y0322739D01*
X0416237Y0323356D01*
X0416644Y0323916D01*
X0417134Y0324406D01*
X0417694Y0324813D01*
X0418311Y0325128D01*
X0418970Y0325342D01*
X0419654Y0325450D01*
X0420000Y0325450D01*
X0420000Y0321050D01*
X0415600Y0321050D01*
X0415600Y0320704D01*
X0415708Y0320020D01*
X0415922Y0319361D01*
X0416237Y0318744D01*
X0416644Y0318184D01*
X0417134Y0317694D01*
X0416028Y0319154D02*
X0010000Y0319154D01*
X0010000Y0320752D02*
X0415600Y0320752D01*
X0415796Y0322351D02*
X0368230Y0322351D01*
X0369434Y0323949D02*
X0416677Y0323949D01*
X0417224Y0326896D02*
X0419025Y0326150D01*
X0420975Y0326150D01*
X0422776Y0326896D01*
X0424154Y0328274D01*
X0424900Y0330075D01*
X0424900Y0332025D01*
X0424154Y0333826D01*
X0422776Y0335204D01*
X0420975Y0335950D01*
X0419025Y0335950D01*
X0417224Y0335204D01*
X0415846Y0333826D01*
X0415100Y0332025D01*
X0415100Y0330075D01*
X0415846Y0328274D01*
X0417224Y0326896D01*
X0416974Y0327146D02*
X0369850Y0327146D01*
X0369900Y0325548D02*
X0448054Y0325548D01*
X0446974Y0327146D02*
X0423026Y0327146D01*
X0424349Y0328745D02*
X0445651Y0328745D01*
X0445100Y0330343D02*
X0424900Y0330343D01*
X0424900Y0331942D02*
X0445100Y0331942D01*
X0445728Y0333540D02*
X0424272Y0333540D01*
X0422841Y0335139D02*
X0447159Y0335139D01*
X0447607Y0336737D02*
X0422393Y0336737D01*
X0422776Y0336896D02*
X0424154Y0338274D01*
X0424900Y0340075D01*
X0424900Y0342025D01*
X0424154Y0343826D01*
X0422776Y0345204D01*
X0420975Y0345950D01*
X0419025Y0345950D01*
X0417224Y0345204D01*
X0415846Y0343826D01*
X0415100Y0342025D01*
X0415100Y0340075D01*
X0415846Y0338274D01*
X0417224Y0336896D01*
X0419025Y0336150D01*
X0420975Y0336150D01*
X0422776Y0336896D01*
X0424179Y0338336D02*
X0445820Y0338336D01*
X0445158Y0339934D02*
X0424842Y0339934D01*
X0424900Y0341533D02*
X0445100Y0341533D01*
X0445558Y0343131D02*
X0424442Y0343131D01*
X0423250Y0344730D02*
X0446750Y0344730D01*
X0453807Y0347927D02*
X0650000Y0347927D01*
X0650000Y0349525D02*
X0454672Y0349525D01*
X0454900Y0351124D02*
X0650000Y0351124D01*
X0650000Y0352722D02*
X0454611Y0352722D01*
X0453659Y0354321D02*
X0650000Y0354321D01*
X0650000Y0362314D02*
X0583436Y0362314D01*
X0582873Y0361750D02*
X0584300Y0363177D01*
X0585072Y0365041D01*
X0585072Y0367059D01*
X0584300Y0368923D01*
X0582873Y0370350D01*
X0581009Y0371122D01*
X0578991Y0371122D01*
X0577127Y0370350D01*
X0575700Y0368923D01*
X0574928Y0367059D01*
X0574928Y0365041D01*
X0575700Y0363177D01*
X0577127Y0361750D01*
X0578991Y0360978D01*
X0581009Y0360978D01*
X0582873Y0361750D01*
X0584604Y0363912D02*
X0650000Y0363912D01*
X0650000Y0365511D02*
X0585072Y0365511D01*
X0585051Y0367109D02*
X0650000Y0367109D01*
X0650000Y0368708D02*
X0584389Y0368708D01*
X0582916Y0370306D02*
X0650000Y0370306D01*
X0650000Y0371905D02*
X0508918Y0371905D01*
X0509608Y0370306D02*
X0537084Y0370306D01*
X0535611Y0368708D02*
X0509678Y0368708D01*
X0509194Y0367109D02*
X0534949Y0367109D01*
X0534928Y0365511D02*
X0507919Y0365511D01*
X0506853Y0373503D02*
X0650000Y0373503D01*
X0650000Y0403875D02*
X0448063Y0403875D01*
X0448029Y0403828D02*
X0448416Y0404360D01*
X0448714Y0404946D01*
X0448918Y0405572D01*
X0449020Y0406221D01*
X0449020Y0406550D01*
X0444843Y0406550D01*
X0449020Y0406550D01*
X0449020Y0406879D01*
X0448918Y0407528D01*
X0448714Y0408154D01*
X0448416Y0408740D01*
X0448029Y0409272D01*
X0447564Y0409737D01*
X0447032Y0410123D01*
X0446446Y0410422D01*
X0445821Y0410625D01*
X0445171Y0410728D01*
X0444843Y0410728D01*
X0444843Y0406550D01*
X0444843Y0406550D01*
X0444843Y0402372D01*
X0445171Y0402372D01*
X0445821Y0402475D01*
X0446446Y0402678D01*
X0447032Y0402977D01*
X0447564Y0403363D01*
X0448029Y0403828D01*
X0448886Y0405473D02*
X0650000Y0405473D01*
X0650000Y0407072D02*
X0448990Y0407072D01*
X0448451Y0408670D02*
X0650000Y0408670D01*
X0650000Y0410269D02*
X0446746Y0410269D01*
X0444843Y0410269D02*
X0444842Y0410269D01*
X0444842Y0410728D02*
X0444514Y0410728D01*
X0443864Y0410625D01*
X0443239Y0410422D01*
X0442653Y0410123D01*
X0442121Y0409737D01*
X0441656Y0409272D01*
X0441269Y0408740D01*
X0440971Y0408154D01*
X0440767Y0407528D01*
X0440665Y0406879D01*
X0440665Y0406550D01*
X0440665Y0406221D01*
X0440767Y0405572D01*
X0440971Y0404946D01*
X0441269Y0404360D01*
X0441656Y0403828D01*
X0442121Y0403363D01*
X0442653Y0402977D01*
X0443239Y0402678D01*
X0443864Y0402475D01*
X0444514Y0402372D01*
X0444842Y0402372D01*
X0444842Y0406550D01*
X0440665Y0406550D01*
X0444842Y0406550D01*
X0444842Y0406550D01*
X0444843Y0406550D01*
X0444842Y0406550D01*
X0444842Y0410728D01*
X0442939Y0410269D02*
X0428054Y0410269D01*
X0429343Y0408670D02*
X0441234Y0408670D01*
X0440695Y0407072D02*
X0429835Y0407072D01*
X0429775Y0405473D02*
X0440799Y0405473D01*
X0441622Y0403875D02*
X0429098Y0403875D01*
X0420480Y0407072D02*
X0045000Y0407072D01*
X0045000Y0408670D02*
X0420972Y0408670D01*
X0422261Y0410269D02*
X0045000Y0410269D01*
X0045000Y0411867D02*
X0650000Y0411867D01*
X0650000Y0413466D02*
X0045000Y0413466D01*
X0045000Y0415064D02*
X0650000Y0415064D01*
X0650000Y0416663D02*
X0045000Y0416663D01*
X0045000Y0418261D02*
X0650000Y0418261D01*
X0650000Y0419860D02*
X0045000Y0419860D01*
X0045000Y0421458D02*
X0650000Y0421458D01*
X0650000Y0423057D02*
X0045000Y0423057D01*
X0045000Y0424655D02*
X0650000Y0424655D01*
X0650000Y0426254D02*
X0045000Y0426254D01*
X0045000Y0427853D02*
X0650000Y0427853D01*
X0650000Y0429451D02*
X0045000Y0429451D01*
X0045000Y0431050D02*
X0650000Y0431050D01*
X0650000Y0432648D02*
X0045000Y0432648D01*
X0045197Y0434247D02*
X0650000Y0434247D01*
X0650000Y0435845D02*
X0046795Y0435845D01*
X0048394Y0437444D02*
X0650000Y0437444D01*
X0650000Y0439042D02*
X0049992Y0439042D01*
X0051591Y0440641D02*
X0650000Y0440641D01*
X0650000Y0442239D02*
X0053189Y0442239D01*
X0054788Y0443838D02*
X0650000Y0443838D01*
X0650000Y0445436D02*
X0056386Y0445436D01*
X0012832Y0395882D02*
X0418862Y0395882D01*
X0421138Y0395882D02*
X0448862Y0395882D01*
X0446304Y0394284D02*
X0423696Y0394284D01*
X0424626Y0392685D02*
X0445374Y0392685D01*
X0445100Y0391087D02*
X0424900Y0391087D01*
X0424657Y0389488D02*
X0445343Y0389488D01*
X0446231Y0387890D02*
X0423769Y0387890D01*
X0423287Y0384693D02*
X0446713Y0384693D01*
X0445543Y0383094D02*
X0424457Y0383094D01*
X0424900Y0381496D02*
X0445100Y0381496D01*
X0445174Y0379897D02*
X0424826Y0379897D01*
X0424164Y0378299D02*
X0445836Y0378299D01*
X0415343Y0389488D02*
X0368491Y0389488D01*
X0363527Y0399079D02*
X0535857Y0399079D01*
X0537920Y0400678D02*
X0364014Y0400678D01*
X0331918Y0379897D02*
X0010000Y0379897D01*
X0010000Y0378299D02*
X0047559Y0378299D01*
X0047352Y0378213D02*
X0046037Y0376898D01*
X0045325Y0375180D01*
X0045325Y0373320D01*
X0046037Y0371602D01*
X0047352Y0370287D01*
X0049070Y0369575D01*
X0050930Y0369575D01*
X0052648Y0370287D01*
X0053963Y0371602D01*
X0054675Y0373320D01*
X0054675Y0375180D01*
X0053963Y0376898D01*
X0052648Y0378213D01*
X0050930Y0378925D01*
X0049070Y0378925D01*
X0047352Y0378213D01*
X0045955Y0376700D02*
X0010000Y0376700D01*
X0010000Y0375102D02*
X0045325Y0375102D01*
X0045325Y0373503D02*
X0010000Y0373503D01*
X0010000Y0371905D02*
X0045912Y0371905D01*
X0047333Y0370306D02*
X0010000Y0370306D01*
X0010000Y0368708D02*
X0330797Y0368708D01*
X0330135Y0367109D02*
X0010000Y0367109D01*
X0010000Y0365511D02*
X0330100Y0365511D01*
X0330582Y0363912D02*
X0010000Y0363912D01*
X0010000Y0362314D02*
X0331807Y0362314D01*
X0333458Y0360715D02*
X0010000Y0360715D01*
X0010000Y0359117D02*
X0331137Y0359117D01*
X0330304Y0357518D02*
X0010000Y0357518D01*
X0010000Y0355920D02*
X0330100Y0355920D01*
X0330412Y0354321D02*
X0010000Y0354321D01*
X0010000Y0352722D02*
X0331398Y0352722D01*
X0331546Y0349525D02*
X0010000Y0349525D01*
X0010000Y0347927D02*
X0330474Y0347927D01*
X0330100Y0346328D02*
X0010000Y0346328D01*
X0010000Y0344730D02*
X0330243Y0344730D01*
X0330989Y0343131D02*
X0010000Y0343131D01*
X0010000Y0341533D02*
X0333101Y0341533D01*
X0331955Y0339934D02*
X0010000Y0339934D01*
X0010000Y0338336D02*
X0330643Y0338336D01*
X0330100Y0336737D02*
X0010000Y0336737D01*
X0010000Y0335139D02*
X0330100Y0335139D01*
X0330736Y0333540D02*
X0010000Y0333540D01*
X0010000Y0331942D02*
X0332179Y0331942D01*
X0335000Y0328745D02*
X0335000Y0328745D01*
X0335000Y0327146D02*
X0335000Y0327146D01*
X0335000Y0325548D02*
X0335000Y0325548D01*
X0335000Y0323949D02*
X0335000Y0323949D01*
X0335000Y0322351D02*
X0335000Y0322351D01*
X0337394Y0322351D02*
X0361770Y0322351D01*
X0360566Y0323949D02*
X0338868Y0323949D01*
X0339375Y0325548D02*
X0360100Y0325548D01*
X0360150Y0327146D02*
X0339270Y0327146D01*
X0338481Y0328745D02*
X0360813Y0328745D01*
X0367439Y0330343D02*
X0415100Y0330343D01*
X0415100Y0331942D02*
X0367821Y0331942D01*
X0369264Y0333540D02*
X0415728Y0333540D01*
X0417159Y0335139D02*
X0369900Y0335139D01*
X0369900Y0336737D02*
X0417607Y0336737D01*
X0415820Y0338336D02*
X0369357Y0338336D01*
X0368045Y0339934D02*
X0415158Y0339934D01*
X0415100Y0341533D02*
X0366899Y0341533D01*
X0369011Y0343131D02*
X0415558Y0343131D01*
X0416750Y0344730D02*
X0369757Y0344730D01*
X0369900Y0346328D02*
X0418595Y0346328D01*
X0416193Y0347927D02*
X0369526Y0347927D01*
X0368454Y0349525D02*
X0415328Y0349525D01*
X0415100Y0351124D02*
X0010000Y0351124D01*
X0052441Y0378299D02*
X0057559Y0378299D01*
X0057352Y0378213D02*
X0056037Y0376898D01*
X0055325Y0375180D01*
X0055325Y0373320D01*
X0056037Y0371602D01*
X0057352Y0370287D01*
X0059070Y0369575D01*
X0060930Y0369575D01*
X0062648Y0370287D01*
X0063963Y0371602D01*
X0064675Y0373320D01*
X0064675Y0375180D01*
X0063963Y0376898D01*
X0062648Y0378213D01*
X0060930Y0378925D01*
X0059070Y0378925D01*
X0057352Y0378213D01*
X0055955Y0376700D02*
X0054045Y0376700D01*
X0054675Y0375102D02*
X0055325Y0375102D01*
X0055325Y0373503D02*
X0054675Y0373503D01*
X0054088Y0371905D02*
X0055912Y0371905D01*
X0057333Y0370306D02*
X0052667Y0370306D01*
X0062667Y0370306D02*
X0067333Y0370306D01*
X0067352Y0370287D02*
X0069070Y0369575D01*
X0070930Y0369575D01*
X0072648Y0370287D01*
X0073963Y0371602D01*
X0074675Y0373320D01*
X0074675Y0375180D01*
X0073963Y0376898D01*
X0072648Y0378213D01*
X0070930Y0378925D01*
X0069070Y0378925D01*
X0067352Y0378213D01*
X0066037Y0376898D01*
X0065325Y0375180D01*
X0065325Y0373320D01*
X0066037Y0371602D01*
X0067352Y0370287D01*
X0065912Y0371905D02*
X0064088Y0371905D01*
X0064675Y0373503D02*
X0065325Y0373503D01*
X0065325Y0375102D02*
X0064675Y0375102D01*
X0064045Y0376700D02*
X0065955Y0376700D01*
X0067559Y0378299D02*
X0062441Y0378299D01*
X0072441Y0378299D02*
X0330628Y0378299D01*
X0330100Y0376700D02*
X0074045Y0376700D01*
X0074675Y0375102D02*
X0330100Y0375102D01*
X0330751Y0373503D02*
X0074675Y0373503D01*
X0074088Y0371905D02*
X0332216Y0371905D01*
X0332471Y0370306D02*
X0072667Y0370306D01*
X0011234Y0394284D02*
X0416304Y0394284D01*
X0415374Y0392685D02*
X0010000Y0392685D01*
X0010000Y0391087D02*
X0415100Y0391087D01*
X0444842Y0403875D02*
X0444843Y0403875D01*
X0444842Y0405473D02*
X0444843Y0405473D01*
X0444842Y0407072D02*
X0444843Y0407072D01*
X0444842Y0408670D02*
X0444843Y0408670D01*
X0416341Y0354321D02*
X0369588Y0354321D01*
X0368602Y0352722D02*
X0415389Y0352722D01*
X0415651Y0328745D02*
X0369187Y0328745D01*
X0420000Y0323949D02*
X0420000Y0323949D01*
X0420000Y0322351D02*
X0420000Y0322351D01*
X0420000Y0320752D02*
X0420000Y0320752D01*
X0420000Y0319154D02*
X0420000Y0319154D01*
X0420000Y0317555D02*
X0420000Y0317555D01*
X0422676Y0317555D02*
X0446565Y0317555D01*
X0445482Y0319154D02*
X0423972Y0319154D01*
X0424400Y0320752D02*
X0445100Y0320752D01*
X0445235Y0322351D02*
X0424204Y0322351D01*
X0423323Y0323949D02*
X0445970Y0323949D01*
X0448644Y0277592D02*
X0650000Y0277592D01*
X0650000Y0275994D02*
X0449020Y0275994D01*
X0448763Y0274395D02*
X0650000Y0274395D01*
X0650000Y0272797D02*
X0447698Y0272797D01*
X0453175Y0264804D02*
X0650000Y0264804D01*
X0650000Y0263206D02*
X0454411Y0263206D01*
X0454900Y0261607D02*
X0650000Y0261607D01*
X0650000Y0260009D02*
X0454872Y0260009D01*
X0454210Y0258410D02*
X0650000Y0258410D01*
X0650000Y0256812D02*
X0452572Y0256812D01*
X0452753Y0255213D02*
X0536991Y0255213D01*
X0537127Y0255350D02*
X0535700Y0253923D01*
X0534928Y0252059D01*
X0534928Y0250041D01*
X0535700Y0248177D01*
X0537127Y0246750D01*
X0538991Y0245978D01*
X0541009Y0245978D01*
X0542873Y0246750D01*
X0544300Y0248177D01*
X0545072Y0250041D01*
X0545072Y0252059D01*
X0544300Y0253923D01*
X0542873Y0255350D01*
X0541009Y0256122D01*
X0538991Y0256122D01*
X0537127Y0255350D01*
X0535573Y0253615D02*
X0454241Y0253615D01*
X0454900Y0252016D02*
X0534928Y0252016D01*
X0534928Y0250418D02*
X0454900Y0250418D01*
X0454380Y0248819D02*
X0535434Y0248819D01*
X0536657Y0247221D02*
X0508287Y0247221D01*
X0507650Y0247858D02*
X0505930Y0248570D01*
X0504069Y0248570D01*
X0502350Y0247858D01*
X0501034Y0246542D01*
X0500322Y0244823D01*
X0500322Y0242962D01*
X0501034Y0241243D01*
X0502350Y0239927D01*
X0504069Y0239215D01*
X0505930Y0239215D01*
X0507650Y0239927D01*
X0508966Y0241243D01*
X0509678Y0242962D01*
X0509678Y0244823D01*
X0508966Y0246542D01*
X0507650Y0247858D01*
X0509347Y0245622D02*
X0650000Y0245622D01*
X0650000Y0244024D02*
X0509678Y0244024D01*
X0509456Y0242425D02*
X0650000Y0242425D01*
X0650000Y0240827D02*
X0508550Y0240827D01*
X0505963Y0239228D02*
X0650000Y0239228D01*
X0650000Y0237630D02*
X0453509Y0237630D01*
X0454549Y0239228D02*
X0504037Y0239228D01*
X0501450Y0240827D02*
X0454900Y0240827D01*
X0454734Y0242425D02*
X0500544Y0242425D01*
X0500322Y0244024D02*
X0453956Y0244024D01*
X0451766Y0245622D02*
X0500653Y0245622D01*
X0501713Y0247221D02*
X0453100Y0247221D01*
X0446453Y0234433D02*
X0423547Y0234433D01*
X0424565Y0232834D02*
X0445435Y0232834D01*
X0445100Y0231236D02*
X0424900Y0231236D01*
X0424718Y0229637D02*
X0445282Y0229637D01*
X0446082Y0228039D02*
X0423918Y0228039D01*
X0418325Y0226440D02*
X0364728Y0226440D01*
X0364900Y0224842D02*
X0416862Y0224842D01*
X0415605Y0223243D02*
X0364555Y0223243D01*
X0363524Y0221645D02*
X0415100Y0221645D01*
X0416082Y0228039D02*
X0363941Y0228039D01*
X0364540Y0263206D02*
X0416160Y0263206D01*
X0417682Y0264804D02*
X0364900Y0264804D01*
X0364743Y0266403D02*
X0650000Y0266403D01*
X0650000Y0268001D02*
X0363978Y0268001D01*
X0354842Y0277592D02*
X0354843Y0277592D01*
X0354842Y0279191D02*
X0354843Y0279191D01*
X0354842Y0280789D02*
X0354843Y0280789D01*
X0354842Y0282388D02*
X0354843Y0282388D01*
X0454226Y0213652D02*
X0650000Y0213652D01*
X0650000Y0212053D02*
X0454888Y0212053D01*
X0454900Y0210455D02*
X0650000Y0210455D01*
X0650000Y0208856D02*
X0454395Y0208856D01*
X0453138Y0207258D02*
X0650000Y0207258D01*
X0650000Y0205659D02*
X0451676Y0205659D01*
X0453919Y0204061D02*
X0650000Y0204061D01*
X0650000Y0202462D02*
X0454719Y0202462D01*
X0454900Y0200864D02*
X0650000Y0200864D01*
X0650000Y0199265D02*
X0454565Y0199265D01*
X0453547Y0197667D02*
X0650000Y0197667D01*
X0650000Y0154507D02*
X0583715Y0154507D01*
X0584720Y0152909D02*
X0650000Y0152909D01*
X0650000Y0151310D02*
X0585072Y0151310D01*
X0584935Y0149712D02*
X0650000Y0149712D01*
X0650000Y0148113D02*
X0584235Y0148113D01*
X0582303Y0146515D02*
X0650000Y0146515D01*
X0577697Y0146515D02*
X0542303Y0146515D01*
X0544235Y0148113D02*
X0575765Y0148113D01*
X0575065Y0149712D02*
X0544935Y0149712D01*
X0545072Y0151310D02*
X0574928Y0151310D01*
X0575280Y0152909D02*
X0544720Y0152909D01*
X0543715Y0154507D02*
X0576285Y0154507D01*
X0576991Y0176886D02*
X0543009Y0176886D01*
X0544427Y0178485D02*
X0575573Y0178485D01*
X0574928Y0180083D02*
X0545072Y0180083D01*
X0545072Y0181682D02*
X0574928Y0181682D01*
X0575434Y0183280D02*
X0544566Y0183280D01*
X0543344Y0184879D02*
X0576656Y0184879D01*
X0577029Y0216849D02*
X0542971Y0216849D01*
X0544412Y0218448D02*
X0575588Y0218448D01*
X0574928Y0220046D02*
X0545072Y0220046D01*
X0545072Y0221645D02*
X0574928Y0221645D01*
X0575419Y0223243D02*
X0544581Y0223243D01*
X0543381Y0224842D02*
X0576619Y0224842D01*
X0578991Y0245978D02*
X0577127Y0246750D01*
X0575700Y0248177D01*
X0574928Y0250041D01*
X0574928Y0252059D01*
X0575700Y0253923D01*
X0577127Y0255350D01*
X0578991Y0256122D01*
X0581009Y0256122D01*
X0582873Y0255350D01*
X0584300Y0253923D01*
X0585072Y0252059D01*
X0585072Y0250041D01*
X0584300Y0248177D01*
X0582873Y0246750D01*
X0581009Y0245978D01*
X0578991Y0245978D01*
X0576657Y0247221D02*
X0543343Y0247221D01*
X0544566Y0248819D02*
X0575434Y0248819D01*
X0574928Y0250418D02*
X0545072Y0250418D01*
X0545072Y0252016D02*
X0574928Y0252016D01*
X0575573Y0253615D02*
X0544427Y0253615D01*
X0543009Y0255213D02*
X0576991Y0255213D01*
X0583009Y0255213D02*
X0650000Y0255213D01*
X0650000Y0253615D02*
X0584427Y0253615D01*
X0585072Y0252016D02*
X0650000Y0252016D01*
X0650000Y0250418D02*
X0585072Y0250418D01*
X0584566Y0248819D02*
X0650000Y0248819D01*
X0650000Y0247221D02*
X0583343Y0247221D01*
X0536619Y0224842D02*
X0509678Y0224842D01*
X0509664Y0223243D02*
X0535419Y0223243D01*
X0534928Y0221645D02*
X0509002Y0221645D01*
X0507177Y0220046D02*
X0534928Y0220046D01*
X0536899Y0291979D02*
X0010000Y0291979D01*
X0010000Y0293578D02*
X0535535Y0293578D01*
X0534928Y0295176D02*
X0010000Y0295176D01*
X0010000Y0296775D02*
X0534928Y0296775D01*
X0543251Y0299972D02*
X0576749Y0299972D01*
X0575473Y0298373D02*
X0544527Y0298373D01*
X0545072Y0296775D02*
X0574928Y0296775D01*
X0574928Y0295176D02*
X0545072Y0295176D01*
X0544465Y0293578D02*
X0575535Y0293578D01*
X0576899Y0291979D02*
X0543101Y0291979D01*
X0509177Y0320752D02*
X0650000Y0320752D01*
X0650000Y0319154D02*
X0507877Y0319154D01*
X0509678Y0322351D02*
X0536527Y0322351D01*
X0535381Y0323949D02*
X0509626Y0323949D01*
X0508960Y0325548D02*
X0534928Y0325548D01*
X0534965Y0327146D02*
X0506954Y0327146D01*
X0542879Y0330343D02*
X0577121Y0330343D01*
X0577127Y0330350D02*
X0575700Y0328923D01*
X0574928Y0327059D01*
X0574928Y0325041D01*
X0575700Y0323177D01*
X0577127Y0321750D01*
X0578991Y0320978D01*
X0581009Y0320978D01*
X0582873Y0321750D01*
X0584300Y0323177D01*
X0585072Y0325041D01*
X0585072Y0327059D01*
X0584300Y0328923D01*
X0582873Y0330350D01*
X0581009Y0331122D01*
X0578991Y0331122D01*
X0577127Y0330350D01*
X0575627Y0328745D02*
X0544373Y0328745D01*
X0545035Y0327146D02*
X0574965Y0327146D01*
X0574928Y0325548D02*
X0545072Y0325548D01*
X0544619Y0323949D02*
X0575381Y0323949D01*
X0576527Y0322351D02*
X0543473Y0322351D01*
X0583473Y0322351D02*
X0650000Y0322351D01*
X0650000Y0323949D02*
X0584619Y0323949D01*
X0585072Y0325548D02*
X0650000Y0325548D01*
X0650000Y0327146D02*
X0585035Y0327146D01*
X0584373Y0328745D02*
X0650000Y0328745D01*
X0650000Y0330343D02*
X0582879Y0330343D01*
X0576564Y0362314D02*
X0543436Y0362314D01*
X0544604Y0363912D02*
X0575396Y0363912D01*
X0574928Y0365511D02*
X0545072Y0365511D01*
X0545051Y0367109D02*
X0574949Y0367109D01*
X0575611Y0368708D02*
X0544389Y0368708D01*
X0542916Y0370306D02*
X0577084Y0370306D01*
X0576192Y0392685D02*
X0543808Y0392685D01*
X0544758Y0394284D02*
X0575242Y0394284D01*
X0574928Y0395882D02*
X0545072Y0395882D01*
X0544897Y0397481D02*
X0575103Y0397481D01*
X0575857Y0399079D02*
X0544143Y0399079D01*
X0542080Y0400678D02*
X0577920Y0400678D01*
X0650000Y0314358D02*
X0010000Y0314358D01*
X0010000Y0312760D02*
X0650000Y0312760D01*
X0650000Y0311161D02*
X0010000Y0311161D01*
X0010000Y0309563D02*
X0650000Y0309563D01*
X0650000Y0307964D02*
X0010000Y0307964D01*
X0010000Y0306366D02*
X0157358Y0306366D01*
X0156012Y0304767D02*
X0010000Y0304767D01*
X0010000Y0303169D02*
X0155480Y0303169D01*
X0155500Y0301570D02*
X0010000Y0301570D01*
X0010000Y0299972D02*
X0156162Y0299972D01*
X0158017Y0298373D02*
X0010000Y0298373D01*
X0010000Y0280789D02*
X0152210Y0280789D01*
X0150749Y0279191D02*
X0010000Y0279191D01*
X0010000Y0277592D02*
X0150100Y0277592D01*
X0150100Y0275994D02*
X0010000Y0275994D01*
X0010000Y0274395D02*
X0150630Y0274395D01*
X0151923Y0272797D02*
X0010000Y0272797D01*
X0010000Y0258410D02*
X0150425Y0258410D01*
X0150100Y0256812D02*
X0010000Y0256812D01*
X0010000Y0255213D02*
X0150291Y0255213D01*
X0151106Y0253615D02*
X0010000Y0253615D01*
X0158571Y0260009D02*
X0181429Y0260009D01*
X0180425Y0258410D02*
X0159575Y0258410D01*
X0159900Y0256812D02*
X0180100Y0256812D01*
X0180291Y0255213D02*
X0159709Y0255213D01*
X0158894Y0253615D02*
X0181106Y0253615D01*
X0181514Y0263206D02*
X0158485Y0263206D01*
X0159539Y0264804D02*
X0180461Y0264804D01*
X0180100Y0266403D02*
X0159900Y0266403D01*
X0159744Y0268001D02*
X0180256Y0268001D01*
X0181020Y0269600D02*
X0158980Y0269600D01*
X0051158Y0095362D02*
X0010000Y0095362D01*
X0010000Y0093764D02*
X0050719Y0093764D01*
X0050898Y0092165D02*
X0010000Y0092165D01*
X0010000Y0090567D02*
X0051829Y0090567D01*
X0045000Y0049005D02*
X0650000Y0049005D01*
X0650000Y0047407D02*
X0045000Y0047407D01*
X0045000Y0045808D02*
X0650000Y0045808D01*
X0650000Y0044210D02*
X0045000Y0044210D01*
X0045000Y0042611D02*
X0650000Y0042611D01*
X0650000Y0041013D02*
X0045000Y0041013D01*
X0045000Y0039414D02*
X0650000Y0039414D01*
X0650000Y0037816D02*
X0045000Y0037816D01*
X0045000Y0036217D02*
X0650000Y0036217D01*
X0650000Y0034619D02*
X0045000Y0034619D01*
X0045000Y0033020D02*
X0650000Y0033020D01*
X0650000Y0031422D02*
X0045000Y0031422D01*
X0045000Y0029823D02*
X0650000Y0029823D01*
X0650000Y0028225D02*
X0045000Y0028225D01*
X0045000Y0026626D02*
X0650000Y0026626D01*
X0650000Y0025028D02*
X0045000Y0025028D01*
X0045000Y0023429D02*
X0650000Y0023429D01*
X0650000Y0021831D02*
X0045000Y0021831D01*
X0045000Y0020232D02*
X0650000Y0020232D01*
X0650000Y0018634D02*
X0045000Y0018634D01*
X0046015Y0017035D02*
X0650000Y0017035D01*
X0650000Y0015437D02*
X0047613Y0015437D01*
X0049212Y0013838D02*
X0650000Y0013838D01*
X0650000Y0012240D02*
X0050810Y0012240D01*
X0052409Y0010641D02*
X0650000Y0010641D01*
X0650000Y0009043D02*
X0054007Y0009043D01*
X0055606Y0007444D02*
X0650000Y0007444D01*
M02*
