%
M48
M72
T01C0.0236
T02C0.0276
T03C0.0320
T04C0.0354
%
T01
X5000Y37425
X6000Y37425
X7000Y37425
X7000Y34305
X6000Y34305
X5000Y34305
X8750Y17355
X10250Y19605
X10250Y14025
X11250Y14025
X12250Y13105
X5500Y9345
X11250Y19605
X12250Y19605
T02
X44484Y27585
X42516Y27585
X33516Y28005
X35484Y28005
X26984Y30305
X25016Y30305
X16016Y30255
X17984Y30255
X44484Y40655
X42516Y40655
X35984Y40105
X34016Y40105
X50500Y38889
X50500Y36921
X50500Y32289
X50500Y30321
X50500Y24389
X50500Y22421
X50500Y18389
X50500Y16421
T03
X15500Y25665
X15500Y24665
X15500Y22665
X15500Y21665
X27500Y19665
X27500Y20665
X27500Y21665
X27500Y22665
X27500Y23665
X27500Y24665
X27500Y26665
X27500Y25665
X33000Y22505
X33000Y21505
X36000Y22505
X36000Y21505
X42000Y23105
X45000Y23105
X45000Y22105
X15500Y19665
X15500Y20665
X18500Y19665
X24500Y20665
X24500Y19665
X24500Y21665
X24500Y22665
X24500Y23665
X24500Y24665
X24500Y25665
X24500Y26665
X24500Y27665
X24500Y28665
X27500Y28665
X27500Y27665
X33000Y25505
X33000Y24505
X33000Y23505
X36000Y24505
X36000Y25505
X36000Y26505
X33000Y26505
X33500Y33605
X33500Y32605
X33500Y34605
X15500Y27665
X15500Y26665
X15500Y23665
X18500Y20665
X18500Y21665
X18500Y22665
X18500Y23665
X18500Y24665
X18500Y25665
X18500Y26665
X18500Y27665
X18500Y28665
X15500Y28665
X36000Y23505
X42000Y24105
X42000Y25105
X42000Y26105
X45000Y26105
X45000Y25105
X45000Y24105
X42000Y22105
X42000Y21105
X42000Y20105
X42000Y19105
X45000Y19105
X45000Y20105
X45000Y21105
X45000Y39105
X45000Y38105
X45000Y37105
X45000Y36105
X45000Y35105
X45000Y34105
X45000Y33105
X42000Y32105
X42000Y33105
X42000Y34105
X42000Y35105
X42000Y36105
X42000Y37105
X42000Y38105
X42000Y39105
X36500Y38605
X36500Y37605
X36500Y36605
X33500Y37605
X33500Y38605
X33500Y36605
X33500Y35605
X36500Y34605
X36500Y33605
X36500Y32605
X36500Y35605
X45000Y32105
X36000Y20505
X33000Y20505
T04
X54000Y36605
X54000Y39605
X58000Y39605
X58000Y36605
X58000Y32605
X54000Y32605
X54000Y29605
X58000Y29605
X58000Y25105
X54000Y25105
X54000Y22105
X58000Y22105
X58000Y18105
X54000Y18105
X54000Y15105
X58000Y15105
M30
