G75*
%MOIN*%
%OFA0B0*%
%FSLAX25Y25*%
%IPPOS*%
%LPD*%
%AMOC8*
5,1,8,0,0,1.08239X$1,22.5*
%
%ADD10C,0.00100*%
%ADD11C,0.00600*%
%ADD12C,0.00800*%
%ADD13C,0.00500*%
%ADD14C,0.00400*%
D10*
X0040000Y0016050D02*
X0040000Y0047050D01*
X0015000Y0047050D01*
X0005000Y0057050D01*
X0005000Y0395050D01*
X0015000Y0405050D01*
X0040000Y0405050D01*
X0040000Y0436050D01*
X0055000Y0451050D01*
X0655000Y0451050D01*
X0655000Y0001050D01*
X0055000Y0001050D01*
X0040000Y0016050D01*
D11*
X0161500Y0191650D02*
X0178500Y0191650D01*
X0178500Y0291650D01*
X0174000Y0291650D01*
X0173998Y0291524D01*
X0173992Y0291399D01*
X0173982Y0291274D01*
X0173968Y0291149D01*
X0173951Y0291024D01*
X0173929Y0290900D01*
X0173904Y0290777D01*
X0173874Y0290655D01*
X0173841Y0290534D01*
X0173804Y0290414D01*
X0173764Y0290295D01*
X0173719Y0290178D01*
X0173671Y0290061D01*
X0173619Y0289947D01*
X0173564Y0289834D01*
X0173505Y0289723D01*
X0173443Y0289614D01*
X0173377Y0289507D01*
X0173308Y0289402D01*
X0173236Y0289299D01*
X0173161Y0289198D01*
X0173082Y0289100D01*
X0173000Y0289005D01*
X0172916Y0288912D01*
X0172828Y0288822D01*
X0172738Y0288734D01*
X0172645Y0288650D01*
X0172550Y0288568D01*
X0172452Y0288489D01*
X0172351Y0288414D01*
X0172248Y0288342D01*
X0172143Y0288273D01*
X0172036Y0288207D01*
X0171927Y0288145D01*
X0171816Y0288086D01*
X0171703Y0288031D01*
X0171589Y0287979D01*
X0171472Y0287931D01*
X0171355Y0287886D01*
X0171236Y0287846D01*
X0171116Y0287809D01*
X0170995Y0287776D01*
X0170873Y0287746D01*
X0170750Y0287721D01*
X0170626Y0287699D01*
X0170501Y0287682D01*
X0170376Y0287668D01*
X0170251Y0287658D01*
X0170126Y0287652D01*
X0170000Y0287650D01*
X0169874Y0287652D01*
X0169749Y0287658D01*
X0169624Y0287668D01*
X0169499Y0287682D01*
X0169374Y0287699D01*
X0169250Y0287721D01*
X0169127Y0287746D01*
X0169005Y0287776D01*
X0168884Y0287809D01*
X0168764Y0287846D01*
X0168645Y0287886D01*
X0168528Y0287931D01*
X0168411Y0287979D01*
X0168297Y0288031D01*
X0168184Y0288086D01*
X0168073Y0288145D01*
X0167964Y0288207D01*
X0167857Y0288273D01*
X0167752Y0288342D01*
X0167649Y0288414D01*
X0167548Y0288489D01*
X0167450Y0288568D01*
X0167355Y0288650D01*
X0167262Y0288734D01*
X0167172Y0288822D01*
X0167084Y0288912D01*
X0167000Y0289005D01*
X0166918Y0289100D01*
X0166839Y0289198D01*
X0166764Y0289299D01*
X0166692Y0289402D01*
X0166623Y0289507D01*
X0166557Y0289614D01*
X0166495Y0289723D01*
X0166436Y0289834D01*
X0166381Y0289947D01*
X0166329Y0290061D01*
X0166281Y0290178D01*
X0166236Y0290295D01*
X0166196Y0290414D01*
X0166159Y0290534D01*
X0166126Y0290655D01*
X0166096Y0290777D01*
X0166071Y0290900D01*
X0166049Y0291024D01*
X0166032Y0291149D01*
X0166018Y0291274D01*
X0166008Y0291399D01*
X0166002Y0291524D01*
X0166000Y0291650D01*
X0161500Y0291650D01*
X0161500Y0191650D01*
X0251500Y0191650D02*
X0268500Y0191650D01*
X0268500Y0291650D01*
X0264000Y0291650D01*
X0263998Y0291524D01*
X0263992Y0291399D01*
X0263982Y0291274D01*
X0263968Y0291149D01*
X0263951Y0291024D01*
X0263929Y0290900D01*
X0263904Y0290777D01*
X0263874Y0290655D01*
X0263841Y0290534D01*
X0263804Y0290414D01*
X0263764Y0290295D01*
X0263719Y0290178D01*
X0263671Y0290061D01*
X0263619Y0289947D01*
X0263564Y0289834D01*
X0263505Y0289723D01*
X0263443Y0289614D01*
X0263377Y0289507D01*
X0263308Y0289402D01*
X0263236Y0289299D01*
X0263161Y0289198D01*
X0263082Y0289100D01*
X0263000Y0289005D01*
X0262916Y0288912D01*
X0262828Y0288822D01*
X0262738Y0288734D01*
X0262645Y0288650D01*
X0262550Y0288568D01*
X0262452Y0288489D01*
X0262351Y0288414D01*
X0262248Y0288342D01*
X0262143Y0288273D01*
X0262036Y0288207D01*
X0261927Y0288145D01*
X0261816Y0288086D01*
X0261703Y0288031D01*
X0261589Y0287979D01*
X0261472Y0287931D01*
X0261355Y0287886D01*
X0261236Y0287846D01*
X0261116Y0287809D01*
X0260995Y0287776D01*
X0260873Y0287746D01*
X0260750Y0287721D01*
X0260626Y0287699D01*
X0260501Y0287682D01*
X0260376Y0287668D01*
X0260251Y0287658D01*
X0260126Y0287652D01*
X0260000Y0287650D01*
X0259874Y0287652D01*
X0259749Y0287658D01*
X0259624Y0287668D01*
X0259499Y0287682D01*
X0259374Y0287699D01*
X0259250Y0287721D01*
X0259127Y0287746D01*
X0259005Y0287776D01*
X0258884Y0287809D01*
X0258764Y0287846D01*
X0258645Y0287886D01*
X0258528Y0287931D01*
X0258411Y0287979D01*
X0258297Y0288031D01*
X0258184Y0288086D01*
X0258073Y0288145D01*
X0257964Y0288207D01*
X0257857Y0288273D01*
X0257752Y0288342D01*
X0257649Y0288414D01*
X0257548Y0288489D01*
X0257450Y0288568D01*
X0257355Y0288650D01*
X0257262Y0288734D01*
X0257172Y0288822D01*
X0257084Y0288912D01*
X0257000Y0289005D01*
X0256918Y0289100D01*
X0256839Y0289198D01*
X0256764Y0289299D01*
X0256692Y0289402D01*
X0256623Y0289507D01*
X0256557Y0289614D01*
X0256495Y0289723D01*
X0256436Y0289834D01*
X0256381Y0289947D01*
X0256329Y0290061D01*
X0256281Y0290178D01*
X0256236Y0290295D01*
X0256196Y0290414D01*
X0256159Y0290534D01*
X0256126Y0290655D01*
X0256096Y0290777D01*
X0256071Y0290900D01*
X0256049Y0291024D01*
X0256032Y0291149D01*
X0256018Y0291274D01*
X0256008Y0291399D01*
X0256002Y0291524D01*
X0256000Y0291650D01*
X0251500Y0291650D01*
X0251500Y0191650D01*
X0336500Y0200050D02*
X0353500Y0200050D01*
X0353500Y0270050D01*
X0349000Y0270050D01*
X0348998Y0269924D01*
X0348992Y0269799D01*
X0348982Y0269674D01*
X0348968Y0269549D01*
X0348951Y0269424D01*
X0348929Y0269300D01*
X0348904Y0269177D01*
X0348874Y0269055D01*
X0348841Y0268934D01*
X0348804Y0268814D01*
X0348764Y0268695D01*
X0348719Y0268578D01*
X0348671Y0268461D01*
X0348619Y0268347D01*
X0348564Y0268234D01*
X0348505Y0268123D01*
X0348443Y0268014D01*
X0348377Y0267907D01*
X0348308Y0267802D01*
X0348236Y0267699D01*
X0348161Y0267598D01*
X0348082Y0267500D01*
X0348000Y0267405D01*
X0347916Y0267312D01*
X0347828Y0267222D01*
X0347738Y0267134D01*
X0347645Y0267050D01*
X0347550Y0266968D01*
X0347452Y0266889D01*
X0347351Y0266814D01*
X0347248Y0266742D01*
X0347143Y0266673D01*
X0347036Y0266607D01*
X0346927Y0266545D01*
X0346816Y0266486D01*
X0346703Y0266431D01*
X0346589Y0266379D01*
X0346472Y0266331D01*
X0346355Y0266286D01*
X0346236Y0266246D01*
X0346116Y0266209D01*
X0345995Y0266176D01*
X0345873Y0266146D01*
X0345750Y0266121D01*
X0345626Y0266099D01*
X0345501Y0266082D01*
X0345376Y0266068D01*
X0345251Y0266058D01*
X0345126Y0266052D01*
X0345000Y0266050D01*
X0344874Y0266052D01*
X0344749Y0266058D01*
X0344624Y0266068D01*
X0344499Y0266082D01*
X0344374Y0266099D01*
X0344250Y0266121D01*
X0344127Y0266146D01*
X0344005Y0266176D01*
X0343884Y0266209D01*
X0343764Y0266246D01*
X0343645Y0266286D01*
X0343528Y0266331D01*
X0343411Y0266379D01*
X0343297Y0266431D01*
X0343184Y0266486D01*
X0343073Y0266545D01*
X0342964Y0266607D01*
X0342857Y0266673D01*
X0342752Y0266742D01*
X0342649Y0266814D01*
X0342548Y0266889D01*
X0342450Y0266968D01*
X0342355Y0267050D01*
X0342262Y0267134D01*
X0342172Y0267222D01*
X0342084Y0267312D01*
X0342000Y0267405D01*
X0341918Y0267500D01*
X0341839Y0267598D01*
X0341764Y0267699D01*
X0341692Y0267802D01*
X0341623Y0267907D01*
X0341557Y0268014D01*
X0341495Y0268123D01*
X0341436Y0268234D01*
X0341381Y0268347D01*
X0341329Y0268461D01*
X0341281Y0268578D01*
X0341236Y0268695D01*
X0341196Y0268814D01*
X0341159Y0268934D01*
X0341126Y0269055D01*
X0341096Y0269177D01*
X0341071Y0269300D01*
X0341049Y0269424D01*
X0341032Y0269549D01*
X0341018Y0269674D01*
X0341008Y0269799D01*
X0341002Y0269924D01*
X0341000Y0270050D01*
X0336500Y0270050D01*
X0336500Y0200050D01*
X0426500Y0186050D02*
X0426500Y0266050D01*
X0431000Y0266050D01*
X0431002Y0265924D01*
X0431008Y0265799D01*
X0431018Y0265674D01*
X0431032Y0265549D01*
X0431049Y0265424D01*
X0431071Y0265300D01*
X0431096Y0265177D01*
X0431126Y0265055D01*
X0431159Y0264934D01*
X0431196Y0264814D01*
X0431236Y0264695D01*
X0431281Y0264578D01*
X0431329Y0264461D01*
X0431381Y0264347D01*
X0431436Y0264234D01*
X0431495Y0264123D01*
X0431557Y0264014D01*
X0431623Y0263907D01*
X0431692Y0263802D01*
X0431764Y0263699D01*
X0431839Y0263598D01*
X0431918Y0263500D01*
X0432000Y0263405D01*
X0432084Y0263312D01*
X0432172Y0263222D01*
X0432262Y0263134D01*
X0432355Y0263050D01*
X0432450Y0262968D01*
X0432548Y0262889D01*
X0432649Y0262814D01*
X0432752Y0262742D01*
X0432857Y0262673D01*
X0432964Y0262607D01*
X0433073Y0262545D01*
X0433184Y0262486D01*
X0433297Y0262431D01*
X0433411Y0262379D01*
X0433528Y0262331D01*
X0433645Y0262286D01*
X0433764Y0262246D01*
X0433884Y0262209D01*
X0434005Y0262176D01*
X0434127Y0262146D01*
X0434250Y0262121D01*
X0434374Y0262099D01*
X0434499Y0262082D01*
X0434624Y0262068D01*
X0434749Y0262058D01*
X0434874Y0262052D01*
X0435000Y0262050D01*
X0435126Y0262052D01*
X0435251Y0262058D01*
X0435376Y0262068D01*
X0435501Y0262082D01*
X0435626Y0262099D01*
X0435750Y0262121D01*
X0435873Y0262146D01*
X0435995Y0262176D01*
X0436116Y0262209D01*
X0436236Y0262246D01*
X0436355Y0262286D01*
X0436472Y0262331D01*
X0436589Y0262379D01*
X0436703Y0262431D01*
X0436816Y0262486D01*
X0436927Y0262545D01*
X0437036Y0262607D01*
X0437143Y0262673D01*
X0437248Y0262742D01*
X0437351Y0262814D01*
X0437452Y0262889D01*
X0437550Y0262968D01*
X0437645Y0263050D01*
X0437738Y0263134D01*
X0437828Y0263222D01*
X0437916Y0263312D01*
X0438000Y0263405D01*
X0438082Y0263500D01*
X0438161Y0263598D01*
X0438236Y0263699D01*
X0438308Y0263802D01*
X0438377Y0263907D01*
X0438443Y0264014D01*
X0438505Y0264123D01*
X0438564Y0264234D01*
X0438619Y0264347D01*
X0438671Y0264461D01*
X0438719Y0264578D01*
X0438764Y0264695D01*
X0438804Y0264814D01*
X0438841Y0264934D01*
X0438874Y0265055D01*
X0438904Y0265177D01*
X0438929Y0265300D01*
X0438951Y0265424D01*
X0438968Y0265549D01*
X0438982Y0265674D01*
X0438992Y0265799D01*
X0438998Y0265924D01*
X0439000Y0266050D01*
X0443500Y0266050D01*
X0443500Y0186050D01*
X0426500Y0186050D01*
X0497000Y0184050D02*
X0497000Y0164050D01*
X0497002Y0163855D01*
X0497009Y0163660D01*
X0497021Y0163466D01*
X0497038Y0163272D01*
X0497059Y0163078D01*
X0497085Y0162885D01*
X0497116Y0162693D01*
X0497151Y0162501D01*
X0497191Y0162311D01*
X0497236Y0162121D01*
X0497285Y0161932D01*
X0497339Y0161745D01*
X0497398Y0161559D01*
X0497460Y0161375D01*
X0497528Y0161192D01*
X0497600Y0161011D01*
X0497676Y0160832D01*
X0497756Y0160654D01*
X0497841Y0160479D01*
X0497930Y0160306D01*
X0498024Y0160135D01*
X0498121Y0159966D01*
X0498223Y0159800D01*
X0498328Y0159636D01*
X0498437Y0159475D01*
X0498551Y0159316D01*
X0498668Y0159161D01*
X0498789Y0159008D01*
X0498914Y0158858D01*
X0499042Y0158711D01*
X0499174Y0158568D01*
X0499309Y0158428D01*
X0499447Y0158291D01*
X0499589Y0158157D01*
X0499734Y0158027D01*
X0499883Y0157901D01*
X0500034Y0157778D01*
X0500188Y0157659D01*
X0500345Y0157544D01*
X0500505Y0157432D01*
X0500667Y0157325D01*
X0500832Y0157221D01*
X0501000Y0157122D01*
X0501170Y0157026D01*
X0501342Y0156935D01*
X0501516Y0156848D01*
X0501693Y0156766D01*
X0501871Y0156687D01*
X0502051Y0156613D01*
X0502233Y0156544D01*
X0502417Y0156478D01*
X0502602Y0156418D01*
X0502789Y0156362D01*
X0502977Y0156310D01*
X0503166Y0156263D01*
X0503356Y0156221D01*
X0503547Y0156183D01*
X0503739Y0156150D01*
X0503932Y0156122D01*
X0504125Y0156098D01*
X0504319Y0156079D01*
X0504513Y0156065D01*
X0504708Y0156055D01*
X0504903Y0156051D01*
X0505097Y0156051D01*
X0505292Y0156055D01*
X0505487Y0156065D01*
X0505681Y0156079D01*
X0505875Y0156098D01*
X0506068Y0156122D01*
X0506261Y0156150D01*
X0506453Y0156183D01*
X0506644Y0156221D01*
X0506834Y0156263D01*
X0507023Y0156310D01*
X0507211Y0156362D01*
X0507398Y0156418D01*
X0507583Y0156478D01*
X0507767Y0156544D01*
X0507949Y0156613D01*
X0508129Y0156687D01*
X0508307Y0156766D01*
X0508484Y0156848D01*
X0508658Y0156935D01*
X0508830Y0157026D01*
X0509000Y0157122D01*
X0509168Y0157221D01*
X0509333Y0157325D01*
X0509495Y0157432D01*
X0509655Y0157544D01*
X0509812Y0157659D01*
X0509966Y0157778D01*
X0510117Y0157901D01*
X0510266Y0158027D01*
X0510411Y0158157D01*
X0510553Y0158291D01*
X0510691Y0158428D01*
X0510826Y0158568D01*
X0510958Y0158711D01*
X0511086Y0158858D01*
X0511211Y0159008D01*
X0511332Y0159161D01*
X0511449Y0159316D01*
X0511563Y0159475D01*
X0511672Y0159636D01*
X0511777Y0159800D01*
X0511879Y0159966D01*
X0511976Y0160135D01*
X0512070Y0160306D01*
X0512159Y0160479D01*
X0512244Y0160654D01*
X0512324Y0160832D01*
X0512400Y0161011D01*
X0512472Y0161192D01*
X0512540Y0161375D01*
X0512602Y0161559D01*
X0512661Y0161745D01*
X0512715Y0161932D01*
X0512764Y0162121D01*
X0512809Y0162311D01*
X0512849Y0162501D01*
X0512884Y0162693D01*
X0512915Y0162885D01*
X0512941Y0163078D01*
X0512962Y0163272D01*
X0512979Y0163466D01*
X0512991Y0163660D01*
X0512998Y0163855D01*
X0513000Y0164050D01*
X0513000Y0184050D01*
X0512998Y0184245D01*
X0512991Y0184440D01*
X0512979Y0184634D01*
X0512962Y0184828D01*
X0512941Y0185022D01*
X0512915Y0185215D01*
X0512884Y0185407D01*
X0512849Y0185599D01*
X0512809Y0185789D01*
X0512764Y0185979D01*
X0512715Y0186168D01*
X0512661Y0186355D01*
X0512602Y0186541D01*
X0512540Y0186725D01*
X0512472Y0186908D01*
X0512400Y0187089D01*
X0512324Y0187268D01*
X0512244Y0187446D01*
X0512159Y0187621D01*
X0512070Y0187794D01*
X0511976Y0187965D01*
X0511879Y0188134D01*
X0511777Y0188300D01*
X0511672Y0188464D01*
X0511563Y0188625D01*
X0511449Y0188784D01*
X0511332Y0188939D01*
X0511211Y0189092D01*
X0511086Y0189242D01*
X0510958Y0189389D01*
X0510826Y0189532D01*
X0510691Y0189672D01*
X0510553Y0189809D01*
X0510411Y0189943D01*
X0510266Y0190073D01*
X0510117Y0190199D01*
X0509966Y0190322D01*
X0509812Y0190441D01*
X0509655Y0190556D01*
X0509495Y0190668D01*
X0509333Y0190775D01*
X0509168Y0190879D01*
X0509000Y0190978D01*
X0508830Y0191074D01*
X0508658Y0191165D01*
X0508484Y0191252D01*
X0508307Y0191334D01*
X0508129Y0191413D01*
X0507949Y0191487D01*
X0507767Y0191556D01*
X0507583Y0191622D01*
X0507398Y0191682D01*
X0507211Y0191738D01*
X0507023Y0191790D01*
X0506834Y0191837D01*
X0506644Y0191879D01*
X0506453Y0191917D01*
X0506261Y0191950D01*
X0506068Y0191978D01*
X0505875Y0192002D01*
X0505681Y0192021D01*
X0505487Y0192035D01*
X0505292Y0192045D01*
X0505097Y0192049D01*
X0504903Y0192049D01*
X0504708Y0192045D01*
X0504513Y0192035D01*
X0504319Y0192021D01*
X0504125Y0192002D01*
X0503932Y0191978D01*
X0503739Y0191950D01*
X0503547Y0191917D01*
X0503356Y0191879D01*
X0503166Y0191837D01*
X0502977Y0191790D01*
X0502789Y0191738D01*
X0502602Y0191682D01*
X0502417Y0191622D01*
X0502233Y0191556D01*
X0502051Y0191487D01*
X0501871Y0191413D01*
X0501693Y0191334D01*
X0501516Y0191252D01*
X0501342Y0191165D01*
X0501170Y0191074D01*
X0501000Y0190978D01*
X0500832Y0190879D01*
X0500667Y0190775D01*
X0500505Y0190668D01*
X0500345Y0190556D01*
X0500188Y0190441D01*
X0500034Y0190322D01*
X0499883Y0190199D01*
X0499734Y0190073D01*
X0499589Y0189943D01*
X0499447Y0189809D01*
X0499309Y0189672D01*
X0499174Y0189532D01*
X0499042Y0189389D01*
X0498914Y0189242D01*
X0498789Y0189092D01*
X0498668Y0188939D01*
X0498551Y0188784D01*
X0498437Y0188625D01*
X0498328Y0188464D01*
X0498223Y0188300D01*
X0498121Y0188134D01*
X0498024Y0187965D01*
X0497930Y0187794D01*
X0497841Y0187621D01*
X0497756Y0187446D01*
X0497676Y0187268D01*
X0497600Y0187089D01*
X0497528Y0186908D01*
X0497460Y0186725D01*
X0497398Y0186541D01*
X0497339Y0186355D01*
X0497285Y0186168D01*
X0497236Y0185979D01*
X0497191Y0185789D01*
X0497151Y0185599D01*
X0497116Y0185407D01*
X0497085Y0185215D01*
X0497059Y0185022D01*
X0497038Y0184828D01*
X0497021Y0184634D01*
X0497009Y0184440D01*
X0497002Y0184245D01*
X0497000Y0184050D01*
X0547500Y0184550D02*
X0547500Y0177550D01*
X0547502Y0177490D01*
X0547507Y0177429D01*
X0547516Y0177370D01*
X0547529Y0177311D01*
X0547545Y0177252D01*
X0547565Y0177195D01*
X0547588Y0177140D01*
X0547615Y0177085D01*
X0547644Y0177033D01*
X0547677Y0176982D01*
X0547713Y0176933D01*
X0547751Y0176887D01*
X0547793Y0176843D01*
X0547837Y0176801D01*
X0547883Y0176763D01*
X0547932Y0176727D01*
X0547983Y0176694D01*
X0548035Y0176665D01*
X0548090Y0176638D01*
X0548145Y0176615D01*
X0548202Y0176595D01*
X0548261Y0176579D01*
X0548320Y0176566D01*
X0548379Y0176557D01*
X0548440Y0176552D01*
X0548500Y0176550D01*
X0550000Y0176550D01*
X0550500Y0177050D01*
X0569500Y0177050D01*
X0570000Y0176550D01*
X0571500Y0176550D01*
X0571560Y0176552D01*
X0571621Y0176557D01*
X0571680Y0176566D01*
X0571739Y0176579D01*
X0571798Y0176595D01*
X0571855Y0176615D01*
X0571910Y0176638D01*
X0571965Y0176665D01*
X0572017Y0176694D01*
X0572068Y0176727D01*
X0572117Y0176763D01*
X0572163Y0176801D01*
X0572207Y0176843D01*
X0572249Y0176887D01*
X0572287Y0176933D01*
X0572323Y0176982D01*
X0572356Y0177033D01*
X0572385Y0177085D01*
X0572412Y0177140D01*
X0572435Y0177195D01*
X0572455Y0177252D01*
X0572471Y0177311D01*
X0572484Y0177370D01*
X0572493Y0177429D01*
X0572498Y0177490D01*
X0572500Y0177550D01*
X0572500Y0184550D01*
X0572498Y0184610D01*
X0572493Y0184671D01*
X0572484Y0184730D01*
X0572471Y0184789D01*
X0572455Y0184848D01*
X0572435Y0184905D01*
X0572412Y0184960D01*
X0572385Y0185015D01*
X0572356Y0185067D01*
X0572323Y0185118D01*
X0572287Y0185167D01*
X0572249Y0185213D01*
X0572207Y0185257D01*
X0572163Y0185299D01*
X0572117Y0185337D01*
X0572068Y0185373D01*
X0572017Y0185406D01*
X0571965Y0185435D01*
X0571910Y0185462D01*
X0571855Y0185485D01*
X0571798Y0185505D01*
X0571739Y0185521D01*
X0571680Y0185534D01*
X0571621Y0185543D01*
X0571560Y0185548D01*
X0571500Y0185550D01*
X0570000Y0185550D01*
X0569500Y0185050D01*
X0550500Y0185050D01*
X0550000Y0185550D01*
X0548500Y0185550D01*
X0548440Y0185548D01*
X0548379Y0185543D01*
X0548320Y0185534D01*
X0548261Y0185521D01*
X0548202Y0185505D01*
X0548145Y0185485D01*
X0548090Y0185462D01*
X0548035Y0185435D01*
X0547983Y0185406D01*
X0547932Y0185373D01*
X0547883Y0185337D01*
X0547837Y0185299D01*
X0547793Y0185257D01*
X0547751Y0185213D01*
X0547713Y0185167D01*
X0547677Y0185118D01*
X0547644Y0185067D01*
X0547615Y0185015D01*
X0547588Y0184960D01*
X0547565Y0184905D01*
X0547545Y0184848D01*
X0547529Y0184789D01*
X0547516Y0184730D01*
X0547507Y0184671D01*
X0547502Y0184610D01*
X0547500Y0184550D01*
X0548500Y0155550D02*
X0550000Y0155550D01*
X0550500Y0155050D01*
X0569500Y0155050D01*
X0570000Y0155550D01*
X0571500Y0155550D01*
X0571560Y0155548D01*
X0571621Y0155543D01*
X0571680Y0155534D01*
X0571739Y0155521D01*
X0571798Y0155505D01*
X0571855Y0155485D01*
X0571910Y0155462D01*
X0571965Y0155435D01*
X0572017Y0155406D01*
X0572068Y0155373D01*
X0572117Y0155337D01*
X0572163Y0155299D01*
X0572207Y0155257D01*
X0572249Y0155213D01*
X0572287Y0155167D01*
X0572323Y0155118D01*
X0572356Y0155067D01*
X0572385Y0155015D01*
X0572412Y0154960D01*
X0572435Y0154905D01*
X0572455Y0154848D01*
X0572471Y0154789D01*
X0572484Y0154730D01*
X0572493Y0154671D01*
X0572498Y0154610D01*
X0572500Y0154550D01*
X0572500Y0147550D01*
X0572498Y0147490D01*
X0572493Y0147429D01*
X0572484Y0147370D01*
X0572471Y0147311D01*
X0572455Y0147252D01*
X0572435Y0147195D01*
X0572412Y0147140D01*
X0572385Y0147085D01*
X0572356Y0147033D01*
X0572323Y0146982D01*
X0572287Y0146933D01*
X0572249Y0146887D01*
X0572207Y0146843D01*
X0572163Y0146801D01*
X0572117Y0146763D01*
X0572068Y0146727D01*
X0572017Y0146694D01*
X0571965Y0146665D01*
X0571910Y0146638D01*
X0571855Y0146615D01*
X0571798Y0146595D01*
X0571739Y0146579D01*
X0571680Y0146566D01*
X0571621Y0146557D01*
X0571560Y0146552D01*
X0571500Y0146550D01*
X0570000Y0146550D01*
X0569500Y0147050D01*
X0550500Y0147050D01*
X0550000Y0146550D01*
X0548500Y0146550D01*
X0548440Y0146552D01*
X0548379Y0146557D01*
X0548320Y0146566D01*
X0548261Y0146579D01*
X0548202Y0146595D01*
X0548145Y0146615D01*
X0548090Y0146638D01*
X0548035Y0146665D01*
X0547983Y0146694D01*
X0547932Y0146727D01*
X0547883Y0146763D01*
X0547837Y0146801D01*
X0547793Y0146843D01*
X0547751Y0146887D01*
X0547713Y0146933D01*
X0547677Y0146982D01*
X0547644Y0147033D01*
X0547615Y0147085D01*
X0547588Y0147140D01*
X0547565Y0147195D01*
X0547545Y0147252D01*
X0547529Y0147311D01*
X0547516Y0147370D01*
X0547507Y0147429D01*
X0547502Y0147490D01*
X0547500Y0147550D01*
X0547500Y0154550D01*
X0547502Y0154610D01*
X0547507Y0154671D01*
X0547516Y0154730D01*
X0547529Y0154789D01*
X0547545Y0154848D01*
X0547565Y0154905D01*
X0547588Y0154960D01*
X0547615Y0155015D01*
X0547644Y0155067D01*
X0547677Y0155118D01*
X0547713Y0155167D01*
X0547751Y0155213D01*
X0547793Y0155257D01*
X0547837Y0155299D01*
X0547883Y0155337D01*
X0547932Y0155373D01*
X0547983Y0155406D01*
X0548035Y0155435D01*
X0548090Y0155462D01*
X0548145Y0155485D01*
X0548202Y0155505D01*
X0548261Y0155521D01*
X0548320Y0155534D01*
X0548379Y0155543D01*
X0548440Y0155548D01*
X0548500Y0155550D01*
X0548500Y0216550D02*
X0550000Y0216550D01*
X0550500Y0217050D01*
X0569500Y0217050D01*
X0570000Y0216550D01*
X0571500Y0216550D01*
X0571560Y0216552D01*
X0571621Y0216557D01*
X0571680Y0216566D01*
X0571739Y0216579D01*
X0571798Y0216595D01*
X0571855Y0216615D01*
X0571910Y0216638D01*
X0571965Y0216665D01*
X0572017Y0216694D01*
X0572068Y0216727D01*
X0572117Y0216763D01*
X0572163Y0216801D01*
X0572207Y0216843D01*
X0572249Y0216887D01*
X0572287Y0216933D01*
X0572323Y0216982D01*
X0572356Y0217033D01*
X0572385Y0217085D01*
X0572412Y0217140D01*
X0572435Y0217195D01*
X0572455Y0217252D01*
X0572471Y0217311D01*
X0572484Y0217370D01*
X0572493Y0217429D01*
X0572498Y0217490D01*
X0572500Y0217550D01*
X0572500Y0224550D01*
X0572498Y0224610D01*
X0572493Y0224671D01*
X0572484Y0224730D01*
X0572471Y0224789D01*
X0572455Y0224848D01*
X0572435Y0224905D01*
X0572412Y0224960D01*
X0572385Y0225015D01*
X0572356Y0225067D01*
X0572323Y0225118D01*
X0572287Y0225167D01*
X0572249Y0225213D01*
X0572207Y0225257D01*
X0572163Y0225299D01*
X0572117Y0225337D01*
X0572068Y0225373D01*
X0572017Y0225406D01*
X0571965Y0225435D01*
X0571910Y0225462D01*
X0571855Y0225485D01*
X0571798Y0225505D01*
X0571739Y0225521D01*
X0571680Y0225534D01*
X0571621Y0225543D01*
X0571560Y0225548D01*
X0571500Y0225550D01*
X0570000Y0225550D01*
X0569500Y0225050D01*
X0550500Y0225050D01*
X0550000Y0225550D01*
X0548500Y0225550D01*
X0548440Y0225548D01*
X0548379Y0225543D01*
X0548320Y0225534D01*
X0548261Y0225521D01*
X0548202Y0225505D01*
X0548145Y0225485D01*
X0548090Y0225462D01*
X0548035Y0225435D01*
X0547983Y0225406D01*
X0547932Y0225373D01*
X0547883Y0225337D01*
X0547837Y0225299D01*
X0547793Y0225257D01*
X0547751Y0225213D01*
X0547713Y0225167D01*
X0547677Y0225118D01*
X0547644Y0225067D01*
X0547615Y0225015D01*
X0547588Y0224960D01*
X0547565Y0224905D01*
X0547545Y0224848D01*
X0547529Y0224789D01*
X0547516Y0224730D01*
X0547507Y0224671D01*
X0547502Y0224610D01*
X0547500Y0224550D01*
X0547500Y0217550D01*
X0547502Y0217490D01*
X0547507Y0217429D01*
X0547516Y0217370D01*
X0547529Y0217311D01*
X0547545Y0217252D01*
X0547565Y0217195D01*
X0547588Y0217140D01*
X0547615Y0217085D01*
X0547644Y0217033D01*
X0547677Y0216982D01*
X0547713Y0216933D01*
X0547751Y0216887D01*
X0547793Y0216843D01*
X0547837Y0216801D01*
X0547883Y0216763D01*
X0547932Y0216727D01*
X0547983Y0216694D01*
X0548035Y0216665D01*
X0548090Y0216638D01*
X0548145Y0216615D01*
X0548202Y0216595D01*
X0548261Y0216579D01*
X0548320Y0216566D01*
X0548379Y0216557D01*
X0548440Y0216552D01*
X0548500Y0216550D01*
X0513000Y0224050D02*
X0513000Y0244050D01*
X0512998Y0244245D01*
X0512991Y0244440D01*
X0512979Y0244634D01*
X0512962Y0244828D01*
X0512941Y0245022D01*
X0512915Y0245215D01*
X0512884Y0245407D01*
X0512849Y0245599D01*
X0512809Y0245789D01*
X0512764Y0245979D01*
X0512715Y0246168D01*
X0512661Y0246355D01*
X0512602Y0246541D01*
X0512540Y0246725D01*
X0512472Y0246908D01*
X0512400Y0247089D01*
X0512324Y0247268D01*
X0512244Y0247446D01*
X0512159Y0247621D01*
X0512070Y0247794D01*
X0511976Y0247965D01*
X0511879Y0248134D01*
X0511777Y0248300D01*
X0511672Y0248464D01*
X0511563Y0248625D01*
X0511449Y0248784D01*
X0511332Y0248939D01*
X0511211Y0249092D01*
X0511086Y0249242D01*
X0510958Y0249389D01*
X0510826Y0249532D01*
X0510691Y0249672D01*
X0510553Y0249809D01*
X0510411Y0249943D01*
X0510266Y0250073D01*
X0510117Y0250199D01*
X0509966Y0250322D01*
X0509812Y0250441D01*
X0509655Y0250556D01*
X0509495Y0250668D01*
X0509333Y0250775D01*
X0509168Y0250879D01*
X0509000Y0250978D01*
X0508830Y0251074D01*
X0508658Y0251165D01*
X0508484Y0251252D01*
X0508307Y0251334D01*
X0508129Y0251413D01*
X0507949Y0251487D01*
X0507767Y0251556D01*
X0507583Y0251622D01*
X0507398Y0251682D01*
X0507211Y0251738D01*
X0507023Y0251790D01*
X0506834Y0251837D01*
X0506644Y0251879D01*
X0506453Y0251917D01*
X0506261Y0251950D01*
X0506068Y0251978D01*
X0505875Y0252002D01*
X0505681Y0252021D01*
X0505487Y0252035D01*
X0505292Y0252045D01*
X0505097Y0252049D01*
X0504903Y0252049D01*
X0504708Y0252045D01*
X0504513Y0252035D01*
X0504319Y0252021D01*
X0504125Y0252002D01*
X0503932Y0251978D01*
X0503739Y0251950D01*
X0503547Y0251917D01*
X0503356Y0251879D01*
X0503166Y0251837D01*
X0502977Y0251790D01*
X0502789Y0251738D01*
X0502602Y0251682D01*
X0502417Y0251622D01*
X0502233Y0251556D01*
X0502051Y0251487D01*
X0501871Y0251413D01*
X0501693Y0251334D01*
X0501516Y0251252D01*
X0501342Y0251165D01*
X0501170Y0251074D01*
X0501000Y0250978D01*
X0500832Y0250879D01*
X0500667Y0250775D01*
X0500505Y0250668D01*
X0500345Y0250556D01*
X0500188Y0250441D01*
X0500034Y0250322D01*
X0499883Y0250199D01*
X0499734Y0250073D01*
X0499589Y0249943D01*
X0499447Y0249809D01*
X0499309Y0249672D01*
X0499174Y0249532D01*
X0499042Y0249389D01*
X0498914Y0249242D01*
X0498789Y0249092D01*
X0498668Y0248939D01*
X0498551Y0248784D01*
X0498437Y0248625D01*
X0498328Y0248464D01*
X0498223Y0248300D01*
X0498121Y0248134D01*
X0498024Y0247965D01*
X0497930Y0247794D01*
X0497841Y0247621D01*
X0497756Y0247446D01*
X0497676Y0247268D01*
X0497600Y0247089D01*
X0497528Y0246908D01*
X0497460Y0246725D01*
X0497398Y0246541D01*
X0497339Y0246355D01*
X0497285Y0246168D01*
X0497236Y0245979D01*
X0497191Y0245789D01*
X0497151Y0245599D01*
X0497116Y0245407D01*
X0497085Y0245215D01*
X0497059Y0245022D01*
X0497038Y0244828D01*
X0497021Y0244634D01*
X0497009Y0244440D01*
X0497002Y0244245D01*
X0497000Y0244050D01*
X0497000Y0224050D01*
X0497002Y0223855D01*
X0497009Y0223660D01*
X0497021Y0223466D01*
X0497038Y0223272D01*
X0497059Y0223078D01*
X0497085Y0222885D01*
X0497116Y0222693D01*
X0497151Y0222501D01*
X0497191Y0222311D01*
X0497236Y0222121D01*
X0497285Y0221932D01*
X0497339Y0221745D01*
X0497398Y0221559D01*
X0497460Y0221375D01*
X0497528Y0221192D01*
X0497600Y0221011D01*
X0497676Y0220832D01*
X0497756Y0220654D01*
X0497841Y0220479D01*
X0497930Y0220306D01*
X0498024Y0220135D01*
X0498121Y0219966D01*
X0498223Y0219800D01*
X0498328Y0219636D01*
X0498437Y0219475D01*
X0498551Y0219316D01*
X0498668Y0219161D01*
X0498789Y0219008D01*
X0498914Y0218858D01*
X0499042Y0218711D01*
X0499174Y0218568D01*
X0499309Y0218428D01*
X0499447Y0218291D01*
X0499589Y0218157D01*
X0499734Y0218027D01*
X0499883Y0217901D01*
X0500034Y0217778D01*
X0500188Y0217659D01*
X0500345Y0217544D01*
X0500505Y0217432D01*
X0500667Y0217325D01*
X0500832Y0217221D01*
X0501000Y0217122D01*
X0501170Y0217026D01*
X0501342Y0216935D01*
X0501516Y0216848D01*
X0501693Y0216766D01*
X0501871Y0216687D01*
X0502051Y0216613D01*
X0502233Y0216544D01*
X0502417Y0216478D01*
X0502602Y0216418D01*
X0502789Y0216362D01*
X0502977Y0216310D01*
X0503166Y0216263D01*
X0503356Y0216221D01*
X0503547Y0216183D01*
X0503739Y0216150D01*
X0503932Y0216122D01*
X0504125Y0216098D01*
X0504319Y0216079D01*
X0504513Y0216065D01*
X0504708Y0216055D01*
X0504903Y0216051D01*
X0505097Y0216051D01*
X0505292Y0216055D01*
X0505487Y0216065D01*
X0505681Y0216079D01*
X0505875Y0216098D01*
X0506068Y0216122D01*
X0506261Y0216150D01*
X0506453Y0216183D01*
X0506644Y0216221D01*
X0506834Y0216263D01*
X0507023Y0216310D01*
X0507211Y0216362D01*
X0507398Y0216418D01*
X0507583Y0216478D01*
X0507767Y0216544D01*
X0507949Y0216613D01*
X0508129Y0216687D01*
X0508307Y0216766D01*
X0508484Y0216848D01*
X0508658Y0216935D01*
X0508830Y0217026D01*
X0509000Y0217122D01*
X0509168Y0217221D01*
X0509333Y0217325D01*
X0509495Y0217432D01*
X0509655Y0217544D01*
X0509812Y0217659D01*
X0509966Y0217778D01*
X0510117Y0217901D01*
X0510266Y0218027D01*
X0510411Y0218157D01*
X0510553Y0218291D01*
X0510691Y0218428D01*
X0510826Y0218568D01*
X0510958Y0218711D01*
X0511086Y0218858D01*
X0511211Y0219008D01*
X0511332Y0219161D01*
X0511449Y0219316D01*
X0511563Y0219475D01*
X0511672Y0219636D01*
X0511777Y0219800D01*
X0511879Y0219966D01*
X0511976Y0220135D01*
X0512070Y0220306D01*
X0512159Y0220479D01*
X0512244Y0220654D01*
X0512324Y0220832D01*
X0512400Y0221011D01*
X0512472Y0221192D01*
X0512540Y0221375D01*
X0512602Y0221559D01*
X0512661Y0221745D01*
X0512715Y0221932D01*
X0512764Y0222121D01*
X0512809Y0222311D01*
X0512849Y0222501D01*
X0512884Y0222693D01*
X0512915Y0222885D01*
X0512941Y0223078D01*
X0512962Y0223272D01*
X0512979Y0223466D01*
X0512991Y0223660D01*
X0512998Y0223855D01*
X0513000Y0224050D01*
X0547500Y0247550D02*
X0547500Y0254550D01*
X0547502Y0254610D01*
X0547507Y0254671D01*
X0547516Y0254730D01*
X0547529Y0254789D01*
X0547545Y0254848D01*
X0547565Y0254905D01*
X0547588Y0254960D01*
X0547615Y0255015D01*
X0547644Y0255067D01*
X0547677Y0255118D01*
X0547713Y0255167D01*
X0547751Y0255213D01*
X0547793Y0255257D01*
X0547837Y0255299D01*
X0547883Y0255337D01*
X0547932Y0255373D01*
X0547983Y0255406D01*
X0548035Y0255435D01*
X0548090Y0255462D01*
X0548145Y0255485D01*
X0548202Y0255505D01*
X0548261Y0255521D01*
X0548320Y0255534D01*
X0548379Y0255543D01*
X0548440Y0255548D01*
X0548500Y0255550D01*
X0550000Y0255550D01*
X0550500Y0255050D01*
X0569500Y0255050D01*
X0570000Y0255550D01*
X0571500Y0255550D01*
X0571560Y0255548D01*
X0571621Y0255543D01*
X0571680Y0255534D01*
X0571739Y0255521D01*
X0571798Y0255505D01*
X0571855Y0255485D01*
X0571910Y0255462D01*
X0571965Y0255435D01*
X0572017Y0255406D01*
X0572068Y0255373D01*
X0572117Y0255337D01*
X0572163Y0255299D01*
X0572207Y0255257D01*
X0572249Y0255213D01*
X0572287Y0255167D01*
X0572323Y0255118D01*
X0572356Y0255067D01*
X0572385Y0255015D01*
X0572412Y0254960D01*
X0572435Y0254905D01*
X0572455Y0254848D01*
X0572471Y0254789D01*
X0572484Y0254730D01*
X0572493Y0254671D01*
X0572498Y0254610D01*
X0572500Y0254550D01*
X0572500Y0247550D01*
X0572498Y0247490D01*
X0572493Y0247429D01*
X0572484Y0247370D01*
X0572471Y0247311D01*
X0572455Y0247252D01*
X0572435Y0247195D01*
X0572412Y0247140D01*
X0572385Y0247085D01*
X0572356Y0247033D01*
X0572323Y0246982D01*
X0572287Y0246933D01*
X0572249Y0246887D01*
X0572207Y0246843D01*
X0572163Y0246801D01*
X0572117Y0246763D01*
X0572068Y0246727D01*
X0572017Y0246694D01*
X0571965Y0246665D01*
X0571910Y0246638D01*
X0571855Y0246615D01*
X0571798Y0246595D01*
X0571739Y0246579D01*
X0571680Y0246566D01*
X0571621Y0246557D01*
X0571560Y0246552D01*
X0571500Y0246550D01*
X0570000Y0246550D01*
X0569500Y0247050D01*
X0550500Y0247050D01*
X0550000Y0246550D01*
X0548500Y0246550D01*
X0548440Y0246552D01*
X0548379Y0246557D01*
X0548320Y0246566D01*
X0548261Y0246579D01*
X0548202Y0246595D01*
X0548145Y0246615D01*
X0548090Y0246638D01*
X0548035Y0246665D01*
X0547983Y0246694D01*
X0547932Y0246727D01*
X0547883Y0246763D01*
X0547837Y0246801D01*
X0547793Y0246843D01*
X0547751Y0246887D01*
X0547713Y0246933D01*
X0547677Y0246982D01*
X0547644Y0247033D01*
X0547615Y0247085D01*
X0547588Y0247140D01*
X0547565Y0247195D01*
X0547545Y0247252D01*
X0547529Y0247311D01*
X0547516Y0247370D01*
X0547507Y0247429D01*
X0547502Y0247490D01*
X0547500Y0247550D01*
X0548500Y0291550D02*
X0550000Y0291550D01*
X0550500Y0292050D01*
X0569500Y0292050D01*
X0570000Y0291550D01*
X0571500Y0291550D01*
X0571560Y0291552D01*
X0571621Y0291557D01*
X0571680Y0291566D01*
X0571739Y0291579D01*
X0571798Y0291595D01*
X0571855Y0291615D01*
X0571910Y0291638D01*
X0571965Y0291665D01*
X0572017Y0291694D01*
X0572068Y0291727D01*
X0572117Y0291763D01*
X0572163Y0291801D01*
X0572207Y0291843D01*
X0572249Y0291887D01*
X0572287Y0291933D01*
X0572323Y0291982D01*
X0572356Y0292033D01*
X0572385Y0292085D01*
X0572412Y0292140D01*
X0572435Y0292195D01*
X0572455Y0292252D01*
X0572471Y0292311D01*
X0572484Y0292370D01*
X0572493Y0292429D01*
X0572498Y0292490D01*
X0572500Y0292550D01*
X0572500Y0299550D01*
X0572498Y0299610D01*
X0572493Y0299671D01*
X0572484Y0299730D01*
X0572471Y0299789D01*
X0572455Y0299848D01*
X0572435Y0299905D01*
X0572412Y0299960D01*
X0572385Y0300015D01*
X0572356Y0300067D01*
X0572323Y0300118D01*
X0572287Y0300167D01*
X0572249Y0300213D01*
X0572207Y0300257D01*
X0572163Y0300299D01*
X0572117Y0300337D01*
X0572068Y0300373D01*
X0572017Y0300406D01*
X0571965Y0300435D01*
X0571910Y0300462D01*
X0571855Y0300485D01*
X0571798Y0300505D01*
X0571739Y0300521D01*
X0571680Y0300534D01*
X0571621Y0300543D01*
X0571560Y0300548D01*
X0571500Y0300550D01*
X0570000Y0300550D01*
X0569500Y0300050D01*
X0550500Y0300050D01*
X0550000Y0300550D01*
X0548500Y0300550D01*
X0548440Y0300548D01*
X0548379Y0300543D01*
X0548320Y0300534D01*
X0548261Y0300521D01*
X0548202Y0300505D01*
X0548145Y0300485D01*
X0548090Y0300462D01*
X0548035Y0300435D01*
X0547983Y0300406D01*
X0547932Y0300373D01*
X0547883Y0300337D01*
X0547837Y0300299D01*
X0547793Y0300257D01*
X0547751Y0300213D01*
X0547713Y0300167D01*
X0547677Y0300118D01*
X0547644Y0300067D01*
X0547615Y0300015D01*
X0547588Y0299960D01*
X0547565Y0299905D01*
X0547545Y0299848D01*
X0547529Y0299789D01*
X0547516Y0299730D01*
X0547507Y0299671D01*
X0547502Y0299610D01*
X0547500Y0299550D01*
X0547500Y0292550D01*
X0547502Y0292490D01*
X0547507Y0292429D01*
X0547516Y0292370D01*
X0547529Y0292311D01*
X0547545Y0292252D01*
X0547565Y0292195D01*
X0547588Y0292140D01*
X0547615Y0292085D01*
X0547644Y0292033D01*
X0547677Y0291982D01*
X0547713Y0291933D01*
X0547751Y0291887D01*
X0547793Y0291843D01*
X0547837Y0291801D01*
X0547883Y0291763D01*
X0547932Y0291727D01*
X0547983Y0291694D01*
X0548035Y0291665D01*
X0548090Y0291638D01*
X0548145Y0291615D01*
X0548202Y0291595D01*
X0548261Y0291579D01*
X0548320Y0291566D01*
X0548379Y0291557D01*
X0548440Y0291552D01*
X0548500Y0291550D01*
X0513000Y0303050D02*
X0513000Y0323050D01*
X0512998Y0323245D01*
X0512991Y0323440D01*
X0512979Y0323634D01*
X0512962Y0323828D01*
X0512941Y0324022D01*
X0512915Y0324215D01*
X0512884Y0324407D01*
X0512849Y0324599D01*
X0512809Y0324789D01*
X0512764Y0324979D01*
X0512715Y0325168D01*
X0512661Y0325355D01*
X0512602Y0325541D01*
X0512540Y0325725D01*
X0512472Y0325908D01*
X0512400Y0326089D01*
X0512324Y0326268D01*
X0512244Y0326446D01*
X0512159Y0326621D01*
X0512070Y0326794D01*
X0511976Y0326965D01*
X0511879Y0327134D01*
X0511777Y0327300D01*
X0511672Y0327464D01*
X0511563Y0327625D01*
X0511449Y0327784D01*
X0511332Y0327939D01*
X0511211Y0328092D01*
X0511086Y0328242D01*
X0510958Y0328389D01*
X0510826Y0328532D01*
X0510691Y0328672D01*
X0510553Y0328809D01*
X0510411Y0328943D01*
X0510266Y0329073D01*
X0510117Y0329199D01*
X0509966Y0329322D01*
X0509812Y0329441D01*
X0509655Y0329556D01*
X0509495Y0329668D01*
X0509333Y0329775D01*
X0509168Y0329879D01*
X0509000Y0329978D01*
X0508830Y0330074D01*
X0508658Y0330165D01*
X0508484Y0330252D01*
X0508307Y0330334D01*
X0508129Y0330413D01*
X0507949Y0330487D01*
X0507767Y0330556D01*
X0507583Y0330622D01*
X0507398Y0330682D01*
X0507211Y0330738D01*
X0507023Y0330790D01*
X0506834Y0330837D01*
X0506644Y0330879D01*
X0506453Y0330917D01*
X0506261Y0330950D01*
X0506068Y0330978D01*
X0505875Y0331002D01*
X0505681Y0331021D01*
X0505487Y0331035D01*
X0505292Y0331045D01*
X0505097Y0331049D01*
X0504903Y0331049D01*
X0504708Y0331045D01*
X0504513Y0331035D01*
X0504319Y0331021D01*
X0504125Y0331002D01*
X0503932Y0330978D01*
X0503739Y0330950D01*
X0503547Y0330917D01*
X0503356Y0330879D01*
X0503166Y0330837D01*
X0502977Y0330790D01*
X0502789Y0330738D01*
X0502602Y0330682D01*
X0502417Y0330622D01*
X0502233Y0330556D01*
X0502051Y0330487D01*
X0501871Y0330413D01*
X0501693Y0330334D01*
X0501516Y0330252D01*
X0501342Y0330165D01*
X0501170Y0330074D01*
X0501000Y0329978D01*
X0500832Y0329879D01*
X0500667Y0329775D01*
X0500505Y0329668D01*
X0500345Y0329556D01*
X0500188Y0329441D01*
X0500034Y0329322D01*
X0499883Y0329199D01*
X0499734Y0329073D01*
X0499589Y0328943D01*
X0499447Y0328809D01*
X0499309Y0328672D01*
X0499174Y0328532D01*
X0499042Y0328389D01*
X0498914Y0328242D01*
X0498789Y0328092D01*
X0498668Y0327939D01*
X0498551Y0327784D01*
X0498437Y0327625D01*
X0498328Y0327464D01*
X0498223Y0327300D01*
X0498121Y0327134D01*
X0498024Y0326965D01*
X0497930Y0326794D01*
X0497841Y0326621D01*
X0497756Y0326446D01*
X0497676Y0326268D01*
X0497600Y0326089D01*
X0497528Y0325908D01*
X0497460Y0325725D01*
X0497398Y0325541D01*
X0497339Y0325355D01*
X0497285Y0325168D01*
X0497236Y0324979D01*
X0497191Y0324789D01*
X0497151Y0324599D01*
X0497116Y0324407D01*
X0497085Y0324215D01*
X0497059Y0324022D01*
X0497038Y0323828D01*
X0497021Y0323634D01*
X0497009Y0323440D01*
X0497002Y0323245D01*
X0497000Y0323050D01*
X0497000Y0303050D01*
X0497002Y0302855D01*
X0497009Y0302660D01*
X0497021Y0302466D01*
X0497038Y0302272D01*
X0497059Y0302078D01*
X0497085Y0301885D01*
X0497116Y0301693D01*
X0497151Y0301501D01*
X0497191Y0301311D01*
X0497236Y0301121D01*
X0497285Y0300932D01*
X0497339Y0300745D01*
X0497398Y0300559D01*
X0497460Y0300375D01*
X0497528Y0300192D01*
X0497600Y0300011D01*
X0497676Y0299832D01*
X0497756Y0299654D01*
X0497841Y0299479D01*
X0497930Y0299306D01*
X0498024Y0299135D01*
X0498121Y0298966D01*
X0498223Y0298800D01*
X0498328Y0298636D01*
X0498437Y0298475D01*
X0498551Y0298316D01*
X0498668Y0298161D01*
X0498789Y0298008D01*
X0498914Y0297858D01*
X0499042Y0297711D01*
X0499174Y0297568D01*
X0499309Y0297428D01*
X0499447Y0297291D01*
X0499589Y0297157D01*
X0499734Y0297027D01*
X0499883Y0296901D01*
X0500034Y0296778D01*
X0500188Y0296659D01*
X0500345Y0296544D01*
X0500505Y0296432D01*
X0500667Y0296325D01*
X0500832Y0296221D01*
X0501000Y0296122D01*
X0501170Y0296026D01*
X0501342Y0295935D01*
X0501516Y0295848D01*
X0501693Y0295766D01*
X0501871Y0295687D01*
X0502051Y0295613D01*
X0502233Y0295544D01*
X0502417Y0295478D01*
X0502602Y0295418D01*
X0502789Y0295362D01*
X0502977Y0295310D01*
X0503166Y0295263D01*
X0503356Y0295221D01*
X0503547Y0295183D01*
X0503739Y0295150D01*
X0503932Y0295122D01*
X0504125Y0295098D01*
X0504319Y0295079D01*
X0504513Y0295065D01*
X0504708Y0295055D01*
X0504903Y0295051D01*
X0505097Y0295051D01*
X0505292Y0295055D01*
X0505487Y0295065D01*
X0505681Y0295079D01*
X0505875Y0295098D01*
X0506068Y0295122D01*
X0506261Y0295150D01*
X0506453Y0295183D01*
X0506644Y0295221D01*
X0506834Y0295263D01*
X0507023Y0295310D01*
X0507211Y0295362D01*
X0507398Y0295418D01*
X0507583Y0295478D01*
X0507767Y0295544D01*
X0507949Y0295613D01*
X0508129Y0295687D01*
X0508307Y0295766D01*
X0508484Y0295848D01*
X0508658Y0295935D01*
X0508830Y0296026D01*
X0509000Y0296122D01*
X0509168Y0296221D01*
X0509333Y0296325D01*
X0509495Y0296432D01*
X0509655Y0296544D01*
X0509812Y0296659D01*
X0509966Y0296778D01*
X0510117Y0296901D01*
X0510266Y0297027D01*
X0510411Y0297157D01*
X0510553Y0297291D01*
X0510691Y0297428D01*
X0510826Y0297568D01*
X0510958Y0297711D01*
X0511086Y0297858D01*
X0511211Y0298008D01*
X0511332Y0298161D01*
X0511449Y0298316D01*
X0511563Y0298475D01*
X0511672Y0298636D01*
X0511777Y0298800D01*
X0511879Y0298966D01*
X0511976Y0299135D01*
X0512070Y0299306D01*
X0512159Y0299479D01*
X0512244Y0299654D01*
X0512324Y0299832D01*
X0512400Y0300011D01*
X0512472Y0300192D01*
X0512540Y0300375D01*
X0512602Y0300559D01*
X0512661Y0300745D01*
X0512715Y0300932D01*
X0512764Y0301121D01*
X0512809Y0301311D01*
X0512849Y0301501D01*
X0512884Y0301693D01*
X0512915Y0301885D01*
X0512941Y0302078D01*
X0512962Y0302272D01*
X0512979Y0302466D01*
X0512991Y0302660D01*
X0512998Y0302855D01*
X0513000Y0303050D01*
X0547500Y0322550D02*
X0547500Y0329550D01*
X0547502Y0329610D01*
X0547507Y0329671D01*
X0547516Y0329730D01*
X0547529Y0329789D01*
X0547545Y0329848D01*
X0547565Y0329905D01*
X0547588Y0329960D01*
X0547615Y0330015D01*
X0547644Y0330067D01*
X0547677Y0330118D01*
X0547713Y0330167D01*
X0547751Y0330213D01*
X0547793Y0330257D01*
X0547837Y0330299D01*
X0547883Y0330337D01*
X0547932Y0330373D01*
X0547983Y0330406D01*
X0548035Y0330435D01*
X0548090Y0330462D01*
X0548145Y0330485D01*
X0548202Y0330505D01*
X0548261Y0330521D01*
X0548320Y0330534D01*
X0548379Y0330543D01*
X0548440Y0330548D01*
X0548500Y0330550D01*
X0550000Y0330550D01*
X0550500Y0330050D01*
X0569500Y0330050D01*
X0570000Y0330550D01*
X0571500Y0330550D01*
X0571560Y0330548D01*
X0571621Y0330543D01*
X0571680Y0330534D01*
X0571739Y0330521D01*
X0571798Y0330505D01*
X0571855Y0330485D01*
X0571910Y0330462D01*
X0571965Y0330435D01*
X0572017Y0330406D01*
X0572068Y0330373D01*
X0572117Y0330337D01*
X0572163Y0330299D01*
X0572207Y0330257D01*
X0572249Y0330213D01*
X0572287Y0330167D01*
X0572323Y0330118D01*
X0572356Y0330067D01*
X0572385Y0330015D01*
X0572412Y0329960D01*
X0572435Y0329905D01*
X0572455Y0329848D01*
X0572471Y0329789D01*
X0572484Y0329730D01*
X0572493Y0329671D01*
X0572498Y0329610D01*
X0572500Y0329550D01*
X0572500Y0322550D01*
X0572498Y0322490D01*
X0572493Y0322429D01*
X0572484Y0322370D01*
X0572471Y0322311D01*
X0572455Y0322252D01*
X0572435Y0322195D01*
X0572412Y0322140D01*
X0572385Y0322085D01*
X0572356Y0322033D01*
X0572323Y0321982D01*
X0572287Y0321933D01*
X0572249Y0321887D01*
X0572207Y0321843D01*
X0572163Y0321801D01*
X0572117Y0321763D01*
X0572068Y0321727D01*
X0572017Y0321694D01*
X0571965Y0321665D01*
X0571910Y0321638D01*
X0571855Y0321615D01*
X0571798Y0321595D01*
X0571739Y0321579D01*
X0571680Y0321566D01*
X0571621Y0321557D01*
X0571560Y0321552D01*
X0571500Y0321550D01*
X0570000Y0321550D01*
X0569500Y0322050D01*
X0550500Y0322050D01*
X0550000Y0321550D01*
X0548500Y0321550D01*
X0548440Y0321552D01*
X0548379Y0321557D01*
X0548320Y0321566D01*
X0548261Y0321579D01*
X0548202Y0321595D01*
X0548145Y0321615D01*
X0548090Y0321638D01*
X0548035Y0321665D01*
X0547983Y0321694D01*
X0547932Y0321727D01*
X0547883Y0321763D01*
X0547837Y0321801D01*
X0547793Y0321843D01*
X0547751Y0321887D01*
X0547713Y0321933D01*
X0547677Y0321982D01*
X0547644Y0322033D01*
X0547615Y0322085D01*
X0547588Y0322140D01*
X0547565Y0322195D01*
X0547545Y0322252D01*
X0547529Y0322311D01*
X0547516Y0322370D01*
X0547507Y0322429D01*
X0547502Y0322490D01*
X0547500Y0322550D01*
X0548500Y0361550D02*
X0550000Y0361550D01*
X0550500Y0362050D01*
X0569500Y0362050D01*
X0570000Y0361550D01*
X0571500Y0361550D01*
X0571560Y0361552D01*
X0571621Y0361557D01*
X0571680Y0361566D01*
X0571739Y0361579D01*
X0571798Y0361595D01*
X0571855Y0361615D01*
X0571910Y0361638D01*
X0571965Y0361665D01*
X0572017Y0361694D01*
X0572068Y0361727D01*
X0572117Y0361763D01*
X0572163Y0361801D01*
X0572207Y0361843D01*
X0572249Y0361887D01*
X0572287Y0361933D01*
X0572323Y0361982D01*
X0572356Y0362033D01*
X0572385Y0362085D01*
X0572412Y0362140D01*
X0572435Y0362195D01*
X0572455Y0362252D01*
X0572471Y0362311D01*
X0572484Y0362370D01*
X0572493Y0362429D01*
X0572498Y0362490D01*
X0572500Y0362550D01*
X0572500Y0369550D01*
X0572498Y0369610D01*
X0572493Y0369671D01*
X0572484Y0369730D01*
X0572471Y0369789D01*
X0572455Y0369848D01*
X0572435Y0369905D01*
X0572412Y0369960D01*
X0572385Y0370015D01*
X0572356Y0370067D01*
X0572323Y0370118D01*
X0572287Y0370167D01*
X0572249Y0370213D01*
X0572207Y0370257D01*
X0572163Y0370299D01*
X0572117Y0370337D01*
X0572068Y0370373D01*
X0572017Y0370406D01*
X0571965Y0370435D01*
X0571910Y0370462D01*
X0571855Y0370485D01*
X0571798Y0370505D01*
X0571739Y0370521D01*
X0571680Y0370534D01*
X0571621Y0370543D01*
X0571560Y0370548D01*
X0571500Y0370550D01*
X0570000Y0370550D01*
X0569500Y0370050D01*
X0550500Y0370050D01*
X0550000Y0370550D01*
X0548500Y0370550D01*
X0548440Y0370548D01*
X0548379Y0370543D01*
X0548320Y0370534D01*
X0548261Y0370521D01*
X0548202Y0370505D01*
X0548145Y0370485D01*
X0548090Y0370462D01*
X0548035Y0370435D01*
X0547983Y0370406D01*
X0547932Y0370373D01*
X0547883Y0370337D01*
X0547837Y0370299D01*
X0547793Y0370257D01*
X0547751Y0370213D01*
X0547713Y0370167D01*
X0547677Y0370118D01*
X0547644Y0370067D01*
X0547615Y0370015D01*
X0547588Y0369960D01*
X0547565Y0369905D01*
X0547545Y0369848D01*
X0547529Y0369789D01*
X0547516Y0369730D01*
X0547507Y0369671D01*
X0547502Y0369610D01*
X0547500Y0369550D01*
X0547500Y0362550D01*
X0547502Y0362490D01*
X0547507Y0362429D01*
X0547516Y0362370D01*
X0547529Y0362311D01*
X0547545Y0362252D01*
X0547565Y0362195D01*
X0547588Y0362140D01*
X0547615Y0362085D01*
X0547644Y0362033D01*
X0547677Y0361982D01*
X0547713Y0361933D01*
X0547751Y0361887D01*
X0547793Y0361843D01*
X0547837Y0361801D01*
X0547883Y0361763D01*
X0547932Y0361727D01*
X0547983Y0361694D01*
X0548035Y0361665D01*
X0548090Y0361638D01*
X0548145Y0361615D01*
X0548202Y0361595D01*
X0548261Y0361579D01*
X0548320Y0361566D01*
X0548379Y0361557D01*
X0548440Y0361552D01*
X0548500Y0361550D01*
X0513000Y0369050D02*
X0513000Y0389050D01*
X0512998Y0389245D01*
X0512991Y0389440D01*
X0512979Y0389634D01*
X0512962Y0389828D01*
X0512941Y0390022D01*
X0512915Y0390215D01*
X0512884Y0390407D01*
X0512849Y0390599D01*
X0512809Y0390789D01*
X0512764Y0390979D01*
X0512715Y0391168D01*
X0512661Y0391355D01*
X0512602Y0391541D01*
X0512540Y0391725D01*
X0512472Y0391908D01*
X0512400Y0392089D01*
X0512324Y0392268D01*
X0512244Y0392446D01*
X0512159Y0392621D01*
X0512070Y0392794D01*
X0511976Y0392965D01*
X0511879Y0393134D01*
X0511777Y0393300D01*
X0511672Y0393464D01*
X0511563Y0393625D01*
X0511449Y0393784D01*
X0511332Y0393939D01*
X0511211Y0394092D01*
X0511086Y0394242D01*
X0510958Y0394389D01*
X0510826Y0394532D01*
X0510691Y0394672D01*
X0510553Y0394809D01*
X0510411Y0394943D01*
X0510266Y0395073D01*
X0510117Y0395199D01*
X0509966Y0395322D01*
X0509812Y0395441D01*
X0509655Y0395556D01*
X0509495Y0395668D01*
X0509333Y0395775D01*
X0509168Y0395879D01*
X0509000Y0395978D01*
X0508830Y0396074D01*
X0508658Y0396165D01*
X0508484Y0396252D01*
X0508307Y0396334D01*
X0508129Y0396413D01*
X0507949Y0396487D01*
X0507767Y0396556D01*
X0507583Y0396622D01*
X0507398Y0396682D01*
X0507211Y0396738D01*
X0507023Y0396790D01*
X0506834Y0396837D01*
X0506644Y0396879D01*
X0506453Y0396917D01*
X0506261Y0396950D01*
X0506068Y0396978D01*
X0505875Y0397002D01*
X0505681Y0397021D01*
X0505487Y0397035D01*
X0505292Y0397045D01*
X0505097Y0397049D01*
X0504903Y0397049D01*
X0504708Y0397045D01*
X0504513Y0397035D01*
X0504319Y0397021D01*
X0504125Y0397002D01*
X0503932Y0396978D01*
X0503739Y0396950D01*
X0503547Y0396917D01*
X0503356Y0396879D01*
X0503166Y0396837D01*
X0502977Y0396790D01*
X0502789Y0396738D01*
X0502602Y0396682D01*
X0502417Y0396622D01*
X0502233Y0396556D01*
X0502051Y0396487D01*
X0501871Y0396413D01*
X0501693Y0396334D01*
X0501516Y0396252D01*
X0501342Y0396165D01*
X0501170Y0396074D01*
X0501000Y0395978D01*
X0500832Y0395879D01*
X0500667Y0395775D01*
X0500505Y0395668D01*
X0500345Y0395556D01*
X0500188Y0395441D01*
X0500034Y0395322D01*
X0499883Y0395199D01*
X0499734Y0395073D01*
X0499589Y0394943D01*
X0499447Y0394809D01*
X0499309Y0394672D01*
X0499174Y0394532D01*
X0499042Y0394389D01*
X0498914Y0394242D01*
X0498789Y0394092D01*
X0498668Y0393939D01*
X0498551Y0393784D01*
X0498437Y0393625D01*
X0498328Y0393464D01*
X0498223Y0393300D01*
X0498121Y0393134D01*
X0498024Y0392965D01*
X0497930Y0392794D01*
X0497841Y0392621D01*
X0497756Y0392446D01*
X0497676Y0392268D01*
X0497600Y0392089D01*
X0497528Y0391908D01*
X0497460Y0391725D01*
X0497398Y0391541D01*
X0497339Y0391355D01*
X0497285Y0391168D01*
X0497236Y0390979D01*
X0497191Y0390789D01*
X0497151Y0390599D01*
X0497116Y0390407D01*
X0497085Y0390215D01*
X0497059Y0390022D01*
X0497038Y0389828D01*
X0497021Y0389634D01*
X0497009Y0389440D01*
X0497002Y0389245D01*
X0497000Y0389050D01*
X0497000Y0369050D01*
X0497002Y0368855D01*
X0497009Y0368660D01*
X0497021Y0368466D01*
X0497038Y0368272D01*
X0497059Y0368078D01*
X0497085Y0367885D01*
X0497116Y0367693D01*
X0497151Y0367501D01*
X0497191Y0367311D01*
X0497236Y0367121D01*
X0497285Y0366932D01*
X0497339Y0366745D01*
X0497398Y0366559D01*
X0497460Y0366375D01*
X0497528Y0366192D01*
X0497600Y0366011D01*
X0497676Y0365832D01*
X0497756Y0365654D01*
X0497841Y0365479D01*
X0497930Y0365306D01*
X0498024Y0365135D01*
X0498121Y0364966D01*
X0498223Y0364800D01*
X0498328Y0364636D01*
X0498437Y0364475D01*
X0498551Y0364316D01*
X0498668Y0364161D01*
X0498789Y0364008D01*
X0498914Y0363858D01*
X0499042Y0363711D01*
X0499174Y0363568D01*
X0499309Y0363428D01*
X0499447Y0363291D01*
X0499589Y0363157D01*
X0499734Y0363027D01*
X0499883Y0362901D01*
X0500034Y0362778D01*
X0500188Y0362659D01*
X0500345Y0362544D01*
X0500505Y0362432D01*
X0500667Y0362325D01*
X0500832Y0362221D01*
X0501000Y0362122D01*
X0501170Y0362026D01*
X0501342Y0361935D01*
X0501516Y0361848D01*
X0501693Y0361766D01*
X0501871Y0361687D01*
X0502051Y0361613D01*
X0502233Y0361544D01*
X0502417Y0361478D01*
X0502602Y0361418D01*
X0502789Y0361362D01*
X0502977Y0361310D01*
X0503166Y0361263D01*
X0503356Y0361221D01*
X0503547Y0361183D01*
X0503739Y0361150D01*
X0503932Y0361122D01*
X0504125Y0361098D01*
X0504319Y0361079D01*
X0504513Y0361065D01*
X0504708Y0361055D01*
X0504903Y0361051D01*
X0505097Y0361051D01*
X0505292Y0361055D01*
X0505487Y0361065D01*
X0505681Y0361079D01*
X0505875Y0361098D01*
X0506068Y0361122D01*
X0506261Y0361150D01*
X0506453Y0361183D01*
X0506644Y0361221D01*
X0506834Y0361263D01*
X0507023Y0361310D01*
X0507211Y0361362D01*
X0507398Y0361418D01*
X0507583Y0361478D01*
X0507767Y0361544D01*
X0507949Y0361613D01*
X0508129Y0361687D01*
X0508307Y0361766D01*
X0508484Y0361848D01*
X0508658Y0361935D01*
X0508830Y0362026D01*
X0509000Y0362122D01*
X0509168Y0362221D01*
X0509333Y0362325D01*
X0509495Y0362432D01*
X0509655Y0362544D01*
X0509812Y0362659D01*
X0509966Y0362778D01*
X0510117Y0362901D01*
X0510266Y0363027D01*
X0510411Y0363157D01*
X0510553Y0363291D01*
X0510691Y0363428D01*
X0510826Y0363568D01*
X0510958Y0363711D01*
X0511086Y0363858D01*
X0511211Y0364008D01*
X0511332Y0364161D01*
X0511449Y0364316D01*
X0511563Y0364475D01*
X0511672Y0364636D01*
X0511777Y0364800D01*
X0511879Y0364966D01*
X0511976Y0365135D01*
X0512070Y0365306D01*
X0512159Y0365479D01*
X0512244Y0365654D01*
X0512324Y0365832D01*
X0512400Y0366011D01*
X0512472Y0366192D01*
X0512540Y0366375D01*
X0512602Y0366559D01*
X0512661Y0366745D01*
X0512715Y0366932D01*
X0512764Y0367121D01*
X0512809Y0367311D01*
X0512849Y0367501D01*
X0512884Y0367693D01*
X0512915Y0367885D01*
X0512941Y0368078D01*
X0512962Y0368272D01*
X0512979Y0368466D01*
X0512991Y0368660D01*
X0512998Y0368855D01*
X0513000Y0369050D01*
X0547500Y0392550D02*
X0547500Y0399550D01*
X0547502Y0399610D01*
X0547507Y0399671D01*
X0547516Y0399730D01*
X0547529Y0399789D01*
X0547545Y0399848D01*
X0547565Y0399905D01*
X0547588Y0399960D01*
X0547615Y0400015D01*
X0547644Y0400067D01*
X0547677Y0400118D01*
X0547713Y0400167D01*
X0547751Y0400213D01*
X0547793Y0400257D01*
X0547837Y0400299D01*
X0547883Y0400337D01*
X0547932Y0400373D01*
X0547983Y0400406D01*
X0548035Y0400435D01*
X0548090Y0400462D01*
X0548145Y0400485D01*
X0548202Y0400505D01*
X0548261Y0400521D01*
X0548320Y0400534D01*
X0548379Y0400543D01*
X0548440Y0400548D01*
X0548500Y0400550D01*
X0550000Y0400550D01*
X0550500Y0400050D01*
X0569500Y0400050D01*
X0570000Y0400550D01*
X0571500Y0400550D01*
X0571560Y0400548D01*
X0571621Y0400543D01*
X0571680Y0400534D01*
X0571739Y0400521D01*
X0571798Y0400505D01*
X0571855Y0400485D01*
X0571910Y0400462D01*
X0571965Y0400435D01*
X0572017Y0400406D01*
X0572068Y0400373D01*
X0572117Y0400337D01*
X0572163Y0400299D01*
X0572207Y0400257D01*
X0572249Y0400213D01*
X0572287Y0400167D01*
X0572323Y0400118D01*
X0572356Y0400067D01*
X0572385Y0400015D01*
X0572412Y0399960D01*
X0572435Y0399905D01*
X0572455Y0399848D01*
X0572471Y0399789D01*
X0572484Y0399730D01*
X0572493Y0399671D01*
X0572498Y0399610D01*
X0572500Y0399550D01*
X0572500Y0392550D01*
X0572498Y0392490D01*
X0572493Y0392429D01*
X0572484Y0392370D01*
X0572471Y0392311D01*
X0572455Y0392252D01*
X0572435Y0392195D01*
X0572412Y0392140D01*
X0572385Y0392085D01*
X0572356Y0392033D01*
X0572323Y0391982D01*
X0572287Y0391933D01*
X0572249Y0391887D01*
X0572207Y0391843D01*
X0572163Y0391801D01*
X0572117Y0391763D01*
X0572068Y0391727D01*
X0572017Y0391694D01*
X0571965Y0391665D01*
X0571910Y0391638D01*
X0571855Y0391615D01*
X0571798Y0391595D01*
X0571739Y0391579D01*
X0571680Y0391566D01*
X0571621Y0391557D01*
X0571560Y0391552D01*
X0571500Y0391550D01*
X0570000Y0391550D01*
X0569500Y0392050D01*
X0550500Y0392050D01*
X0550000Y0391550D01*
X0548500Y0391550D01*
X0548440Y0391552D01*
X0548379Y0391557D01*
X0548320Y0391566D01*
X0548261Y0391579D01*
X0548202Y0391595D01*
X0548145Y0391615D01*
X0548090Y0391638D01*
X0548035Y0391665D01*
X0547983Y0391694D01*
X0547932Y0391727D01*
X0547883Y0391763D01*
X0547837Y0391801D01*
X0547793Y0391843D01*
X0547751Y0391887D01*
X0547713Y0391933D01*
X0547677Y0391982D01*
X0547644Y0392033D01*
X0547615Y0392085D01*
X0547588Y0392140D01*
X0547565Y0392195D01*
X0547545Y0392252D01*
X0547529Y0392311D01*
X0547516Y0392370D01*
X0547507Y0392429D01*
X0547502Y0392490D01*
X0547500Y0392550D01*
X0445000Y0398550D02*
X0425000Y0398550D01*
X0426500Y0396050D02*
X0431000Y0396050D01*
X0431002Y0395924D01*
X0431008Y0395799D01*
X0431018Y0395674D01*
X0431032Y0395549D01*
X0431049Y0395424D01*
X0431071Y0395300D01*
X0431096Y0395177D01*
X0431126Y0395055D01*
X0431159Y0394934D01*
X0431196Y0394814D01*
X0431236Y0394695D01*
X0431281Y0394578D01*
X0431329Y0394461D01*
X0431381Y0394347D01*
X0431436Y0394234D01*
X0431495Y0394123D01*
X0431557Y0394014D01*
X0431623Y0393907D01*
X0431692Y0393802D01*
X0431764Y0393699D01*
X0431839Y0393598D01*
X0431918Y0393500D01*
X0432000Y0393405D01*
X0432084Y0393312D01*
X0432172Y0393222D01*
X0432262Y0393134D01*
X0432355Y0393050D01*
X0432450Y0392968D01*
X0432548Y0392889D01*
X0432649Y0392814D01*
X0432752Y0392742D01*
X0432857Y0392673D01*
X0432964Y0392607D01*
X0433073Y0392545D01*
X0433184Y0392486D01*
X0433297Y0392431D01*
X0433411Y0392379D01*
X0433528Y0392331D01*
X0433645Y0392286D01*
X0433764Y0392246D01*
X0433884Y0392209D01*
X0434005Y0392176D01*
X0434127Y0392146D01*
X0434250Y0392121D01*
X0434374Y0392099D01*
X0434499Y0392082D01*
X0434624Y0392068D01*
X0434749Y0392058D01*
X0434874Y0392052D01*
X0435000Y0392050D01*
X0435126Y0392052D01*
X0435251Y0392058D01*
X0435376Y0392068D01*
X0435501Y0392082D01*
X0435626Y0392099D01*
X0435750Y0392121D01*
X0435873Y0392146D01*
X0435995Y0392176D01*
X0436116Y0392209D01*
X0436236Y0392246D01*
X0436355Y0392286D01*
X0436472Y0392331D01*
X0436589Y0392379D01*
X0436703Y0392431D01*
X0436816Y0392486D01*
X0436927Y0392545D01*
X0437036Y0392607D01*
X0437143Y0392673D01*
X0437248Y0392742D01*
X0437351Y0392814D01*
X0437452Y0392889D01*
X0437550Y0392968D01*
X0437645Y0393050D01*
X0437738Y0393134D01*
X0437828Y0393222D01*
X0437916Y0393312D01*
X0438000Y0393405D01*
X0438082Y0393500D01*
X0438161Y0393598D01*
X0438236Y0393699D01*
X0438308Y0393802D01*
X0438377Y0393907D01*
X0438443Y0394014D01*
X0438505Y0394123D01*
X0438564Y0394234D01*
X0438619Y0394347D01*
X0438671Y0394461D01*
X0438719Y0394578D01*
X0438764Y0394695D01*
X0438804Y0394814D01*
X0438841Y0394934D01*
X0438874Y0395055D01*
X0438904Y0395177D01*
X0438929Y0395300D01*
X0438951Y0395424D01*
X0438968Y0395549D01*
X0438982Y0395674D01*
X0438992Y0395799D01*
X0438998Y0395924D01*
X0439000Y0396050D01*
X0443500Y0396050D01*
X0443500Y0316050D01*
X0426500Y0316050D01*
X0426500Y0396050D01*
X0425000Y0398550D02*
X0424805Y0398552D01*
X0424610Y0398559D01*
X0424416Y0398571D01*
X0424222Y0398588D01*
X0424028Y0398609D01*
X0423835Y0398635D01*
X0423643Y0398666D01*
X0423451Y0398701D01*
X0423261Y0398741D01*
X0423071Y0398786D01*
X0422882Y0398835D01*
X0422695Y0398889D01*
X0422509Y0398948D01*
X0422325Y0399010D01*
X0422142Y0399078D01*
X0421961Y0399150D01*
X0421782Y0399226D01*
X0421604Y0399306D01*
X0421429Y0399391D01*
X0421256Y0399480D01*
X0421085Y0399574D01*
X0420916Y0399671D01*
X0420750Y0399773D01*
X0420586Y0399878D01*
X0420425Y0399987D01*
X0420266Y0400101D01*
X0420111Y0400218D01*
X0419958Y0400339D01*
X0419808Y0400464D01*
X0419661Y0400592D01*
X0419518Y0400724D01*
X0419378Y0400859D01*
X0419241Y0400997D01*
X0419107Y0401139D01*
X0418977Y0401284D01*
X0418851Y0401433D01*
X0418728Y0401584D01*
X0418609Y0401738D01*
X0418494Y0401895D01*
X0418382Y0402055D01*
X0418275Y0402217D01*
X0418171Y0402382D01*
X0418072Y0402550D01*
X0417976Y0402720D01*
X0417885Y0402892D01*
X0417798Y0403066D01*
X0417716Y0403243D01*
X0417637Y0403421D01*
X0417563Y0403601D01*
X0417494Y0403783D01*
X0417428Y0403967D01*
X0417368Y0404152D01*
X0417312Y0404339D01*
X0417260Y0404527D01*
X0417213Y0404716D01*
X0417171Y0404906D01*
X0417133Y0405097D01*
X0417100Y0405289D01*
X0417072Y0405482D01*
X0417048Y0405675D01*
X0417029Y0405869D01*
X0417015Y0406063D01*
X0417005Y0406258D01*
X0417001Y0406453D01*
X0417001Y0406647D01*
X0417005Y0406842D01*
X0417015Y0407037D01*
X0417029Y0407231D01*
X0417048Y0407425D01*
X0417072Y0407618D01*
X0417100Y0407811D01*
X0417133Y0408003D01*
X0417171Y0408194D01*
X0417213Y0408384D01*
X0417260Y0408573D01*
X0417312Y0408761D01*
X0417368Y0408948D01*
X0417428Y0409133D01*
X0417494Y0409317D01*
X0417563Y0409499D01*
X0417637Y0409679D01*
X0417716Y0409857D01*
X0417798Y0410034D01*
X0417885Y0410208D01*
X0417976Y0410380D01*
X0418072Y0410550D01*
X0418171Y0410718D01*
X0418275Y0410883D01*
X0418382Y0411045D01*
X0418494Y0411205D01*
X0418609Y0411362D01*
X0418728Y0411516D01*
X0418851Y0411667D01*
X0418977Y0411816D01*
X0419107Y0411961D01*
X0419241Y0412103D01*
X0419378Y0412241D01*
X0419518Y0412376D01*
X0419661Y0412508D01*
X0419808Y0412636D01*
X0419958Y0412761D01*
X0420111Y0412882D01*
X0420266Y0412999D01*
X0420425Y0413113D01*
X0420586Y0413222D01*
X0420750Y0413327D01*
X0420916Y0413429D01*
X0421085Y0413526D01*
X0421256Y0413620D01*
X0421429Y0413709D01*
X0421604Y0413794D01*
X0421782Y0413874D01*
X0421961Y0413950D01*
X0422142Y0414022D01*
X0422325Y0414090D01*
X0422509Y0414152D01*
X0422695Y0414211D01*
X0422882Y0414265D01*
X0423071Y0414314D01*
X0423261Y0414359D01*
X0423451Y0414399D01*
X0423643Y0414434D01*
X0423835Y0414465D01*
X0424028Y0414491D01*
X0424222Y0414512D01*
X0424416Y0414529D01*
X0424610Y0414541D01*
X0424805Y0414548D01*
X0425000Y0414550D01*
X0445000Y0414550D01*
X0445195Y0414548D01*
X0445390Y0414541D01*
X0445584Y0414529D01*
X0445778Y0414512D01*
X0445972Y0414491D01*
X0446165Y0414465D01*
X0446357Y0414434D01*
X0446549Y0414399D01*
X0446739Y0414359D01*
X0446929Y0414314D01*
X0447118Y0414265D01*
X0447305Y0414211D01*
X0447491Y0414152D01*
X0447675Y0414090D01*
X0447858Y0414022D01*
X0448039Y0413950D01*
X0448218Y0413874D01*
X0448396Y0413794D01*
X0448571Y0413709D01*
X0448744Y0413620D01*
X0448915Y0413526D01*
X0449084Y0413429D01*
X0449250Y0413327D01*
X0449414Y0413222D01*
X0449575Y0413113D01*
X0449734Y0412999D01*
X0449889Y0412882D01*
X0450042Y0412761D01*
X0450192Y0412636D01*
X0450339Y0412508D01*
X0450482Y0412376D01*
X0450622Y0412241D01*
X0450759Y0412103D01*
X0450893Y0411961D01*
X0451023Y0411816D01*
X0451149Y0411667D01*
X0451272Y0411516D01*
X0451391Y0411362D01*
X0451506Y0411205D01*
X0451618Y0411045D01*
X0451725Y0410883D01*
X0451829Y0410718D01*
X0451928Y0410550D01*
X0452024Y0410380D01*
X0452115Y0410208D01*
X0452202Y0410034D01*
X0452284Y0409857D01*
X0452363Y0409679D01*
X0452437Y0409499D01*
X0452506Y0409317D01*
X0452572Y0409133D01*
X0452632Y0408948D01*
X0452688Y0408761D01*
X0452740Y0408573D01*
X0452787Y0408384D01*
X0452829Y0408194D01*
X0452867Y0408003D01*
X0452900Y0407811D01*
X0452928Y0407618D01*
X0452952Y0407425D01*
X0452971Y0407231D01*
X0452985Y0407037D01*
X0452995Y0406842D01*
X0452999Y0406647D01*
X0452999Y0406453D01*
X0452995Y0406258D01*
X0452985Y0406063D01*
X0452971Y0405869D01*
X0452952Y0405675D01*
X0452928Y0405482D01*
X0452900Y0405289D01*
X0452867Y0405097D01*
X0452829Y0404906D01*
X0452787Y0404716D01*
X0452740Y0404527D01*
X0452688Y0404339D01*
X0452632Y0404152D01*
X0452572Y0403967D01*
X0452506Y0403783D01*
X0452437Y0403601D01*
X0452363Y0403421D01*
X0452284Y0403243D01*
X0452202Y0403066D01*
X0452115Y0402892D01*
X0452024Y0402720D01*
X0451928Y0402550D01*
X0451829Y0402382D01*
X0451725Y0402217D01*
X0451618Y0402055D01*
X0451506Y0401895D01*
X0451391Y0401738D01*
X0451272Y0401584D01*
X0451149Y0401433D01*
X0451023Y0401284D01*
X0450893Y0401139D01*
X0450759Y0400997D01*
X0450622Y0400859D01*
X0450482Y0400724D01*
X0450339Y0400592D01*
X0450192Y0400464D01*
X0450042Y0400339D01*
X0449889Y0400218D01*
X0449734Y0400101D01*
X0449575Y0399987D01*
X0449414Y0399878D01*
X0449250Y0399773D01*
X0449084Y0399671D01*
X0448915Y0399574D01*
X0448744Y0399480D01*
X0448571Y0399391D01*
X0448396Y0399306D01*
X0448218Y0399226D01*
X0448039Y0399150D01*
X0447858Y0399078D01*
X0447675Y0399010D01*
X0447491Y0398948D01*
X0447305Y0398889D01*
X0447118Y0398835D01*
X0446929Y0398786D01*
X0446739Y0398741D01*
X0446549Y0398701D01*
X0446357Y0398666D01*
X0446165Y0398635D01*
X0445972Y0398609D01*
X0445778Y0398588D01*
X0445584Y0398571D01*
X0445390Y0398559D01*
X0445195Y0398552D01*
X0445000Y0398550D01*
X0360000Y0393050D02*
X0360195Y0393052D01*
X0360390Y0393059D01*
X0360584Y0393071D01*
X0360778Y0393088D01*
X0360972Y0393109D01*
X0361165Y0393135D01*
X0361357Y0393166D01*
X0361549Y0393201D01*
X0361739Y0393241D01*
X0361929Y0393286D01*
X0362118Y0393335D01*
X0362305Y0393389D01*
X0362491Y0393448D01*
X0362675Y0393510D01*
X0362858Y0393578D01*
X0363039Y0393650D01*
X0363218Y0393726D01*
X0363396Y0393806D01*
X0363571Y0393891D01*
X0363744Y0393980D01*
X0363915Y0394074D01*
X0364084Y0394171D01*
X0364250Y0394273D01*
X0364414Y0394378D01*
X0364575Y0394487D01*
X0364734Y0394601D01*
X0364889Y0394718D01*
X0365042Y0394839D01*
X0365192Y0394964D01*
X0365339Y0395092D01*
X0365482Y0395224D01*
X0365622Y0395359D01*
X0365759Y0395497D01*
X0365893Y0395639D01*
X0366023Y0395784D01*
X0366149Y0395933D01*
X0366272Y0396084D01*
X0366391Y0396238D01*
X0366506Y0396395D01*
X0366618Y0396555D01*
X0366725Y0396717D01*
X0366829Y0396882D01*
X0366928Y0397050D01*
X0367024Y0397220D01*
X0367115Y0397392D01*
X0367202Y0397566D01*
X0367284Y0397743D01*
X0367363Y0397921D01*
X0367437Y0398101D01*
X0367506Y0398283D01*
X0367572Y0398467D01*
X0367632Y0398652D01*
X0367688Y0398839D01*
X0367740Y0399027D01*
X0367787Y0399216D01*
X0367829Y0399406D01*
X0367867Y0399597D01*
X0367900Y0399789D01*
X0367928Y0399982D01*
X0367952Y0400175D01*
X0367971Y0400369D01*
X0367985Y0400563D01*
X0367995Y0400758D01*
X0367999Y0400953D01*
X0367999Y0401147D01*
X0367995Y0401342D01*
X0367985Y0401537D01*
X0367971Y0401731D01*
X0367952Y0401925D01*
X0367928Y0402118D01*
X0367900Y0402311D01*
X0367867Y0402503D01*
X0367829Y0402694D01*
X0367787Y0402884D01*
X0367740Y0403073D01*
X0367688Y0403261D01*
X0367632Y0403448D01*
X0367572Y0403633D01*
X0367506Y0403817D01*
X0367437Y0403999D01*
X0367363Y0404179D01*
X0367284Y0404357D01*
X0367202Y0404534D01*
X0367115Y0404708D01*
X0367024Y0404880D01*
X0366928Y0405050D01*
X0366829Y0405218D01*
X0366725Y0405383D01*
X0366618Y0405545D01*
X0366506Y0405705D01*
X0366391Y0405862D01*
X0366272Y0406016D01*
X0366149Y0406167D01*
X0366023Y0406316D01*
X0365893Y0406461D01*
X0365759Y0406603D01*
X0365622Y0406741D01*
X0365482Y0406876D01*
X0365339Y0407008D01*
X0365192Y0407136D01*
X0365042Y0407261D01*
X0364889Y0407382D01*
X0364734Y0407499D01*
X0364575Y0407613D01*
X0364414Y0407722D01*
X0364250Y0407827D01*
X0364084Y0407929D01*
X0363915Y0408026D01*
X0363744Y0408120D01*
X0363571Y0408209D01*
X0363396Y0408294D01*
X0363218Y0408374D01*
X0363039Y0408450D01*
X0362858Y0408522D01*
X0362675Y0408590D01*
X0362491Y0408652D01*
X0362305Y0408711D01*
X0362118Y0408765D01*
X0361929Y0408814D01*
X0361739Y0408859D01*
X0361549Y0408899D01*
X0361357Y0408934D01*
X0361165Y0408965D01*
X0360972Y0408991D01*
X0360778Y0409012D01*
X0360584Y0409029D01*
X0360390Y0409041D01*
X0360195Y0409048D01*
X0360000Y0409050D01*
X0340000Y0409050D01*
X0339805Y0409048D01*
X0339610Y0409041D01*
X0339416Y0409029D01*
X0339222Y0409012D01*
X0339028Y0408991D01*
X0338835Y0408965D01*
X0338643Y0408934D01*
X0338451Y0408899D01*
X0338261Y0408859D01*
X0338071Y0408814D01*
X0337882Y0408765D01*
X0337695Y0408711D01*
X0337509Y0408652D01*
X0337325Y0408590D01*
X0337142Y0408522D01*
X0336961Y0408450D01*
X0336782Y0408374D01*
X0336604Y0408294D01*
X0336429Y0408209D01*
X0336256Y0408120D01*
X0336085Y0408026D01*
X0335916Y0407929D01*
X0335750Y0407827D01*
X0335586Y0407722D01*
X0335425Y0407613D01*
X0335266Y0407499D01*
X0335111Y0407382D01*
X0334958Y0407261D01*
X0334808Y0407136D01*
X0334661Y0407008D01*
X0334518Y0406876D01*
X0334378Y0406741D01*
X0334241Y0406603D01*
X0334107Y0406461D01*
X0333977Y0406316D01*
X0333851Y0406167D01*
X0333728Y0406016D01*
X0333609Y0405862D01*
X0333494Y0405705D01*
X0333382Y0405545D01*
X0333275Y0405383D01*
X0333171Y0405218D01*
X0333072Y0405050D01*
X0332976Y0404880D01*
X0332885Y0404708D01*
X0332798Y0404534D01*
X0332716Y0404357D01*
X0332637Y0404179D01*
X0332563Y0403999D01*
X0332494Y0403817D01*
X0332428Y0403633D01*
X0332368Y0403448D01*
X0332312Y0403261D01*
X0332260Y0403073D01*
X0332213Y0402884D01*
X0332171Y0402694D01*
X0332133Y0402503D01*
X0332100Y0402311D01*
X0332072Y0402118D01*
X0332048Y0401925D01*
X0332029Y0401731D01*
X0332015Y0401537D01*
X0332005Y0401342D01*
X0332001Y0401147D01*
X0332001Y0400953D01*
X0332005Y0400758D01*
X0332015Y0400563D01*
X0332029Y0400369D01*
X0332048Y0400175D01*
X0332072Y0399982D01*
X0332100Y0399789D01*
X0332133Y0399597D01*
X0332171Y0399406D01*
X0332213Y0399216D01*
X0332260Y0399027D01*
X0332312Y0398839D01*
X0332368Y0398652D01*
X0332428Y0398467D01*
X0332494Y0398283D01*
X0332563Y0398101D01*
X0332637Y0397921D01*
X0332716Y0397743D01*
X0332798Y0397566D01*
X0332885Y0397392D01*
X0332976Y0397220D01*
X0333072Y0397050D01*
X0333171Y0396882D01*
X0333275Y0396717D01*
X0333382Y0396555D01*
X0333494Y0396395D01*
X0333609Y0396238D01*
X0333728Y0396084D01*
X0333851Y0395933D01*
X0333977Y0395784D01*
X0334107Y0395639D01*
X0334241Y0395497D01*
X0334378Y0395359D01*
X0334518Y0395224D01*
X0334661Y0395092D01*
X0334808Y0394964D01*
X0334958Y0394839D01*
X0335111Y0394718D01*
X0335266Y0394601D01*
X0335425Y0394487D01*
X0335586Y0394378D01*
X0335750Y0394273D01*
X0335916Y0394171D01*
X0336085Y0394074D01*
X0336256Y0393980D01*
X0336429Y0393891D01*
X0336604Y0393806D01*
X0336782Y0393726D01*
X0336961Y0393650D01*
X0337142Y0393578D01*
X0337325Y0393510D01*
X0337509Y0393448D01*
X0337695Y0393389D01*
X0337882Y0393335D01*
X0338071Y0393286D01*
X0338261Y0393241D01*
X0338451Y0393201D01*
X0338643Y0393166D01*
X0338835Y0393135D01*
X0339028Y0393109D01*
X0339222Y0393088D01*
X0339416Y0393071D01*
X0339610Y0393059D01*
X0339805Y0393052D01*
X0340000Y0393050D01*
X0360000Y0393050D01*
X0358500Y0391050D02*
X0354000Y0391050D01*
X0353998Y0390924D01*
X0353992Y0390799D01*
X0353982Y0390674D01*
X0353968Y0390549D01*
X0353951Y0390424D01*
X0353929Y0390300D01*
X0353904Y0390177D01*
X0353874Y0390055D01*
X0353841Y0389934D01*
X0353804Y0389814D01*
X0353764Y0389695D01*
X0353719Y0389578D01*
X0353671Y0389461D01*
X0353619Y0389347D01*
X0353564Y0389234D01*
X0353505Y0389123D01*
X0353443Y0389014D01*
X0353377Y0388907D01*
X0353308Y0388802D01*
X0353236Y0388699D01*
X0353161Y0388598D01*
X0353082Y0388500D01*
X0353000Y0388405D01*
X0352916Y0388312D01*
X0352828Y0388222D01*
X0352738Y0388134D01*
X0352645Y0388050D01*
X0352550Y0387968D01*
X0352452Y0387889D01*
X0352351Y0387814D01*
X0352248Y0387742D01*
X0352143Y0387673D01*
X0352036Y0387607D01*
X0351927Y0387545D01*
X0351816Y0387486D01*
X0351703Y0387431D01*
X0351589Y0387379D01*
X0351472Y0387331D01*
X0351355Y0387286D01*
X0351236Y0387246D01*
X0351116Y0387209D01*
X0350995Y0387176D01*
X0350873Y0387146D01*
X0350750Y0387121D01*
X0350626Y0387099D01*
X0350501Y0387082D01*
X0350376Y0387068D01*
X0350251Y0387058D01*
X0350126Y0387052D01*
X0350000Y0387050D01*
X0349874Y0387052D01*
X0349749Y0387058D01*
X0349624Y0387068D01*
X0349499Y0387082D01*
X0349374Y0387099D01*
X0349250Y0387121D01*
X0349127Y0387146D01*
X0349005Y0387176D01*
X0348884Y0387209D01*
X0348764Y0387246D01*
X0348645Y0387286D01*
X0348528Y0387331D01*
X0348411Y0387379D01*
X0348297Y0387431D01*
X0348184Y0387486D01*
X0348073Y0387545D01*
X0347964Y0387607D01*
X0347857Y0387673D01*
X0347752Y0387742D01*
X0347649Y0387814D01*
X0347548Y0387889D01*
X0347450Y0387968D01*
X0347355Y0388050D01*
X0347262Y0388134D01*
X0347172Y0388222D01*
X0347084Y0388312D01*
X0347000Y0388405D01*
X0346918Y0388500D01*
X0346839Y0388598D01*
X0346764Y0388699D01*
X0346692Y0388802D01*
X0346623Y0388907D01*
X0346557Y0389014D01*
X0346495Y0389123D01*
X0346436Y0389234D01*
X0346381Y0389347D01*
X0346329Y0389461D01*
X0346281Y0389578D01*
X0346236Y0389695D01*
X0346196Y0389814D01*
X0346159Y0389934D01*
X0346126Y0390055D01*
X0346096Y0390177D01*
X0346071Y0390300D01*
X0346049Y0390424D01*
X0346032Y0390549D01*
X0346018Y0390674D01*
X0346008Y0390799D01*
X0346002Y0390924D01*
X0346000Y0391050D01*
X0341500Y0391050D01*
X0341500Y0321050D01*
X0358500Y0321050D01*
X0358500Y0391050D01*
X0270000Y0311050D02*
X0250000Y0311050D01*
X0249805Y0311048D01*
X0249610Y0311041D01*
X0249416Y0311029D01*
X0249222Y0311012D01*
X0249028Y0310991D01*
X0248835Y0310965D01*
X0248643Y0310934D01*
X0248451Y0310899D01*
X0248261Y0310859D01*
X0248071Y0310814D01*
X0247882Y0310765D01*
X0247695Y0310711D01*
X0247509Y0310652D01*
X0247325Y0310590D01*
X0247142Y0310522D01*
X0246961Y0310450D01*
X0246782Y0310374D01*
X0246604Y0310294D01*
X0246429Y0310209D01*
X0246256Y0310120D01*
X0246085Y0310026D01*
X0245916Y0309929D01*
X0245750Y0309827D01*
X0245586Y0309722D01*
X0245425Y0309613D01*
X0245266Y0309499D01*
X0245111Y0309382D01*
X0244958Y0309261D01*
X0244808Y0309136D01*
X0244661Y0309008D01*
X0244518Y0308876D01*
X0244378Y0308741D01*
X0244241Y0308603D01*
X0244107Y0308461D01*
X0243977Y0308316D01*
X0243851Y0308167D01*
X0243728Y0308016D01*
X0243609Y0307862D01*
X0243494Y0307705D01*
X0243382Y0307545D01*
X0243275Y0307383D01*
X0243171Y0307218D01*
X0243072Y0307050D01*
X0242976Y0306880D01*
X0242885Y0306708D01*
X0242798Y0306534D01*
X0242716Y0306357D01*
X0242637Y0306179D01*
X0242563Y0305999D01*
X0242494Y0305817D01*
X0242428Y0305633D01*
X0242368Y0305448D01*
X0242312Y0305261D01*
X0242260Y0305073D01*
X0242213Y0304884D01*
X0242171Y0304694D01*
X0242133Y0304503D01*
X0242100Y0304311D01*
X0242072Y0304118D01*
X0242048Y0303925D01*
X0242029Y0303731D01*
X0242015Y0303537D01*
X0242005Y0303342D01*
X0242001Y0303147D01*
X0242001Y0302953D01*
X0242005Y0302758D01*
X0242015Y0302563D01*
X0242029Y0302369D01*
X0242048Y0302175D01*
X0242072Y0301982D01*
X0242100Y0301789D01*
X0242133Y0301597D01*
X0242171Y0301406D01*
X0242213Y0301216D01*
X0242260Y0301027D01*
X0242312Y0300839D01*
X0242368Y0300652D01*
X0242428Y0300467D01*
X0242494Y0300283D01*
X0242563Y0300101D01*
X0242637Y0299921D01*
X0242716Y0299743D01*
X0242798Y0299566D01*
X0242885Y0299392D01*
X0242976Y0299220D01*
X0243072Y0299050D01*
X0243171Y0298882D01*
X0243275Y0298717D01*
X0243382Y0298555D01*
X0243494Y0298395D01*
X0243609Y0298238D01*
X0243728Y0298084D01*
X0243851Y0297933D01*
X0243977Y0297784D01*
X0244107Y0297639D01*
X0244241Y0297497D01*
X0244378Y0297359D01*
X0244518Y0297224D01*
X0244661Y0297092D01*
X0244808Y0296964D01*
X0244958Y0296839D01*
X0245111Y0296718D01*
X0245266Y0296601D01*
X0245425Y0296487D01*
X0245586Y0296378D01*
X0245750Y0296273D01*
X0245916Y0296171D01*
X0246085Y0296074D01*
X0246256Y0295980D01*
X0246429Y0295891D01*
X0246604Y0295806D01*
X0246782Y0295726D01*
X0246961Y0295650D01*
X0247142Y0295578D01*
X0247325Y0295510D01*
X0247509Y0295448D01*
X0247695Y0295389D01*
X0247882Y0295335D01*
X0248071Y0295286D01*
X0248261Y0295241D01*
X0248451Y0295201D01*
X0248643Y0295166D01*
X0248835Y0295135D01*
X0249028Y0295109D01*
X0249222Y0295088D01*
X0249416Y0295071D01*
X0249610Y0295059D01*
X0249805Y0295052D01*
X0250000Y0295050D01*
X0270000Y0295050D01*
X0270195Y0295052D01*
X0270390Y0295059D01*
X0270584Y0295071D01*
X0270778Y0295088D01*
X0270972Y0295109D01*
X0271165Y0295135D01*
X0271357Y0295166D01*
X0271549Y0295201D01*
X0271739Y0295241D01*
X0271929Y0295286D01*
X0272118Y0295335D01*
X0272305Y0295389D01*
X0272491Y0295448D01*
X0272675Y0295510D01*
X0272858Y0295578D01*
X0273039Y0295650D01*
X0273218Y0295726D01*
X0273396Y0295806D01*
X0273571Y0295891D01*
X0273744Y0295980D01*
X0273915Y0296074D01*
X0274084Y0296171D01*
X0274250Y0296273D01*
X0274414Y0296378D01*
X0274575Y0296487D01*
X0274734Y0296601D01*
X0274889Y0296718D01*
X0275042Y0296839D01*
X0275192Y0296964D01*
X0275339Y0297092D01*
X0275482Y0297224D01*
X0275622Y0297359D01*
X0275759Y0297497D01*
X0275893Y0297639D01*
X0276023Y0297784D01*
X0276149Y0297933D01*
X0276272Y0298084D01*
X0276391Y0298238D01*
X0276506Y0298395D01*
X0276618Y0298555D01*
X0276725Y0298717D01*
X0276829Y0298882D01*
X0276928Y0299050D01*
X0277024Y0299220D01*
X0277115Y0299392D01*
X0277202Y0299566D01*
X0277284Y0299743D01*
X0277363Y0299921D01*
X0277437Y0300101D01*
X0277506Y0300283D01*
X0277572Y0300467D01*
X0277632Y0300652D01*
X0277688Y0300839D01*
X0277740Y0301027D01*
X0277787Y0301216D01*
X0277829Y0301406D01*
X0277867Y0301597D01*
X0277900Y0301789D01*
X0277928Y0301982D01*
X0277952Y0302175D01*
X0277971Y0302369D01*
X0277985Y0302563D01*
X0277995Y0302758D01*
X0277999Y0302953D01*
X0277999Y0303147D01*
X0277995Y0303342D01*
X0277985Y0303537D01*
X0277971Y0303731D01*
X0277952Y0303925D01*
X0277928Y0304118D01*
X0277900Y0304311D01*
X0277867Y0304503D01*
X0277829Y0304694D01*
X0277787Y0304884D01*
X0277740Y0305073D01*
X0277688Y0305261D01*
X0277632Y0305448D01*
X0277572Y0305633D01*
X0277506Y0305817D01*
X0277437Y0305999D01*
X0277363Y0306179D01*
X0277284Y0306357D01*
X0277202Y0306534D01*
X0277115Y0306708D01*
X0277024Y0306880D01*
X0276928Y0307050D01*
X0276829Y0307218D01*
X0276725Y0307383D01*
X0276618Y0307545D01*
X0276506Y0307705D01*
X0276391Y0307862D01*
X0276272Y0308016D01*
X0276149Y0308167D01*
X0276023Y0308316D01*
X0275893Y0308461D01*
X0275759Y0308603D01*
X0275622Y0308741D01*
X0275482Y0308876D01*
X0275339Y0309008D01*
X0275192Y0309136D01*
X0275042Y0309261D01*
X0274889Y0309382D01*
X0274734Y0309499D01*
X0274575Y0309613D01*
X0274414Y0309722D01*
X0274250Y0309827D01*
X0274084Y0309929D01*
X0273915Y0310026D01*
X0273744Y0310120D01*
X0273571Y0310209D01*
X0273396Y0310294D01*
X0273218Y0310374D01*
X0273039Y0310450D01*
X0272858Y0310522D01*
X0272675Y0310590D01*
X0272491Y0310652D01*
X0272305Y0310711D01*
X0272118Y0310765D01*
X0271929Y0310814D01*
X0271739Y0310859D01*
X0271549Y0310899D01*
X0271357Y0310934D01*
X0271165Y0310965D01*
X0270972Y0310991D01*
X0270778Y0311012D01*
X0270584Y0311029D01*
X0270390Y0311041D01*
X0270195Y0311048D01*
X0270000Y0311050D01*
X0335000Y0288050D02*
X0355000Y0288050D01*
X0355195Y0288048D01*
X0355390Y0288041D01*
X0355584Y0288029D01*
X0355778Y0288012D01*
X0355972Y0287991D01*
X0356165Y0287965D01*
X0356357Y0287934D01*
X0356549Y0287899D01*
X0356739Y0287859D01*
X0356929Y0287814D01*
X0357118Y0287765D01*
X0357305Y0287711D01*
X0357491Y0287652D01*
X0357675Y0287590D01*
X0357858Y0287522D01*
X0358039Y0287450D01*
X0358218Y0287374D01*
X0358396Y0287294D01*
X0358571Y0287209D01*
X0358744Y0287120D01*
X0358915Y0287026D01*
X0359084Y0286929D01*
X0359250Y0286827D01*
X0359414Y0286722D01*
X0359575Y0286613D01*
X0359734Y0286499D01*
X0359889Y0286382D01*
X0360042Y0286261D01*
X0360192Y0286136D01*
X0360339Y0286008D01*
X0360482Y0285876D01*
X0360622Y0285741D01*
X0360759Y0285603D01*
X0360893Y0285461D01*
X0361023Y0285316D01*
X0361149Y0285167D01*
X0361272Y0285016D01*
X0361391Y0284862D01*
X0361506Y0284705D01*
X0361618Y0284545D01*
X0361725Y0284383D01*
X0361829Y0284218D01*
X0361928Y0284050D01*
X0362024Y0283880D01*
X0362115Y0283708D01*
X0362202Y0283534D01*
X0362284Y0283357D01*
X0362363Y0283179D01*
X0362437Y0282999D01*
X0362506Y0282817D01*
X0362572Y0282633D01*
X0362632Y0282448D01*
X0362688Y0282261D01*
X0362740Y0282073D01*
X0362787Y0281884D01*
X0362829Y0281694D01*
X0362867Y0281503D01*
X0362900Y0281311D01*
X0362928Y0281118D01*
X0362952Y0280925D01*
X0362971Y0280731D01*
X0362985Y0280537D01*
X0362995Y0280342D01*
X0362999Y0280147D01*
X0362999Y0279953D01*
X0362995Y0279758D01*
X0362985Y0279563D01*
X0362971Y0279369D01*
X0362952Y0279175D01*
X0362928Y0278982D01*
X0362900Y0278789D01*
X0362867Y0278597D01*
X0362829Y0278406D01*
X0362787Y0278216D01*
X0362740Y0278027D01*
X0362688Y0277839D01*
X0362632Y0277652D01*
X0362572Y0277467D01*
X0362506Y0277283D01*
X0362437Y0277101D01*
X0362363Y0276921D01*
X0362284Y0276743D01*
X0362202Y0276566D01*
X0362115Y0276392D01*
X0362024Y0276220D01*
X0361928Y0276050D01*
X0361829Y0275882D01*
X0361725Y0275717D01*
X0361618Y0275555D01*
X0361506Y0275395D01*
X0361391Y0275238D01*
X0361272Y0275084D01*
X0361149Y0274933D01*
X0361023Y0274784D01*
X0360893Y0274639D01*
X0360759Y0274497D01*
X0360622Y0274359D01*
X0360482Y0274224D01*
X0360339Y0274092D01*
X0360192Y0273964D01*
X0360042Y0273839D01*
X0359889Y0273718D01*
X0359734Y0273601D01*
X0359575Y0273487D01*
X0359414Y0273378D01*
X0359250Y0273273D01*
X0359084Y0273171D01*
X0358915Y0273074D01*
X0358744Y0272980D01*
X0358571Y0272891D01*
X0358396Y0272806D01*
X0358218Y0272726D01*
X0358039Y0272650D01*
X0357858Y0272578D01*
X0357675Y0272510D01*
X0357491Y0272448D01*
X0357305Y0272389D01*
X0357118Y0272335D01*
X0356929Y0272286D01*
X0356739Y0272241D01*
X0356549Y0272201D01*
X0356357Y0272166D01*
X0356165Y0272135D01*
X0355972Y0272109D01*
X0355778Y0272088D01*
X0355584Y0272071D01*
X0355390Y0272059D01*
X0355195Y0272052D01*
X0355000Y0272050D01*
X0335000Y0272050D01*
X0334805Y0272052D01*
X0334610Y0272059D01*
X0334416Y0272071D01*
X0334222Y0272088D01*
X0334028Y0272109D01*
X0333835Y0272135D01*
X0333643Y0272166D01*
X0333451Y0272201D01*
X0333261Y0272241D01*
X0333071Y0272286D01*
X0332882Y0272335D01*
X0332695Y0272389D01*
X0332509Y0272448D01*
X0332325Y0272510D01*
X0332142Y0272578D01*
X0331961Y0272650D01*
X0331782Y0272726D01*
X0331604Y0272806D01*
X0331429Y0272891D01*
X0331256Y0272980D01*
X0331085Y0273074D01*
X0330916Y0273171D01*
X0330750Y0273273D01*
X0330586Y0273378D01*
X0330425Y0273487D01*
X0330266Y0273601D01*
X0330111Y0273718D01*
X0329958Y0273839D01*
X0329808Y0273964D01*
X0329661Y0274092D01*
X0329518Y0274224D01*
X0329378Y0274359D01*
X0329241Y0274497D01*
X0329107Y0274639D01*
X0328977Y0274784D01*
X0328851Y0274933D01*
X0328728Y0275084D01*
X0328609Y0275238D01*
X0328494Y0275395D01*
X0328382Y0275555D01*
X0328275Y0275717D01*
X0328171Y0275882D01*
X0328072Y0276050D01*
X0327976Y0276220D01*
X0327885Y0276392D01*
X0327798Y0276566D01*
X0327716Y0276743D01*
X0327637Y0276921D01*
X0327563Y0277101D01*
X0327494Y0277283D01*
X0327428Y0277467D01*
X0327368Y0277652D01*
X0327312Y0277839D01*
X0327260Y0278027D01*
X0327213Y0278216D01*
X0327171Y0278406D01*
X0327133Y0278597D01*
X0327100Y0278789D01*
X0327072Y0278982D01*
X0327048Y0279175D01*
X0327029Y0279369D01*
X0327015Y0279563D01*
X0327005Y0279758D01*
X0327001Y0279953D01*
X0327001Y0280147D01*
X0327005Y0280342D01*
X0327015Y0280537D01*
X0327029Y0280731D01*
X0327048Y0280925D01*
X0327072Y0281118D01*
X0327100Y0281311D01*
X0327133Y0281503D01*
X0327171Y0281694D01*
X0327213Y0281884D01*
X0327260Y0282073D01*
X0327312Y0282261D01*
X0327368Y0282448D01*
X0327428Y0282633D01*
X0327494Y0282817D01*
X0327563Y0282999D01*
X0327637Y0283179D01*
X0327716Y0283357D01*
X0327798Y0283534D01*
X0327885Y0283708D01*
X0327976Y0283880D01*
X0328072Y0284050D01*
X0328171Y0284218D01*
X0328275Y0284383D01*
X0328382Y0284545D01*
X0328494Y0284705D01*
X0328609Y0284862D01*
X0328728Y0285016D01*
X0328851Y0285167D01*
X0328977Y0285316D01*
X0329107Y0285461D01*
X0329241Y0285603D01*
X0329378Y0285741D01*
X0329518Y0285876D01*
X0329661Y0286008D01*
X0329808Y0286136D01*
X0329958Y0286261D01*
X0330111Y0286382D01*
X0330266Y0286499D01*
X0330425Y0286613D01*
X0330586Y0286722D01*
X0330750Y0286827D01*
X0330916Y0286929D01*
X0331085Y0287026D01*
X0331256Y0287120D01*
X0331429Y0287209D01*
X0331604Y0287294D01*
X0331782Y0287374D01*
X0331961Y0287450D01*
X0332142Y0287522D01*
X0332325Y0287590D01*
X0332509Y0287652D01*
X0332695Y0287711D01*
X0332882Y0287765D01*
X0333071Y0287814D01*
X0333261Y0287859D01*
X0333451Y0287899D01*
X0333643Y0287934D01*
X0333835Y0287965D01*
X0334028Y0287991D01*
X0334222Y0288012D01*
X0334416Y0288029D01*
X0334610Y0288041D01*
X0334805Y0288048D01*
X0335000Y0288050D01*
X0425000Y0283850D02*
X0445000Y0283850D01*
X0445195Y0283848D01*
X0445390Y0283841D01*
X0445584Y0283829D01*
X0445778Y0283812D01*
X0445972Y0283791D01*
X0446165Y0283765D01*
X0446357Y0283734D01*
X0446549Y0283699D01*
X0446739Y0283659D01*
X0446929Y0283614D01*
X0447118Y0283565D01*
X0447305Y0283511D01*
X0447491Y0283452D01*
X0447675Y0283390D01*
X0447858Y0283322D01*
X0448039Y0283250D01*
X0448218Y0283174D01*
X0448396Y0283094D01*
X0448571Y0283009D01*
X0448744Y0282920D01*
X0448915Y0282826D01*
X0449084Y0282729D01*
X0449250Y0282627D01*
X0449414Y0282522D01*
X0449575Y0282413D01*
X0449734Y0282299D01*
X0449889Y0282182D01*
X0450042Y0282061D01*
X0450192Y0281936D01*
X0450339Y0281808D01*
X0450482Y0281676D01*
X0450622Y0281541D01*
X0450759Y0281403D01*
X0450893Y0281261D01*
X0451023Y0281116D01*
X0451149Y0280967D01*
X0451272Y0280816D01*
X0451391Y0280662D01*
X0451506Y0280505D01*
X0451618Y0280345D01*
X0451725Y0280183D01*
X0451829Y0280018D01*
X0451928Y0279850D01*
X0452024Y0279680D01*
X0452115Y0279508D01*
X0452202Y0279334D01*
X0452284Y0279157D01*
X0452363Y0278979D01*
X0452437Y0278799D01*
X0452506Y0278617D01*
X0452572Y0278433D01*
X0452632Y0278248D01*
X0452688Y0278061D01*
X0452740Y0277873D01*
X0452787Y0277684D01*
X0452829Y0277494D01*
X0452867Y0277303D01*
X0452900Y0277111D01*
X0452928Y0276918D01*
X0452952Y0276725D01*
X0452971Y0276531D01*
X0452985Y0276337D01*
X0452995Y0276142D01*
X0452999Y0275947D01*
X0452999Y0275753D01*
X0452995Y0275558D01*
X0452985Y0275363D01*
X0452971Y0275169D01*
X0452952Y0274975D01*
X0452928Y0274782D01*
X0452900Y0274589D01*
X0452867Y0274397D01*
X0452829Y0274206D01*
X0452787Y0274016D01*
X0452740Y0273827D01*
X0452688Y0273639D01*
X0452632Y0273452D01*
X0452572Y0273267D01*
X0452506Y0273083D01*
X0452437Y0272901D01*
X0452363Y0272721D01*
X0452284Y0272543D01*
X0452202Y0272366D01*
X0452115Y0272192D01*
X0452024Y0272020D01*
X0451928Y0271850D01*
X0451829Y0271682D01*
X0451725Y0271517D01*
X0451618Y0271355D01*
X0451506Y0271195D01*
X0451391Y0271038D01*
X0451272Y0270884D01*
X0451149Y0270733D01*
X0451023Y0270584D01*
X0450893Y0270439D01*
X0450759Y0270297D01*
X0450622Y0270159D01*
X0450482Y0270024D01*
X0450339Y0269892D01*
X0450192Y0269764D01*
X0450042Y0269639D01*
X0449889Y0269518D01*
X0449734Y0269401D01*
X0449575Y0269287D01*
X0449414Y0269178D01*
X0449250Y0269073D01*
X0449084Y0268971D01*
X0448915Y0268874D01*
X0448744Y0268780D01*
X0448571Y0268691D01*
X0448396Y0268606D01*
X0448218Y0268526D01*
X0448039Y0268450D01*
X0447858Y0268378D01*
X0447675Y0268310D01*
X0447491Y0268248D01*
X0447305Y0268189D01*
X0447118Y0268135D01*
X0446929Y0268086D01*
X0446739Y0268041D01*
X0446549Y0268001D01*
X0446357Y0267966D01*
X0446165Y0267935D01*
X0445972Y0267909D01*
X0445778Y0267888D01*
X0445584Y0267871D01*
X0445390Y0267859D01*
X0445195Y0267852D01*
X0445000Y0267850D01*
X0425000Y0267850D01*
X0424805Y0267852D01*
X0424610Y0267859D01*
X0424416Y0267871D01*
X0424222Y0267888D01*
X0424028Y0267909D01*
X0423835Y0267935D01*
X0423643Y0267966D01*
X0423451Y0268001D01*
X0423261Y0268041D01*
X0423071Y0268086D01*
X0422882Y0268135D01*
X0422695Y0268189D01*
X0422509Y0268248D01*
X0422325Y0268310D01*
X0422142Y0268378D01*
X0421961Y0268450D01*
X0421782Y0268526D01*
X0421604Y0268606D01*
X0421429Y0268691D01*
X0421256Y0268780D01*
X0421085Y0268874D01*
X0420916Y0268971D01*
X0420750Y0269073D01*
X0420586Y0269178D01*
X0420425Y0269287D01*
X0420266Y0269401D01*
X0420111Y0269518D01*
X0419958Y0269639D01*
X0419808Y0269764D01*
X0419661Y0269892D01*
X0419518Y0270024D01*
X0419378Y0270159D01*
X0419241Y0270297D01*
X0419107Y0270439D01*
X0418977Y0270584D01*
X0418851Y0270733D01*
X0418728Y0270884D01*
X0418609Y0271038D01*
X0418494Y0271195D01*
X0418382Y0271355D01*
X0418275Y0271517D01*
X0418171Y0271682D01*
X0418072Y0271850D01*
X0417976Y0272020D01*
X0417885Y0272192D01*
X0417798Y0272366D01*
X0417716Y0272543D01*
X0417637Y0272721D01*
X0417563Y0272901D01*
X0417494Y0273083D01*
X0417428Y0273267D01*
X0417368Y0273452D01*
X0417312Y0273639D01*
X0417260Y0273827D01*
X0417213Y0274016D01*
X0417171Y0274206D01*
X0417133Y0274397D01*
X0417100Y0274589D01*
X0417072Y0274782D01*
X0417048Y0274975D01*
X0417029Y0275169D01*
X0417015Y0275363D01*
X0417005Y0275558D01*
X0417001Y0275753D01*
X0417001Y0275947D01*
X0417005Y0276142D01*
X0417015Y0276337D01*
X0417029Y0276531D01*
X0417048Y0276725D01*
X0417072Y0276918D01*
X0417100Y0277111D01*
X0417133Y0277303D01*
X0417171Y0277494D01*
X0417213Y0277684D01*
X0417260Y0277873D01*
X0417312Y0278061D01*
X0417368Y0278248D01*
X0417428Y0278433D01*
X0417494Y0278617D01*
X0417563Y0278799D01*
X0417637Y0278979D01*
X0417716Y0279157D01*
X0417798Y0279334D01*
X0417885Y0279508D01*
X0417976Y0279680D01*
X0418072Y0279850D01*
X0418171Y0280018D01*
X0418275Y0280183D01*
X0418382Y0280345D01*
X0418494Y0280505D01*
X0418609Y0280662D01*
X0418728Y0280816D01*
X0418851Y0280967D01*
X0418977Y0281116D01*
X0419107Y0281261D01*
X0419241Y0281403D01*
X0419378Y0281541D01*
X0419518Y0281676D01*
X0419661Y0281808D01*
X0419808Y0281936D01*
X0419958Y0282061D01*
X0420111Y0282182D01*
X0420266Y0282299D01*
X0420425Y0282413D01*
X0420586Y0282522D01*
X0420750Y0282627D01*
X0420916Y0282729D01*
X0421085Y0282826D01*
X0421256Y0282920D01*
X0421429Y0283009D01*
X0421604Y0283094D01*
X0421782Y0283174D01*
X0421961Y0283250D01*
X0422142Y0283322D01*
X0422325Y0283390D01*
X0422509Y0283452D01*
X0422695Y0283511D01*
X0422882Y0283565D01*
X0423071Y0283614D01*
X0423261Y0283659D01*
X0423451Y0283699D01*
X0423643Y0283734D01*
X0423835Y0283765D01*
X0424028Y0283791D01*
X0424222Y0283812D01*
X0424416Y0283829D01*
X0424610Y0283841D01*
X0424805Y0283848D01*
X0425000Y0283850D01*
X0180000Y0294550D02*
X0160000Y0294550D01*
X0159805Y0294552D01*
X0159610Y0294559D01*
X0159416Y0294571D01*
X0159222Y0294588D01*
X0159028Y0294609D01*
X0158835Y0294635D01*
X0158643Y0294666D01*
X0158451Y0294701D01*
X0158261Y0294741D01*
X0158071Y0294786D01*
X0157882Y0294835D01*
X0157695Y0294889D01*
X0157509Y0294948D01*
X0157325Y0295010D01*
X0157142Y0295078D01*
X0156961Y0295150D01*
X0156782Y0295226D01*
X0156604Y0295306D01*
X0156429Y0295391D01*
X0156256Y0295480D01*
X0156085Y0295574D01*
X0155916Y0295671D01*
X0155750Y0295773D01*
X0155586Y0295878D01*
X0155425Y0295987D01*
X0155266Y0296101D01*
X0155111Y0296218D01*
X0154958Y0296339D01*
X0154808Y0296464D01*
X0154661Y0296592D01*
X0154518Y0296724D01*
X0154378Y0296859D01*
X0154241Y0296997D01*
X0154107Y0297139D01*
X0153977Y0297284D01*
X0153851Y0297433D01*
X0153728Y0297584D01*
X0153609Y0297738D01*
X0153494Y0297895D01*
X0153382Y0298055D01*
X0153275Y0298217D01*
X0153171Y0298382D01*
X0153072Y0298550D01*
X0152976Y0298720D01*
X0152885Y0298892D01*
X0152798Y0299066D01*
X0152716Y0299243D01*
X0152637Y0299421D01*
X0152563Y0299601D01*
X0152494Y0299783D01*
X0152428Y0299967D01*
X0152368Y0300152D01*
X0152312Y0300339D01*
X0152260Y0300527D01*
X0152213Y0300716D01*
X0152171Y0300906D01*
X0152133Y0301097D01*
X0152100Y0301289D01*
X0152072Y0301482D01*
X0152048Y0301675D01*
X0152029Y0301869D01*
X0152015Y0302063D01*
X0152005Y0302258D01*
X0152001Y0302453D01*
X0152001Y0302647D01*
X0152005Y0302842D01*
X0152015Y0303037D01*
X0152029Y0303231D01*
X0152048Y0303425D01*
X0152072Y0303618D01*
X0152100Y0303811D01*
X0152133Y0304003D01*
X0152171Y0304194D01*
X0152213Y0304384D01*
X0152260Y0304573D01*
X0152312Y0304761D01*
X0152368Y0304948D01*
X0152428Y0305133D01*
X0152494Y0305317D01*
X0152563Y0305499D01*
X0152637Y0305679D01*
X0152716Y0305857D01*
X0152798Y0306034D01*
X0152885Y0306208D01*
X0152976Y0306380D01*
X0153072Y0306550D01*
X0153171Y0306718D01*
X0153275Y0306883D01*
X0153382Y0307045D01*
X0153494Y0307205D01*
X0153609Y0307362D01*
X0153728Y0307516D01*
X0153851Y0307667D01*
X0153977Y0307816D01*
X0154107Y0307961D01*
X0154241Y0308103D01*
X0154378Y0308241D01*
X0154518Y0308376D01*
X0154661Y0308508D01*
X0154808Y0308636D01*
X0154958Y0308761D01*
X0155111Y0308882D01*
X0155266Y0308999D01*
X0155425Y0309113D01*
X0155586Y0309222D01*
X0155750Y0309327D01*
X0155916Y0309429D01*
X0156085Y0309526D01*
X0156256Y0309620D01*
X0156429Y0309709D01*
X0156604Y0309794D01*
X0156782Y0309874D01*
X0156961Y0309950D01*
X0157142Y0310022D01*
X0157325Y0310090D01*
X0157509Y0310152D01*
X0157695Y0310211D01*
X0157882Y0310265D01*
X0158071Y0310314D01*
X0158261Y0310359D01*
X0158451Y0310399D01*
X0158643Y0310434D01*
X0158835Y0310465D01*
X0159028Y0310491D01*
X0159222Y0310512D01*
X0159416Y0310529D01*
X0159610Y0310541D01*
X0159805Y0310548D01*
X0160000Y0310550D01*
X0180000Y0310550D01*
X0180195Y0310548D01*
X0180390Y0310541D01*
X0180584Y0310529D01*
X0180778Y0310512D01*
X0180972Y0310491D01*
X0181165Y0310465D01*
X0181357Y0310434D01*
X0181549Y0310399D01*
X0181739Y0310359D01*
X0181929Y0310314D01*
X0182118Y0310265D01*
X0182305Y0310211D01*
X0182491Y0310152D01*
X0182675Y0310090D01*
X0182858Y0310022D01*
X0183039Y0309950D01*
X0183218Y0309874D01*
X0183396Y0309794D01*
X0183571Y0309709D01*
X0183744Y0309620D01*
X0183915Y0309526D01*
X0184084Y0309429D01*
X0184250Y0309327D01*
X0184414Y0309222D01*
X0184575Y0309113D01*
X0184734Y0308999D01*
X0184889Y0308882D01*
X0185042Y0308761D01*
X0185192Y0308636D01*
X0185339Y0308508D01*
X0185482Y0308376D01*
X0185622Y0308241D01*
X0185759Y0308103D01*
X0185893Y0307961D01*
X0186023Y0307816D01*
X0186149Y0307667D01*
X0186272Y0307516D01*
X0186391Y0307362D01*
X0186506Y0307205D01*
X0186618Y0307045D01*
X0186725Y0306883D01*
X0186829Y0306718D01*
X0186928Y0306550D01*
X0187024Y0306380D01*
X0187115Y0306208D01*
X0187202Y0306034D01*
X0187284Y0305857D01*
X0187363Y0305679D01*
X0187437Y0305499D01*
X0187506Y0305317D01*
X0187572Y0305133D01*
X0187632Y0304948D01*
X0187688Y0304761D01*
X0187740Y0304573D01*
X0187787Y0304384D01*
X0187829Y0304194D01*
X0187867Y0304003D01*
X0187900Y0303811D01*
X0187928Y0303618D01*
X0187952Y0303425D01*
X0187971Y0303231D01*
X0187985Y0303037D01*
X0187995Y0302842D01*
X0187999Y0302647D01*
X0187999Y0302453D01*
X0187995Y0302258D01*
X0187985Y0302063D01*
X0187971Y0301869D01*
X0187952Y0301675D01*
X0187928Y0301482D01*
X0187900Y0301289D01*
X0187867Y0301097D01*
X0187829Y0300906D01*
X0187787Y0300716D01*
X0187740Y0300527D01*
X0187688Y0300339D01*
X0187632Y0300152D01*
X0187572Y0299967D01*
X0187506Y0299783D01*
X0187437Y0299601D01*
X0187363Y0299421D01*
X0187284Y0299243D01*
X0187202Y0299066D01*
X0187115Y0298892D01*
X0187024Y0298720D01*
X0186928Y0298550D01*
X0186829Y0298382D01*
X0186725Y0298217D01*
X0186618Y0298055D01*
X0186506Y0297895D01*
X0186391Y0297738D01*
X0186272Y0297584D01*
X0186149Y0297433D01*
X0186023Y0297284D01*
X0185893Y0297139D01*
X0185759Y0296997D01*
X0185622Y0296859D01*
X0185482Y0296724D01*
X0185339Y0296592D01*
X0185192Y0296464D01*
X0185042Y0296339D01*
X0184889Y0296218D01*
X0184734Y0296101D01*
X0184575Y0295987D01*
X0184414Y0295878D01*
X0184250Y0295773D01*
X0184084Y0295671D01*
X0183915Y0295574D01*
X0183744Y0295480D01*
X0183571Y0295391D01*
X0183396Y0295306D01*
X0183218Y0295226D01*
X0183039Y0295150D01*
X0182858Y0295078D01*
X0182675Y0295010D01*
X0182491Y0294948D01*
X0182305Y0294889D01*
X0182118Y0294835D01*
X0181929Y0294786D01*
X0181739Y0294741D01*
X0181549Y0294701D01*
X0181357Y0294666D01*
X0181165Y0294635D01*
X0180972Y0294609D01*
X0180778Y0294588D01*
X0180584Y0294571D01*
X0180390Y0294559D01*
X0180195Y0294552D01*
X0180000Y0294550D01*
D12*
X0192402Y0307584D02*
X0193536Y0306450D01*
X0195805Y0306450D01*
X0196939Y0307584D01*
X0199400Y0307584D02*
X0200534Y0306450D01*
X0202803Y0306450D01*
X0203937Y0307584D01*
X0203937Y0309853D01*
X0202803Y0310987D01*
X0201669Y0310987D01*
X0199400Y0309853D01*
X0199400Y0313256D01*
X0203937Y0313256D01*
X0196939Y0312122D02*
X0195805Y0313256D01*
X0193536Y0313256D01*
X0192402Y0312122D01*
X0192402Y0307584D01*
X0198400Y0271356D02*
X0198400Y0265684D01*
X0199534Y0264550D01*
X0201803Y0264550D01*
X0202937Y0265684D01*
X0202937Y0271356D01*
X0205398Y0267953D02*
X0209935Y0267953D01*
X0208801Y0271356D02*
X0205398Y0267953D01*
X0208801Y0264550D02*
X0208801Y0271356D01*
X0282402Y0311084D02*
X0283536Y0309950D01*
X0285805Y0309950D01*
X0286939Y0311084D01*
X0289400Y0311084D02*
X0290534Y0309950D01*
X0292803Y0309950D01*
X0293937Y0311084D01*
X0293937Y0315622D01*
X0292803Y0316756D01*
X0290534Y0316756D01*
X0289400Y0315622D01*
X0289400Y0314487D01*
X0290534Y0313353D01*
X0293937Y0313353D01*
X0286939Y0315622D02*
X0285805Y0316756D01*
X0283536Y0316756D01*
X0282402Y0315622D01*
X0282402Y0311084D01*
X0289400Y0268356D02*
X0289400Y0262684D01*
X0290534Y0261550D01*
X0292803Y0261550D01*
X0293937Y0262684D01*
X0293937Y0268356D01*
X0296398Y0267222D02*
X0297532Y0268356D01*
X0299801Y0268356D01*
X0300935Y0267222D01*
X0300935Y0266087D01*
X0299801Y0264953D01*
X0300935Y0263819D01*
X0300935Y0262684D01*
X0299801Y0261550D01*
X0297532Y0261550D01*
X0296398Y0262684D01*
X0298667Y0264953D02*
X0299801Y0264953D01*
X0368402Y0284584D02*
X0369536Y0283450D01*
X0371805Y0283450D01*
X0372939Y0284584D01*
X0375400Y0284584D02*
X0379937Y0289122D01*
X0379937Y0290256D01*
X0375400Y0290256D01*
X0372939Y0289122D02*
X0371805Y0290256D01*
X0369536Y0290256D01*
X0368402Y0289122D01*
X0368402Y0284584D01*
X0375400Y0284584D02*
X0375400Y0283450D01*
X0374900Y0256756D02*
X0374900Y0251084D01*
X0376034Y0249950D01*
X0378303Y0249950D01*
X0379437Y0251084D01*
X0379437Y0256756D01*
X0381898Y0253353D02*
X0381898Y0251084D01*
X0383032Y0249950D01*
X0385301Y0249950D01*
X0386435Y0251084D01*
X0386435Y0252219D01*
X0385301Y0253353D01*
X0381898Y0253353D01*
X0384167Y0255622D01*
X0386435Y0256756D01*
X0458402Y0279384D02*
X0459536Y0278250D01*
X0461805Y0278250D01*
X0462939Y0279384D01*
X0465400Y0279384D02*
X0466534Y0278250D01*
X0468803Y0278250D01*
X0469937Y0279384D01*
X0469937Y0280519D01*
X0468803Y0281653D01*
X0465400Y0281653D01*
X0465400Y0279384D01*
X0465400Y0281653D02*
X0467669Y0283922D01*
X0469937Y0285056D01*
X0462939Y0283922D02*
X0461805Y0285056D01*
X0459536Y0285056D01*
X0458402Y0283922D01*
X0458402Y0279384D01*
X0498402Y0261122D02*
X0498402Y0256584D01*
X0499536Y0255450D01*
X0501805Y0255450D01*
X0502939Y0256584D01*
X0505400Y0258853D02*
X0509937Y0258853D01*
X0508803Y0262256D02*
X0505400Y0258853D01*
X0502939Y0261122D02*
X0501805Y0262256D01*
X0499536Y0262256D01*
X0498402Y0261122D01*
X0508803Y0262256D02*
X0508803Y0255450D01*
X0535900Y0257450D02*
X0535900Y0264256D01*
X0539303Y0264256D01*
X0540437Y0263122D01*
X0540437Y0260853D01*
X0539303Y0259719D01*
X0535900Y0259719D01*
X0538169Y0259719D02*
X0540437Y0257450D01*
X0542898Y0258584D02*
X0544032Y0257450D01*
X0546301Y0257450D01*
X0547435Y0258584D01*
X0547435Y0260853D01*
X0546301Y0261987D01*
X0545167Y0261987D01*
X0542898Y0260853D01*
X0542898Y0264256D01*
X0547435Y0264256D01*
X0547435Y0236756D02*
X0545167Y0235622D01*
X0542898Y0233353D01*
X0546301Y0233353D01*
X0547435Y0232219D01*
X0547435Y0231084D01*
X0546301Y0229950D01*
X0544032Y0229950D01*
X0542898Y0231084D01*
X0542898Y0233353D01*
X0540437Y0233353D02*
X0539303Y0232219D01*
X0535900Y0232219D01*
X0538169Y0232219D02*
X0540437Y0229950D01*
X0540437Y0233353D02*
X0540437Y0235622D01*
X0539303Y0236756D01*
X0535900Y0236756D01*
X0535900Y0229950D01*
X0508803Y0202256D02*
X0509937Y0201122D01*
X0509937Y0199987D01*
X0508803Y0198853D01*
X0509937Y0197719D01*
X0509937Y0196584D01*
X0508803Y0195450D01*
X0506534Y0195450D01*
X0505400Y0196584D01*
X0502939Y0196584D02*
X0501805Y0195450D01*
X0499536Y0195450D01*
X0498402Y0196584D01*
X0498402Y0201122D01*
X0499536Y0202256D01*
X0501805Y0202256D01*
X0502939Y0201122D01*
X0505400Y0201122D02*
X0506534Y0202256D01*
X0508803Y0202256D01*
X0508803Y0198853D02*
X0507669Y0198853D01*
X0535900Y0197756D02*
X0535900Y0190950D01*
X0535900Y0193219D02*
X0539303Y0193219D01*
X0540437Y0194353D01*
X0540437Y0196622D01*
X0539303Y0197756D01*
X0535900Y0197756D01*
X0538169Y0193219D02*
X0540437Y0190950D01*
X0542898Y0190950D02*
X0542898Y0192084D01*
X0547435Y0196622D01*
X0547435Y0197756D01*
X0542898Y0197756D01*
X0544032Y0167256D02*
X0546301Y0167256D01*
X0547435Y0166122D01*
X0547435Y0164987D01*
X0546301Y0163853D01*
X0544032Y0163853D01*
X0542898Y0164987D01*
X0542898Y0166122D01*
X0544032Y0167256D01*
X0544032Y0163853D02*
X0542898Y0162719D01*
X0542898Y0161584D01*
X0544032Y0160450D01*
X0546301Y0160450D01*
X0547435Y0161584D01*
X0547435Y0162719D01*
X0546301Y0163853D01*
X0540437Y0163853D02*
X0539303Y0162719D01*
X0535900Y0162719D01*
X0538169Y0162719D02*
X0540437Y0160450D01*
X0540437Y0163853D02*
X0540437Y0166122D01*
X0539303Y0167256D01*
X0535900Y0167256D01*
X0535900Y0160450D01*
X0476435Y0234950D02*
X0471898Y0234950D01*
X0476435Y0239487D01*
X0476435Y0240622D01*
X0475301Y0241756D01*
X0473032Y0241756D01*
X0471898Y0240622D01*
X0469437Y0241756D02*
X0469437Y0236084D01*
X0468303Y0234950D01*
X0466034Y0234950D01*
X0464900Y0236084D01*
X0464900Y0241756D01*
X0536400Y0304450D02*
X0536400Y0311256D01*
X0539803Y0311256D01*
X0540937Y0310122D01*
X0540937Y0307853D01*
X0539803Y0306719D01*
X0536400Y0306719D01*
X0538669Y0306719D02*
X0540937Y0304450D01*
X0543398Y0307853D02*
X0547935Y0307853D01*
X0546801Y0311256D02*
X0543398Y0307853D01*
X0546801Y0304450D02*
X0546801Y0311256D01*
X0546801Y0334450D02*
X0544532Y0334450D01*
X0543398Y0335584D01*
X0540937Y0334450D02*
X0538669Y0336719D01*
X0539803Y0336719D02*
X0536400Y0336719D01*
X0536400Y0334450D02*
X0536400Y0341256D01*
X0539803Y0341256D01*
X0540937Y0340122D01*
X0540937Y0337853D01*
X0539803Y0336719D01*
X0543398Y0340122D02*
X0544532Y0341256D01*
X0546801Y0341256D01*
X0547935Y0340122D01*
X0547935Y0338987D01*
X0546801Y0337853D01*
X0547935Y0336719D01*
X0547935Y0335584D01*
X0546801Y0334450D01*
X0546801Y0337853D02*
X0545667Y0337853D01*
X0509937Y0337487D02*
X0505400Y0332950D01*
X0509937Y0332950D01*
X0509937Y0337487D02*
X0509937Y0338622D01*
X0508803Y0339756D01*
X0506534Y0339756D01*
X0505400Y0338622D01*
X0502939Y0338622D02*
X0501805Y0339756D01*
X0499536Y0339756D01*
X0498402Y0338622D01*
X0498402Y0334084D01*
X0499536Y0332950D01*
X0501805Y0332950D01*
X0502939Y0334084D01*
X0476435Y0370950D02*
X0471898Y0370950D01*
X0474167Y0370950D02*
X0474167Y0377756D01*
X0471898Y0375487D01*
X0469437Y0377756D02*
X0469437Y0372084D01*
X0468303Y0370950D01*
X0466034Y0370950D01*
X0464900Y0372084D01*
X0464900Y0377756D01*
X0498402Y0400584D02*
X0499536Y0399450D01*
X0501805Y0399450D01*
X0502939Y0400584D01*
X0505400Y0399450D02*
X0509937Y0399450D01*
X0507669Y0399450D02*
X0507669Y0406256D01*
X0505400Y0403987D01*
X0502939Y0405122D02*
X0501805Y0406256D01*
X0499536Y0406256D01*
X0498402Y0405122D01*
X0498402Y0400584D01*
X0468937Y0411084D02*
X0467803Y0409950D01*
X0465534Y0409950D01*
X0464400Y0411084D01*
X0464400Y0412219D01*
X0465534Y0413353D01*
X0467803Y0413353D01*
X0468937Y0412219D01*
X0468937Y0411084D01*
X0467803Y0413353D02*
X0468937Y0414487D01*
X0468937Y0415622D01*
X0467803Y0416756D01*
X0465534Y0416756D01*
X0464400Y0415622D01*
X0464400Y0414487D01*
X0465534Y0413353D01*
X0461939Y0415622D02*
X0460805Y0416756D01*
X0458536Y0416756D01*
X0457402Y0415622D01*
X0457402Y0411084D01*
X0458536Y0409950D01*
X0460805Y0409950D01*
X0461939Y0411084D01*
X0391436Y0411122D02*
X0391436Y0406584D01*
X0390302Y0405450D01*
X0388033Y0405450D01*
X0386899Y0406584D01*
X0391436Y0411122D01*
X0390302Y0412256D01*
X0388033Y0412256D01*
X0386899Y0411122D01*
X0386899Y0406584D01*
X0384438Y0405450D02*
X0379901Y0405450D01*
X0382170Y0405450D02*
X0382170Y0412256D01*
X0379901Y0409987D01*
X0377440Y0411122D02*
X0376306Y0412256D01*
X0374037Y0412256D01*
X0372903Y0411122D01*
X0372903Y0406584D01*
X0374037Y0405450D01*
X0376306Y0405450D01*
X0377440Y0406584D01*
X0376900Y0375756D02*
X0376900Y0370084D01*
X0378034Y0368950D01*
X0380303Y0368950D01*
X0381437Y0370084D01*
X0381437Y0375756D01*
X0383898Y0375756D02*
X0383898Y0372353D01*
X0386167Y0373487D01*
X0387301Y0373487D01*
X0388435Y0372353D01*
X0388435Y0370084D01*
X0387301Y0368950D01*
X0385032Y0368950D01*
X0383898Y0370084D01*
X0383898Y0375756D02*
X0388435Y0375756D01*
X0536400Y0376719D02*
X0539803Y0376719D01*
X0540937Y0377853D01*
X0540937Y0380122D01*
X0539803Y0381256D01*
X0536400Y0381256D01*
X0536400Y0374450D01*
X0538669Y0376719D02*
X0540937Y0374450D01*
X0543398Y0374450D02*
X0547935Y0378987D01*
X0547935Y0380122D01*
X0546801Y0381256D01*
X0544532Y0381256D01*
X0543398Y0380122D01*
X0543398Y0374450D02*
X0547935Y0374450D01*
X0547935Y0405950D02*
X0543398Y0405950D01*
X0545667Y0405950D02*
X0545667Y0412756D01*
X0543398Y0410487D01*
X0540937Y0409353D02*
X0539803Y0408219D01*
X0536400Y0408219D01*
X0538669Y0408219D02*
X0540937Y0405950D01*
X0540937Y0409353D02*
X0540937Y0411622D01*
X0539803Y0412756D01*
X0536400Y0412756D01*
X0536400Y0405950D01*
D13*
X0037000Y0405050D02*
X0037000Y0406050D01*
X0037000Y0405050D02*
X0015000Y0405050D01*
X0005000Y0395050D01*
X0005000Y0057050D01*
X0015000Y0047050D01*
X0037000Y0047050D01*
X0037000Y0046050D01*
D14*
X0035963Y0047042D02*
X0035196Y0047809D01*
X0035196Y0049344D01*
X0035963Y0050111D01*
X0036731Y0050111D01*
X0039800Y0047042D01*
X0039800Y0050111D01*
X0039800Y0051646D02*
X0036731Y0054715D01*
X0035963Y0054715D01*
X0035196Y0053948D01*
X0035196Y0052413D01*
X0035963Y0051646D01*
X0039800Y0051646D02*
X0039800Y0054715D01*
X0039800Y0396646D02*
X0039800Y0399715D01*
X0039800Y0398181D02*
X0035196Y0398181D01*
X0036731Y0396646D01*
M02*
