G75*
%MOIN*%
%OFA0B0*%
%FSLAX25Y25*%
%IPPOS*%
%LPD*%
%AMOC8*
5,1,8,0,0,1.08239X$1,22.5*
%
%ADD10C,0.09400*%
%ADD11C,0.06000*%
%ADD12R,0.33300X0.08300*%
%ADD13C,0.10800*%
%ADD14C,0.05156*%
D10*
X0429000Y0221050D03*
X0469000Y0221050D03*
X0535000Y0380550D03*
X0545000Y0410550D03*
X0535000Y0430550D03*
X0575000Y0430550D03*
X0585000Y0410550D03*
X0575000Y0380550D03*
X0345000Y0422050D03*
X0305000Y0422050D03*
X0116000Y0401050D03*
X0084000Y0401050D03*
X0084000Y0361050D03*
X0116000Y0361050D03*
D11*
X0212400Y0362050D02*
X0217600Y0362050D01*
X0217600Y0372050D02*
X0212400Y0372050D01*
X0212400Y0382050D02*
X0217600Y0382050D01*
X0217600Y0392050D02*
X0212400Y0392050D01*
X0242400Y0392050D02*
X0247600Y0392050D01*
X0247600Y0382050D02*
X0242400Y0382050D01*
X0242400Y0372050D02*
X0247600Y0372050D01*
X0247600Y0362050D02*
X0242400Y0362050D01*
X0242400Y0352050D02*
X0247600Y0352050D01*
X0247600Y0342050D02*
X0242400Y0342050D01*
X0242400Y0332050D02*
X0247600Y0332050D01*
X0247600Y0322050D02*
X0242400Y0322050D01*
X0242400Y0312050D02*
X0247600Y0312050D01*
X0247600Y0302050D02*
X0242400Y0302050D01*
X0217600Y0302050D02*
X0212400Y0302050D01*
X0212400Y0312050D02*
X0217600Y0312050D01*
X0217600Y0322050D02*
X0212400Y0322050D01*
X0212400Y0332050D02*
X0217600Y0332050D01*
X0217600Y0342050D02*
X0212400Y0342050D01*
X0212400Y0352050D02*
X0217600Y0352050D01*
X0218000Y0255250D02*
X0212800Y0255250D01*
X0212800Y0245250D02*
X0218000Y0245250D01*
X0218000Y0235250D02*
X0212800Y0235250D01*
X0212800Y0225250D02*
X0218000Y0225250D01*
X0218000Y0215250D02*
X0212800Y0215250D01*
X0212800Y0205250D02*
X0218000Y0205250D01*
X0218000Y0195250D02*
X0212800Y0195250D01*
X0212800Y0185250D02*
X0218000Y0185250D01*
X0242800Y0185250D02*
X0248000Y0185250D01*
X0248000Y0195250D02*
X0242800Y0195250D01*
X0242800Y0205250D02*
X0248000Y0205250D01*
X0248000Y0215250D02*
X0242800Y0215250D01*
X0242800Y0225250D02*
X0248000Y0225250D01*
X0248000Y0235250D02*
X0242800Y0235250D01*
X0242800Y0245250D02*
X0248000Y0245250D01*
X0248000Y0255250D02*
X0242800Y0255250D01*
X0335400Y0231050D02*
X0340600Y0231050D01*
X0340600Y0221050D02*
X0335400Y0221050D01*
X0335400Y0211050D02*
X0340600Y0211050D01*
X0340600Y0201050D02*
X0335400Y0201050D01*
X0365400Y0201050D02*
X0370600Y0201050D01*
X0370600Y0211050D02*
X0365400Y0211050D01*
X0365400Y0221050D02*
X0370600Y0221050D01*
X0370600Y0231050D02*
X0365400Y0231050D01*
X0436400Y0167050D02*
X0441600Y0167050D01*
X0441600Y0157050D02*
X0436400Y0157050D01*
X0436400Y0147050D02*
X0441600Y0147050D01*
X0441600Y0137050D02*
X0436400Y0137050D01*
X0436400Y0127050D02*
X0441600Y0127050D01*
X0441600Y0117050D02*
X0436400Y0117050D01*
X0436400Y0107050D02*
X0441600Y0107050D01*
X0441600Y0097050D02*
X0436400Y0097050D01*
X0466400Y0097050D02*
X0471600Y0097050D01*
X0471600Y0107050D02*
X0466400Y0107050D01*
X0466400Y0117050D02*
X0471600Y0117050D01*
X0471600Y0127050D02*
X0466400Y0127050D01*
X0466400Y0137050D02*
X0471600Y0137050D01*
X0471600Y0147050D02*
X0466400Y0147050D01*
X0466400Y0157050D02*
X0471600Y0157050D01*
X0471600Y0167050D02*
X0466400Y0167050D01*
X0247600Y0147050D02*
X0242400Y0147050D01*
X0242400Y0137050D02*
X0247600Y0137050D01*
X0247600Y0127050D02*
X0242400Y0127050D01*
X0242400Y0117050D02*
X0247600Y0117050D01*
X0247600Y0107050D02*
X0242400Y0107050D01*
X0242400Y0097050D02*
X0247600Y0097050D01*
X0247600Y0087050D02*
X0242400Y0087050D01*
X0242400Y0077050D02*
X0247600Y0077050D01*
X0247600Y0067050D02*
X0242400Y0067050D01*
X0242400Y0057050D02*
X0247600Y0057050D01*
X0217600Y0057050D02*
X0212400Y0057050D01*
X0212400Y0067050D02*
X0217600Y0067050D01*
X0217600Y0077050D02*
X0212400Y0077050D01*
X0212400Y0087050D02*
X0217600Y0087050D01*
X0217600Y0097050D02*
X0212400Y0097050D01*
X0212400Y0107050D02*
X0217600Y0107050D01*
X0217600Y0117050D02*
X0212400Y0117050D01*
X0212400Y0127050D02*
X0217600Y0127050D01*
X0217600Y0137050D02*
X0212400Y0137050D01*
X0212400Y0147050D02*
X0217600Y0147050D01*
X0437400Y0342050D02*
X0442600Y0342050D01*
X0442600Y0352050D02*
X0437400Y0352050D01*
X0437400Y0362050D02*
X0442600Y0362050D01*
X0442600Y0372050D02*
X0437400Y0372050D01*
X0437400Y0382050D02*
X0442600Y0382050D01*
X0442600Y0392050D02*
X0437400Y0392050D01*
X0437400Y0402050D02*
X0442600Y0402050D01*
X0442600Y0412050D02*
X0437400Y0412050D01*
X0467400Y0412050D02*
X0472600Y0412050D01*
X0472600Y0402050D02*
X0467400Y0402050D01*
X0467400Y0392050D02*
X0472600Y0392050D01*
X0472600Y0382050D02*
X0467400Y0382050D01*
X0467400Y0372050D02*
X0472600Y0372050D01*
X0472600Y0362050D02*
X0467400Y0362050D01*
X0467400Y0352050D02*
X0472600Y0352050D01*
X0472600Y0342050D02*
X0467400Y0342050D01*
D12*
X0024000Y0062250D03*
X0024000Y0077850D03*
X0024000Y0093450D03*
X0024000Y0109050D03*
X0024000Y0124650D03*
X0024000Y0140250D03*
X0024000Y0155850D03*
X0024000Y0171450D03*
X0024000Y0187050D03*
X0024000Y0202650D03*
X0024000Y0218250D03*
X0024000Y0233850D03*
X0024000Y0249450D03*
X0024000Y0265050D03*
X0024000Y0280650D03*
X0024000Y0296250D03*
X0024000Y0311850D03*
X0024000Y0327450D03*
X0024000Y0343050D03*
X0024000Y0358650D03*
X0024000Y0374250D03*
X0024000Y0389850D03*
D13*
X0220157Y0408050D03*
X0239843Y0408050D03*
X0239843Y0271050D03*
X0220157Y0271050D03*
X0305000Y0240893D03*
X0305000Y0221207D03*
X0318157Y0186050D03*
X0337843Y0186050D03*
X0405000Y0201507D03*
X0405000Y0221193D03*
X0387843Y0246050D03*
X0368157Y0246050D03*
X0239843Y0165850D03*
X0220157Y0165850D03*
X0612000Y0391207D03*
X0612000Y0410893D03*
D14*
X0175000Y0245250D03*
X0170000Y0235250D03*
X0120000Y0218250D03*
X0115000Y0233850D03*
X0110000Y0249450D03*
X0105000Y0265050D03*
X0100000Y0280650D03*
X0095000Y0296250D03*
X0057500Y0327050D03*
X0050000Y0343050D03*
X0050000Y0358650D03*
X0050000Y0374250D03*
X0067000Y0408050D03*
X0125000Y0202650D03*
X0130000Y0187050D03*
X0105000Y0155850D03*
X0105000Y0140250D03*
X0130000Y0149050D03*
X0085000Y0124650D03*
M02*
