G04 This is an RS-274x file exported by *
G04 gerbv version 2.6A *
G04 More information is available about gerbv at *
G04 http://gerbv.geda-project.org/ *
G04 --End of header info--*
%MOIN*%
%FSLAX34Y34*%
%IPPOS*%
G04 --Define apertures--*
%ADD10C,0.0940*%
%ADD11C,0.0600*%
%ADD12R,0.3330X0.0830*%
%ADD13C,0.1080*%
%ADD14C,0.0516*%
G04 --Start main section--*
G54D10*
G01X0042900Y0022105D03*
G01X0046900Y0022105D03*
G01X0053500Y0038055D03*
G01X0054500Y0041055D03*
G01X0053500Y0043055D03*
G01X0057500Y0043055D03*
G01X0058500Y0041055D03*
G01X0057500Y0038055D03*
G01X0034500Y0042205D03*
G01X0030500Y0042205D03*
G01X0011600Y0040105D03*
G01X0008400Y0040105D03*
G01X0008400Y0036105D03*
G01X0011600Y0036105D03*
G54D11*
G01X0021240Y0036205D02*
G01X0021760Y0036205D01*
G01X0021760Y0037205D02*
G01X0021240Y0037205D01*
G01X0021240Y0038205D02*
G01X0021760Y0038205D01*
G01X0021760Y0039205D02*
G01X0021240Y0039205D01*
G01X0024240Y0039205D02*
G01X0024760Y0039205D01*
G01X0024760Y0038205D02*
G01X0024240Y0038205D01*
G01X0024240Y0037205D02*
G01X0024760Y0037205D01*
G01X0024760Y0036205D02*
G01X0024240Y0036205D01*
G01X0024240Y0035205D02*
G01X0024760Y0035205D01*
G01X0024760Y0034205D02*
G01X0024240Y0034205D01*
G01X0024240Y0033205D02*
G01X0024760Y0033205D01*
G01X0024760Y0032205D02*
G01X0024240Y0032205D01*
G01X0024240Y0031205D02*
G01X0024760Y0031205D01*
G01X0024760Y0030205D02*
G01X0024240Y0030205D01*
G01X0021760Y0030205D02*
G01X0021240Y0030205D01*
G01X0021240Y0031205D02*
G01X0021760Y0031205D01*
G01X0021760Y0032205D02*
G01X0021240Y0032205D01*
G01X0021240Y0033205D02*
G01X0021760Y0033205D01*
G01X0021760Y0034205D02*
G01X0021240Y0034205D01*
G01X0021240Y0035205D02*
G01X0021760Y0035205D01*
G01X0021760Y0025505D02*
G01X0021240Y0025505D01*
G01X0021240Y0024505D02*
G01X0021760Y0024505D01*
G01X0021760Y0023505D02*
G01X0021240Y0023505D01*
G01X0021240Y0022505D02*
G01X0021760Y0022505D01*
G01X0021760Y0021505D02*
G01X0021240Y0021505D01*
G01X0021240Y0020505D02*
G01X0021760Y0020505D01*
G01X0021760Y0019505D02*
G01X0021240Y0019505D01*
G01X0021240Y0018505D02*
G01X0021760Y0018505D01*
G01X0024240Y0018505D02*
G01X0024760Y0018505D01*
G01X0024760Y0019505D02*
G01X0024240Y0019505D01*
G01X0024240Y0020505D02*
G01X0024760Y0020505D01*
G01X0024760Y0021505D02*
G01X0024240Y0021505D01*
G01X0024240Y0022505D02*
G01X0024760Y0022505D01*
G01X0024760Y0023505D02*
G01X0024240Y0023505D01*
G01X0024240Y0024505D02*
G01X0024760Y0024505D01*
G01X0024760Y0025505D02*
G01X0024240Y0025505D01*
G01X0033540Y0023105D02*
G01X0034060Y0023105D01*
G01X0034060Y0022105D02*
G01X0033540Y0022105D01*
G01X0033540Y0021105D02*
G01X0034060Y0021105D01*
G01X0034060Y0020105D02*
G01X0033540Y0020105D01*
G01X0036540Y0020105D02*
G01X0037060Y0020105D01*
G01X0037060Y0021105D02*
G01X0036540Y0021105D01*
G01X0036540Y0022105D02*
G01X0037060Y0022105D01*
G01X0037060Y0023105D02*
G01X0036540Y0023105D01*
G01X0043640Y0016705D02*
G01X0044160Y0016705D01*
G01X0044160Y0015705D02*
G01X0043640Y0015705D01*
G01X0043640Y0014705D02*
G01X0044160Y0014705D01*
G01X0044160Y0013705D02*
G01X0043640Y0013705D01*
G01X0043640Y0012705D02*
G01X0044160Y0012705D01*
G01X0044160Y0011705D02*
G01X0043640Y0011705D01*
G01X0043640Y0010705D02*
G01X0044160Y0010705D01*
G01X0044160Y0009705D02*
G01X0043640Y0009705D01*
G01X0046640Y0009705D02*
G01X0047160Y0009705D01*
G01X0047160Y0010705D02*
G01X0046640Y0010705D01*
G01X0046640Y0011705D02*
G01X0047160Y0011705D01*
G01X0047160Y0012705D02*
G01X0046640Y0012705D01*
G01X0046640Y0013705D02*
G01X0047160Y0013705D01*
G01X0047160Y0014705D02*
G01X0046640Y0014705D01*
G01X0046640Y0015705D02*
G01X0047160Y0015705D01*
G01X0047160Y0016705D02*
G01X0046640Y0016705D01*
G01X0024760Y0014705D02*
G01X0024240Y0014705D01*
G01X0024240Y0013705D02*
G01X0024760Y0013705D01*
G01X0024760Y0012705D02*
G01X0024240Y0012705D01*
G01X0024240Y0011705D02*
G01X0024760Y0011705D01*
G01X0024760Y0010705D02*
G01X0024240Y0010705D01*
G01X0024240Y0009705D02*
G01X0024760Y0009705D01*
G01X0024760Y0008705D02*
G01X0024240Y0008705D01*
G01X0024240Y0007705D02*
G01X0024760Y0007705D01*
G01X0024760Y0006705D02*
G01X0024240Y0006705D01*
G01X0024240Y0005705D02*
G01X0024760Y0005705D01*
G01X0021760Y0005705D02*
G01X0021240Y0005705D01*
G01X0021240Y0006705D02*
G01X0021760Y0006705D01*
G01X0021760Y0007705D02*
G01X0021240Y0007705D01*
G01X0021240Y0008705D02*
G01X0021760Y0008705D01*
G01X0021760Y0009705D02*
G01X0021240Y0009705D01*
G01X0021240Y0010705D02*
G01X0021760Y0010705D01*
G01X0021760Y0011705D02*
G01X0021240Y0011705D01*
G01X0021240Y0012705D02*
G01X0021760Y0012705D01*
G01X0021760Y0013705D02*
G01X0021240Y0013705D01*
G01X0021240Y0014705D02*
G01X0021760Y0014705D01*
G01X0043740Y0034205D02*
G01X0044260Y0034205D01*
G01X0044260Y0035205D02*
G01X0043740Y0035205D01*
G01X0043740Y0036205D02*
G01X0044260Y0036205D01*
G01X0044260Y0037205D02*
G01X0043740Y0037205D01*
G01X0043740Y0038205D02*
G01X0044260Y0038205D01*
G01X0044260Y0039205D02*
G01X0043740Y0039205D01*
G01X0043740Y0040205D02*
G01X0044260Y0040205D01*
G01X0044260Y0041205D02*
G01X0043740Y0041205D01*
G01X0046740Y0041205D02*
G01X0047260Y0041205D01*
G01X0047260Y0040205D02*
G01X0046740Y0040205D01*
G01X0046740Y0039205D02*
G01X0047260Y0039205D01*
G01X0047260Y0038205D02*
G01X0046740Y0038205D01*
G01X0046740Y0037205D02*
G01X0047260Y0037205D01*
G01X0047260Y0036205D02*
G01X0046740Y0036205D01*
G01X0046740Y0035205D02*
G01X0047260Y0035205D01*
G01X0047260Y0034205D02*
G01X0046740Y0034205D01*
G54D12*
G01X0002400Y0006225D03*
G01X0002400Y0007785D03*
G01X0002400Y0009345D03*
G01X0002400Y0010905D03*
G01X0002400Y0012465D03*
G01X0002400Y0014025D03*
G01X0002400Y0015585D03*
G01X0002400Y0017145D03*
G01X0002400Y0018705D03*
G01X0002400Y0020265D03*
G01X0002400Y0021825D03*
G01X0002400Y0023385D03*
G01X0002400Y0024945D03*
G01X0002400Y0026505D03*
G01X0002400Y0028065D03*
G01X0002400Y0029625D03*
G01X0002400Y0031185D03*
G01X0002400Y0032745D03*
G01X0002400Y0034305D03*
G01X0002400Y0035865D03*
G01X0002400Y0037425D03*
G01X0002400Y0038985D03*
G54D13*
G01X0022016Y0040805D03*
G01X0023984Y0040805D03*
G01X0023984Y0027105D03*
G01X0022016Y0027105D03*
G01X0030500Y0024089D03*
G01X0030500Y0022121D03*
G01X0031816Y0018605D03*
G01X0033784Y0018605D03*
G01X0040500Y0020151D03*
G01X0040500Y0022119D03*
G01X0038784Y0024605D03*
G01X0036816Y0024605D03*
G01X0023984Y0016585D03*
G01X0022016Y0016585D03*
G01X0061200Y0039121D03*
G01X0061200Y0041089D03*
G54D14*
G01X0017500Y0024505D03*
G01X0017000Y0023505D03*
G01X0012000Y0021825D03*
G01X0011500Y0023385D03*
G01X0011000Y0024945D03*
G01X0010500Y0026505D03*
G01X0010000Y0028065D03*
G01X0009500Y0029625D03*
G01X0005750Y0032705D03*
G01X0005000Y0034305D03*
G01X0005000Y0035865D03*
G01X0005000Y0037425D03*
G01X0006700Y0040805D03*
G01X0012500Y0020265D03*
G01X0013000Y0018705D03*
G01X0010500Y0015585D03*
G01X0010500Y0014025D03*
G01X0013000Y0014905D03*
G01X0008500Y0012465D03*
M02*
