G75*
%MOIN*%
%OFA0B0*%
%FSLAX25Y25*%
%IPPOS*%
%LPD*%
%AMOC8*
5,1,8,0,0,1.08239X$1,22.5*
%
%ADD10C,0.08600*%
%ADD11C,0.05200*%
%ADD12C,0.10000*%
%ADD13R,0.32500X0.07500*%
%ADD14C,0.01600*%
%ADD15C,0.04356*%
%ADD16C,0.01000*%
%ADD17C,0.03200*%
%ADD18C,0.05000*%
%ADD19C,0.04750*%
D10*
X0429000Y0221050D03*
X0469000Y0221050D03*
X0535000Y0380550D03*
X0545000Y0410550D03*
X0535000Y0430550D03*
X0575000Y0430550D03*
X0585000Y0410550D03*
X0575000Y0380550D03*
X0345000Y0422050D03*
X0305000Y0422050D03*
X0116000Y0401050D03*
X0084000Y0401050D03*
X0084000Y0361050D03*
X0116000Y0361050D03*
D11*
X0212400Y0362050D02*
X0217600Y0362050D01*
X0217600Y0372050D02*
X0212400Y0372050D01*
X0212400Y0382050D02*
X0217600Y0382050D01*
X0217600Y0392050D02*
X0212400Y0392050D01*
X0242400Y0392050D02*
X0247600Y0392050D01*
X0247600Y0382050D02*
X0242400Y0382050D01*
X0242400Y0372050D02*
X0247600Y0372050D01*
X0247600Y0362050D02*
X0242400Y0362050D01*
X0242400Y0352050D02*
X0247600Y0352050D01*
X0247600Y0342050D02*
X0242400Y0342050D01*
X0242400Y0332050D02*
X0247600Y0332050D01*
X0247600Y0322050D02*
X0242400Y0322050D01*
X0242400Y0312050D02*
X0247600Y0312050D01*
X0247600Y0302050D02*
X0242400Y0302050D01*
X0217600Y0302050D02*
X0212400Y0302050D01*
X0212400Y0312050D02*
X0217600Y0312050D01*
X0217600Y0322050D02*
X0212400Y0322050D01*
X0212400Y0332050D02*
X0217600Y0332050D01*
X0217600Y0342050D02*
X0212400Y0342050D01*
X0212400Y0352050D02*
X0217600Y0352050D01*
X0217600Y0255050D02*
X0212400Y0255050D01*
X0212400Y0245050D02*
X0217600Y0245050D01*
X0217600Y0235050D02*
X0212400Y0235050D01*
X0212400Y0225050D02*
X0217600Y0225050D01*
X0217600Y0215050D02*
X0212400Y0215050D01*
X0212400Y0205050D02*
X0217600Y0205050D01*
X0217600Y0195050D02*
X0212400Y0195050D01*
X0212400Y0185050D02*
X0217600Y0185050D01*
X0242400Y0185050D02*
X0247600Y0185050D01*
X0247600Y0195050D02*
X0242400Y0195050D01*
X0242400Y0205050D02*
X0247600Y0205050D01*
X0247600Y0215050D02*
X0242400Y0215050D01*
X0242400Y0225050D02*
X0247600Y0225050D01*
X0247600Y0235050D02*
X0242400Y0235050D01*
X0242400Y0245050D02*
X0247600Y0245050D01*
X0247600Y0255050D02*
X0242400Y0255050D01*
X0335400Y0231050D02*
X0340600Y0231050D01*
X0340600Y0221050D02*
X0335400Y0221050D01*
X0335400Y0211050D02*
X0340600Y0211050D01*
X0340600Y0201050D02*
X0335400Y0201050D01*
X0365400Y0201050D02*
X0370600Y0201050D01*
X0370600Y0211050D02*
X0365400Y0211050D01*
X0365400Y0221050D02*
X0370600Y0221050D01*
X0370600Y0231050D02*
X0365400Y0231050D01*
X0436400Y0167050D02*
X0441600Y0167050D01*
X0441600Y0157050D02*
X0436400Y0157050D01*
X0436400Y0147050D02*
X0441600Y0147050D01*
X0441600Y0137050D02*
X0436400Y0137050D01*
X0436400Y0127050D02*
X0441600Y0127050D01*
X0441600Y0117050D02*
X0436400Y0117050D01*
X0436400Y0107050D02*
X0441600Y0107050D01*
X0441600Y0097050D02*
X0436400Y0097050D01*
X0466400Y0097050D02*
X0471600Y0097050D01*
X0471600Y0107050D02*
X0466400Y0107050D01*
X0466400Y0117050D02*
X0471600Y0117050D01*
X0471600Y0127050D02*
X0466400Y0127050D01*
X0466400Y0137050D02*
X0471600Y0137050D01*
X0471600Y0147050D02*
X0466400Y0147050D01*
X0466400Y0157050D02*
X0471600Y0157050D01*
X0471600Y0167050D02*
X0466400Y0167050D01*
X0247600Y0147050D02*
X0242400Y0147050D01*
X0242400Y0137050D02*
X0247600Y0137050D01*
X0247600Y0127050D02*
X0242400Y0127050D01*
X0242400Y0117050D02*
X0247600Y0117050D01*
X0247600Y0107050D02*
X0242400Y0107050D01*
X0242400Y0097050D02*
X0247600Y0097050D01*
X0247600Y0087050D02*
X0242400Y0087050D01*
X0242400Y0077050D02*
X0247600Y0077050D01*
X0247600Y0067050D02*
X0242400Y0067050D01*
X0242400Y0057050D02*
X0247600Y0057050D01*
X0217600Y0057050D02*
X0212400Y0057050D01*
X0212400Y0067050D02*
X0217600Y0067050D01*
X0217600Y0077050D02*
X0212400Y0077050D01*
X0212400Y0087050D02*
X0217600Y0087050D01*
X0217600Y0097050D02*
X0212400Y0097050D01*
X0212400Y0107050D02*
X0217600Y0107050D01*
X0217600Y0117050D02*
X0212400Y0117050D01*
X0212400Y0127050D02*
X0217600Y0127050D01*
X0217600Y0137050D02*
X0212400Y0137050D01*
X0212400Y0147050D02*
X0217600Y0147050D01*
X0437400Y0342050D02*
X0442600Y0342050D01*
X0442600Y0352050D02*
X0437400Y0352050D01*
X0437400Y0362050D02*
X0442600Y0362050D01*
X0442600Y0372050D02*
X0437400Y0372050D01*
X0437400Y0382050D02*
X0442600Y0382050D01*
X0442600Y0392050D02*
X0437400Y0392050D01*
X0437400Y0402050D02*
X0442600Y0402050D01*
X0442600Y0412050D02*
X0437400Y0412050D01*
X0467400Y0412050D02*
X0472600Y0412050D01*
X0472600Y0402050D02*
X0467400Y0402050D01*
X0467400Y0392050D02*
X0472600Y0392050D01*
X0472600Y0382050D02*
X0467400Y0382050D01*
X0467400Y0372050D02*
X0472600Y0372050D01*
X0472600Y0362050D02*
X0467400Y0362050D01*
X0467400Y0352050D02*
X0472600Y0352050D01*
X0472600Y0342050D02*
X0467400Y0342050D01*
D12*
X0387843Y0246050D03*
X0368157Y0246050D03*
X0405000Y0221193D03*
X0405000Y0201507D03*
X0337843Y0186050D03*
X0318157Y0186050D03*
X0305000Y0221207D03*
X0305000Y0240893D03*
X0239843Y0271050D03*
X0220157Y0271050D03*
X0220157Y0165850D03*
X0239843Y0165850D03*
X0239843Y0408050D03*
X0220157Y0408050D03*
X0612000Y0410893D03*
X0612000Y0391207D03*
D13*
X0024000Y0062250D03*
X0024000Y0077850D03*
X0024000Y0093450D03*
X0024000Y0109050D03*
X0024000Y0124650D03*
X0024000Y0140250D03*
X0024000Y0155850D03*
X0024000Y0171450D03*
X0024000Y0187050D03*
X0024000Y0202650D03*
X0024000Y0218250D03*
X0024000Y0233850D03*
X0024000Y0249450D03*
X0024000Y0265050D03*
X0024000Y0280650D03*
X0024000Y0296250D03*
X0024000Y0311850D03*
X0024000Y0327450D03*
X0024000Y0343050D03*
X0024000Y0358650D03*
X0024000Y0374250D03*
X0024000Y0389850D03*
D14*
X0084000Y0361050D02*
X0084000Y0341050D01*
X0069000Y0326050D01*
X0069000Y0305050D01*
X0044600Y0280650D01*
X0024000Y0280650D01*
X0024000Y0265050D02*
X0044000Y0265050D01*
X0084000Y0305050D01*
X0084000Y0329050D01*
X0116000Y0361050D01*
X0155000Y0362050D02*
X0105000Y0312050D01*
X0105000Y0265050D01*
X0110000Y0249450D02*
X0110000Y0307050D01*
X0155000Y0352050D01*
X0215000Y0352050D01*
X0215000Y0342050D02*
X0155000Y0342050D01*
X0115000Y0302050D01*
X0115000Y0233850D01*
X0120000Y0218250D02*
X0120000Y0297050D01*
X0155000Y0332050D01*
X0215000Y0332050D01*
X0215000Y0322050D02*
X0155000Y0322050D01*
X0125000Y0292050D01*
X0125000Y0202650D01*
X0130000Y0187050D02*
X0130000Y0287050D01*
X0155000Y0312050D01*
X0215000Y0312050D01*
X0233000Y0302050D02*
X0219000Y0288050D01*
X0200000Y0288050D01*
X0157000Y0245050D01*
X0157000Y0197050D01*
X0109000Y0155850D01*
X0105000Y0155850D01*
X0105000Y0140250D02*
X0163200Y0140250D01*
X0200000Y0177050D01*
X0250000Y0177050D01*
X0258000Y0185050D01*
X0258000Y0220050D01*
X0253000Y0225050D01*
X0245000Y0225050D01*
X0230000Y0230050D02*
X0225000Y0235050D01*
X0215000Y0235050D01*
X0170000Y0235050D01*
X0175000Y0245050D02*
X0215000Y0245050D01*
X0230000Y0230050D02*
X0230000Y0200050D01*
X0225000Y0195050D01*
X0215000Y0195050D01*
X0215000Y0225050D02*
X0206000Y0225050D01*
X0130000Y0149050D01*
X0114500Y0124550D02*
X0108100Y0124550D01*
X0108000Y0124650D01*
X0085000Y0124650D01*
X0114500Y0124550D02*
X0192000Y0047050D01*
X0223000Y0047050D01*
X0233000Y0057050D01*
X0245000Y0057050D01*
X0245000Y0067050D02*
X0477000Y0067050D01*
X0496000Y0086050D01*
X0496000Y0101050D01*
X0480000Y0117050D01*
X0469000Y0117050D01*
X0469000Y0107050D02*
X0476000Y0107050D01*
X0486000Y0097050D01*
X0486000Y0091050D01*
X0472000Y0077050D01*
X0245000Y0077050D01*
X0245000Y0087050D02*
X0452000Y0087050D01*
X0462000Y0097050D01*
X0469000Y0097050D01*
X0439000Y0097050D02*
X0245000Y0097050D01*
X0245000Y0107050D02*
X0439000Y0107050D01*
X0439000Y0117050D02*
X0245000Y0117050D01*
X0245000Y0127050D02*
X0439000Y0127050D01*
X0439000Y0137050D02*
X0245000Y0137050D01*
X0305000Y0221207D02*
X0337843Y0221207D01*
X0338000Y0221050D01*
X0338000Y0231050D02*
X0328157Y0240893D01*
X0305000Y0240893D01*
X0256000Y0246050D02*
X0255000Y0245050D01*
X0245000Y0245050D01*
X0245000Y0255050D02*
X0256000Y0255050D01*
X0297000Y0302050D01*
X0470000Y0302050D01*
X0500000Y0332050D01*
X0500000Y0348050D01*
X0476000Y0372050D01*
X0470000Y0372050D01*
X0470000Y0362050D02*
X0476000Y0362050D01*
X0490000Y0348050D01*
X0490000Y0332050D01*
X0470000Y0312050D01*
X0245000Y0312050D01*
X0245000Y0322050D02*
X0470000Y0322050D01*
X0480000Y0332050D01*
X0480000Y0348050D01*
X0476000Y0352050D01*
X0470000Y0352050D01*
X0470000Y0342050D02*
X0460000Y0342050D01*
X0450000Y0332050D01*
X0245000Y0332050D01*
X0245000Y0342050D02*
X0440000Y0342050D01*
X0440000Y0352050D02*
X0245000Y0352050D01*
X0245000Y0362050D02*
X0440000Y0362050D01*
X0440000Y0372050D02*
X0245000Y0372050D01*
X0245000Y0382050D02*
X0440000Y0382050D01*
X0470000Y0382050D02*
X0477000Y0382050D01*
X0510000Y0348050D01*
X0510000Y0332050D01*
X0470000Y0292050D01*
X0297000Y0292050D01*
X0256000Y0246050D01*
X0245000Y0302050D02*
X0233000Y0302050D01*
X0215000Y0362050D02*
X0155000Y0362050D01*
X0155000Y0372050D02*
X0100000Y0317050D01*
X0100000Y0280650D01*
X0095000Y0296250D02*
X0095000Y0322050D01*
X0155000Y0382050D01*
X0215000Y0382050D01*
X0215000Y0372050D02*
X0155000Y0372050D01*
X0345000Y0422050D02*
X0451000Y0422050D01*
X0461000Y0412050D01*
X0470000Y0412050D01*
X0470000Y0402050D02*
X0513500Y0402050D01*
X0535000Y0380550D01*
X0575000Y0380550D02*
X0575000Y0208050D01*
X0524000Y0157050D01*
X0469000Y0157050D01*
X0469000Y0167050D02*
X0469000Y0221050D01*
X0429000Y0221050D02*
X0428857Y0221193D01*
X0405000Y0221193D01*
X0368000Y0221193D01*
X0368000Y0221050D01*
X0368000Y0211050D02*
X0381000Y0211050D01*
X0390543Y0201507D01*
X0405000Y0201507D01*
X0427543Y0201507D01*
X0439000Y0190050D01*
X0439000Y0167050D01*
X0439000Y0157050D02*
X0404000Y0157050D01*
X0368000Y0193050D01*
X0368000Y0201050D01*
D15*
X0175000Y0245050D03*
X0170000Y0235050D03*
X0120000Y0218250D03*
X0115000Y0233850D03*
X0110000Y0249450D03*
X0105000Y0265050D03*
X0100000Y0280650D03*
X0095000Y0296250D03*
X0125000Y0202650D03*
X0130000Y0187050D03*
X0105000Y0155850D03*
X0105000Y0140250D03*
X0130000Y0149050D03*
X0085000Y0124650D03*
D16*
X0245000Y0195050D02*
X0246200Y0194550D01*
X0438400Y0154650D02*
X0439000Y0157050D01*
D17*
X0094000Y0411050D02*
X0084000Y0401050D01*
X0094000Y0411050D02*
X0180000Y0411050D01*
X0191000Y0422050D01*
X0305000Y0422050D01*
D18*
X0067000Y0408050D02*
X0067000Y0396050D01*
X0060800Y0389850D01*
X0024000Y0389850D01*
X0024000Y0374250D02*
X0065000Y0374250D01*
X0065000Y0358650D02*
X0024000Y0358650D01*
X0024000Y0343050D02*
X0065000Y0343050D01*
D19*
X0065000Y0343050D03*
X0050000Y0343050D03*
X0050000Y0358650D03*
X0065000Y0358650D03*
X0065000Y0374250D03*
X0050000Y0374250D03*
X0067000Y0396050D03*
X0067000Y0408050D03*
M02*
