G75*
%MOIN*%
%OFA0B0*%
%FSLAX25Y25*%
%IPPOS*%
%LPD*%
%AMOC8*
5,1,8,0,0,1.08239X$1,22.5*
%
%ADD10C,0.09400*%
%ADD11C,0.06000*%
%ADD12R,0.33300X0.08300*%
%ADD13C,0.00500*%
%ADD14C,0.10800*%
%ADD15C,0.05156*%
D10*
X0429000Y0221050D03*
X0469000Y0221050D03*
X0535000Y0380550D03*
X0545000Y0410550D03*
X0535000Y0430550D03*
X0575000Y0430550D03*
X0585000Y0410550D03*
X0575000Y0380550D03*
X0345000Y0422050D03*
X0305000Y0422050D03*
X0116000Y0401050D03*
X0084000Y0401050D03*
X0084000Y0361050D03*
X0116000Y0361050D03*
D11*
X0212400Y0362050D02*
X0217600Y0362050D01*
X0217600Y0372050D02*
X0212400Y0372050D01*
X0212400Y0382050D02*
X0217600Y0382050D01*
X0217600Y0392050D02*
X0212400Y0392050D01*
X0242400Y0392050D02*
X0247600Y0392050D01*
X0247600Y0382050D02*
X0242400Y0382050D01*
X0242400Y0372050D02*
X0247600Y0372050D01*
X0247600Y0362050D02*
X0242400Y0362050D01*
X0242400Y0352050D02*
X0247600Y0352050D01*
X0247600Y0342050D02*
X0242400Y0342050D01*
X0242400Y0332050D02*
X0247600Y0332050D01*
X0247600Y0322050D02*
X0242400Y0322050D01*
X0242400Y0312050D02*
X0247600Y0312050D01*
X0247600Y0302050D02*
X0242400Y0302050D01*
X0217600Y0302050D02*
X0212400Y0302050D01*
X0212400Y0312050D02*
X0217600Y0312050D01*
X0217600Y0322050D02*
X0212400Y0322050D01*
X0212400Y0332050D02*
X0217600Y0332050D01*
X0217600Y0342050D02*
X0212400Y0342050D01*
X0212400Y0352050D02*
X0217600Y0352050D01*
X0217600Y0255050D02*
X0212400Y0255050D01*
X0212400Y0245050D02*
X0217600Y0245050D01*
X0217600Y0235050D02*
X0212400Y0235050D01*
X0212400Y0225050D02*
X0217600Y0225050D01*
X0217600Y0215050D02*
X0212400Y0215050D01*
X0212400Y0205050D02*
X0217600Y0205050D01*
X0217600Y0195050D02*
X0212400Y0195050D01*
X0212400Y0185050D02*
X0217600Y0185050D01*
X0242400Y0185050D02*
X0247600Y0185050D01*
X0247600Y0195050D02*
X0242400Y0195050D01*
X0242400Y0205050D02*
X0247600Y0205050D01*
X0247600Y0215050D02*
X0242400Y0215050D01*
X0242400Y0225050D02*
X0247600Y0225050D01*
X0247600Y0235050D02*
X0242400Y0235050D01*
X0242400Y0245050D02*
X0247600Y0245050D01*
X0247600Y0255050D02*
X0242400Y0255050D01*
X0335400Y0231050D02*
X0340600Y0231050D01*
X0340600Y0221050D02*
X0335400Y0221050D01*
X0335400Y0211050D02*
X0340600Y0211050D01*
X0340600Y0201050D02*
X0335400Y0201050D01*
X0365400Y0201050D02*
X0370600Y0201050D01*
X0370600Y0211050D02*
X0365400Y0211050D01*
X0365400Y0221050D02*
X0370600Y0221050D01*
X0370600Y0231050D02*
X0365400Y0231050D01*
X0436400Y0167050D02*
X0441600Y0167050D01*
X0441600Y0157050D02*
X0436400Y0157050D01*
X0436400Y0147050D02*
X0441600Y0147050D01*
X0441600Y0137050D02*
X0436400Y0137050D01*
X0436400Y0127050D02*
X0441600Y0127050D01*
X0441600Y0117050D02*
X0436400Y0117050D01*
X0436400Y0107050D02*
X0441600Y0107050D01*
X0441600Y0097050D02*
X0436400Y0097050D01*
X0466400Y0097050D02*
X0471600Y0097050D01*
X0471600Y0107050D02*
X0466400Y0107050D01*
X0466400Y0117050D02*
X0471600Y0117050D01*
X0471600Y0127050D02*
X0466400Y0127050D01*
X0466400Y0137050D02*
X0471600Y0137050D01*
X0471600Y0147050D02*
X0466400Y0147050D01*
X0466400Y0157050D02*
X0471600Y0157050D01*
X0471600Y0167050D02*
X0466400Y0167050D01*
X0247600Y0147050D02*
X0242400Y0147050D01*
X0242400Y0137050D02*
X0247600Y0137050D01*
X0247600Y0127050D02*
X0242400Y0127050D01*
X0242400Y0117050D02*
X0247600Y0117050D01*
X0247600Y0107050D02*
X0242400Y0107050D01*
X0242400Y0097050D02*
X0247600Y0097050D01*
X0247600Y0087050D02*
X0242400Y0087050D01*
X0242400Y0077050D02*
X0247600Y0077050D01*
X0247600Y0067050D02*
X0242400Y0067050D01*
X0242400Y0057050D02*
X0247600Y0057050D01*
X0217600Y0057050D02*
X0212400Y0057050D01*
X0212400Y0067050D02*
X0217600Y0067050D01*
X0217600Y0077050D02*
X0212400Y0077050D01*
X0212400Y0087050D02*
X0217600Y0087050D01*
X0217600Y0097050D02*
X0212400Y0097050D01*
X0212400Y0107050D02*
X0217600Y0107050D01*
X0217600Y0117050D02*
X0212400Y0117050D01*
X0212400Y0127050D02*
X0217600Y0127050D01*
X0217600Y0137050D02*
X0212400Y0137050D01*
X0212400Y0147050D02*
X0217600Y0147050D01*
X0437400Y0342050D02*
X0442600Y0342050D01*
X0442600Y0352050D02*
X0437400Y0352050D01*
X0437400Y0362050D02*
X0442600Y0362050D01*
X0442600Y0372050D02*
X0437400Y0372050D01*
X0437400Y0382050D02*
X0442600Y0382050D01*
X0442600Y0392050D02*
X0437400Y0392050D01*
X0437400Y0402050D02*
X0442600Y0402050D01*
X0442600Y0412050D02*
X0437400Y0412050D01*
X0467400Y0412050D02*
X0472600Y0412050D01*
X0472600Y0402050D02*
X0467400Y0402050D01*
X0467400Y0392050D02*
X0472600Y0392050D01*
X0472600Y0382050D02*
X0467400Y0382050D01*
X0467400Y0372050D02*
X0472600Y0372050D01*
X0472600Y0362050D02*
X0467400Y0362050D01*
X0467400Y0352050D02*
X0472600Y0352050D01*
X0472600Y0342050D02*
X0467400Y0342050D01*
D12*
X0024000Y0062250D03*
X0024000Y0077850D03*
X0024000Y0093450D03*
X0024000Y0109050D03*
X0024000Y0124650D03*
X0024000Y0140250D03*
X0024000Y0155850D03*
X0024000Y0171450D03*
X0024000Y0187050D03*
X0024000Y0202650D03*
X0024000Y0218250D03*
X0024000Y0233850D03*
X0024000Y0249450D03*
X0024000Y0265050D03*
X0024000Y0280650D03*
X0024000Y0296250D03*
X0024000Y0311850D03*
X0024000Y0327450D03*
X0024000Y0343050D03*
X0024000Y0358650D03*
X0024000Y0374250D03*
X0024000Y0389850D03*
D13*
X0146300Y0424703D02*
X0146590Y0424081D01*
X0146984Y0423519D01*
X0147469Y0423034D01*
X0148031Y0422640D01*
X0148653Y0422350D01*
X0149316Y0422173D01*
X0150000Y0422113D01*
X0150684Y0422173D01*
X0151347Y0422350D01*
X0151969Y0422640D01*
X0152531Y0423034D01*
X0153016Y0423519D01*
X0153410Y0424081D01*
X0153700Y0424703D01*
X0153877Y0425366D01*
X0153937Y0426050D01*
X0153877Y0426734D01*
X0153700Y0427397D01*
X0153410Y0428019D01*
X0153016Y0428581D01*
X0152531Y0429066D01*
X0151969Y0429460D01*
X0151347Y0429750D01*
X0150684Y0429927D01*
X0150000Y0429987D01*
X0149316Y0429927D01*
X0148653Y0429750D01*
X0148031Y0429460D01*
X0147469Y0429066D01*
X0146984Y0428581D01*
X0146590Y0428019D01*
X0146300Y0427397D01*
X0146123Y0426734D01*
X0146063Y0426050D01*
X0146123Y0425366D01*
X0146300Y0424703D01*
X0146279Y0424785D02*
X0153721Y0424785D01*
X0153855Y0425283D02*
X0146145Y0425283D01*
X0146086Y0425782D02*
X0153914Y0425782D01*
X0153917Y0426280D02*
X0146083Y0426280D01*
X0146135Y0426779D02*
X0153865Y0426779D01*
X0153732Y0427277D02*
X0146268Y0427277D01*
X0146477Y0427776D02*
X0153523Y0427776D01*
X0153231Y0428274D02*
X0146770Y0428274D01*
X0147176Y0428773D02*
X0152824Y0428773D01*
X0152237Y0429271D02*
X0147763Y0429271D01*
X0148729Y0429770D02*
X0151271Y0429770D01*
X0153505Y0424286D02*
X0146495Y0424286D01*
X0146796Y0423788D02*
X0153204Y0423788D01*
X0152786Y0423289D02*
X0147214Y0423289D01*
X0147817Y0422791D02*
X0152183Y0422791D01*
X0151129Y0422292D02*
X0148871Y0422292D01*
X0601984Y0028581D02*
X0601590Y0028019D01*
X0601300Y0027397D01*
X0601123Y0026734D01*
X0601063Y0026050D01*
X0601123Y0025366D01*
X0601300Y0024703D01*
X0601590Y0024081D01*
X0601984Y0023519D01*
X0602469Y0023034D01*
X0603031Y0022640D01*
X0603653Y0022350D01*
X0604316Y0022173D01*
X0605000Y0022113D01*
X0605684Y0022173D01*
X0606347Y0022350D01*
X0606969Y0022640D01*
X0607531Y0023034D01*
X0608016Y0023519D01*
X0608410Y0024081D01*
X0608700Y0024703D01*
X0608877Y0025366D01*
X0608937Y0026050D01*
X0608877Y0026734D01*
X0608700Y0027397D01*
X0608410Y0028019D01*
X0608016Y0028581D01*
X0607531Y0029066D01*
X0606969Y0029460D01*
X0606347Y0029750D01*
X0605684Y0029927D01*
X0605000Y0029987D01*
X0604316Y0029927D01*
X0603653Y0029750D01*
X0603031Y0029460D01*
X0602469Y0029066D01*
X0601984Y0028581D01*
X0601905Y0028468D02*
X0608095Y0028468D01*
X0608432Y0027970D02*
X0601568Y0027970D01*
X0601335Y0027471D02*
X0608665Y0027471D01*
X0608813Y0026973D02*
X0601187Y0026973D01*
X0601100Y0026474D02*
X0608900Y0026474D01*
X0608930Y0025976D02*
X0601070Y0025976D01*
X0601113Y0025477D02*
X0608887Y0025477D01*
X0608773Y0024979D02*
X0601227Y0024979D01*
X0601405Y0024480D02*
X0608595Y0024480D01*
X0608340Y0023982D02*
X0601660Y0023982D01*
X0602020Y0023483D02*
X0607980Y0023483D01*
X0607460Y0022984D02*
X0602540Y0022984D01*
X0603363Y0022486D02*
X0606637Y0022486D01*
X0607630Y0028967D02*
X0602370Y0028967D01*
X0603044Y0029465D02*
X0606957Y0029465D01*
X0605267Y0029964D02*
X0604733Y0029964D01*
D14*
X0405000Y0201507D03*
X0405000Y0221193D03*
X0387843Y0246050D03*
X0368157Y0246050D03*
X0305000Y0240893D03*
X0305000Y0221207D03*
X0318157Y0186050D03*
X0337843Y0186050D03*
X0239843Y0165850D03*
X0220157Y0165850D03*
X0220157Y0271050D03*
X0239843Y0271050D03*
X0239843Y0408050D03*
X0220157Y0408050D03*
X0612000Y0410893D03*
X0612000Y0391207D03*
D15*
X0175000Y0245050D03*
X0170000Y0235050D03*
X0120000Y0218250D03*
X0115000Y0233850D03*
X0110000Y0249450D03*
X0105000Y0265050D03*
X0100000Y0280650D03*
X0095000Y0296250D03*
X0057500Y0327050D03*
X0050000Y0343050D03*
X0050000Y0358650D03*
X0050000Y0374250D03*
X0067000Y0408050D03*
X0125000Y0202650D03*
X0130000Y0187050D03*
X0105000Y0155850D03*
X0105000Y0140250D03*
X0130000Y0149050D03*
X0085000Y0124650D03*
M02*
