G75*
%MOIN*%
%OFA0B0*%
%FSLAX25Y25*%
%IPPOS*%
%LPD*%
%AMOC8*
5,1,8,0,0,1.08239X$1,22.5*
%
%ADD10C,0.00100*%
%ADD11C,0.00600*%
%ADD12C,0.00800*%
%ADD13C,0.00500*%
%ADD14C,0.00400*%
D10*
X0040000Y0016050D02*
X0055000Y0001050D01*
X0655000Y0001050D01*
X0655000Y0451050D01*
X0055000Y0451050D01*
X0040000Y0436050D01*
X0040000Y0405050D01*
X0015000Y0405050D01*
X0005000Y0395050D01*
X0005000Y0057050D01*
X0015000Y0047050D01*
X0040000Y0047050D01*
X0040000Y0016050D01*
D11*
X0221500Y0052050D02*
X0238500Y0052050D01*
X0238500Y0152050D01*
X0234000Y0152050D01*
X0233998Y0151924D01*
X0233992Y0151799D01*
X0233982Y0151674D01*
X0233968Y0151549D01*
X0233951Y0151424D01*
X0233929Y0151300D01*
X0233904Y0151177D01*
X0233874Y0151055D01*
X0233841Y0150934D01*
X0233804Y0150814D01*
X0233764Y0150695D01*
X0233719Y0150578D01*
X0233671Y0150461D01*
X0233619Y0150347D01*
X0233564Y0150234D01*
X0233505Y0150123D01*
X0233443Y0150014D01*
X0233377Y0149907D01*
X0233308Y0149802D01*
X0233236Y0149699D01*
X0233161Y0149598D01*
X0233082Y0149500D01*
X0233000Y0149405D01*
X0232916Y0149312D01*
X0232828Y0149222D01*
X0232738Y0149134D01*
X0232645Y0149050D01*
X0232550Y0148968D01*
X0232452Y0148889D01*
X0232351Y0148814D01*
X0232248Y0148742D01*
X0232143Y0148673D01*
X0232036Y0148607D01*
X0231927Y0148545D01*
X0231816Y0148486D01*
X0231703Y0148431D01*
X0231589Y0148379D01*
X0231472Y0148331D01*
X0231355Y0148286D01*
X0231236Y0148246D01*
X0231116Y0148209D01*
X0230995Y0148176D01*
X0230873Y0148146D01*
X0230750Y0148121D01*
X0230626Y0148099D01*
X0230501Y0148082D01*
X0230376Y0148068D01*
X0230251Y0148058D01*
X0230126Y0148052D01*
X0230000Y0148050D01*
X0229874Y0148052D01*
X0229749Y0148058D01*
X0229624Y0148068D01*
X0229499Y0148082D01*
X0229374Y0148099D01*
X0229250Y0148121D01*
X0229127Y0148146D01*
X0229005Y0148176D01*
X0228884Y0148209D01*
X0228764Y0148246D01*
X0228645Y0148286D01*
X0228528Y0148331D01*
X0228411Y0148379D01*
X0228297Y0148431D01*
X0228184Y0148486D01*
X0228073Y0148545D01*
X0227964Y0148607D01*
X0227857Y0148673D01*
X0227752Y0148742D01*
X0227649Y0148814D01*
X0227548Y0148889D01*
X0227450Y0148968D01*
X0227355Y0149050D01*
X0227262Y0149134D01*
X0227172Y0149222D01*
X0227084Y0149312D01*
X0227000Y0149405D01*
X0226918Y0149500D01*
X0226839Y0149598D01*
X0226764Y0149699D01*
X0226692Y0149802D01*
X0226623Y0149907D01*
X0226557Y0150014D01*
X0226495Y0150123D01*
X0226436Y0150234D01*
X0226381Y0150347D01*
X0226329Y0150461D01*
X0226281Y0150578D01*
X0226236Y0150695D01*
X0226196Y0150814D01*
X0226159Y0150934D01*
X0226126Y0151055D01*
X0226096Y0151177D01*
X0226071Y0151300D01*
X0226049Y0151424D01*
X0226032Y0151549D01*
X0226018Y0151674D01*
X0226008Y0151799D01*
X0226002Y0151924D01*
X0226000Y0152050D01*
X0221500Y0152050D01*
X0221500Y0052050D01*
X0220000Y0157850D02*
X0240000Y0157850D01*
X0240195Y0157852D01*
X0240390Y0157859D01*
X0240584Y0157871D01*
X0240778Y0157888D01*
X0240972Y0157909D01*
X0241165Y0157935D01*
X0241357Y0157966D01*
X0241549Y0158001D01*
X0241739Y0158041D01*
X0241929Y0158086D01*
X0242118Y0158135D01*
X0242305Y0158189D01*
X0242491Y0158248D01*
X0242675Y0158310D01*
X0242858Y0158378D01*
X0243039Y0158450D01*
X0243218Y0158526D01*
X0243396Y0158606D01*
X0243571Y0158691D01*
X0243744Y0158780D01*
X0243915Y0158874D01*
X0244084Y0158971D01*
X0244250Y0159073D01*
X0244414Y0159178D01*
X0244575Y0159287D01*
X0244734Y0159401D01*
X0244889Y0159518D01*
X0245042Y0159639D01*
X0245192Y0159764D01*
X0245339Y0159892D01*
X0245482Y0160024D01*
X0245622Y0160159D01*
X0245759Y0160297D01*
X0245893Y0160439D01*
X0246023Y0160584D01*
X0246149Y0160733D01*
X0246272Y0160884D01*
X0246391Y0161038D01*
X0246506Y0161195D01*
X0246618Y0161355D01*
X0246725Y0161517D01*
X0246829Y0161682D01*
X0246928Y0161850D01*
X0247024Y0162020D01*
X0247115Y0162192D01*
X0247202Y0162366D01*
X0247284Y0162543D01*
X0247363Y0162721D01*
X0247437Y0162901D01*
X0247506Y0163083D01*
X0247572Y0163267D01*
X0247632Y0163452D01*
X0247688Y0163639D01*
X0247740Y0163827D01*
X0247787Y0164016D01*
X0247829Y0164206D01*
X0247867Y0164397D01*
X0247900Y0164589D01*
X0247928Y0164782D01*
X0247952Y0164975D01*
X0247971Y0165169D01*
X0247985Y0165363D01*
X0247995Y0165558D01*
X0247999Y0165753D01*
X0247999Y0165947D01*
X0247995Y0166142D01*
X0247985Y0166337D01*
X0247971Y0166531D01*
X0247952Y0166725D01*
X0247928Y0166918D01*
X0247900Y0167111D01*
X0247867Y0167303D01*
X0247829Y0167494D01*
X0247787Y0167684D01*
X0247740Y0167873D01*
X0247688Y0168061D01*
X0247632Y0168248D01*
X0247572Y0168433D01*
X0247506Y0168617D01*
X0247437Y0168799D01*
X0247363Y0168979D01*
X0247284Y0169157D01*
X0247202Y0169334D01*
X0247115Y0169508D01*
X0247024Y0169680D01*
X0246928Y0169850D01*
X0246829Y0170018D01*
X0246725Y0170183D01*
X0246618Y0170345D01*
X0246506Y0170505D01*
X0246391Y0170662D01*
X0246272Y0170816D01*
X0246149Y0170967D01*
X0246023Y0171116D01*
X0245893Y0171261D01*
X0245759Y0171403D01*
X0245622Y0171541D01*
X0245482Y0171676D01*
X0245339Y0171808D01*
X0245192Y0171936D01*
X0245042Y0172061D01*
X0244889Y0172182D01*
X0244734Y0172299D01*
X0244575Y0172413D01*
X0244414Y0172522D01*
X0244250Y0172627D01*
X0244084Y0172729D01*
X0243915Y0172826D01*
X0243744Y0172920D01*
X0243571Y0173009D01*
X0243396Y0173094D01*
X0243218Y0173174D01*
X0243039Y0173250D01*
X0242858Y0173322D01*
X0242675Y0173390D01*
X0242491Y0173452D01*
X0242305Y0173511D01*
X0242118Y0173565D01*
X0241929Y0173614D01*
X0241739Y0173659D01*
X0241549Y0173699D01*
X0241357Y0173734D01*
X0241165Y0173765D01*
X0240972Y0173791D01*
X0240778Y0173812D01*
X0240584Y0173829D01*
X0240390Y0173841D01*
X0240195Y0173848D01*
X0240000Y0173850D01*
X0220000Y0173850D01*
X0221900Y0180250D02*
X0238900Y0180250D01*
X0238900Y0260250D01*
X0234400Y0260250D01*
X0234398Y0260124D01*
X0234392Y0259999D01*
X0234382Y0259874D01*
X0234368Y0259749D01*
X0234351Y0259624D01*
X0234329Y0259500D01*
X0234304Y0259377D01*
X0234274Y0259255D01*
X0234241Y0259134D01*
X0234204Y0259014D01*
X0234164Y0258895D01*
X0234119Y0258778D01*
X0234071Y0258661D01*
X0234019Y0258547D01*
X0233964Y0258434D01*
X0233905Y0258323D01*
X0233843Y0258214D01*
X0233777Y0258107D01*
X0233708Y0258002D01*
X0233636Y0257899D01*
X0233561Y0257798D01*
X0233482Y0257700D01*
X0233400Y0257605D01*
X0233316Y0257512D01*
X0233228Y0257422D01*
X0233138Y0257334D01*
X0233045Y0257250D01*
X0232950Y0257168D01*
X0232852Y0257089D01*
X0232751Y0257014D01*
X0232648Y0256942D01*
X0232543Y0256873D01*
X0232436Y0256807D01*
X0232327Y0256745D01*
X0232216Y0256686D01*
X0232103Y0256631D01*
X0231989Y0256579D01*
X0231872Y0256531D01*
X0231755Y0256486D01*
X0231636Y0256446D01*
X0231516Y0256409D01*
X0231395Y0256376D01*
X0231273Y0256346D01*
X0231150Y0256321D01*
X0231026Y0256299D01*
X0230901Y0256282D01*
X0230776Y0256268D01*
X0230651Y0256258D01*
X0230526Y0256252D01*
X0230400Y0256250D01*
X0230274Y0256252D01*
X0230149Y0256258D01*
X0230024Y0256268D01*
X0229899Y0256282D01*
X0229774Y0256299D01*
X0229650Y0256321D01*
X0229527Y0256346D01*
X0229405Y0256376D01*
X0229284Y0256409D01*
X0229164Y0256446D01*
X0229045Y0256486D01*
X0228928Y0256531D01*
X0228811Y0256579D01*
X0228697Y0256631D01*
X0228584Y0256686D01*
X0228473Y0256745D01*
X0228364Y0256807D01*
X0228257Y0256873D01*
X0228152Y0256942D01*
X0228049Y0257014D01*
X0227948Y0257089D01*
X0227850Y0257168D01*
X0227755Y0257250D01*
X0227662Y0257334D01*
X0227572Y0257422D01*
X0227484Y0257512D01*
X0227400Y0257605D01*
X0227318Y0257700D01*
X0227239Y0257798D01*
X0227164Y0257899D01*
X0227092Y0258002D01*
X0227023Y0258107D01*
X0226957Y0258214D01*
X0226895Y0258323D01*
X0226836Y0258434D01*
X0226781Y0258547D01*
X0226729Y0258661D01*
X0226681Y0258778D01*
X0226636Y0258895D01*
X0226596Y0259014D01*
X0226559Y0259134D01*
X0226526Y0259255D01*
X0226496Y0259377D01*
X0226471Y0259500D01*
X0226449Y0259624D01*
X0226432Y0259749D01*
X0226418Y0259874D01*
X0226408Y0259999D01*
X0226402Y0260124D01*
X0226400Y0260250D01*
X0221900Y0260250D01*
X0221900Y0180250D01*
X0220000Y0173850D02*
X0219805Y0173848D01*
X0219610Y0173841D01*
X0219416Y0173829D01*
X0219222Y0173812D01*
X0219028Y0173791D01*
X0218835Y0173765D01*
X0218643Y0173734D01*
X0218451Y0173699D01*
X0218261Y0173659D01*
X0218071Y0173614D01*
X0217882Y0173565D01*
X0217695Y0173511D01*
X0217509Y0173452D01*
X0217325Y0173390D01*
X0217142Y0173322D01*
X0216961Y0173250D01*
X0216782Y0173174D01*
X0216604Y0173094D01*
X0216429Y0173009D01*
X0216256Y0172920D01*
X0216085Y0172826D01*
X0215916Y0172729D01*
X0215750Y0172627D01*
X0215586Y0172522D01*
X0215425Y0172413D01*
X0215266Y0172299D01*
X0215111Y0172182D01*
X0214958Y0172061D01*
X0214808Y0171936D01*
X0214661Y0171808D01*
X0214518Y0171676D01*
X0214378Y0171541D01*
X0214241Y0171403D01*
X0214107Y0171261D01*
X0213977Y0171116D01*
X0213851Y0170967D01*
X0213728Y0170816D01*
X0213609Y0170662D01*
X0213494Y0170505D01*
X0213382Y0170345D01*
X0213275Y0170183D01*
X0213171Y0170018D01*
X0213072Y0169850D01*
X0212976Y0169680D01*
X0212885Y0169508D01*
X0212798Y0169334D01*
X0212716Y0169157D01*
X0212637Y0168979D01*
X0212563Y0168799D01*
X0212494Y0168617D01*
X0212428Y0168433D01*
X0212368Y0168248D01*
X0212312Y0168061D01*
X0212260Y0167873D01*
X0212213Y0167684D01*
X0212171Y0167494D01*
X0212133Y0167303D01*
X0212100Y0167111D01*
X0212072Y0166918D01*
X0212048Y0166725D01*
X0212029Y0166531D01*
X0212015Y0166337D01*
X0212005Y0166142D01*
X0212001Y0165947D01*
X0212001Y0165753D01*
X0212005Y0165558D01*
X0212015Y0165363D01*
X0212029Y0165169D01*
X0212048Y0164975D01*
X0212072Y0164782D01*
X0212100Y0164589D01*
X0212133Y0164397D01*
X0212171Y0164206D01*
X0212213Y0164016D01*
X0212260Y0163827D01*
X0212312Y0163639D01*
X0212368Y0163452D01*
X0212428Y0163267D01*
X0212494Y0163083D01*
X0212563Y0162901D01*
X0212637Y0162721D01*
X0212716Y0162543D01*
X0212798Y0162366D01*
X0212885Y0162192D01*
X0212976Y0162020D01*
X0213072Y0161850D01*
X0213171Y0161682D01*
X0213275Y0161517D01*
X0213382Y0161355D01*
X0213494Y0161195D01*
X0213609Y0161038D01*
X0213728Y0160884D01*
X0213851Y0160733D01*
X0213977Y0160584D01*
X0214107Y0160439D01*
X0214241Y0160297D01*
X0214378Y0160159D01*
X0214518Y0160024D01*
X0214661Y0159892D01*
X0214808Y0159764D01*
X0214958Y0159639D01*
X0215111Y0159518D01*
X0215266Y0159401D01*
X0215425Y0159287D01*
X0215586Y0159178D01*
X0215750Y0159073D01*
X0215916Y0158971D01*
X0216085Y0158874D01*
X0216256Y0158780D01*
X0216429Y0158691D01*
X0216604Y0158606D01*
X0216782Y0158526D01*
X0216961Y0158450D01*
X0217142Y0158378D01*
X0217325Y0158310D01*
X0217509Y0158248D01*
X0217695Y0158189D01*
X0217882Y0158135D01*
X0218071Y0158086D01*
X0218261Y0158041D01*
X0218451Y0158001D01*
X0218643Y0157966D01*
X0218835Y0157935D01*
X0219028Y0157909D01*
X0219222Y0157888D01*
X0219416Y0157871D01*
X0219610Y0157859D01*
X0219805Y0157852D01*
X0220000Y0157850D01*
X0297000Y0221050D02*
X0297000Y0241050D01*
X0297002Y0241245D01*
X0297009Y0241440D01*
X0297021Y0241634D01*
X0297038Y0241828D01*
X0297059Y0242022D01*
X0297085Y0242215D01*
X0297116Y0242407D01*
X0297151Y0242599D01*
X0297191Y0242789D01*
X0297236Y0242979D01*
X0297285Y0243168D01*
X0297339Y0243355D01*
X0297398Y0243541D01*
X0297460Y0243725D01*
X0297528Y0243908D01*
X0297600Y0244089D01*
X0297676Y0244268D01*
X0297756Y0244446D01*
X0297841Y0244621D01*
X0297930Y0244794D01*
X0298024Y0244965D01*
X0298121Y0245134D01*
X0298223Y0245300D01*
X0298328Y0245464D01*
X0298437Y0245625D01*
X0298551Y0245784D01*
X0298668Y0245939D01*
X0298789Y0246092D01*
X0298914Y0246242D01*
X0299042Y0246389D01*
X0299174Y0246532D01*
X0299309Y0246672D01*
X0299447Y0246809D01*
X0299589Y0246943D01*
X0299734Y0247073D01*
X0299883Y0247199D01*
X0300034Y0247322D01*
X0300188Y0247441D01*
X0300345Y0247556D01*
X0300505Y0247668D01*
X0300667Y0247775D01*
X0300832Y0247879D01*
X0301000Y0247978D01*
X0301170Y0248074D01*
X0301342Y0248165D01*
X0301516Y0248252D01*
X0301693Y0248334D01*
X0301871Y0248413D01*
X0302051Y0248487D01*
X0302233Y0248556D01*
X0302417Y0248622D01*
X0302602Y0248682D01*
X0302789Y0248738D01*
X0302977Y0248790D01*
X0303166Y0248837D01*
X0303356Y0248879D01*
X0303547Y0248917D01*
X0303739Y0248950D01*
X0303932Y0248978D01*
X0304125Y0249002D01*
X0304319Y0249021D01*
X0304513Y0249035D01*
X0304708Y0249045D01*
X0304903Y0249049D01*
X0305097Y0249049D01*
X0305292Y0249045D01*
X0305487Y0249035D01*
X0305681Y0249021D01*
X0305875Y0249002D01*
X0306068Y0248978D01*
X0306261Y0248950D01*
X0306453Y0248917D01*
X0306644Y0248879D01*
X0306834Y0248837D01*
X0307023Y0248790D01*
X0307211Y0248738D01*
X0307398Y0248682D01*
X0307583Y0248622D01*
X0307767Y0248556D01*
X0307949Y0248487D01*
X0308129Y0248413D01*
X0308307Y0248334D01*
X0308484Y0248252D01*
X0308658Y0248165D01*
X0308830Y0248074D01*
X0309000Y0247978D01*
X0309168Y0247879D01*
X0309333Y0247775D01*
X0309495Y0247668D01*
X0309655Y0247556D01*
X0309812Y0247441D01*
X0309966Y0247322D01*
X0310117Y0247199D01*
X0310266Y0247073D01*
X0310411Y0246943D01*
X0310553Y0246809D01*
X0310691Y0246672D01*
X0310826Y0246532D01*
X0310958Y0246389D01*
X0311086Y0246242D01*
X0311211Y0246092D01*
X0311332Y0245939D01*
X0311449Y0245784D01*
X0311563Y0245625D01*
X0311672Y0245464D01*
X0311777Y0245300D01*
X0311879Y0245134D01*
X0311976Y0244965D01*
X0312070Y0244794D01*
X0312159Y0244621D01*
X0312244Y0244446D01*
X0312324Y0244268D01*
X0312400Y0244089D01*
X0312472Y0243908D01*
X0312540Y0243725D01*
X0312602Y0243541D01*
X0312661Y0243355D01*
X0312715Y0243168D01*
X0312764Y0242979D01*
X0312809Y0242789D01*
X0312849Y0242599D01*
X0312884Y0242407D01*
X0312915Y0242215D01*
X0312941Y0242022D01*
X0312962Y0241828D01*
X0312979Y0241634D01*
X0312991Y0241440D01*
X0312998Y0241245D01*
X0313000Y0241050D01*
X0313000Y0221050D01*
X0312998Y0220855D01*
X0312991Y0220660D01*
X0312979Y0220466D01*
X0312962Y0220272D01*
X0312941Y0220078D01*
X0312915Y0219885D01*
X0312884Y0219693D01*
X0312849Y0219501D01*
X0312809Y0219311D01*
X0312764Y0219121D01*
X0312715Y0218932D01*
X0312661Y0218745D01*
X0312602Y0218559D01*
X0312540Y0218375D01*
X0312472Y0218192D01*
X0312400Y0218011D01*
X0312324Y0217832D01*
X0312244Y0217654D01*
X0312159Y0217479D01*
X0312070Y0217306D01*
X0311976Y0217135D01*
X0311879Y0216966D01*
X0311777Y0216800D01*
X0311672Y0216636D01*
X0311563Y0216475D01*
X0311449Y0216316D01*
X0311332Y0216161D01*
X0311211Y0216008D01*
X0311086Y0215858D01*
X0310958Y0215711D01*
X0310826Y0215568D01*
X0310691Y0215428D01*
X0310553Y0215291D01*
X0310411Y0215157D01*
X0310266Y0215027D01*
X0310117Y0214901D01*
X0309966Y0214778D01*
X0309812Y0214659D01*
X0309655Y0214544D01*
X0309495Y0214432D01*
X0309333Y0214325D01*
X0309168Y0214221D01*
X0309000Y0214122D01*
X0308830Y0214026D01*
X0308658Y0213935D01*
X0308484Y0213848D01*
X0308307Y0213766D01*
X0308129Y0213687D01*
X0307949Y0213613D01*
X0307767Y0213544D01*
X0307583Y0213478D01*
X0307398Y0213418D01*
X0307211Y0213362D01*
X0307023Y0213310D01*
X0306834Y0213263D01*
X0306644Y0213221D01*
X0306453Y0213183D01*
X0306261Y0213150D01*
X0306068Y0213122D01*
X0305875Y0213098D01*
X0305681Y0213079D01*
X0305487Y0213065D01*
X0305292Y0213055D01*
X0305097Y0213051D01*
X0304903Y0213051D01*
X0304708Y0213055D01*
X0304513Y0213065D01*
X0304319Y0213079D01*
X0304125Y0213098D01*
X0303932Y0213122D01*
X0303739Y0213150D01*
X0303547Y0213183D01*
X0303356Y0213221D01*
X0303166Y0213263D01*
X0302977Y0213310D01*
X0302789Y0213362D01*
X0302602Y0213418D01*
X0302417Y0213478D01*
X0302233Y0213544D01*
X0302051Y0213613D01*
X0301871Y0213687D01*
X0301693Y0213766D01*
X0301516Y0213848D01*
X0301342Y0213935D01*
X0301170Y0214026D01*
X0301000Y0214122D01*
X0300832Y0214221D01*
X0300667Y0214325D01*
X0300505Y0214432D01*
X0300345Y0214544D01*
X0300188Y0214659D01*
X0300034Y0214778D01*
X0299883Y0214901D01*
X0299734Y0215027D01*
X0299589Y0215157D01*
X0299447Y0215291D01*
X0299309Y0215428D01*
X0299174Y0215568D01*
X0299042Y0215711D01*
X0298914Y0215858D01*
X0298789Y0216008D01*
X0298668Y0216161D01*
X0298551Y0216316D01*
X0298437Y0216475D01*
X0298328Y0216636D01*
X0298223Y0216800D01*
X0298121Y0216966D01*
X0298024Y0217135D01*
X0297930Y0217306D01*
X0297841Y0217479D01*
X0297756Y0217654D01*
X0297676Y0217832D01*
X0297600Y0218011D01*
X0297528Y0218192D01*
X0297460Y0218375D01*
X0297398Y0218559D01*
X0297339Y0218745D01*
X0297285Y0218932D01*
X0297236Y0219121D01*
X0297191Y0219311D01*
X0297151Y0219501D01*
X0297116Y0219693D01*
X0297085Y0219885D01*
X0297059Y0220078D01*
X0297038Y0220272D01*
X0297021Y0220466D01*
X0297009Y0220660D01*
X0297002Y0220855D01*
X0297000Y0221050D01*
X0318000Y0194050D02*
X0338000Y0194050D01*
X0344500Y0196050D02*
X0361500Y0196050D01*
X0361500Y0236050D01*
X0357000Y0236050D01*
X0356998Y0235924D01*
X0356992Y0235799D01*
X0356982Y0235674D01*
X0356968Y0235549D01*
X0356951Y0235424D01*
X0356929Y0235300D01*
X0356904Y0235177D01*
X0356874Y0235055D01*
X0356841Y0234934D01*
X0356804Y0234814D01*
X0356764Y0234695D01*
X0356719Y0234578D01*
X0356671Y0234461D01*
X0356619Y0234347D01*
X0356564Y0234234D01*
X0356505Y0234123D01*
X0356443Y0234014D01*
X0356377Y0233907D01*
X0356308Y0233802D01*
X0356236Y0233699D01*
X0356161Y0233598D01*
X0356082Y0233500D01*
X0356000Y0233405D01*
X0355916Y0233312D01*
X0355828Y0233222D01*
X0355738Y0233134D01*
X0355645Y0233050D01*
X0355550Y0232968D01*
X0355452Y0232889D01*
X0355351Y0232814D01*
X0355248Y0232742D01*
X0355143Y0232673D01*
X0355036Y0232607D01*
X0354927Y0232545D01*
X0354816Y0232486D01*
X0354703Y0232431D01*
X0354589Y0232379D01*
X0354472Y0232331D01*
X0354355Y0232286D01*
X0354236Y0232246D01*
X0354116Y0232209D01*
X0353995Y0232176D01*
X0353873Y0232146D01*
X0353750Y0232121D01*
X0353626Y0232099D01*
X0353501Y0232082D01*
X0353376Y0232068D01*
X0353251Y0232058D01*
X0353126Y0232052D01*
X0353000Y0232050D01*
X0352874Y0232052D01*
X0352749Y0232058D01*
X0352624Y0232068D01*
X0352499Y0232082D01*
X0352374Y0232099D01*
X0352250Y0232121D01*
X0352127Y0232146D01*
X0352005Y0232176D01*
X0351884Y0232209D01*
X0351764Y0232246D01*
X0351645Y0232286D01*
X0351528Y0232331D01*
X0351411Y0232379D01*
X0351297Y0232431D01*
X0351184Y0232486D01*
X0351073Y0232545D01*
X0350964Y0232607D01*
X0350857Y0232673D01*
X0350752Y0232742D01*
X0350649Y0232814D01*
X0350548Y0232889D01*
X0350450Y0232968D01*
X0350355Y0233050D01*
X0350262Y0233134D01*
X0350172Y0233222D01*
X0350084Y0233312D01*
X0350000Y0233405D01*
X0349918Y0233500D01*
X0349839Y0233598D01*
X0349764Y0233699D01*
X0349692Y0233802D01*
X0349623Y0233907D01*
X0349557Y0234014D01*
X0349495Y0234123D01*
X0349436Y0234234D01*
X0349381Y0234347D01*
X0349329Y0234461D01*
X0349281Y0234578D01*
X0349236Y0234695D01*
X0349196Y0234814D01*
X0349159Y0234934D01*
X0349126Y0235055D01*
X0349096Y0235177D01*
X0349071Y0235300D01*
X0349049Y0235424D01*
X0349032Y0235549D01*
X0349018Y0235674D01*
X0349008Y0235799D01*
X0349002Y0235924D01*
X0349000Y0236050D01*
X0344500Y0236050D01*
X0344500Y0196050D01*
X0338000Y0194050D02*
X0338195Y0194048D01*
X0338390Y0194041D01*
X0338584Y0194029D01*
X0338778Y0194012D01*
X0338972Y0193991D01*
X0339165Y0193965D01*
X0339357Y0193934D01*
X0339549Y0193899D01*
X0339739Y0193859D01*
X0339929Y0193814D01*
X0340118Y0193765D01*
X0340305Y0193711D01*
X0340491Y0193652D01*
X0340675Y0193590D01*
X0340858Y0193522D01*
X0341039Y0193450D01*
X0341218Y0193374D01*
X0341396Y0193294D01*
X0341571Y0193209D01*
X0341744Y0193120D01*
X0341915Y0193026D01*
X0342084Y0192929D01*
X0342250Y0192827D01*
X0342414Y0192722D01*
X0342575Y0192613D01*
X0342734Y0192499D01*
X0342889Y0192382D01*
X0343042Y0192261D01*
X0343192Y0192136D01*
X0343339Y0192008D01*
X0343482Y0191876D01*
X0343622Y0191741D01*
X0343759Y0191603D01*
X0343893Y0191461D01*
X0344023Y0191316D01*
X0344149Y0191167D01*
X0344272Y0191016D01*
X0344391Y0190862D01*
X0344506Y0190705D01*
X0344618Y0190545D01*
X0344725Y0190383D01*
X0344829Y0190218D01*
X0344928Y0190050D01*
X0345024Y0189880D01*
X0345115Y0189708D01*
X0345202Y0189534D01*
X0345284Y0189357D01*
X0345363Y0189179D01*
X0345437Y0188999D01*
X0345506Y0188817D01*
X0345572Y0188633D01*
X0345632Y0188448D01*
X0345688Y0188261D01*
X0345740Y0188073D01*
X0345787Y0187884D01*
X0345829Y0187694D01*
X0345867Y0187503D01*
X0345900Y0187311D01*
X0345928Y0187118D01*
X0345952Y0186925D01*
X0345971Y0186731D01*
X0345985Y0186537D01*
X0345995Y0186342D01*
X0345999Y0186147D01*
X0345999Y0185953D01*
X0345995Y0185758D01*
X0345985Y0185563D01*
X0345971Y0185369D01*
X0345952Y0185175D01*
X0345928Y0184982D01*
X0345900Y0184789D01*
X0345867Y0184597D01*
X0345829Y0184406D01*
X0345787Y0184216D01*
X0345740Y0184027D01*
X0345688Y0183839D01*
X0345632Y0183652D01*
X0345572Y0183467D01*
X0345506Y0183283D01*
X0345437Y0183101D01*
X0345363Y0182921D01*
X0345284Y0182743D01*
X0345202Y0182566D01*
X0345115Y0182392D01*
X0345024Y0182220D01*
X0344928Y0182050D01*
X0344829Y0181882D01*
X0344725Y0181717D01*
X0344618Y0181555D01*
X0344506Y0181395D01*
X0344391Y0181238D01*
X0344272Y0181084D01*
X0344149Y0180933D01*
X0344023Y0180784D01*
X0343893Y0180639D01*
X0343759Y0180497D01*
X0343622Y0180359D01*
X0343482Y0180224D01*
X0343339Y0180092D01*
X0343192Y0179964D01*
X0343042Y0179839D01*
X0342889Y0179718D01*
X0342734Y0179601D01*
X0342575Y0179487D01*
X0342414Y0179378D01*
X0342250Y0179273D01*
X0342084Y0179171D01*
X0341915Y0179074D01*
X0341744Y0178980D01*
X0341571Y0178891D01*
X0341396Y0178806D01*
X0341218Y0178726D01*
X0341039Y0178650D01*
X0340858Y0178578D01*
X0340675Y0178510D01*
X0340491Y0178448D01*
X0340305Y0178389D01*
X0340118Y0178335D01*
X0339929Y0178286D01*
X0339739Y0178241D01*
X0339549Y0178201D01*
X0339357Y0178166D01*
X0339165Y0178135D01*
X0338972Y0178109D01*
X0338778Y0178088D01*
X0338584Y0178071D01*
X0338390Y0178059D01*
X0338195Y0178052D01*
X0338000Y0178050D01*
X0318000Y0178050D01*
X0317805Y0178052D01*
X0317610Y0178059D01*
X0317416Y0178071D01*
X0317222Y0178088D01*
X0317028Y0178109D01*
X0316835Y0178135D01*
X0316643Y0178166D01*
X0316451Y0178201D01*
X0316261Y0178241D01*
X0316071Y0178286D01*
X0315882Y0178335D01*
X0315695Y0178389D01*
X0315509Y0178448D01*
X0315325Y0178510D01*
X0315142Y0178578D01*
X0314961Y0178650D01*
X0314782Y0178726D01*
X0314604Y0178806D01*
X0314429Y0178891D01*
X0314256Y0178980D01*
X0314085Y0179074D01*
X0313916Y0179171D01*
X0313750Y0179273D01*
X0313586Y0179378D01*
X0313425Y0179487D01*
X0313266Y0179601D01*
X0313111Y0179718D01*
X0312958Y0179839D01*
X0312808Y0179964D01*
X0312661Y0180092D01*
X0312518Y0180224D01*
X0312378Y0180359D01*
X0312241Y0180497D01*
X0312107Y0180639D01*
X0311977Y0180784D01*
X0311851Y0180933D01*
X0311728Y0181084D01*
X0311609Y0181238D01*
X0311494Y0181395D01*
X0311382Y0181555D01*
X0311275Y0181717D01*
X0311171Y0181882D01*
X0311072Y0182050D01*
X0310976Y0182220D01*
X0310885Y0182392D01*
X0310798Y0182566D01*
X0310716Y0182743D01*
X0310637Y0182921D01*
X0310563Y0183101D01*
X0310494Y0183283D01*
X0310428Y0183467D01*
X0310368Y0183652D01*
X0310312Y0183839D01*
X0310260Y0184027D01*
X0310213Y0184216D01*
X0310171Y0184406D01*
X0310133Y0184597D01*
X0310100Y0184789D01*
X0310072Y0184982D01*
X0310048Y0185175D01*
X0310029Y0185369D01*
X0310015Y0185563D01*
X0310005Y0185758D01*
X0310001Y0185953D01*
X0310001Y0186147D01*
X0310005Y0186342D01*
X0310015Y0186537D01*
X0310029Y0186731D01*
X0310048Y0186925D01*
X0310072Y0187118D01*
X0310100Y0187311D01*
X0310133Y0187503D01*
X0310171Y0187694D01*
X0310213Y0187884D01*
X0310260Y0188073D01*
X0310312Y0188261D01*
X0310368Y0188448D01*
X0310428Y0188633D01*
X0310494Y0188817D01*
X0310563Y0188999D01*
X0310637Y0189179D01*
X0310716Y0189357D01*
X0310798Y0189534D01*
X0310885Y0189708D01*
X0310976Y0189880D01*
X0311072Y0190050D01*
X0311171Y0190218D01*
X0311275Y0190383D01*
X0311382Y0190545D01*
X0311494Y0190705D01*
X0311609Y0190862D01*
X0311728Y0191016D01*
X0311851Y0191167D01*
X0311977Y0191316D01*
X0312107Y0191461D01*
X0312241Y0191603D01*
X0312378Y0191741D01*
X0312518Y0191876D01*
X0312661Y0192008D01*
X0312808Y0192136D01*
X0312958Y0192261D01*
X0313111Y0192382D01*
X0313266Y0192499D01*
X0313425Y0192613D01*
X0313586Y0192722D01*
X0313750Y0192827D01*
X0313916Y0192929D01*
X0314085Y0193026D01*
X0314256Y0193120D01*
X0314429Y0193209D01*
X0314604Y0193294D01*
X0314782Y0193374D01*
X0314961Y0193450D01*
X0315142Y0193522D01*
X0315325Y0193590D01*
X0315509Y0193652D01*
X0315695Y0193711D01*
X0315882Y0193765D01*
X0316071Y0193814D01*
X0316261Y0193859D01*
X0316451Y0193899D01*
X0316643Y0193934D01*
X0316835Y0193965D01*
X0317028Y0193991D01*
X0317222Y0194012D01*
X0317416Y0194029D01*
X0317610Y0194041D01*
X0317805Y0194048D01*
X0318000Y0194050D01*
X0368000Y0238050D02*
X0388000Y0238050D01*
X0388195Y0238052D01*
X0388390Y0238059D01*
X0388584Y0238071D01*
X0388778Y0238088D01*
X0388972Y0238109D01*
X0389165Y0238135D01*
X0389357Y0238166D01*
X0389549Y0238201D01*
X0389739Y0238241D01*
X0389929Y0238286D01*
X0390118Y0238335D01*
X0390305Y0238389D01*
X0390491Y0238448D01*
X0390675Y0238510D01*
X0390858Y0238578D01*
X0391039Y0238650D01*
X0391218Y0238726D01*
X0391396Y0238806D01*
X0391571Y0238891D01*
X0391744Y0238980D01*
X0391915Y0239074D01*
X0392084Y0239171D01*
X0392250Y0239273D01*
X0392414Y0239378D01*
X0392575Y0239487D01*
X0392734Y0239601D01*
X0392889Y0239718D01*
X0393042Y0239839D01*
X0393192Y0239964D01*
X0393339Y0240092D01*
X0393482Y0240224D01*
X0393622Y0240359D01*
X0393759Y0240497D01*
X0393893Y0240639D01*
X0394023Y0240784D01*
X0394149Y0240933D01*
X0394272Y0241084D01*
X0394391Y0241238D01*
X0394506Y0241395D01*
X0394618Y0241555D01*
X0394725Y0241717D01*
X0394829Y0241882D01*
X0394928Y0242050D01*
X0395024Y0242220D01*
X0395115Y0242392D01*
X0395202Y0242566D01*
X0395284Y0242743D01*
X0395363Y0242921D01*
X0395437Y0243101D01*
X0395506Y0243283D01*
X0395572Y0243467D01*
X0395632Y0243652D01*
X0395688Y0243839D01*
X0395740Y0244027D01*
X0395787Y0244216D01*
X0395829Y0244406D01*
X0395867Y0244597D01*
X0395900Y0244789D01*
X0395928Y0244982D01*
X0395952Y0245175D01*
X0395971Y0245369D01*
X0395985Y0245563D01*
X0395995Y0245758D01*
X0395999Y0245953D01*
X0395999Y0246147D01*
X0395995Y0246342D01*
X0395985Y0246537D01*
X0395971Y0246731D01*
X0395952Y0246925D01*
X0395928Y0247118D01*
X0395900Y0247311D01*
X0395867Y0247503D01*
X0395829Y0247694D01*
X0395787Y0247884D01*
X0395740Y0248073D01*
X0395688Y0248261D01*
X0395632Y0248448D01*
X0395572Y0248633D01*
X0395506Y0248817D01*
X0395437Y0248999D01*
X0395363Y0249179D01*
X0395284Y0249357D01*
X0395202Y0249534D01*
X0395115Y0249708D01*
X0395024Y0249880D01*
X0394928Y0250050D01*
X0394829Y0250218D01*
X0394725Y0250383D01*
X0394618Y0250545D01*
X0394506Y0250705D01*
X0394391Y0250862D01*
X0394272Y0251016D01*
X0394149Y0251167D01*
X0394023Y0251316D01*
X0393893Y0251461D01*
X0393759Y0251603D01*
X0393622Y0251741D01*
X0393482Y0251876D01*
X0393339Y0252008D01*
X0393192Y0252136D01*
X0393042Y0252261D01*
X0392889Y0252382D01*
X0392734Y0252499D01*
X0392575Y0252613D01*
X0392414Y0252722D01*
X0392250Y0252827D01*
X0392084Y0252929D01*
X0391915Y0253026D01*
X0391744Y0253120D01*
X0391571Y0253209D01*
X0391396Y0253294D01*
X0391218Y0253374D01*
X0391039Y0253450D01*
X0390858Y0253522D01*
X0390675Y0253590D01*
X0390491Y0253652D01*
X0390305Y0253711D01*
X0390118Y0253765D01*
X0389929Y0253814D01*
X0389739Y0253859D01*
X0389549Y0253899D01*
X0389357Y0253934D01*
X0389165Y0253965D01*
X0388972Y0253991D01*
X0388778Y0254012D01*
X0388584Y0254029D01*
X0388390Y0254041D01*
X0388195Y0254048D01*
X0388000Y0254050D01*
X0368000Y0254050D01*
X0367805Y0254048D01*
X0367610Y0254041D01*
X0367416Y0254029D01*
X0367222Y0254012D01*
X0367028Y0253991D01*
X0366835Y0253965D01*
X0366643Y0253934D01*
X0366451Y0253899D01*
X0366261Y0253859D01*
X0366071Y0253814D01*
X0365882Y0253765D01*
X0365695Y0253711D01*
X0365509Y0253652D01*
X0365325Y0253590D01*
X0365142Y0253522D01*
X0364961Y0253450D01*
X0364782Y0253374D01*
X0364604Y0253294D01*
X0364429Y0253209D01*
X0364256Y0253120D01*
X0364085Y0253026D01*
X0363916Y0252929D01*
X0363750Y0252827D01*
X0363586Y0252722D01*
X0363425Y0252613D01*
X0363266Y0252499D01*
X0363111Y0252382D01*
X0362958Y0252261D01*
X0362808Y0252136D01*
X0362661Y0252008D01*
X0362518Y0251876D01*
X0362378Y0251741D01*
X0362241Y0251603D01*
X0362107Y0251461D01*
X0361977Y0251316D01*
X0361851Y0251167D01*
X0361728Y0251016D01*
X0361609Y0250862D01*
X0361494Y0250705D01*
X0361382Y0250545D01*
X0361275Y0250383D01*
X0361171Y0250218D01*
X0361072Y0250050D01*
X0360976Y0249880D01*
X0360885Y0249708D01*
X0360798Y0249534D01*
X0360716Y0249357D01*
X0360637Y0249179D01*
X0360563Y0248999D01*
X0360494Y0248817D01*
X0360428Y0248633D01*
X0360368Y0248448D01*
X0360312Y0248261D01*
X0360260Y0248073D01*
X0360213Y0247884D01*
X0360171Y0247694D01*
X0360133Y0247503D01*
X0360100Y0247311D01*
X0360072Y0247118D01*
X0360048Y0246925D01*
X0360029Y0246731D01*
X0360015Y0246537D01*
X0360005Y0246342D01*
X0360001Y0246147D01*
X0360001Y0245953D01*
X0360005Y0245758D01*
X0360015Y0245563D01*
X0360029Y0245369D01*
X0360048Y0245175D01*
X0360072Y0244982D01*
X0360100Y0244789D01*
X0360133Y0244597D01*
X0360171Y0244406D01*
X0360213Y0244216D01*
X0360260Y0244027D01*
X0360312Y0243839D01*
X0360368Y0243652D01*
X0360428Y0243467D01*
X0360494Y0243283D01*
X0360563Y0243101D01*
X0360637Y0242921D01*
X0360716Y0242743D01*
X0360798Y0242566D01*
X0360885Y0242392D01*
X0360976Y0242220D01*
X0361072Y0242050D01*
X0361171Y0241882D01*
X0361275Y0241717D01*
X0361382Y0241555D01*
X0361494Y0241395D01*
X0361609Y0241238D01*
X0361728Y0241084D01*
X0361851Y0240933D01*
X0361977Y0240784D01*
X0362107Y0240639D01*
X0362241Y0240497D01*
X0362378Y0240359D01*
X0362518Y0240224D01*
X0362661Y0240092D01*
X0362808Y0239964D01*
X0362958Y0239839D01*
X0363111Y0239718D01*
X0363266Y0239601D01*
X0363425Y0239487D01*
X0363586Y0239378D01*
X0363750Y0239273D01*
X0363916Y0239171D01*
X0364085Y0239074D01*
X0364256Y0238980D01*
X0364429Y0238891D01*
X0364604Y0238806D01*
X0364782Y0238726D01*
X0364961Y0238650D01*
X0365142Y0238578D01*
X0365325Y0238510D01*
X0365509Y0238448D01*
X0365695Y0238389D01*
X0365882Y0238335D01*
X0366071Y0238286D01*
X0366261Y0238241D01*
X0366451Y0238201D01*
X0366643Y0238166D01*
X0366835Y0238135D01*
X0367028Y0238109D01*
X0367222Y0238088D01*
X0367416Y0238071D01*
X0367610Y0238059D01*
X0367805Y0238052D01*
X0368000Y0238050D01*
X0397000Y0221350D02*
X0397000Y0201350D01*
X0397002Y0201155D01*
X0397009Y0200960D01*
X0397021Y0200766D01*
X0397038Y0200572D01*
X0397059Y0200378D01*
X0397085Y0200185D01*
X0397116Y0199993D01*
X0397151Y0199801D01*
X0397191Y0199611D01*
X0397236Y0199421D01*
X0397285Y0199232D01*
X0397339Y0199045D01*
X0397398Y0198859D01*
X0397460Y0198675D01*
X0397528Y0198492D01*
X0397600Y0198311D01*
X0397676Y0198132D01*
X0397756Y0197954D01*
X0397841Y0197779D01*
X0397930Y0197606D01*
X0398024Y0197435D01*
X0398121Y0197266D01*
X0398223Y0197100D01*
X0398328Y0196936D01*
X0398437Y0196775D01*
X0398551Y0196616D01*
X0398668Y0196461D01*
X0398789Y0196308D01*
X0398914Y0196158D01*
X0399042Y0196011D01*
X0399174Y0195868D01*
X0399309Y0195728D01*
X0399447Y0195591D01*
X0399589Y0195457D01*
X0399734Y0195327D01*
X0399883Y0195201D01*
X0400034Y0195078D01*
X0400188Y0194959D01*
X0400345Y0194844D01*
X0400505Y0194732D01*
X0400667Y0194625D01*
X0400832Y0194521D01*
X0401000Y0194422D01*
X0401170Y0194326D01*
X0401342Y0194235D01*
X0401516Y0194148D01*
X0401693Y0194066D01*
X0401871Y0193987D01*
X0402051Y0193913D01*
X0402233Y0193844D01*
X0402417Y0193778D01*
X0402602Y0193718D01*
X0402789Y0193662D01*
X0402977Y0193610D01*
X0403166Y0193563D01*
X0403356Y0193521D01*
X0403547Y0193483D01*
X0403739Y0193450D01*
X0403932Y0193422D01*
X0404125Y0193398D01*
X0404319Y0193379D01*
X0404513Y0193365D01*
X0404708Y0193355D01*
X0404903Y0193351D01*
X0405097Y0193351D01*
X0405292Y0193355D01*
X0405487Y0193365D01*
X0405681Y0193379D01*
X0405875Y0193398D01*
X0406068Y0193422D01*
X0406261Y0193450D01*
X0406453Y0193483D01*
X0406644Y0193521D01*
X0406834Y0193563D01*
X0407023Y0193610D01*
X0407211Y0193662D01*
X0407398Y0193718D01*
X0407583Y0193778D01*
X0407767Y0193844D01*
X0407949Y0193913D01*
X0408129Y0193987D01*
X0408307Y0194066D01*
X0408484Y0194148D01*
X0408658Y0194235D01*
X0408830Y0194326D01*
X0409000Y0194422D01*
X0409168Y0194521D01*
X0409333Y0194625D01*
X0409495Y0194732D01*
X0409655Y0194844D01*
X0409812Y0194959D01*
X0409966Y0195078D01*
X0410117Y0195201D01*
X0410266Y0195327D01*
X0410411Y0195457D01*
X0410553Y0195591D01*
X0410691Y0195728D01*
X0410826Y0195868D01*
X0410958Y0196011D01*
X0411086Y0196158D01*
X0411211Y0196308D01*
X0411332Y0196461D01*
X0411449Y0196616D01*
X0411563Y0196775D01*
X0411672Y0196936D01*
X0411777Y0197100D01*
X0411879Y0197266D01*
X0411976Y0197435D01*
X0412070Y0197606D01*
X0412159Y0197779D01*
X0412244Y0197954D01*
X0412324Y0198132D01*
X0412400Y0198311D01*
X0412472Y0198492D01*
X0412540Y0198675D01*
X0412602Y0198859D01*
X0412661Y0199045D01*
X0412715Y0199232D01*
X0412764Y0199421D01*
X0412809Y0199611D01*
X0412849Y0199801D01*
X0412884Y0199993D01*
X0412915Y0200185D01*
X0412941Y0200378D01*
X0412962Y0200572D01*
X0412979Y0200766D01*
X0412991Y0200960D01*
X0412998Y0201155D01*
X0413000Y0201350D01*
X0413000Y0221350D01*
X0412998Y0221545D01*
X0412991Y0221740D01*
X0412979Y0221934D01*
X0412962Y0222128D01*
X0412941Y0222322D01*
X0412915Y0222515D01*
X0412884Y0222707D01*
X0412849Y0222899D01*
X0412809Y0223089D01*
X0412764Y0223279D01*
X0412715Y0223468D01*
X0412661Y0223655D01*
X0412602Y0223841D01*
X0412540Y0224025D01*
X0412472Y0224208D01*
X0412400Y0224389D01*
X0412324Y0224568D01*
X0412244Y0224746D01*
X0412159Y0224921D01*
X0412070Y0225094D01*
X0411976Y0225265D01*
X0411879Y0225434D01*
X0411777Y0225600D01*
X0411672Y0225764D01*
X0411563Y0225925D01*
X0411449Y0226084D01*
X0411332Y0226239D01*
X0411211Y0226392D01*
X0411086Y0226542D01*
X0410958Y0226689D01*
X0410826Y0226832D01*
X0410691Y0226972D01*
X0410553Y0227109D01*
X0410411Y0227243D01*
X0410266Y0227373D01*
X0410117Y0227499D01*
X0409966Y0227622D01*
X0409812Y0227741D01*
X0409655Y0227856D01*
X0409495Y0227968D01*
X0409333Y0228075D01*
X0409168Y0228179D01*
X0409000Y0228278D01*
X0408830Y0228374D01*
X0408658Y0228465D01*
X0408484Y0228552D01*
X0408307Y0228634D01*
X0408129Y0228713D01*
X0407949Y0228787D01*
X0407767Y0228856D01*
X0407583Y0228922D01*
X0407398Y0228982D01*
X0407211Y0229038D01*
X0407023Y0229090D01*
X0406834Y0229137D01*
X0406644Y0229179D01*
X0406453Y0229217D01*
X0406261Y0229250D01*
X0406068Y0229278D01*
X0405875Y0229302D01*
X0405681Y0229321D01*
X0405487Y0229335D01*
X0405292Y0229345D01*
X0405097Y0229349D01*
X0404903Y0229349D01*
X0404708Y0229345D01*
X0404513Y0229335D01*
X0404319Y0229321D01*
X0404125Y0229302D01*
X0403932Y0229278D01*
X0403739Y0229250D01*
X0403547Y0229217D01*
X0403356Y0229179D01*
X0403166Y0229137D01*
X0402977Y0229090D01*
X0402789Y0229038D01*
X0402602Y0228982D01*
X0402417Y0228922D01*
X0402233Y0228856D01*
X0402051Y0228787D01*
X0401871Y0228713D01*
X0401693Y0228634D01*
X0401516Y0228552D01*
X0401342Y0228465D01*
X0401170Y0228374D01*
X0401000Y0228278D01*
X0400832Y0228179D01*
X0400667Y0228075D01*
X0400505Y0227968D01*
X0400345Y0227856D01*
X0400188Y0227741D01*
X0400034Y0227622D01*
X0399883Y0227499D01*
X0399734Y0227373D01*
X0399589Y0227243D01*
X0399447Y0227109D01*
X0399309Y0226972D01*
X0399174Y0226832D01*
X0399042Y0226689D01*
X0398914Y0226542D01*
X0398789Y0226392D01*
X0398668Y0226239D01*
X0398551Y0226084D01*
X0398437Y0225925D01*
X0398328Y0225764D01*
X0398223Y0225600D01*
X0398121Y0225434D01*
X0398024Y0225265D01*
X0397930Y0225094D01*
X0397841Y0224921D01*
X0397756Y0224746D01*
X0397676Y0224568D01*
X0397600Y0224389D01*
X0397528Y0224208D01*
X0397460Y0224025D01*
X0397398Y0223841D01*
X0397339Y0223655D01*
X0397285Y0223468D01*
X0397236Y0223279D01*
X0397191Y0223089D01*
X0397151Y0222899D01*
X0397116Y0222707D01*
X0397085Y0222515D01*
X0397059Y0222322D01*
X0397038Y0222128D01*
X0397021Y0221934D01*
X0397009Y0221740D01*
X0397002Y0221545D01*
X0397000Y0221350D01*
X0436500Y0224550D02*
X0436500Y0217550D01*
X0436502Y0217490D01*
X0436507Y0217429D01*
X0436516Y0217370D01*
X0436529Y0217311D01*
X0436545Y0217252D01*
X0436565Y0217195D01*
X0436588Y0217140D01*
X0436615Y0217085D01*
X0436644Y0217033D01*
X0436677Y0216982D01*
X0436713Y0216933D01*
X0436751Y0216887D01*
X0436793Y0216843D01*
X0436837Y0216801D01*
X0436883Y0216763D01*
X0436932Y0216727D01*
X0436983Y0216694D01*
X0437035Y0216665D01*
X0437090Y0216638D01*
X0437145Y0216615D01*
X0437202Y0216595D01*
X0437261Y0216579D01*
X0437320Y0216566D01*
X0437379Y0216557D01*
X0437440Y0216552D01*
X0437500Y0216550D01*
X0439000Y0216550D01*
X0439500Y0217050D01*
X0458500Y0217050D01*
X0459000Y0216550D01*
X0460500Y0216550D01*
X0460560Y0216552D01*
X0460621Y0216557D01*
X0460680Y0216566D01*
X0460739Y0216579D01*
X0460798Y0216595D01*
X0460855Y0216615D01*
X0460910Y0216638D01*
X0460965Y0216665D01*
X0461017Y0216694D01*
X0461068Y0216727D01*
X0461117Y0216763D01*
X0461163Y0216801D01*
X0461207Y0216843D01*
X0461249Y0216887D01*
X0461287Y0216933D01*
X0461323Y0216982D01*
X0461356Y0217033D01*
X0461385Y0217085D01*
X0461412Y0217140D01*
X0461435Y0217195D01*
X0461455Y0217252D01*
X0461471Y0217311D01*
X0461484Y0217370D01*
X0461493Y0217429D01*
X0461498Y0217490D01*
X0461500Y0217550D01*
X0461500Y0224550D01*
X0461498Y0224610D01*
X0461493Y0224671D01*
X0461484Y0224730D01*
X0461471Y0224789D01*
X0461455Y0224848D01*
X0461435Y0224905D01*
X0461412Y0224960D01*
X0461385Y0225015D01*
X0461356Y0225067D01*
X0461323Y0225118D01*
X0461287Y0225167D01*
X0461249Y0225213D01*
X0461207Y0225257D01*
X0461163Y0225299D01*
X0461117Y0225337D01*
X0461068Y0225373D01*
X0461017Y0225406D01*
X0460965Y0225435D01*
X0460910Y0225462D01*
X0460855Y0225485D01*
X0460798Y0225505D01*
X0460739Y0225521D01*
X0460680Y0225534D01*
X0460621Y0225543D01*
X0460560Y0225548D01*
X0460500Y0225550D01*
X0459000Y0225550D01*
X0458500Y0225050D01*
X0439500Y0225050D01*
X0439000Y0225550D01*
X0437500Y0225550D01*
X0437440Y0225548D01*
X0437379Y0225543D01*
X0437320Y0225534D01*
X0437261Y0225521D01*
X0437202Y0225505D01*
X0437145Y0225485D01*
X0437090Y0225462D01*
X0437035Y0225435D01*
X0436983Y0225406D01*
X0436932Y0225373D01*
X0436883Y0225337D01*
X0436837Y0225299D01*
X0436793Y0225257D01*
X0436751Y0225213D01*
X0436713Y0225167D01*
X0436677Y0225118D01*
X0436644Y0225067D01*
X0436615Y0225015D01*
X0436588Y0224960D01*
X0436565Y0224905D01*
X0436545Y0224848D01*
X0436529Y0224789D01*
X0436516Y0224730D01*
X0436507Y0224671D01*
X0436502Y0224610D01*
X0436500Y0224550D01*
X0445500Y0172050D02*
X0450000Y0172050D01*
X0450002Y0171924D01*
X0450008Y0171799D01*
X0450018Y0171674D01*
X0450032Y0171549D01*
X0450049Y0171424D01*
X0450071Y0171300D01*
X0450096Y0171177D01*
X0450126Y0171055D01*
X0450159Y0170934D01*
X0450196Y0170814D01*
X0450236Y0170695D01*
X0450281Y0170578D01*
X0450329Y0170461D01*
X0450381Y0170347D01*
X0450436Y0170234D01*
X0450495Y0170123D01*
X0450557Y0170014D01*
X0450623Y0169907D01*
X0450692Y0169802D01*
X0450764Y0169699D01*
X0450839Y0169598D01*
X0450918Y0169500D01*
X0451000Y0169405D01*
X0451084Y0169312D01*
X0451172Y0169222D01*
X0451262Y0169134D01*
X0451355Y0169050D01*
X0451450Y0168968D01*
X0451548Y0168889D01*
X0451649Y0168814D01*
X0451752Y0168742D01*
X0451857Y0168673D01*
X0451964Y0168607D01*
X0452073Y0168545D01*
X0452184Y0168486D01*
X0452297Y0168431D01*
X0452411Y0168379D01*
X0452528Y0168331D01*
X0452645Y0168286D01*
X0452764Y0168246D01*
X0452884Y0168209D01*
X0453005Y0168176D01*
X0453127Y0168146D01*
X0453250Y0168121D01*
X0453374Y0168099D01*
X0453499Y0168082D01*
X0453624Y0168068D01*
X0453749Y0168058D01*
X0453874Y0168052D01*
X0454000Y0168050D01*
X0454126Y0168052D01*
X0454251Y0168058D01*
X0454376Y0168068D01*
X0454501Y0168082D01*
X0454626Y0168099D01*
X0454750Y0168121D01*
X0454873Y0168146D01*
X0454995Y0168176D01*
X0455116Y0168209D01*
X0455236Y0168246D01*
X0455355Y0168286D01*
X0455472Y0168331D01*
X0455589Y0168379D01*
X0455703Y0168431D01*
X0455816Y0168486D01*
X0455927Y0168545D01*
X0456036Y0168607D01*
X0456143Y0168673D01*
X0456248Y0168742D01*
X0456351Y0168814D01*
X0456452Y0168889D01*
X0456550Y0168968D01*
X0456645Y0169050D01*
X0456738Y0169134D01*
X0456828Y0169222D01*
X0456916Y0169312D01*
X0457000Y0169405D01*
X0457082Y0169500D01*
X0457161Y0169598D01*
X0457236Y0169699D01*
X0457308Y0169802D01*
X0457377Y0169907D01*
X0457443Y0170014D01*
X0457505Y0170123D01*
X0457564Y0170234D01*
X0457619Y0170347D01*
X0457671Y0170461D01*
X0457719Y0170578D01*
X0457764Y0170695D01*
X0457804Y0170814D01*
X0457841Y0170934D01*
X0457874Y0171055D01*
X0457904Y0171177D01*
X0457929Y0171300D01*
X0457951Y0171424D01*
X0457968Y0171549D01*
X0457982Y0171674D01*
X0457992Y0171799D01*
X0457998Y0171924D01*
X0458000Y0172050D01*
X0462500Y0172050D01*
X0462500Y0092050D01*
X0445500Y0092050D01*
X0445500Y0172050D01*
X0240000Y0263050D02*
X0220000Y0263050D01*
X0219805Y0263052D01*
X0219610Y0263059D01*
X0219416Y0263071D01*
X0219222Y0263088D01*
X0219028Y0263109D01*
X0218835Y0263135D01*
X0218643Y0263166D01*
X0218451Y0263201D01*
X0218261Y0263241D01*
X0218071Y0263286D01*
X0217882Y0263335D01*
X0217695Y0263389D01*
X0217509Y0263448D01*
X0217325Y0263510D01*
X0217142Y0263578D01*
X0216961Y0263650D01*
X0216782Y0263726D01*
X0216604Y0263806D01*
X0216429Y0263891D01*
X0216256Y0263980D01*
X0216085Y0264074D01*
X0215916Y0264171D01*
X0215750Y0264273D01*
X0215586Y0264378D01*
X0215425Y0264487D01*
X0215266Y0264601D01*
X0215111Y0264718D01*
X0214958Y0264839D01*
X0214808Y0264964D01*
X0214661Y0265092D01*
X0214518Y0265224D01*
X0214378Y0265359D01*
X0214241Y0265497D01*
X0214107Y0265639D01*
X0213977Y0265784D01*
X0213851Y0265933D01*
X0213728Y0266084D01*
X0213609Y0266238D01*
X0213494Y0266395D01*
X0213382Y0266555D01*
X0213275Y0266717D01*
X0213171Y0266882D01*
X0213072Y0267050D01*
X0212976Y0267220D01*
X0212885Y0267392D01*
X0212798Y0267566D01*
X0212716Y0267743D01*
X0212637Y0267921D01*
X0212563Y0268101D01*
X0212494Y0268283D01*
X0212428Y0268467D01*
X0212368Y0268652D01*
X0212312Y0268839D01*
X0212260Y0269027D01*
X0212213Y0269216D01*
X0212171Y0269406D01*
X0212133Y0269597D01*
X0212100Y0269789D01*
X0212072Y0269982D01*
X0212048Y0270175D01*
X0212029Y0270369D01*
X0212015Y0270563D01*
X0212005Y0270758D01*
X0212001Y0270953D01*
X0212001Y0271147D01*
X0212005Y0271342D01*
X0212015Y0271537D01*
X0212029Y0271731D01*
X0212048Y0271925D01*
X0212072Y0272118D01*
X0212100Y0272311D01*
X0212133Y0272503D01*
X0212171Y0272694D01*
X0212213Y0272884D01*
X0212260Y0273073D01*
X0212312Y0273261D01*
X0212368Y0273448D01*
X0212428Y0273633D01*
X0212494Y0273817D01*
X0212563Y0273999D01*
X0212637Y0274179D01*
X0212716Y0274357D01*
X0212798Y0274534D01*
X0212885Y0274708D01*
X0212976Y0274880D01*
X0213072Y0275050D01*
X0213171Y0275218D01*
X0213275Y0275383D01*
X0213382Y0275545D01*
X0213494Y0275705D01*
X0213609Y0275862D01*
X0213728Y0276016D01*
X0213851Y0276167D01*
X0213977Y0276316D01*
X0214107Y0276461D01*
X0214241Y0276603D01*
X0214378Y0276741D01*
X0214518Y0276876D01*
X0214661Y0277008D01*
X0214808Y0277136D01*
X0214958Y0277261D01*
X0215111Y0277382D01*
X0215266Y0277499D01*
X0215425Y0277613D01*
X0215586Y0277722D01*
X0215750Y0277827D01*
X0215916Y0277929D01*
X0216085Y0278026D01*
X0216256Y0278120D01*
X0216429Y0278209D01*
X0216604Y0278294D01*
X0216782Y0278374D01*
X0216961Y0278450D01*
X0217142Y0278522D01*
X0217325Y0278590D01*
X0217509Y0278652D01*
X0217695Y0278711D01*
X0217882Y0278765D01*
X0218071Y0278814D01*
X0218261Y0278859D01*
X0218451Y0278899D01*
X0218643Y0278934D01*
X0218835Y0278965D01*
X0219028Y0278991D01*
X0219222Y0279012D01*
X0219416Y0279029D01*
X0219610Y0279041D01*
X0219805Y0279048D01*
X0220000Y0279050D01*
X0240000Y0279050D01*
X0240195Y0279048D01*
X0240390Y0279041D01*
X0240584Y0279029D01*
X0240778Y0279012D01*
X0240972Y0278991D01*
X0241165Y0278965D01*
X0241357Y0278934D01*
X0241549Y0278899D01*
X0241739Y0278859D01*
X0241929Y0278814D01*
X0242118Y0278765D01*
X0242305Y0278711D01*
X0242491Y0278652D01*
X0242675Y0278590D01*
X0242858Y0278522D01*
X0243039Y0278450D01*
X0243218Y0278374D01*
X0243396Y0278294D01*
X0243571Y0278209D01*
X0243744Y0278120D01*
X0243915Y0278026D01*
X0244084Y0277929D01*
X0244250Y0277827D01*
X0244414Y0277722D01*
X0244575Y0277613D01*
X0244734Y0277499D01*
X0244889Y0277382D01*
X0245042Y0277261D01*
X0245192Y0277136D01*
X0245339Y0277008D01*
X0245482Y0276876D01*
X0245622Y0276741D01*
X0245759Y0276603D01*
X0245893Y0276461D01*
X0246023Y0276316D01*
X0246149Y0276167D01*
X0246272Y0276016D01*
X0246391Y0275862D01*
X0246506Y0275705D01*
X0246618Y0275545D01*
X0246725Y0275383D01*
X0246829Y0275218D01*
X0246928Y0275050D01*
X0247024Y0274880D01*
X0247115Y0274708D01*
X0247202Y0274534D01*
X0247284Y0274357D01*
X0247363Y0274179D01*
X0247437Y0273999D01*
X0247506Y0273817D01*
X0247572Y0273633D01*
X0247632Y0273448D01*
X0247688Y0273261D01*
X0247740Y0273073D01*
X0247787Y0272884D01*
X0247829Y0272694D01*
X0247867Y0272503D01*
X0247900Y0272311D01*
X0247928Y0272118D01*
X0247952Y0271925D01*
X0247971Y0271731D01*
X0247985Y0271537D01*
X0247995Y0271342D01*
X0247999Y0271147D01*
X0247999Y0270953D01*
X0247995Y0270758D01*
X0247985Y0270563D01*
X0247971Y0270369D01*
X0247952Y0270175D01*
X0247928Y0269982D01*
X0247900Y0269789D01*
X0247867Y0269597D01*
X0247829Y0269406D01*
X0247787Y0269216D01*
X0247740Y0269027D01*
X0247688Y0268839D01*
X0247632Y0268652D01*
X0247572Y0268467D01*
X0247506Y0268283D01*
X0247437Y0268101D01*
X0247363Y0267921D01*
X0247284Y0267743D01*
X0247202Y0267566D01*
X0247115Y0267392D01*
X0247024Y0267220D01*
X0246928Y0267050D01*
X0246829Y0266882D01*
X0246725Y0266717D01*
X0246618Y0266555D01*
X0246506Y0266395D01*
X0246391Y0266238D01*
X0246272Y0266084D01*
X0246149Y0265933D01*
X0246023Y0265784D01*
X0245893Y0265639D01*
X0245759Y0265497D01*
X0245622Y0265359D01*
X0245482Y0265224D01*
X0245339Y0265092D01*
X0245192Y0264964D01*
X0245042Y0264839D01*
X0244889Y0264718D01*
X0244734Y0264601D01*
X0244575Y0264487D01*
X0244414Y0264378D01*
X0244250Y0264273D01*
X0244084Y0264171D01*
X0243915Y0264074D01*
X0243744Y0263980D01*
X0243571Y0263891D01*
X0243396Y0263806D01*
X0243218Y0263726D01*
X0243039Y0263650D01*
X0242858Y0263578D01*
X0242675Y0263510D01*
X0242491Y0263448D01*
X0242305Y0263389D01*
X0242118Y0263335D01*
X0241929Y0263286D01*
X0241739Y0263241D01*
X0241549Y0263201D01*
X0241357Y0263166D01*
X0241165Y0263135D01*
X0240972Y0263109D01*
X0240778Y0263088D01*
X0240584Y0263071D01*
X0240390Y0263059D01*
X0240195Y0263052D01*
X0240000Y0263050D01*
X0238500Y0297050D02*
X0221500Y0297050D01*
X0221500Y0397050D01*
X0226000Y0397050D01*
X0226002Y0396924D01*
X0226008Y0396799D01*
X0226018Y0396674D01*
X0226032Y0396549D01*
X0226049Y0396424D01*
X0226071Y0396300D01*
X0226096Y0396177D01*
X0226126Y0396055D01*
X0226159Y0395934D01*
X0226196Y0395814D01*
X0226236Y0395695D01*
X0226281Y0395578D01*
X0226329Y0395461D01*
X0226381Y0395347D01*
X0226436Y0395234D01*
X0226495Y0395123D01*
X0226557Y0395014D01*
X0226623Y0394907D01*
X0226692Y0394802D01*
X0226764Y0394699D01*
X0226839Y0394598D01*
X0226918Y0394500D01*
X0227000Y0394405D01*
X0227084Y0394312D01*
X0227172Y0394222D01*
X0227262Y0394134D01*
X0227355Y0394050D01*
X0227450Y0393968D01*
X0227548Y0393889D01*
X0227649Y0393814D01*
X0227752Y0393742D01*
X0227857Y0393673D01*
X0227964Y0393607D01*
X0228073Y0393545D01*
X0228184Y0393486D01*
X0228297Y0393431D01*
X0228411Y0393379D01*
X0228528Y0393331D01*
X0228645Y0393286D01*
X0228764Y0393246D01*
X0228884Y0393209D01*
X0229005Y0393176D01*
X0229127Y0393146D01*
X0229250Y0393121D01*
X0229374Y0393099D01*
X0229499Y0393082D01*
X0229624Y0393068D01*
X0229749Y0393058D01*
X0229874Y0393052D01*
X0230000Y0393050D01*
X0230126Y0393052D01*
X0230251Y0393058D01*
X0230376Y0393068D01*
X0230501Y0393082D01*
X0230626Y0393099D01*
X0230750Y0393121D01*
X0230873Y0393146D01*
X0230995Y0393176D01*
X0231116Y0393209D01*
X0231236Y0393246D01*
X0231355Y0393286D01*
X0231472Y0393331D01*
X0231589Y0393379D01*
X0231703Y0393431D01*
X0231816Y0393486D01*
X0231927Y0393545D01*
X0232036Y0393607D01*
X0232143Y0393673D01*
X0232248Y0393742D01*
X0232351Y0393814D01*
X0232452Y0393889D01*
X0232550Y0393968D01*
X0232645Y0394050D01*
X0232738Y0394134D01*
X0232828Y0394222D01*
X0232916Y0394312D01*
X0233000Y0394405D01*
X0233082Y0394500D01*
X0233161Y0394598D01*
X0233236Y0394699D01*
X0233308Y0394802D01*
X0233377Y0394907D01*
X0233443Y0395014D01*
X0233505Y0395123D01*
X0233564Y0395234D01*
X0233619Y0395347D01*
X0233671Y0395461D01*
X0233719Y0395578D01*
X0233764Y0395695D01*
X0233804Y0395814D01*
X0233841Y0395934D01*
X0233874Y0396055D01*
X0233904Y0396177D01*
X0233929Y0396300D01*
X0233951Y0396424D01*
X0233968Y0396549D01*
X0233982Y0396674D01*
X0233992Y0396799D01*
X0233998Y0396924D01*
X0234000Y0397050D01*
X0238500Y0397050D01*
X0238500Y0297050D01*
X0120500Y0369550D02*
X0120500Y0371050D01*
X0120000Y0371550D01*
X0120000Y0390550D01*
X0120500Y0391050D01*
X0120500Y0392550D01*
X0120498Y0392610D01*
X0120493Y0392671D01*
X0120484Y0392730D01*
X0120471Y0392789D01*
X0120455Y0392848D01*
X0120435Y0392905D01*
X0120412Y0392960D01*
X0120385Y0393015D01*
X0120356Y0393067D01*
X0120323Y0393118D01*
X0120287Y0393167D01*
X0120249Y0393213D01*
X0120207Y0393257D01*
X0120163Y0393299D01*
X0120117Y0393337D01*
X0120068Y0393373D01*
X0120017Y0393406D01*
X0119965Y0393435D01*
X0119910Y0393462D01*
X0119855Y0393485D01*
X0119798Y0393505D01*
X0119739Y0393521D01*
X0119680Y0393534D01*
X0119621Y0393543D01*
X0119560Y0393548D01*
X0119500Y0393550D01*
X0112500Y0393550D01*
X0112440Y0393548D01*
X0112379Y0393543D01*
X0112320Y0393534D01*
X0112261Y0393521D01*
X0112202Y0393505D01*
X0112145Y0393485D01*
X0112090Y0393462D01*
X0112035Y0393435D01*
X0111983Y0393406D01*
X0111932Y0393373D01*
X0111883Y0393337D01*
X0111837Y0393299D01*
X0111793Y0393257D01*
X0111751Y0393213D01*
X0111713Y0393167D01*
X0111677Y0393118D01*
X0111644Y0393067D01*
X0111615Y0393015D01*
X0111588Y0392960D01*
X0111565Y0392905D01*
X0111545Y0392848D01*
X0111529Y0392789D01*
X0111516Y0392730D01*
X0111507Y0392671D01*
X0111502Y0392610D01*
X0111500Y0392550D01*
X0111500Y0391050D01*
X0112000Y0390550D01*
X0112000Y0371550D01*
X0111500Y0371050D01*
X0111500Y0369550D01*
X0111502Y0369490D01*
X0111507Y0369429D01*
X0111516Y0369370D01*
X0111529Y0369311D01*
X0111545Y0369252D01*
X0111565Y0369195D01*
X0111588Y0369140D01*
X0111615Y0369085D01*
X0111644Y0369033D01*
X0111677Y0368982D01*
X0111713Y0368933D01*
X0111751Y0368887D01*
X0111793Y0368843D01*
X0111837Y0368801D01*
X0111883Y0368763D01*
X0111932Y0368727D01*
X0111983Y0368694D01*
X0112035Y0368665D01*
X0112090Y0368638D01*
X0112145Y0368615D01*
X0112202Y0368595D01*
X0112261Y0368579D01*
X0112320Y0368566D01*
X0112379Y0368557D01*
X0112440Y0368552D01*
X0112500Y0368550D01*
X0119500Y0368550D01*
X0119560Y0368552D01*
X0119621Y0368557D01*
X0119680Y0368566D01*
X0119739Y0368579D01*
X0119798Y0368595D01*
X0119855Y0368615D01*
X0119910Y0368638D01*
X0119965Y0368665D01*
X0120017Y0368694D01*
X0120068Y0368727D01*
X0120117Y0368763D01*
X0120163Y0368801D01*
X0120207Y0368843D01*
X0120249Y0368887D01*
X0120287Y0368933D01*
X0120323Y0368982D01*
X0120356Y0369033D01*
X0120385Y0369085D01*
X0120412Y0369140D01*
X0120435Y0369195D01*
X0120455Y0369252D01*
X0120471Y0369311D01*
X0120484Y0369370D01*
X0120493Y0369429D01*
X0120498Y0369490D01*
X0120500Y0369550D01*
X0088500Y0369550D02*
X0088500Y0371050D01*
X0088000Y0371550D01*
X0088000Y0390550D01*
X0088500Y0391050D01*
X0088500Y0392550D01*
X0088498Y0392610D01*
X0088493Y0392671D01*
X0088484Y0392730D01*
X0088471Y0392789D01*
X0088455Y0392848D01*
X0088435Y0392905D01*
X0088412Y0392960D01*
X0088385Y0393015D01*
X0088356Y0393067D01*
X0088323Y0393118D01*
X0088287Y0393167D01*
X0088249Y0393213D01*
X0088207Y0393257D01*
X0088163Y0393299D01*
X0088117Y0393337D01*
X0088068Y0393373D01*
X0088017Y0393406D01*
X0087965Y0393435D01*
X0087910Y0393462D01*
X0087855Y0393485D01*
X0087798Y0393505D01*
X0087739Y0393521D01*
X0087680Y0393534D01*
X0087621Y0393543D01*
X0087560Y0393548D01*
X0087500Y0393550D01*
X0080500Y0393550D01*
X0080440Y0393548D01*
X0080379Y0393543D01*
X0080320Y0393534D01*
X0080261Y0393521D01*
X0080202Y0393505D01*
X0080145Y0393485D01*
X0080090Y0393462D01*
X0080035Y0393435D01*
X0079983Y0393406D01*
X0079932Y0393373D01*
X0079883Y0393337D01*
X0079837Y0393299D01*
X0079793Y0393257D01*
X0079751Y0393213D01*
X0079713Y0393167D01*
X0079677Y0393118D01*
X0079644Y0393067D01*
X0079615Y0393015D01*
X0079588Y0392960D01*
X0079565Y0392905D01*
X0079545Y0392848D01*
X0079529Y0392789D01*
X0079516Y0392730D01*
X0079507Y0392671D01*
X0079502Y0392610D01*
X0079500Y0392550D01*
X0079500Y0391050D01*
X0080000Y0390550D01*
X0080000Y0371550D01*
X0079500Y0371050D01*
X0079500Y0369550D01*
X0079502Y0369490D01*
X0079507Y0369429D01*
X0079516Y0369370D01*
X0079529Y0369311D01*
X0079545Y0369252D01*
X0079565Y0369195D01*
X0079588Y0369140D01*
X0079615Y0369085D01*
X0079644Y0369033D01*
X0079677Y0368982D01*
X0079713Y0368933D01*
X0079751Y0368887D01*
X0079793Y0368843D01*
X0079837Y0368801D01*
X0079883Y0368763D01*
X0079932Y0368727D01*
X0079983Y0368694D01*
X0080035Y0368665D01*
X0080090Y0368638D01*
X0080145Y0368615D01*
X0080202Y0368595D01*
X0080261Y0368579D01*
X0080320Y0368566D01*
X0080379Y0368557D01*
X0080440Y0368552D01*
X0080500Y0368550D01*
X0087500Y0368550D01*
X0087560Y0368552D01*
X0087621Y0368557D01*
X0087680Y0368566D01*
X0087739Y0368579D01*
X0087798Y0368595D01*
X0087855Y0368615D01*
X0087910Y0368638D01*
X0087965Y0368665D01*
X0088017Y0368694D01*
X0088068Y0368727D01*
X0088117Y0368763D01*
X0088163Y0368801D01*
X0088207Y0368843D01*
X0088249Y0368887D01*
X0088287Y0368933D01*
X0088323Y0368982D01*
X0088356Y0369033D01*
X0088385Y0369085D01*
X0088412Y0369140D01*
X0088435Y0369195D01*
X0088455Y0369252D01*
X0088471Y0369311D01*
X0088484Y0369370D01*
X0088493Y0369429D01*
X0088498Y0369490D01*
X0088500Y0369550D01*
X0220000Y0400050D02*
X0240000Y0400050D01*
X0240195Y0400052D01*
X0240390Y0400059D01*
X0240584Y0400071D01*
X0240778Y0400088D01*
X0240972Y0400109D01*
X0241165Y0400135D01*
X0241357Y0400166D01*
X0241549Y0400201D01*
X0241739Y0400241D01*
X0241929Y0400286D01*
X0242118Y0400335D01*
X0242305Y0400389D01*
X0242491Y0400448D01*
X0242675Y0400510D01*
X0242858Y0400578D01*
X0243039Y0400650D01*
X0243218Y0400726D01*
X0243396Y0400806D01*
X0243571Y0400891D01*
X0243744Y0400980D01*
X0243915Y0401074D01*
X0244084Y0401171D01*
X0244250Y0401273D01*
X0244414Y0401378D01*
X0244575Y0401487D01*
X0244734Y0401601D01*
X0244889Y0401718D01*
X0245042Y0401839D01*
X0245192Y0401964D01*
X0245339Y0402092D01*
X0245482Y0402224D01*
X0245622Y0402359D01*
X0245759Y0402497D01*
X0245893Y0402639D01*
X0246023Y0402784D01*
X0246149Y0402933D01*
X0246272Y0403084D01*
X0246391Y0403238D01*
X0246506Y0403395D01*
X0246618Y0403555D01*
X0246725Y0403717D01*
X0246829Y0403882D01*
X0246928Y0404050D01*
X0247024Y0404220D01*
X0247115Y0404392D01*
X0247202Y0404566D01*
X0247284Y0404743D01*
X0247363Y0404921D01*
X0247437Y0405101D01*
X0247506Y0405283D01*
X0247572Y0405467D01*
X0247632Y0405652D01*
X0247688Y0405839D01*
X0247740Y0406027D01*
X0247787Y0406216D01*
X0247829Y0406406D01*
X0247867Y0406597D01*
X0247900Y0406789D01*
X0247928Y0406982D01*
X0247952Y0407175D01*
X0247971Y0407369D01*
X0247985Y0407563D01*
X0247995Y0407758D01*
X0247999Y0407953D01*
X0247999Y0408147D01*
X0247995Y0408342D01*
X0247985Y0408537D01*
X0247971Y0408731D01*
X0247952Y0408925D01*
X0247928Y0409118D01*
X0247900Y0409311D01*
X0247867Y0409503D01*
X0247829Y0409694D01*
X0247787Y0409884D01*
X0247740Y0410073D01*
X0247688Y0410261D01*
X0247632Y0410448D01*
X0247572Y0410633D01*
X0247506Y0410817D01*
X0247437Y0410999D01*
X0247363Y0411179D01*
X0247284Y0411357D01*
X0247202Y0411534D01*
X0247115Y0411708D01*
X0247024Y0411880D01*
X0246928Y0412050D01*
X0246829Y0412218D01*
X0246725Y0412383D01*
X0246618Y0412545D01*
X0246506Y0412705D01*
X0246391Y0412862D01*
X0246272Y0413016D01*
X0246149Y0413167D01*
X0246023Y0413316D01*
X0245893Y0413461D01*
X0245759Y0413603D01*
X0245622Y0413741D01*
X0245482Y0413876D01*
X0245339Y0414008D01*
X0245192Y0414136D01*
X0245042Y0414261D01*
X0244889Y0414382D01*
X0244734Y0414499D01*
X0244575Y0414613D01*
X0244414Y0414722D01*
X0244250Y0414827D01*
X0244084Y0414929D01*
X0243915Y0415026D01*
X0243744Y0415120D01*
X0243571Y0415209D01*
X0243396Y0415294D01*
X0243218Y0415374D01*
X0243039Y0415450D01*
X0242858Y0415522D01*
X0242675Y0415590D01*
X0242491Y0415652D01*
X0242305Y0415711D01*
X0242118Y0415765D01*
X0241929Y0415814D01*
X0241739Y0415859D01*
X0241549Y0415899D01*
X0241357Y0415934D01*
X0241165Y0415965D01*
X0240972Y0415991D01*
X0240778Y0416012D01*
X0240584Y0416029D01*
X0240390Y0416041D01*
X0240195Y0416048D01*
X0240000Y0416050D01*
X0220000Y0416050D01*
X0219805Y0416048D01*
X0219610Y0416041D01*
X0219416Y0416029D01*
X0219222Y0416012D01*
X0219028Y0415991D01*
X0218835Y0415965D01*
X0218643Y0415934D01*
X0218451Y0415899D01*
X0218261Y0415859D01*
X0218071Y0415814D01*
X0217882Y0415765D01*
X0217695Y0415711D01*
X0217509Y0415652D01*
X0217325Y0415590D01*
X0217142Y0415522D01*
X0216961Y0415450D01*
X0216782Y0415374D01*
X0216604Y0415294D01*
X0216429Y0415209D01*
X0216256Y0415120D01*
X0216085Y0415026D01*
X0215916Y0414929D01*
X0215750Y0414827D01*
X0215586Y0414722D01*
X0215425Y0414613D01*
X0215266Y0414499D01*
X0215111Y0414382D01*
X0214958Y0414261D01*
X0214808Y0414136D01*
X0214661Y0414008D01*
X0214518Y0413876D01*
X0214378Y0413741D01*
X0214241Y0413603D01*
X0214107Y0413461D01*
X0213977Y0413316D01*
X0213851Y0413167D01*
X0213728Y0413016D01*
X0213609Y0412862D01*
X0213494Y0412705D01*
X0213382Y0412545D01*
X0213275Y0412383D01*
X0213171Y0412218D01*
X0213072Y0412050D01*
X0212976Y0411880D01*
X0212885Y0411708D01*
X0212798Y0411534D01*
X0212716Y0411357D01*
X0212637Y0411179D01*
X0212563Y0410999D01*
X0212494Y0410817D01*
X0212428Y0410633D01*
X0212368Y0410448D01*
X0212312Y0410261D01*
X0212260Y0410073D01*
X0212213Y0409884D01*
X0212171Y0409694D01*
X0212133Y0409503D01*
X0212100Y0409311D01*
X0212072Y0409118D01*
X0212048Y0408925D01*
X0212029Y0408731D01*
X0212015Y0408537D01*
X0212005Y0408342D01*
X0212001Y0408147D01*
X0212001Y0407953D01*
X0212005Y0407758D01*
X0212015Y0407563D01*
X0212029Y0407369D01*
X0212048Y0407175D01*
X0212072Y0406982D01*
X0212100Y0406789D01*
X0212133Y0406597D01*
X0212171Y0406406D01*
X0212213Y0406216D01*
X0212260Y0406027D01*
X0212312Y0405839D01*
X0212368Y0405652D01*
X0212428Y0405467D01*
X0212494Y0405283D01*
X0212563Y0405101D01*
X0212637Y0404921D01*
X0212716Y0404743D01*
X0212798Y0404566D01*
X0212885Y0404392D01*
X0212976Y0404220D01*
X0213072Y0404050D01*
X0213171Y0403882D01*
X0213275Y0403717D01*
X0213382Y0403555D01*
X0213494Y0403395D01*
X0213609Y0403238D01*
X0213728Y0403084D01*
X0213851Y0402933D01*
X0213977Y0402784D01*
X0214107Y0402639D01*
X0214241Y0402497D01*
X0214378Y0402359D01*
X0214518Y0402224D01*
X0214661Y0402092D01*
X0214808Y0401964D01*
X0214958Y0401839D01*
X0215111Y0401718D01*
X0215266Y0401601D01*
X0215425Y0401487D01*
X0215586Y0401378D01*
X0215750Y0401273D01*
X0215916Y0401171D01*
X0216085Y0401074D01*
X0216256Y0400980D01*
X0216429Y0400891D01*
X0216604Y0400806D01*
X0216782Y0400726D01*
X0216961Y0400650D01*
X0217142Y0400578D01*
X0217325Y0400510D01*
X0217509Y0400448D01*
X0217695Y0400389D01*
X0217882Y0400335D01*
X0218071Y0400286D01*
X0218261Y0400241D01*
X0218451Y0400201D01*
X0218643Y0400166D01*
X0218835Y0400135D01*
X0219028Y0400109D01*
X0219222Y0400088D01*
X0219416Y0400071D01*
X0219610Y0400059D01*
X0219805Y0400052D01*
X0220000Y0400050D01*
X0312500Y0418550D02*
X0312500Y0425550D01*
X0312502Y0425610D01*
X0312507Y0425671D01*
X0312516Y0425730D01*
X0312529Y0425789D01*
X0312545Y0425848D01*
X0312565Y0425905D01*
X0312588Y0425960D01*
X0312615Y0426015D01*
X0312644Y0426067D01*
X0312677Y0426118D01*
X0312713Y0426167D01*
X0312751Y0426213D01*
X0312793Y0426257D01*
X0312837Y0426299D01*
X0312883Y0426337D01*
X0312932Y0426373D01*
X0312983Y0426406D01*
X0313035Y0426435D01*
X0313090Y0426462D01*
X0313145Y0426485D01*
X0313202Y0426505D01*
X0313261Y0426521D01*
X0313320Y0426534D01*
X0313379Y0426543D01*
X0313440Y0426548D01*
X0313500Y0426550D01*
X0315000Y0426550D01*
X0315500Y0426050D01*
X0334500Y0426050D01*
X0335000Y0426550D01*
X0336500Y0426550D01*
X0336560Y0426548D01*
X0336621Y0426543D01*
X0336680Y0426534D01*
X0336739Y0426521D01*
X0336798Y0426505D01*
X0336855Y0426485D01*
X0336910Y0426462D01*
X0336965Y0426435D01*
X0337017Y0426406D01*
X0337068Y0426373D01*
X0337117Y0426337D01*
X0337163Y0426299D01*
X0337207Y0426257D01*
X0337249Y0426213D01*
X0337287Y0426167D01*
X0337323Y0426118D01*
X0337356Y0426067D01*
X0337385Y0426015D01*
X0337412Y0425960D01*
X0337435Y0425905D01*
X0337455Y0425848D01*
X0337471Y0425789D01*
X0337484Y0425730D01*
X0337493Y0425671D01*
X0337498Y0425610D01*
X0337500Y0425550D01*
X0337500Y0418550D01*
X0337498Y0418490D01*
X0337493Y0418429D01*
X0337484Y0418370D01*
X0337471Y0418311D01*
X0337455Y0418252D01*
X0337435Y0418195D01*
X0337412Y0418140D01*
X0337385Y0418085D01*
X0337356Y0418033D01*
X0337323Y0417982D01*
X0337287Y0417933D01*
X0337249Y0417887D01*
X0337207Y0417843D01*
X0337163Y0417801D01*
X0337117Y0417763D01*
X0337068Y0417727D01*
X0337017Y0417694D01*
X0336965Y0417665D01*
X0336910Y0417638D01*
X0336855Y0417615D01*
X0336798Y0417595D01*
X0336739Y0417579D01*
X0336680Y0417566D01*
X0336621Y0417557D01*
X0336560Y0417552D01*
X0336500Y0417550D01*
X0335000Y0417550D01*
X0334500Y0418050D01*
X0315500Y0418050D01*
X0315000Y0417550D01*
X0313500Y0417550D01*
X0313440Y0417552D01*
X0313379Y0417557D01*
X0313320Y0417566D01*
X0313261Y0417579D01*
X0313202Y0417595D01*
X0313145Y0417615D01*
X0313090Y0417638D01*
X0313035Y0417665D01*
X0312983Y0417694D01*
X0312932Y0417727D01*
X0312883Y0417763D01*
X0312837Y0417801D01*
X0312793Y0417843D01*
X0312751Y0417887D01*
X0312713Y0417933D01*
X0312677Y0417982D01*
X0312644Y0418033D01*
X0312615Y0418085D01*
X0312588Y0418140D01*
X0312565Y0418195D01*
X0312545Y0418252D01*
X0312529Y0418311D01*
X0312516Y0418370D01*
X0312507Y0418429D01*
X0312502Y0418490D01*
X0312500Y0418550D01*
X0446500Y0417050D02*
X0446500Y0337050D01*
X0463500Y0337050D01*
X0463500Y0417050D01*
X0459000Y0417050D01*
X0458998Y0416924D01*
X0458992Y0416799D01*
X0458982Y0416674D01*
X0458968Y0416549D01*
X0458951Y0416424D01*
X0458929Y0416300D01*
X0458904Y0416177D01*
X0458874Y0416055D01*
X0458841Y0415934D01*
X0458804Y0415814D01*
X0458764Y0415695D01*
X0458719Y0415578D01*
X0458671Y0415461D01*
X0458619Y0415347D01*
X0458564Y0415234D01*
X0458505Y0415123D01*
X0458443Y0415014D01*
X0458377Y0414907D01*
X0458308Y0414802D01*
X0458236Y0414699D01*
X0458161Y0414598D01*
X0458082Y0414500D01*
X0458000Y0414405D01*
X0457916Y0414312D01*
X0457828Y0414222D01*
X0457738Y0414134D01*
X0457645Y0414050D01*
X0457550Y0413968D01*
X0457452Y0413889D01*
X0457351Y0413814D01*
X0457248Y0413742D01*
X0457143Y0413673D01*
X0457036Y0413607D01*
X0456927Y0413545D01*
X0456816Y0413486D01*
X0456703Y0413431D01*
X0456589Y0413379D01*
X0456472Y0413331D01*
X0456355Y0413286D01*
X0456236Y0413246D01*
X0456116Y0413209D01*
X0455995Y0413176D01*
X0455873Y0413146D01*
X0455750Y0413121D01*
X0455626Y0413099D01*
X0455501Y0413082D01*
X0455376Y0413068D01*
X0455251Y0413058D01*
X0455126Y0413052D01*
X0455000Y0413050D01*
X0454874Y0413052D01*
X0454749Y0413058D01*
X0454624Y0413068D01*
X0454499Y0413082D01*
X0454374Y0413099D01*
X0454250Y0413121D01*
X0454127Y0413146D01*
X0454005Y0413176D01*
X0453884Y0413209D01*
X0453764Y0413246D01*
X0453645Y0413286D01*
X0453528Y0413331D01*
X0453411Y0413379D01*
X0453297Y0413431D01*
X0453184Y0413486D01*
X0453073Y0413545D01*
X0452964Y0413607D01*
X0452857Y0413673D01*
X0452752Y0413742D01*
X0452649Y0413814D01*
X0452548Y0413889D01*
X0452450Y0413968D01*
X0452355Y0414050D01*
X0452262Y0414134D01*
X0452172Y0414222D01*
X0452084Y0414312D01*
X0452000Y0414405D01*
X0451918Y0414500D01*
X0451839Y0414598D01*
X0451764Y0414699D01*
X0451692Y0414802D01*
X0451623Y0414907D01*
X0451557Y0415014D01*
X0451495Y0415123D01*
X0451436Y0415234D01*
X0451381Y0415347D01*
X0451329Y0415461D01*
X0451281Y0415578D01*
X0451236Y0415695D01*
X0451196Y0415814D01*
X0451159Y0415934D01*
X0451126Y0416055D01*
X0451096Y0416177D01*
X0451071Y0416300D01*
X0451049Y0416424D01*
X0451032Y0416549D01*
X0451018Y0416674D01*
X0451008Y0416799D01*
X0451002Y0416924D01*
X0451000Y0417050D01*
X0446500Y0417050D01*
X0531500Y0425850D02*
X0531500Y0385250D01*
X0531500Y0375850D02*
X0531500Y0368550D01*
X0548500Y0368550D01*
X0548500Y0405850D01*
X0548500Y0415350D02*
X0548500Y0443550D01*
X0545000Y0443550D01*
X0535000Y0443550D01*
X0531500Y0443550D01*
X0531500Y0435250D01*
X0535000Y0443550D02*
X0535000Y0449550D01*
X0538420Y0449550D01*
X0538420Y0447550D01*
X0541580Y0447550D01*
X0541580Y0449550D01*
X0545000Y0449550D01*
X0545000Y0443550D01*
X0571500Y0443550D02*
X0571500Y0435250D01*
X0571500Y0443550D02*
X0575000Y0443550D01*
X0585000Y0443550D01*
X0588500Y0443550D01*
X0588500Y0415350D01*
X0588500Y0405850D02*
X0588500Y0368550D01*
X0571500Y0368550D01*
X0571500Y0375850D01*
X0571500Y0385250D02*
X0571500Y0425850D01*
X0575000Y0443550D02*
X0575000Y0449550D01*
X0578420Y0449550D01*
X0578420Y0447550D01*
X0581580Y0447550D01*
X0581580Y0449550D01*
X0585000Y0449550D01*
X0585000Y0443550D01*
X0604000Y0411050D02*
X0604000Y0391050D01*
X0604002Y0390855D01*
X0604009Y0390660D01*
X0604021Y0390466D01*
X0604038Y0390272D01*
X0604059Y0390078D01*
X0604085Y0389885D01*
X0604116Y0389693D01*
X0604151Y0389501D01*
X0604191Y0389311D01*
X0604236Y0389121D01*
X0604285Y0388932D01*
X0604339Y0388745D01*
X0604398Y0388559D01*
X0604460Y0388375D01*
X0604528Y0388192D01*
X0604600Y0388011D01*
X0604676Y0387832D01*
X0604756Y0387654D01*
X0604841Y0387479D01*
X0604930Y0387306D01*
X0605024Y0387135D01*
X0605121Y0386966D01*
X0605223Y0386800D01*
X0605328Y0386636D01*
X0605437Y0386475D01*
X0605551Y0386316D01*
X0605668Y0386161D01*
X0605789Y0386008D01*
X0605914Y0385858D01*
X0606042Y0385711D01*
X0606174Y0385568D01*
X0606309Y0385428D01*
X0606447Y0385291D01*
X0606589Y0385157D01*
X0606734Y0385027D01*
X0606883Y0384901D01*
X0607034Y0384778D01*
X0607188Y0384659D01*
X0607345Y0384544D01*
X0607505Y0384432D01*
X0607667Y0384325D01*
X0607832Y0384221D01*
X0608000Y0384122D01*
X0608170Y0384026D01*
X0608342Y0383935D01*
X0608516Y0383848D01*
X0608693Y0383766D01*
X0608871Y0383687D01*
X0609051Y0383613D01*
X0609233Y0383544D01*
X0609417Y0383478D01*
X0609602Y0383418D01*
X0609789Y0383362D01*
X0609977Y0383310D01*
X0610166Y0383263D01*
X0610356Y0383221D01*
X0610547Y0383183D01*
X0610739Y0383150D01*
X0610932Y0383122D01*
X0611125Y0383098D01*
X0611319Y0383079D01*
X0611513Y0383065D01*
X0611708Y0383055D01*
X0611903Y0383051D01*
X0612097Y0383051D01*
X0612292Y0383055D01*
X0612487Y0383065D01*
X0612681Y0383079D01*
X0612875Y0383098D01*
X0613068Y0383122D01*
X0613261Y0383150D01*
X0613453Y0383183D01*
X0613644Y0383221D01*
X0613834Y0383263D01*
X0614023Y0383310D01*
X0614211Y0383362D01*
X0614398Y0383418D01*
X0614583Y0383478D01*
X0614767Y0383544D01*
X0614949Y0383613D01*
X0615129Y0383687D01*
X0615307Y0383766D01*
X0615484Y0383848D01*
X0615658Y0383935D01*
X0615830Y0384026D01*
X0616000Y0384122D01*
X0616168Y0384221D01*
X0616333Y0384325D01*
X0616495Y0384432D01*
X0616655Y0384544D01*
X0616812Y0384659D01*
X0616966Y0384778D01*
X0617117Y0384901D01*
X0617266Y0385027D01*
X0617411Y0385157D01*
X0617553Y0385291D01*
X0617691Y0385428D01*
X0617826Y0385568D01*
X0617958Y0385711D01*
X0618086Y0385858D01*
X0618211Y0386008D01*
X0618332Y0386161D01*
X0618449Y0386316D01*
X0618563Y0386475D01*
X0618672Y0386636D01*
X0618777Y0386800D01*
X0618879Y0386966D01*
X0618976Y0387135D01*
X0619070Y0387306D01*
X0619159Y0387479D01*
X0619244Y0387654D01*
X0619324Y0387832D01*
X0619400Y0388011D01*
X0619472Y0388192D01*
X0619540Y0388375D01*
X0619602Y0388559D01*
X0619661Y0388745D01*
X0619715Y0388932D01*
X0619764Y0389121D01*
X0619809Y0389311D01*
X0619849Y0389501D01*
X0619884Y0389693D01*
X0619915Y0389885D01*
X0619941Y0390078D01*
X0619962Y0390272D01*
X0619979Y0390466D01*
X0619991Y0390660D01*
X0619998Y0390855D01*
X0620000Y0391050D01*
X0620000Y0411050D01*
X0619998Y0411245D01*
X0619991Y0411440D01*
X0619979Y0411634D01*
X0619962Y0411828D01*
X0619941Y0412022D01*
X0619915Y0412215D01*
X0619884Y0412407D01*
X0619849Y0412599D01*
X0619809Y0412789D01*
X0619764Y0412979D01*
X0619715Y0413168D01*
X0619661Y0413355D01*
X0619602Y0413541D01*
X0619540Y0413725D01*
X0619472Y0413908D01*
X0619400Y0414089D01*
X0619324Y0414268D01*
X0619244Y0414446D01*
X0619159Y0414621D01*
X0619070Y0414794D01*
X0618976Y0414965D01*
X0618879Y0415134D01*
X0618777Y0415300D01*
X0618672Y0415464D01*
X0618563Y0415625D01*
X0618449Y0415784D01*
X0618332Y0415939D01*
X0618211Y0416092D01*
X0618086Y0416242D01*
X0617958Y0416389D01*
X0617826Y0416532D01*
X0617691Y0416672D01*
X0617553Y0416809D01*
X0617411Y0416943D01*
X0617266Y0417073D01*
X0617117Y0417199D01*
X0616966Y0417322D01*
X0616812Y0417441D01*
X0616655Y0417556D01*
X0616495Y0417668D01*
X0616333Y0417775D01*
X0616168Y0417879D01*
X0616000Y0417978D01*
X0615830Y0418074D01*
X0615658Y0418165D01*
X0615484Y0418252D01*
X0615307Y0418334D01*
X0615129Y0418413D01*
X0614949Y0418487D01*
X0614767Y0418556D01*
X0614583Y0418622D01*
X0614398Y0418682D01*
X0614211Y0418738D01*
X0614023Y0418790D01*
X0613834Y0418837D01*
X0613644Y0418879D01*
X0613453Y0418917D01*
X0613261Y0418950D01*
X0613068Y0418978D01*
X0612875Y0419002D01*
X0612681Y0419021D01*
X0612487Y0419035D01*
X0612292Y0419045D01*
X0612097Y0419049D01*
X0611903Y0419049D01*
X0611708Y0419045D01*
X0611513Y0419035D01*
X0611319Y0419021D01*
X0611125Y0419002D01*
X0610932Y0418978D01*
X0610739Y0418950D01*
X0610547Y0418917D01*
X0610356Y0418879D01*
X0610166Y0418837D01*
X0609977Y0418790D01*
X0609789Y0418738D01*
X0609602Y0418682D01*
X0609417Y0418622D01*
X0609233Y0418556D01*
X0609051Y0418487D01*
X0608871Y0418413D01*
X0608693Y0418334D01*
X0608516Y0418252D01*
X0608342Y0418165D01*
X0608170Y0418074D01*
X0608000Y0417978D01*
X0607832Y0417879D01*
X0607667Y0417775D01*
X0607505Y0417668D01*
X0607345Y0417556D01*
X0607188Y0417441D01*
X0607034Y0417322D01*
X0606883Y0417199D01*
X0606734Y0417073D01*
X0606589Y0416943D01*
X0606447Y0416809D01*
X0606309Y0416672D01*
X0606174Y0416532D01*
X0606042Y0416389D01*
X0605914Y0416242D01*
X0605789Y0416092D01*
X0605668Y0415939D01*
X0605551Y0415784D01*
X0605437Y0415625D01*
X0605328Y0415464D01*
X0605223Y0415300D01*
X0605121Y0415134D01*
X0605024Y0414965D01*
X0604930Y0414794D01*
X0604841Y0414621D01*
X0604756Y0414446D01*
X0604676Y0414268D01*
X0604600Y0414089D01*
X0604528Y0413908D01*
X0604460Y0413725D01*
X0604398Y0413541D01*
X0604339Y0413355D01*
X0604285Y0413168D01*
X0604236Y0412979D01*
X0604191Y0412789D01*
X0604151Y0412599D01*
X0604116Y0412407D01*
X0604085Y0412215D01*
X0604059Y0412022D01*
X0604038Y0411828D01*
X0604021Y0411634D01*
X0604009Y0411440D01*
X0604002Y0411245D01*
X0604000Y0411050D01*
D12*
X0625402Y0409584D02*
X0626536Y0408450D01*
X0628805Y0408450D01*
X0629939Y0409584D01*
X0632400Y0408450D02*
X0636937Y0412987D01*
X0636937Y0414122D01*
X0635803Y0415256D01*
X0633534Y0415256D01*
X0632400Y0414122D01*
X0629939Y0414122D02*
X0628805Y0415256D01*
X0626536Y0415256D01*
X0625402Y0414122D01*
X0625402Y0409584D01*
X0632400Y0408450D02*
X0636937Y0408450D01*
X0602935Y0434950D02*
X0598398Y0434950D01*
X0602935Y0439487D01*
X0602935Y0440622D01*
X0601801Y0441756D01*
X0599532Y0441756D01*
X0598398Y0440622D01*
X0595937Y0440622D02*
X0595937Y0438353D01*
X0594803Y0437219D01*
X0591400Y0437219D01*
X0591400Y0434950D02*
X0591400Y0441756D01*
X0594803Y0441756D01*
X0595937Y0440622D01*
X0562935Y0434950D02*
X0558398Y0434950D01*
X0560667Y0434950D02*
X0560667Y0441756D01*
X0558398Y0439487D01*
X0555937Y0438353D02*
X0554803Y0437219D01*
X0551400Y0437219D01*
X0551400Y0434950D02*
X0551400Y0441756D01*
X0554803Y0441756D01*
X0555937Y0440622D01*
X0555937Y0438353D01*
X0492935Y0398950D02*
X0488398Y0398950D01*
X0490667Y0398950D02*
X0490667Y0405756D01*
X0488398Y0403487D01*
X0485937Y0405756D02*
X0485937Y0400084D01*
X0484803Y0398950D01*
X0482534Y0398950D01*
X0481400Y0400084D01*
X0481400Y0405756D01*
X0332435Y0428950D02*
X0327898Y0428950D01*
X0330167Y0428950D02*
X0330167Y0435756D01*
X0327898Y0433487D01*
X0325437Y0432353D02*
X0324303Y0431219D01*
X0320900Y0431219D01*
X0323169Y0431219D02*
X0325437Y0428950D01*
X0325437Y0432353D02*
X0325437Y0434622D01*
X0324303Y0435756D01*
X0320900Y0435756D01*
X0320900Y0428950D01*
X0262737Y0408450D02*
X0258200Y0408450D01*
X0260469Y0408450D02*
X0260469Y0415256D01*
X0258200Y0412987D01*
X0255739Y0414122D02*
X0254605Y0415256D01*
X0252336Y0415256D01*
X0251202Y0414122D01*
X0251202Y0409584D01*
X0252336Y0408450D01*
X0254605Y0408450D01*
X0255739Y0409584D01*
X0257400Y0385756D02*
X0257400Y0380084D01*
X0258534Y0378950D01*
X0260803Y0378950D01*
X0261937Y0380084D01*
X0261937Y0385756D01*
X0264398Y0384622D02*
X0265532Y0385756D01*
X0267801Y0385756D01*
X0268935Y0384622D01*
X0268935Y0383487D01*
X0264398Y0378950D01*
X0268935Y0378950D01*
X0136435Y0387084D02*
X0135301Y0385950D01*
X0133032Y0385950D01*
X0131898Y0387084D01*
X0129437Y0385950D02*
X0127169Y0388219D01*
X0128303Y0388219D02*
X0124900Y0388219D01*
X0124900Y0385950D02*
X0124900Y0392756D01*
X0128303Y0392756D01*
X0129437Y0391622D01*
X0129437Y0389353D01*
X0128303Y0388219D01*
X0131898Y0391622D02*
X0133032Y0392756D01*
X0135301Y0392756D01*
X0136435Y0391622D01*
X0136435Y0390487D01*
X0135301Y0389353D01*
X0136435Y0388219D01*
X0136435Y0387084D01*
X0135301Y0389353D02*
X0134167Y0389353D01*
X0104435Y0390487D02*
X0099898Y0385950D01*
X0104435Y0385950D01*
X0104435Y0390487D02*
X0104435Y0391622D01*
X0103301Y0392756D01*
X0101032Y0392756D01*
X0099898Y0391622D01*
X0097437Y0391622D02*
X0097437Y0389353D01*
X0096303Y0388219D01*
X0092900Y0388219D01*
X0095169Y0388219D02*
X0097437Y0385950D01*
X0092900Y0385950D02*
X0092900Y0392756D01*
X0096303Y0392756D01*
X0097437Y0391622D01*
X0250202Y0279122D02*
X0250202Y0274584D01*
X0251336Y0273450D01*
X0253605Y0273450D01*
X0254739Y0274584D01*
X0257200Y0274584D02*
X0258334Y0273450D01*
X0260603Y0273450D01*
X0261737Y0274584D01*
X0261737Y0275719D01*
X0260603Y0276853D01*
X0259469Y0276853D01*
X0260603Y0276853D02*
X0261737Y0277987D01*
X0261737Y0279122D01*
X0260603Y0280256D01*
X0258334Y0280256D01*
X0257200Y0279122D01*
X0254739Y0279122D02*
X0253605Y0280256D01*
X0251336Y0280256D01*
X0250202Y0279122D01*
X0256400Y0247956D02*
X0256400Y0242284D01*
X0257534Y0241150D01*
X0259803Y0241150D01*
X0260937Y0242284D01*
X0260937Y0247956D01*
X0263398Y0246822D02*
X0264532Y0247956D01*
X0266801Y0247956D01*
X0267935Y0246822D01*
X0267935Y0245687D01*
X0266801Y0244553D01*
X0267935Y0243419D01*
X0267935Y0242284D01*
X0266801Y0241150D01*
X0264532Y0241150D01*
X0263398Y0242284D01*
X0265667Y0244553D02*
X0266801Y0244553D01*
X0298402Y0252584D02*
X0299536Y0251450D01*
X0301805Y0251450D01*
X0302939Y0252584D01*
X0305400Y0252584D02*
X0306534Y0251450D01*
X0308803Y0251450D01*
X0309937Y0252584D01*
X0309937Y0254853D01*
X0308803Y0255987D01*
X0307669Y0255987D01*
X0305400Y0254853D01*
X0305400Y0258256D01*
X0309937Y0258256D01*
X0302939Y0257122D02*
X0301805Y0258256D01*
X0299536Y0258256D01*
X0298402Y0257122D01*
X0298402Y0252584D01*
X0355402Y0258584D02*
X0356536Y0257450D01*
X0358805Y0257450D01*
X0359939Y0258584D01*
X0362400Y0260853D02*
X0365803Y0264256D01*
X0365803Y0257450D01*
X0366937Y0260853D02*
X0362400Y0260853D01*
X0359939Y0263122D02*
X0358805Y0264256D01*
X0356536Y0264256D01*
X0355402Y0263122D01*
X0355402Y0258584D01*
X0398702Y0237122D02*
X0398702Y0232584D01*
X0399836Y0231450D01*
X0402105Y0231450D01*
X0403239Y0232584D01*
X0405700Y0232584D02*
X0406834Y0231450D01*
X0409103Y0231450D01*
X0410237Y0232584D01*
X0410237Y0233719D01*
X0409103Y0234853D01*
X0405700Y0234853D01*
X0405700Y0232584D01*
X0405700Y0234853D02*
X0407969Y0237122D01*
X0410237Y0238256D01*
X0403239Y0237122D02*
X0402105Y0238256D01*
X0399836Y0238256D01*
X0398702Y0237122D01*
X0390301Y0223756D02*
X0386898Y0220353D01*
X0391435Y0220353D01*
X0390301Y0216950D02*
X0390301Y0223756D01*
X0384437Y0223756D02*
X0384437Y0218084D01*
X0383303Y0216950D01*
X0381034Y0216950D01*
X0379900Y0218084D01*
X0379900Y0223756D01*
X0326937Y0203256D02*
X0326937Y0202122D01*
X0322400Y0197584D01*
X0322400Y0196450D01*
X0319939Y0197584D02*
X0318805Y0196450D01*
X0316536Y0196450D01*
X0315402Y0197584D01*
X0315402Y0202122D01*
X0316536Y0203256D01*
X0318805Y0203256D01*
X0319939Y0202122D01*
X0322400Y0203256D02*
X0326937Y0203256D01*
X0261737Y0171822D02*
X0261737Y0170687D01*
X0260603Y0169553D01*
X0258334Y0169553D01*
X0257200Y0170687D01*
X0257200Y0171822D01*
X0258334Y0172956D01*
X0260603Y0172956D01*
X0261737Y0171822D01*
X0260603Y0169553D02*
X0261737Y0168419D01*
X0261737Y0167284D01*
X0260603Y0166150D01*
X0258334Y0166150D01*
X0257200Y0167284D01*
X0257200Y0168419D01*
X0258334Y0169553D01*
X0254739Y0171822D02*
X0253605Y0172956D01*
X0251336Y0172956D01*
X0250202Y0171822D01*
X0250202Y0167284D01*
X0251336Y0166150D01*
X0253605Y0166150D01*
X0254739Y0167284D01*
X0256400Y0136756D02*
X0256400Y0131084D01*
X0257534Y0129950D01*
X0259803Y0129950D01*
X0260937Y0131084D01*
X0260937Y0136756D01*
X0263398Y0133353D02*
X0266801Y0133353D01*
X0267935Y0132219D01*
X0267935Y0131084D01*
X0266801Y0129950D01*
X0264532Y0129950D01*
X0263398Y0131084D01*
X0263398Y0133353D01*
X0265667Y0135622D01*
X0267935Y0136756D01*
X0445900Y0227950D02*
X0445900Y0234756D01*
X0449303Y0234756D01*
X0450437Y0233622D01*
X0450437Y0231353D01*
X0449303Y0230219D01*
X0445900Y0230219D01*
X0448169Y0230219D02*
X0450437Y0227950D01*
X0452898Y0231353D02*
X0457435Y0231353D01*
X0456301Y0234756D02*
X0452898Y0231353D01*
X0456301Y0227950D02*
X0456301Y0234756D01*
X0479400Y0160756D02*
X0479400Y0155084D01*
X0480534Y0153950D01*
X0482803Y0153950D01*
X0483937Y0155084D01*
X0483937Y0160756D01*
X0486398Y0160756D02*
X0486398Y0157353D01*
X0488667Y0158487D01*
X0489801Y0158487D01*
X0490935Y0157353D01*
X0490935Y0155084D01*
X0489801Y0153950D01*
X0487532Y0153950D01*
X0486398Y0155084D01*
X0486398Y0160756D02*
X0490935Y0160756D01*
D13*
X0037000Y0047050D02*
X0037000Y0046050D01*
X0037000Y0047050D02*
X0015000Y0047050D01*
X0005000Y0057050D01*
X0005000Y0395050D01*
X0015000Y0405050D01*
X0037000Y0405050D01*
X0037000Y0406050D01*
D14*
X0039800Y0399715D02*
X0039800Y0396646D01*
X0039800Y0398181D02*
X0035196Y0398181D01*
X0036731Y0396646D01*
X0036731Y0054715D02*
X0035963Y0054715D01*
X0035196Y0053948D01*
X0035196Y0052413D01*
X0035963Y0051646D01*
X0035963Y0050111D02*
X0035196Y0049344D01*
X0035196Y0047809D01*
X0035963Y0047042D01*
X0035963Y0050111D02*
X0036731Y0050111D01*
X0039800Y0047042D01*
X0039800Y0050111D01*
X0039800Y0051646D02*
X0036731Y0054715D01*
X0039800Y0054715D02*
X0039800Y0051646D01*
M02*
