%
M48
M72
T01C0.0276
T02C0.0315
T03C0.0320
T04C0.0354
%
T01
X5000Y37425
X5000Y35865
X5000Y34305
X5750Y32705
X6700Y40805
X22016Y40805
X23984Y40805
X30500Y24089
X33784Y18605
X31816Y18605
X30500Y22121
X22016Y16585
X11500Y23385
X12000Y21825
X12500Y20265
X13000Y18705
X10500Y15585
X10500Y14025
X8500Y12465
X13000Y14905
X11000Y24945
X10500Y26505
X10000Y28065
X9500Y29625
X17500Y24505
X17000Y23505
X22016Y27105
X23984Y27105
X23984Y16585
X40500Y20151
X40500Y22119
X36816Y24605
X38784Y24605
X61200Y41089
X61200Y39121
T02
X53500Y38055
X54500Y41055
X53500Y43055
X57500Y43055
X58500Y41055
X57500Y38055
T03
X36800Y22105
X36800Y21105
X36800Y20105
X24500Y35205
X24500Y34205
X24500Y33205
X24500Y32205
X24500Y31205
X24500Y30205
X21500Y30205
X21500Y31205
X21500Y32205
X21500Y33205
X21500Y34205
X21500Y35205
X21500Y36205
X21500Y37205
X21500Y38205
X21500Y39205
X24500Y39205
X24500Y38205
X24500Y37205
X24500Y36205
X33800Y22105
X33800Y21105
X33800Y20105
X24500Y18505
X24500Y19505
X24500Y20505
X24500Y21505
X21500Y24505
X21500Y23505
X21500Y22505
X21500Y21505
X21500Y20505
X21500Y19505
X21500Y18505
X21500Y14705
X21500Y13705
X21500Y12705
X21500Y11705
X21500Y10705
X21500Y9705
X21500Y8705
X21500Y7705
X21500Y6705
X21500Y25505
X24500Y25505
X24500Y24505
X24500Y23505
X24500Y22505
X24500Y14705
X24500Y13705
X24500Y12705
X24500Y11705
X24500Y10705
X24500Y9705
X24500Y8705
X24500Y7705
X24500Y6705
X24500Y5705
X21500Y5705
X46900Y9705
X46900Y10705
X46900Y11705
X46900Y12705
X46900Y13705
X46900Y14705
X46900Y15705
X46900Y16705
X43900Y16705
X43900Y15705
X43900Y14705
X43900Y13705
X43900Y12705
X43900Y11705
X43900Y10705
X43900Y9705
X36800Y23105
X33800Y23105
X47000Y34205
X47000Y35205
X47000Y36205
X47000Y37205
X47000Y38205
X47000Y39205
X47000Y40205
X47000Y41205
X44000Y41205
X44000Y40205
X44000Y39205
X44000Y38205
X44000Y37205
X44000Y36205
X44000Y35205
X44000Y34205
T04
X8400Y36105
X11600Y36105
X11600Y40105
X8400Y40105
X30500Y42205
X42900Y22105
X46900Y22105
X34500Y42205
M30
