%
M48
M72
T01C0.0236
T02C0.0276
T03C0.0315
T04C0.0320
T05C0.0354
T06C0.0360
T07C0.0787
%
T01
X5500Y38985
X9500Y34305
X9500Y35865
T02
X9500Y39121
X9500Y41089
X38000Y39121
X48516Y37055
X50484Y37055
X38000Y41089
T03
X6000Y34305
X4800Y34305
T04
X18500Y42105
X18500Y39105
X15500Y36812
X14793Y36105
X15500Y35398
X31000Y35398
X30293Y36105
X31000Y36812
X40500Y35398
X39793Y36105
X40500Y36812
X33500Y39105
X30500Y39105
X10500Y25012
X9793Y24305
X10500Y23598
X23500Y28812
X22793Y28105
X23500Y27398
X26500Y25012
X25793Y24305
X26500Y23598
X23000Y22355
X16500Y19812
X15793Y19105
X16500Y18398
X33000Y18398
X32293Y19105
X33000Y19812
X55500Y19812
X54793Y19105
X55500Y18398
X38500Y23598
X37793Y24305
X38500Y25012
X23000Y19355
X35500Y20105
X35500Y23105
X44300Y35805
X44000Y37605
X44000Y40605
X52500Y32105
X52500Y29105
X44300Y32805
X33500Y42105
X30500Y42105
X59500Y24605
X59500Y27605
T05
X10500Y32605
X13500Y42105
X17500Y33605
X27000Y35605
X36500Y37605
X27000Y39605
X23500Y38105
X21500Y36305
X21500Y32305
X14000Y31105
X10500Y28605
X14000Y27105
X13500Y25005
X17500Y26605
X27500Y31105
X18500Y17105
X13500Y17105
X9500Y17105
X9500Y13105
X13500Y13105
X18500Y13105
X27000Y13105
X31000Y13105
X35500Y13105
X35500Y17105
X47500Y23105
X55500Y17105
X55500Y13105
X51500Y13105
X47500Y13105
X47500Y17105
X47500Y19105
X51500Y21055
X55500Y23605
X51500Y17105
X43500Y23605
X38500Y27605
X29500Y23105
X27000Y17105
X29500Y19105
X31000Y17105
X31500Y25105
X27500Y27105
X31500Y29105
X48500Y33105
X55500Y27605
X43500Y27605
X48500Y29105
X38500Y31605
X36500Y33605
X23500Y42105
X13500Y38105
X17500Y29605
X17500Y22605
X13500Y21005
X51500Y25055
T06
X48500Y39105
X48500Y42105
X53500Y42105
X53500Y39105
T07
X57457Y38605
X57457Y37043
X57457Y40168
M30
