G75*
%MOIN*%
%OFA0B0*%
%FSLAX25Y25*%
%IPPOS*%
%LPD*%
%AMOC8*
5,1,8,0,0,1.08239X$1,22.5*
%
%ADD10C,0.10000*%
%ADD11C,0.08600*%
%ADD12C,0.11811*%
%ADD13C,0.05200*%
%ADD14C,0.07600*%
%ADD15R,0.32500X0.07500*%
%ADD16C,0.05362*%
%ADD17C,0.05000*%
%ADD18C,0.06150*%
%ADD19C,0.03200*%
%ADD20C,0.04000*%
D10*
X0485157Y0370550D03*
X0504843Y0370550D03*
X0380000Y0391207D03*
X0380000Y0410893D03*
X0095000Y0410893D03*
X0095000Y0391207D03*
D11*
X0135000Y0381050D03*
X0185000Y0391050D03*
X0215000Y0363050D03*
X0235000Y0381050D03*
X0270000Y0396050D03*
X0305000Y0391050D03*
X0335000Y0391050D03*
X0365000Y0376050D03*
X0365000Y0336050D03*
X0385000Y0316050D03*
X0385000Y0276050D03*
X0435000Y0276050D03*
X0485000Y0291050D03*
X0525000Y0291050D03*
X0555000Y0276050D03*
X0595000Y0276050D03*
X0595000Y0246050D03*
X0555000Y0236050D03*
X0515000Y0250550D03*
X0475000Y0231050D03*
X0435000Y0236050D03*
X0475000Y0191050D03*
X0475000Y0171050D03*
X0515000Y0171050D03*
X0555000Y0171050D03*
X0555000Y0131050D03*
X0515000Y0131050D03*
X0475000Y0131050D03*
X0515000Y0210550D03*
X0355000Y0201050D03*
X0355000Y0171050D03*
X0310000Y0171050D03*
X0295000Y0191050D03*
X0270000Y0171050D03*
X0230000Y0193550D03*
X0230000Y0223550D03*
X0175000Y0226050D03*
X0135000Y0210050D03*
X0135000Y0171050D03*
X0095000Y0171050D03*
X0095000Y0131050D03*
X0135000Y0131050D03*
X0185000Y0131050D03*
X0185000Y0171050D03*
X0270000Y0131050D03*
X0310000Y0131050D03*
X0355000Y0131050D03*
X0355000Y0231050D03*
X0315000Y0251050D03*
X0295000Y0231050D03*
X0275000Y0271050D03*
X0315000Y0291050D03*
X0275000Y0311050D03*
X0215000Y0323050D03*
X0175000Y0336050D03*
X0140000Y0311050D03*
X0175000Y0296050D03*
X0140000Y0271050D03*
X0135000Y0250050D03*
X0175000Y0266050D03*
X0105000Y0286050D03*
X0105000Y0326050D03*
X0135000Y0421050D03*
X0185000Y0421050D03*
X0235000Y0421050D03*
X0305000Y0421050D03*
X0335000Y0421050D03*
X0270000Y0356050D03*
X0440000Y0376050D03*
X0443000Y0358050D03*
X0485000Y0331050D03*
X0443000Y0328050D03*
X0525000Y0321050D03*
X0440000Y0406050D03*
D12*
X0574567Y0401675D03*
X0574567Y0386050D03*
X0574567Y0370425D03*
D13*
X0405000Y0368121D03*
X0397929Y0361050D03*
X0405000Y0353979D03*
X0310000Y0353979D03*
X0302929Y0361050D03*
X0310000Y0368121D03*
X0235000Y0288121D03*
X0227929Y0281050D03*
X0235000Y0273979D03*
X0265000Y0250121D03*
X0257929Y0243050D03*
X0265000Y0235979D03*
X0322929Y0191050D03*
X0330000Y0198121D03*
X0330000Y0183979D03*
X0385000Y0235979D03*
X0377929Y0243050D03*
X0385000Y0250121D03*
X0547929Y0191050D03*
X0555000Y0198121D03*
X0555000Y0183979D03*
X0165000Y0183979D03*
X0157929Y0191050D03*
X0165000Y0198121D03*
X0105000Y0235979D03*
X0097929Y0243050D03*
X0105000Y0250121D03*
X0155000Y0353979D03*
X0147929Y0361050D03*
X0155000Y0368121D03*
D14*
X0485000Y0391050D03*
X0485000Y0421050D03*
X0535000Y0421050D03*
X0535000Y0391050D03*
D15*
X0024000Y0062250D03*
X0024000Y0077850D03*
X0024000Y0093450D03*
X0024000Y0109050D03*
X0024000Y0124650D03*
X0024000Y0140250D03*
X0024000Y0155850D03*
X0024000Y0171450D03*
X0024000Y0187050D03*
X0024000Y0202650D03*
X0024000Y0218250D03*
X0024000Y0233850D03*
X0024000Y0249450D03*
X0024000Y0265050D03*
X0024000Y0280650D03*
X0024000Y0296250D03*
X0024000Y0311850D03*
X0024000Y0327450D03*
X0024000Y0343050D03*
X0024000Y0358650D03*
X0024000Y0374250D03*
X0024000Y0389850D03*
D16*
X0055000Y0389850D03*
X0095000Y0358650D03*
X0095000Y0343050D03*
D17*
X0060000Y0343050D01*
X0048000Y0343050D01*
X0024000Y0343050D01*
X0024000Y0358650D02*
X0095000Y0358650D01*
X0055000Y0389850D02*
X0024000Y0389850D01*
D18*
X0048000Y0343050D03*
X0060000Y0343050D03*
D19*
X0105000Y0326050D02*
X0106400Y0326050D01*
X0105000Y0326050D02*
X0105000Y0381050D01*
X0095000Y0391050D01*
X0095000Y0391207D01*
X0095000Y0410893D02*
X0105157Y0410893D01*
X0135000Y0381050D01*
X0135000Y0366050D01*
X0140000Y0361050D01*
X0147929Y0361050D01*
X0155000Y0368121D02*
X0185000Y0368121D01*
X0185000Y0391050D01*
X0195000Y0401050D01*
X0260000Y0401050D01*
X0265000Y0406050D01*
X0275000Y0406050D01*
X0300000Y0431050D01*
X0310000Y0431050D01*
X0340000Y0401050D01*
X0415000Y0401050D01*
X0440000Y0376050D01*
X0425000Y0376050D02*
X0443000Y0358050D01*
X0425000Y0376050D02*
X0405000Y0376050D01*
X0365000Y0376050D01*
X0360000Y0391050D02*
X0355000Y0391050D01*
X0345000Y0381050D01*
X0305000Y0381050D01*
X0305000Y0391050D01*
X0305000Y0381050D02*
X0285000Y0381050D01*
X0285000Y0391050D01*
X0280000Y0396050D01*
X0270000Y0396050D01*
X0285000Y0381050D02*
X0285000Y0371050D01*
X0295000Y0361050D01*
X0302929Y0361050D01*
X0335000Y0391050D02*
X0305000Y0421050D01*
X0335000Y0421050D02*
X0360000Y0421050D01*
X0370000Y0411050D01*
X0405157Y0411050D01*
X0380000Y0410893D01*
X0425157Y0410893D01*
X0430000Y0406050D01*
X0440000Y0406050D01*
X0460000Y0386050D01*
X0460000Y0329050D01*
X0459000Y0328050D01*
X0443000Y0328050D01*
X0460000Y0329050D02*
X0460000Y0301050D01*
X0435000Y0276050D01*
X0460000Y0261050D02*
X0460000Y0222050D01*
X0475000Y0191050D02*
X0515000Y0191050D01*
X0515000Y0210550D01*
X0515000Y0191050D02*
X0547929Y0191050D01*
X0555000Y0183979D02*
X0555000Y0171050D01*
X0515000Y0171050D01*
X0475000Y0171050D02*
X0475000Y0191050D01*
X0555000Y0171050D02*
X0570000Y0171050D01*
X0595000Y0196050D01*
X0595000Y0246050D01*
X0525000Y0291050D02*
X0505000Y0291050D01*
X0505000Y0365893D01*
X0504843Y0370550D01*
X0574442Y0370550D01*
X0574567Y0370425D01*
X0535000Y0391050D02*
X0535000Y0401050D01*
X0535625Y0401675D01*
X0574567Y0401675D01*
X0535000Y0401050D02*
X0535000Y0421050D01*
X0485000Y0421050D02*
X0485000Y0391050D01*
X0485157Y0390893D01*
X0485157Y0370550D01*
X0410000Y0411050D02*
X0405157Y0411050D01*
X0380000Y0391207D02*
X0360157Y0391207D01*
X0360000Y0391050D01*
X0390000Y0361050D02*
X0385000Y0356050D01*
X0385000Y0336050D01*
X0365000Y0336050D01*
X0385000Y0336050D02*
X0385000Y0316050D01*
X0390000Y0361050D02*
X0397929Y0361050D01*
X0405000Y0368121D02*
X0405000Y0376050D01*
X0485000Y0291050D02*
X0460000Y0261050D01*
X0485000Y0291050D02*
X0505000Y0291050D01*
X0377929Y0243050D02*
X0372000Y0243050D01*
X0370000Y0241050D01*
X0370000Y0166050D01*
X0297400Y0093450D01*
X0024000Y0093450D01*
X0026700Y0063050D02*
X0312000Y0063050D01*
X0225000Y0131250D02*
X0224800Y0131050D01*
X0185000Y0131050D01*
X0187900Y0131250D01*
X0220000Y0151050D02*
X0245000Y0176050D01*
X0245000Y0236050D01*
X0252000Y0243050D01*
X0257929Y0243050D01*
X0265000Y0235979D02*
X0265000Y0192050D01*
X0255000Y0182050D01*
X0255000Y0161050D01*
X0225200Y0131250D01*
X0225000Y0131250D01*
X0220000Y0151050D02*
X0085000Y0151050D01*
X0074200Y0140250D01*
X0024000Y0140250D01*
X0095000Y0171050D02*
X0115000Y0171050D01*
X0135000Y0191050D01*
X0135000Y0210050D01*
X0158300Y0226050D01*
X0175000Y0226050D01*
X0160000Y0246050D02*
X0235000Y0246050D01*
X0250000Y0261050D01*
X0250000Y0273979D01*
X0235000Y0273979D01*
X0227929Y0281050D02*
X0175000Y0281050D01*
X0175000Y0296050D01*
X0175000Y0281050D02*
X0150000Y0281050D01*
X0140000Y0271050D01*
X0144000Y0261050D02*
X0160000Y0246050D01*
X0144000Y0261050D02*
X0119000Y0261050D01*
X0105000Y0276050D01*
X0105000Y0286050D01*
X0090000Y0291050D02*
X0090000Y0276050D01*
X0115000Y0251050D01*
X0115000Y0211050D01*
X0106600Y0202650D01*
X0024000Y0202650D01*
X0070000Y0252050D02*
X0079000Y0243050D01*
X0097929Y0243050D01*
X0070000Y0252050D02*
X0070000Y0271050D01*
X0060000Y0281050D01*
X0059600Y0280650D01*
X0024000Y0280650D01*
X0090000Y0291050D02*
X0105000Y0306050D01*
X0105000Y0326050D01*
X0185000Y0368121D02*
X0195000Y0368121D01*
X0200071Y0363050D01*
X0215000Y0363050D01*
X0235000Y0381050D02*
X0235000Y0336050D01*
X0250000Y0321050D01*
X0250000Y0273979D01*
X0265000Y0250121D02*
X0273929Y0259050D01*
X0283000Y0259050D01*
X0315000Y0291050D01*
X0315000Y0251050D02*
X0315000Y0191050D01*
X0295000Y0191050D01*
X0275000Y0171050D01*
X0270000Y0171050D01*
X0310000Y0171050D02*
X0330000Y0171050D01*
X0330000Y0183979D01*
X0322929Y0191050D02*
X0315000Y0191050D01*
X0330000Y0171050D02*
X0355000Y0171050D01*
X0355000Y0201050D01*
X0230000Y0193550D02*
X0207500Y0171050D01*
X0185000Y0171050D01*
X0165000Y0171050D01*
X0165000Y0183979D01*
X0157929Y0191050D02*
X0135000Y0191050D01*
X0135000Y0171050D02*
X0165000Y0171050D01*
X0168000Y0404050D02*
X0142000Y0404050D01*
X0135000Y0411050D01*
X0135000Y0421050D01*
X0168000Y0404050D02*
X0185000Y0421050D01*
X0235000Y0421050D01*
D20*
X0385071Y0236050D02*
X0435000Y0236050D01*
X0460000Y0222050D02*
X0460000Y0211050D01*
X0312000Y0063050D01*
X0355000Y0131050D02*
X0385000Y0161050D01*
X0385000Y0235979D01*
X0385071Y0236050D01*
M02*
