%
M48
M72
T01C0.0354
T02C0.0433
T03C0.1495
%
T01
X33200Y2600
X30892Y6025
X26058Y6025
X21225Y6025
X16392Y6025
X11558Y6025
X6750Y6250
X11558Y11725
X12308Y9775
X16392Y11725
X17142Y9775
X21225Y11725
X21975Y9775
X26058Y11725
X26808Y9775
X30892Y11725
X31642Y9775
X35750Y6250
X35750Y15250
X31642Y15475
X26808Y15475
X21975Y15475
X17142Y15475
X12308Y15475
X6750Y15250
X9000Y2600
T02
X2600Y9100
X35100Y2600
X38600Y15250
T03
X2100Y2100
X41100Y2100
X2100Y16100
X41100Y16100
M30
