%
M48
M72
T01C0.0394
T02C0.0433
T03C0.0590
T04C0.1495
%
T01
X18600Y21600
X20600Y21600
X42600Y18600
X30600Y18600
X30600Y3600
X42600Y3600
T02
X30600Y21600
X26600Y21600
X23600Y21600
X16100Y21600
X12100Y21600
X9100Y21600
X5100Y21600
X2100Y21600
X33600Y21600
X36600Y21600
X41100Y21600
X45600Y21600
X48600Y21600
T03
X18600Y16600
X24600Y16600
X39600Y3600
X33600Y3600
X26600Y3600
X20600Y3600
T04
X5725Y6975
X46975Y6975
X5725Y18225
X46975Y18225
M30
