G75*
%MOIN*%
%OFA0B0*%
%FSLAX25Y25*%
%IPPOS*%
%LPD*%
%AMOC8*
5,1,8,0,0,1.08239X$1,22.5*
%
%ADD10C,0.09400*%
%ADD11C,0.06000*%
%ADD12R,0.33300X0.08300*%
%ADD13C,0.10800*%
%ADD14C,0.04762*%
D10*
X0097000Y0092550D03*
X0137000Y0092550D03*
X0157000Y0092550D03*
X0157000Y0066050D03*
X0197000Y0066050D03*
X0197000Y0092550D03*
X0216500Y0092550D03*
X0246500Y0092550D03*
X0197000Y0119550D03*
X0197000Y0146050D03*
X0216500Y0146050D03*
X0246500Y0146050D03*
X0275500Y0146050D03*
X0315500Y0146050D03*
X0352000Y0146050D03*
X0382000Y0146050D03*
X0439500Y0146050D03*
X0469500Y0146050D03*
X0469500Y0092550D03*
X0439500Y0092550D03*
X0382000Y0092550D03*
X0352000Y0092550D03*
X0331000Y0092550D03*
X0301000Y0092550D03*
X0197000Y0172550D03*
X0197000Y0199550D03*
X0216500Y0199550D03*
X0246500Y0199550D03*
X0275500Y0199550D03*
X0315500Y0199550D03*
X0352000Y0189550D03*
X0382000Y0189550D03*
X0422000Y0199550D03*
X0452000Y0199550D03*
X0452000Y0226050D03*
X0422000Y0226050D03*
X0382000Y0226050D03*
X0352000Y0226050D03*
X0315500Y0252550D03*
X0352000Y0261050D03*
X0382000Y0261050D03*
X0382000Y0306050D03*
X0352000Y0306050D03*
X0310500Y0306050D03*
X0280500Y0306050D03*
X0246500Y0306050D03*
X0216500Y0306050D03*
X0197000Y0306050D03*
X0197000Y0279550D03*
X0197000Y0252550D03*
X0216500Y0252550D03*
X0246500Y0252550D03*
X0275500Y0252550D03*
X0197000Y0226050D03*
X0157000Y0226050D03*
X0157000Y0252550D03*
X0137000Y0252550D03*
X0157000Y0279550D03*
X0157000Y0306050D03*
X0137000Y0306050D03*
X0097000Y0306050D03*
X0097000Y0252550D03*
X0097000Y0199550D03*
X0137000Y0199550D03*
X0157000Y0199550D03*
X0157000Y0172550D03*
X0157000Y0146050D03*
X0137000Y0146050D03*
X0157000Y0119550D03*
X0097000Y0146050D03*
X0178500Y0343050D03*
X0218500Y0343050D03*
X0267500Y0358550D03*
X0246500Y0377550D03*
X0267500Y0398550D03*
X0246500Y0417550D03*
X0313000Y0398550D03*
X0354500Y0377550D03*
X0364500Y0407550D03*
X0354500Y0427550D03*
X0450500Y0417550D03*
X0471500Y0398550D03*
X0450500Y0377550D03*
X0471500Y0358550D03*
X0517000Y0358550D03*
X0568500Y0377550D03*
X0578500Y0407550D03*
X0568500Y0427550D03*
X0517000Y0398550D03*
X0522000Y0306050D03*
X0492000Y0306050D03*
X0457000Y0306050D03*
X0417000Y0306050D03*
X0492000Y0279550D03*
X0522000Y0279550D03*
X0557000Y0306050D03*
X0597000Y0306050D03*
X0597000Y0226050D03*
X0597000Y0199550D03*
X0597000Y0172550D03*
X0597000Y0145050D03*
X0597000Y0118550D03*
X0597000Y0092050D03*
X0557000Y0092050D03*
X0557000Y0118550D03*
X0557000Y0145050D03*
X0557000Y0172550D03*
X0557000Y0199550D03*
X0527000Y0199550D03*
X0527000Y0226050D03*
X0557000Y0226050D03*
X0487000Y0226050D03*
X0487000Y0199550D03*
X0313000Y0358550D03*
D11*
X0292000Y0350121D03*
X0284929Y0343050D03*
X0292000Y0335979D03*
X0305500Y0286621D03*
X0298429Y0279550D03*
X0305500Y0272479D03*
X0305500Y0233121D03*
X0298429Y0226050D03*
X0305500Y0218979D03*
X0305500Y0179621D03*
X0298429Y0172550D03*
X0305500Y0165479D03*
X0305500Y0126621D03*
X0298429Y0119550D03*
X0305500Y0112479D03*
X0305500Y0073121D03*
X0298429Y0066050D03*
X0305500Y0058979D03*
X0246500Y0058979D03*
X0239429Y0066050D03*
X0246500Y0073121D03*
X0246500Y0112479D03*
X0239429Y0119550D03*
X0246500Y0126621D03*
X0246500Y0165479D03*
X0239429Y0172550D03*
X0246500Y0179621D03*
X0246500Y0218979D03*
X0239429Y0226050D03*
X0246500Y0233121D03*
X0246500Y0272479D03*
X0239429Y0279550D03*
X0246500Y0286621D03*
X0207000Y0384979D03*
X0214071Y0392050D03*
X0207000Y0399121D03*
X0411000Y0399121D03*
X0418071Y0392050D03*
X0411000Y0384979D03*
D12*
X0024000Y0062250D03*
X0024000Y0077850D03*
X0024000Y0093450D03*
X0024000Y0109050D03*
X0024000Y0124650D03*
X0024000Y0140250D03*
X0024000Y0155850D03*
X0024000Y0171450D03*
X0024000Y0187050D03*
X0024000Y0202650D03*
X0024000Y0218250D03*
X0024000Y0233850D03*
X0024000Y0249450D03*
X0024000Y0265050D03*
X0024000Y0280650D03*
X0024000Y0296250D03*
X0024000Y0311850D03*
X0024000Y0327450D03*
X0024000Y0343050D03*
X0024000Y0358650D03*
X0024000Y0374250D03*
X0024000Y0389850D03*
D13*
X0097157Y0279550D03*
X0116843Y0279550D03*
X0116843Y0226050D03*
X0097157Y0226050D03*
X0097157Y0172550D03*
X0116843Y0172550D03*
X0116843Y0119550D03*
X0097157Y0119550D03*
X0097157Y0066050D03*
X0116843Y0066050D03*
D14*
X0070500Y0202550D03*
X0147000Y0260550D03*
X0218500Y0317550D03*
X0147000Y0343050D03*
X0070500Y0368550D03*
X0061400Y0399121D03*
X0061400Y0296250D03*
M02*
