G75*
%MOIN*%
%OFA0B0*%
%FSLAX25Y25*%
%IPPOS*%
%LPD*%
%AMOC8*
5,1,8,0,0,1.08239X$1,22.5*
%
%ADD10C,0.09400*%
%ADD11C,0.06000*%
%ADD12R,0.33300X0.08300*%
%ADD13C,0.00500*%
%ADD14C,0.10800*%
%ADD15C,0.04762*%
D10*
X0097000Y0092550D03*
X0137000Y0092550D03*
X0157000Y0092550D03*
X0157000Y0066050D03*
X0197000Y0066050D03*
X0197000Y0092550D03*
X0216500Y0092550D03*
X0246500Y0092550D03*
X0197000Y0119550D03*
X0197000Y0146050D03*
X0216500Y0146050D03*
X0246500Y0146050D03*
X0275500Y0146050D03*
X0315500Y0146050D03*
X0352000Y0146050D03*
X0382000Y0146050D03*
X0439500Y0146050D03*
X0469500Y0146050D03*
X0469500Y0092550D03*
X0439500Y0092550D03*
X0382000Y0092550D03*
X0352000Y0092550D03*
X0331000Y0092550D03*
X0301000Y0092550D03*
X0197000Y0172550D03*
X0197000Y0199550D03*
X0216500Y0199550D03*
X0246500Y0199550D03*
X0275500Y0199550D03*
X0315500Y0199550D03*
X0352000Y0189550D03*
X0382000Y0189550D03*
X0422000Y0199550D03*
X0452000Y0199550D03*
X0452000Y0226050D03*
X0422000Y0226050D03*
X0382000Y0226050D03*
X0352000Y0226050D03*
X0315500Y0252550D03*
X0352000Y0261050D03*
X0382000Y0261050D03*
X0382000Y0306050D03*
X0352000Y0306050D03*
X0310500Y0306050D03*
X0280500Y0306050D03*
X0246500Y0306050D03*
X0216500Y0306050D03*
X0197000Y0306050D03*
X0197000Y0279550D03*
X0197000Y0252550D03*
X0216500Y0252550D03*
X0246500Y0252550D03*
X0275500Y0252550D03*
X0197000Y0226050D03*
X0157000Y0226050D03*
X0157000Y0252550D03*
X0137000Y0252550D03*
X0157000Y0279550D03*
X0157000Y0306050D03*
X0137000Y0306050D03*
X0097000Y0306050D03*
X0097000Y0252550D03*
X0097000Y0199550D03*
X0137000Y0199550D03*
X0157000Y0199550D03*
X0157000Y0172550D03*
X0157000Y0146050D03*
X0137000Y0146050D03*
X0157000Y0119550D03*
X0097000Y0146050D03*
X0178500Y0343050D03*
X0218500Y0343050D03*
X0267500Y0358550D03*
X0246500Y0377550D03*
X0267500Y0398550D03*
X0246500Y0417550D03*
X0313000Y0398550D03*
X0354500Y0377550D03*
X0364500Y0407550D03*
X0354500Y0427550D03*
X0450500Y0417550D03*
X0471500Y0398550D03*
X0450500Y0377550D03*
X0471500Y0358550D03*
X0517000Y0358550D03*
X0568500Y0377550D03*
X0578500Y0407550D03*
X0568500Y0427550D03*
X0517000Y0398550D03*
X0522000Y0306050D03*
X0492000Y0306050D03*
X0457000Y0306050D03*
X0417000Y0306050D03*
X0492000Y0279550D03*
X0522000Y0279550D03*
X0557000Y0306050D03*
X0597000Y0306050D03*
X0597000Y0226050D03*
X0597000Y0199550D03*
X0597000Y0172550D03*
X0597000Y0145050D03*
X0597000Y0118550D03*
X0597000Y0092050D03*
X0557000Y0092050D03*
X0557000Y0118550D03*
X0557000Y0145050D03*
X0557000Y0172550D03*
X0557000Y0199550D03*
X0527000Y0199550D03*
X0527000Y0226050D03*
X0557000Y0226050D03*
X0487000Y0226050D03*
X0487000Y0199550D03*
X0313000Y0358550D03*
D11*
X0292000Y0350121D03*
X0284929Y0343050D03*
X0292000Y0335979D03*
X0305500Y0286621D03*
X0298429Y0279550D03*
X0305500Y0272479D03*
X0305500Y0233121D03*
X0298429Y0226050D03*
X0305500Y0218979D03*
X0305500Y0179621D03*
X0298429Y0172550D03*
X0305500Y0165479D03*
X0305500Y0126621D03*
X0298429Y0119550D03*
X0305500Y0112479D03*
X0305500Y0073121D03*
X0298429Y0066050D03*
X0305500Y0058979D03*
X0246500Y0058979D03*
X0239429Y0066050D03*
X0246500Y0073121D03*
X0246500Y0112479D03*
X0239429Y0119550D03*
X0246500Y0126621D03*
X0246500Y0165479D03*
X0239429Y0172550D03*
X0246500Y0179621D03*
X0246500Y0218979D03*
X0239429Y0226050D03*
X0246500Y0233121D03*
X0246500Y0272479D03*
X0239429Y0279550D03*
X0246500Y0286621D03*
X0207000Y0384979D03*
X0214071Y0392050D03*
X0207000Y0399121D03*
X0411000Y0399121D03*
X0418071Y0392050D03*
X0411000Y0384979D03*
D12*
X0024000Y0062250D03*
X0024000Y0077850D03*
X0024000Y0093450D03*
X0024000Y0109050D03*
X0024000Y0124650D03*
X0024000Y0140250D03*
X0024000Y0155850D03*
X0024000Y0171450D03*
X0024000Y0187050D03*
X0024000Y0202650D03*
X0024000Y0218250D03*
X0024000Y0233850D03*
X0024000Y0249450D03*
X0024000Y0265050D03*
X0024000Y0280650D03*
X0024000Y0296250D03*
X0024000Y0311850D03*
X0024000Y0327450D03*
X0024000Y0343050D03*
X0024000Y0358650D03*
X0024000Y0374250D03*
X0024000Y0389850D03*
D13*
X0146300Y0424703D02*
X0146590Y0424081D01*
X0146984Y0423519D01*
X0147469Y0423034D01*
X0148031Y0422640D01*
X0148653Y0422350D01*
X0149316Y0422173D01*
X0150000Y0422113D01*
X0150684Y0422173D01*
X0151347Y0422350D01*
X0151969Y0422640D01*
X0152531Y0423034D01*
X0153016Y0423519D01*
X0153410Y0424081D01*
X0153700Y0424703D01*
X0153877Y0425366D01*
X0153937Y0426050D01*
X0153877Y0426734D01*
X0153700Y0427397D01*
X0153410Y0428019D01*
X0153016Y0428581D01*
X0152531Y0429066D01*
X0151969Y0429460D01*
X0151347Y0429750D01*
X0150684Y0429927D01*
X0150000Y0429987D01*
X0149316Y0429927D01*
X0148653Y0429750D01*
X0148031Y0429460D01*
X0147469Y0429066D01*
X0146984Y0428581D01*
X0146590Y0428019D01*
X0146300Y0427397D01*
X0146123Y0426734D01*
X0146063Y0426050D01*
X0146123Y0425366D01*
X0146300Y0424703D01*
X0146279Y0424785D02*
X0153721Y0424785D01*
X0153855Y0425283D02*
X0146145Y0425283D01*
X0146086Y0425782D02*
X0153914Y0425782D01*
X0153917Y0426280D02*
X0146083Y0426280D01*
X0146135Y0426779D02*
X0153865Y0426779D01*
X0153732Y0427277D02*
X0146268Y0427277D01*
X0146477Y0427776D02*
X0153523Y0427776D01*
X0153231Y0428274D02*
X0146770Y0428274D01*
X0147176Y0428773D02*
X0152824Y0428773D01*
X0152237Y0429271D02*
X0147763Y0429271D01*
X0148729Y0429770D02*
X0151271Y0429770D01*
X0153505Y0424286D02*
X0146495Y0424286D01*
X0146796Y0423788D02*
X0153204Y0423788D01*
X0152786Y0423289D02*
X0147214Y0423289D01*
X0147817Y0422791D02*
X0152183Y0422791D01*
X0151129Y0422292D02*
X0148871Y0422292D01*
X0601984Y0028581D02*
X0601590Y0028019D01*
X0601300Y0027397D01*
X0601123Y0026734D01*
X0601063Y0026050D01*
X0601123Y0025366D01*
X0601300Y0024703D01*
X0601590Y0024081D01*
X0601984Y0023519D01*
X0602469Y0023034D01*
X0603031Y0022640D01*
X0603653Y0022350D01*
X0604316Y0022173D01*
X0605000Y0022113D01*
X0605684Y0022173D01*
X0606347Y0022350D01*
X0606969Y0022640D01*
X0607531Y0023034D01*
X0608016Y0023519D01*
X0608410Y0024081D01*
X0608700Y0024703D01*
X0608877Y0025366D01*
X0608937Y0026050D01*
X0608877Y0026734D01*
X0608700Y0027397D01*
X0608410Y0028019D01*
X0608016Y0028581D01*
X0607531Y0029066D01*
X0606969Y0029460D01*
X0606347Y0029750D01*
X0605684Y0029927D01*
X0605000Y0029987D01*
X0604316Y0029927D01*
X0603653Y0029750D01*
X0603031Y0029460D01*
X0602469Y0029066D01*
X0601984Y0028581D01*
X0601905Y0028468D02*
X0608095Y0028468D01*
X0608432Y0027970D02*
X0601568Y0027970D01*
X0601335Y0027471D02*
X0608665Y0027471D01*
X0608813Y0026973D02*
X0601187Y0026973D01*
X0601100Y0026474D02*
X0608900Y0026474D01*
X0608930Y0025976D02*
X0601070Y0025976D01*
X0601113Y0025477D02*
X0608887Y0025477D01*
X0608773Y0024979D02*
X0601227Y0024979D01*
X0601405Y0024480D02*
X0608595Y0024480D01*
X0608340Y0023982D02*
X0601660Y0023982D01*
X0602020Y0023483D02*
X0607980Y0023483D01*
X0607460Y0022984D02*
X0602540Y0022984D01*
X0603363Y0022486D02*
X0606637Y0022486D01*
X0607630Y0028967D02*
X0602370Y0028967D01*
X0603044Y0029465D02*
X0606957Y0029465D01*
X0605267Y0029964D02*
X0604733Y0029964D01*
D14*
X0116843Y0066050D03*
X0097157Y0066050D03*
X0097157Y0119550D03*
X0116843Y0119550D03*
X0116843Y0172550D03*
X0097157Y0172550D03*
X0097157Y0226050D03*
X0116843Y0226050D03*
X0116843Y0279550D03*
X0097157Y0279550D03*
D15*
X0061400Y0296250D03*
X0147000Y0260550D03*
X0218500Y0317550D03*
X0147000Y0343050D03*
X0070500Y0368550D03*
X0061400Y0399121D03*
X0070500Y0202550D03*
M02*
