%
M48
M72
T01C0.0276
T02C0.0315
T03C0.0320
T04C0.0354
%
T01
X9716Y27955
X11684Y27955
X11684Y22605
X9716Y22605
X9716Y17255
X11684Y17255
X9716Y11955
X11684Y11955
X9716Y6605
X11684Y6605
T02
X6030Y35865
X5000Y35865
X7000Y29625
X14700Y26055
X6500Y20265
X21850Y31755
X14700Y34305
X10500Y39912
X9500Y36855
X6000Y34305
X5000Y34305
X56850Y37755
X57850Y40755
X56850Y42755
X36450Y40755
X35450Y42755
X35450Y37755
T03
X30550Y5898
X29843Y6605
X30550Y7312
X30100Y9255
X30550Y11248
X29843Y11955
X30550Y12662
X24650Y14605
X21650Y14605
X21650Y9255
X24650Y9255
X24650Y7312
X23943Y6605
X24650Y5898
X23943Y11955
X24650Y12662
X24650Y11248
X30550Y16548
X29843Y17255
X30550Y17962
X30550Y21898
X29843Y22605
X30550Y23312
X24650Y25255
X21650Y25255
X30550Y27248
X29843Y27955
X30550Y28662
X29200Y35012
X28493Y34305
X29200Y33598
X24650Y30605
X21650Y30605
X23943Y27955
X24650Y27248
X24650Y28662
X28050Y30605
X31050Y30605
X20700Y39912
X21407Y39205
X20700Y38498
X24650Y19955
X21650Y19955
X23943Y22605
X24650Y23312
X24650Y21898
X24650Y17962
X23943Y17255
X24650Y16548
X35200Y18955
X38200Y18955
X42200Y19955
X46950Y9255
X42200Y22605
X46950Y14605
X43950Y14605
X38200Y14605
X35200Y14605
X33100Y9255
X35200Y9255
X38200Y9255
X43950Y9255
X45200Y19955
X45200Y22605
X35200Y30605
X38200Y30605
X49200Y30605
X52200Y30605
X52200Y27955
X49200Y27955
X41807Y39205
X41100Y38498
X41100Y39912
X35200Y26105
X38200Y26105
X38200Y22605
X35200Y22605
T04
X9700Y30605
X15700Y25255
X13700Y25255
X9700Y19955
X9700Y14605
X9700Y9255
X13700Y9255
X15700Y9255
X27550Y14605
X19700Y14605
X15700Y14605
X13700Y14605
X15700Y11955
X19700Y11955
X19700Y9255
X19700Y6605
X15700Y6605
X27550Y25255
X19700Y25255
X31300Y35855
X26750Y35855
X24650Y37755
X19700Y30605
X21850Y34305
X17850Y34305
X13700Y30605
X15700Y30605
X15700Y27955
X19700Y27955
X31300Y39855
X26750Y39855
X24650Y41755
X9700Y25255
X15700Y22605
X15700Y19955
X27550Y19955
X19700Y19955
X19700Y22605
X19700Y17255
X15700Y17255
X13700Y19955
X31550Y19955
X45050Y37755
X31550Y14605
X55700Y9205
X55700Y11855
X55700Y14505
X55700Y17255
X55700Y19955
X52700Y19955
X48700Y19955
X48700Y22605
X52700Y22605
X55700Y22605
X59700Y22605
X59700Y19955
X59700Y17255
X59700Y14505
X59700Y11855
X59700Y9205
X41700Y30605
X45700Y30605
X55700Y30605
X59700Y30605
X51700Y35855
X47150Y35855
X45050Y41755
X47150Y39855
X51700Y39855
X31550Y25255
M30
