G75*
%MOIN*%
%OFA0B0*%
%FSLAX25Y25*%
%IPPOS*%
%LPD*%
%AMOC8*
5,1,8,0,0,1.08239X$1,22.5*
%
%ADD10C,0.09400*%
%ADD11C,0.06000*%
%ADD12C,0.00500*%
%ADD13C,0.10800*%
%ADD14R,0.33300X0.08300*%
%ADD15C,0.05550*%
D10*
X0097000Y0092550D03*
X0137000Y0092550D03*
X0157000Y0092550D03*
X0157000Y0066050D03*
X0197000Y0066050D03*
X0197000Y0092550D03*
X0216500Y0092550D03*
X0246500Y0092550D03*
X0197000Y0119550D03*
X0197000Y0146050D03*
X0216500Y0146050D03*
X0246500Y0146050D03*
X0275500Y0146050D03*
X0315500Y0146050D03*
X0352000Y0146050D03*
X0382000Y0146050D03*
X0439500Y0146050D03*
X0469500Y0146050D03*
X0469500Y0092550D03*
X0439500Y0092550D03*
X0382000Y0092550D03*
X0352000Y0092550D03*
X0331000Y0092550D03*
X0301000Y0092550D03*
X0197000Y0172550D03*
X0197000Y0199550D03*
X0216500Y0199550D03*
X0246500Y0199550D03*
X0275500Y0199550D03*
X0315500Y0199550D03*
X0352000Y0189550D03*
X0382000Y0189550D03*
X0422000Y0199550D03*
X0452000Y0199550D03*
X0452000Y0226050D03*
X0422000Y0226050D03*
X0382000Y0226050D03*
X0352000Y0226050D03*
X0315500Y0252550D03*
X0352000Y0261050D03*
X0382000Y0261050D03*
X0382000Y0306050D03*
X0352000Y0306050D03*
X0310500Y0306050D03*
X0280500Y0306050D03*
X0246500Y0306050D03*
X0216500Y0306050D03*
X0197000Y0306050D03*
X0197000Y0279550D03*
X0197000Y0252550D03*
X0216500Y0252550D03*
X0246500Y0252550D03*
X0275500Y0252550D03*
X0197000Y0226050D03*
X0157000Y0226050D03*
X0157000Y0252550D03*
X0137000Y0252550D03*
X0157000Y0279550D03*
X0157000Y0306050D03*
X0137000Y0306050D03*
X0097000Y0306050D03*
X0097000Y0252550D03*
X0097000Y0199550D03*
X0137000Y0199550D03*
X0157000Y0199550D03*
X0157000Y0172550D03*
X0157000Y0146050D03*
X0137000Y0146050D03*
X0157000Y0119550D03*
X0097000Y0146050D03*
X0178500Y0343050D03*
X0218500Y0343050D03*
X0267500Y0358550D03*
X0246500Y0377550D03*
X0267500Y0398550D03*
X0246500Y0417550D03*
X0313000Y0398550D03*
X0354500Y0377550D03*
X0364500Y0407550D03*
X0354500Y0427550D03*
X0450500Y0417550D03*
X0471500Y0398550D03*
X0450500Y0377550D03*
X0471500Y0358550D03*
X0517000Y0358550D03*
X0568500Y0377550D03*
X0578500Y0407550D03*
X0568500Y0427550D03*
X0517000Y0398550D03*
X0522000Y0306050D03*
X0492000Y0306050D03*
X0457000Y0306050D03*
X0417000Y0306050D03*
X0492000Y0279550D03*
X0522000Y0279550D03*
X0557000Y0306050D03*
X0597000Y0306050D03*
X0597000Y0226050D03*
X0597000Y0199550D03*
X0597000Y0172550D03*
X0597000Y0145050D03*
X0597000Y0118550D03*
X0597000Y0092050D03*
X0557000Y0092050D03*
X0557000Y0118550D03*
X0557000Y0145050D03*
X0557000Y0172550D03*
X0557000Y0199550D03*
X0527000Y0199550D03*
X0527000Y0226050D03*
X0557000Y0226050D03*
X0487000Y0226050D03*
X0487000Y0199550D03*
X0313000Y0358550D03*
D11*
X0292000Y0350121D03*
X0284929Y0343050D03*
X0292000Y0335979D03*
X0305500Y0286621D03*
X0298429Y0279550D03*
X0305500Y0272479D03*
X0305500Y0233121D03*
X0298429Y0226050D03*
X0305500Y0218979D03*
X0305500Y0179621D03*
X0298429Y0172550D03*
X0305500Y0165479D03*
X0305500Y0126621D03*
X0298429Y0119550D03*
X0305500Y0112479D03*
X0305500Y0073121D03*
X0298429Y0066050D03*
X0305500Y0058979D03*
X0246500Y0058979D03*
X0239429Y0066050D03*
X0246500Y0073121D03*
X0246500Y0112479D03*
X0239429Y0119550D03*
X0246500Y0126621D03*
X0246500Y0165479D03*
X0239429Y0172550D03*
X0246500Y0179621D03*
X0246500Y0218979D03*
X0239429Y0226050D03*
X0246500Y0233121D03*
X0246500Y0272479D03*
X0239429Y0279550D03*
X0246500Y0286621D03*
X0207000Y0384979D03*
X0214071Y0392050D03*
X0207000Y0399121D03*
X0411000Y0399121D03*
X0418071Y0392050D03*
X0411000Y0384979D03*
D12*
X0146000Y0426050D02*
X0146002Y0426176D01*
X0146008Y0426302D01*
X0146018Y0426428D01*
X0146032Y0426554D01*
X0146050Y0426679D01*
X0146072Y0426803D01*
X0146097Y0426927D01*
X0146127Y0427050D01*
X0146160Y0427171D01*
X0146198Y0427292D01*
X0146239Y0427411D01*
X0146284Y0427530D01*
X0146332Y0427646D01*
X0146384Y0427761D01*
X0146440Y0427874D01*
X0146500Y0427986D01*
X0146563Y0428095D01*
X0146629Y0428203D01*
X0146698Y0428308D01*
X0146771Y0428411D01*
X0146848Y0428512D01*
X0146927Y0428610D01*
X0147009Y0428706D01*
X0147095Y0428799D01*
X0147183Y0428890D01*
X0147274Y0428977D01*
X0147368Y0429062D01*
X0147464Y0429143D01*
X0147563Y0429222D01*
X0147664Y0429297D01*
X0147768Y0429369D01*
X0147874Y0429438D01*
X0147982Y0429504D01*
X0148092Y0429566D01*
X0148204Y0429624D01*
X0148317Y0429679D01*
X0148433Y0429730D01*
X0148550Y0429778D01*
X0148668Y0429822D01*
X0148788Y0429862D01*
X0148909Y0429898D01*
X0149031Y0429931D01*
X0149154Y0429960D01*
X0149278Y0429984D01*
X0149402Y0430005D01*
X0149527Y0430022D01*
X0149653Y0430035D01*
X0149779Y0430044D01*
X0149905Y0430049D01*
X0150032Y0430050D01*
X0150158Y0430047D01*
X0150284Y0430040D01*
X0150410Y0430029D01*
X0150535Y0430014D01*
X0150660Y0429995D01*
X0150784Y0429972D01*
X0150908Y0429946D01*
X0151030Y0429915D01*
X0151152Y0429881D01*
X0151272Y0429842D01*
X0151391Y0429800D01*
X0151509Y0429755D01*
X0151625Y0429705D01*
X0151740Y0429652D01*
X0151852Y0429595D01*
X0151963Y0429535D01*
X0152072Y0429471D01*
X0152179Y0429404D01*
X0152284Y0429334D01*
X0152387Y0429260D01*
X0152487Y0429183D01*
X0152585Y0429103D01*
X0152680Y0429020D01*
X0152772Y0428934D01*
X0152862Y0428845D01*
X0152949Y0428753D01*
X0153032Y0428659D01*
X0153113Y0428562D01*
X0153191Y0428462D01*
X0153266Y0428360D01*
X0153337Y0428256D01*
X0153405Y0428149D01*
X0153469Y0428041D01*
X0153530Y0427930D01*
X0153588Y0427818D01*
X0153642Y0427704D01*
X0153692Y0427588D01*
X0153739Y0427471D01*
X0153782Y0427352D01*
X0153821Y0427232D01*
X0153857Y0427111D01*
X0153888Y0426988D01*
X0153916Y0426865D01*
X0153940Y0426741D01*
X0153960Y0426616D01*
X0153976Y0426491D01*
X0153988Y0426365D01*
X0153996Y0426239D01*
X0154000Y0426113D01*
X0154000Y0425987D01*
X0153996Y0425861D01*
X0153988Y0425735D01*
X0153976Y0425609D01*
X0153960Y0425484D01*
X0153940Y0425359D01*
X0153916Y0425235D01*
X0153888Y0425112D01*
X0153857Y0424989D01*
X0153821Y0424868D01*
X0153782Y0424748D01*
X0153739Y0424629D01*
X0153692Y0424512D01*
X0153642Y0424396D01*
X0153588Y0424282D01*
X0153530Y0424170D01*
X0153469Y0424059D01*
X0153405Y0423951D01*
X0153337Y0423844D01*
X0153266Y0423740D01*
X0153191Y0423638D01*
X0153113Y0423538D01*
X0153032Y0423441D01*
X0152949Y0423347D01*
X0152862Y0423255D01*
X0152772Y0423166D01*
X0152680Y0423080D01*
X0152585Y0422997D01*
X0152487Y0422917D01*
X0152387Y0422840D01*
X0152284Y0422766D01*
X0152179Y0422696D01*
X0152072Y0422629D01*
X0151963Y0422565D01*
X0151852Y0422505D01*
X0151740Y0422448D01*
X0151625Y0422395D01*
X0151509Y0422345D01*
X0151391Y0422300D01*
X0151272Y0422258D01*
X0151152Y0422219D01*
X0151030Y0422185D01*
X0150908Y0422154D01*
X0150784Y0422128D01*
X0150660Y0422105D01*
X0150535Y0422086D01*
X0150410Y0422071D01*
X0150284Y0422060D01*
X0150158Y0422053D01*
X0150032Y0422050D01*
X0149905Y0422051D01*
X0149779Y0422056D01*
X0149653Y0422065D01*
X0149527Y0422078D01*
X0149402Y0422095D01*
X0149278Y0422116D01*
X0149154Y0422140D01*
X0149031Y0422169D01*
X0148909Y0422202D01*
X0148788Y0422238D01*
X0148668Y0422278D01*
X0148550Y0422322D01*
X0148433Y0422370D01*
X0148317Y0422421D01*
X0148204Y0422476D01*
X0148092Y0422534D01*
X0147982Y0422596D01*
X0147874Y0422662D01*
X0147768Y0422731D01*
X0147664Y0422803D01*
X0147563Y0422878D01*
X0147464Y0422957D01*
X0147368Y0423038D01*
X0147274Y0423123D01*
X0147183Y0423210D01*
X0147095Y0423301D01*
X0147009Y0423394D01*
X0146927Y0423490D01*
X0146848Y0423588D01*
X0146771Y0423689D01*
X0146698Y0423792D01*
X0146629Y0423897D01*
X0146563Y0424005D01*
X0146500Y0424114D01*
X0146440Y0424226D01*
X0146384Y0424339D01*
X0146332Y0424454D01*
X0146284Y0424570D01*
X0146239Y0424689D01*
X0146198Y0424808D01*
X0146160Y0424929D01*
X0146127Y0425050D01*
X0146097Y0425173D01*
X0146072Y0425297D01*
X0146050Y0425421D01*
X0146032Y0425546D01*
X0146018Y0425672D01*
X0146008Y0425798D01*
X0146002Y0425924D01*
X0146000Y0426050D01*
X0146500Y0426050D02*
X0146502Y0426168D01*
X0146508Y0426286D01*
X0146518Y0426404D01*
X0146532Y0426521D01*
X0146550Y0426638D01*
X0146572Y0426755D01*
X0146597Y0426870D01*
X0146627Y0426984D01*
X0146661Y0427098D01*
X0146698Y0427210D01*
X0146739Y0427321D01*
X0146784Y0427430D01*
X0146832Y0427538D01*
X0146884Y0427644D01*
X0146940Y0427749D01*
X0146999Y0427851D01*
X0147061Y0427951D01*
X0147127Y0428049D01*
X0147196Y0428145D01*
X0147269Y0428239D01*
X0147344Y0428330D01*
X0147423Y0428418D01*
X0147504Y0428504D01*
X0147589Y0428587D01*
X0147676Y0428667D01*
X0147765Y0428744D01*
X0147858Y0428818D01*
X0147952Y0428888D01*
X0148049Y0428956D01*
X0148149Y0429020D01*
X0148250Y0429081D01*
X0148353Y0429138D01*
X0148459Y0429192D01*
X0148566Y0429243D01*
X0148674Y0429289D01*
X0148784Y0429332D01*
X0148896Y0429371D01*
X0149009Y0429407D01*
X0149123Y0429438D01*
X0149238Y0429466D01*
X0149353Y0429490D01*
X0149470Y0429510D01*
X0149587Y0429526D01*
X0149705Y0429538D01*
X0149823Y0429546D01*
X0149941Y0429550D01*
X0150059Y0429550D01*
X0150177Y0429546D01*
X0150295Y0429538D01*
X0150413Y0429526D01*
X0150530Y0429510D01*
X0150647Y0429490D01*
X0150762Y0429466D01*
X0150877Y0429438D01*
X0150991Y0429407D01*
X0151104Y0429371D01*
X0151216Y0429332D01*
X0151326Y0429289D01*
X0151434Y0429243D01*
X0151541Y0429192D01*
X0151647Y0429138D01*
X0151750Y0429081D01*
X0151851Y0429020D01*
X0151951Y0428956D01*
X0152048Y0428888D01*
X0152142Y0428818D01*
X0152235Y0428744D01*
X0152324Y0428667D01*
X0152411Y0428587D01*
X0152496Y0428504D01*
X0152577Y0428418D01*
X0152656Y0428330D01*
X0152731Y0428239D01*
X0152804Y0428145D01*
X0152873Y0428049D01*
X0152939Y0427951D01*
X0153001Y0427851D01*
X0153060Y0427749D01*
X0153116Y0427644D01*
X0153168Y0427538D01*
X0153216Y0427430D01*
X0153261Y0427321D01*
X0153302Y0427210D01*
X0153339Y0427098D01*
X0153373Y0426984D01*
X0153403Y0426870D01*
X0153428Y0426755D01*
X0153450Y0426638D01*
X0153468Y0426521D01*
X0153482Y0426404D01*
X0153492Y0426286D01*
X0153498Y0426168D01*
X0153500Y0426050D01*
X0153498Y0425932D01*
X0153492Y0425814D01*
X0153482Y0425696D01*
X0153468Y0425579D01*
X0153450Y0425462D01*
X0153428Y0425345D01*
X0153403Y0425230D01*
X0153373Y0425116D01*
X0153339Y0425002D01*
X0153302Y0424890D01*
X0153261Y0424779D01*
X0153216Y0424670D01*
X0153168Y0424562D01*
X0153116Y0424456D01*
X0153060Y0424351D01*
X0153001Y0424249D01*
X0152939Y0424149D01*
X0152873Y0424051D01*
X0152804Y0423955D01*
X0152731Y0423861D01*
X0152656Y0423770D01*
X0152577Y0423682D01*
X0152496Y0423596D01*
X0152411Y0423513D01*
X0152324Y0423433D01*
X0152235Y0423356D01*
X0152142Y0423282D01*
X0152048Y0423212D01*
X0151951Y0423144D01*
X0151851Y0423080D01*
X0151750Y0423019D01*
X0151647Y0422962D01*
X0151541Y0422908D01*
X0151434Y0422857D01*
X0151326Y0422811D01*
X0151216Y0422768D01*
X0151104Y0422729D01*
X0150991Y0422693D01*
X0150877Y0422662D01*
X0150762Y0422634D01*
X0150647Y0422610D01*
X0150530Y0422590D01*
X0150413Y0422574D01*
X0150295Y0422562D01*
X0150177Y0422554D01*
X0150059Y0422550D01*
X0149941Y0422550D01*
X0149823Y0422554D01*
X0149705Y0422562D01*
X0149587Y0422574D01*
X0149470Y0422590D01*
X0149353Y0422610D01*
X0149238Y0422634D01*
X0149123Y0422662D01*
X0149009Y0422693D01*
X0148896Y0422729D01*
X0148784Y0422768D01*
X0148674Y0422811D01*
X0148566Y0422857D01*
X0148459Y0422908D01*
X0148353Y0422962D01*
X0148250Y0423019D01*
X0148149Y0423080D01*
X0148049Y0423144D01*
X0147952Y0423212D01*
X0147858Y0423282D01*
X0147765Y0423356D01*
X0147676Y0423433D01*
X0147589Y0423513D01*
X0147504Y0423596D01*
X0147423Y0423682D01*
X0147344Y0423770D01*
X0147269Y0423861D01*
X0147196Y0423955D01*
X0147127Y0424051D01*
X0147061Y0424149D01*
X0146999Y0424249D01*
X0146940Y0424351D01*
X0146884Y0424456D01*
X0146832Y0424562D01*
X0146784Y0424670D01*
X0146739Y0424779D01*
X0146698Y0424890D01*
X0146661Y0425002D01*
X0146627Y0425116D01*
X0146597Y0425230D01*
X0146572Y0425345D01*
X0146550Y0425462D01*
X0146532Y0425579D01*
X0146518Y0425696D01*
X0146508Y0425814D01*
X0146502Y0425932D01*
X0146500Y0426050D01*
X0147000Y0426050D02*
X0147002Y0426159D01*
X0147008Y0426268D01*
X0147018Y0426376D01*
X0147032Y0426484D01*
X0147049Y0426592D01*
X0147071Y0426699D01*
X0147096Y0426805D01*
X0147126Y0426909D01*
X0147159Y0427013D01*
X0147196Y0427116D01*
X0147236Y0427217D01*
X0147280Y0427316D01*
X0147328Y0427414D01*
X0147380Y0427511D01*
X0147434Y0427605D01*
X0147492Y0427697D01*
X0147554Y0427787D01*
X0147619Y0427874D01*
X0147686Y0427960D01*
X0147757Y0428043D01*
X0147831Y0428123D01*
X0147908Y0428200D01*
X0147987Y0428275D01*
X0148069Y0428346D01*
X0148154Y0428415D01*
X0148241Y0428480D01*
X0148330Y0428543D01*
X0148422Y0428601D01*
X0148516Y0428657D01*
X0148611Y0428709D01*
X0148709Y0428758D01*
X0148808Y0428803D01*
X0148909Y0428845D01*
X0149011Y0428882D01*
X0149114Y0428916D01*
X0149219Y0428947D01*
X0149325Y0428973D01*
X0149431Y0428996D01*
X0149539Y0429014D01*
X0149647Y0429029D01*
X0149755Y0429040D01*
X0149864Y0429047D01*
X0149973Y0429050D01*
X0150082Y0429049D01*
X0150191Y0429044D01*
X0150299Y0429035D01*
X0150407Y0429022D01*
X0150515Y0429005D01*
X0150622Y0428985D01*
X0150728Y0428960D01*
X0150833Y0428932D01*
X0150937Y0428900D01*
X0151040Y0428864D01*
X0151142Y0428824D01*
X0151242Y0428781D01*
X0151340Y0428734D01*
X0151437Y0428684D01*
X0151531Y0428630D01*
X0151624Y0428572D01*
X0151715Y0428512D01*
X0151803Y0428448D01*
X0151889Y0428381D01*
X0151972Y0428311D01*
X0152053Y0428238D01*
X0152131Y0428162D01*
X0152206Y0428083D01*
X0152279Y0428001D01*
X0152348Y0427917D01*
X0152414Y0427831D01*
X0152477Y0427742D01*
X0152537Y0427651D01*
X0152594Y0427558D01*
X0152647Y0427463D01*
X0152696Y0427366D01*
X0152742Y0427267D01*
X0152784Y0427167D01*
X0152823Y0427065D01*
X0152858Y0426961D01*
X0152889Y0426857D01*
X0152917Y0426752D01*
X0152940Y0426645D01*
X0152960Y0426538D01*
X0152976Y0426430D01*
X0152988Y0426322D01*
X0152996Y0426213D01*
X0153000Y0426104D01*
X0153000Y0425996D01*
X0152996Y0425887D01*
X0152988Y0425778D01*
X0152976Y0425670D01*
X0152960Y0425562D01*
X0152940Y0425455D01*
X0152917Y0425348D01*
X0152889Y0425243D01*
X0152858Y0425139D01*
X0152823Y0425035D01*
X0152784Y0424933D01*
X0152742Y0424833D01*
X0152696Y0424734D01*
X0152647Y0424637D01*
X0152594Y0424542D01*
X0152537Y0424449D01*
X0152477Y0424358D01*
X0152414Y0424269D01*
X0152348Y0424183D01*
X0152279Y0424099D01*
X0152206Y0424017D01*
X0152131Y0423938D01*
X0152053Y0423862D01*
X0151972Y0423789D01*
X0151889Y0423719D01*
X0151803Y0423652D01*
X0151715Y0423588D01*
X0151624Y0423528D01*
X0151531Y0423470D01*
X0151437Y0423416D01*
X0151340Y0423366D01*
X0151242Y0423319D01*
X0151142Y0423276D01*
X0151040Y0423236D01*
X0150937Y0423200D01*
X0150833Y0423168D01*
X0150728Y0423140D01*
X0150622Y0423115D01*
X0150515Y0423095D01*
X0150407Y0423078D01*
X0150299Y0423065D01*
X0150191Y0423056D01*
X0150082Y0423051D01*
X0149973Y0423050D01*
X0149864Y0423053D01*
X0149755Y0423060D01*
X0149647Y0423071D01*
X0149539Y0423086D01*
X0149431Y0423104D01*
X0149325Y0423127D01*
X0149219Y0423153D01*
X0149114Y0423184D01*
X0149011Y0423218D01*
X0148909Y0423255D01*
X0148808Y0423297D01*
X0148709Y0423342D01*
X0148611Y0423391D01*
X0148516Y0423443D01*
X0148422Y0423499D01*
X0148330Y0423557D01*
X0148241Y0423620D01*
X0148154Y0423685D01*
X0148069Y0423754D01*
X0147987Y0423825D01*
X0147908Y0423900D01*
X0147831Y0423977D01*
X0147757Y0424057D01*
X0147686Y0424140D01*
X0147619Y0424226D01*
X0147554Y0424313D01*
X0147492Y0424403D01*
X0147434Y0424495D01*
X0147380Y0424589D01*
X0147328Y0424686D01*
X0147280Y0424784D01*
X0147236Y0424883D01*
X0147196Y0424984D01*
X0147159Y0425087D01*
X0147126Y0425191D01*
X0147096Y0425295D01*
X0147071Y0425401D01*
X0147049Y0425508D01*
X0147032Y0425616D01*
X0147018Y0425724D01*
X0147008Y0425832D01*
X0147002Y0425941D01*
X0147000Y0426050D01*
X0145500Y0426050D02*
X0145502Y0426184D01*
X0145508Y0426318D01*
X0145518Y0426451D01*
X0145532Y0426585D01*
X0145550Y0426718D01*
X0145572Y0426850D01*
X0145597Y0426981D01*
X0145627Y0427112D01*
X0145661Y0427242D01*
X0145698Y0427370D01*
X0145739Y0427498D01*
X0145784Y0427624D01*
X0145833Y0427749D01*
X0145885Y0427872D01*
X0145941Y0427994D01*
X0146001Y0428114D01*
X0146064Y0428232D01*
X0146131Y0428348D01*
X0146201Y0428462D01*
X0146275Y0428574D01*
X0146352Y0428684D01*
X0146432Y0428792D01*
X0146515Y0428897D01*
X0146601Y0428999D01*
X0146690Y0429099D01*
X0146783Y0429196D01*
X0146878Y0429291D01*
X0146976Y0429382D01*
X0147076Y0429471D01*
X0147179Y0429556D01*
X0147285Y0429639D01*
X0147393Y0429718D01*
X0147503Y0429794D01*
X0147616Y0429867D01*
X0147731Y0429936D01*
X0147847Y0430002D01*
X0147966Y0430064D01*
X0148086Y0430123D01*
X0148209Y0430178D01*
X0148332Y0430230D01*
X0148457Y0430277D01*
X0148584Y0430321D01*
X0148712Y0430362D01*
X0148841Y0430398D01*
X0148971Y0430431D01*
X0149102Y0430459D01*
X0149233Y0430484D01*
X0149366Y0430505D01*
X0149499Y0430522D01*
X0149632Y0430535D01*
X0149766Y0430544D01*
X0149900Y0430549D01*
X0150034Y0430550D01*
X0150167Y0430547D01*
X0150301Y0430540D01*
X0150435Y0430529D01*
X0150568Y0430514D01*
X0150701Y0430495D01*
X0150833Y0430472D01*
X0150964Y0430446D01*
X0151094Y0430415D01*
X0151224Y0430380D01*
X0151352Y0430342D01*
X0151479Y0430300D01*
X0151605Y0430254D01*
X0151730Y0430204D01*
X0151853Y0430151D01*
X0151974Y0430094D01*
X0152094Y0430033D01*
X0152211Y0429969D01*
X0152327Y0429902D01*
X0152441Y0429831D01*
X0152552Y0429756D01*
X0152661Y0429679D01*
X0152768Y0429598D01*
X0152873Y0429514D01*
X0152974Y0429427D01*
X0153074Y0429337D01*
X0153170Y0429244D01*
X0153264Y0429148D01*
X0153355Y0429049D01*
X0153442Y0428948D01*
X0153527Y0428844D01*
X0153609Y0428738D01*
X0153687Y0428630D01*
X0153762Y0428519D01*
X0153834Y0428406D01*
X0153903Y0428290D01*
X0153968Y0428173D01*
X0154029Y0428054D01*
X0154087Y0427933D01*
X0154141Y0427811D01*
X0154192Y0427687D01*
X0154239Y0427561D01*
X0154282Y0427434D01*
X0154321Y0427306D01*
X0154357Y0427177D01*
X0154388Y0427047D01*
X0154416Y0426916D01*
X0154440Y0426784D01*
X0154460Y0426651D01*
X0154476Y0426518D01*
X0154488Y0426385D01*
X0154496Y0426251D01*
X0154500Y0426117D01*
X0154500Y0425983D01*
X0154496Y0425849D01*
X0154488Y0425715D01*
X0154476Y0425582D01*
X0154460Y0425449D01*
X0154440Y0425316D01*
X0154416Y0425184D01*
X0154388Y0425053D01*
X0154357Y0424923D01*
X0154321Y0424794D01*
X0154282Y0424666D01*
X0154239Y0424539D01*
X0154192Y0424413D01*
X0154141Y0424289D01*
X0154087Y0424167D01*
X0154029Y0424046D01*
X0153968Y0423927D01*
X0153903Y0423810D01*
X0153834Y0423694D01*
X0153762Y0423581D01*
X0153687Y0423470D01*
X0153609Y0423362D01*
X0153527Y0423256D01*
X0153442Y0423152D01*
X0153355Y0423051D01*
X0153264Y0422952D01*
X0153170Y0422856D01*
X0153074Y0422763D01*
X0152974Y0422673D01*
X0152873Y0422586D01*
X0152768Y0422502D01*
X0152661Y0422421D01*
X0152552Y0422344D01*
X0152441Y0422269D01*
X0152327Y0422198D01*
X0152211Y0422131D01*
X0152094Y0422067D01*
X0151974Y0422006D01*
X0151853Y0421949D01*
X0151730Y0421896D01*
X0151605Y0421846D01*
X0151479Y0421800D01*
X0151352Y0421758D01*
X0151224Y0421720D01*
X0151094Y0421685D01*
X0150964Y0421654D01*
X0150833Y0421628D01*
X0150701Y0421605D01*
X0150568Y0421586D01*
X0150435Y0421571D01*
X0150301Y0421560D01*
X0150167Y0421553D01*
X0150034Y0421550D01*
X0149900Y0421551D01*
X0149766Y0421556D01*
X0149632Y0421565D01*
X0149499Y0421578D01*
X0149366Y0421595D01*
X0149233Y0421616D01*
X0149102Y0421641D01*
X0148971Y0421669D01*
X0148841Y0421702D01*
X0148712Y0421738D01*
X0148584Y0421779D01*
X0148457Y0421823D01*
X0148332Y0421870D01*
X0148209Y0421922D01*
X0148086Y0421977D01*
X0147966Y0422036D01*
X0147847Y0422098D01*
X0147731Y0422164D01*
X0147616Y0422233D01*
X0147503Y0422306D01*
X0147393Y0422382D01*
X0147285Y0422461D01*
X0147179Y0422544D01*
X0147076Y0422629D01*
X0146976Y0422718D01*
X0146878Y0422809D01*
X0146783Y0422904D01*
X0146690Y0423001D01*
X0146601Y0423101D01*
X0146515Y0423203D01*
X0146432Y0423308D01*
X0146352Y0423416D01*
X0146275Y0423526D01*
X0146201Y0423638D01*
X0146131Y0423752D01*
X0146064Y0423868D01*
X0146001Y0423986D01*
X0145941Y0424106D01*
X0145885Y0424228D01*
X0145833Y0424351D01*
X0145784Y0424476D01*
X0145739Y0424602D01*
X0145698Y0424730D01*
X0145661Y0424858D01*
X0145627Y0424988D01*
X0145597Y0425119D01*
X0145572Y0425250D01*
X0145550Y0425382D01*
X0145532Y0425515D01*
X0145518Y0425649D01*
X0145508Y0425782D01*
X0145502Y0425916D01*
X0145500Y0426050D01*
X0147500Y0426050D02*
X0147502Y0426149D01*
X0147508Y0426249D01*
X0147518Y0426348D01*
X0147532Y0426446D01*
X0147549Y0426544D01*
X0147571Y0426641D01*
X0147596Y0426737D01*
X0147625Y0426832D01*
X0147658Y0426926D01*
X0147695Y0427018D01*
X0147735Y0427109D01*
X0147779Y0427198D01*
X0147827Y0427286D01*
X0147878Y0427371D01*
X0147932Y0427454D01*
X0147989Y0427536D01*
X0148050Y0427614D01*
X0148114Y0427691D01*
X0148180Y0427764D01*
X0148250Y0427835D01*
X0148322Y0427903D01*
X0148397Y0427969D01*
X0148475Y0428031D01*
X0148555Y0428090D01*
X0148637Y0428146D01*
X0148721Y0428198D01*
X0148808Y0428247D01*
X0148896Y0428293D01*
X0148986Y0428335D01*
X0149078Y0428374D01*
X0149171Y0428409D01*
X0149265Y0428440D01*
X0149361Y0428467D01*
X0149458Y0428490D01*
X0149555Y0428510D01*
X0149653Y0428526D01*
X0149752Y0428538D01*
X0149851Y0428546D01*
X0149950Y0428550D01*
X0150050Y0428550D01*
X0150149Y0428546D01*
X0150248Y0428538D01*
X0150347Y0428526D01*
X0150445Y0428510D01*
X0150542Y0428490D01*
X0150639Y0428467D01*
X0150735Y0428440D01*
X0150829Y0428409D01*
X0150922Y0428374D01*
X0151014Y0428335D01*
X0151104Y0428293D01*
X0151192Y0428247D01*
X0151279Y0428198D01*
X0151363Y0428146D01*
X0151445Y0428090D01*
X0151525Y0428031D01*
X0151603Y0427969D01*
X0151678Y0427903D01*
X0151750Y0427835D01*
X0151820Y0427764D01*
X0151886Y0427691D01*
X0151950Y0427614D01*
X0152011Y0427536D01*
X0152068Y0427454D01*
X0152122Y0427371D01*
X0152173Y0427286D01*
X0152221Y0427198D01*
X0152265Y0427109D01*
X0152305Y0427018D01*
X0152342Y0426926D01*
X0152375Y0426832D01*
X0152404Y0426737D01*
X0152429Y0426641D01*
X0152451Y0426544D01*
X0152468Y0426446D01*
X0152482Y0426348D01*
X0152492Y0426249D01*
X0152498Y0426149D01*
X0152500Y0426050D01*
X0152498Y0425951D01*
X0152492Y0425851D01*
X0152482Y0425752D01*
X0152468Y0425654D01*
X0152451Y0425556D01*
X0152429Y0425459D01*
X0152404Y0425363D01*
X0152375Y0425268D01*
X0152342Y0425174D01*
X0152305Y0425082D01*
X0152265Y0424991D01*
X0152221Y0424902D01*
X0152173Y0424814D01*
X0152122Y0424729D01*
X0152068Y0424646D01*
X0152011Y0424564D01*
X0151950Y0424486D01*
X0151886Y0424409D01*
X0151820Y0424336D01*
X0151750Y0424265D01*
X0151678Y0424197D01*
X0151603Y0424131D01*
X0151525Y0424069D01*
X0151445Y0424010D01*
X0151363Y0423954D01*
X0151279Y0423902D01*
X0151192Y0423853D01*
X0151104Y0423807D01*
X0151014Y0423765D01*
X0150922Y0423726D01*
X0150829Y0423691D01*
X0150735Y0423660D01*
X0150639Y0423633D01*
X0150542Y0423610D01*
X0150445Y0423590D01*
X0150347Y0423574D01*
X0150248Y0423562D01*
X0150149Y0423554D01*
X0150050Y0423550D01*
X0149950Y0423550D01*
X0149851Y0423554D01*
X0149752Y0423562D01*
X0149653Y0423574D01*
X0149555Y0423590D01*
X0149458Y0423610D01*
X0149361Y0423633D01*
X0149265Y0423660D01*
X0149171Y0423691D01*
X0149078Y0423726D01*
X0148986Y0423765D01*
X0148896Y0423807D01*
X0148808Y0423853D01*
X0148721Y0423902D01*
X0148637Y0423954D01*
X0148555Y0424010D01*
X0148475Y0424069D01*
X0148397Y0424131D01*
X0148322Y0424197D01*
X0148250Y0424265D01*
X0148180Y0424336D01*
X0148114Y0424409D01*
X0148050Y0424486D01*
X0147989Y0424564D01*
X0147932Y0424646D01*
X0147878Y0424729D01*
X0147827Y0424814D01*
X0147779Y0424902D01*
X0147735Y0424991D01*
X0147695Y0425082D01*
X0147658Y0425174D01*
X0147625Y0425268D01*
X0147596Y0425363D01*
X0147571Y0425459D01*
X0147549Y0425556D01*
X0147532Y0425654D01*
X0147518Y0425752D01*
X0147508Y0425851D01*
X0147502Y0425951D01*
X0147500Y0426050D01*
X0601000Y0026050D02*
X0601002Y0026176D01*
X0601008Y0026302D01*
X0601018Y0026428D01*
X0601032Y0026554D01*
X0601050Y0026679D01*
X0601072Y0026803D01*
X0601097Y0026927D01*
X0601127Y0027050D01*
X0601160Y0027171D01*
X0601198Y0027292D01*
X0601239Y0027411D01*
X0601284Y0027530D01*
X0601332Y0027646D01*
X0601384Y0027761D01*
X0601440Y0027874D01*
X0601500Y0027986D01*
X0601563Y0028095D01*
X0601629Y0028203D01*
X0601698Y0028308D01*
X0601771Y0028411D01*
X0601848Y0028512D01*
X0601927Y0028610D01*
X0602009Y0028706D01*
X0602095Y0028799D01*
X0602183Y0028890D01*
X0602274Y0028977D01*
X0602368Y0029062D01*
X0602464Y0029143D01*
X0602563Y0029222D01*
X0602664Y0029297D01*
X0602768Y0029369D01*
X0602874Y0029438D01*
X0602982Y0029504D01*
X0603092Y0029566D01*
X0603204Y0029624D01*
X0603317Y0029679D01*
X0603433Y0029730D01*
X0603550Y0029778D01*
X0603668Y0029822D01*
X0603788Y0029862D01*
X0603909Y0029898D01*
X0604031Y0029931D01*
X0604154Y0029960D01*
X0604278Y0029984D01*
X0604402Y0030005D01*
X0604527Y0030022D01*
X0604653Y0030035D01*
X0604779Y0030044D01*
X0604905Y0030049D01*
X0605032Y0030050D01*
X0605158Y0030047D01*
X0605284Y0030040D01*
X0605410Y0030029D01*
X0605535Y0030014D01*
X0605660Y0029995D01*
X0605784Y0029972D01*
X0605908Y0029946D01*
X0606030Y0029915D01*
X0606152Y0029881D01*
X0606272Y0029842D01*
X0606391Y0029800D01*
X0606509Y0029755D01*
X0606625Y0029705D01*
X0606740Y0029652D01*
X0606852Y0029595D01*
X0606963Y0029535D01*
X0607072Y0029471D01*
X0607179Y0029404D01*
X0607284Y0029334D01*
X0607387Y0029260D01*
X0607487Y0029183D01*
X0607585Y0029103D01*
X0607680Y0029020D01*
X0607772Y0028934D01*
X0607862Y0028845D01*
X0607949Y0028753D01*
X0608032Y0028659D01*
X0608113Y0028562D01*
X0608191Y0028462D01*
X0608266Y0028360D01*
X0608337Y0028256D01*
X0608405Y0028149D01*
X0608469Y0028041D01*
X0608530Y0027930D01*
X0608588Y0027818D01*
X0608642Y0027704D01*
X0608692Y0027588D01*
X0608739Y0027471D01*
X0608782Y0027352D01*
X0608821Y0027232D01*
X0608857Y0027111D01*
X0608888Y0026988D01*
X0608916Y0026865D01*
X0608940Y0026741D01*
X0608960Y0026616D01*
X0608976Y0026491D01*
X0608988Y0026365D01*
X0608996Y0026239D01*
X0609000Y0026113D01*
X0609000Y0025987D01*
X0608996Y0025861D01*
X0608988Y0025735D01*
X0608976Y0025609D01*
X0608960Y0025484D01*
X0608940Y0025359D01*
X0608916Y0025235D01*
X0608888Y0025112D01*
X0608857Y0024989D01*
X0608821Y0024868D01*
X0608782Y0024748D01*
X0608739Y0024629D01*
X0608692Y0024512D01*
X0608642Y0024396D01*
X0608588Y0024282D01*
X0608530Y0024170D01*
X0608469Y0024059D01*
X0608405Y0023951D01*
X0608337Y0023844D01*
X0608266Y0023740D01*
X0608191Y0023638D01*
X0608113Y0023538D01*
X0608032Y0023441D01*
X0607949Y0023347D01*
X0607862Y0023255D01*
X0607772Y0023166D01*
X0607680Y0023080D01*
X0607585Y0022997D01*
X0607487Y0022917D01*
X0607387Y0022840D01*
X0607284Y0022766D01*
X0607179Y0022696D01*
X0607072Y0022629D01*
X0606963Y0022565D01*
X0606852Y0022505D01*
X0606740Y0022448D01*
X0606625Y0022395D01*
X0606509Y0022345D01*
X0606391Y0022300D01*
X0606272Y0022258D01*
X0606152Y0022219D01*
X0606030Y0022185D01*
X0605908Y0022154D01*
X0605784Y0022128D01*
X0605660Y0022105D01*
X0605535Y0022086D01*
X0605410Y0022071D01*
X0605284Y0022060D01*
X0605158Y0022053D01*
X0605032Y0022050D01*
X0604905Y0022051D01*
X0604779Y0022056D01*
X0604653Y0022065D01*
X0604527Y0022078D01*
X0604402Y0022095D01*
X0604278Y0022116D01*
X0604154Y0022140D01*
X0604031Y0022169D01*
X0603909Y0022202D01*
X0603788Y0022238D01*
X0603668Y0022278D01*
X0603550Y0022322D01*
X0603433Y0022370D01*
X0603317Y0022421D01*
X0603204Y0022476D01*
X0603092Y0022534D01*
X0602982Y0022596D01*
X0602874Y0022662D01*
X0602768Y0022731D01*
X0602664Y0022803D01*
X0602563Y0022878D01*
X0602464Y0022957D01*
X0602368Y0023038D01*
X0602274Y0023123D01*
X0602183Y0023210D01*
X0602095Y0023301D01*
X0602009Y0023394D01*
X0601927Y0023490D01*
X0601848Y0023588D01*
X0601771Y0023689D01*
X0601698Y0023792D01*
X0601629Y0023897D01*
X0601563Y0024005D01*
X0601500Y0024114D01*
X0601440Y0024226D01*
X0601384Y0024339D01*
X0601332Y0024454D01*
X0601284Y0024570D01*
X0601239Y0024689D01*
X0601198Y0024808D01*
X0601160Y0024929D01*
X0601127Y0025050D01*
X0601097Y0025173D01*
X0601072Y0025297D01*
X0601050Y0025421D01*
X0601032Y0025546D01*
X0601018Y0025672D01*
X0601008Y0025798D01*
X0601002Y0025924D01*
X0601000Y0026050D01*
X0601500Y0026050D02*
X0601502Y0026168D01*
X0601508Y0026286D01*
X0601518Y0026404D01*
X0601532Y0026521D01*
X0601550Y0026638D01*
X0601572Y0026755D01*
X0601597Y0026870D01*
X0601627Y0026984D01*
X0601661Y0027098D01*
X0601698Y0027210D01*
X0601739Y0027321D01*
X0601784Y0027430D01*
X0601832Y0027538D01*
X0601884Y0027644D01*
X0601940Y0027749D01*
X0601999Y0027851D01*
X0602061Y0027951D01*
X0602127Y0028049D01*
X0602196Y0028145D01*
X0602269Y0028239D01*
X0602344Y0028330D01*
X0602423Y0028418D01*
X0602504Y0028504D01*
X0602589Y0028587D01*
X0602676Y0028667D01*
X0602765Y0028744D01*
X0602858Y0028818D01*
X0602952Y0028888D01*
X0603049Y0028956D01*
X0603149Y0029020D01*
X0603250Y0029081D01*
X0603353Y0029138D01*
X0603459Y0029192D01*
X0603566Y0029243D01*
X0603674Y0029289D01*
X0603784Y0029332D01*
X0603896Y0029371D01*
X0604009Y0029407D01*
X0604123Y0029438D01*
X0604238Y0029466D01*
X0604353Y0029490D01*
X0604470Y0029510D01*
X0604587Y0029526D01*
X0604705Y0029538D01*
X0604823Y0029546D01*
X0604941Y0029550D01*
X0605059Y0029550D01*
X0605177Y0029546D01*
X0605295Y0029538D01*
X0605413Y0029526D01*
X0605530Y0029510D01*
X0605647Y0029490D01*
X0605762Y0029466D01*
X0605877Y0029438D01*
X0605991Y0029407D01*
X0606104Y0029371D01*
X0606216Y0029332D01*
X0606326Y0029289D01*
X0606434Y0029243D01*
X0606541Y0029192D01*
X0606647Y0029138D01*
X0606750Y0029081D01*
X0606851Y0029020D01*
X0606951Y0028956D01*
X0607048Y0028888D01*
X0607142Y0028818D01*
X0607235Y0028744D01*
X0607324Y0028667D01*
X0607411Y0028587D01*
X0607496Y0028504D01*
X0607577Y0028418D01*
X0607656Y0028330D01*
X0607731Y0028239D01*
X0607804Y0028145D01*
X0607873Y0028049D01*
X0607939Y0027951D01*
X0608001Y0027851D01*
X0608060Y0027749D01*
X0608116Y0027644D01*
X0608168Y0027538D01*
X0608216Y0027430D01*
X0608261Y0027321D01*
X0608302Y0027210D01*
X0608339Y0027098D01*
X0608373Y0026984D01*
X0608403Y0026870D01*
X0608428Y0026755D01*
X0608450Y0026638D01*
X0608468Y0026521D01*
X0608482Y0026404D01*
X0608492Y0026286D01*
X0608498Y0026168D01*
X0608500Y0026050D01*
X0608498Y0025932D01*
X0608492Y0025814D01*
X0608482Y0025696D01*
X0608468Y0025579D01*
X0608450Y0025462D01*
X0608428Y0025345D01*
X0608403Y0025230D01*
X0608373Y0025116D01*
X0608339Y0025002D01*
X0608302Y0024890D01*
X0608261Y0024779D01*
X0608216Y0024670D01*
X0608168Y0024562D01*
X0608116Y0024456D01*
X0608060Y0024351D01*
X0608001Y0024249D01*
X0607939Y0024149D01*
X0607873Y0024051D01*
X0607804Y0023955D01*
X0607731Y0023861D01*
X0607656Y0023770D01*
X0607577Y0023682D01*
X0607496Y0023596D01*
X0607411Y0023513D01*
X0607324Y0023433D01*
X0607235Y0023356D01*
X0607142Y0023282D01*
X0607048Y0023212D01*
X0606951Y0023144D01*
X0606851Y0023080D01*
X0606750Y0023019D01*
X0606647Y0022962D01*
X0606541Y0022908D01*
X0606434Y0022857D01*
X0606326Y0022811D01*
X0606216Y0022768D01*
X0606104Y0022729D01*
X0605991Y0022693D01*
X0605877Y0022662D01*
X0605762Y0022634D01*
X0605647Y0022610D01*
X0605530Y0022590D01*
X0605413Y0022574D01*
X0605295Y0022562D01*
X0605177Y0022554D01*
X0605059Y0022550D01*
X0604941Y0022550D01*
X0604823Y0022554D01*
X0604705Y0022562D01*
X0604587Y0022574D01*
X0604470Y0022590D01*
X0604353Y0022610D01*
X0604238Y0022634D01*
X0604123Y0022662D01*
X0604009Y0022693D01*
X0603896Y0022729D01*
X0603784Y0022768D01*
X0603674Y0022811D01*
X0603566Y0022857D01*
X0603459Y0022908D01*
X0603353Y0022962D01*
X0603250Y0023019D01*
X0603149Y0023080D01*
X0603049Y0023144D01*
X0602952Y0023212D01*
X0602858Y0023282D01*
X0602765Y0023356D01*
X0602676Y0023433D01*
X0602589Y0023513D01*
X0602504Y0023596D01*
X0602423Y0023682D01*
X0602344Y0023770D01*
X0602269Y0023861D01*
X0602196Y0023955D01*
X0602127Y0024051D01*
X0602061Y0024149D01*
X0601999Y0024249D01*
X0601940Y0024351D01*
X0601884Y0024456D01*
X0601832Y0024562D01*
X0601784Y0024670D01*
X0601739Y0024779D01*
X0601698Y0024890D01*
X0601661Y0025002D01*
X0601627Y0025116D01*
X0601597Y0025230D01*
X0601572Y0025345D01*
X0601550Y0025462D01*
X0601532Y0025579D01*
X0601518Y0025696D01*
X0601508Y0025814D01*
X0601502Y0025932D01*
X0601500Y0026050D01*
X0602000Y0026050D02*
X0602002Y0026159D01*
X0602008Y0026268D01*
X0602018Y0026376D01*
X0602032Y0026484D01*
X0602049Y0026592D01*
X0602071Y0026699D01*
X0602096Y0026805D01*
X0602126Y0026909D01*
X0602159Y0027013D01*
X0602196Y0027116D01*
X0602236Y0027217D01*
X0602280Y0027316D01*
X0602328Y0027414D01*
X0602380Y0027511D01*
X0602434Y0027605D01*
X0602492Y0027697D01*
X0602554Y0027787D01*
X0602619Y0027874D01*
X0602686Y0027960D01*
X0602757Y0028043D01*
X0602831Y0028123D01*
X0602908Y0028200D01*
X0602987Y0028275D01*
X0603069Y0028346D01*
X0603154Y0028415D01*
X0603241Y0028480D01*
X0603330Y0028543D01*
X0603422Y0028601D01*
X0603516Y0028657D01*
X0603611Y0028709D01*
X0603709Y0028758D01*
X0603808Y0028803D01*
X0603909Y0028845D01*
X0604011Y0028882D01*
X0604114Y0028916D01*
X0604219Y0028947D01*
X0604325Y0028973D01*
X0604431Y0028996D01*
X0604539Y0029014D01*
X0604647Y0029029D01*
X0604755Y0029040D01*
X0604864Y0029047D01*
X0604973Y0029050D01*
X0605082Y0029049D01*
X0605191Y0029044D01*
X0605299Y0029035D01*
X0605407Y0029022D01*
X0605515Y0029005D01*
X0605622Y0028985D01*
X0605728Y0028960D01*
X0605833Y0028932D01*
X0605937Y0028900D01*
X0606040Y0028864D01*
X0606142Y0028824D01*
X0606242Y0028781D01*
X0606340Y0028734D01*
X0606437Y0028684D01*
X0606531Y0028630D01*
X0606624Y0028572D01*
X0606715Y0028512D01*
X0606803Y0028448D01*
X0606889Y0028381D01*
X0606972Y0028311D01*
X0607053Y0028238D01*
X0607131Y0028162D01*
X0607206Y0028083D01*
X0607279Y0028001D01*
X0607348Y0027917D01*
X0607414Y0027831D01*
X0607477Y0027742D01*
X0607537Y0027651D01*
X0607594Y0027558D01*
X0607647Y0027463D01*
X0607696Y0027366D01*
X0607742Y0027267D01*
X0607784Y0027167D01*
X0607823Y0027065D01*
X0607858Y0026961D01*
X0607889Y0026857D01*
X0607917Y0026752D01*
X0607940Y0026645D01*
X0607960Y0026538D01*
X0607976Y0026430D01*
X0607988Y0026322D01*
X0607996Y0026213D01*
X0608000Y0026104D01*
X0608000Y0025996D01*
X0607996Y0025887D01*
X0607988Y0025778D01*
X0607976Y0025670D01*
X0607960Y0025562D01*
X0607940Y0025455D01*
X0607917Y0025348D01*
X0607889Y0025243D01*
X0607858Y0025139D01*
X0607823Y0025035D01*
X0607784Y0024933D01*
X0607742Y0024833D01*
X0607696Y0024734D01*
X0607647Y0024637D01*
X0607594Y0024542D01*
X0607537Y0024449D01*
X0607477Y0024358D01*
X0607414Y0024269D01*
X0607348Y0024183D01*
X0607279Y0024099D01*
X0607206Y0024017D01*
X0607131Y0023938D01*
X0607053Y0023862D01*
X0606972Y0023789D01*
X0606889Y0023719D01*
X0606803Y0023652D01*
X0606715Y0023588D01*
X0606624Y0023528D01*
X0606531Y0023470D01*
X0606437Y0023416D01*
X0606340Y0023366D01*
X0606242Y0023319D01*
X0606142Y0023276D01*
X0606040Y0023236D01*
X0605937Y0023200D01*
X0605833Y0023168D01*
X0605728Y0023140D01*
X0605622Y0023115D01*
X0605515Y0023095D01*
X0605407Y0023078D01*
X0605299Y0023065D01*
X0605191Y0023056D01*
X0605082Y0023051D01*
X0604973Y0023050D01*
X0604864Y0023053D01*
X0604755Y0023060D01*
X0604647Y0023071D01*
X0604539Y0023086D01*
X0604431Y0023104D01*
X0604325Y0023127D01*
X0604219Y0023153D01*
X0604114Y0023184D01*
X0604011Y0023218D01*
X0603909Y0023255D01*
X0603808Y0023297D01*
X0603709Y0023342D01*
X0603611Y0023391D01*
X0603516Y0023443D01*
X0603422Y0023499D01*
X0603330Y0023557D01*
X0603241Y0023620D01*
X0603154Y0023685D01*
X0603069Y0023754D01*
X0602987Y0023825D01*
X0602908Y0023900D01*
X0602831Y0023977D01*
X0602757Y0024057D01*
X0602686Y0024140D01*
X0602619Y0024226D01*
X0602554Y0024313D01*
X0602492Y0024403D01*
X0602434Y0024495D01*
X0602380Y0024589D01*
X0602328Y0024686D01*
X0602280Y0024784D01*
X0602236Y0024883D01*
X0602196Y0024984D01*
X0602159Y0025087D01*
X0602126Y0025191D01*
X0602096Y0025295D01*
X0602071Y0025401D01*
X0602049Y0025508D01*
X0602032Y0025616D01*
X0602018Y0025724D01*
X0602008Y0025832D01*
X0602002Y0025941D01*
X0602000Y0026050D01*
X0600500Y0026050D02*
X0600502Y0026184D01*
X0600508Y0026318D01*
X0600518Y0026451D01*
X0600532Y0026585D01*
X0600550Y0026718D01*
X0600572Y0026850D01*
X0600597Y0026981D01*
X0600627Y0027112D01*
X0600661Y0027242D01*
X0600698Y0027370D01*
X0600739Y0027498D01*
X0600784Y0027624D01*
X0600833Y0027749D01*
X0600885Y0027872D01*
X0600941Y0027994D01*
X0601001Y0028114D01*
X0601064Y0028232D01*
X0601131Y0028348D01*
X0601201Y0028462D01*
X0601275Y0028574D01*
X0601352Y0028684D01*
X0601432Y0028792D01*
X0601515Y0028897D01*
X0601601Y0028999D01*
X0601690Y0029099D01*
X0601783Y0029196D01*
X0601878Y0029291D01*
X0601976Y0029382D01*
X0602076Y0029471D01*
X0602179Y0029556D01*
X0602285Y0029639D01*
X0602393Y0029718D01*
X0602503Y0029794D01*
X0602616Y0029867D01*
X0602731Y0029936D01*
X0602847Y0030002D01*
X0602966Y0030064D01*
X0603086Y0030123D01*
X0603209Y0030178D01*
X0603332Y0030230D01*
X0603457Y0030277D01*
X0603584Y0030321D01*
X0603712Y0030362D01*
X0603841Y0030398D01*
X0603971Y0030431D01*
X0604102Y0030459D01*
X0604233Y0030484D01*
X0604366Y0030505D01*
X0604499Y0030522D01*
X0604632Y0030535D01*
X0604766Y0030544D01*
X0604900Y0030549D01*
X0605034Y0030550D01*
X0605167Y0030547D01*
X0605301Y0030540D01*
X0605435Y0030529D01*
X0605568Y0030514D01*
X0605701Y0030495D01*
X0605833Y0030472D01*
X0605964Y0030446D01*
X0606094Y0030415D01*
X0606224Y0030380D01*
X0606352Y0030342D01*
X0606479Y0030300D01*
X0606605Y0030254D01*
X0606730Y0030204D01*
X0606853Y0030151D01*
X0606974Y0030094D01*
X0607094Y0030033D01*
X0607211Y0029969D01*
X0607327Y0029902D01*
X0607441Y0029831D01*
X0607552Y0029756D01*
X0607661Y0029679D01*
X0607768Y0029598D01*
X0607873Y0029514D01*
X0607974Y0029427D01*
X0608074Y0029337D01*
X0608170Y0029244D01*
X0608264Y0029148D01*
X0608355Y0029049D01*
X0608442Y0028948D01*
X0608527Y0028844D01*
X0608609Y0028738D01*
X0608687Y0028630D01*
X0608762Y0028519D01*
X0608834Y0028406D01*
X0608903Y0028290D01*
X0608968Y0028173D01*
X0609029Y0028054D01*
X0609087Y0027933D01*
X0609141Y0027811D01*
X0609192Y0027687D01*
X0609239Y0027561D01*
X0609282Y0027434D01*
X0609321Y0027306D01*
X0609357Y0027177D01*
X0609388Y0027047D01*
X0609416Y0026916D01*
X0609440Y0026784D01*
X0609460Y0026651D01*
X0609476Y0026518D01*
X0609488Y0026385D01*
X0609496Y0026251D01*
X0609500Y0026117D01*
X0609500Y0025983D01*
X0609496Y0025849D01*
X0609488Y0025715D01*
X0609476Y0025582D01*
X0609460Y0025449D01*
X0609440Y0025316D01*
X0609416Y0025184D01*
X0609388Y0025053D01*
X0609357Y0024923D01*
X0609321Y0024794D01*
X0609282Y0024666D01*
X0609239Y0024539D01*
X0609192Y0024413D01*
X0609141Y0024289D01*
X0609087Y0024167D01*
X0609029Y0024046D01*
X0608968Y0023927D01*
X0608903Y0023810D01*
X0608834Y0023694D01*
X0608762Y0023581D01*
X0608687Y0023470D01*
X0608609Y0023362D01*
X0608527Y0023256D01*
X0608442Y0023152D01*
X0608355Y0023051D01*
X0608264Y0022952D01*
X0608170Y0022856D01*
X0608074Y0022763D01*
X0607974Y0022673D01*
X0607873Y0022586D01*
X0607768Y0022502D01*
X0607661Y0022421D01*
X0607552Y0022344D01*
X0607441Y0022269D01*
X0607327Y0022198D01*
X0607211Y0022131D01*
X0607094Y0022067D01*
X0606974Y0022006D01*
X0606853Y0021949D01*
X0606730Y0021896D01*
X0606605Y0021846D01*
X0606479Y0021800D01*
X0606352Y0021758D01*
X0606224Y0021720D01*
X0606094Y0021685D01*
X0605964Y0021654D01*
X0605833Y0021628D01*
X0605701Y0021605D01*
X0605568Y0021586D01*
X0605435Y0021571D01*
X0605301Y0021560D01*
X0605167Y0021553D01*
X0605034Y0021550D01*
X0604900Y0021551D01*
X0604766Y0021556D01*
X0604632Y0021565D01*
X0604499Y0021578D01*
X0604366Y0021595D01*
X0604233Y0021616D01*
X0604102Y0021641D01*
X0603971Y0021669D01*
X0603841Y0021702D01*
X0603712Y0021738D01*
X0603584Y0021779D01*
X0603457Y0021823D01*
X0603332Y0021870D01*
X0603209Y0021922D01*
X0603086Y0021977D01*
X0602966Y0022036D01*
X0602847Y0022098D01*
X0602731Y0022164D01*
X0602616Y0022233D01*
X0602503Y0022306D01*
X0602393Y0022382D01*
X0602285Y0022461D01*
X0602179Y0022544D01*
X0602076Y0022629D01*
X0601976Y0022718D01*
X0601878Y0022809D01*
X0601783Y0022904D01*
X0601690Y0023001D01*
X0601601Y0023101D01*
X0601515Y0023203D01*
X0601432Y0023308D01*
X0601352Y0023416D01*
X0601275Y0023526D01*
X0601201Y0023638D01*
X0601131Y0023752D01*
X0601064Y0023868D01*
X0601001Y0023986D01*
X0600941Y0024106D01*
X0600885Y0024228D01*
X0600833Y0024351D01*
X0600784Y0024476D01*
X0600739Y0024602D01*
X0600698Y0024730D01*
X0600661Y0024858D01*
X0600627Y0024988D01*
X0600597Y0025119D01*
X0600572Y0025250D01*
X0600550Y0025382D01*
X0600532Y0025515D01*
X0600518Y0025649D01*
X0600508Y0025782D01*
X0600502Y0025916D01*
X0600500Y0026050D01*
X0602500Y0026050D02*
X0602502Y0026149D01*
X0602508Y0026249D01*
X0602518Y0026348D01*
X0602532Y0026446D01*
X0602549Y0026544D01*
X0602571Y0026641D01*
X0602596Y0026737D01*
X0602625Y0026832D01*
X0602658Y0026926D01*
X0602695Y0027018D01*
X0602735Y0027109D01*
X0602779Y0027198D01*
X0602827Y0027286D01*
X0602878Y0027371D01*
X0602932Y0027454D01*
X0602989Y0027536D01*
X0603050Y0027614D01*
X0603114Y0027691D01*
X0603180Y0027764D01*
X0603250Y0027835D01*
X0603322Y0027903D01*
X0603397Y0027969D01*
X0603475Y0028031D01*
X0603555Y0028090D01*
X0603637Y0028146D01*
X0603721Y0028198D01*
X0603808Y0028247D01*
X0603896Y0028293D01*
X0603986Y0028335D01*
X0604078Y0028374D01*
X0604171Y0028409D01*
X0604265Y0028440D01*
X0604361Y0028467D01*
X0604458Y0028490D01*
X0604555Y0028510D01*
X0604653Y0028526D01*
X0604752Y0028538D01*
X0604851Y0028546D01*
X0604950Y0028550D01*
X0605050Y0028550D01*
X0605149Y0028546D01*
X0605248Y0028538D01*
X0605347Y0028526D01*
X0605445Y0028510D01*
X0605542Y0028490D01*
X0605639Y0028467D01*
X0605735Y0028440D01*
X0605829Y0028409D01*
X0605922Y0028374D01*
X0606014Y0028335D01*
X0606104Y0028293D01*
X0606192Y0028247D01*
X0606279Y0028198D01*
X0606363Y0028146D01*
X0606445Y0028090D01*
X0606525Y0028031D01*
X0606603Y0027969D01*
X0606678Y0027903D01*
X0606750Y0027835D01*
X0606820Y0027764D01*
X0606886Y0027691D01*
X0606950Y0027614D01*
X0607011Y0027536D01*
X0607068Y0027454D01*
X0607122Y0027371D01*
X0607173Y0027286D01*
X0607221Y0027198D01*
X0607265Y0027109D01*
X0607305Y0027018D01*
X0607342Y0026926D01*
X0607375Y0026832D01*
X0607404Y0026737D01*
X0607429Y0026641D01*
X0607451Y0026544D01*
X0607468Y0026446D01*
X0607482Y0026348D01*
X0607492Y0026249D01*
X0607498Y0026149D01*
X0607500Y0026050D01*
X0607498Y0025951D01*
X0607492Y0025851D01*
X0607482Y0025752D01*
X0607468Y0025654D01*
X0607451Y0025556D01*
X0607429Y0025459D01*
X0607404Y0025363D01*
X0607375Y0025268D01*
X0607342Y0025174D01*
X0607305Y0025082D01*
X0607265Y0024991D01*
X0607221Y0024902D01*
X0607173Y0024814D01*
X0607122Y0024729D01*
X0607068Y0024646D01*
X0607011Y0024564D01*
X0606950Y0024486D01*
X0606886Y0024409D01*
X0606820Y0024336D01*
X0606750Y0024265D01*
X0606678Y0024197D01*
X0606603Y0024131D01*
X0606525Y0024069D01*
X0606445Y0024010D01*
X0606363Y0023954D01*
X0606279Y0023902D01*
X0606192Y0023853D01*
X0606104Y0023807D01*
X0606014Y0023765D01*
X0605922Y0023726D01*
X0605829Y0023691D01*
X0605735Y0023660D01*
X0605639Y0023633D01*
X0605542Y0023610D01*
X0605445Y0023590D01*
X0605347Y0023574D01*
X0605248Y0023562D01*
X0605149Y0023554D01*
X0605050Y0023550D01*
X0604950Y0023550D01*
X0604851Y0023554D01*
X0604752Y0023562D01*
X0604653Y0023574D01*
X0604555Y0023590D01*
X0604458Y0023610D01*
X0604361Y0023633D01*
X0604265Y0023660D01*
X0604171Y0023691D01*
X0604078Y0023726D01*
X0603986Y0023765D01*
X0603896Y0023807D01*
X0603808Y0023853D01*
X0603721Y0023902D01*
X0603637Y0023954D01*
X0603555Y0024010D01*
X0603475Y0024069D01*
X0603397Y0024131D01*
X0603322Y0024197D01*
X0603250Y0024265D01*
X0603180Y0024336D01*
X0603114Y0024409D01*
X0603050Y0024486D01*
X0602989Y0024564D01*
X0602932Y0024646D01*
X0602878Y0024729D01*
X0602827Y0024814D01*
X0602779Y0024902D01*
X0602735Y0024991D01*
X0602695Y0025082D01*
X0602658Y0025174D01*
X0602625Y0025268D01*
X0602596Y0025363D01*
X0602571Y0025459D01*
X0602549Y0025556D01*
X0602532Y0025654D01*
X0602518Y0025752D01*
X0602508Y0025851D01*
X0602502Y0025951D01*
X0602500Y0026050D01*
D13*
X0116843Y0066050D03*
X0097157Y0066050D03*
X0097157Y0119550D03*
X0116843Y0119550D03*
X0116843Y0172550D03*
X0097157Y0172550D03*
X0097157Y0226050D03*
X0116843Y0226050D03*
X0116843Y0279550D03*
X0097157Y0279550D03*
D14*
X0024000Y0062250D03*
X0024000Y0077850D03*
X0024000Y0093450D03*
X0024000Y0109050D03*
X0024000Y0124650D03*
X0024000Y0140250D03*
X0024000Y0155850D03*
X0024000Y0171450D03*
X0024000Y0187050D03*
X0024000Y0202650D03*
X0024000Y0218250D03*
X0024000Y0233850D03*
X0024000Y0249450D03*
X0024000Y0265050D03*
X0024000Y0280650D03*
X0024000Y0296250D03*
X0024000Y0311850D03*
X0024000Y0327450D03*
X0024000Y0343050D03*
X0024000Y0358650D03*
X0024000Y0374250D03*
X0024000Y0389850D03*
D15*
X0050000Y0343050D03*
X0060000Y0343050D03*
X0095000Y0368550D03*
X0105000Y0399121D03*
X0147000Y0343050D03*
X0218500Y0317550D03*
X0147000Y0260550D03*
X0070000Y0296250D03*
X0065000Y0202650D03*
M02*
