%
M48
M72
T01C0.0236
T02C0.0276
T03C0.0315
T04C0.0320
T05C0.0354
%
T01
X6140Y39912
X6140Y29625
X14700Y26055
X21850Y31755
X14700Y34305
X7050Y20255
X7050Y36855
T02
X9716Y27955
X11684Y27955
X11684Y22605
X9716Y22605
X11684Y6605
X9716Y6605
X9716Y11955
X11684Y11955
X9716Y17255
X11684Y17255
T03
X35450Y42755
X36450Y40755
X35450Y37755
X56850Y37755
X57850Y40755
X56850Y42755
T04
X30550Y21898
X29843Y22605
X30550Y23312
X30550Y27248
X29843Y27955
X30550Y28662
X29200Y35012
X28493Y34305
X29200Y33598
X24650Y30605
X21650Y30605
X21650Y25255
X30550Y16548
X29843Y17255
X30550Y17962
X35200Y19955
X35200Y22605
X35200Y27955
X35200Y30605
X20700Y39912
X21407Y39205
X20700Y38498
X28050Y30605
X31050Y30605
X24650Y28662
X23943Y27955
X24650Y27248
X24650Y25255
X24650Y23312
X23943Y22605
X24650Y21898
X24650Y19955
X24650Y17962
X23943Y17255
X24650Y16548
X24650Y14605
X30550Y11248
X29843Y11955
X30550Y12662
X35200Y14605
X38200Y14605
X46950Y9255
X42200Y22605
X46950Y14605
X43950Y14605
X43950Y9255
X30100Y9255
X30550Y7312
X29843Y6605
X30550Y5898
X24650Y9255
X21650Y9255
X24650Y12662
X23943Y11955
X24650Y11248
X21650Y14605
X21650Y19955
X41100Y38498
X41807Y39205
X41100Y39912
X49200Y30605
X38200Y30605
X38200Y27955
X38200Y22605
X42200Y19955
X45200Y19955
X45200Y22605
X52200Y27955
X49200Y27955
X52200Y30605
X38200Y19955
X38200Y9255
X35200Y9255
X33100Y9255
X24650Y7312
X23943Y6605
X24650Y5898
T05
X9700Y30605
X15700Y25255
X13700Y25255
X9700Y25255
X15700Y22605
X27550Y25255
X31300Y35855
X26750Y35855
X24650Y37755
X19700Y30605
X21850Y34305
X17850Y34305
X13700Y30605
X15700Y30605
X19700Y25255
X19700Y22605
X19700Y19955
X31550Y19955
X31550Y25255
X31300Y39855
X26750Y39855
X24650Y41755
X27550Y19955
X27550Y14605
X31550Y14605
X45050Y37755
X19700Y9255
X15700Y9255
X13700Y9255
X9700Y9255
X9700Y14605
X9700Y19955
X13700Y19955
X15700Y19955
X19700Y17255
X19700Y14605
X19700Y11955
X15700Y14605
X13700Y14605
X15700Y11955
X15700Y17255
X19700Y27955
X15700Y27955
X47150Y39855
X45050Y41755
X51700Y39855
X45700Y30605
X41700Y30605
X48700Y22605
X48700Y19955
X52700Y19955
X55700Y19955
X55700Y22605
X52700Y22605
X55700Y30605
X59700Y30605
X51700Y35855
X47150Y35855
X59700Y22605
X59700Y19955
X56200Y14655
X56200Y11905
X56200Y9255
X56200Y6605
X52200Y6605
X52200Y9255
X52200Y11905
X52200Y14655
X19700Y6605
X15700Y6605
M30
